<?xml version="1.0" encoding="UTF-8" standalone="no"?>
<!-- Created with Inkscape (http://www.inkscape.org/) -->

<svg
   version="1.1"
   id="svg2136"
   xml:space="preserve"
   width="682.66669"
   height="682.66669"
   viewBox="0 0 682.66669 682.66669"
   xmlns="http://www.w3.org/2000/svg"
   xmlns:svg="http://www.w3.org/2000/svg"><defs
     id="defs2140"><clipPath
       clipPathUnits="userSpaceOnUse"
       id="clipPath2150"><path
         d="M 0,512 H 512 V 0 H 0 Z"
         id="path2148" /></clipPath></defs><g
     id="g2142"
     transform="matrix(1.3333333,0,0,-1.3333333,0,682.66667)"><g
       id="g2144"><g
         id="g2146"
         clip-path="url(#clipPath2150)"><g
           id="g2152"
           transform="translate(501.5542,315.2495)"><path
             d="m 0,0 -31.073,-31.073 c -3.928,-3.928 -10.296,-3.928 -14.224,0 L -118.63,42.26 c -14.424,14.424 -37.809,14.424 -52.232,0 L -445.81,-232.688 c -3.928,-3.928 -10.296,-3.928 -14.225,0 l -31.072,31.073 c -3.928,3.928 -3.928,10.297 0,14.224 l 274.948,274.949 c 39.372,39.372 103.446,39.38 142.826,0 L 0,14.224 C 3.928,10.296 3.928,3.928 0,0"
             style="fill:#eee2dd;fill-opacity:1;fill-rule:nonzero;stroke:none"
             id="path2154" /></g><g
           id="g2156"
           transform="translate(501.5498,315.251)"><path
             d="m 0,0 -31.07,-31.07 c -3.93,-3.93 -10.3,-3.93 -14.22,0 l -16.56,16.56 c 3.94,-3.79 10.2,-3.74 14.08,0.14 L -16.7,16.7 c 3.81,3.81 3.93,9.9 0.36,13.86 L 0,14.22 C 3.93,10.29 3.93,3.93 0,0"
             style="fill:#cdc0bb;fill-opacity:1;fill-rule:nonzero;stroke:none"
             id="path2158" /></g><g
           id="g2160"
           transform="translate(487.3301,301.021)"><path
             d="m 0,0 -16.85,-16.84 c -3.93,-3.93 -10.3,-3.93 -14.22,0 l -16.56,16.56 -56.78,56.77 c -14.42,14.42 -37.8,14.42 -52.23,0 l -274.95,-274.95 c -3.92,-3.93 -10.29,-3.93 -14.22,0 l -16.85,16.85 282.06,282.06 c 27.66,27.66 72.5,27.66 100.15,0 L -16.7,16.7 Z"
             style="fill:#b9acac;fill-opacity:1;fill-rule:nonzero;stroke:none"
             id="path2162" /></g><g
           id="g2164"
           transform="translate(487.3301,301.021)"><path
             d="m 0,0 -16.85,-16.84 c -3.93,-3.93 -10.3,-3.93 -14.22,0 l -16.56,16.56 c 3.94,-3.79 10.2,-3.74 14.08,0.14 L -16.7,16.7 Z"
             style="fill:#9e9797;fill-opacity:1;fill-rule:nonzero;stroke:none"
             id="path2166" /></g><g
           id="g2168"
           transform="translate(422.1567,366.1982)"><path
             d="m 0,0 -15.272,15.272 c -27.609,27.61 -72.544,27.61 -100.153,0 l -49.842,-49.841"
             style="fill:none;stroke:#000000;stroke-width:15;stroke-linecap:round;stroke-linejoin:round;stroke-miterlimit:10;stroke-dasharray:none;stroke-opacity:1"
             id="path2170" /></g><g
           id="g2172"
           transform="translate(487.3296,301.0254)"><path
             d="M 0,0 -41.131,41.131"
             style="fill:none;stroke:#000000;stroke-width:15;stroke-linecap:round;stroke-linejoin:round;stroke-miterlimit:10;stroke-dasharray:none;stroke-opacity:1"
             id="path2174" /></g><g
           id="g2176"
           transform="translate(232.8481,307.5874)"><path
             d="M 0,0 -208.177,-208.177"
             style="fill:none;stroke:#000000;stroke-width:15;stroke-linecap:round;stroke-linejoin:round;stroke-miterlimit:10;stroke-dasharray:none;stroke-opacity:1"
             id="path2178" /></g><g
           id="g2180"
           transform="translate(121.6128,148.4292)"><path
             d="m 0,0 209.078,209.078 c 14.423,14.423 37.809,14.423 52.233,0 l 73.332,-73.332 c 3.927,-3.928 10.296,-3.928 14.224,0 l 31.074,31.074 c 3.928,3.928 3.928,10.297 0,14.224 l -73.332,73.332 c -39.441,39.442 -103.388,39.442 -142.83,0 L -111.167,-20.569 c -3.928,-3.929 -3.928,-10.297 0,-14.225 l 31.075,-31.074 c 3.927,-3.928 10.296,-3.928 14.224,0 l 41.826,41.826"
             style="fill:none;stroke:#000000;stroke-width:15;stroke-linecap:round;stroke-linejoin:round;stroke-miterlimit:10;stroke-dasharray:none;stroke-opacity:1"
             id="path2182" /></g></g></g></g></svg>
