<?xml version="1.0" encoding="UTF-8" standalone="no"?>
<!-- Created with Inkscape (http://www.inkscape.org/) -->

<svg
   version="1.1"
   id="svg1536"
   xml:space="preserve"
   width="682.66669"
   height="682.66669"
   viewBox="0 0 682.66669 682.66669"
   xmlns="http://www.w3.org/2000/svg"
   xmlns:svg="http://www.w3.org/2000/svg"><defs
     id="defs1540"><clipPath
       clipPathUnits="userSpaceOnUse"
       id="clipPath1552"><path
         d="M 0,512 H 512 V 0 H 0 Z"
         id="path1550" /></clipPath></defs><g
     id="g1542"
     transform="matrix(1.3333333,0,0,-1.3333333,0,682.66667)"><path
       d="M 349.623,57.769 H 162.377 v 31.413 h 187.246 z"
       style="fill:#ffb983;fill-opacity:1;fill-rule:nonzero;stroke:none"
       id="path1544" /><g
       id="g1546"><g
         id="g1548"
         clip-path="url(#clipPath1552)"><g
           id="g1554"
           transform="translate(280.8867,234.0625)"><path
             d="m 0,0 h -49.773 v 245.551 c 0,13.744 11.141,24.886 24.886,24.886 C -11.142,270.437 0,259.295 0,245.551 Z"
             style="fill:#fcd0a3;fill-opacity:1;fill-rule:nonzero;stroke:none"
             id="path1556" /></g><g
           id="g1558"
           transform="translate(134.5098,7.5)"><path
             d="m 0,0 c -6.972,0 -13.403,3.488 -17.206,9.331 -3.802,5.842 -4.386,13.135 -1.564,19.509 L 72.188,234.221 109.727,217.596 18.769,12.216 C 15.483,4.795 8.116,0 0,0"
             style="fill:#fcd0a3;fill-opacity:1;fill-rule:nonzero;stroke:none"
             id="path1560" /></g><g
           id="g1562"
           transform="translate(377.4902,7.5)"><path
             d="m 0,0 c -8.116,0 -15.483,4.795 -18.769,12.215 l -90.958,205.381 37.539,16.625 L 18.77,28.84 C 21.592,22.466 21.008,15.173 17.206,9.331 13.403,3.488 6.972,0 0,0"
             style="fill:#fcd0a3;fill-opacity:1;fill-rule:nonzero;stroke:none"
             id="path1564" /></g><g
           id="g1566"
           transform="translate(463.6611,132.8677)"><path
             d="m 0,0 h -415.322 c -8.291,0 -15.012,6.721 -15.012,15.012 v 284.82 c 0,8.29 6.721,15.011 15.012,15.011 H 0 c 8.291,0 15.012,-6.721 15.012,-15.011 V 15.012 C 15.012,6.721 8.291,0 0,0"
             style="fill:#d58956;fill-opacity:1;fill-rule:nonzero;stroke:none"
             id="path1568" /></g><g
           id="g1570"
           transform="translate(66.3076,178.7046)"><path
             d="m 0,0 v 223.169 c 0,7.101 5.756,12.857 12.856,12.857 h 353.672 c 7.101,0 12.857,-5.756 12.857,-12.857 V 0 c 0,-7.101 -5.756,-12.856 -12.857,-12.856 H 12.856 C 5.756,-12.856 0,-7.101 0,0"
             style="fill:#dcf5ff;fill-opacity:1;fill-rule:nonzero;stroke:none"
             id="path1572" /></g><g
           id="g1574"
           transform="translate(432.8359,414.7305)"><path
             d="m 0,0 h -21.614 v -236.026 c 0,-7.1 -5.756,-12.856 -12.857,-12.856 H 0 c 7.101,0 12.856,5.756 12.856,12.856 v 223.17 C 12.856,-5.756 7.101,0 0,0"
             style="fill:#c7eefb;fill-opacity:1;fill-rule:nonzero;stroke:none"
             id="path1576" /></g><g
           id="g1578"
           transform="translate(387.4678,253.1841)"><path
             d="m 0,0 c 0,-37.603 -30.483,-68.086 -68.086,-68.086 -37.603,0 -68.087,30.483 -68.087,68.086 0,37.604 30.484,68.087 68.087,68.087 C -30.483,68.087 0,37.604 0,0"
             style="fill:#fcdd2e;fill-opacity:1;fill-rule:nonzero;stroke:none"
             id="path1580" /></g><g
           id="g1582"
           transform="translate(136.3154,281.8506)"><path
             d="m 0,0 c -24.753,0 -48.379,-4.101 -70.008,-11.54 v -91.607 c 10e-4,-7.1 5.756,-12.855 12.856,-12.855 H 180.235 C 157.918,-49.043 85.682,0 0,0"
             style="fill:#a1e42c;fill-opacity:1;fill-rule:nonzero;stroke:none"
             id="path1584" /></g><g
           id="g1586"
           transform="translate(171.6533,165.8481)"><path
             d="m 0,0 h 250.721 c -6.944,22.724 -17.515,43.863 -31.053,62.734 -18.879,5.374 -38.805,8.264 -59.408,8.264 C 96.715,70.998 39.609,43.595 0,0"
             style="fill:#eedfda;fill-opacity:1;fill-rule:nonzero;stroke:none"
             id="path1588" /></g><g
           id="g1590"
           transform="translate(433.1777,266.8525)"><path
             d="M 0,0 C -58.601,0 -110.085,-40.259 -139.545,-101.004 H -0.341 c 7.1,0 12.856,5.756 12.856,12.856 V -0.635 C 8.383,-0.224 4.212,0 0,0"
             style="fill:#a1e42c;fill-opacity:1;fill-rule:nonzero;stroke:none"
             id="path1592" /></g><g
           id="g1594"
           transform="translate(177.0518,370.2739)"><path
             d="m 0,0 c -1.937,0 -3.804,-0.3 -5.559,-0.853 -4.119,5.533 -10.71,9.117 -18.137,9.117 -11.058,0 -20.255,-7.943 -22.211,-18.433 -1.133,0.305 -2.323,0.471 -3.553,0.471 -7.521,0 -13.619,-6.098 -13.619,-13.62 0,-7.521 6.098,-13.619 13.619,-13.619 H 0 c 10.2,0 18.469,8.269 18.469,18.468 C 18.469,-8.269 10.2,0 0,0"
             style="fill:#00bef7;fill-opacity:1;fill-rule:nonzero;stroke:none"
             id="path1596" /></g><g
           id="g1598"
           transform="translate(445.6924,178.7046)"><path
             d="m 0,0 v 87.513 c -4.132,0.411 -8.303,0.635 -12.515,0.635 -7.444,0 -14.772,-0.653 -21.956,-1.911 V 0 c 0,-7.101 -5.756,-12.856 -12.856,-12.856 h 34.471 C -5.756,-12.856 0,-7.101 0,0"
             style="fill:#95d528;fill-opacity:1;fill-rule:nonzero;stroke:none"
             id="path1600" /></g><g
           id="g1602"
           transform="translate(463.6611,132.8677)"><path
             d="m 0,0 h -415.322 c -8.291,0 -15.012,6.721 -15.012,15.012 v 284.82 c 0,8.29 6.721,15.011 15.012,15.011 H 0 c 8.291,0 15.012,-6.721 15.012,-15.011 V 15.012 C 15.012,6.721 8.291,0 0,0 Z"
             style="fill:none;stroke:#000000;stroke-width:15;stroke-linecap:round;stroke-linejoin:round;stroke-miterlimit:10;stroke-dasharray:none;stroke-opacity:1"
             id="path1604" /></g><g
           id="g1606"
           transform="translate(396.5039,414.7305)"><path
             d="m 0,0 h 36.332 c 7.101,0 12.856,-5.756 12.856,-12.856 v -223.17 c 0,-7.1 -5.755,-12.856 -12.856,-12.856 H -317.34 c -7.1,0 -12.856,5.756 -12.856,12.856 v 223.17 c 0,7.1 5.756,12.856 12.856,12.856 h 281.934"
             style="fill:none;stroke:#000000;stroke-width:15;stroke-linecap:round;stroke-linejoin:round;stroke-miterlimit:10;stroke-dasharray:none;stroke-opacity:1"
             id="path1608" /></g><g
           id="g1610"
           transform="translate(280.8867,447.7109)"><path
             d="m 0,0 v 31.902 c 0,13.745 -11.142,24.887 -24.887,24.887 -13.745,0 -24.886,-11.142 -24.886,-24.887 V 0"
             style="fill:none;stroke:#000000;stroke-width:15;stroke-linecap:round;stroke-linejoin:round;stroke-miterlimit:10;stroke-dasharray:none;stroke-opacity:1"
             id="path1612" /></g><g
           id="g1614"
           transform="translate(158.4893,132.8677)"><path
             d="m 0,0 -42.749,-96.528 c -2.822,-6.373 -2.238,-13.666 1.563,-19.509 3.803,-5.843 10.235,-9.331 17.207,-9.331 8.116,0 15.483,4.795 18.768,12.216 L 44.901,0"
             style="fill:none;stroke:#000000;stroke-width:15;stroke-linecap:round;stroke-linejoin:round;stroke-miterlimit:10;stroke-dasharray:none;stroke-opacity:1"
             id="path1616" /></g><g
           id="g1618"
           transform="translate(308.6094,132.8677)"><path
             d="m 0,0 50.112,-113.152 c 3.285,-7.421 10.653,-12.216 18.769,-12.216 6.972,0 13.403,3.488 17.206,9.331 3.802,5.843 4.386,13.136 1.563,19.509 L 44.901,0"
             style="fill:none;stroke:#000000;stroke-width:15;stroke-linecap:round;stroke-linejoin:round;stroke-miterlimit:10;stroke-dasharray:none;stroke-opacity:1"
             id="path1620" /></g><g
           id="g1622"
           transform="translate(170.1309,57.7686)"><path
             d="M 0,0 H 171.738"
             style="fill:none;stroke:#000000;stroke-width:15;stroke-linecap:round;stroke-linejoin:round;stroke-miterlimit:10;stroke-dasharray:none;stroke-opacity:1"
             id="path1624" /></g><g
           id="g1626"
           transform="translate(327.957,89.1812)"><path
             d="M 0,0 H -143.914"
             style="fill:none;stroke:#000000;stroke-width:15;stroke-linecap:round;stroke-linejoin:round;stroke-miterlimit:10;stroke-dasharray:none;stroke-opacity:1"
             id="path1628" /></g><g
           id="g1630"
           transform="translate(445.6924,266.2173)"><path
             d="m 0,0 c -4.132,0.412 -8.303,0.635 -12.515,0.635 -58.6,0 -110.085,-40.259 -139.545,-101.004"
             style="fill:none;stroke:#000000;stroke-width:15;stroke-linecap:round;stroke-linejoin:round;stroke-miterlimit:10;stroke-dasharray:none;stroke-opacity:1"
             id="path1632" /></g><g
           id="g1634"
           transform="translate(293.6328,165.8481)"><path
             d="M 0,0 C 13.935,28.732 32.799,52.877 55.011,70.351 49.488,70.774 43.911,70.998 38.28,70.998 -25.265,70.998 -82.37,43.595 -121.979,0"
             style="fill:none;stroke:#000000;stroke-width:15;stroke-linecap:round;stroke-linejoin:round;stroke-miterlimit:10;stroke-dasharray:none;stroke-opacity:1"
             id="path1636" /></g><g
           id="g1638"
           transform="translate(104.9951,279.624)"><path
             d="M 0,0 C -13.436,-1.931 -26.385,-5.082 -38.688,-9.313"
             style="fill:none;stroke:#000000;stroke-width:15;stroke-linecap:round;stroke-linejoin:round;stroke-miterlimit:10;stroke-dasharray:none;stroke-opacity:1"
             id="path1640" /></g><g
           id="g1642"
           transform="translate(275.1875,229.3218)"><path
             d="M 0,0 C -33.438,31.472 -81.381,51.529 -134.837,52.492"
             style="fill:none;stroke:#000000;stroke-width:15;stroke-linecap:round;stroke-linejoin:round;stroke-miterlimit:10;stroke-dasharray:none;stroke-opacity:1"
             id="path1644" /></g><g
           id="g1646"
           transform="translate(387.2559,258.311)"><path
             d="m 0,0 c -2.623,35.206 -31.998,62.96 -67.874,62.96 -37.604,0 -68.087,-30.483 -68.087,-68.087 0,-1.72 0.085,-3.418 0.211,-5.106"
             style="fill:none;stroke:#000000;stroke-width:15;stroke-linecap:round;stroke-linejoin:round;stroke-miterlimit:10;stroke-dasharray:none;stroke-opacity:1"
             id="path1648" /></g><g
           id="g1650"
           transform="translate(177.0518,370.2739)"><path
             d="m 0,0 c -1.937,0 -3.804,-0.3 -5.559,-0.853 -4.119,5.533 -10.71,9.117 -18.137,9.117 -11.058,0 -20.255,-7.943 -22.211,-18.433 -1.133,0.305 -2.323,0.471 -3.553,0.471 -7.521,0 -13.619,-6.098 -13.619,-13.62 0,-7.521 6.098,-13.619 13.619,-13.619 H 0 c 10.2,0 18.469,8.269 18.469,18.468 C 18.469,-8.269 10.2,0 0,0 Z"
             style="fill:none;stroke:#000000;stroke-width:15;stroke-linecap:round;stroke-linejoin:round;stroke-miterlimit:10;stroke-dasharray:none;stroke-opacity:1"
             id="path1652" /></g></g></g></g></svg>
