<svg id="Capa_1" enable-background="new 0 0 512 512" height="512" viewBox="0 0 512 512" width="512" xmlns="http://www.w3.org/2000/svg"><g><path d="m324.5 7.5h30l15 35.113h-60z" fill="#be4e28"/><path d="m493.876 281.122s-70.171-185.465-70.178-185.465c-12.861-33.988-45.704-58.157-84.198-58.157v467c91.127 0 165-73.873 165-165 0-20.555-3.77-40.228-10.624-58.378z" fill="#2d2d2d"/><path d="m474.5 339.5c0-20.555-3.084-40.228-8.693-58.378 0 0-57.412-185.465-57.418-185.465-10.523-33.988-37.394-58.157-68.889-58.157-38.494 0-71.337 24.169-84.205 58.158 0 0-70.171 185.465-70.158 185.465-6.868 18.15-10.638 37.822-10.638 58.378 0 91.127 73.873 165 165 165 74.559-.001 135.001-73.874 135.001-165.001z" fill="#424242"/><path d="m326.862 281.122c.013 0-70.158-185.465-70.158-185.465-12.867-33.988-45.71-58.157-84.204-58.157s-71.337 24.169-84.198 58.158c-.007 0-70.178 185.465-70.178 185.465-6.854 18.149-10.624 37.822-10.624 58.377 0 91.127 73.873 165 165 165s165-73.873 165-165c0-20.555-3.77-40.228-10.638-58.378z" fill="#379030"/><path d="m172.5 474.5c74.439 0 135-60.561 135-135 0-16.436-2.924-32.51-8.69-47.778-.551-1.457-70.171-185.447-70.171-185.447-8.776-23.192-31.336-38.775-56.139-38.775-24.802 0-47.367 15.584-56.148 38.78-18.984 50.175-51.617 136.431-64.579 170.705.004.006-5.577 14.754-5.577 14.754-5.77 15.25-8.696 31.318-8.696 47.761 0 74.439 60.561 135 135 135z" fill="#b9e871"/><path d="m172.5 444.5c57.897 0 105-47.103 105-105 0-12.801-2.273-25.31-6.755-37.179-.546-1.443-70.164-185.429-70.164-185.429-4.389-11.599-15.674-19.392-28.081-19.392-12.409 0-23.698 7.797-28.092 19.402-16.737 44.237-59.207 156.506-59.207 156.506l-10.947 28.948c-4.481 11.845-6.754 24.342-6.754 37.144 0 57.897 47.103 105 105 105z" fill="#fff7d6"/><path d="m172.5 264.5v150c41.421 0 75-33.579 75-75s-33.579-75-75-75z" fill="#9d4528"/><path d="m217.5 339.5c0-41.421-20.147-75-45-75-41.421 0-75 33.579-75 75s33.579 75 75 75c24.853 0 45-33.579 45-75z" fill="#be4e28"/><circle cx="474.5" cy="339.5" r="7.5"/><circle cx="444.5" cy="309.5" r="7.5"/><circle cx="444.5" cy="369.5" r="7.5"/><circle cx="339.5" cy="82.5" r="7.5"/><circle cx="369.5" cy="112.5" r="7.5"/><path d="m255 339.5c0-45.491-37.009-82.5-82.5-82.5s-82.5 37.009-82.5 82.5 37.009 82.5 82.5 82.5 82.5-37.009 82.5-82.5zm-150 0c0-37.22 30.28-67.5 67.5-67.5s67.5 30.28 67.5 67.5-30.28 67.5-67.5 67.5-67.5-30.28-67.5-67.5z"/><path d="m500.84 278.482c-.215-.684-70.121-185.48-70.121-185.48-6.938-18.324-19.107-33.989-35.192-45.303-6.396-4.498-13.235-8.161-20.386-10.973l-13.744-32.172c-1.18-2.762-3.894-4.554-6.897-4.554h-30c-3.003 0-5.717 1.792-6.897 4.554l-13.719 32.113c-19.826 7.734-36.701 21.851-47.879 40.47-6.962-11.544-16.265-21.551-27.479-29.438-16.461-11.579-35.835-17.699-56.026-17.699-20.192 0-39.565 6.12-56.026 17.699-16.085 11.314-28.252 26.991-35.186 45.315l-70.18 185.459c-7.371 19.517-11.108 40.049-11.108 61.027 0 95.117 77.383 172.5 172.5 172.5 30.256 0 58.711-7.84 83.458-21.579 25.47 14.12 54.254 21.579 83.542 21.579 95.117 0 172.5-77.383 172.5-172.5 0-20.993-3.742-41.527-11.16-61.018zm-171.388-263.482h20.097l7.052 16.509c-5.602-.99-11.316-1.509-17.101-1.509-5.812 0-11.524.521-17.097 1.501zm-314.452 324.5c0-19.161 3.412-37.91 10.139-55.723.695-1.837 69.521-183.745 70.164-185.429 12.08-31.924 43.097-53.348 77.197-53.348 34.097 0 65.118 21.425 77.19 53.312.692 1.83 69.122 182.694 70.132 185.396.008.023.017.046.025.069 6.737 17.802 10.153 36.55 10.153 55.723 0 86.846-70.654 157.5-157.5 157.5s-157.5-70.654-157.5-157.5zm324.5 157.5c-23.9 0-47.425-5.445-68.752-15.797 44.839-31.183 74.252-83.069 74.252-141.703 0-20.993-3.742-41.527-11.16-61.018-.215-.684-69.737-184.465-69.737-184.465 13.25-29.874 42.529-49.017 75.397-49.017 34.097 0 65.118 21.425 77.19 53.312.692 1.83 69.122 182.694 70.132 185.396.008.023.017.046.025.069 6.737 17.802 10.153 36.55 10.153 55.723 0 86.846-70.654 157.5-157.5 157.5z"/><path d="m305.825 289.069c-.551-1.457-70.171-185.448-70.171-185.448-9.873-26.091-35.253-43.621-63.154-43.621s-53.284 17.531-63.163 43.626l-26.983 71.32c-1.466 3.874.487 8.203 4.361 9.668 3.876 1.465 8.204-.486 9.668-4.361l26.982-71.318c7.685-20.297 27.431-33.935 49.135-33.935s41.445 13.635 49.125 33.929c0 0 69.62 183.989 70.169 185.442 5.445 14.419 8.206 29.603 8.206 45.129 0 70.304-57.196 127.5-127.5 127.5s-127.5-57.196-127.5-127.5c0-15.532 2.762-30.708 8.21-45.106l32.558-86.081c1.466-3.874-.487-8.203-4.361-9.668-3.876-1.465-8.204.487-9.668 4.361l-26.981 71.326-.035.095c-.333.894-5.541 14.658-5.541 14.658-6.093 16.101-9.182 33.063-9.182 50.415 0 78.575 63.925 142.5 142.5 142.5s142.5-63.925 142.5-142.5c0-17.343-3.086-34.31-9.175-50.431z"/></g></svg>