<?xml version="1.0" encoding="UTF-8"?>
<svg id="Capa_1" data-name="Capa 1" xmlns="http://www.w3.org/2000/svg" viewBox="0 0 500.19 733.1">
  <defs>
    <style>
      .cls-1 {
        fill: #fd8087;
      }

      .cls-2 {
        fill: #e6767c;
      }
    </style>
  </defs>
  <path class="cls-1" d="m433.33,733.1H66.67c-36.82,0-66.67-38.22-66.67-85.36V85.77C0,38.63,29.85.41,66.67.41h366.67c36.82,0,66.67,38.22,66.67,85.36v561.97c0,47.14-29.85,85.36-66.67,85.36Z"/>
  <path class="cls-2" d="m435.61.41h-43.06c35.67,0,64.59,38.22,64.59,85.36v561.97c0,47.14-28.92,85.36-64.59,85.36h43.06c35.67,0,64.59-38.22,64.59-85.36V85.77C500.19,38.63,471.28.41,435.61.41Z"/>
  <path class="cls-2" d="m64.88,732.69h43.06c-35.67,0-64.59-38.22-64.59-85.36V85.36C43.35,38.22,72.27,0,107.94,0h-43.06C29.21,0,.3,38.22.3,85.36v561.97c0,47.14,28.91,85.36,64.59,85.36Z"/>
</svg>