<?xml version="1.0" encoding="UTF-8"?>
<svg id="Capa_1" data-name="Capa 1" xmlns="http://www.w3.org/2000/svg" viewBox="0 0 499.39 745.1">
  <defs>
    <style>
      .cls-1 {
        fill: #e8ad8c;
      }

      .cls-2 {
        fill: #ffe177;
      }

      .cls-3 {
        fill: #fd8087;
      }

      .cls-4 {
        fill: #ffd15b;
      }

      .cls-5 {
        fill: #e19974;
      }

      .cls-6 {
        fill: #c86d36;
      }

      .cls-7 {
        fill: #d77f4a;
      }

      .cls-8 {
        fill: none;
        stroke: #000;
        stroke-linecap: round;
        stroke-linejoin: round;
        stroke-width: 15px;
      }
    </style>
  </defs>
  <path class="cls-3" d="m423.49,735.59H75.9c-34.9,0-63.2-37.73-63.2-84.27V96.53c0-46.54,28.3-84.27,63.2-84.27h347.6c34.9,0,63.2,37.73,63.2,84.27v554.79c0,46.54-28.3,84.27-63.2,84.27Z"/>
  <path class="cls-7" d="m82.85,680.9c-17.84,0-32.29-19.04-32.29-42.53v-124.04h398.28v124.04c0,23.49-14.46,42.53-32.29,42.53H82.85Z"/>
  <path class="cls-6" d="m416.54,397.37H82.85c-17.84,0-32.29,19.04-32.29,42.53v164.07c9.79,6.14,20.74,9.59,32.29,9.59h333.69c11.55,0,22.5-3.45,32.29-9.59v-164.07c0-23.49-14.46-42.53-32.29-42.53Z"/>
  <path class="cls-1" d="m416.54,397.37H82.85c-17.84,0-32.29,19.04-32.29,42.53v74.43c0,23.49,14.46,42.53,32.29,42.53h333.69c17.84,0,32.29-19.04,32.29-42.53v-74.43c0-23.49-14.46-42.53-32.29-42.53Z"/>
  <path class="cls-5" d="m416.54,397.37h-40.37c17.84,0,32.29,19.04,32.29,42.53v74.43c0,23.49-14.46,42.53-32.29,42.53h40.37c17.84,0,32.29-19.04,32.29-42.53v-74.43c0-23.49-14.46-42.53-32.29-42.53Z"/>
  <path class="cls-1" d="m405.78,7.5H93.61c-23.78,0-43.06,19.81-43.06,44.25v163.16c0,24.44,19.28,44.25,43.06,44.25h312.16c23.78,0,43.06-19.81,43.06-44.25V51.75c0-24.44-19.28-44.25-43.06-44.25Z"/>
  <path class="cls-5" d="m405.78,7.5h-40.37c23.78,0,43.06,19.81,43.06,44.25v163.16c0,24.44-19.28,44.25-43.06,44.25h40.37c23.78,0,43.06-19.81,43.06-44.25V51.75c0-24.44-19.28-44.25-43.06-44.25Z"/>
  <path class="cls-2" d="m136.67,618.88h-21.53c-5.94,0-10.76-6.35-10.76-14.18v-95.69c0-7.83,4.82-14.18,10.76-14.18h21.53c5.94,0,10.76,6.35,10.76,14.18v95.69c0,7.83-4.82,14.18-10.76,14.18Z"/>
  <path class="cls-4" d="m362.72,618.88h21.53c5.94,0,10.76-6.35,10.76-14.18v-95.69c0-7.83-4.82-14.18-10.76-14.18h-21.53c-5.94,0-10.76,6.35-10.76,14.18v95.69c0,7.83,4.82,14.18,10.76,14.18Z"/>
  <path class="cls-2" d="m136.67,321.18h-21.53c-5.94,0-10.76-6.35-10.76-14.18v-95.69c0-7.83,4.82-14.18,10.76-14.18h21.53c5.94,0,10.76,6.35,10.76,14.18v95.69c0,7.83-4.82,14.18-10.76,14.18Z"/>
  <path class="cls-4" d="m362.72,321.18h21.53c5.94,0,10.76-6.35,10.76-14.18v-95.69c0-7.83-4.82-14.18-10.76-14.18h-21.53c-5.94,0-10.76,6.35-10.76,14.18v95.69c0,7.83,4.82,14.18,10.76,14.18Z"/>
  <path class="cls-8" d="m7.5,228.46V92.58C7.5,55.55,25.48,24.04,50.56,12.36"/>
  <path class="cls-8" d="m448.83,12.36c25.08,11.68,43.06,43.19,43.06,80.22v559.96c0,46.98-28.92,85.06-64.59,85.06H72.09c-35.67,0-64.59-38.08-64.59-85.06v-362.68"/>
  <line class="cls-8" x1="351.96" y1="259.15" x2="147.44" y2="259.15"/>
  <path class="cls-8" d="m104.38,259.15h-10.76c-23.78,0-43.06-19.81-43.06-44.25V51.75c0-24.43,19.28-44.25,43.06-44.25h312.16c23.78,0,43.06,19.81,43.06,44.25v163.16c0,24.43-19.28,44.25-43.06,44.25h-10.76"/>
  <path class="cls-8" d="m395.01,556.86h21.53c17.83,0,32.29-19.05,32.29-42.53"/>
  <line class="cls-8" x1="351.96" y1="556.86" x2="147.44" y2="556.86"/>
  <path class="cls-8" d="m50.56,514.33c0,23.48,14.46,42.53,32.29,42.53h21.53"/>
  <path class="cls-8" d="m136.67,618.88h-21.53c-5.94,0-10.76-6.35-10.76-14.18v-95.69c0-7.83,4.82-14.18,10.76-14.18h21.53c5.94,0,10.76,6.35,10.76,14.18v95.69c0,7.83-4.82,14.18-10.76,14.18Z"/>
  <path class="cls-8" d="m362.72,618.88h21.53c5.94,0,10.76-6.35,10.76-14.18v-95.69c0-7.83-4.82-14.18-10.76-14.18h-21.53c-5.94,0-10.76,6.35-10.76,14.18v95.69c0,7.83,4.82,14.18,10.76,14.18Z"/>
  <path class="cls-8" d="m136.67,321.18h-21.53c-5.94,0-10.76-6.35-10.76-14.18v-95.69c0-7.83,4.82-14.18,10.76-14.18h21.53c5.94,0,10.76,6.35,10.76,14.18v95.69c0,7.83-4.82,14.18-10.76,14.18Z"/>
  <path class="cls-8" d="m362.72,321.18h21.53c5.94,0,10.76-6.35,10.76-14.18v-95.69c0-7.83-4.82-14.18-10.76-14.18h-21.53c-5.94,0-10.76,6.35-10.76,14.18v95.69c0,7.83,4.82,14.18,10.76,14.18Z"/>
  <path class="cls-8" d="m448.83,628.77v9.6c0,23.49-14.45,42.52-32.29,42.52H82.85c-17.84,0-32.29-19.03-32.29-42.52v-198.47c0-23.49,14.45-42.52,32.29-42.52h333.69c17.84,0,32.29,19.03,32.29,42.52v127.48"/>
</svg>