<svg height="512pt" viewBox="0 -16 512.00202 512" width="512pt" xmlns="http://www.w3.org/2000/svg"><path d="m489.261719 172.53125h.9375c-8.335938 0-15.15625-6.820312-15.15625-15.160156v-35.035156c0-8.335938 6.820312-15.15625 15.15625-15.15625h-.9375c8.335937 0 15.15625 6.820312 15.15625 15.15625v35.035156c0 8.339844-6.820313 15.160156-15.15625 15.160156zm0 0" fill="#f7ec77"/><path d="m347.742188 120.277344 7.714843 1.191406c20.257813 3.132812 39.394531-10.878906 42.527344-31.136719l5.691406-36.816406c3.308594-21.394531-11.492187-41.609375-32.890625-44.917969l-3.574218-.550781c-21.398438-3.308594-41.609376 11.492187-44.917969 32.886719l-5.691407 36.816406c-3.132812 20.257812 10.878907 39.394531 31.140626 42.527344zm0 0" fill="#94e2ed"/><path d="m370.785156 8.597656-3.574218-.550781c-7.015626-1.085937-13.898438-.214844-20.105469 2.191406 17.722656 6.027344 29.207031 24.175781 26.253906 43.277344l-5.691406 36.8125c-2.117188 13.707031-11.566407 24.539063-23.722657 29.15625 1.238282.328125 2.503907.59375 3.796876.792969l7.714843 1.191406c20.257813 3.132812 39.394531-10.878906 42.527344-31.140625l5.691406-36.8125c3.308594-21.394531-11.492187-41.609375-32.890625-44.917969zm0 0" fill="#66d6e6"/><path d="m277.652344 300.917969-3.089844-1.476563c-18.492188-8.84375-26.386719-31.207031-17.546875-49.703125l63.820313-133.472656c8.839843-18.496094 31.207031-26.390625 49.699218-17.546875l3.089844 1.476562c18.496094 8.839844 26.390625 31.207032 17.550781 49.703126l-63.820312 133.472656c-8.84375 18.492187-31.207031 26.390625-49.703125 17.546875zm0 0" fill="#94e2ed"/><path d="m373.625 100.195312-3.089844-1.476562c-10.1875-4.875-21.550781-4.65625-31.183594-.390625.289063.128906.582032.25.867188.390625l3.089844 1.476562c18.492187 8.839844 26.390625 31.207032 17.546875 49.703126l-63.816407 133.472656c-3.96875 8.304687-10.671874 14.460937-18.515624 17.9375 18.320312 8.191406 40.128906.269531 48.832031-17.9375l63.820312-133.476563c8.839844-18.492187.945313-40.859375-17.550781-49.699219zm0 0" fill="#66d6e6"/><path d="m307.195312 334.625h-185.125c-27.972656 0-50.859374-22.886719-50.859374-50.855469v-4.675781c0-27.96875 22.886718-50.855469 50.859374-50.855469h185.125c27.972657 0 50.859376 22.886719 50.859376 50.855469v4.675781c0 27.96875-22.886719 50.855469-50.859376 50.855469zm0 0" fill="#aceded"/><path d="m307.195312 228.238281h-30.316406c27.972656 0 50.855469 22.886719 50.855469 50.855469v4.675781c0 27.96875-22.882813 50.855469-50.855469 50.855469h30.316406c27.972657 0 50.859376-22.886719 50.859376-50.855469v-4.675781c0-27.96875-22.886719-50.855469-50.859376-50.855469zm0 0" fill="#66d6e6"/><path d="m424.710938 188.335938h-98.003907c-28.324219 0-51.496093-23.171876-51.496093-51.492188v-4.492188c0-25.425781 20.804687-46.230468 46.230468-46.230468h103.269532c26.875 0 48.863281 21.988281 48.863281 48.863281v4.488281c0 26.875-21.988281 48.863282-48.863281 48.863282zm0 0" fill="#aceded"/><path d="m424.710938 86.121094h-103.269532 72.953125c26.875 0 48.863281 21.988281 48.863281 48.863281v4.488281c0 26.875-21.984374 48.863282-48.859374 48.867188h30.3125c26.875 0 48.863281-21.988282 48.863281-48.867188v-4.488281c0-26.875-21.988281-48.863281-48.863281-48.863281zm0 0" fill="#66d6e6"/><path d="m86.175781 469.5-3.089843-1.476562c-18.492188-8.84375-26.390626-31.207032-17.546876-49.703126l63.816407-133.472656c8.84375-18.492187 31.210937-26.390625 49.703125-17.546875l3.089844 1.476563c18.492187 8.84375 26.390624 31.207031 17.546874 49.703125l-63.816406 133.472656c-8.84375 18.496094-31.210937 26.390625-49.703125 17.546875zm0 0" fill="#aceded"/><path d="m182.007812 268.917969-3.089843-1.476563c-10.109375-4.832031-21.371094-4.65625-30.953125-.488281.261718.117187.519531.222656.777344.347656l3.089843 1.476563c18.492188 8.84375 26.390625 31.210937 17.546875 49.703125l-63.816406 133.472656c-4.007812 8.386719-10.800781 14.582031-18.75 18.039063 18.339844 8.261718 40.207031.339843 48.925781-17.894532l63.816407-133.476562c8.84375-18.492188.945312-40.859375-17.546876-49.703125zm0 0" fill="#66d6e6"/><path d="m362.292969 469.5 3.089843-1.476562c18.496094-8.84375 26.390626-31.207032 17.550782-49.703126l-63.820313-133.472656c-8.84375-18.492187-31.207031-26.390625-49.703125-17.546875l-3.089844 1.476563c-18.492187 8.84375-26.386718 31.207031-17.546874 49.703125l63.820312 133.472656c8.839844 18.496094 31.207031 26.390625 49.699219 17.546875zm0 0" fill="#aceded"/><path d="m315.390625 116.082031 6.363281-4.527343c16.703125-11.878907 20.648438-35.269532 8.761719-51.972657l-21.59375-30.355469c-12.550781-17.644531-37.253906-21.808593-54.894531-9.257812l-2.949219 2.097656c-17.640625 12.550782-21.808594 37.253906-9.257813 54.894532l21.59375 30.355468c11.886719 16.703125 35.273438 20.648438 51.976563 8.765625zm0 0" fill="#aceded"/><path d="m330.515625 59.582031-21.59375-30.355469c-10.828125-15.21875-30.691406-20.398437-47.273437-13.480468 6.601562 2.730468 12.535156 7.261718 16.957031 13.480468l21.59375 30.355469c11.882812 16.703125 7.9375 40.09375-8.765625 51.972657l-6.359375 4.527343c-2.046875 1.453125-4.191407 2.667969-6.40625 3.65625 11.648437 5.136719 25.652343 4.21875 36.722656-3.65625l6.363281-4.527343c16.703125-11.878907 20.648438-35.269532 8.761719-51.972657zm0 0" fill="#66d6e6"/><path d="m489.261719 172.53125h.9375c-8.335938 0-15.15625-6.820312-15.15625-15.160156v-35.035156c0-8.335938 6.820312-15.15625 15.15625-15.15625h-.9375c8.335937 0 15.15625 6.820312 15.15625 15.15625v35.035156c0 8.339844-6.820313 15.160156-15.15625 15.160156zm0 0" fill="#aceded"/><path d="m55.722656 315.023438h.941406c-8.339843 0-15.160156-6.824219-15.160156-15.160157v-35.035156c0-8.335937 6.820313-15.15625 15.160156-15.15625h-.941406c8.335938 0 15.160156 6.820313 15.160156 15.15625v35.035156c0 8.335938-6.824218 15.160157-15.160156 15.160157zm0 0" fill="#f7ec77"/><path d="m55.722656 315.023438h.941406c-8.339843 0-15.160156-6.824219-15.160156-15.160157v-35.035156c0-8.335937 6.820313-15.15625 15.160156-15.15625h-.941406c8.335938 0 15.160156 6.820313 15.160156 15.15625v35.035156c0 8.335938-6.824218 15.160157-15.160156 15.160157zm0 0" fill="#aceded"/><path d="m69.183594 152.25c0 17.011719-13.789063 30.800781-30.800782 30.800781-17.011718 0-30.804687-13.789062-30.804687-30.800781s13.792969-30.804688 30.804687-30.804688c17.011719 0 30.800782 13.792969 30.800782 30.804688zm0 0" fill="#66d6e6"/><path d="m382.933594 418.320312-63.820313-133.472656c-8.703125-18.207031-30.511719-26.128906-48.832031-17.9375 7.84375 3.476563 14.546875 9.632813 18.515625 17.9375l63.816406 133.472656c8.84375 18.496094.945313 40.859376-17.546875 49.703126l-3.089844 1.476562c-.285156.140625-.578124.261719-.867187.390625 9.632813 4.265625 20.992187 4.484375 31.183594-.390625l3.089843-1.476562c18.496094-8.84375 26.390626-31.207032 17.550782-49.703126zm0 0" fill="#66d6e6"/><path d="m491.480469 99.707031c-.417969-.074219-.84375-.109375-1.28125-.109375h-.9375c-.4375 0-.863281.035156-1.277344.109375-5.660156.546875-10.707031 3.1875-14.386719 7.121094-9.765625-16.886719-28.015625-28.285156-48.886718-28.285156h-17.234376l3.691407-23.867188c1.90625-12.351562-1.128907-24.738281-8.558594-34.878906-7.425781-10.140625-18.316406-16.777344-30.664063-18.6875l-3.574218-.554687c-21.710938-3.355469-42.3125 8.824218-50.457032 28.230468l-2.8125-3.953125c-7.246093-10.179687-18.0625-16.941406-30.457031-19.03125-12.394531-2.089843-24.828125.75-35.011719 7.992188l-2.949218 2.097656c-21.089844 15.003906-26.042969 44.371094-11.039063 65.464844l21.59375 30.355469c3.160157 4.441406 6.996094 8.125 11.257813 11.03125-.574219 3.160156-.863282 6.382812-.863282 9.613281v4.488281c0 15.480469 5.992188 29.585938 15.773438 40.128906l-20.886719 43.6875h-81.027343c-4.183594 0-7.578126 3.394532-7.578126 7.578125 0 4.1875 3.394532 7.578125 7.578126 7.578125h125.703124c23.863282 0 43.277344 19.414063 43.277344 43.28125v4.671875c0 10.25-3.648437 20.035157-10.1875 27.789063l-14.332031-29.980469c-10.671875-22.308594-37.5-31.78125-59.8125-21.113281l-3.089844 1.476562c-10.769531 5.148438-18.902343 14.222656-22.902343 25.542969-4 11.328125-3.363282 23.496094 1.785156 34.265625l2.535156 5.296875h-40.46875l2.53125-5.296875c5.152344-10.769531 5.785156-22.9375 1.789062-34.265625-4-11.320313-12.132812-20.394531-22.902343-25.542969l-3.089844-1.476562c-10.773437-5.152344-22.941406-5.785156-34.265625-1.789063-11.320312 4-20.394531 12.132813-25.542969 22.90625l-19.589843 40.964844c-14.601563-7.261719-24.140626-22.320313-24.140626-38.777344v-4.671875c0-23.863281 19.414063-43.277344 43.277344-43.277344h29.109375c4.1875 0 7.578125-3.394531 7.578125-7.582031 0-4.183593-3.390625-7.578125-7.578125-7.578125h-29.109375c-8.914062 0-17.359375 2.011719-24.925781 5.597656-.246094-.699218-.597656-1.375-1.0625-2l-32.097656-43.441406c7.839843-7.035156 12.78125-17.234375 12.78125-28.570312 0-21.164063-17.214844-38.378906-38.378907-38.378906-21.164062 0-38.382812 17.21875-38.382812 38.382812 0 21.160156 17.21875 38.378906 38.378906 38.378906 4.363282 0 8.550782-.742187 12.460938-2.085937l33.050781 44.722656c.25.339844.53125.644531.828125.929687-5.019531 4.179688-9.328125 9.183594-12.71875 14.800782-3.648438-3.75-8.5625-6.265625-14.058594-6.796875-.417968-.070313-.84375-.109375-1.277344-.109375h-.941406c-.4375 0-.863281.039062-1.277344.109375-11.503906 1.117187-20.523437 10.839843-20.523437 22.628906v35.035156c0 11.789063 9.019531 21.511719 20.523437 22.632813.414063.070312.839844.105468 1.277344.105468h.941406c.433594 0 .859376-.035156 1.277344-.105468 5.867188-.570313 11.082032-3.390625 14.789063-7.574219 5.707031 9.007813 13.84375 16.457031 23.664062 21.296875l-37.691406 78.835938c-10.667969 22.308593-1.195313 49.140624 21.117187 59.808593l3.085938 1.476563c6.226562 2.976562 12.796875 4.386718 19.277344 4.386718 16.746094-.003906 32.84375-9.414062 40.535156-25.5l54.035156-113.019531h54.964844l54.035156 113.019531c7.695313 16.085938 23.789063 25.5 40.535156 25.5 6.476563 0 13.050782-1.410156 19.273438-4.386718l3.09375-1.476563c22.308594-10.667969 31.78125-37.496093 21.113281-59.808593l-42.488281-88.863282c11.703125-11.054687 18.351562-26.304687 18.351562-42.421875v-4.671875c0-12.90625-4.214843-24.84375-11.324218-34.523437l25.15625-52.617188c1.707031-3.570312.371094-7.808593-2.96875-9.785156-1.242188-.886719-2.757813-1.414063-4.398438-1.414063h-45.394531c-24.214844 0-43.914063-19.699218-43.914063-43.914062v-4.488281c0-1.054688.0625-2.109375.148438-3.15625 3.5625.886719 7.230469 1.347656 10.910156 1.347656 8.992188 0 18.070313-2.691406 25.9375-8.289063l6.359375-4.523437c8.351563-5.941406 14.265625-14.394531 17.039063-24.03125h81.527344c22.765624 0 41.285156 18.519531 41.285156 41.28125v4.488281c0 22.765625-18.519532 41.285156-41.285156 41.285156h-22.292969c-4.1875 0-7.582031 3.394532-7.582031 7.582032 0 4.183594 3.394531 7.578125 7.582031 7.578125h22.292969c19.621093 0 36.921874-10.066407 47.042968-25.300781 3.726563 5.171874 9.550782 8.738281 16.230469 9.386718.414063.070313.84375.105469 1.277344.105469h.941406c.433594 0 .863281-.035156 1.277344-.105469 11.503906-1.117187 20.523437-10.84375 20.523437-22.632812v-35.035156c-.003906-11.789063-9.023437-21.511719-20.523437-22.628907zm-476.320313 52.542969c0-12.808594 10.417969-23.222656 23.21875-23.222656 12.804688 0 23.222656 10.417968 23.222656 23.222656 0 12.800781-10.417968 23.21875-23.222656 23.21875-12.800781 0-23.21875-10.414062-23.21875-23.21875zm48.140625 147.613281c0 4.019531-3.144531 7.320313-7.109375 7.566407-3.960937-.246094-7.109375-3.542969-7.109375-7.566407v-35.035156c0-4.019531 3.148438-7.320313 7.109375-7.566406 3.964844.246093 7.109375 3.546875 7.109375 7.566406zm65.738281 148.820313c-7.0625 14.773437-24.824218 21.042968-39.59375 13.980468l-3.089843-1.476562c-14.769531-7.0625-21.039063-24.824219-13.980469-39.59375l63.820312-133.476562c3.402344-7.117188 9.410157-12.496094 16.914063-15.148438 3.265625-1.152344 6.632813-1.722656 9.980469-1.722656 4.351562 0 8.675781.96875 12.699218 2.890625l3.089844 1.476562c7.117188 3.402344 12.496094 9.414063 15.144532 16.917969 2.652343 7.507812 2.238281 15.558594-1.167969 22.679688zm233.078126 12.503906-3.089844 1.476562h-.003906c-14.761719 7.0625-32.53125.792969-39.59375-13.980468l-63.816407-133.476563c-3.40625-7.117187-3.820312-15.171875-1.167969-22.675781 2.648438-7.507812 8.027344-13.515625 15.148438-16.917969l3.085938-1.476562c4.121093-1.96875 8.472656-2.902344 12.761718-2.902344 11.085938 0 21.742188 6.234375 26.835938 16.882813l63.816406 133.472656c7.0625 14.773437.789062 32.535156-13.976562 39.597656zm-1.347657-265.269531-17.726562 37.078125c-9.90625-7.722656-22.34375-12.335938-35.847657-12.335938h-27.875l16.125-33.722656c9.074219 5.679688 19.785157 8.980469 31.257813 8.980469zm-30.984375-153.824219c2.675782-17.320312 18.933594-29.234375 36.269532-26.558594l3.574218.554688c17.320313 2.675781 29.234375 18.949218 26.554688 36.269531l-4.046875 26.183594h-47.265625c-.488282-8.367188-3.3125-16.515625-8.179688-23.355469l-7.667968-10.777344c.367187-.710937.632812-1.484375.761718-2.316406zm-.019531 40.503906c-.457031 9.195313-4.980469 17.5-12.40625 22.78125l-6.359375 4.527344c-13.339844 9.488281-31.917969 6.355469-41.40625-6.984375l-21.59375-30.355469c-10.160156-14.28125-6.808594-34.164062 7.472656-44.324218l2.949219-2.097657c5.402344-3.84375 11.753906-5.851562 18.296875-5.851562 1.792969 0 3.601562.152343 5.40625.457031 8.402344 1.417969 15.726562 5.988281 20.625 12.871094l21.59375 30.355468c3.878906 5.453126 5.753906 11.894532 5.421875 18.621094zm167.074219 74.773438c0 4.023437-3.148438 7.324218-7.109375 7.566406-3.960938-.242188-7.109375-3.542969-7.109375-7.566406v-35.035156c0-4.019532 3.148437-7.320313 7.109375-7.5625 3.960937.242187 7.109375 3.542968 7.109375 7.5625zm0 0"/></svg>