<?xml version="1.0" encoding="iso-8859-1"?>
<!-- Generator: Adobe Illustrator 19.0.0, SVG Export Plug-In . SVG Version: 6.00 Build 0)  -->
<svg version="1.1" id="Capa_1" xmlns="http://www.w3.org/2000/svg" xmlns:xlink="http://www.w3.org/1999/xlink" x="0px" y="0px"
	 viewBox="0 0 512 512" style="enable-background:new 0 0 512 512;" xml:space="preserve">
<path style="fill:#4A7A91;" d="M388.317,269.255l116.079,50.168c0,0-51.767,69.864-120.491,69.864s-119.136-63.382-119.136-63.382"
	/>
<path style="fill:#F96B50;" d="M388.317,269.255C295.44,341.797,76.076,363.871,12.9,368.83c-3.464-14.5-5.296-29.634-5.296-45.199
	c0-107.256,86.948-194.217,194.217-194.217C290.198,129.414,364.802,188.466,388.317,269.255z"/>
<path style="fill:#DD4D3A;" d="M104.925,312.52c0,15.563,1.835,30.69,5.302,45.198c1.43-0.112,2.94-0.233,4.522-0.365
	c-44.032,6.428-81.251,9.865-101.853,11.477c-3.457-14.498-5.292-29.635-5.292-45.198c0-104.164,82.001-189.187,184.979-194.002
	C129.866,156.507,104.925,228.247,104.925,312.52z"/>
<path d="M511.739,317.449c-0.603-2.242-2.196-4.085-4.327-5.006l-112.839-48.767C382.218,223.975,357.261,188.328,324,162.99
	c-35.366-26.94-77.614-41.18-122.178-41.18c-15.181,0-30.122,1.716-44.598,4.991l-1.388-5.843c-0.97-4.086-5.068-6.614-9.155-5.641
	c-4.086,0.97-6.611,5.069-5.641,9.155l1.483,6.245c-43.525,13.37-81.837,41.265-108.052,80.072
	c-2.351,3.48-1.436,8.206,2.045,10.557c3.48,2.351,8.206,1.436,10.557-2.045c24.806-36.719,61.319-62.88,102.726-74.89
	c5.69,5.054,19.312,18.409,33.574,41.609c16.705,27.175,37.617,73.635,43.917,142.103c-12.54,3.075-25.656,6.013-39.343,8.812
	C119.664,350.901,55,357.704,18.899,360.715c-2.452-12.143-3.691-24.587-3.691-37.084c0-28.345,6.19-55.563,18.398-80.898
	c1.823-3.783,0.233-8.328-3.55-10.151c-3.783-1.822-8.328-0.232-10.151,3.55C6.697,263.544,0,292.983,0,323.631
	c0,15.872,1.852,31.674,5.504,46.965c0.823,3.444,3.901,5.838,7.391,5.838c0.199,0,0.399-0.007,0.6-0.023
	c42.714-3.353,151.893-14.135,248.621-41.876c12.608,14.317,59.556,62.355,121.788,62.355c19.75,0,39.93-5.39,59.977-16.02
	c3.711-1.967,5.123-6.57,3.156-10.281c-1.967-3.711-6.569-5.124-10.281-3.155c-17.83,9.454-35.612,14.248-52.853,14.248
	c-49.283,0-89.366-35.366-105.511-52.024c42.836-13.378,82.228-30.308,110.976-51.664l102.736,44.4
	c-7.043,8.066-19.757,21.333-36.36,33.218c-3.415,2.444-4.201,7.194-1.757,10.609c1.484,2.073,3.82,3.178,6.19,3.178
	c1.532,0,3.079-0.462,4.419-1.421c27.967-20.022,45.188-43.059,45.908-44.03C511.887,322.084,512.342,319.69,511.739,317.449z
	 M242.198,324.333c-6.885-70.576-28.807-118.754-46.375-147.094c-10.69-17.245-21.005-29.365-28.44-37.026
	c11.247-2.107,22.767-3.195,34.438-3.195c41.206,0,80.267,13.164,112.962,38.069c30.266,23.055,53.097,55.33,64.706,91.316
	C348.852,288.934,302.826,308.342,242.198,324.333z"/>
<g>
</g>
<g>
</g>
<g>
</g>
<g>
</g>
<g>
</g>
<g>
</g>
<g>
</g>
<g>
</g>
<g>
</g>
<g>
</g>
<g>
</g>
<g>
</g>
<g>
</g>
<g>
</g>
<g>
</g>
</svg>
