<svg id="Capa_1" enable-background="new 0 0 513.441 513.441" height="512" viewBox="0 0 513.441 513.441" width="512" xmlns="http://www.w3.org/2000/svg"><g><g><path d="m174.022 176.489h189.804v150.834h-189.804z" fill="#e4e1e5"/><path d="m390.514 109.356-6.817-14.132c-8.373-17.359-25.945-28.393-45.219-28.393-27.727 0-50.204 22.477-50.204 50.205v24.117 61.508l115.741-57.34z" fill="#d6d1d6"/><path d="m225.167 141.152v-24.117c0-27.727-22.477-50.205-50.204-50.205-19.273 0-36.845 11.034-45.219 28.393l-6.817 14.132-21.159 45.001 123.399 40.308z" fill="#d6d1d6"/><path d="m156.561 101.885c-15.28 0-29.88 4.37-42.32 12.18-12.44 7.82-22.72 19.07-29.36 32.83l-60.83 126.12s127.607 87.473 130.098 87.473 81.992-28.203 81.992-28.203v-117.748-33.072c0-43.95-35.63-79.58-79.58-79.58z" fill="#f8f7f8"/><path d="m469.216 231.186-40.655-84.292c-6.64-13.76-16.92-25.01-29.36-32.83-12.44-7.81-27.04-12.18-42.32-12.18-43.95 0-79.58 35.63-79.58 79.58v114.006l-.001.009.001 36.806 124.924 20.244 87.166-79.514z" fill="#f8f7f8"/><path d="m489.391 273.015-20.175-41.829-6.075-12.595c-1.53-.965-3.073-1.91-4.642-2.813-20.262-11.654-43.388-17.813-66.878-17.813-19.298 0-37.646 4.106-54.239 11.476-10.488 4.659-22.312-2.858-22.312-14.334v-19.465c0-33.065 20.176-61.426 48.88-73.444-2.335-.207-4.696-.313-7.069-.313-43.95 0-79.58 35.63-79.58 79.58v114.005l-.001.009.001 36.806 35.661 5.779 89.263 14.465 11.118-10.142z" fill="#efedee"/><path d="m489.391 273.015c10.5 17.28 16.55 37.57 16.55 59.27 0 63.14-51.18 114.33-114.32 114.33s-114.32-51.19-114.32-114.33c0-63.13 51.18-114.32 114.32-114.32 41.44 0 77.72 22.05 97.77 55.05z" fill="#e4e1e5"/><path d="m121.82 197.965c-.071 0-.142 0-.212 0-9.272.015-15.424-9.564-11.396-17.916l13.218-27.405c6.64-13.76 16.92-25.01 29.36-32.83 10.29-6.46 22.072-10.561 34.48-11.787-9.448-3.954-19.827-6.142-30.71-6.142-15.28 0-29.88 4.37-42.32 12.18-12.44 7.82-22.72 19.07-29.36 32.83l-60.83 126.12s.183.125.5.343h40.657l13.967-28.957-17.323 54.447c37.841 25.798 90.703 61.64 92.297 61.64 2.491 0 81.992-28.203 81.992-28.203v-70.44c-23.687-38.303-66.07-63.88-114.32-63.88z" fill="#efedee"/><path d="m121.821 217.965c63.14 0 114.32 51.19 114.32 114.32 0 63.14-51.18 114.33-114.32 114.33s-114.32-51.19-114.32-114.33c0-21.7 6.05-41.99 16.55-59.27 20.05-33 56.33-55.05 97.77-55.05z" fill="#e4e1e5"/><path d="m327.963 332.285c0-54.419 38.044-99.972 88.983-111.505-8.144-1.841-16.624-2.815-25.325-2.815-63.14 0-114.32 51.19-114.32 114.32 0 63.14 51.18 114.33 114.32 114.33 8.706 0 17.173-.97 25.321-2.814-50.948-11.527-88.979-57.082-88.979-111.516z" fill="#d6d1d6"/><path d="m58.163 332.285c0-21.7 6.05-41.99 16.55-59.27 15.84-26.071 41.829-45.298 72.471-52.227-8.154-1.846-16.651-2.824-25.363-2.824-41.44 0-77.72 22.05-97.77 55.05-10.5 17.28-16.55 37.57-16.55 59.27 0 63.14 51.18 114.33 114.32 114.33 8.706 0 17.2-.977 25.348-2.82-50.948-11.526-89.006-57.075-89.006-111.509z" fill="#d6d1d6"/><g><ellipse cx="121.821" cy="332.29" fill="#cfeffc" rx="83.321" ry="83.321" transform="matrix(.383 -.924 .924 .383 -231.793 317.676)"/><path d="m86.701 407.843c-17.732-20.14-28.538-46.614-28.538-75.558 0-21.7 6.05-41.99 16.55-59.27 3.504-5.768 7.532-11.231 11.969-16.269-28.415 13.285-48.182 42.161-48.182 75.544 0 33.379 19.79 62.266 48.201 75.553z" fill="#a9e4f9"/><ellipse cx="391.62" cy="332.29" fill="#cfeffc" rx="83.321" ry="83.321" transform="matrix(.924 -.383 .383 .924 -97.351 175.16)"/><path d="m356.475 407.831c-17.732-20.14-28.512-46.602-28.512-75.546 0-28.939 10.789-55.402 28.52-75.541-28.411 13.287-48.183 42.165-48.183 75.545 0 33.381 19.764 62.256 48.175 75.542z" fill="#a9e4f9"/></g></g><g><path d="m31 332.29c0 50.079 40.742 90.821 90.821 90.821 50.078 0 90.82-40.742 90.82-90.821s-40.742-90.821-90.82-90.821c-50.079-.001-90.821 40.741-90.821 90.821zm166.642 0c0 41.808-34.013 75.821-75.82 75.821s-75.822-34.013-75.822-75.821 34.014-75.821 75.821-75.821 75.821 34.012 75.821 75.821z"/><path d="m496.199 269.876c-.018-.039-.031-.08-.05-.119l-60.835-126.121c-8.405-17.427-22.366-31.251-39.118-39.765l-5.742-11.906c-9.563-19.825-29.965-32.634-51.975-32.634-31.818 0-57.704 25.886-57.704 57.705v22.157c-5.056 9.065-8.538 19.12-10.077 29.797h-27.953c-1.539-10.677-5.021-20.733-10.078-29.799v-22.155c0-31.818-25.886-57.705-57.704-57.705-22.01 0-42.411 12.81-51.975 32.635l-5.742 11.905c-16.752 8.515-30.713 22.339-39.118 39.765l-10.537 21.844c-1.8 3.73-.234 8.214 3.496 10.014 3.731 1.798 8.214.235 10.014-3.497l10.537-21.845c11.944-24.764 37.429-40.765 64.923-40.765 39.746 0 72.082 32.335 72.082 72.081v92.264c-7.062-12.872-16.47-24.515-27.946-34.274-3.155-2.684-7.889-2.3-10.571.854-2.684 3.155-2.301 7.889.854 10.572 23.936 20.355 37.663 50.026 37.663 81.405 0 58.901-47.92 106.821-106.821 106.821s-106.822-47.919-106.822-106.82 47.92-106.821 106.821-106.821c15.311 0 30.089 3.169 43.925 9.419 3.771 1.704 8.217.028 9.923-3.748 1.705-3.775.027-8.217-3.747-9.922-15.79-7.132-32.646-10.749-50.101-10.749-26.016 0-50.15 8.202-69.962 22.15l15.321-31.764c1.8-3.731.234-8.214-3.496-10.014-3.729-1.796-8.214-.234-10.014 3.497l-36.378 75.419c-.019.039-.032.08-.05.119-10.941 18.266-17.242 39.616-17.242 62.414 0 67.172 54.648 121.821 121.821 121.821 66.326 0 120.435-53.281 121.789-119.288h26.222c1.354 66.007 55.463 119.288 121.788 119.288 67.173 0 121.821-54.649 121.821-121.821 0-22.798-6.3-44.148-17.242-62.414zm-74.395-119.724 39.777 82.465c-19.811-13.947-43.945-22.149-69.961-22.149-45.98 0-86.087 25.609-106.82 63.31v-92.31c0-39.746 32.335-72.081 72.081-72.081 27.494 0 52.978 16.002 64.923 40.765zm-152.004 169.671h-26.157v-135.834h26.157zm68.679-245.492c15.552 0 29.999 8.653 37.436 22.203-6.185-1.403-12.562-2.146-19.034-2.146-23.787 0-45.374 9.591-61.106 25.104v-2.456c-.001-23.548 19.157-42.705 42.704-42.705zm-181.918 20.056c-6.472 0-12.849.743-19.034 2.146 7.438-13.55 21.885-22.203 37.436-22.203 23.547 0 42.704 19.157 42.704 42.705v2.456c-15.732-15.513-37.319-25.104-61.106-25.104zm235.059 344.724c-58.901 0-106.82-47.92-106.82-106.821s47.919-106.821 106.82-106.821 106.821 47.92 106.821 106.821-47.92 106.821-106.821 106.821z"/><path d="m425.693 248.123c-3.838-1.56-8.214.289-9.771 4.126-1.56 3.838.288 8.212 4.126 9.771 28.79 11.694 47.393 39.277 47.393 70.269 0 41.808-34.014 75.821-75.821 75.821s-75.82-34.013-75.82-75.821c0-41.725 33.945-75.736 75.671-75.817 4.142-.008 7.493-3.373 7.485-7.515-.008-4.137-3.364-7.485-7.5-7.485-.005 0-.01 0-.015 0-49.979.097-90.642 40.838-90.642 90.817 0 50.079 40.742 90.821 90.82 90.821 50.079 0 90.821-40.742 90.821-90.821.001-37.125-22.273-70.163-56.747-84.166z"/></g></g></svg>