<?xml version="1.0" encoding="UTF-8"?>
<svg xmlns="http://www.w3.org/2000/svg" xmlns:xlink="http://www.w3.org/1999/xlink" version="1.1" id="Capa_1" x="0px" y="0px" viewBox="0 0 512 512" style="enable-background:new 0 0 512 512;" xml:space="preserve" width="512" height="512">
<g>
	<g>
		<path style="fill:#99E6FC;" d="M477.459,471.577H34.543V23.883c0-9.046,7.334-16.38,16.38-16.38h410.157&#10;&#9;&#9;&#9;c9.046,0,16.38,7.334,16.38,16.38V471.577z"/>
		<path style="fill:#62DBFB;" d="M461.079,7.503h-45.111c9.046,0,16.38,7.333,16.38,16.38v447.694h45.111V23.883&#10;&#9;&#9;&#9;C477.459,14.837,470.126,7.503,461.079,7.503z"/>
		<path style="fill:#62DBFB;" d="M440.167,7.5v193.504L323.676,402.58H34.541V23.88c0-9.046,7.334-16.38,16.38-16.38H440.167z"/>
		<path style="fill:#01D0FB;" d="M395.056,7.5v182.372c0,7.293-1.921,14.457-5.57,20.771L278.565,402.58h45.111l116.492-201.576V7.5&#10;&#9;&#9;&#9;H395.056z"/>
		<path style="fill:#6C7FD8;" d="M323.676,402.58l-54.732-84.818c-5.577-8.643-2.682-20.202,6.311-25.195l164.913-91.562&#10;&#9;&#9;&#9;L323.676,402.58z"/>
		<path style="fill:#6C7FD8;" d="M323.676,402.58l-54.732-84.818c-5.577-8.643-2.682-20.202,6.311-25.195l164.913-91.562&#10;&#9;&#9;&#9;L323.676,402.58z"/>
		<polygon style="fill:#4F66D0;" points="373.743,237.884 299.878,365.7 323.676,402.58 440.167,201.004 &#9;&#9;"/>
	</g>
	<g>
		<path style="fill:none;stroke:#000000;stroke-width:15;stroke-linecap:round;stroke-linejoin:round;stroke-miterlimit:10;" d="&#10;&#9;&#9;&#9;M440.167,7.5v193.504L323.676,402.58H34.541V23.88c0-9.046,7.334-16.38,16.38-16.38H440.167z"/>
		<path style="fill:none;stroke:#000000;stroke-width:15;stroke-linecap:round;stroke-linejoin:round;stroke-miterlimit:10;" d="&#10;&#9;&#9;&#9;M323.676,402.58l-54.732-84.818c-5.577-8.643-2.682-20.202,6.311-25.195l164.913-91.562L323.676,402.58z"/>
		<path style="fill:none;stroke:#000000;stroke-width:15;stroke-linecap:round;stroke-linejoin:round;stroke-miterlimit:10;" d="&#10;&#9;&#9;&#9;M477.459,385.492v86.085H34.543V23.883c0-9.046,7.334-16.38,16.38-16.38h410.157c9.046,0,16.38,7.334,16.38,16.38V349.6"/>
		<g>
			
				<line style="fill:none;stroke:#000000;stroke-width:15;stroke-linecap:round;stroke-linejoin:round;stroke-miterlimit:10;" x1="34.543" y1="471.577" x2="34.543" y2="504.5"/>
			
				<line style="fill:none;stroke:#000000;stroke-width:15;stroke-linecap:round;stroke-linejoin:round;stroke-miterlimit:10;" x1="68.613" y1="471.577" x2="68.613" y2="504.5"/>
			
				<line style="fill:none;stroke:#000000;stroke-width:15;stroke-linecap:round;stroke-linejoin:round;stroke-miterlimit:10;" x1="102.684" y1="471.577" x2="102.684" y2="504.5"/>
			
				<line style="fill:none;stroke:#000000;stroke-width:15;stroke-linecap:round;stroke-linejoin:round;stroke-miterlimit:10;" x1="136.754" y1="471.577" x2="136.754" y2="504.5"/>
			
				<line style="fill:none;stroke:#000000;stroke-width:15;stroke-linecap:round;stroke-linejoin:round;stroke-miterlimit:10;" x1="170.825" y1="471.577" x2="170.825" y2="504.5"/>
			
				<line style="fill:none;stroke:#000000;stroke-width:15;stroke-linecap:round;stroke-linejoin:round;stroke-miterlimit:10;" x1="204.895" y1="471.577" x2="204.895" y2="504.5"/>
			
				<line style="fill:none;stroke:#000000;stroke-width:15;stroke-linecap:round;stroke-linejoin:round;stroke-miterlimit:10;" x1="238.966" y1="471.577" x2="238.966" y2="504.5"/>
			
				<line style="fill:none;stroke:#000000;stroke-width:15;stroke-linecap:round;stroke-linejoin:round;stroke-miterlimit:10;" x1="273.036" y1="471.577" x2="273.036" y2="504.5"/>
			
				<line style="fill:none;stroke:#000000;stroke-width:15;stroke-linecap:round;stroke-linejoin:round;stroke-miterlimit:10;" x1="307.107" y1="471.577" x2="307.107" y2="504.5"/>
			
				<line style="fill:none;stroke:#000000;stroke-width:15;stroke-linecap:round;stroke-linejoin:round;stroke-miterlimit:10;" x1="341.177" y1="471.577" x2="341.177" y2="504.5"/>
			
				<line style="fill:none;stroke:#000000;stroke-width:15;stroke-linecap:round;stroke-linejoin:round;stroke-miterlimit:10;" x1="375.248" y1="471.577" x2="375.248" y2="504.5"/>
			
				<line style="fill:none;stroke:#000000;stroke-width:15;stroke-linecap:round;stroke-linejoin:round;stroke-miterlimit:10;" x1="409.318" y1="471.577" x2="409.318" y2="504.5"/>
			
				<line style="fill:none;stroke:#000000;stroke-width:15;stroke-linecap:round;stroke-linejoin:round;stroke-miterlimit:10;" x1="443.389" y1="471.577" x2="443.389" y2="504.5"/>
			
				<line style="fill:none;stroke:#000000;stroke-width:15;stroke-linecap:round;stroke-linejoin:round;stroke-miterlimit:10;" x1="477.459" y1="471.577" x2="477.459" y2="504.5"/>
		</g>
		<path style="fill:none;stroke:#000000;stroke-width:15;stroke-linecap:round;stroke-linejoin:round;stroke-miterlimit:10;" d="&#10;&#9;&#9;&#9;M109.905,81.956c13.147-0.992,26.129-3.211,38.935-6.746c41.1,13.75,79.91,14.68,115.94,0c29.7,13.37,66.95,15.06,107.73,0&#10;&#9;&#9;&#9;c21.56,8.42,45.09,11.35,67.66,9.03"/>
		<path style="fill:none;stroke:#000000;stroke-width:15;stroke-linecap:round;stroke-linejoin:round;stroke-miterlimit:10;" d="&#10;&#9;&#9;&#9;M34.54,75.21c13.591,3.266,27.041,5.485,40.339,6.574"/>
		<path style="fill:none;stroke:#000000;stroke-width:15;stroke-linecap:round;stroke-linejoin:round;stroke-miterlimit:10;" d="&#10;&#9;&#9;&#9;M34.54,190.61c39.37,9.45,77.56,10.14,114.3,0c41.1,13.75,79.91,14.68,115.94,0c29.7,13.37,66.95,15.06,107.73,0&#10;&#9;&#9;&#9;c21.56,8.42,45.09,11.35,67.66,9.03"/>
		<path style="fill:none;stroke:#000000;stroke-width:15;stroke-linecap:round;stroke-linejoin:round;stroke-miterlimit:10;" d="&#10;&#9;&#9;&#9;M34.54,306.01c39.37,9.45,77.56,10.14,114.3,0c41.1,13.74,79.91,14.68,115.94,0c0.46,0.21,0.92,0.41,1.39,0.62"/>
		<path style="fill:none;stroke:#000000;stroke-width:15;stroke-linecap:round;stroke-linejoin:round;stroke-miterlimit:10;" d="&#10;&#9;&#9;&#9;M477.46,118.81c-11.74,4.7-24.35,7.73-37.29,9.03"/>
		<path style="fill:none;stroke:#000000;stroke-width:15;stroke-linecap:round;stroke-linejoin:round;stroke-miterlimit:10;" d="&#10;&#9;&#9;&#9;M415.5,243.69c21.37,1.4,42.83-1.83,61.96-9.49"/>
		<path style="fill:none;stroke:#000000;stroke-width:15;stroke-linecap:round;stroke-linejoin:round;stroke-miterlimit:10;" d="&#10;&#9;&#9;&#9;M350.47,356.22c7.21-1.66,14.57-3.86,22.04-6.62c33.91,13.26,72.73,12.89,104.95,0"/>
	</g>
</g>















</svg>
