<?xml version="1.0" encoding="UTF-8" standalone="no"?>
<!-- Created with Inkscape (http://www.inkscape.org/) -->

<svg
   version="1.1"
   id="svg7872"
   xml:space="preserve"
   width="682.66669"
   height="682.66669"
   viewBox="0 0 682.66669 682.66669"
   xmlns="http://www.w3.org/2000/svg"
   xmlns:svg="http://www.w3.org/2000/svg"><defs
     id="defs7876"><clipPath
       clipPathUnits="userSpaceOnUse"
       id="clipPath7886"><path
         d="M 0,512 H 512 V 0 H 0 Z"
         id="path7884" /></clipPath></defs><g
     id="g7878"
     transform="matrix(1.3333333,0,0,-1.3333333,0,682.66667)"><g
       id="g7880"><g
         id="g7882"
         clip-path="url(#clipPath7886)"><g
           id="g7888"
           transform="translate(314.1372,460.4854)"><path
             d="m 0,0 h -167.538 v 33.17 c 0,5.989 4.856,10.845 10.846,10.845 H -10.845 C -4.855,44.015 0,39.159 0,33.17 Z"
             style="fill:#547984;fill-opacity:1;fill-rule:nonzero;stroke:none"
             id="path7890" /></g><g
           id="g7892"
           transform="translate(314.1392,493.6514)"><path
             d="M 0,0 V -33.164 H -31.494 V 0 c 0,5.997 -4.859,10.845 -10.845,10.845 h 31.494 C -4.858,10.845 0,5.997 0,0"
             style="fill:#3e5958;fill-opacity:1;fill-rule:nonzero;stroke:none"
             id="path7894" /></g><g
           id="g7896"
           transform="translate(318.9365,460.4854)"><path
             d="m 0,0 h 73.002 c 8.151,0 14.759,-6.608 14.759,-14.759 V -50.025 L 0,-33.758 Z"
             style="fill:#3e5958;fill-opacity:1;fill-rule:nonzero;stroke:none"
             id="path7898" /></g><g
           id="g7900"
           transform="translate(318.9365,460.4854)"><path
             d="m 0,0 h 73.002 c 8.151,0 14.759,-6.608 14.759,-14.759 V -50.025 L 0,-33.758 Z"
             style="fill:none;stroke:#000000;stroke-width:15;stroke-linecap:round;stroke-linejoin:round;stroke-miterlimit:10;stroke-dasharray:none;stroke-opacity:1"
             id="path7902" /></g><g
           id="g7904"
           transform="translate(406.6973,445.7266)"><path
             d="m 0,0 v -170.829 c 0,-2.995 -2.428,-5.423 -5.422,-5.423 h -23.485 c -2.994,0 -5.422,2.428 -5.422,5.423 V 14.759 h 19.57 C -6.608,14.759 0,8.15 0,0"
             style="fill:#547984;fill-opacity:1;fill-rule:nonzero;stroke:none"
             id="path7906" /></g><g
           id="g7908"
           transform="translate(406.6973,445.7266)"><path
             d="m 0,0 v -170.829 c 0,-2.995 -2.428,-5.423 -5.422,-5.423 h -23.485 c -2.994,0 -5.422,2.428 -5.422,5.423 V 14.759 h 19.57 C -6.608,14.759 0,8.15 0,0 Z"
             style="fill:none;stroke:#000000;stroke-width:15;stroke-linecap:round;stroke-linejoin:round;stroke-miterlimit:10;stroke-dasharray:none;stroke-opacity:1"
             id="path7910" /></g><g
           id="g7912"
           transform="translate(108.501,441.9717)"><path
             d="m 0,0 32.501,-32.501 15.55,-218.253 c 0.404,-5.677 5.127,-10.074 10.817,-10.074 h 138.476 c 5.745,0 10.493,4.479 10.827,10.214 L 223.844,18.514 H 7.668 C -1.994,18.514 -6.832,6.832 0,0"
             style="fill:#ffffff;fill-opacity:1;fill-rule:nonzero;stroke:none"
             id="path7914" /></g><g
           id="g7916"
           transform="translate(108.501,441.9717)"><path
             d="m 0,0 32.501,-32.501 15.55,-218.253 c 0.404,-5.677 5.127,-10.074 10.817,-10.074 h 138.476 c 5.745,0 10.493,4.479 10.827,10.214 L 223.844,18.514 H 7.668 C -1.994,18.514 -6.832,6.832 0,0"
             style="fill:#f1faff;fill-opacity:1;fill-rule:nonzero;stroke:none"
             id="path7918" /></g><g
           id="g7920"
           transform="translate(332.3481,460.4873)"><path
             d="m 0,0 -15.673,-269.132 c -0.334,-5.734 -5.082,-10.214 -10.827,-10.214 H -48.575 L -32.308,0 Z"
             style="fill:#c8f0fe;fill-opacity:1;fill-rule:nonzero;stroke:none"
             id="path7922" /></g><g
           id="g7924"
           transform="translate(289.6514,134.0869)"><path
             d="m 0,0 h -105.963 v 67.546 c 0,5.989 4.856,10.845 10.845,10.845 h 84.273 C -4.855,78.391 0,73.535 0,67.546 Z"
             style="fill:#a8d3d9;fill-opacity:1;fill-rule:nonzero;stroke:none"
             id="path7926" /></g><g
           id="g7928"
           transform="translate(278.8062,212.4814)"><path
             d="m 0,0 h -27.188 c 5.986,0 10.845,-4.858 10.845,-10.845 v -20.493 h -78.775 v -18.621 h 69.369 c 5.194,0 9.406,-4.211 9.406,-9.405 v -19.034 h 27.188 v 67.553 C 10.845,-4.855 5.99,0 0,0"
             style="fill:#8fbac5;fill-opacity:1;fill-rule:nonzero;stroke:none"
             id="path7930" /></g><g
           id="g7932"
           transform="translate(289.6514,134.0869)"><path
             d="m 0,0 h -105.963 v 67.546 c 0,5.989 4.856,10.845 10.845,10.845 h 84.273 C -4.855,78.391 0,73.535 0,67.546 Z"
             style="fill:none;stroke:#000000;stroke-width:15;stroke-linecap:round;stroke-linejoin:round;stroke-miterlimit:10;stroke-dasharray:none;stroke-opacity:1"
             id="path7934" /></g><g
           id="g7936"
           transform="translate(183.7437,460.4854)"><path
             d="m 0,0 h -67.574 c -9.662,0 -14.501,-11.682 -7.669,-18.514 l 32.501,-32.501 15.55,-218.253 c 0.404,-5.676 5.127,-10.074 10.817,-10.074 h 138.477 c 5.744,0 10.492,4.48 10.826,10.214 l 6.334,108.761"
             style="fill:none;stroke:#000000;stroke-width:15;stroke-linecap:round;stroke-linejoin:round;stroke-miterlimit:10;stroke-dasharray:none;stroke-opacity:1"
             id="path7938" /></g><g
           id="g7940"
           transform="translate(325.0552,335.3125)"><path
             d="M 0,0 7.29,125.173 H -105.917"
             style="fill:none;stroke:#000000;stroke-width:15;stroke-linecap:round;stroke-linejoin:round;stroke-miterlimit:10;stroke-dasharray:none;stroke-opacity:1"
             id="path7942" /></g><g
           id="g7944"
           transform="translate(146.5996,460.4854)"><path
             d="m 0,0 v 33.17 c 0,5.989 4.855,10.845 10.845,10.845 h 145.847 c 5.99,0 10.846,-4.856 10.846,-10.845 V 0"
             style="fill:none;stroke:#000000;stroke-width:15;stroke-linecap:round;stroke-linejoin:round;stroke-miterlimit:10;stroke-dasharray:none;stroke-opacity:1"
             id="path7946" /></g><g
           id="g7948"
           transform="translate(187.3809,402.874)"><path
             d="M 0,0 H 11.792"
             style="fill:none;stroke:#000000;stroke-width:15;stroke-linecap:round;stroke-linejoin:round;stroke-miterlimit:10;stroke-dasharray:none;stroke-opacity:1"
             id="path7950" /></g><g
           id="g7952"
           transform="translate(187.3809,364.501)"><path
             d="M 0,0 H 11.792"
             style="fill:none;stroke:#000000;stroke-width:15;stroke-linecap:round;stroke-linejoin:round;stroke-miterlimit:10;stroke-dasharray:none;stroke-opacity:1"
             id="path7954" /></g><g
           id="g7956"
           transform="translate(187.3809,326.1289)"><path
             d="M 0,0 H 11.792"
             style="fill:none;stroke:#000000;stroke-width:15;stroke-linecap:round;stroke-linejoin:round;stroke-miterlimit:10;stroke-dasharray:none;stroke-opacity:1"
             id="path7958" /></g><g
           id="g7960"
           transform="translate(187.3809,287.7559)"><path
             d="M 0,0 H 11.792"
             style="fill:none;stroke:#000000;stroke-width:15;stroke-linecap:round;stroke-linejoin:round;stroke-miterlimit:10;stroke-dasharray:none;stroke-opacity:1"
             id="path7962" /></g><g
           id="g7964"
           transform="translate(187.3809,249.3838)"><path
             d="M 0,0 H 11.792"
             style="fill:none;stroke:#000000;stroke-width:15;stroke-linecap:round;stroke-linejoin:round;stroke-miterlimit:10;stroke-dasharray:none;stroke-opacity:1"
             id="path7966" /></g><g
           id="g7968"
           transform="translate(341.9756,28.0879)"><path
             d="m 0,0 h -210.604 v 50.941 c 0,36.283 29.412,65.695 65.693,65.695 h 79.217 C -29.412,116.636 0,87.224 0,50.941 Z"
             style="fill:#3e5958;fill-opacity:1;fill-rule:nonzero;stroke:none"
             id="path7970" /></g><g
           id="g7972"
           transform="translate(341.9785,79.0332)"><path
             d="M 0,0 V -50.949 H -32.611 V 0 c 0,36.277 -29.423,65.688 -65.699,65.688 h 32.611 C -29.412,65.688 0,36.277 0,0"
             style="fill:#374848;fill-opacity:1;fill-rule:nonzero;stroke:none"
             id="path7974" /></g><g
           id="g7976"
           transform="translate(211.2871,144.7236)"><path
             d="m 0,0 h -14.222 c -36.282,0 -65.694,-29.412 -65.694,-65.694 v -50.942 h 210.604 v 50.942 C 130.688,-29.412 101.276,0 64.995,0 h -29.6"
             style="fill:none;stroke:#000000;stroke-width:15;stroke-linecap:round;stroke-linejoin:round;stroke-miterlimit:10;stroke-dasharray:none;stroke-opacity:1"
             id="path7978" /></g><g
           id="g7980"
           transform="translate(345.2554,7.5049)"><path
             d="m 0,0 h -217.164 c -5.99,0 -10.845,4.855 -10.845,10.846 v 8.786 c 0,5.99 4.855,10.846 10.845,10.846 L 0,30.478 c 5.99,0 10.845,-4.856 10.845,-10.846 V 10.846 C 10.845,4.855 5.99,0 0,0"
             style="fill:#547984;fill-opacity:1;fill-rule:nonzero;stroke:none"
             id="path7982" /></g><g
           id="g7984"
           transform="translate(356.0986,27.1406)"><path
             d="m 0,0 v -8.796 c 0,-5.986 -4.858,-10.845 -10.845,-10.845 h -26.657 c 5.997,0 10.845,4.859 10.845,10.845 V 0 c 0,5.986 -4.848,10.845 -10.845,10.845 h 26.657 C -4.858,10.845 0,5.986 0,0"
             style="fill:#3e5958;fill-opacity:1;fill-rule:nonzero;stroke:none"
             id="path7986" /></g><g
           id="g7988"
           transform="translate(345.2554,7.5049)"><path
             d="m 0,0 h -217.164 c -5.99,0 -10.845,4.855 -10.845,10.846 v 8.786 c 0,5.99 4.855,10.846 10.845,10.846 L 0,30.478 c 5.99,0 10.845,-4.856 10.845,-10.846 V 10.846 C 10.845,4.855 5.99,0 0,0 Z"
             style="fill:none;stroke:#000000;stroke-width:15;stroke-linecap:round;stroke-linejoin:round;stroke-miterlimit:10;stroke-dasharray:none;stroke-opacity:1"
             id="path7990" /></g><g
           id="g7992"
           transform="translate(241.2461,90.6494)"><path
             d="m 0,0 c 0,-14.761 -11.966,-26.727 -26.727,-26.727 -14.761,0 -26.727,11.966 -26.727,26.727 0,14.761 11.966,26.727 26.727,26.727 C -11.966,26.727 0,14.761 0,0"
             style="fill:#eef4f5;fill-opacity:1;fill-rule:nonzero;stroke:none"
             id="path7994" /></g><g
           id="g7996"
           transform="translate(241.25,90.6484)"><path
             d="m 0,0 c 0,-14.76 -11.973,-26.722 -26.733,-26.722 -3.774,0 -7.364,0.781 -10.617,2.201 9.478,4.1 16.104,13.536 16.104,24.521 0,10.986 -6.626,20.422 -16.104,24.521 3.253,1.42 6.843,2.202 10.617,2.202 C -11.973,26.723 0,14.761 0,0"
             style="fill:#cae5e7;fill-opacity:1;fill-rule:nonzero;stroke:none"
             id="path7998" /></g><g
           id="g8000"
           transform="translate(241.2461,90.6494)"><path
             d="m 0,0 c 0,-14.761 -11.966,-26.727 -26.727,-26.727 -14.761,0 -26.727,11.966 -26.727,26.727 0,14.761 11.966,26.727 26.727,26.727 C -11.966,26.727 0,14.761 0,0 Z"
             style="fill:none;stroke:#000000;stroke-width:15;stroke-linecap:round;stroke-linejoin:round;stroke-miterlimit:10;stroke-dasharray:none;stroke-opacity:1"
             id="path8002" /></g><g
           id="g8004"
           transform="translate(276.7021,70.9971)"><path
             d="M 0,0 H 15.091"
             style="fill:none;stroke:#000000;stroke-width:15;stroke-linecap:round;stroke-linejoin:round;stroke-miterlimit:10;stroke-dasharray:none;stroke-opacity:1"
             id="path8006" /></g><g
           id="g8008"
           transform="translate(276.7021,100.082)"><path
             d="M 0,0 H 15.091"
             style="fill:none;stroke:#000000;stroke-width:15;stroke-linecap:round;stroke-linejoin:round;stroke-miterlimit:10;stroke-dasharray:none;stroke-opacity:1"
             id="path8010" /></g><g
           id="g8012"
           transform="translate(170.998,63.9268)"><path
             d="M 0,0 H 0.104"
             style="fill:none;stroke:#000000;stroke-width:15;stroke-linecap:round;stroke-linejoin:round;stroke-miterlimit:10;stroke-dasharray:none;stroke-opacity:1"
             id="path8014" /></g><g
           id="g8016"
           transform="translate(255.5205,119.999)"><path
             d="M 0,0 H 0.103"
             style="fill:none;stroke:#000000;stroke-width:15;stroke-linecap:round;stroke-linejoin:round;stroke-miterlimit:10;stroke-dasharray:none;stroke-opacity:1"
             id="path8018" /></g></g></g></g></svg>
