<svg id="Capa_1" enable-background="new 0 0 512 512" height="512" viewBox="0 0 512 512" width="512" xmlns="http://www.w3.org/2000/svg"><g><g><path d="m460.078 7.5v407.92l-363.62 39.68-44.54 4.86v-407.92c0-12.3 4.98-23.44 13.04-31.5s19.2-13.04 31.5-13.04z" fill="#da4a54"/><path d="m96.458 7.5v447.6l-44.54 4.86v-407.92c0-12.3 4.98-23.44 13.04-31.5s19.2-13.04 31.5-13.04z" fill="#c32430"/><path d="m460.082 415.423h-363.625c-24.598 0-44.538 19.94-44.538 44.538 0 24.598 19.94 44.538 44.538 44.538h363.625z" fill="#c32430"/><path d="m96.457 479.5c-10.773 0-19.538-8.765-19.538-19.538s8.765-19.539 19.538-19.539h363.625v39.077z" fill="#dfeaef"/><path d="m212.298 104.066-32.378-33.231-32.378 33.231v-96.566h64.756z" fill="#f4dd45"/><path d="m353.475 131.985h-172.663c-17.311 0-31.345 14.034-31.345 31.345v95.644c0 17.311 14.034 31.345 31.345 31.345h172.663c17.311 0 31.345-14.034 31.345-31.345v-95.644c0-17.311-14.033-31.345-31.345-31.345z" fill="#dfeaef"/></g><g><path d="m467.578 72.5c0-4.142-3.358-7.5-7.5-7.5s-7.5 3.358-7.5 7.5v335.423h-348.621v-392.923h36.085v89.066c0 3.051 1.849 5.798 4.675 6.948 2.825 1.148 6.067.472 8.197-1.714l27.006-27.717 27.007 27.717c1.44 1.478 3.388 2.267 5.373 2.267.95 0 1.909-.181 2.824-.553 2.826-1.149 4.675-3.896 4.675-6.948v-89.066h232.78v27.5c0 4.142 3.358 7.5 7.5 7.5s7.5-3.358 7.5-7.5v-35c0-4.142-3.358-7.5-7.5-7.5h-363.621c-13.907 0-26.978 5.411-36.803 15.237s-15.237 22.896-15.237 36.803v407.92c0 .012.002.024.002.037.019 28.678 23.355 52.003 52.037 52.003h363.625c4.142 0 7.5-3.358 7.5-7.5zm-262.78-57.5v70.622l-19.507-20.02c-1.412-1.449-3.349-2.266-5.372-2.266s-3.96.817-5.372 2.266l-19.506 20.02v-70.622zm-134.537 10.843c5.192-5.191 11.658-8.646 18.696-10.084v392.712c-11.481 1.665-21.757 7.089-29.539 14.984v-371.415c0-9.901 3.851-19.204 10.843-26.197zm26.196 471.157c-20.423 0-37.038-16.615-37.038-37.038s16.615-37.039 37.038-37.039h356.125v9.997h-302.044c-4.142 0-7.5 3.358-7.5 7.5s3.358 7.5 7.5 7.5h302.04v24.08h-356.12c-6.639 0-12.04-5.401-12.04-12.04s5.401-12.04 12.04-12.04h24.08c4.142 0 7.5-3.358 7.5-7.5s-3.358-7.5-7.5-7.5h-24.08c-14.91 0-27.04 12.13-27.04 27.04s12.13 27.04 27.04 27.04h356.124v10z"/><path d="m180.812 124.485c-21.419 0-38.845 17.426-38.845 38.845v95.645c0 21.419 17.426 38.845 38.845 38.845h172.663c21.419 0 38.845-17.426 38.845-38.845v-95.645c0-21.419-17.426-38.845-38.845-38.845zm196.508 38.845v95.645c0 13.148-10.697 23.845-23.845 23.845h-172.663c-13.148 0-23.845-10.697-23.845-23.845v-95.645c0-13.148 10.697-23.845 23.845-23.845h172.663c13.149 0 23.845 10.697 23.845 23.845z"/><path d="m337.588 183.784h-140.889c-4.142 0-7.5 3.358-7.5 7.5s3.358 7.5 7.5 7.5h140.889c4.142 0 7.5-3.358 7.5-7.5s-3.358-7.5-7.5-7.5z"/><path d="m337.588 223.521h-140.889c-4.142 0-7.5 3.358-7.5 7.5s3.358 7.5 7.5 7.5h140.889c4.142 0 7.5-3.358 7.5-7.5s-3.358-7.5-7.5-7.5z"/></g></g></svg>