<?xml version="1.0" encoding="UTF-8" standalone="no"?>
<!-- Created with Inkscape (http://www.inkscape.org/) -->

<svg
   version="1.1"
   id="svg2121"
   xml:space="preserve"
   width="682.66669"
   height="682.66669"
   viewBox="0 0 682.66669 682.66669"
   xmlns="http://www.w3.org/2000/svg"
   xmlns:svg="http://www.w3.org/2000/svg"><defs
     id="defs2125"><clipPath
       clipPathUnits="userSpaceOnUse"
       id="clipPath2135"><path
         d="M 0,512 H 512 V 0 H 0 Z"
         id="path2133" /></clipPath></defs><g
     id="g2127"
     transform="matrix(1.3333333,0,0,-1.3333333,0,682.66667)"><g
       id="g2129"><g
         id="g2131"
         clip-path="url(#clipPath2135)"><g
           id="g2137"
           transform="translate(327.0576,118.5044)"><path
             d="m 0,0 -94.746,94.747 c -27.889,27.888 -27.898,73.279 0,101.177 27.889,27.889 73.289,27.888 101.178,0 l 94.746,-94.746 C 129.075,73.28 129.066,27.889 101.178,0 73.28,-27.897 27.898,-27.898 0,0"
             style="fill:#f0f4f6;fill-opacity:1;fill-rule:nonzero;stroke:none"
             id="path2139" /></g><g
           id="g2141"
           transform="translate(419.1436,127.5972)"><path
             d="m 0,0 -83.278,-83.278 c -49.081,-49.081 -128.658,-49.081 -177.74,0 v 0.001 c -49.081,49.081 -49.081,128.657 0,177.738 l 83.279,83.278"
             style="fill:#f0f4f6;fill-opacity:1;fill-rule:nonzero;stroke:none"
             id="path2143" /></g><g
           id="g2145"
           transform="translate(275.8203,10.8501)"><path
             d="M 0,0 C 22.01,5.16 42.89,16.31 60.04,33.46 L 92.819,66.24"
             style="fill:none;stroke:#000000;stroke-width:15;stroke-linecap:round;stroke-linejoin:round;stroke-miterlimit:10;stroke-dasharray:none;stroke-opacity:1"
             id="path2147" /></g><g
           id="g2149"
           transform="translate(246.2002,7.52)"><path
             d="m 0,0 c -31.9,0.19 -63.74,12.46 -88.07,36.79 -24.54,24.55 -36.81,56.71 -36.81,88.88 0,32.17 12.27,64.33 36.81,88.87 l 32.759,32.77"
             style="fill:none;stroke:#000000;stroke-width:15;stroke-linecap:round;stroke-linejoin:round;stroke-miterlimit:10;stroke-dasharray:none;stroke-opacity:1"
             id="path2151" /></g><g
           id="g2153"
           transform="translate(214.1514,196.4712)"><path
             d="m 0,0 -15.22,-15.22 c -33.8,-33.809 -52.989,-73.408 -52.989,-103.457 0,-13.58 3.92,-25.219 12.18,-33.479 26.55,-26.54 87.848,-8.27 136.937,40.819 l 15.219,15.219"
             style="fill:none;stroke:#000000;stroke-width:15;stroke-linecap:round;stroke-linejoin:round;stroke-miterlimit:10;stroke-dasharray:none;stroke-opacity:1"
             id="path2155" /></g><g
           id="g2157"
           transform="translate(50.3857,457.0208)"><path
             d="M 0,0 164.202,-164.202 203.53,-124.873 39.328,39.328 C 28.469,50.189 10.86,50.189 0,39.328 -10.86,28.468 -10.86,10.86 0,0"
             style="fill:#ffdf7d;fill-opacity:1;fill-rule:nonzero;stroke:none"
             id="path2159" /></g><g
           id="g2161"
           transform="translate(231.0918,309.3301)"><path
             d="m 0,0 -16.508,-16.508 -164.198,164.199 c -5.428,5.428 -8.146,12.554 -8.146,19.665 0,7.11 2.718,14.237 8.146,19.665 2.942,2.942 6.381,5.088 10.06,6.43 -1.134,-3.091 -1.699,-6.339 -1.698,-9.588 -0.001,-7.11 2.718,-14.237 8.146,-19.665 z"
             style="fill:#ffcf64;fill-opacity:1;fill-rule:nonzero;stroke:none"
             id="path2163" /></g><g
           id="g2165"
           transform="translate(102,484.05)"><path
             d="m 0,0 -12.29,12.29 c -10.86,10.87 -28.47,10.87 -39.33,0 -5.43,-5.43 -8.14,-12.55 -8.14,-19.65 0,-7.11 2.71,-14.23 8.14,-19.66 l 151.89,-151.89"
             style="fill:none;stroke:#000000;stroke-width:15;stroke-linecap:round;stroke-linejoin:round;stroke-miterlimit:10;stroke-dasharray:none;stroke-opacity:1"
             id="path2167" /></g><g
           id="g2169"
           transform="translate(241.5898,344.48)"><path
             d="M 0,0 -118.47,118.45"
             style="fill:none;stroke:#000000;stroke-width:15;stroke-linecap:round;stroke-linejoin:round;stroke-miterlimit:10;stroke-dasharray:none;stroke-opacity:1"
             id="path2171" /></g><g
           id="g2173"
           transform="translate(327.3564,127.5967)"><path
             d="m 0,0 -85.952,85.953 c -25.301,25.3 -25.309,66.478 0,91.787 25.3,25.3 66.486,25.3 91.786,-0.001 L 91.787,91.787 C 117.095,66.479 117.087,25.301 91.787,0 66.479,-25.308 25.309,-25.308 0,0 m 114.137,114.137 -85.952,85.952 c -18.845,18.845 -43.549,28.267 -68.245,28.267 -24.695,0 -49.398,-9.422 -68.243,-28.266 -37.689,-37.69 -37.689,-98.798 0,-136.487 L -22.35,-22.35 c 18.844,-18.844 43.548,-28.267 68.244,-28.267 24.695,0 49.398,9.423 68.243,28.267 37.689,37.689 37.689,98.798 0,136.487"
             style="fill:#ffdf7d;fill-opacity:1;fill-rule:nonzero;stroke:none"
             id="path2175" /></g><g
           id="g2177"
           transform="translate(327.3564,127.5967)"><path
             d="m 0,0 -85.952,85.953 c -25.301,25.3 -25.309,66.478 0,91.787 25.3,25.3 66.486,25.3 91.786,-0.001 L 91.787,91.787 C 117.095,66.479 117.087,25.301 91.787,0 66.479,-25.308 25.309,-25.308 0,0 Z m 114.137,114.137 -85.952,85.952 c -18.845,18.845 -43.549,28.267 -68.245,28.267 -24.695,0 -49.398,-9.422 -68.243,-28.266 -37.689,-37.69 -37.689,-98.798 0,-136.487 L -22.35,-22.35 c 18.844,-18.844 43.548,-28.267 68.244,-28.267 24.695,0 49.398,9.423 68.243,28.267 37.689,37.689 37.689,98.798 0,136.487 z"
             style="fill:none;stroke:#000000;stroke-width:15;stroke-linecap:round;stroke-linejoin:round;stroke-miterlimit:10;stroke-dasharray:none;stroke-opacity:1"
             id="path2179" /></g><g
           id="g2181"
           transform="translate(225.707,279.8745)"><path
             d="m 0,0 c 26.692,-1.646 52.907,-12.679 73.297,-33.069 l 61.609,-61.609 c 20.39,-20.389 31.43,-46.612 33.076,-73.304"
             style="fill:none;stroke:#000000;stroke-width:15;stroke-linecap:round;stroke-linejoin:round;stroke-miterlimit:10;stroke-dasharray:none;stroke-opacity:1"
             id="path2183" /></g><g
           id="g2185"
           transform="translate(143.9404,205.1714)"><path
             d="m 0,0 c 2.959,-26.676 14.983,-53.003 35.916,-73.937 l 65.186,-65.185 c 20.924,-20.924 47.252,-32.965 73.927,-35.924"
             style="fill:none;stroke:#000000;stroke-width:15;stroke-linecap:round;stroke-linejoin:round;stroke-miterlimit:10;stroke-dasharray:none;stroke-opacity:1"
             id="path2187" /></g><g
           id="g2189"
           transform="translate(284.3828,170.5713)"><path
             d="M 0,0 91.787,91.787"
             style="fill:none;stroke:#000000;stroke-width:15;stroke-linecap:round;stroke-linejoin:round;stroke-miterlimit:10;stroke-dasharray:none;stroke-opacity:1"
             id="path2191" /></g><g
           id="g2193"
           transform="translate(327.8281,310.1387)"><path
             d="m 0,0 -91.228,-91.228 -0.28,-0.28"
             style="fill:none;stroke:#000000;stroke-width:15;stroke-linecap:round;stroke-linejoin:round;stroke-miterlimit:10;stroke-dasharray:none;stroke-opacity:1"
             id="path2195" /></g><g
           id="g2197"
           transform="translate(423.9463,214.021)"><path
             d="m 0,0 -91.228,-91.228 -0.28,-0.28"
             style="fill:none;stroke:#000000;stroke-width:15;stroke-linecap:round;stroke-linejoin:round;stroke-miterlimit:10;stroke-dasharray:none;stroke-opacity:1"
             id="path2199" /></g><g
           id="g2201"
           transform="translate(158.126,44.3193)"><path
             d="M 0,0 103.904,103.904"
             style="fill:none;stroke:#000000;stroke-width:15;stroke-linecap:round;stroke-linejoin:round;stroke-miterlimit:10;stroke-dasharray:none;stroke-opacity:1"
             id="path2203" /></g></g></g></g></svg>
