<?xml version="1.0" encoding="UTF-8" standalone="no"?>
<!-- Created with Inkscape (http://www.inkscape.org/) -->

<svg
   version="1.1"
   id="svg7089"
   xml:space="preserve"
   width="682.66669"
   height="682.66669"
   viewBox="0 0 682.66669 682.66669"
   xmlns="http://www.w3.org/2000/svg"
   xmlns:svg="http://www.w3.org/2000/svg"><defs
     id="defs7093"><clipPath
       clipPathUnits="userSpaceOnUse"
       id="clipPath7103"><path
         d="M 0,512 H 512 V 0 H 0 Z"
         id="path7101" /></clipPath></defs><g
     id="g7095"
     transform="matrix(1.3333333,0,0,-1.3333333,0,682.66667)"><g
       id="g7097"><g
         id="g7099"
         clip-path="url(#clipPath7103)"><g
           id="g7105"
           transform="translate(430.6484,92.9521)"><path
             d="m 0,0 h -334.294 c -5.295,0 -9.7,4.073 -10.114,9.353 L -367.46,303.312 H -12.813 L 10.114,10.938 C 10.577,5.041 5.916,0 0,0"
             style="fill:#26a5fe;fill-opacity:1;fill-rule:nonzero;stroke:none"
             id="path7107" /></g><g
           id="g7109"
           transform="translate(440.4263,108.0957)"><path
             d="m 0,0 h -295.526 c -13.645,0 -25.708,9.191 -29.34,22.34 l -44.02,159.41 -8.349,106.422 h 354.642 z"
             style="fill:#0694fc;fill-opacity:1;fill-rule:nonzero;stroke:none"
             id="path7111" /></g><g
           id="g7113"
           transform="translate(90.3511,94.9277)"><path
             d="m 0,0 -45.206,26.518 -28.773,3.649 c -5.896,0.748 -9.889,6.379 -8.645,12.189 l 55.461,258.981 z"
             style="fill:#0182fc;fill-opacity:1;fill-rule:nonzero;stroke:none"
             id="path7115" /></g><g
           id="g7117"
           transform="translate(63.1885,396.2646)"><path
             d="m 0,0 v 0 l 27.163,-301.337 -45.206,26.518 z"
             style="fill:#0272fb;fill-opacity:1;fill-rule:nonzero;stroke:none"
             id="path7119" /></g><g
           id="g7121"
           transform="translate(15.7583,174.7852)"><path
             d="m 0,0 -8.031,-37.501 c -1.244,-5.811 2.749,-11.441 8.644,-12.189 l 28.774,-3.65 45.206,-26.517"
             style="fill:none;stroke:#000000;stroke-width:15;stroke-linecap:round;stroke-linejoin:round;stroke-miterlimit:10;stroke-dasharray:none;stroke-opacity:1"
             id="path7123" /></g><g
           id="g7125"
           transform="translate(63.1885,396.2646)"><path
             d="M 0,0 -39.914,-186.381"
             style="fill:none;stroke:#000000;stroke-width:15;stroke-linecap:round;stroke-linejoin:round;stroke-miterlimit:10;stroke-dasharray:none;stroke-opacity:1"
             id="path7127" /></g><g
           id="g7129"
           transform="translate(45.1455,121.4453)"><path
             d="M 0,0 18.043,274.819"
             style="fill:none;stroke:#000000;stroke-width:15;stroke-linecap:round;stroke-linejoin:round;stroke-miterlimit:10;stroke-dasharray:none;stroke-opacity:1"
             id="path7131" /></g><g
           id="g7133"
           transform="translate(430.6484,92.9521)"><path
             d="m 0,0 h -334.294 c -5.295,0 -9.7,4.073 -10.114,9.353 L -367.46,303.312 H -12.813 L 10.114,10.938 C 10.577,5.041 5.916,0 0,0 Z"
             style="fill:none;stroke:#000000;stroke-width:15;stroke-linecap:round;stroke-linejoin:round;stroke-miterlimit:10;stroke-dasharray:none;stroke-opacity:1"
             id="path7135" /></g><g
           id="g7137"
           transform="translate(504.1279,141.2363)"><path
             d="m 0,0 -68.38,247.584 c -1.215,4.398 -5.216,7.444 -9.779,7.444 h -362.78 l 71.928,-260.429 c 1.214,-4.399 5.216,-7.445 9.779,-7.445 H -9.779 C -3.076,-12.846 1.784,-6.461 0,0"
             style="fill:#eaf6ff;fill-opacity:1;fill-rule:nonzero;stroke:none"
             id="path7139" /></g><g
           id="g7141"
           transform="translate(494.3477,128.3857)"><path
             d="m 0,0 h -37.171 c 6.705,0 11.565,6.392 9.779,12.854 L -95.77,260.436 c -1.217,4.392 -5.214,7.446 -9.779,7.446 h 37.171 c 4.565,0 8.563,-3.054 9.78,-7.446 L 9.78,12.854 C 11.565,6.392 6.706,0 0,0"
             style="fill:#d8ecfe;fill-opacity:1;fill-rule:nonzero;stroke:none"
             id="path7143" /></g><g
           id="g7145"
           transform="translate(452.0137,329.9268)"><path
             d="m 0,0 -16.266,58.894 c -1.214,4.398 -5.216,7.444 -9.779,7.444 h -362.78 L -370.503,0 Z"
             style="fill:#ff5795;fill-opacity:1;fill-rule:nonzero;stroke:none"
             id="path7147" /></g><g
           id="g7149"
           transform="translate(398.5781,388.8213)"><path
             d="M 0,0 16.266,-58.895 H 53.437 L 37.171,0 C 35.954,4.393 31.957,7.446 27.392,7.446 H -9.78 C -5.215,7.446 -1.217,4.393 0,0"
             style="fill:#fe3581;fill-opacity:1;fill-rule:nonzero;stroke:none"
             id="path7151" /></g><g
           id="g7153"
           transform="translate(393.0273,128.3906)"><path
             d="m 0,0 h 101.321 c 6.703,0 11.564,6.385 9.78,12.846 L 42.721,260.43 c -1.215,4.398 -5.217,7.444 -9.78,7.444 h -362.779 l 46.413,-168.049"
             style="fill:none;stroke:#000000;stroke-width:15;stroke-linecap:round;stroke-linejoin:round;stroke-miterlimit:10;stroke-dasharray:none;stroke-opacity:1"
             id="path7155" /></g><g
           id="g7157"
           transform="translate(119.1685,193.5781)"><path
             d="m 0,0 15.948,-57.743 c 1.215,-4.399 5.217,-7.445 9.779,-7.445 h 212.205"
             style="fill:none;stroke:#000000;stroke-width:15;stroke-linecap:round;stroke-linejoin:round;stroke-miterlimit:10;stroke-dasharray:none;stroke-opacity:1"
             id="path7159" /></g><g
           id="g7161"
           transform="translate(81.5107,329.9268)"><path
             d="M 0,0 H 370.503"
             style="fill:none;stroke:#000000;stroke-width:15;stroke-linecap:round;stroke-linejoin:round;stroke-miterlimit:10;stroke-dasharray:none;stroke-opacity:1"
             id="path7163" /></g><g
           id="g7165"
           transform="translate(76.9106,396.2676)"><path
             d="m 0,0 c 0,12.581 10.199,22.78 22.78,22.78 12.581,0 22.781,-10.199 22.781,-22.78 0,-12.581 -10.2,-22.78 -22.781,-22.78"
             style="fill:none;stroke:#000000;stroke-width:15;stroke-linecap:round;stroke-linejoin:round;stroke-miterlimit:10;stroke-dasharray:none;stroke-opacity:1"
             id="path7167" /></g><g
           id="g7169"
           transform="translate(122.4712,396.2676)"><path
             d="m 0,0 c 0,12.581 10.199,22.78 22.78,22.78 12.581,0 22.781,-10.199 22.781,-22.78 0,-12.581 -10.2,-22.78 -22.781,-22.78"
             style="fill:none;stroke:#000000;stroke-width:15;stroke-linecap:round;stroke-linejoin:round;stroke-miterlimit:10;stroke-dasharray:none;stroke-opacity:1"
             id="path7171" /></g><g
           id="g7173"
           transform="translate(168.0317,396.2676)"><path
             d="m 0,0 c 0,12.581 10.199,22.78 22.78,22.78 12.581,0 22.781,-10.199 22.781,-22.78 0,-12.581 -10.2,-22.78 -22.781,-22.78"
             style="fill:none;stroke:#000000;stroke-width:15;stroke-linecap:round;stroke-linejoin:round;stroke-miterlimit:10;stroke-dasharray:none;stroke-opacity:1"
             id="path7175" /></g><g
           id="g7177"
           transform="translate(213.5923,396.2676)"><path
             d="m 0,0 c 0,12.581 10.199,22.78 22.78,22.78 12.581,0 22.781,-10.199 22.781,-22.78 0,-12.581 -10.2,-22.78 -22.781,-22.78"
             style="fill:none;stroke:#000000;stroke-width:15;stroke-linecap:round;stroke-linejoin:round;stroke-miterlimit:10;stroke-dasharray:none;stroke-opacity:1"
             id="path7179" /></g><g
           id="g7181"
           transform="translate(259.1528,396.2676)"><path
             d="m 0,0 c 0,12.581 10.199,22.78 22.78,22.78 12.581,0 22.781,-10.199 22.781,-22.78 0,-12.581 -10.2,-22.78 -22.781,-22.78"
             style="fill:none;stroke:#000000;stroke-width:15;stroke-linecap:round;stroke-linejoin:round;stroke-miterlimit:10;stroke-dasharray:none;stroke-opacity:1"
             id="path7183" /></g><g
           id="g7185"
           transform="translate(304.7134,396.2676)"><path
             d="m 0,0 c 0,12.581 10.199,22.78 22.78,22.78 12.581,0 22.781,-10.199 22.781,-22.78 0,-12.581 -10.2,-22.78 -22.781,-22.78"
             style="fill:none;stroke:#000000;stroke-width:15;stroke-linecap:round;stroke-linejoin:round;stroke-miterlimit:10;stroke-dasharray:none;stroke-opacity:1"
             id="path7187" /></g><g
           id="g7189"
           transform="translate(350.2739,396.2676)"><path
             d="m 0,0 c 0,12.581 10.199,22.78 22.78,22.78 12.581,0 22.781,-10.199 22.781,-22.78 0,-12.581 -10.2,-22.78 -22.781,-22.78"
             style="fill:none;stroke:#000000;stroke-width:15;stroke-linecap:round;stroke-linejoin:round;stroke-miterlimit:10;stroke-dasharray:none;stroke-opacity:1"
             id="path7191" /></g><g
           id="g7193"
           transform="translate(395.8345,396.2676)"><path
             d="m 0,0 c 0,12.581 10.199,22.78 22.78,22.78 12.581,0 22.781,-10.199 22.781,-22.78 0,-12.581 -10.2,-22.78 -22.781,-22.78"
             style="fill:none;stroke:#000000;stroke-width:15;stroke-linecap:round;stroke-linejoin:round;stroke-miterlimit:10;stroke-dasharray:none;stroke-opacity:1"
             id="path7195" /></g><g
           id="g7197"
           transform="translate(199.0161,247.1934)"><path
             d="m 0,0 -12.916,40.267 c -1.347,4.198 -5.251,7.046 -9.66,7.046 h -29.732 c -6.877,0 -11.761,-6.696 -9.66,-13.244 l 12.915,-40.266 c 1.347,-4.199 5.251,-7.046 9.66,-7.046 H -9.661 C -2.784,-13.243 2.1,-6.548 0,0"
             style="fill:#26a5fe;fill-opacity:1;fill-rule:nonzero;stroke:none"
             id="path7199" /></g><g
           id="g7201"
           transform="translate(199.0161,247.1934)"><path
             d="m 0,0 -12.916,40.267 c -1.347,4.198 -5.251,7.046 -9.66,7.046 h -29.732 c -6.877,0 -11.761,-6.696 -9.66,-13.244 l 12.915,-40.266 c 1.347,-4.199 5.251,-7.046 9.66,-7.046 H -9.661 C -2.784,-13.243 2.1,-6.548 0,0 Z"
             style="fill:none;stroke:#000000;stroke-width:15;stroke-linecap:round;stroke-linejoin:round;stroke-miterlimit:10;stroke-dasharray:none;stroke-opacity:1"
             id="path7203" /></g><g
           id="g7205"
           transform="translate(224.1982,291.4629)"><path
             d="M 0,0 H 13.845"
             style="fill:none;stroke:#000000;stroke-width:15;stroke-linecap:round;stroke-linejoin:round;stroke-miterlimit:10;stroke-dasharray:none;stroke-opacity:1"
             id="path7207" /></g><g
           id="g7209"
           transform="translate(271.0176,291.4629)"><path
             d="M 0,0 H 13.845"
             style="fill:none;stroke:#000000;stroke-width:15;stroke-linecap:round;stroke-linejoin:round;stroke-miterlimit:10;stroke-dasharray:none;stroke-opacity:1"
             id="path7211" /></g><g
           id="g7213"
           transform="translate(317.8364,291.4629)"><path
             d="M 0,0 H 13.845"
             style="fill:none;stroke:#000000;stroke-width:15;stroke-linecap:round;stroke-linejoin:round;stroke-miterlimit:10;stroke-dasharray:none;stroke-opacity:1"
             id="path7215" /></g><g
           id="g7217"
           transform="translate(364.6558,291.4629)"><path
             d="M 0,0 H 13.845"
             style="fill:none;stroke:#000000;stroke-width:15;stroke-linecap:round;stroke-linejoin:round;stroke-miterlimit:10;stroke-dasharray:none;stroke-opacity:1"
             id="path7219" /></g><g
           id="g7221"
           transform="translate(411.4746,291.4629)"><path
             d="M 0,0 H 13.845"
             style="fill:none;stroke:#000000;stroke-width:15;stroke-linecap:round;stroke-linejoin:round;stroke-miterlimit:10;stroke-dasharray:none;stroke-opacity:1"
             id="path7223" /></g><g
           id="g7225"
           transform="translate(234.1646,250.5752)"><path
             d="M 0,0 H 13.845"
             style="fill:none;stroke:#000000;stroke-width:15;stroke-linecap:round;stroke-linejoin:round;stroke-miterlimit:10;stroke-dasharray:none;stroke-opacity:1"
             id="path7227" /></g><g
           id="g7229"
           transform="translate(280.9834,250.5752)"><path
             d="M 0,0 H 13.845"
             style="fill:none;stroke:#000000;stroke-width:15;stroke-linecap:round;stroke-linejoin:round;stroke-miterlimit:10;stroke-dasharray:none;stroke-opacity:1"
             id="path7231" /></g><g
           id="g7233"
           transform="translate(327.8022,250.5752)"><path
             d="M 0,0 H 13.845"
             style="fill:none;stroke:#000000;stroke-width:15;stroke-linecap:round;stroke-linejoin:round;stroke-miterlimit:10;stroke-dasharray:none;stroke-opacity:1"
             id="path7235" /></g><g
           id="g7237"
           transform="translate(374.6216,250.5752)"><path
             d="M 0,0 H 13.845"
             style="fill:none;stroke:#000000;stroke-width:15;stroke-linecap:round;stroke-linejoin:round;stroke-miterlimit:10;stroke-dasharray:none;stroke-opacity:1"
             id="path7239" /></g><g
           id="g7241"
           transform="translate(421.4404,250.5752)"><path
             d="M 0,0 H 13.845"
             style="fill:none;stroke:#000000;stroke-width:15;stroke-linecap:round;stroke-linejoin:round;stroke-miterlimit:10;stroke-dasharray:none;stroke-opacity:1"
             id="path7243" /></g><g
           id="g7245"
           transform="translate(244.1304,209.6865)"><path
             d="M 0,0 H 13.845"
             style="fill:none;stroke:#000000;stroke-width:15;stroke-linecap:round;stroke-linejoin:round;stroke-miterlimit:10;stroke-dasharray:none;stroke-opacity:1"
             id="path7247" /></g><g
           id="g7249"
           transform="translate(290.9492,209.6865)"><path
             d="M 0,0 H 13.845"
             style="fill:none;stroke:#000000;stroke-width:15;stroke-linecap:round;stroke-linejoin:round;stroke-miterlimit:10;stroke-dasharray:none;stroke-opacity:1"
             id="path7251" /></g><g
           id="g7253"
           transform="translate(337.7686,209.6865)"><path
             d="M 0,0 H 13.845"
             style="fill:none;stroke:#000000;stroke-width:15;stroke-linecap:round;stroke-linejoin:round;stroke-miterlimit:10;stroke-dasharray:none;stroke-opacity:1"
             id="path7255" /></g><g
           id="g7257"
           transform="translate(384.5874,209.6865)"><path
             d="M 0,0 H 13.845"
             style="fill:none;stroke:#000000;stroke-width:15;stroke-linecap:round;stroke-linejoin:round;stroke-miterlimit:10;stroke-dasharray:none;stroke-opacity:1"
             id="path7259" /></g><g
           id="g7261"
           transform="translate(431.4062,209.6865)"><path
             d="M 0,0 H 13.845"
             style="fill:none;stroke:#000000;stroke-width:15;stroke-linecap:round;stroke-linejoin:round;stroke-miterlimit:10;stroke-dasharray:none;stroke-opacity:1"
             id="path7263" /></g><g
           id="g7265"
           transform="translate(251.0527,168.7988)"><path
             d="M 0,0 H 13.845"
             style="fill:none;stroke:#000000;stroke-width:15;stroke-linecap:round;stroke-linejoin:round;stroke-miterlimit:10;stroke-dasharray:none;stroke-opacity:1"
             id="path7267" /></g><g
           id="g7269"
           transform="translate(297.8716,168.7988)"><path
             d="M 0,0 H 13.845"
             style="fill:none;stroke:#000000;stroke-width:15;stroke-linecap:round;stroke-linejoin:round;stroke-miterlimit:10;stroke-dasharray:none;stroke-opacity:1"
             id="path7271" /></g><g
           id="g7273"
           transform="translate(344.6909,168.7988)"><path
             d="M 0,0 H 13.845"
             style="fill:none;stroke:#000000;stroke-width:15;stroke-linecap:round;stroke-linejoin:round;stroke-miterlimit:10;stroke-dasharray:none;stroke-opacity:1"
             id="path7275" /></g><g
           id="g7277"
           transform="translate(391.5098,168.7988)"><path
             d="M 0,0 H 13.845"
             style="fill:none;stroke:#000000;stroke-width:15;stroke-linecap:round;stroke-linejoin:round;stroke-miterlimit:10;stroke-dasharray:none;stroke-opacity:1"
             id="path7279" /></g><g
           id="g7281"
           transform="translate(438.3286,168.7988)"><path
             d="M 0,0 H 13.845"
             style="fill:none;stroke:#000000;stroke-width:15;stroke-linecap:round;stroke-linejoin:round;stroke-miterlimit:10;stroke-dasharray:none;stroke-opacity:1"
             id="path7283" /></g><g
           id="g7285"
           transform="translate(171.2168,201.6523)"><path
             d="M 0,0 9.252,-33.5"
             style="fill:none;stroke:#000000;stroke-width:15;stroke-linecap:round;stroke-linejoin:round;stroke-miterlimit:10;stroke-dasharray:none;stroke-opacity:1"
             id="path7287" /></g><g
           id="g7289"
           transform="translate(201.3638,184.9023)"><path
             d="M 0,0 4.626,-16.75"
             style="fill:none;stroke:#000000;stroke-width:15;stroke-linecap:round;stroke-linejoin:round;stroke-miterlimit:10;stroke-dasharray:none;stroke-opacity:1"
             id="path7291" /></g></g></g></g></svg>
