<?xml version="1.0" encoding="UTF-8"?>
<svg xmlns="http://www.w3.org/2000/svg" xmlns:xlink="http://www.w3.org/1999/xlink" version="1.1" id="Capa_1" x="0px" y="0px" viewBox="0 0 512 512" style="enable-background:new 0 0 512 512;" xml:space="preserve" width="512" height="512">
<g>
	<g>
		<path style="fill:#F2F2F0;" d="M263.77,401.67L86.88,503.8c-2.5,1.44-5.71,0.59-7.15-1.92l-7.95-13.77&#10;&#9;&#9;&#9;c-0.89-1.55-1.37-3.28-1.4-5.03l105.144-72.002l75.156-32.088l13.09,4.7V401.67z"/>
		<path style="fill:#7E7D89;" d="M266.628,406.616l-15.95-27.625l-17.413-35.768c-2.761-4.783-1.123-10.899,3.66-13.66l16.06-9.425&#10;&#9;&#9;&#9;l27.997,30.516l17.859,48.91l-18.554,10.712C275.505,413.038,269.389,411.399,266.628,406.616z"/>
		<path style="fill:#E4E5E1;" d="M250.68,378.99L70.38,483.08c-0.03-1.36,0.21-2.74,0.72-4.04l19.228-48.801&#10;&#9;&#9;&#9;c0.331-0.841,0.938-1.545,1.721-1.997l11.865-6.852c0.919-0.531,2.012-0.675,3.037-0.4l11.107,2.981&#10;&#9;&#9;&#9;c1.025,0.275,2.118,0.131,3.037-0.399l17.08-9.863c0.918-0.53,1.588-1.403,1.863-2.427l2.982-11.112&#10;&#9;&#9;&#9;c0.275-1.024,0.945-1.897,1.863-2.427l17.991-10.393c0.919-0.531,2.012-0.675,3.038-0.4l11.107,2.98&#10;&#9;&#9;&#9;c1.025,0.275,2.118,0.131,3.038-0.4l15.296-8.837c0.903-0.522,1.566-1.375,1.849-2.378l3.188-11.309&#10;&#9;&#9;&#9;c0.283-1.004,0.947-1.857,1.85-2.379l30.111-17.387l13.833,8.779L250.68,378.99z"/>
		<path style="fill:#717182;" d="M277.82,363.16l-27.14,15.83l-18.33-31.75h-0.01l-2.85-4.94c-2.76-4.79-1.12-10.9,3.66-13.67&#10;&#9;&#9;&#9;l18.56-10.71l21.225,16.217L277.82,363.16z"/>
		<path style="fill:#91DEB6;" d="M411.94,341.96l-48.495-83.993l-6.188-5.462c-8.29-14.35-26.63-19.26-40.98-10.98l-49.412,28.659&#10;&#9;&#9;&#9;c-16.74,9.67-24.117,28.436-14.447,45.176l2.102,7.42L299.67,401c9.67,16.74,31.07,22.48,47.81,12.81l53.47-30.87&#10;&#9;&#9;&#9;C415.3,374.66,420.22,356.31,411.94,341.96z M360.35,346.51l-1.23,0.72c-7.18,4.14-16.35,1.68-20.49-5.49l-16.43-28.45l6.73-21.2&#10;&#9;&#9;&#9;c7.17-4.15,16.35-1.69,20.49,5.49l16.42,28.44C369.99,333.2,367.53,342.37,360.35,346.51z"/>
		<path style="fill:#6ED5A1;" d="M363.44,257.97c-10.12-5.5-24.02-5.09-34.28,0.83l-53.47,30.87&#10;&#9;&#9;&#9;c-11.83,6.83-20.51,20.04-21.17,33.11l-3.64-6.3c-9.67-16.74-3.93-38.14,12.81-47.81l53.47-30.87&#10;&#9;&#9;&#9;c14.35-8.28,32.69-3.37,40.98,10.98L363.44,257.97z"/>
		<path style="fill:#7E7D89;" d="M420.726,7.589L119.28,25.981l-15.686,4.148C70.431,32.153,44.571,59.655,44.571,92.9l1.549,85.407&#10;&#9;&#9;&#9;c0,33.245,21.982,58.983,55.145,61.006l18.035,5.814l301.425,18.388c27.11,1.654,50.005-19.9,50.005-47.078V54.667&#10;&#9;&#9;&#9;C470.73,27.489,447.836,5.935,420.726,7.589z"/>
		<path style="fill:#717182;" d="M119.3,245.127l-19.01-1.158c-33.16-2.03-59.02-29.53-59.02-62.78V89.91&#10;&#9;&#9;&#9;c0-33.24,25.86-60.75,59.02-62.77l18.99-1.16c-18.7,12-31.14,34.26-31.14,59.54v100.07C88.14,210.88,100.59,233.127,119.3,245.127&#10;&#9;&#9;&#9;z"/>
		<path style="fill:#FC9295;" d="M376.2,96.98v78.89c0,27.06-22.73,48.56-49.74,47.07l-10.83-0.601l-20-7.873V56.161l20-5.72&#10;&#9;&#9;&#9;l11.15-0.541C353.68,48.6,376.2,70.06,376.2,96.98z"/>
		<polygon style="fill:#FC7A86;" points="315.63,50.44 315.63,222.34 295.63,221.23 274.253,146.514 295.63,51.41 &#9;&#9;"/>
		<polygon style="fill:#717182;" points="295.63,51.41 295.63,221.23 235.32,217.896 215.32,209.761 215.32,63.126 235.32,54.331 &#9;&#9;&#10;&#9;&#9;&#9;"/>
		<polygon style="fill:#646477;" points="235.32,54.33 235.32,217.9 215.32,216.79 204.23,139.737 215.32,55.3 &#9;&#9;"/>
		<path style="fill:#FC9295;" d="M86.936,176.725c-8.19-0.452-12.424-9.934-12.424-18.141l-0.141-48.212&#10;&#9;&#9;&#9;c0-8.248,4.719-16.12,12.953-16.518L88.14,92.9c8.484-0.01,15.454,6.877,15.454,15.459v54.488c0,8.588-6.977,15.471-15.454,15.46&#10;&#9;&#9;&#9;C87.859,178.307,86.936,176.725,86.936,176.725z"/>
		<path style="fill:#FC7A86;" d="M88.14,92.9v85.4c-0.28,0-0.57,0-0.85-0.02c-8.19-0.45-14.6-7.23-14.6-15.43v-54.49&#10;&#9;&#9;&#9;c0-8.25,6.48-15.04,14.71-15.44C87.65,92.91,87.89,92.9,88.14,92.9z"/>
		<path style="fill:#F2F2F0;" d="M336.425,321.767c-3.989,0.07-8.006-1.37-11.121-4.343c-6.278-5.991-6.51-15.937-0.519-22.214&#10;&#9;&#9;&#9;l86.918-90.333c5.988-6.278,15.934-6.512,22.214-0.52c6.278,5.991,6.51,15.937,0.519,22.214l-86.918,90.333&#10;&#9;&#9;&#9;C344.501,320.068,340.478,321.697,336.425,321.767z"/>
		<path style="fill:#717182;" d="M215.32,55.3v161.49L164.97,214c-3.41-0.188-6.665-0.921-9.69-2.1&#10;&#9;&#9;&#9;c-10.404-9.638-16.744-22.191-16.744-35.457l-0.753-84.329c0-13.27,7.499-24.506,17.497-32.274c3.09-1.206,6.422-1.941,9.91-2.11&#10;&#9;&#9;&#9;L215.32,55.3z"/>
		<path style="fill:#646477;" d="M155.28,59.84V211.9c-11.76-4.58-20-16-20-29.27V89.11C135.28,75.84,143.53,64.42,155.28,59.84z"/>
	</g>
	<g>
		<g>
			<path style="fill:none;stroke:#000000;stroke-width:15;stroke-linecap:round;stroke-linejoin:round;stroke-miterlimit:10;" d="&#10;&#9;&#9;&#9;&#9;M298.771,399.606l-18.483,10.671c-4.783,2.761-10.899,1.123-13.66-3.66l-37.136-64.321c-2.761-4.783-1.123-10.899,3.66-13.66&#10;&#9;&#9;&#9;&#9;l18.525-10.695"/>
			<path style="fill:none;stroke:#000000;stroke-width:15;stroke-linecap:round;stroke-linejoin:round;stroke-miterlimit:10;" d="&#10;&#9;&#9;&#9;&#9;M355.935,308.862l9.908,17.161c4.142,7.174,1.684,16.348-5.49,20.49l-1.233,0.712c-7.174,4.142-16.348,1.684-20.49-5.49&#10;&#9;&#9;&#9;&#9;l-15.794-27.333"/>
			<path style="fill:none;stroke:#000000;stroke-width:15;stroke-linecap:round;stroke-linejoin:round;stroke-miterlimit:10;" d="&#10;&#9;&#9;&#9;&#9;M362.44,405.179l-14.957,8.635c-16.74,9.665-38.146,3.929-47.811-12.811l-48.797-84.519c-9.665-16.74-3.929-38.146,12.811-47.811&#10;&#9;&#9;&#9;&#9;l22.971-13.262"/>
			<path style="fill:none;stroke:#000000;stroke-width:15;stroke-linecap:round;stroke-linejoin:round;stroke-miterlimit:10;" d="&#10;&#9;&#9;&#9;&#9;M378.886,284.719l33.049,57.243c8.284,14.349,3.368,32.696-10.981,40.981l-8.374,4.834"/>
			<path style="fill:none;stroke:#000000;stroke-width:15;stroke-linecap:round;stroke-linejoin:round;stroke-miterlimit:10;" d="&#10;&#9;&#9;&#9;&#9;M263.648,401.741L86.881,503.797c-2.505,1.446-5.708,0.588-7.154-1.917l-7.949-13.767c-1.596-2.765-1.844-6.106-0.675-9.076&#10;&#9;&#9;&#9;&#9;l19.732-50.093l14.514-8.38l14.309,3.834l19.957-11.522l3.834-14.309l20.864-12.046l14.309,3.834l18.143-10.475l4.066-14.442&#10;&#9;&#9;&#9;&#9;l31.39-18.123"/>
			
				<line style="fill:none;stroke:#000000;stroke-width:15;stroke-linecap:round;stroke-linejoin:round;stroke-miterlimit:10;" x1="136.642" y1="444.83" x2="250.678" y2="378.991"/>
			
				<line style="fill:none;stroke:#000000;stroke-width:15;stroke-linecap:round;stroke-linejoin:round;stroke-miterlimit:10;" x1="71.066" y1="482.69" x2="106.453" y2="462.26"/>
			
				<line style="fill:none;stroke:#000000;stroke-width:15;stroke-linecap:round;stroke-linejoin:round;stroke-miterlimit:10;" x1="290.11" y1="320.545" x2="316.296" y2="365.902"/>
		</g>
		<g>
			<path style="fill:none;stroke:#000000;stroke-width:15;stroke-linecap:round;stroke-linejoin:round;stroke-miterlimit:10;" d="&#10;&#9;&#9;&#9;&#9;M458.729,23.223c-9.255-10.342-22.982-16.55-38.003-15.634L100.292,27.14C67.13,29.163,41.27,56.665,41.27,89.91v91.285&#10;&#9;&#9;&#9;&#9;c0,33.245,25.86,60.747,59.023,62.77l258.322,15.761"/>
			<path style="fill:none;stroke:#000000;stroke-width:15;stroke-linecap:round;stroke-linejoin:round;stroke-miterlimit:10;" d="&#10;&#9;&#9;&#9;&#9;M400.402,262.276l20.324,1.24c27.11,1.654,50.005-19.9,50.005-47.078V55.426"/>
			<path style="fill:none;stroke:#000000;stroke-width:15;stroke-linecap:round;stroke-linejoin:round;stroke-miterlimit:10;" d="&#10;&#9;&#9;&#9;&#9;M135.28,182.627V89.114c0-16.765,13.16-30.578,29.905-31.388l161.596-7.823c26.896-1.302,49.415,20.153,49.415,47.081v78.891&#10;&#9;&#9;&#9;&#9;c0,27.056-22.725,48.559-49.74,47.064l-161.488-8.935C148.313,213.082,135.28,199.308,135.28,182.627z"/>
			<path style="fill:none;stroke:#000000;stroke-width:15;stroke-linecap:round;stroke-linejoin:round;stroke-miterlimit:10;" d="&#10;&#9;&#9;&#9;&#9;M87.293,178.283L87.293,178.283c-8.19-0.452-14.599-7.229-14.599-15.436v-54.488c0-8.248,6.471-15.044,14.705-15.442h0&#10;&#9;&#9;&#9;&#9;c8.815-0.426,16.195,6.611,16.195,15.442v54.488C103.594,171.72,96.147,178.772,87.293,178.283z"/>
			
				<line style="fill:none;stroke:#000000;stroke-width:15;stroke-linecap:round;stroke-linejoin:round;stroke-miterlimit:10;" x1="423.071" y1="162.82" x2="423.071" y2="108.285"/>
			
				<line style="fill:none;stroke:#000000;stroke-width:15;stroke-linecap:round;stroke-linejoin:round;stroke-miterlimit:10;" x1="215.323" y1="149.189" x2="215.323" y2="55.723"/>
			
				<line style="fill:none;stroke:#000000;stroke-width:15;stroke-linecap:round;stroke-linejoin:round;stroke-miterlimit:10;" x1="215.323" y1="216.596" x2="215.323" y2="184.189"/>
			
				<line style="fill:none;stroke:#000000;stroke-width:15;stroke-linecap:round;stroke-linejoin:round;stroke-miterlimit:10;" x1="295.629" y1="220.936" x2="295.629" y2="52.189"/>
			
				<line style="fill:none;stroke:#000000;stroke-width:15;stroke-linecap:round;stroke-linejoin:round;stroke-miterlimit:10;" x1="335.869" y1="114.189" x2="335.869" y2="99.879"/>
			
				<line style="fill:none;stroke:#000000;stroke-width:15;stroke-linecap:round;stroke-linejoin:round;stroke-miterlimit:10;" x1="335.869" y1="173.247" x2="335.869" y2="145.632"/>
			
				<line style="fill:none;stroke:#000000;stroke-width:15;stroke-linecap:round;stroke-linejoin:round;stroke-miterlimit:10;" x1="255.738" y1="162.766" x2="255.738" y2="110.36"/>
			
				<line style="fill:none;stroke:#000000;stroke-width:15;stroke-linecap:round;stroke-linejoin:round;stroke-miterlimit:10;" x1="175.319" y1="152.284" x2="175.319" y2="120.841"/>
		</g>
		<g>
			<path style="fill:none;stroke:#000000;stroke-width:15;stroke-linecap:round;stroke-linejoin:round;stroke-miterlimit:10;" d="&#10;&#9;&#9;&#9;&#9;M336.425,321.767c-3.989,0.07-8.006-1.37-11.121-4.343c-6.278-5.991-6.51-15.937-0.519-22.214l86.918-90.333&#10;&#9;&#9;&#9;&#9;c5.988-6.278,15.934-6.512,22.214-0.52c6.278,5.991,6.51,15.937,0.519,22.214l-86.918,90.333&#10;&#9;&#9;&#9;&#9;C344.501,320.068,340.478,321.697,336.425,321.767z"/>
		</g>
	</g>
</g>















</svg>
