<svg id="Capa_1" enable-background="new 0 0 513.589 513.589" height="512" viewBox="0 0 513.589 513.589" width="512" xmlns="http://www.w3.org/2000/svg"><g><g><g><g id="XMLID_684_"><g><path d="m388.523 91.022v310.14c0 31.86-14.21 61.61-39.01 81.63-18.88 15.24-42 23.3-65.71 23.3-7.41 0-14.88-.79-22.3-2.39-38.77-8.37-69.15-37.38-79.28-75.73l-4.83-18.26-2.85-28.36 36.61-9.96 2.88 29.93 4.51 17.05c6.5 24.61 26 43.24 50.88 48.61 19.99 4.31 40.58-.58 56.5-13.43 15.91-12.84 25.04-31.94 25.04-52.39v-310.14c0-15.65-7.48-29.6-20.52-38.26-13.03-8.66-28.78-10.15-43.21-4.08l-96.47 40.56c-17.09 7.18-28.13 23.8-28.13 42.34 0 3.04.3 6.09.9 9.07l7.17 35.58 12.09 45.57-39.15 7.69-9.15-42.77-7.79-38.65c-1.09-5.42-1.64-10.97-1.64-16.49 0-33.7 20.07-63.92 51.14-76.98l96.47-40.55c25.84-10.87 55.21-8.09 78.56 7.42 23.35 15.52 37.29 41.51 37.29 69.55z" fill="#e2e2e2"/></g></g></g><g><g><path d="m207.272 350.117 7.792 42.698c1.434 7.859-3.774 15.393-11.634 16.828l-14.823 2.705c-7.859 1.434-15.393-3.774-16.827-11.633l-7.792-42.698-22.175-121.514-7.792-42.698c-1.434-7.859 3.774-15.393 11.634-16.828l14.823-2.705c7.859-1.434 15.393 3.774 16.828 11.634l7.792 42.698z" fill="#d4ffa6"/></g><g fill="#baf39a"><path d="m194.641 367.715c7.502-1.379 15.168-2.79 15.327-2.826l-2.696-14.771-22.175-121.514-2.696-14.774c-.173.024-9.004 1.623-16.993 3.071-3.517.637-6.884-1.694-7.525-5.21-.433-2.372-.944-5.171-1.454-7.967-1.434-7.859 3.774-15.393 11.634-16.827l9.086-1.658c-1.731-7.48-9.039-12.359-16.671-10.966l-14.823 2.705c-7.859 1.434-13.068 8.968-11.634 16.828l7.792 42.698 22.175 121.514 7.792 42.698c1.434 7.859 8.968 13.067 16.827 11.633l5.738-1.047c-.052-.223-.115-.44-.157-.667l-6.1-33.426c-.808-4.432 2.124-8.68 6.553-9.494z"/><path d="m212.824 340.972c.799 4.38-2.104 8.579-6.484 9.379l-41.398 7.554c-4.38.799-8.579-2.104-9.379-6.484l-19.302-105.774c-.799-4.38 2.104-8.579 6.484-9.378l41.398-7.554c4.38-.799 8.579 2.104 9.379 6.484z"/></g><path d="m212.824 340.972-.317-1.738s-21.456 3.889-32.899 5.934c-3.87.692-7.562-1.878-8.268-5.746l-15.698-86.023c-.799-4.38 2.104-8.579 6.484-9.378l31.942-5.829-.546-2.994c-.799-4.38-4.998-7.283-9.379-6.484l-41.398 7.554c-4.38.799-7.283 4.998-6.484 9.378l19.302 105.774c.799 4.38 4.998 7.283 9.379 6.484l41.398-7.554c4.38-.799 7.283-4.998 6.484-9.378z" fill="#9ae59c"/><path d="m206.583 325.527-50.636 9.24c-9.479 1.73-18.565-4.552-20.295-14.031l-7.181-39.349c-1.73-9.479 4.552-18.565 14.031-20.295l50.636-9.24c9.479-1.73 18.565 4.552 20.295 14.031l7.181 39.349c1.73 9.479-4.552 18.565-14.031 20.295z" fill="#9ae59c"/><path d="m165.912 330.655-7.181-39.349c-1.73-9.479 4.552-18.565 14.031-20.295l40.126-7.308c-2.629-8.229-11.024-13.444-19.749-11.852l-50.636 9.24c-9.479 1.73-15.761 10.816-14.031 20.295l7.181 39.349c1.73 9.479 10.816 15.761 20.295 14.031l10.529-1.922c-.228-.709-.427-1.435-.565-2.189z" fill="#6fd6a2"/></g></g><g><path d="m388.527 374.58c-4.142 0-7.5 3.357-7.5 7.5v19.087c0 29.582-13.202 57.205-36.221 75.786-17.283 13.951-38.948 21.635-61.004 21.637-6.922 0-13.893-.746-20.717-2.219-28.529-6.157-52.155-24.365-65.419-49.376l23.517-4.547c10.583 16.073 27.126 27.648 46.664 31.863 5.291 1.142 10.618 1.703 15.905 1.703 16.915 0 33.408-5.746 46.88-16.62 17.685-14.276 27.828-35.499 27.828-58.227v-240.954c0-4.143-3.358-7.5-7.5-7.5s-7.5 3.357-7.5 7.5v240.953c0 18.171-8.11 35.14-22.25 46.555-14.14 11.411-32.438 15.758-50.201 11.927-22.111-4.771-39.438-21.321-45.22-43.191l-3.909-14.787c.976-3.271 1.191-6.746.56-10.202l-6.883-37.721c.786-.743 1.505-1.567 2.135-2.478 2.364-3.42 3.255-7.555 2.509-11.644l-2.03-11.126c7.464-5.475 11.59-14.912 9.82-24.614l-7.181-39.35c-1.196-6.555-4.874-12.252-10.354-16.041-2.333-1.613-4.875-2.793-7.53-3.531l-2.028-11.113c-.746-4.089-3.04-7.643-6.459-10.007-.911-.629-1.875-1.146-2.873-1.564l-6.884-37.722c-.906-4.963-3.435-9.359-7.192-12.618l-6.605-32.772c-.502-2.492-.757-5.046-.757-7.592 0-15.51 9.238-29.415 23.537-35.425l96.471-40.558c12.074-5.074 25.253-3.828 36.159 3.417 10.908 7.247 17.164 18.914 17.164 32.01v37.229c0 4.143 3.358 7.5 7.5 7.5s7.5-3.357 7.5-7.5v-37.227c0-18.207-8.698-34.429-23.863-44.504-15.164-10.074-33.487-11.806-50.273-4.751l-96.471 40.558c-19.879 8.355-32.724 27.688-32.724 49.253 0 2.191.152 4.385.422 6.563l-22.157 4.636c-.551-3.706-.832-7.458-.832-11.199 0-30.672 18.27-58.171 46.547-70.058l1.959-.824c3.818-1.606 5.611-6.004 4.004-9.821-1.606-3.818-6.003-5.611-9.822-4.005l-1.957.823c-33.856 14.231-55.732 47.158-55.732 83.885 0 6.024.604 12.073 1.793 17.98l7.441 36.915c-.622 2.817-.686 5.756-.153 8.679l6.884 37.721c-.786.743-1.506 1.567-2.135 2.478-2.364 3.419-3.255 7.554-2.508 11.644l2.028 11.112c-2.223 1.627-4.184 3.63-5.797 5.963-3.789 5.48-5.217 12.109-4.021 18.665l7.18 39.35c1.77 9.7 8.964 17.064 17.88 19.552l2.031 11.132c.747 4.089 3.04 7.644 6.459 10.007.911.63 1.875 1.148 2.874 1.566l6.883 37.72c.834 4.57 3.055 8.651 6.333 11.815l4.234 16.017c1.291 4.882 2.897 9.617 4.778 14.196.029.077.06.153.091.229 13.993 33.845 43.561 58.835 80.084 66.716 7.862 1.696 15.897 2.557 23.881 2.557 25.473-.002 50.484-8.868 70.425-24.965 26.563-21.442 41.799-53.319 41.799-87.458v-19.088c.003-4.143-3.355-7.5-7.497-7.5zm-196.977 58.319c-.769-2.242-1.466-4.522-2.079-6.841l-1.601-6.056c.695-.061 1.39-.15 2.084-.277l14.822-2.705c1.826-.333 3.564-.908 5.21-1.659l1.303 4.93c.749 2.832 1.661 5.588 2.71 8.269zm12.313-99.252 1.583 8.673c.01.056.042.228-.09.419s-.304.223-.361.233l-41.399 7.555c-.057.01-.229.042-.419-.091-.192-.132-.223-.305-.234-.362l-1.582-8.671zm-2.611 25.255 6.434 35.259c.334 1.83-.065 3.681-1.123 5.212-1.058 1.53-2.648 2.557-4.479 2.891l-14.823 2.705c-1.831.337-3.681-.064-5.211-1.123-1.531-1.058-2.557-2.648-2.892-4.479l-6.434-35.258zm-56.03-105.93-1.583-8.672c-.01-.057-.042-.229.091-.42s.304-.223.362-.233l41.398-7.555c.057-.011.229-.042.42.091.191.132.223.305.233.361l1.583 8.672zm-6.185-81.685-2.779-13.786 22.09-4.622 2.771 13.751c-.662.06-1.326.143-1.988.264l-14.822 2.705c-1.849.338-3.608.922-5.272 1.688zm3.485 15.959c1.058-1.53 2.648-2.557 4.479-2.891l14.824-2.705c1.834-.333 3.681.065 5.211 1.123s2.557 2.648 2.891 4.479l6.434 35.259-28.528 5.206-6.435-35.259c-.333-1.831.066-3.681 1.124-5.212zm-6.672 92.795c-.477-2.613.092-5.257 1.604-7.442 1.51-2.185 3.782-3.65 6.396-4.128l50.637-9.24c.603-.11 1.207-.164 1.807-.164 2.001 0 3.953.604 5.634 1.768 2.186 1.511 3.652 3.782 4.129 6.396l7.18 39.35c.477 2.613-.092 5.256-1.603 7.441-1.511 2.186-3.782 3.651-6.396 4.129l-50.636 9.24c-5.399.981-10.586-2.604-11.571-7.999z"/><path d="m355.386 15.226c-25.447-16.905-57.454-19.929-85.621-8.091l-64.282 27.023c-3.818 1.605-5.612 6.002-4.007 9.82s6.002 5.61 9.821 4.008l64.281-27.023c23.523-9.891 50.254-7.361 71.507 6.757 21.253 14.121 33.942 37.785 33.942 63.301v259.097c0 4.143 3.358 7.5 7.5 7.5s7.5-3.357 7.5-7.5v-259.097c0-30.552-15.192-58.887-40.641-75.795z"/></g></g></svg>