<?xml version="1.0" encoding="UTF-8" standalone="no"?>
<!-- Created with Inkscape (http://www.inkscape.org/) -->

<svg
   version="1.1"
   id="svg6366"
   xml:space="preserve"
   width="682.66669"
   height="682.66669"
   viewBox="0 0 682.66669 682.66669"
   xmlns="http://www.w3.org/2000/svg"
   xmlns:svg="http://www.w3.org/2000/svg"><defs
     id="defs6370"><clipPath
       clipPathUnits="userSpaceOnUse"
       id="clipPath6380"><path
         d="M 0,512 H 512 V 0 H 0 Z"
         id="path6378" /></clipPath></defs><g
     id="g6372"
     transform="matrix(1.3333333,0,0,-1.3333333,0,682.66667)"><g
       id="g6374"><g
         id="g6376"
         clip-path="url(#clipPath6380)"><g
           id="g6382"
           transform="translate(435.8887,66.3906)"><path
             d="m 0,0 c -10,-9.99 -26.21,-9.99 -36.21,0 l -189.08,189.079 -112.849,112.86 -29.13,29.13 36.2,36.21 76.38,-76.38 65.609,-65.61 9.19,-9.189 36.21,-36.21 L 0,36.21 C 9.989,26.21 9.989,10 0,0"
             style="fill:#766e6f;fill-opacity:1;fill-rule:nonzero;stroke:none"
             id="path6384" /></g><g
           id="g6386"
           transform="translate(104.8198,433.6699)"><path
             d="M 0,0 76.379,-76.38 C 47.6,-74.05 19.66,-70.351 -7.07,-65.34 l -29.13,29.13 z"
             style="fill:#5b5555;fill-opacity:1;fill-rule:nonzero;stroke:none"
             id="path6388" /></g><g
           id="g6390"
           transform="translate(301.3984,237.0898)"><path
             d="m 0,0 -36.209,-36.21 -54.59,54.59 36.21,36.21 z"
             style="fill:#5b5555;fill-opacity:1;fill-rule:nonzero;stroke:none"
             id="path6392" /></g><g
           id="g6394"
           transform="translate(435.8887,66.3906)"><path
             d="m 0,0 c -2.62,-2.61 -5.66,-4.54 -8.9,-5.78 3.53,9.16 1.6,19.93 -5.781,27.31 l -331.068,331.069 14.68,14.68 L 0,36.21 C 9.989,26.21 9.989,10 0,0"
             style="fill:#5b5555;fill-opacity:1;fill-rule:nonzero;stroke:none"
             id="path6396" /></g><g
           id="g6398"
           transform="translate(327.4707,211.0127)"><path
             d="m 0,0 -222.652,222.652 -36.203,-36.203 331.066,-331.066 c 9.997,-9.997 26.206,-9.997 36.203,0 9.998,9.997 9.998,26.206 0,36.203 l -84.372,84.372"
             style="fill:none;stroke:#000000;stroke-width:15;stroke-linecap:round;stroke-linejoin:round;stroke-miterlimit:10;stroke-dasharray:none;stroke-opacity:1"
             id="path6400" /></g><g
           id="g6402"
           transform="translate(443.3779,397.46)"><path
             d="m 0,0 -29.129,-29.13 -122.04,-122.05 -179.889,-179.889 c -10,-9.991 -26.21,-9.991 -36.21,0 -9.99,10 -9.99,26.21 0,36.21 l 143.679,143.679 36.21,36.21 74.8,74.8 76.38,76.38 z"
             style="fill:#b9acac;fill-opacity:1;fill-rule:nonzero;stroke:none"
             id="path6404" /></g><g
           id="g6406"
           transform="translate(443.3779,397.46)"><path
             d="m 0,0 -29.129,-29.13 c -26.73,-5.011 -54.67,-8.71 -83.45,-11.04 l 76.38,76.38 z"
             style="fill:#9e9797;fill-opacity:1;fill-rule:nonzero;stroke:none"
             id="path6408" /></g><g
           id="g6410"
           transform="translate(443.3779,397.46)"><path
             d="m 0,0 -331.058,-331.069 c -10,-9.991 -26.21,-9.991 -36.21,0 -2.48,2.48 -4.34,5.349 -5.59,8.41 9.26,-3.78 20.28,-1.92 27.8,5.59 L -14,13.999 Z"
             style="fill:#9e9797;fill-opacity:1;fill-rule:nonzero;stroke:none"
             id="path6412" /></g><g
           id="g6414"
           transform="translate(284.7363,311.2217)"><path
             d="m 0,0 -208.623,-208.623 c -9.998,-9.997 -9.998,-26.206 0,-36.203 9.997,-9.997 26.206,-9.997 36.203,0 L 158.646,86.24 122.443,122.443 24.042,24.042"
             style="fill:none;stroke:#000000;stroke-width:15;stroke-linecap:round;stroke-linejoin:round;stroke-miterlimit:10;stroke-dasharray:none;stroke-opacity:1"
             id="path6416" /></g><g
           id="g6418"
           transform="translate(255.999,367.2793)"><path
             d="m 0,0 c -83.351,0 -162.594,11.037 -229.164,31.915 -14.534,4.56 -22.623,20.039 -18.064,34.573 4.56,14.534 20.039,22.624 34.573,18.064 C -151.358,65.326 -77.824,55.163 0,55.163 c 77.824,0 151.358,10.163 212.655,29.389 14.532,4.552 30.012,-3.53 34.573,-18.064 4.559,-14.534 -3.53,-30.013 -18.064,-34.573 C 162.595,11.037 83.352,0 0,0"
             style="fill:#fdc266;fill-opacity:1;fill-rule:nonzero;stroke:none"
             id="path6420" /></g><g
           id="g6422"
           transform="translate(485.1582,399.1992)"><path
             d="m 0,0 c -6.62,-2.08 -13.37,-4.06 -20.229,-5.93 10.33,7.29 15.269,20.67 11.279,33.38 -3.46,11.03 -12.71,18.63 -23.35,20.51 5.35,1.49 10.62,3.05 15.8,4.67 C -1.97,57.18 13.51,49.101 18.07,34.57 22.63,20.03 14.54,4.55 0,0"
             style="fill:#fea714;fill-opacity:1;fill-rule:nonzero;stroke:none"
             id="path6424" /></g><g
           id="g6426"
           transform="translate(170.9229,426.6475)"><path
             d="m 0,0 c -46.023,4.662 -89.2,13.146 -127.579,25.184 -14.534,4.56 -30.013,-3.53 -34.572,-18.064 -4.559,-14.534 3.529,-30.014 18.063,-34.572 66.57,-20.879 145.813,-31.916 229.164,-31.916 83.352,0 162.595,11.037 229.164,31.916 14.534,4.558 22.622,20.038 18.064,34.572 -4.561,14.534 -20.041,22.616 -34.573,18.064 C 236.435,5.958 162.9,-4.205 85.076,-4.205 c -17.35,0 -34.485,0.509 -51.322,1.507"
             style="fill:none;stroke:#000000;stroke-width:15;stroke-linecap:round;stroke-linejoin:round;stroke-miterlimit:10;stroke-dasharray:none;stroke-opacity:1"
             id="path6428" /></g><g
           id="g6430"
           transform="translate(255.644,247.1396)"><path
             d="M 0,0 0.71,0.711"
             style="fill:none;stroke:#000000;stroke-width:15;stroke-linecap:round;stroke-linejoin:round;stroke-miterlimit:10;stroke-dasharray:none;stroke-opacity:1"
             id="path6432" /></g><g
           id="g6434"
           transform="translate(415.8691,410.1904)"><path
             d="M 0,0 H 1.004"
             style="fill:none;stroke:#000000;stroke-width:15;stroke-linecap:round;stroke-linejoin:round;stroke-miterlimit:10;stroke-dasharray:none;stroke-opacity:1"
             id="path6436" /></g><g
           id="g6438"
           transform="translate(95.125,410.1904)"><path
             d="M 0,0 H 1.004"
             style="fill:none;stroke:#000000;stroke-width:15;stroke-linecap:round;stroke-linejoin:round;stroke-miterlimit:10;stroke-dasharray:none;stroke-opacity:1"
             id="path6440" /></g></g></g></g></svg>
