<?xml version="1.0" encoding="UTF-8"?>
<svg xmlns="http://www.w3.org/2000/svg" xmlns:xlink="http://www.w3.org/1999/xlink" version="1.1" id="Capa_1" x="0px" y="0px" viewBox="0 0 512 512" style="enable-background:new 0 0 512 512;" xml:space="preserve" width="512" height="512">
<g>
	<g>
		<g>
			<g>
				<path style="fill:#FEE97D;" d="M462.775,48.186l-20.871,64.815c-0.638,1.981-0.963,4.049-0.963,6.13v253.83&#10;&#9;&#9;&#9;&#9;&#9;c0,1.632,0.2,3.258,0.595,4.841l21.607,86.617c0.395,1.583,0.595,3.209,0.595,4.841v29.24c0,3.314-2.686,6-6,6H54.262&#10;&#9;&#9;&#9;&#9;&#9;c-3.314,0-6-2.686-6-6v-29.24c0-1.632,0.2-3.258,0.595-4.841l21.607-86.617c0.395-1.583,0.595-3.209,0.595-4.841v-253.83&#10;&#9;&#9;&#9;&#9;&#9;c0-2.081-0.325-4.149-0.963-6.13L49.225,48.186c-0.638-1.981-0.963-4.049-0.963-6.13V13.5c0-3.314,2.686-6,6-6h403.476&#10;&#9;&#9;&#9;&#9;&#9;c3.314,0,6,2.686,6,6v28.556C463.738,44.137,463.413,46.205,462.775,48.186z"/>
				<path style="fill:#FED402;" d="M441.904,113.001l20.871-64.815c0.638-1.981,0.963-4.049,0.963-6.13V13.5c0-3.314-2.686-6-6-6&#10;&#9;&#9;&#9;&#9;&#9;h-27c3.314,0,6,2.686,6,6v28.556c0,2.081-0.325,4.149-0.963,6.13l-20.871,64.815c-0.638,1.981-0.963,4.049-0.963,6.13v253.83&#10;&#9;&#9;&#9;&#9;&#9;c0,1.632,0.2,3.258,0.594,4.841l21.607,86.617c0.395,1.583,0.595,3.209,0.595,4.841v29.24c0,3.313-2.686,6-6,6h27&#10;&#9;&#9;&#9;&#9;&#9;c3.314,0,6-2.687,6-6v-29.24c0-1.632-0.2-3.258-0.595-4.841l-21.607-86.617c-0.395-1.583-0.595-3.209-0.595-4.841v-253.83&#10;&#9;&#9;&#9;&#9;&#9;C440.942,117.05,441.266,114.982,441.904,113.001z"/>
				<path style="fill:#FE9738;" d="M354.782,407.669c-1.291-3.792-6.146-4.858-8.907-1.957l-22.769,23.925&#10;&#9;&#9;&#9;&#9;&#9;c-1.804,1.896-2.406,4.637-1.563,7.115l14.872,43.672h43.143L354.782,407.669z"/>
				<path style="fill:#FD8087;" d="M457.738,7.5H54.262c-3.314,0-6,2.686-6,6v28.556c0,2.081,0.325,4.149,0.963,6.13l20.871,64.815&#10;&#9;&#9;&#9;&#9;&#9;c0.638,1.981,0.963,4.049,0.963,6.13v193.984l369.883-142.984v-51c0-2.081,0.325-4.149,0.963-6.13l20.871-64.815&#10;&#9;&#9;&#9;&#9;&#9;c0.638-1.981,0.963-4.049,0.963-6.13V13.5C463.738,10.186,461.052,7.5,457.738,7.5z"/>
				<path style="fill:#FE646F;" d="M436.738,13.5v28.556c0,2.081-0.325,4.149-0.963,6.13l-20.871,64.815&#10;&#9;&#9;&#9;&#9;&#9;c-0.638,1.981-0.963,4.049-0.963,6.13v61.437l27-10.438v-51c0-2.081,0.325-4.149,0.963-6.13l20.871-64.815&#10;&#9;&#9;&#9;&#9;&#9;c0.638-1.981,0.963-4.049,0.963-6.13V13.5c0-3.314-2.686-6-6-6h-27C434.052,7.5,436.738,10.186,436.738,13.5z"/>
				<path style="fill:#FEF1DA;" d="M463.738,42.056V13.5c0-3.314-2.686-6-6-6H54.262c-3.314,0-6,2.686-6,6v28.556&#10;&#9;&#9;&#9;&#9;&#9;c0,1.123,0.103,2.241,0.29,3.344h414.896C463.636,44.296,463.738,43.179,463.738,42.056z"/>
				<path style="fill:#FAE2C0;" d="M436.738,13.5v28.556c0,1.123-0.103,2.241-0.29,3.344h27c0.187-1.104,0.29-2.221,0.29-3.344V13.5&#10;&#9;&#9;&#9;&#9;&#9;c0-3.314-2.686-6-6-6h-27C434.052,7.5,436.738,10.186,436.738,13.5z"/>
				<path style="fill:#FEF1DA;" d="M48.262,469.26v29.24c0,3.313,2.686,6,6,6h403.476c3.314,0,6-2.687,6-6v-29.24&#10;&#9;&#9;&#9;&#9;&#9;c0-0.891-0.065-1.779-0.183-2.66H48.446C48.327,467.482,48.262,468.37,48.262,469.26z"/>
				<path style="fill:#FAE2C0;" d="M463.738,498.5v-29.24c0-0.891-0.065-1.779-0.183-2.66h-27c0.118,0.881,0.183,1.77,0.183,2.66&#10;&#9;&#9;&#9;&#9;&#9;v29.24c0,3.313-2.686,6-6,6h27C461.052,504.5,463.738,501.814,463.738,498.5z"/>
				<ellipse style="fill:#FEF1DA;" cx="256" cy="131.256" rx="86.848" ry="42.511"/>
				<path style="fill:#FE9738;" d="M344.902,270.905l-80.485-20.343c-2.537-0.641-4.509-2.639-5.117-5.184l-7.67-32.125&#10;&#9;&#9;&#9;&#9;&#9;c-0.93-3.896,2.608-7.387,6.491-6.406l80.485,20.343c2.537,0.641,4.509,2.639,5.117,5.184l7.67,32.125&#10;&#9;&#9;&#9;&#9;&#9;C352.323,268.395,348.785,271.887,344.902,270.905z"/>
				<path style="fill:#FE9738;" d="M239.085,429.564l-49.329-66.771c-1.555-2.105-1.813-4.9-0.668-7.253l14.442-29.703&#10;&#9;&#9;&#9;&#9;&#9;c1.751-3.602,6.701-4.058,9.081-0.837l49.329,66.771c1.555,2.105,1.813,4.9,0.668,7.253l-14.442,29.703&#10;&#9;&#9;&#9;&#9;&#9;C246.415,432.329,241.465,432.785,239.085,429.564z"/>
				<path style="fill:#FE9738;" d="M130.58,377.637c3.387-2.138,3.295-7.107-0.168-9.118l-28.564-16.582&#10;&#9;&#9;&#9;&#9;&#9;c-2.264-1.313-5.07-1.262-7.283,0.135l-23.506,14.833v6.057c0,1.632-0.2,3.258-0.595,4.841l-11.143,44.669&#10;&#9;&#9;&#9;&#9;&#9;c0.36-0.15,0.714-0.321,1.051-0.534L130.58,377.637z"/>
				<path style="fill:#FE9738;" d="M396.727,325.314l-62.361,54.798c-1.966,1.728-4.729,2.22-7.171,1.279l-30.817-11.879&#10;&#9;&#9;&#9;&#9;&#9;c-3.737-1.441-4.61-6.334-1.601-8.978l62.361-54.798c1.966-1.728,4.729-2.22,7.171-1.279l30.817,11.879&#10;&#9;&#9;&#9;&#9;&#9;C398.863,317.776,399.736,322.67,396.727,325.314z"/>
			</g>
		</g>
	</g>
	<g>
		<path style="fill:none;stroke:#000000;stroke-width:15;stroke-linecap:round;stroke-linejoin:round;stroke-miterlimit:10;" d="&#10;&#9;&#9;&#9;M374.85,466.6l-20.07-58.93c-1.29-3.79-6.14-4.86-8.91-1.96l-22.76,23.93c-1.81,1.89-2.41,4.63-1.57,7.11l10.17,29.85"/>
		
			<line style="fill:none;stroke:#000000;stroke-width:15;stroke-linecap:round;stroke-linejoin:round;stroke-miterlimit:10;" x1="440.94" y1="170.13" x2="311.23" y2="220.27"/>
		
			<line style="fill:none;stroke:#000000;stroke-width:15;stroke-linecap:round;stroke-linejoin:round;stroke-miterlimit:10;" x1="258.2" y1="240.77" x2="71.06" y2="313.12"/>
		<path style="fill:none;stroke:#000000;stroke-width:15;stroke-linecap:round;stroke-linejoin:round;stroke-miterlimit:10;" d="&#10;&#9;&#9;&#9;M455.546,433.966l7.597,30.454c0.395,1.583,0.595,3.209,0.595,4.841v29.24c0,3.314-2.686,6-6,6H54.262c-3.314,0-6-2.686-6-6&#10;&#9;&#9;&#9;v-29.24c0-1.632,0.2-3.258,0.595-4.841l21.607-86.617c0.395-1.583,0.595-3.209,0.595-4.841v-253.83&#10;&#9;&#9;&#9;c0-2.081-0.325-4.149-0.963-6.13L49.225,48.186c-0.638-1.981-0.963-4.049-0.963-6.13V13.5c0-3.314,2.686-6,6-6h50.028"/>
		<path style="fill:none;stroke:#000000;stroke-width:15;stroke-linecap:round;stroke-linejoin:round;stroke-miterlimit:10;" d="&#10;&#9;&#9;&#9;M139.29,7.5h318.448c3.314,0,6,2.686,6,6v28.556c0,2.081-0.325,4.149-0.963,6.13l-20.871,64.815&#10;&#9;&#9;&#9;c-0.638,1.981-0.963,4.049-0.963,6.13v253.83c0,1.632,0.2,3.258,0.595,4.841l5.538,22.202"/>
		<path style="fill:none;stroke:#000000;stroke-width:15;stroke-linecap:round;stroke-linejoin:round;stroke-miterlimit:10;" d="&#10;&#9;&#9;&#9;M463.738,469.26c0-0.891-0.065-1.779-0.183-2.66H48.446c-0.118,0.881-0.183,1.77-0.183,2.66"/>
		
			<line style="fill:none;stroke:#000000;stroke-width:15;stroke-linecap:round;stroke-linejoin:round;stroke-miterlimit:10;" x1="463.46" y1="45.4" x2="48.54" y2="45.4"/>
		
			<ellipse style="fill:none;stroke:#000000;stroke-width:15;stroke-linecap:round;stroke-linejoin:round;stroke-miterlimit:10;" cx="256" cy="131.256" rx="86.848" ry="42.511"/>
		<path style="fill:none;stroke:#000000;stroke-width:15;stroke-linecap:round;stroke-linejoin:round;stroke-miterlimit:10;" d="&#10;&#9;&#9;&#9;M344.902,270.905l-80.485-20.343c-2.537-0.641-4.509-2.639-5.117-5.184l-7.67-32.125c-0.93-3.896,2.608-7.387,6.491-6.406&#10;&#9;&#9;&#9;l80.485,20.343c2.537,0.641,4.509,2.639,5.117,5.184l7.67,32.125C352.323,268.395,348.785,271.887,344.902,270.905z"/>
		<path style="fill:none;stroke:#000000;stroke-width:15;stroke-linecap:round;stroke-linejoin:round;stroke-miterlimit:10;" d="&#10;&#9;&#9;&#9;M239.085,429.564l-49.329-66.771c-1.555-2.105-1.813-4.9-0.668-7.253l14.442-29.703c1.751-3.602,6.701-4.058,9.081-0.837&#10;&#9;&#9;&#9;l49.329,66.771c1.555,2.105,1.813,4.9,0.668,7.253l-14.442,29.703C246.415,432.329,241.465,432.785,239.085,429.564z"/>
		<path style="fill:none;stroke:#000000;stroke-width:15;stroke-linecap:round;stroke-linejoin:round;stroke-miterlimit:10;" d="&#10;&#9;&#9;&#9;M59.321,422.471c0.36-0.15,0.714-0.321,1.051-0.534l70.208-44.301c3.387-2.138,3.295-7.107-0.168-9.118l-28.564-16.582&#10;&#9;&#9;&#9;c-2.264-1.313-5.07-1.262-7.283,0.135l-23.506,14.833"/>
		<path style="fill:none;stroke:#000000;stroke-width:15;stroke-linecap:round;stroke-linejoin:round;stroke-miterlimit:10;" d="&#10;&#9;&#9;&#9;M396.727,325.314l-62.361,54.798c-1.966,1.728-4.729,2.22-7.171,1.279l-30.817-11.879c-3.737-1.441-4.61-6.334-1.601-8.978&#10;&#9;&#9;&#9;l62.361-54.798c1.966-1.728,4.729-2.22,7.171-1.279l30.817,11.879C398.863,317.776,399.736,322.67,396.727,325.314z"/>
	</g>
</g>















</svg>
