<?xml version="1.0" encoding="UTF-8" standalone="no"?>
<!-- Created with Inkscape (http://www.inkscape.org/) -->

<svg
   version="1.1"
   id="svg213"
   xml:space="preserve"
   width="682.66669"
   height="682.66669"
   viewBox="0 0 682.66669 682.66669"
   xmlns="http://www.w3.org/2000/svg"
   xmlns:svg="http://www.w3.org/2000/svg"><defs
     id="defs217"><clipPath
       clipPathUnits="userSpaceOnUse"
       id="clipPath227"><path
         d="M 0,512 H 512 V 0 H 0 Z"
         id="path225" /></clipPath></defs><g
     id="g219"
     transform="matrix(1.3333333,0,0,-1.3333333,0,682.66667)"><g
       id="g221"><g
         id="g223"
         clip-path="url(#clipPath227)"><g
           id="g229"
           transform="translate(396.6264,504.501)"><path
             d="m 0,0 h -249.444 c -10.368,0 -18.773,-8.405 -18.773,-18.772 v -135.961 l 14.227,-13.101 261.333,-67.333 11.429,9.196 V -18.772 C 18.772,-8.405 10.368,0 0,0"
             style="fill:#d8694b;fill-opacity:1;fill-rule:nonzero;stroke:none"
             id="path231" /></g><g
           id="g233"
           transform="translate(162.687,485.7285)"><path
             d="M 0,0 C 0,10.368 8.405,18.772 18.772,18.772 H -15.505 C -25.873,18.772 -34.277,10.368 -34.277,0 V -135.96 L -20.051,-149.062 0,-154.228 Z"
             style="fill:#c5573a;fill-opacity:1;fill-rule:nonzero;stroke:none"
             id="path235" /></g><g
           id="g237"
           transform="translate(379.0561,398.5967)"><path
             d="m 0,0 h -84.416 c -5.042,0 -9.129,4.087 -9.129,9.129 v 60.433 c 0,5.042 4.087,9.129 9.129,9.129 H 0 c 5.042,0 9.129,-4.087 9.129,-9.129 V 9.129 C 9.129,4.087 5.042,0 0,0"
             style="fill:#c5573a;fill-opacity:1;fill-rule:nonzero;stroke:none"
             id="path239" /></g><g
           id="g241"
           transform="translate(249.1684,398.5967)"><path
             d="m 0,0 h -84.417 c -5.041,0 -9.129,4.087 -9.129,9.129 v 60.433 c 0,5.042 4.088,9.129 9.129,9.129 H 0 c 5.042,0 9.129,-4.087 9.129,-9.129 V 9.129 C 9.129,4.087 5.042,0 0,0"
             style="fill:#c5573a;fill-opacity:1;fill-rule:nonzero;stroke:none"
             id="path243" /></g><g
           id="g245"
           transform="translate(379.0566,371.3838)"><path
             d="m 0,0 h -84.417 c -5.041,0 -9.129,-4.087 -9.129,-9.13 v -51.482 l 3.626,-4.605 66.833,-16.17 2.376,2.696 H 0 c 5.042,0 9.129,4.087 9.129,9.129 V -9.13 C 9.129,-4.087 5.042,0 0,0"
             style="fill:#c5573a;fill-opacity:1;fill-rule:nonzero;stroke:none"
             id="path247" /></g><g
           id="g249"
           transform="translate(317.7236,407.7266)"><path
             d="m 0,0 v 60.432 c 0,5.042 4.087,9.13 9.129,9.13 h -32.212 c -5.042,0 -9.13,-4.088 -9.13,-9.13 V 0 c 0,-5.042 4.088,-9.13 9.13,-9.13 H 9.129 C 4.087,-9.13 0,-5.042 0,0"
             style="fill:#a94b30;fill-opacity:1;fill-rule:nonzero;stroke:none"
             id="path251" /></g><g
           id="g253"
           transform="translate(317.7236,301.8218)"><path
             d="m 0,0 v 60.432 c 0,5.043 4.087,9.13 9.129,9.13 h -32.212 c -5.042,0 -9.13,-4.087 -9.13,-9.13 V 8.95 L -28.587,4.345 0.398,-2.668 C 0.141,-1.824 0,-0.928 0,0"
             style="fill:#a94b30;fill-opacity:1;fill-rule:nonzero;stroke:none"
             id="path255" /></g><g
           id="g257"
           transform="translate(249.1684,371.3838)"><path
             d="m 0,0 h -84.417 c -5.041,0 -9.129,-4.087 -9.129,-9.13 v -19.241 l 4.347,-6.263 94.25,-23.5 4.078,4.277 V -9.13 C 9.129,-4.087 5.042,0 0,0"
             style="fill:#c5573a;fill-opacity:1;fill-rule:nonzero;stroke:none"
             id="path259" /></g><g
           id="g261"
           transform="translate(190.1225,407.7266)"><path
             d="m 0,0 v 60.432 c 0,5.042 4.087,9.13 9.129,9.13 h -34.5 c -5.042,0 -9.129,-4.088 -9.129,-9.13 V 0 c 0,-5.042 4.087,-9.13 9.129,-9.13 h 34.5 C 4.087,-9.13 0,-5.042 0,0"
             style="fill:#a94b30;fill-opacity:1;fill-rule:nonzero;stroke:none"
             id="path263" /></g><g
           id="g265"
           transform="translate(190.1225,362.2539)"><path
             d="m 0,0 c 0,5.042 4.087,9.13 9.129,9.13 h -34.5 C -30.413,9.13 -34.5,5.042 -34.5,0 v -19.241 l 4.347,-6.263 L 0,-33.022 Z"
             style="fill:#a94b30;fill-opacity:1;fill-rule:nonzero;stroke:none"
             id="path267" /></g><g
           id="g269"
           transform="translate(421.7192,274.8823)"><path
             d="M 0,0 -19.75,-25.382 -300,15.934 -308.005,9.495 v -256.183 c 0,-11.43 9.265,-20.695 20.694,-20.695 h 274.992 c 11.429,0 20.694,9.265 20.694,20.695 L 8.375,0 Z"
             style="fill:#ffc265;fill-opacity:1;fill-rule:nonzero;stroke:none"
             id="path271" /></g><g
           id="g273"
           transform="translate(155.6225,28.1943)"><path
             d="m 0,0 v 256.183 l 1.514,1.217 -35.417,5.222 -8.006,-6.439 V 0 c 0,-11.43 9.266,-20.695 20.695,-20.695 H 20.695 C 9.266,-20.695 0,-11.43 0,0"
             style="fill:#ffb541;fill-opacity:1;fill-rule:nonzero;stroke:none"
             id="path275" /></g><g
           id="g277"
           transform="translate(388.1855,253.9165)"><path
             d="m 0,0 -219.549,36.08 -14.923,-11.402 v -225.197 c 0,-3.257 2.641,-5.898 5.899,-5.898 H -3.99 c 3.258,0 5.899,2.641 5.899,5.898 V -9.495 Z"
             style="fill:#8379c2;fill-opacity:1;fill-rule:nonzero;stroke:none"
             id="path279" /></g><g
           id="g281"
           transform="translate(193.7139,53.3979)"><path
             d="m 0,0 v 225.196 l 7.842,5.993 -32.92,5.41 L -40,225.196 V 0 c 0,-3.258 2.641,-5.899 5.899,-5.899 h 40 C 2.641,-5.899 0,-3.258 0,0"
             style="fill:#6e61b7;fill-opacity:1;fill-rule:nonzero;stroke:none"
             id="path283" /></g><g
           id="g285"
           transform="translate(122.4048,351.2588)"><path
             d="m 0,0 c -5.245,1.302 -10.753,-0.733 -13.892,-5.132 l -23.505,-32.946 c -7.277,-10.2 -1.174,-24.485 11.227,-26.277 l 298.067,-43.09 c 7.027,-1.016 14.045,1.896 18.289,7.588 l 17.504,23.481 z"
             style="fill:#d9edff;fill-opacity:1;fill-rule:nonzero;stroke:none"
             id="path287" /></g><g
           id="g289"
           transform="translate(135.2026,303.8506)"><path
             d="m 0,0 23.505,32.945 c 1.316,1.845 3.052,3.267 5.007,4.209 l -41.31,10.254 c -5.245,1.302 -10.753,-0.733 -13.891,-5.132 L -50.195,9.33 c -7.277,-10.2 -1.174,-24.484 11.227,-26.277 L 3.545,-23.093 C -3.315,-17.912 -5.545,-7.772 0,0"
             style="fill:#b4dbff;fill-opacity:1;fill-rule:nonzero;stroke:none"
             id="path291" /></g><g
           id="g293"
           transform="translate(379.0693,398.5967)"><path
             d="m 0,0 h -84.416 c -5.042,0 -9.129,4.087 -9.129,9.129 v 60.433 c 0,5.042 4.087,9.129 9.129,9.129 H 0 c 5.042,0 9.129,-4.087 9.129,-9.129 V 9.129 C 9.129,4.087 5.042,0 0,0 Z"
             style="fill:none;stroke:#000000;stroke-width:15;stroke-linecap:round;stroke-linejoin:round;stroke-miterlimit:10;stroke-dasharray:none;stroke-opacity:1"
             id="path295" /></g><g
           id="g297"
           transform="translate(249.1816,398.5967)"><path
             d="m 0,0 h -84.417 c -5.041,0 -9.129,4.087 -9.129,9.129 v 60.433 c 0,5.042 4.088,9.129 9.129,9.129 H 0 c 5.042,0 9.129,-4.087 9.129,-9.129 V 9.129 C 9.129,4.087 5.042,0 0,0 Z"
             style="fill:none;stroke:#000000;stroke-width:15;stroke-linecap:round;stroke-linejoin:round;stroke-miterlimit:10;stroke-dasharray:none;stroke-opacity:1"
             id="path299" /></g><g
           id="g301"
           transform="translate(122.418,351.2588)"><path
             d="m 0,0 c -5.245,1.302 -10.753,-0.733 -13.892,-5.132 l -23.505,-32.946 c -7.277,-10.2 -1.174,-24.485 11.227,-26.277 l 298.067,-43.09 c 7.027,-1.016 14.045,1.896 18.289,7.588 l 17.504,23.481 z"
             style="fill:none;stroke:#000000;stroke-width:15;stroke-linecap:round;stroke-linejoin:round;stroke-miterlimit:10;stroke-dasharray:none;stroke-opacity:1"
             id="path303" /></g><g
           id="g305"
           transform="translate(412.6035,251.4019)"><path
             d="m 0,0 c -4.243,-5.692 -11.262,-8.604 -18.288,-7.588 l -280.588,40.563 v -256.183 c 0,-11.429 9.265,-20.694 20.694,-20.694 H -3.19 c 11.429,0 20.694,9.265 20.694,20.694 V 23.48 Z"
             style="fill:none;stroke:#000000;stroke-width:15;stroke-linecap:round;stroke-linejoin:round;stroke-miterlimit:10;stroke-dasharray:none;stroke-opacity:1"
             id="path307" /></g><g
           id="g309"
           transform="translate(246.9663,106.165)"><path
             d="M 0,0 H 49.902"
             style="fill:none;stroke:#000000;stroke-width:15;stroke-linecap:round;stroke-linejoin:round;stroke-miterlimit:10;stroke-dasharray:none;stroke-opacity:1"
             id="path311" /></g><g
           id="g313"
           transform="translate(358.3589,292.6924)"><path
             d="m 0,0 h 20.711 c 5.042,0 9.129,4.087 9.129,9.129 v 60.433 c 0,5.042 -4.087,9.129 -9.129,9.129 h -84.417 c -5.042,0 -9.129,-4.087 -9.129,-9.129 V 18.079 Z"
             style="fill:none;stroke:#000000;stroke-width:15;stroke-linecap:round;stroke-linejoin:round;stroke-miterlimit:10;stroke-dasharray:none;stroke-opacity:1"
             id="path315" /></g><g
           id="g317"
           transform="translate(258.311,317.5264)"><path
             d="m 0,0 v 44.728 c 0,5.042 -4.087,9.129 -9.129,9.129 h -84.417 c -5.042,0 -9.129,-4.087 -9.129,-9.129 V 25.487 Z"
             style="fill:none;stroke:#000000;stroke-width:15;stroke-linecap:round;stroke-linejoin:round;stroke-miterlimit:10;stroke-dasharray:none;stroke-opacity:1"
             id="path319" /></g><g
           id="g321"
           transform="translate(289.4174,47.499)"><path
             d="m 0,0 h 94.792 c 3.257,0 5.898,2.641 5.898,5.899 v 191.024 l -236.38,34.172 V 5.899 c 0,-3.258 2.641,-5.899 5.899,-5.899 L -35,0"
             style="fill:none;stroke:#000000;stroke-width:15;stroke-linecap:round;stroke-linejoin:round;stroke-miterlimit:10;stroke-dasharray:none;stroke-opacity:1"
             id="path323" /></g><g
           id="g325"
           transform="translate(415.4121,398.5967)"><path
             d="m 0,0 v 87.132 c 0,10.368 -8.405,18.772 -18.772,18.772 h -249.445 c -10.367,0 -18.772,-8.404 -18.772,-18.772 V -48.829 L 0,-120.066 V -35"
             style="fill:none;stroke:#000000;stroke-width:15;stroke-linecap:round;stroke-linejoin:round;stroke-miterlimit:10;stroke-dasharray:none;stroke-opacity:1"
             id="path327" /></g></g></g></g></svg>
