<svg id="Capa_1" enable-background="new 0 0 512 512" height="512" viewBox="0 0 512 512" width="512" xmlns="http://www.w3.org/2000/svg"><g><path d="m419.706 404.784c0 27.189-22.041 49.231-49.231 49.231h-228.95c-27.189 0-49.231-22.041-49.231-49.231v-191.718h327.412z" fill="#bcd0df"/><path d="m424.438 180.167h-336.876c-9.085 0-16.449 7.365-16.449 16.449 0 9.085 7.365 16.449 16.449 16.449h336.877c9.085 0 16.449-7.365 16.449-16.449 0-9.084-7.365-16.449-16.45-16.449z" fill="#dae7ef"/><path d="m357.288 117.749h-202.576c-34.472 0-62.418 27.945-62.418 62.418h327.412c0-34.472-27.945-62.418-62.418-62.418z" fill="#bcd0df"/><g fill="#98b9d3"><path d="m379.706 213.066v81.053c0 77.262-62.633 139.896-139.896 139.896h-137.902c8.967 12.132 23.372 20 39.616 20h228.951c27.189 0 49.231-22.041 49.231-49.231v-191.718z"/><path d="m363.346 118.04c.858.938 1.688 1.901 2.488 2.89 12.737 15.739 1.368 39.238-18.879 39.238h-251.388c-2.122 6.279-3.273 13.005-3.273 20h327.412c0-32.43-24.73-59.082-56.36-62.128z"/><path d="m92.294 241.972h-27.439c-10.316 0-20.209-4.098-27.503-11.392l-7.145-7.145c-5.194-5.194-13.616-5.194-18.811 0-5.194 5.194-5.194 13.616 0 18.811l5.407 5.407c13.396 13.396 31.565 20.922 50.51 20.922 13.796 0 24.981 11.184 24.981 24.981z"/></g><path d="m500.604 223.435c-5.194-5.194-13.616-5.194-18.811 0l-7.145 7.145c-7.294 7.294-17.187 11.392-27.503 11.392h-27.439v51.583c0-13.796 11.184-24.981 24.981-24.981 18.945 0 37.114-7.526 50.51-20.922l5.407-5.407c5.195-5.194 5.195-13.616 0-18.81z" fill="#81a7c6"/><path d="m274.44 85.026h-36.88c-7.467 0-13.52-6.053-13.52-13.52 0-7.467 6.053-13.52 13.52-13.52h36.88c7.467 0 13.52 6.053 13.52 13.52 0 7.466-6.053 13.52-13.52 13.52z" fill="#365e7d"/><path d="m273.238 103.065c0 8.11 6.574 14.684 14.684 14.684h-63.845c8.11 0 14.684-6.574 14.684-14.684v-18.039h34.476v18.039z" fill="#98b9d3"/><path d="m491.199 212.039c-5.556 0-10.78 2.164-14.708 6.093l-7.146 7.146c-5.929 5.93-13.813 9.195-22.199 9.195h-19.939v-14.065c11.907-1.376 21.182-11.521 21.182-23.79 0-12.403-9.477-22.633-21.569-23.832-3.7-35.096-33.471-62.536-69.53-62.536h-13.924c-4.142 0-7.5 3.358-7.5 7.5s3.358 7.5 7.5 7.5h13.924c27.738 0 50.739 20.671 54.407 47.418h-311.393c3.668-26.747 26.669-47.418 54.407-47.418h153.653c4.142 0 7.5-3.358 7.5-7.5s-3.358-7.5-7.5-7.5h-20.442c-3.961 0-7.184-3.223-7.184-7.184v-11.505c8.523-2.682 14.722-10.659 14.722-20.056 0-11.59-9.43-21.02-21.02-21.02h-36.88c-11.59 0-21.02 9.43-21.02 21.02 0 9.397 6.199 17.374 14.722 20.056v11.504c0 3.961-3.223 7.184-7.184 7.184h-69.366c-36.06 0-65.831 27.44-69.53 62.536-12.092 1.199-21.569 11.429-21.569 23.832 0 12.27 9.275 22.414 21.182 23.79v14.065h-19.94c-8.386 0-16.27-3.266-22.2-9.195l-7.146-7.146c-3.929-3.929-9.152-6.093-14.708-6.093s-10.78 2.164-14.708 6.093c-3.929 3.929-6.093 9.153-6.093 14.709s2.164 10.78 6.093 14.708l5.407 5.407c14.908 14.908 34.729 23.119 55.813 23.119 9.639 0 17.48 7.842 17.48 17.48v111.229c0 31.281 25.449 56.73 56.73 56.73h228.951c31.281 0 56.73-25.449 56.73-56.73v-36.244c0-4.142-3.358-7.5-7.5-7.5s-7.5 3.358-7.5 7.5v36.244c0 23.01-18.72 41.73-41.73 41.73h-228.95c-23.01 0-41.73-18.72-41.73-41.73v-184.217h30.524c4.142 0 7.5-3.358 7.5-7.5s-3.358-7.5-7.5-7.5h-42.756c-4.935 0-8.949-4.015-8.949-8.949 0-4.935 4.015-8.95 8.949-8.95h336.877c4.935 0 8.949 4.015 8.949 8.95s-4.015 8.949-8.949 8.949h-259.121c-4.142 0-7.5 3.358-7.5 7.5s3.358 7.5 7.5 7.5h246.888v112.975c0 4.142 3.358 7.5 7.5 7.5s7.5-3.358 7.5-7.5c0-48.129 0-38.366 0-39.985 0-9.639 7.842-17.48 17.48-17.48 21.083 0 40.905-8.21 55.813-23.119l5.407-5.407c3.929-3.929 6.093-9.153 6.093-14.709s-2.164-10.78-6.093-14.709c-3.927-3.929-9.151-6.093-14.707-6.093zm-253.639-146.554h36.88c3.319 0 6.02 2.701 6.02 6.02s-2.701 6.02-6.02 6.02h-36.88c-3.319 0-6.02-2.701-6.02-6.02s2.701-6.02 6.02-6.02zm8.702 37.58v-10.54h19.477v10.54c0 2.513.42 4.93 1.194 7.184h-21.865c.773-2.254 1.194-4.671 1.194-7.184zm-178.949 158.01c-17.077 0-33.131-6.65-45.207-18.725l-5.407-5.408c-2.267-2.267-2.267-5.936 0-8.204 2.262-2.262 5.942-2.262 8.204 0l7.145 7.146c8.763 8.763 20.414 13.589 32.807 13.589h19.939v16.719c-5.05-3.239-11.05-5.117-17.481-5.117zm427.988-24.133-5.407 5.407c-12.075 12.075-28.13 18.725-45.207 18.725-6.431 0-12.431 1.879-17.481 5.116v-16.719h19.939c12.393 0 24.044-4.826 32.806-13.589l7.146-7.146c2.262-2.262 5.942-2.262 8.204 0 2.267 2.27 2.267 5.938 0 8.206z"/></g></svg>