<?xml version="1.0" encoding="UTF-8"?>
<svg xmlns="http://www.w3.org/2000/svg" xmlns:xlink="http://www.w3.org/1999/xlink" version="1.1" id="Capa_1" x="0px" y="0px" viewBox="0 0 512 512" style="enable-background:new 0 0 512 512;" xml:space="preserve" width="512" height="512">
<g>
	<g>
		<path style="fill:#FED2A3;" d="M200.804,114.523V58.185c0-1.657-1.343-3-3-3h-32.909c-5.433,0-9.838,4.405-9.838,9.838v3.173&#10;&#9;&#9;&#9;c0,11.026-6.19,21.053-15.941,26.199C69.577,131.097,22.33,204.363,22.967,288.603c0.348,46.044,14.924,88.52,39.447,123.44&#10;&#9;&#9;&#9;c46.239,48.056,105.715,82.233,179.531,82.233c120.162,0,208.235-88.486,208.235-208.658c0-73.607-36.203-130.083-84.568-176.741&#10;&#9;&#9;&#9;c-7.609-5.354-15.576-10.232-23.859-14.592c-0.854-0.449-1.68-0.937-2.475-1.461c-1.662-6.405-4.486-9.181-10.048-11.243&#10;&#9;&#9;&#9;c-2.073-4.074-3.207-8.646-3.207-13.384v-3.173c0-5.433-4.405-9.838-9.838-9.838h-32.909c-1.657,0-3,1.343-3,3v60.569&#10;&#9;&#9;&#9;L200.804,114.523z"/>
		<path style="fill:#FFBC86;" d="M458.12,286.92c0,120.17-97.42,217.58-217.58,217.58c-73.61,0-138.765-36.507-178.125-92.457&#10;&#9;&#9;&#9;c34.64,23.05,76.285,36.437,120.926,36.437c120.62,0,218.75-98.13,218.75-218.76c0-31.395-27.533-65.797-18.607-88.278&#10;&#9;&#9;&#9;l6.655-12.496C432.004,168.593,458.12,224.706,458.12,286.92z"/>
		<circle style="fill:#F3F2F4;" cx="240.54" cy="286.925" r="188.062"/>
		<path style="fill:#E8E5EA;" d="M428.6,286.93c0,103.69-84.36,188.06-188.06,188.06c-38.53,0-74.4-11.65-104.25-31.61&#10;&#9;&#9;&#9;c15.16,3.34,30.9,5.1,47.05,5.1c120.62,0,218.75-98.13,218.75-218.76c0-16.15-1.76-31.89-5.11-47.05&#10;&#9;&#9;&#9;C416.95,212.53,428.6,248.39,428.6,286.93z"/>
		<path style="fill:#796E79;" d="M262.729,27.821c0.3,3.518-0.216,6.889-1.384,9.936c-0.685,1.787-2.453,2.925-4.367,2.925h-32.872&#10;&#9;&#9;&#9;c-1.921,0-3.69-1.147-4.376-2.941c-0.945-2.472-1.462-5.156-1.462-7.959c0-12.763,10.717-23.017,23.649-22.241&#10;&#9;&#9;&#9;C252.828,8.197,261.8,16.93,262.729,27.821z"/>
	</g>
	<g>
		<path style="fill:none;stroke:#000000;stroke-width:15;stroke-linecap:round;stroke-linejoin:round;stroke-miterlimit:10;" d="&#10;&#9;&#9;&#9;M456.85,263.3c0.84,7.76,1.27,15.64,1.27,23.62c0,120.17-97.42,217.58-217.58,217.58c-35.15,0-68.35-8.33-97.74-23.14"/>
		<path style="fill:none;stroke:#000000;stroke-width:15;stroke-linecap:round;stroke-linejoin:round;stroke-miterlimit:10;" d="&#10;&#9;&#9;&#9;M112.87,463.12c-54.48-39.54-89.91-103.73-89.91-176.2c0-83.62,47.18-156.22,116.37-192.64c9.68-5.09,15.73-15.14,15.73-26.08&#10;&#9;&#9;&#9;v-3.18c0-5.43,4.4-9.84,9.83-9.84h35.91"/>
		<path style="fill:none;stroke:#000000;stroke-width:15;stroke-linecap:round;stroke-linejoin:round;stroke-miterlimit:10;" d="&#10;&#9;&#9;&#9;M450.27,228.85c-10.41-37.73-30.74-71.34-58.01-97.86c-14.92-14.53-31.92-26.93-50.51-36.71c-3.03-1.59-5.7-3.67-7.94-6.11&#10;&#9;&#9;&#9;c-4.93-5.36-7.79-12.45-7.79-19.97v-3.18c0-5.43-4.4-9.84-9.83-9.84h-35.91"/>
		<path style="fill:none;stroke:#000000;stroke-width:15;stroke-linecap:round;stroke-linejoin:round;stroke-miterlimit:10;" d="&#10;&#9;&#9;&#9;M152.01,121.03c26.4-14.14,56.54-22.17,88.53-22.17c51.7,0,98.59,20.97,132.62,54.86c34.23,34.07,55.44,81.21,55.44,133.21&#10;&#9;&#9;&#9;c0,103.69-84.36,188.06-188.06,188.06S52.48,390.62,52.48,286.93c0-58.93,27.25-111.62,69.8-146.13"/>
		
			<line style="fill:none;stroke:#000000;stroke-width:15;stroke-linecap:round;stroke-linejoin:round;stroke-miterlimit:10;" x1="280.276" y1="102.096" x2="280.276" y2="55.185"/>
		
			<line style="fill:none;stroke:#000000;stroke-width:15;stroke-linecap:round;stroke-linejoin:round;stroke-miterlimit:10;" x1="200.804" y1="100.866" x2="200.804" y2="55.185"/>
		
			<line style="fill:none;stroke:#000000;stroke-width:15;stroke-linecap:round;stroke-linejoin:round;stroke-miterlimit:10;" x1="201.804" y1="72.011" x2="279.276" y2="72.011"/>
		
			<line style="fill:none;stroke:#000000;stroke-width:15;stroke-linecap:round;stroke-linejoin:round;stroke-miterlimit:10;" x1="240.54" y1="71.013" x2="240.54" y2="41.68"/>
		<path style="fill:none;stroke:#000000;stroke-width:15;stroke-linecap:round;stroke-linejoin:round;stroke-miterlimit:10;" d="&#10;&#9;&#9;&#9;M262.729,27.821c0.3,3.518-0.216,6.889-1.384,9.936c-0.685,1.787-2.453,2.925-4.367,2.925h-32.872&#10;&#9;&#9;&#9;c-1.921,0-3.69-1.147-4.376-2.941c-0.945-2.472-1.462-5.156-1.462-7.959c0-12.763,10.717-23.017,23.649-22.241&#10;&#9;&#9;&#9;C252.828,8.197,261.8,16.93,262.729,27.821z"/>
		<g>
			<path style="fill:none;stroke:#000000;stroke-width:15;stroke-linecap:round;stroke-linejoin:round;stroke-miterlimit:10;" d="&#10;&#9;&#9;&#9;&#9;M424.56,67.861c-6.501,7.86-22.015,50.892-22.015,50.892s39.356-23.315,45.856-31.176c6.501-7.86,9.622-19.902,1.762-26.402&#10;&#9;&#9;&#9;&#9;C442.302,54.675,431.061,60.001,424.56,67.861z"/>
			
				<line style="fill:none;stroke:#000000;stroke-width:15;stroke-linecap:round;stroke-linejoin:round;stroke-miterlimit:10;" x1="402.545" y1="118.753" x2="348.749" y2="182.781"/>
		</g>
		<path style="fill:none;stroke:#000000;stroke-width:15;stroke-linecap:round;stroke-linejoin:round;stroke-miterlimit:10;" d="&#10;&#9;&#9;&#9;M333.806,88.168l24.981-18.821c21.06-15.867,50.589-13.801,69.235,4.844l18.604,18.604c24.873,33.292,3.037,63.786,42.414,92.431"/>
		<g>
			<g>
				
					<line style="fill:none;stroke:#000000;stroke-width:15;stroke-linecap:round;stroke-linejoin:round;stroke-miterlimit:10;" x1="305.579" y1="348.859" x2="286.579" y2="367.859"/>
				
					<line style="fill:none;stroke:#000000;stroke-width:15;stroke-linecap:round;stroke-linejoin:round;stroke-miterlimit:10;" x1="286.579" y1="348.859" x2="305.579" y2="367.859"/>
			</g>
			<g>
				
					<line style="fill:none;stroke:#000000;stroke-width:15;stroke-linecap:round;stroke-linejoin:round;stroke-miterlimit:10;" x1="346.717" y1="307.721" x2="327.717" y2="326.721"/>
				
					<line style="fill:none;stroke:#000000;stroke-width:15;stroke-linecap:round;stroke-linejoin:round;stroke-miterlimit:10;" x1="327.717" y1="307.721" x2="346.717" y2="326.721"/>
			</g>
			<g>
				
					<line style="fill:none;stroke:#000000;stroke-width:15;stroke-linecap:round;stroke-linejoin:round;stroke-miterlimit:10;" x1="374.128" y1="258.352" x2="355.128" y2="277.352"/>
				
					<line style="fill:none;stroke:#000000;stroke-width:15;stroke-linecap:round;stroke-linejoin:round;stroke-miterlimit:10;" x1="355.128" y1="258.352" x2="374.128" y2="277.352"/>
			</g>
			<g>
				
					<line style="fill:none;stroke:#000000;stroke-width:15;stroke-linecap:round;stroke-linejoin:round;stroke-miterlimit:10;" x1="349.211" y1="208.122" x2="330.211" y2="227.122"/>
				
					<line style="fill:none;stroke:#000000;stroke-width:15;stroke-linecap:round;stroke-linejoin:round;stroke-miterlimit:10;" x1="330.211" y1="208.122" x2="349.211" y2="227.122"/>
			</g>
			<g>
				
					<line style="fill:none;stroke:#000000;stroke-width:15;stroke-linecap:round;stroke-linejoin:round;stroke-miterlimit:10;" x1="294.457" y1="201.564" x2="275.457" y2="220.564"/>
				
					<line style="fill:none;stroke:#000000;stroke-width:15;stroke-linecap:round;stroke-linejoin:round;stroke-miterlimit:10;" x1="275.457" y1="201.564" x2="294.457" y2="220.564"/>
			</g>
			<g>
				
					<line style="fill:none;stroke:#000000;stroke-width:15;stroke-linecap:round;stroke-linejoin:round;stroke-miterlimit:10;" x1="250.04" y1="234.63" x2="231.04" y2="253.63"/>
				
					<line style="fill:none;stroke:#000000;stroke-width:15;stroke-linecap:round;stroke-linejoin:round;stroke-miterlimit:10;" x1="231.04" y1="234.63" x2="250.04" y2="253.63"/>
			</g>
			<g>
				
					<line style="fill:none;stroke:#000000;stroke-width:15;stroke-linecap:round;stroke-linejoin:round;stroke-miterlimit:10;" x1="250.04" y1="389.998" x2="231.04" y2="408.998"/>
				
					<line style="fill:none;stroke:#000000;stroke-width:15;stroke-linecap:round;stroke-linejoin:round;stroke-miterlimit:10;" x1="231.04" y1="389.998" x2="250.04" y2="408.998"/>
			</g>
			<g>
				
					<line style="fill:none;stroke:#000000;stroke-width:15;stroke-linecap:round;stroke-linejoin:round;stroke-miterlimit:10;" x1="305.579" y1="348.859" x2="286.579" y2="367.859"/>
				
					<line style="fill:none;stroke:#000000;stroke-width:15;stroke-linecap:round;stroke-linejoin:round;stroke-miterlimit:10;" x1="286.579" y1="348.859" x2="305.579" y2="367.859"/>
			</g>
			<g>
				
					<line style="fill:none;stroke:#000000;stroke-width:15;stroke-linecap:round;stroke-linejoin:round;stroke-miterlimit:10;" x1="175.501" y1="348.859" x2="194.501" y2="367.859"/>
				
					<line style="fill:none;stroke:#000000;stroke-width:15;stroke-linecap:round;stroke-linejoin:round;stroke-miterlimit:10;" x1="194.501" y1="348.859" x2="175.501" y2="367.859"/>
			</g>
			<g>
				
					<line style="fill:none;stroke:#000000;stroke-width:15;stroke-linecap:round;stroke-linejoin:round;stroke-miterlimit:10;" x1="134.363" y1="307.721" x2="153.363" y2="326.721"/>
				
					<line style="fill:none;stroke:#000000;stroke-width:15;stroke-linecap:round;stroke-linejoin:round;stroke-miterlimit:10;" x1="153.363" y1="307.721" x2="134.363" y2="326.721"/>
			</g>
			<g>
				
					<line style="fill:none;stroke:#000000;stroke-width:15;stroke-linecap:round;stroke-linejoin:round;stroke-miterlimit:10;" x1="106.952" y1="258.352" x2="125.952" y2="277.352"/>
				
					<line style="fill:none;stroke:#000000;stroke-width:15;stroke-linecap:round;stroke-linejoin:round;stroke-miterlimit:10;" x1="125.952" y1="258.352" x2="106.952" y2="277.352"/>
			</g>
			<g>
				
					<line style="fill:none;stroke:#000000;stroke-width:15;stroke-linecap:round;stroke-linejoin:round;stroke-miterlimit:10;" x1="131.869" y1="208.122" x2="150.869" y2="227.122"/>
				
					<line style="fill:none;stroke:#000000;stroke-width:15;stroke-linecap:round;stroke-linejoin:round;stroke-miterlimit:10;" x1="150.869" y1="208.122" x2="131.869" y2="227.122"/>
			</g>
			<g>
				
					<line style="fill:none;stroke:#000000;stroke-width:15;stroke-linecap:round;stroke-linejoin:round;stroke-miterlimit:10;" x1="186.623" y1="201.564" x2="205.623" y2="220.564"/>
				
					<line style="fill:none;stroke:#000000;stroke-width:15;stroke-linecap:round;stroke-linejoin:round;stroke-miterlimit:10;" x1="205.623" y1="201.564" x2="186.623" y2="220.564"/>
			</g>
			<g>
				
					<line style="fill:none;stroke:#000000;stroke-width:15;stroke-linecap:round;stroke-linejoin:round;stroke-miterlimit:10;" x1="175.501" y1="348.859" x2="194.501" y2="367.859"/>
				
					<line style="fill:none;stroke:#000000;stroke-width:15;stroke-linecap:round;stroke-linejoin:round;stroke-miterlimit:10;" x1="194.501" y1="348.859" x2="175.501" y2="367.859"/>
			</g>
		</g>
	</g>
</g>















</svg>
