<?xml version="1.0" encoding="UTF-8"?>
<svg xmlns="http://www.w3.org/2000/svg" xmlns:xlink="http://www.w3.org/1999/xlink" version="1.1" id="Capa_1" x="0px" y="0px" viewBox="0 0 512 512" style="enable-background:new 0 0 512 512;" xml:space="preserve" width="512" height="512">
<g>
	<path style="fill:#FED402;" d="M256.921,8.107l39.867,92.873c0.246,0.574,0.951,0.785,1.473,0.442l74.189-48.867&#10;&#9;&#9;c0.689-0.454,1.601,0.073,1.552,0.897l-5.282,88.704c-0.037,0.624,0.499,1.129,1.12,1.055l100.4-11.99&#10;&#9;&#9;c0.875-0.105,1.449,0.89,0.922,1.596l-60.523,80.965c-0.374,0.5-0.205,1.216,0.353,1.496l79.392,39.828&#10;&#9;&#9;c0.737,0.37,0.737,1.422,0,1.792l-79.392,39.827c-0.558,0.28-0.727,0.996-0.353,1.496l60.523,80.965&#10;&#9;&#9;c0.528,0.706-0.047,1.7-0.922,1.596l-100.4-11.99c-0.62-0.074-1.157,0.431-1.12,1.055l5.282,88.704&#10;&#9;&#9;c0.049,0.824-0.863,1.351-1.552,0.897l-74.188-48.867c-0.521-0.343-1.226-0.132-1.473,0.442l-39.867,92.873&#10;&#9;&#9;c-0.347,0.809-1.495,0.809-1.842,0l-39.867-92.873c-0.246-0.574-0.951-0.785-1.473-0.442l-74.189,48.867&#10;&#9;&#9;c-0.689,0.454-1.601-0.073-1.552-0.897l5.282-88.704c0.037-0.624-0.499-1.129-1.12-1.055l-100.4,11.99&#10;&#9;&#9;c-0.875,0.104-1.449-0.89-0.922-1.596l60.523-80.965c0.374-0.5,0.205-1.216-0.353-1.496l-79.392-39.828&#10;&#9;&#9;c-0.737-0.37-0.737-1.422,0-1.792l79.392-39.827c0.558-0.28,0.727-0.996,0.353-1.496L40.84,132.815&#10;&#9;&#9;c-0.528-0.706,0.047-1.7,0.922-1.596l100.4,11.99c0.62,0.074,1.157-0.431,1.12-1.055l-5.282-88.704&#10;&#9;&#9;c-0.049-0.824,0.863-1.351,1.552-0.897l74.188,48.867c0.521,0.343,1.226,0.132,1.473-0.442l39.867-92.873&#10;&#9;&#9;C255.426,7.298,256.574,7.298,256.921,8.107z"/>
	<polygon style="fill:#FD6930;" points="227.354,367.769 169.445,405.912 173.57,336.621 101.448,345.234 144.892,287.117 &#10;&#9;&#9;82.863,256 144.892,224.882 101.449,166.766 173.571,175.379 169.445,106.088 227.353,144.231 256,77.497 284.647,144.231 &#10;&#9;&#9;342.556,106.088 338.43,175.379 410.552,166.766 367.107,224.882 429.137,256 367.107,287.117 410.551,345.234 338.43,336.621 &#10;&#9;&#9;342.555,405.912 284.647,367.769 256,434.502 &#9;"/>
	<path style="fill:#FD5426;" d="M299.465,137.956c-0.54,9.077,7.264,16.431,16.292,15.353l21.004-2.508&#10;&#9;&#9;c1.079-0.129,2.126-0.143,3.134-0.054l2.659-44.658l-42.874,28.24L299.465,137.956z"/>
	<path style="fill:#FD5426;" d="M367.107,287.117L429.137,256l-62.03-31.117l43.444-58.117l-60.34,7.206&#10;&#9;&#9;c-0.012,0.016-0.023,0.032-0.035,0.048l-12.635,16.903c-5.439,7.276-2.977,17.701,5.143,21.774l20.459,10.263&#10;&#9;&#9;c10.729,5.382,10.729,20.697,0,26.079l-20.459,10.263c-8.12,4.073-10.582,14.498-5.143,21.774l12.635,16.903&#10;&#9;&#9;c7.678,10.272-0.681,24.74-13.414,23.22l-21.004-2.508c-9.028-1.078-16.833,6.276-16.292,15.352l1.357,22.802&#10;&#9;&#9;c0.432,7.262-4.266,12.938-10.267,14.817l51.999,34.251l-4.125-69.291l72.121,8.613L367.107,287.117z"/>
	<path style="fill:#FD5426;" d="M278.235,369.894L259.2,357.355c-7.587-4.997-17.846-1.92-21.43,6.428l-6.064,14.126L256,434.502&#10;&#9;&#9;l26.862-62.577C281.287,371.541,279.725,370.875,278.235,369.894z"/>
	<path style="fill:#FED402;" d="M256,283.611L256,283.611c-7.887,0-14.54-5.873-15.518-13.699l-9.896-79.167&#10;&#9;&#9;c-1.167-9.334,6.111-17.578,15.518-17.578h19.792c9.407,0,16.685,8.244,15.518,17.578l-9.896,79.167&#10;&#9;&#9;C270.54,277.738,263.887,283.611,256,283.611z"/>
	<circle style="fill:#FED402;" cx="256" cy="331.931" r="20.708"/>
	<path style="fill:none;stroke:#000000;stroke-width:15;stroke-linecap:round;stroke-linejoin:round;stroke-miterlimit:10;" d="&#10;&#9;&#9;M183.51,81.51l30.229,19.912c0.521,0.343,1.226,0.132,1.473-0.442l39.867-92.873c0.347-0.809,1.495-0.809,1.842,0l39.867,92.873&#10;&#9;&#9;c0.246,0.574,0.951,0.785,1.473,0.442l74.189-48.867c0.689-0.454,1.601,0.073,1.552,0.897l-5.282,88.704&#10;&#9;&#9;c-0.037,0.624,0.499,1.129,1.12,1.055l100.4-11.99c0.875-0.105,1.449,0.89,0.922,1.596l-60.523,80.965&#10;&#9;&#9;c-0.374,0.5-0.205,1.216,0.353,1.496l79.392,39.828c0.737,0.37,0.737,1.422,0,1.792l-79.392,39.827&#10;&#9;&#9;c-0.558,0.28-0.727,0.996-0.353,1.496l60.523,80.965c0.528,0.706-0.047,1.7-0.922,1.596l-100.4-11.99&#10;&#9;&#9;c-0.62-0.074-1.157,0.431-1.12,1.055l5.282,88.704c0.049,0.824-0.863,1.351-1.552,0.897l-74.188-48.867&#10;&#9;&#9;c-0.521-0.343-1.226-0.132-1.473,0.442l-39.867,92.873c-0.347,0.809-1.495,0.809-1.842,0l-39.867-92.873&#10;&#9;&#9;c-0.246-0.574-0.951-0.785-1.473-0.442l-74.189,48.867c-0.689,0.454-1.601-0.073-1.552-0.897l5.282-88.704&#10;&#9;&#9;c0.037-0.624-0.499-1.129-1.12-1.055l-100.4,11.99c-0.875,0.104-1.449-0.89-0.922-1.596l60.523-80.965&#10;&#9;&#9;c0.374-0.5,0.205-1.216-0.353-1.496l-79.392-39.828c-0.737-0.37-0.737-1.422,0-1.792l79.392-39.827&#10;&#9;&#9;c0.558-0.28,0.727-0.996,0.353-1.496L40.84,132.815c-0.528-0.706,0.047-1.7,0.922-1.596l100.4,11.99&#10;&#9;&#9;c0.62,0.074,1.157-0.431,1.12-1.055l-5.282-88.704c-0.049-0.824,0.863-1.351,1.552-0.897l15.188,10.004"/>
	
		<polyline style="fill:none;stroke:#000000;stroke-width:15;stroke-linecap:round;stroke-linejoin:round;stroke-miterlimit:10;" points="&#10;&#9;&#9;386.585,169.628 410.552,166.766 367.107,224.882 429.137,256 367.107,287.117 410.551,345.234 338.43,336.621 342.555,405.912 &#10;&#9;&#9;284.647,367.769 256,434.502 227.354,367.769 169.445,405.912 173.57,336.621 101.448,345.234 144.892,287.117 82.863,256 &#10;&#9;&#9;144.892,224.882 101.449,166.766 173.571,175.379 169.445,106.088 227.353,144.231 256,77.497 284.647,144.231 342.556,106.088 &#10;&#9;&#9;338.43,175.379 350.036,173.993 &#9;"/>
	<path style="fill:none;stroke:#000000;stroke-width:15;stroke-linecap:round;stroke-linejoin:round;stroke-miterlimit:10;" d="&#10;&#9;&#9;M234.398,221.236l-3.811-30.491c-1.167-9.334,6.111-17.578,15.518-17.578h19.792c9.407,0,16.685,8.244,15.518,17.578l-9.896,79.167&#10;&#9;&#9;c-0.978,7.826-7.631,13.699-15.518,13.699h0c-7.887,0-14.54-5.873-15.518-13.699l-1.666-13.325"/>
	
		<circle style="fill:none;stroke:#000000;stroke-width:15;stroke-linecap:round;stroke-linejoin:round;stroke-miterlimit:10;" cx="256" cy="331.931" r="20.708"/>
</g>















</svg>
