<svg version="1.1" id="Capa_1" xmlns="http://www.w3.org/2000/svg" xmlns:xlink="http://www.w3.org/1999/xlink" x="0px" y="0px" viewBox="0 0 515.662 515.662" style="enable-background:new 0 0 515.662 515.662;" xml:space="preserve">
<g>
	<g>
		<path style="fill:#7CA1B1;" d="M203.341,80.034h24.748v-41h-24.748c-29.202,0-57.378,12.245-77.301,33.596&#10;&#9;&#9;&#9;s-30.191,50.305-28.174,79.438l17.078,246.525c1.089,15.726,8.969,30.199,21.587,39.649l7.482,5.603&#10;&#9;&#9;&#9;c6.269,4.695,15.155-0.143,14.613-7.956l-19.858-286.654c-1.254-18.098,4.872-35.369,17.248-48.633&#10;&#9;&#9;&#9;C168.394,87.338,185.2,80.034,203.341,80.034z"/>
		<path style="fill:#FE6C55;" d="M269.654,99.451v-21.24h-60.081v21.24c0,9.143-4.57,17.681-12.177,22.753l-47.999,32&#10;&#9;&#9;&#9;c-5.715,3.81-9.147,10.223-9.147,17.091V487.62c0,11.345,9.197,20.541,20.541,20.541h157.645c11.345,0,20.541-9.197,20.541-20.541&#10;&#9;&#9;&#9;V171.296c0-6.868-3.432-13.282-9.147-17.091l-47.999-32C274.223,117.133,269.654,108.595,269.654,99.451z"/>
		<g>
			<path style="fill:#FD544C;" d="M329.83,154.204l-20.885-13.923c0.017,0.337,0.032,0.675,0.032,1.015V457.62&#10;&#9;&#9;&#9;&#9;c0,11.345-9.197,20.541-20.542,20.541H140.25v9.459c0,11.345,9.197,20.541,20.541,20.541h157.645&#10;&#9;&#9;&#9;&#9;c11.345,0,20.542-9.197,20.542-20.541V171.296C338.978,164.428,335.545,158.014,329.83,154.204z"/>
		</g>
		<path style="fill:#537983;" d="M140.25,483.165L140.25,483.165c-13.976,0-25.305-11.329-25.305-25.305v-59.267h25.305V483.165z"/>
		<path style="fill:#FD544C;" d="M239.614,21.792v-3.771c0-5.811,4.71-10.521,10.521-10.521h160.969&#10;&#9;&#9;&#9;c3.834,0,6.941,3.108,6.941,6.941v0c0,11.387-8.487,20.988-19.788,22.385L239.614,56.437V21.792"/>
		<path style="fill:#FD544C;" d="M398.287,91.24L243.659,50.71l-5.108,38.075c-0.773,5.759,3.27,11.054,9.029,11.827l159.54,21.402&#10;&#9;&#9;&#9;c3.8,0.51,7.293-2.157,7.803-5.957v0C416.437,104.771,409.301,94.127,398.287,91.24z"/>
		<circle style="fill:#CBE5E8;" cx="239.614" cy="63.428" r="40.046"/>
		<rect x="140.25" y="266.748" style="fill:#F9F3F1;" width="198.728" height="119.699"/>
		<rect x="308.978" y="266.748" style="fill:#EBE5E3;" width="30" height="119.699"/>
		<path style="fill:#FDD602;" d="M283.077,231.037H196.15c-3.453,0-6.252-2.799-6.252-6.252v-29.82c0-3.453,2.799-6.252,6.252-6.252&#10;&#9;&#9;&#9;h86.927c3.453,0,6.252,2.799,6.252,6.252v29.82C289.33,228.237,286.531,231.037,283.077,231.037z"/>
	</g>
	<g>
		<path style="fill:none;stroke:#000000;stroke-width:15;stroke-linecap:round;stroke-linejoin:round;stroke-miterlimit:10;" d="&#10;&#9;&#9;&#9;M203.341,80.034c-18.141,0-34.947,7.304-47.324,20.568c-12.376,13.264-18.502,30.535-17.248,48.633l1.621,23.393"/>
		<path style="fill:none;stroke:#000000;stroke-width:15;stroke-linecap:round;stroke-linejoin:round;stroke-miterlimit:10;" d="&#10;&#9;&#9;&#9;M114.945,398.593L97.867,152.068c-2.018-29.133,8.251-58.087,28.174-79.438s48.099-33.596,77.301-33.596"/>
		<path style="fill:none;stroke:#000000;stroke-width:15;stroke-linecap:round;stroke-linejoin:round;stroke-miterlimit:10;" d="&#10;&#9;&#9;&#9;M209.573,94.119v5.332c0,9.143-4.57,17.681-12.177,22.753l-47.999,32c-5.715,3.81-9.147,10.223-9.147,17.091V487.62&#10;&#9;&#9;&#9;c0,11.345,9.197,20.541,20.541,20.541h157.645c11.345,0,20.541-9.197,20.541-20.541V171.296c0-6.868-3.432-13.282-9.147-17.091&#10;&#9;&#9;&#9;l-47.999-32c-5.706-3.804-9.702-9.557-11.344-16.054"/>
		<path style="fill:none;stroke:#000000;stroke-width:15;stroke-linecap:round;stroke-linejoin:round;stroke-miterlimit:10;" d="&#10;&#9;&#9;&#9;M140.25,483.165L140.25,483.165c-13.976,0-25.305-11.329-25.305-25.305v-59.267h25.305V483.165z"/>
		<path style="fill:none;stroke:#000000;stroke-width:15;stroke-linecap:round;stroke-linejoin:round;stroke-miterlimit:10;" d="&#10;&#9;&#9;&#9;M239.614,23.381v-5.36c0-5.811,4.71-10.521,10.521-10.521h160.969c3.834,0,6.941,3.108,6.941,6.941v0&#10;&#9;&#9;&#9;c0,11.387-8.487,20.988-19.788,22.385l-74.28,9.182"/>
		<path style="fill:none;stroke:#000000;stroke-width:15;stroke-linecap:round;stroke-linejoin:round;stroke-miterlimit:10;" d="&#10;&#9;&#9;&#9;M255.866,101.723l151.254,20.291c3.8,0.51,7.293-2.157,7.803-5.957v0c1.514-11.286-5.621-21.93-16.636-24.817l-116.2-30.457"/>
		
			<circle style="fill:none;stroke:#000000;stroke-width:15;stroke-linecap:round;stroke-linejoin:round;stroke-miterlimit:10;" cx="239.614" cy="63.428" r="40.046"/>
		
			<line style="fill:none;stroke:#000000;stroke-width:15;stroke-linecap:round;stroke-linejoin:round;stroke-miterlimit:10;" x1="239.614" y1="63.428" x2="239.614" y2="63.428"/>
		
			<polyline style="fill:none;stroke:#000000;stroke-width:15;stroke-linecap:round;stroke-linejoin:round;stroke-miterlimit:10;" points="&#10;&#9;&#9;&#9;238.341,266.748 338.977,266.748 338.977,386.447 140.25,386.447 140.25,266.748 203.341,266.748 &#9;&#9;"/>
		
			<line style="fill:none;stroke:#000000;stroke-width:15;stroke-linecap:round;stroke-linejoin:round;stroke-miterlimit:10;" x1="185.228" y1="308.846" x2="294" y2="308.846"/>
		
			<line style="fill:none;stroke:#000000;stroke-width:15;stroke-linecap:round;stroke-linejoin:round;stroke-miterlimit:10;" x1="206.697" y1="339.598" x2="272.531" y2="339.598"/>
		<path style="fill:none;stroke:#000000;stroke-width:15;stroke-linecap:round;stroke-linejoin:round;stroke-miterlimit:10;" d="&#10;&#9;&#9;&#9;M283.077,231.037H196.15c-3.453,0-6.252-2.799-6.252-6.252v-29.82c0-3.453,2.799-6.252,6.252-6.252h86.927&#10;&#9;&#9;&#9;c3.453,0,6.252,2.799,6.252,6.252v29.82C289.33,228.237,286.531,231.037,283.077,231.037z"/>
	</g>
</g>
<g>
</g>
<g>
</g>
<g>
</g>
<g>
</g>
<g>
</g>
<g>
</g>
<g>
</g>
<g>
</g>
<g>
</g>
<g>
</g>
<g>
</g>
<g>
</g>
<g>
</g>
<g>
</g>
<g>
</g>
</svg>