<svg id="Capa_1" enable-background="new 0 0 511.03 511.03" height="512" viewBox="0 0 511.03 511.03" width="512" xmlns="http://www.w3.org/2000/svg"><g><g><path d="m211.392 46.652h86.773v118.269h-86.773z" fill="#b5adb6"/><path d="m240.019 46.652h-28.627v118.268h28.627v-50.535c0-7.501 6.081-13.582 13.582-13.582h43.565c.389-.389.611-.611 1-1v-53.151z" fill="#a79ba7"/><path d="m410.932 262.874-2.447-15.627-10.213-18.095c-8.19-14.47-19.498-27.213-33.401-37.163l-53.583-38.345v-16.397c0-4.554-3.692-8.247-8.247-8.247h-97.523c-4.555 0-8.247 3.692-8.247 8.247v16.397l-53.583 38.345c-13.545 9.693-24.629 22.037-32.764 36.047l-11.801 16.032-1.216 17.474c-1.752 8.033-2.667 16.304-2.667 24.693v165.82c0 28.429 23.046 51.475 51.475 51.475h215.13c28.429 0 51.475-23.046 51.475-51.475v-2.417-37.738-125.665c-.001-7.926-.82-15.746-2.388-23.361z" fill="#c1e9af"/><path d="m134.584 455.838v-163.215c0-8.257 2.743-25.382 2.743-25.382.744-10.526 12.941-31.903 12.941-31.903 8.136-13.79 19.219-25.939 32.764-35.48l40.249-28.35c8.36-5.889 13.334-15.475 13.334-25.701v-8.688c0-4.483 3.692-8.117 8.247-8.117h-39.345c-4.555 0-8.247 3.692-8.247 8.247v16.396l-53.583 38.345c-13.545 9.693-24.629 22.037-32.764 36.047l-11.801 16.032-1.216 17.474c-1.752 8.033-2.667 16.304-2.667 24.693v165.82c0 28.429 23.046 51.475 51.475 51.475h21.95c-19.867-7.022-34.08-25.721-34.08-47.693z" fill="#97da7b"/><g><path d="m297.166 85.803h-85.773c-10.916 0-19.766-8.849-19.766-19.766v-38.771c0-10.916 8.849-19.766 19.766-19.766h85.773c10.916 0 19.766 8.849 19.766 19.766v38.772c-.001 10.916-8.85 19.765-19.766 19.765z" fill="#d7d0d6"/><path d="m231.158 70.208c-10.916 0-19.766-8.85-19.766-19.766v-32.493c0-3.842 1.114-7.415 3.01-10.449h-3.01c-10.916 0-19.766 8.849-19.766 19.766v38.772c0 10.916 8.849 19.766 19.766 19.766h85.773c9.485 0 17.401-6.684 19.316-15.596z" fill="#c9bfc8"/><path d="m89.548 257.2 313.548 190.616c8.351 5.077 19.237 2.423 24.314-5.928 5.077-8.351 2.423-19.237-5.928-24.314l-313.548-190.616c-8.351-5.077-19.237-2.423-24.314 5.928-5.077 8.352-2.423 19.237 5.928 24.314z" fill="#baafb9"/><path d="m107.941 447.101 313.535-190.637c8.351-5.077 11.004-15.963 5.927-24.314-5.077-8.351-15.963-11.004-24.314-5.927l-313.535 190.637c-8.351 5.077-11.004 15.963-5.927 24.314 5.078 8.351 15.963 11.004 24.314 5.927z" fill="#b5adb6"/></g></g><path d="m436.762 426.014c-1.594-6.539-5.639-12.065-11.389-15.562l-4.554-2.769v-121.448c0-6.549-.538-13.128-1.587-19.629l6.141-3.734c11.87-7.219 15.656-22.748 8.438-34.619-6.892-11.337-21.365-15.292-32.993-9.339-8.385-12.914-18.978-24.004-31.583-33.024l-4.825-3.453 37.54-49.509c10.712-14.128 12.467-32.768 4.58-48.646s-23.8-25.744-41.53-25.744h-40.568v-31.272c-.001-15.035-12.232-27.266-27.266-27.266h-85.773c-15.034 0-27.266 12.231-27.266 27.266v38.772c0 12.433 8.368 22.941 19.766 26.208v29.339c-7.922.816-14.122 7.528-14.122 15.662v12.542l-50.448 36.101c-12.307 8.808-22.708 19.602-31.008 32.145-11.265-4.631-24.574-.51-31.096 10.218-7.218 11.87-3.433 27.4 8.438 34.619l3.898 2.37c-1.199 6.941-1.816 13.979-1.816 20.993v34.182c0 4.143 3.358 7.5 7.5 7.5s7.5-3.357 7.5-7.5v-34.182c0-4.176.256-8.361.745-12.524l103.534 62.95-104.278 63.405v-47.653c0-4.143-3.358-7.5-7.5-7.5s-7.5 3.357-7.5 7.5v56.773l-2.082 1.266c-5.751 3.496-9.796 9.022-11.39 15.562-1.594 6.538-.546 13.307 2.95 19.057 2.568 4.223 6.233 7.521 10.588 9.609 1.379 31.305 27.269 56.351 58.908 56.351h215.13c31.282 0 56.942-24.486 58.848-55.297 5.468-1.925 10.067-5.644 13.119-10.663 3.497-5.752 4.545-12.519 2.951-19.057zm-43.666-335.06c5.417 10.905 4.259 23.208-3.098 32.911l-37.791 49.84-33.42-23.916v-12.542c0-7.786-5.687-14.253-13.122-15.509v-29.798c8.537-2.809 15.221-9.725 17.708-18.402h41.627c12.176 0 22.679 6.511 28.096 17.416zm-102.43 2.35v28.197h-71.773v-28.197zm-91.539-27.266v-38.772c0-6.764 5.502-12.266 12.266-12.266h85.773c6.763 0 12.266 5.502 12.266 12.266v38.772c0 6.764-5.502 12.266-12.266 12.266h-85.773c-6.764 0-12.266-5.502-12.266-12.266zm-51.075 132.051 53.583-38.345c1.968-1.408 3.135-3.68 3.135-6.1v-16.397c0-.411.335-.746.747-.746h97.522c.412 0 .747.335.747.746v16.397c0 2.42 1.167 4.691 3.135 6.1l53.583 38.345c10.924 7.817 20.127 17.407 27.447 28.56l-132.437 80.525-134.198-81.596c7.209-10.7 16.172-19.93 26.736-27.489zm-54.601 51.967c-4.804-2.921-6.336-9.206-3.415-14.01 2.92-4.804 9.204-6.335 14.009-3.415l137.035 83.321-19.625 11.933zm268.393 245.974h-215.13c-22.64 0-41.332-17.199-43.713-39.216 3.087-.53 6.08-1.629 8.836-3.305l52.183-31.729c3.539-2.151 4.664-6.766 2.512-10.305-2.151-3.539-6.764-4.664-10.305-2.512l-52.183 31.729c-2.327 1.415-5.066 1.838-7.712 1.194-2.646-.646-4.882-2.282-6.297-4.609s-1.839-5.065-1.194-7.712c.645-2.646 2.282-4.882 4.609-6.297l313.535-190.638c4.804-2.92 11.089-1.388 14.009 3.415 2.921 4.804 1.389 11.089-3.415 14.01l-233.966 142.258c-3.539 2.151-4.664 6.766-2.512 10.305 2.151 3.539 6.764 4.665 10.305 2.512l64.109-38.98 143.677 87.359c2.031 1.235 4.189 2.161 6.419 2.776-2.136 22.271-20.947 39.745-43.767 39.745zm59.151-58.753c-1.415 2.327-3.652 3.964-6.298 4.609-2.646.644-5.384.221-7.711-1.194l-137.034-83.32 19.626-11.933 31.579 19.201c1.217.74 2.562 1.093 3.889 1.093 2.532 0 5.004-1.282 6.416-3.604 2.152-3.539 1.027-8.153-2.512-10.305l-24.937-15.162 101.227-61.548c.384 3.702.579 7.418.579 11.122v112.327l-49.551-30.129c-3.539-2.151-8.153-1.028-10.305 2.512-2.152 3.539-1.027 8.153 2.512 10.305l69.105 42.019c2.327 1.415 3.964 3.651 4.608 6.297.645 2.645.221 5.383-1.193 7.71z"/></g></svg>