<?xml version="1.0" encoding="iso-8859-1"?>
<!-- Generator: Adobe Illustrator 19.0.0, SVG Export Plug-In . SVG Version: 6.00 Build 0)  -->
<svg version="1.1" id="Capa_1" xmlns="http://www.w3.org/2000/svg" xmlns:xlink="http://www.w3.org/1999/xlink" x="0px" y="0px"
	 viewBox="0 0 512 512" style="enable-background:new 0 0 512 512;" xml:space="preserve">
<path style="fill:#45748C;" d="M17.545,494.454L17.545,494.454c-10.462-10.462-10.462-27.425,0-37.888l18.944-18.944l37.888,37.888
	l-18.944,18.944C44.971,504.917,28.008,504.917,17.545,494.454z"/>
<path style="fill:#7D8FD8;" d="M418.327,237.914L274.085,93.672c-2.995-2.995-7.851-2.995-10.846,0l-27.924,27.924L203.643,227.66
	L11.369,419.933c-5.167,5.167-5.167,13.544,0,18.711l61.987,61.987c5.167,5.167,13.544,5.167,18.711,0l192.274-192.274
	l106.063-31.672l27.924-27.924C421.322,245.764,421.322,240.91,418.327,237.914z"/>
<path style="fill:#FF6D3A;" d="M73.356,500.631l-61.987-61.987c-5.167-5.167-5.167-13.544,0-18.711l192.274-192.274l80.697,80.697
	L92.067,500.631C86.9,505.797,78.523,505.797,73.356,500.631z"/>
<path style="fill:#45748C;" d="M418.327,237.914L274.085,93.672c-2.995-2.995-7.851-2.995-10.846,0l-27.924,27.924l155.088,155.088
	l27.924-27.924C421.322,245.766,421.322,240.91,418.327,237.914z"/>
<path style="fill:#7D8FD8;" d="M35.153,396.148l-23.784,23.784c-5.167,5.167-5.167,13.544,0,18.711l61.987,61.987
	c5.167,5.167,13.544,5.167,18.711,0l23.784-23.784L35.153,396.148z"/>
<polygon style="fill:#6C7BC1;" points="361.576,247.856 255.513,279.529 255.513,279.529 284.341,308.357 390.403,276.684 
	390.403,276.684 "/>
<rect x="165.298" y="259.045" transform="matrix(0.7071 0.7071 -0.7071 0.7071 321.8016 -20.5294)" style="fill:#ED5729;" width="40.768" height="238.278"/>
<path style="fill:#2D5872;" d="M420.573,243.337c0-1.963-0.749-3.925-2.246-5.423l-28.825-28.825
	c2.992,2.995,2.991,7.849-0.003,10.843l-27.924,27.924l28.828,28.827l27.924-27.924c1.231-1.231,1.948-2.778,2.167-4.379
	c0.042-0.31,0.07-0.621,0.074-0.933C420.569,243.41,420.573,243.373,420.573,243.337z"/>
<path style="fill:#6C7BC1;" d="M44.529,471.803l28.828,28.828c0.646,0.646,1.342,1.211,2.075,1.695
	c5.135,3.391,12.114,2.825,16.635-1.696l23.784-23.784l-28.828-28.827l-23.784,23.784C58.072,476.97,49.695,476.97,44.529,471.803z"
	/>
<circle style="fill:#FFBF14;" cx="198.38" cy="313.85" r="25.778"/>
<path d="M418.641,100.861c1.92,0,3.841-0.733,5.307-2.198l49.197-49.197c2.93-2.931,2.93-7.682,0-10.614
	c-2.931-2.929-7.682-2.929-10.614,0l-49.197,49.197c-2.93,2.931-2.93,7.682,0,10.614C414.8,100.129,416.721,100.861,418.641,100.861
	z"/>
<path d="M331.436,95.365c1.466,1.465,3.387,2.198,5.307,2.198s3.841-0.733,5.307-2.198c2.93-2.931,2.93-7.682,0-10.614
	l-45.898-45.898c-2.931-2.929-7.682-2.929-10.614,0c-2.93,2.931-2.93,7.682,0,10.614L331.436,95.365z"/>
<path d="M379.342,83.258c4.145,0,7.504-3.359,7.504-7.504V7.505c0-4.145-3.359-7.504-7.504-7.504s-7.504,3.359-7.504,7.504v68.25
	C371.837,79.899,375.197,83.258,379.342,83.258z"/>
<path d="M427.385,170.087c-2.931-2.929-7.682-2.929-10.614,0c-2.93,2.931-2.93,7.682,0,10.614l45.76,45.76
	c1.466,1.465,3.387,2.198,5.307,2.198s3.841-0.733,5.307-2.198c2.93-2.931,2.93-7.682,0-10.614L427.385,170.087z"/>
<path d="M504.496,125.153h-68.253c-4.145,0-7.504,3.359-7.504,7.504s3.359,7.504,7.504,7.504h68.253
	c4.145,0,7.504-3.359,7.504-7.504C512,128.514,508.641,125.153,504.496,125.153z"/>
<path d="M279.392,88.365c-5.918-5.917-15.543-5.913-21.459,0l-27.924,27.924c-0.014,0.014-0.026,0.031-0.04,0.045
	c-0.19,0.193-0.366,0.394-0.53,0.601c-0.05,0.063-0.095,0.13-0.143,0.195c-0.128,0.172-0.249,0.347-0.36,0.527
	c-0.043,0.069-0.083,0.139-0.124,0.21c-0.112,0.194-0.213,0.392-0.306,0.593c-0.027,0.059-0.057,0.118-0.082,0.178
	c-0.119,0.278-0.225,0.559-0.309,0.846l-31.119,104.21L6.062,414.627C2.021,418.669,0,423.979,0,429.289s2.021,10.62,6.062,14.662
	l6.743,6.743l-0.566,0.566c-13.371,13.372-13.371,35.129,0,48.501c6.687,6.686,15.468,10.028,24.251,10.028
	s17.564-3.343,24.251-10.028l0.567-0.567l6.743,6.743c0.505,0.505,1.03,0.979,1.573,1.421C73.42,510.453,78.065,512,82.711,512l0,0
	l0,0c1.88,0,3.758-0.267,5.582-0.774c3.327-0.924,6.469-2.678,9.08-5.289l39.188-39.188c2.93-2.931,2.93-7.682,0-10.614
	c-2.931-2.929-7.682-2.929-10.614,0l-10.097,10.097l-70.084-70.084l157.876-157.876l70.085,70.083L151.301,430.782
	c-2.93,2.931-2.93,7.682,0,10.614c1.466,1.465,3.387,2.198,5.307,2.198c1.92,0,3.841-0.733,5.307-2.198l126.392-126.392
	l104.212-31.119c0.286-0.084,0.566-0.189,0.842-0.308c0.061-0.026,0.12-0.056,0.181-0.084c0.201-0.092,0.398-0.194,0.591-0.305
	c0.07-0.04,0.139-0.081,0.208-0.123c0.183-0.113,0.36-0.235,0.535-0.365c0.062-0.046,0.125-0.088,0.186-0.136
	c0.224-0.178,0.442-0.366,0.649-0.573l27.924-27.924c2.866-2.866,4.444-6.677,4.444-10.73s-1.578-7.864-4.444-10.73L279.392,88.365z
	 M50.126,489.148c-7.518,7.52-19.756,7.52-27.274,0c-7.52-7.519-7.52-19.755,0-27.274l0.566-0.566l27.274,27.273L50.126,489.148z
	 M105.238,476.846l-18.476,18.477c-2.233,2.231-5.866,2.233-8.099,0l0,0c-0.004-0.004,0,0-0.004-0.004s0.008,0.008,0.004,0.004
	l-61.987-61.986c-0.006-0.006,0.012,0.012,0.006,0.006s0,0-0.006-0.006l0,0c-0.558-0.558-0.977-1.204-1.256-1.893
	c-0.279-0.69-0.419-1.423-0.419-2.156c0-1.466,0.558-2.933,1.675-4.049l18.477-18.477L105.238,476.846z M413.02,243.453
	l-22.616,22.617L290.163,165.829c-2.931-2.929-7.682-2.929-10.614,0c-2.93,2.931-2.93,7.682,0,10.614l96.651,96.651l-89.717,26.79
	l-74.368-74.367l26.791-89.718l15.953,15.953c1.466,1.466,3.386,2.199,5.307,2.199c1.92,0,3.841-0.733,5.306-2.198
	c2.931-2.93,2.931-7.682,0.001-10.613l-19.544-19.545l22.618-22.617c0.063-0.064,0.17-0.064,0.233,0L413.02,243.22
	C413.085,243.285,413.085,243.389,413.02,243.453z"/>
<path d="M221.913,337.382c6.287-6.286,9.749-14.644,9.749-23.534s-3.462-17.248-9.749-23.535
	c-12.976-12.974-34.09-12.974-47.069,0.001c-12.976,12.977-12.976,34.092,0,47.069c6.489,6.488,15.012,9.732,23.535,9.732
	C206.903,347.115,215.425,343.871,221.913,337.382z M185.458,326.769c-7.125-7.124-7.125-18.717-0.001-25.842
	c3.564-3.563,8.242-5.344,12.923-5.344c4.679,0,9.359,1.782,12.921,5.344c3.452,3.451,5.353,8.04,5.353,12.922
	c0,4.881-1.901,9.469-5.352,12.921c0,0,0,0-0.001,0C204.177,333.895,192.582,333.893,185.458,326.769z"/>
<g>
</g>
<g>
</g>
<g>
</g>
<g>
</g>
<g>
</g>
<g>
</g>
<g>
</g>
<g>
</g>
<g>
</g>
<g>
</g>
<g>
</g>
<g>
</g>
<g>
</g>
<g>
</g>
<g>
</g>
</svg>
