<?xml version="1.0" encoding="UTF-8"?>
<svg xmlns="http://www.w3.org/2000/svg" viewBox="0 0 750.29 500.41">
  <defs>
    <style>
      .cls-1 {
        fill: #005b48;
      }

      .cls-2 {
        fill: #ffc999;
      }

      .cls-3 {
        fill: #89c08e;
      }

      .cls-4 {
        fill: #72a776;
      }

      .cls-5 {
        fill: #a3d3bc;
      }

      .cls-6 {
        fill: #81b888;
      }

      .cls-7, .cls-8 {
        fill: #78ba9b;
      }

      .cls-9 {
        opacity: .95;
      }

      .cls-10 {
        fill: #fff8f8;
        opacity: .6;
      }

      .cls-11 {
        fill: #6b9b6d;
        opacity: .75;
      }

      .cls-8 {
        opacity: .31;
      }
    </style>
  </defs>
  <g id="BACKGROUND">
    <rect class="cls-5" y=".41" width="750" height="500"/>
  </g>
  <g id="OBJECTS">
    <polygon class="cls-8" points="0 197.85 53.36 122.92 113.39 197.85 220.02 53.42 318.64 244.55 413.06 160.8 525 277.34 650.37 123.39 750 224.08 750 428.62 0 428.62 0 197.85"/>
    <g>
      <path class="cls-10" d="m686.01,191.85c-1.83,0-3.55.51-5.08,1.39-1.97-8.03-8.43-13.92-16.1-13.92-3.01,0-5.83.92-8.27,2.5-2.62-12.86-12.72-22.45-24.81-22.45-10,0-18.64,6.58-22.81,16.13-3.39-2.84-7.56-4.55-12.09-4.55-6.56,0-12.38,3.54-16.11,9.02-1.37-.41-2.81-.66-4.29-.66-9.24,0-16.74,8.54-16.74,19.07s7.49,19.07,16.74,19.07h109.56c6.21,0,11.24-5.73,11.24-12.8s-5.03-12.8-11.24-12.8Z"/>
      <g class="cls-9">
        <g>
          <polygon class="cls-7" points="632.1 182.6 609.37 255.05 654.83 255.05 632.1 182.6"/>
          <polygon class="cls-7" points="632.1 210.18 606.87 290.62 657.34 290.62 632.1 210.18"/>
          <polygon class="cls-7" points="632.1 236.67 603.67 327.28 660.53 327.28 632.1 236.67"/>
          <polygon class="cls-7" points="632.1 261.96 599.73 365.15 664.48 365.15 632.1 261.96"/>
          <rect class="cls-7" x="627.46" y="358.94" width="9.29" height="53.97"/>
        </g>
        <g>
          <polygon class="cls-7" points="717.92 209.59 695.19 282.04 740.65 282.04 717.92 209.59"/>
          <polygon class="cls-7" points="717.92 237.17 692.68 317.61 743.15 317.61 717.92 237.17"/>
          <polygon class="cls-7" points="717.92 263.66 689.49 354.27 746.35 354.27 717.92 263.66"/>
          <polygon class="cls-7" points="717.92 288.94 685.54 392.14 750.29 392.14 717.92 288.94"/>
          <rect class="cls-7" x="713.27" y="385.93" width="9.29" height="53.97"/>
        </g>
        <g>
          <polygon class="cls-7" points="62.68 185.89 39.95 258.34 85.42 258.34 62.68 185.89"/>
          <polygon class="cls-7" points="62.68 213.47 37.45 293.91 87.92 293.91 62.68 213.47"/>
          <polygon class="cls-7" points="62.68 239.96 34.26 330.57 91.11 330.57 62.68 239.96"/>
          <polygon class="cls-7" points="62.68 265.24 30.31 368.44 95.06 368.44 62.68 265.24"/>
          <rect class="cls-7" x="58.04" y="362.23" width="9.29" height="53.97"/>
        </g>
        <g>
          <polygon class="cls-7" points="555.06 225.92 535.05 289.7 575.06 289.7 555.06 225.92"/>
          <polygon class="cls-7" points="555.06 250.2 532.84 321 577.27 321 555.06 250.2"/>
          <polygon class="cls-7" points="555.06 273.52 530.03 353.28 580.08 353.28 555.06 273.52"/>
          <polygon class="cls-7" points="555.06 295.77 526.56 386.61 583.55 386.61 555.06 295.77"/>
          <rect class="cls-7" x="550.97" y="381.14" width="8.18" height="47.5"/>
        </g>
        <g>
          <polygon class="cls-7" points="180.4 246.98 160.4 310.75 200.41 310.75 180.4 246.98"/>
          <polygon class="cls-7" points="180.4 271.26 158.19 342.06 202.62 342.06 180.4 271.26"/>
          <polygon class="cls-7" points="180.4 294.57 155.38 374.33 205.43 374.33 180.4 294.57"/>
          <polygon class="cls-7" points="180.4 316.83 151.91 407.66 208.9 407.66 180.4 316.83"/>
          <rect class="cls-7" x="176.32" y="402.2" width="8.18" height="47.5"/>
        </g>
      </g>
      <path class="cls-10" d="m161.87,197.96c1.32-3.73,2.07-7.8,2.07-12.08,0-17.87-12.72-32.36-28.4-32.36-10.21,0-19.14,6.16-24.15,15.38-3.38-3.24-7.74-5.2-12.51-5.2-5.51,0-10.48,2.62-14.02,6.81-4.8-7.56-12.59-12.5-21.4-12.5-14.6,0-26.43,13.48-26.43,30.11,0,.29.03.57.04.85-2.36-1.99-5.28-3.18-8.45-3.18-7.26,0-13.24,6.2-14.12,14.2-1.49-1.28-3.33-2.07-5.34-2.07-4.92,0-8.91,4.55-8.91,10.15s3.99,10.15,8.91,10.15h152.49c4.92,0,8.91-4.55,8.91-10.15s-3.88-10-8.7-10.13Z"/>
      <ellipse class="cls-2" cx="547.95" cy="49.11" rx="51.25" ry="49.11"/>
    </g>
    <g>
      <rect class="cls-3" y="414.13" width="750" height="17.21"/>
      <rect class="cls-4" y="448.55" width="750" height="51.86"/>
      <rect class="cls-6" y="431.34" width="750" height="31.71"/>
    </g>
    <g>
      <path class="cls-5" d="m116.61,468.97h-28.25c0-8.89,6.32-16.09,14.12-16.09,4.45,0,8.42,2.35,11.01,6.01,1.95,2.75,3.11,6.26,3.11,10.07Z"/>
      <path class="cls-5" d="m143.22,468.97h-37.72c0-3.64.8-7.07,2.2-10.07,3.17-6.79,9.44-11.41,16.66-11.41,10.41,0,18.86,9.62,18.86,21.48Z"/>
      <path class="cls-5" d="m156.26,468.97h-18.46c0-4.46,2.44-8.27,5.88-9.8,1.04-.46,2.17-.72,3.36-.72,5.1,0,9.23,4.71,9.23,10.52Z"/>
    </g>
    <g>
      <path class="cls-5" d="m626.09,451.52h-36.08c0-3.68.85-7.13,2.34-10.12,3.09-6.23,8.96-10.43,15.7-10.43,5.25,0,9.99,2.56,13.29,6.65,2.96,3.66,4.75,8.54,4.75,13.91Z"/>
      <path class="cls-5" d="m669.26,451.52h-51.02c0-5.04,1.13-9.78,3.1-13.91,4.33-9.04,12.74-15.16,22.41-15.16s18.56,6.48,22.77,15.94c1.75,3.94,2.74,8.4,2.74,13.12Z"/>
      <path class="cls-5" d="m599.2,451.52h-18.38c0-5.78,4.12-10.46,9.19-10.46.81,0,1.6.12,2.34.34,3.94,1.18,6.85,5.26,6.85,10.12Z"/>
      <path class="cls-5" d="m683.38,451.52h-24.73c0-5.97,3.26-11.08,7.87-13.12,1.39-.62,2.91-.96,4.5-.96,6.83,0,12.37,6.31,12.37,14.09Z"/>
    </g>
  </g>
  <g id="TEXTS">
    <polygon class="cls-11" points="436.35 500.41 308.29 500.41 359.59 414.13 385.05 414.13 436.35 500.41"/>
    <g>
      <polygon class="cls-1" points="80.06 82.48 62.48 89.56 54.6 72.99 64.45 82.83 80.06 82.48"/>
      <polygon class="cls-1" points="681.21 86.33 673.17 105.5 657.31 100.13 670.39 99.15 681.21 86.33"/>
    </g>
  </g>
</svg>