<svg height="512pt" viewBox="0 -30 512 512" width="512pt" xmlns="http://www.w3.org/2000/svg"><path d="m504.5 225.546875c0-120.425781-111.257812-218.046875-248.5-218.046875s-248.5 97.621094-248.5 218.046875c0 120.421875 111.257812 218.046875 248.5 218.046875s248.5-97.625 248.5-218.046875zm0 0" fill="#fd8f3e"/><path d="m476.820312 325.636719c-41.320312 70.066406-124.699218 117.957031-220.820312 117.957031s-179.5-47.890625-220.820312-117.957031c52.539062 48.320312 131.960937 79.113281 220.820312 79.113281s168.28125-30.792969 220.820312-79.113281zm0 0" fill="#fe672d"/><path d="m504.5 225.546875c0 9.121094-.640625 18.109375-1.878906 26.925781-15.109375-107.722656-119.769532-191.132812-246.621094-191.132812s-231.511719 83.410156-246.621094 191.132812c-1.238281-8.816406-1.878906-17.804687-1.878906-26.925781 0-120.421875 111.261719-218.050781 248.5-218.050781s248.5 97.628906 248.5 218.050781zm0 0" fill="#fab03c"/><path d="m431.871094 71.5c-49.660156-25.246094-110.351563-40.085938-175.871094-40.085938s-126.210938 14.839844-175.871094 40.085938c44.992188-39.539062 107.171875-64.003906 175.871094-64.003906s130.878906 24.464844 175.871094 64.003906zm0 0" fill="#f8e98e"/><path d="m256.550781 171.707031c5.515625 5.515625 2.558594 18.40625-6.621093 34.476563-5.773438 10.089844-13.992188 21.4375-24.109376 33.007812-4.152343 4.761719-8.632812 9.5625-13.394531 14.324219-3.28125 3.277344-6.574219 6.417969-9.859375 9.429687-11.722656 10.683594-23.363281 19.511719-33.832031 25.914063-17.753906 10.847656-32.1875 14.710937-38.117187 8.78125-5.929688-5.929687-2.0625-20.371094 8.789062-38.140625 6.398438-10.46875 15.230469-22.09375 25.90625-33.808594 3.007812-3.289062 6.148438-6.582031 9.429688-9.859375 4.765624-4.769531 9.5625-9.246093 14.328124-13.402343 11.570313-10.117188 22.917969-18.335938 33.007813-24.109376 16.074219-9.167968 28.957031-12.128906 34.472656-6.613281zm0 0" fill="#a86552"/><path d="m182.324219 245.929688c6.546875 6.546874 13.390625 12.253906 20.238281 17.015624-11.71875 10.683594-23.359375 19.515626-33.828125 25.914063-5.300781-4.027344-10.566406-8.601563-15.652344-13.6875-5.085937-5.085937-9.660156-10.351563-13.679687-15.671875 6.402344-10.46875 15.230468-22.09375 25.90625-33.808594 4.761718 6.851563 10.46875 13.695313 17.015625 20.238282zm0 0" fill="#f4bc8e"/><path d="m235.113281 193.144531c4.816407 4.816407 9.789063 9.179688 14.8125 13.042969-5.769531 10.085938-13.988281 21.433594-24.105469 33.003906-6.753906-4.71875-13.5-10.355468-19.949218-16.804687-6.457032-6.457031-12.089844-13.195313-16.800782-19.957031 11.570313-10.117188 22.917969-18.335938 33.007813-24.109376 3.851563 5.03125 8.21875 10.007813 13.035156 14.824219zm0 0" fill="#f4bc8e"/><path d="m259.5 145.664062c-3.238281 35.75-79.339844 58.070313-108.25 55.460938-28.921875-2.617188-49.738281-33.71875-46.5-69.460938 1.058594-11.738281 4.578125-22.507812 9.851562-31.597656 10.796876-18.609375 28.9375-30.152344 48.359376-28.390625 3.109374.28125 6.710937.949219 10.648437 1.949219 32.660156 8.339844 88.769531 40.140625 85.890625 72.039062zm0 0" fill="#dad0cd"/><path d="m173.609375 73.625c-21.121094 6.5-40.9375 15.449219-59.007813 26.441406 10.796876-18.609375 28.9375-30.152344 48.359376-28.390625 3.109374.28125 6.710937.949219 10.648437 1.949219zm0 0" fill="#f1eded"/><path d="m304.066406 191.484375-39.726562 29.328125c-6.140625 4.53125-14.828125.148438-14.828125-7.488281v-69.796875c0-5.136719 4.164062-9.300782 9.300781-9.300782h39.730469c5.136719 0 9.304687 4.164063 9.304687 9.300782v40.46875c0 2.953125-1.402344 5.734375-3.78125 7.488281zm0 0" fill="#6d6d6d"/><path d="m351.644531 137.949219c0-12.855469-12.863281-23.277344-28.730469-23.277344-15.871093 0-28.734374 10.421875-28.734374 23.277344 0 12.859375 12.863281 23.28125 28.734374 23.28125 15.867188 0 28.730469-10.421875 28.730469-23.28125zm0 0" fill="#a86552"/><path d="m351.644531 137.953125c0 12.859375-12.867187 23.277344-28.730469 23.277344-3.023437 0-5.9375-.378907-8.671874-1.078125 11.628906-2.976563 20.058593-11.789063 20.058593-22.199219 0-10.414063-8.429687-19.222656-20.058593-22.199219 2.734374-.699218 5.648437-1.082031 8.671874-1.082031 15.863282 0 28.730469 10.421875 28.730469 23.28125zm0 0" fill="#7c3c2f"/><path d="m445.023438 73.421875c-2.980469-2.875-7.726563-2.785156-10.601563.191406-2.875 2.984375-2.789063 7.730469.191406 10.605469 40.230469 38.78125 62.386719 88.972656 62.386719 141.328125 0 37.4375-11.394531 74.199219-32.957031 106.316406-21.027344 31.324219-51.132813 57.53125-87.050781 75.792969-3.691407 1.875-5.164063 6.390625-3.289063 10.082031 1.324219 2.605469 3.957031 4.105469 6.691406 4.105469 1.144531 0 2.304688-.261719 3.394531-.816406 38.195313-19.417969 70.253907-47.359375 92.707032-80.800782 23.226562-34.597656 35.503906-74.253906 35.503906-114.679687 0-56.46875-23.785156-110.492187-66.976562-152.125zm0 0"/><path d="m347.960938 420.199219c-29.203126 10.542969-60.144532 15.894531-91.960938 15.894531-68.929688 0-134.707031-25.898438-180.472656-71.054688-2.945313-2.90625-7.695313-2.875-10.605469.074219-2.910156 2.945313-2.875 7.695313.070313 10.605469 48.550781 47.898438 118.167968 75.371094 191.007812 75.371094 33.558594 0 66.214844-5.644532 97.054688-16.785156 3.894531-1.40625 5.914062-5.703126 4.507812-9.601563-1.40625-3.894531-5.707031-5.910156-9.601562-4.503906zm0 0"/><path d="m15 225.546875c0-116.097656 108.113281-210.546875 241-210.546875 56.304688 0 111.09375 17.335938 154.277344 48.816406 3.34375 2.4375 8.039062 1.703125 10.480468-1.644531 2.4375-3.347656 1.703126-8.035156-1.644531-10.476563-45.730469-33.335937-103.65625-51.695312-163.113281-51.695312-68.195312 0-132.359375 23.34375-180.660156 65.726562-48.585938 42.628907-75.339844 99.386719-75.339844 159.820313 0 44.601563 14.761719 87.738281 42.691406 124.746094 1.472656 1.953125 3.71875 2.980469 5.992188 2.980469 1.570312 0 3.160156-.492188 4.511718-1.511719 3.304688-2.496094 3.960938-7.199219 1.46875-10.503907-25.949218-34.382812-39.664062-74.394531-39.664062-115.710937zm0 0"/><path d="m322.914062 168.734375c14.074219 0 26.292969-6.863281 32.289063-16.847656l29.675781 22.359375c1.300782.980468 2.886719 1.511718 4.515625 1.511718h18.1875c4.144531 0 7.5-3.355468 7.5-7.5 0-4.144531-3.355469-7.5-7.5-7.5h-15.679687l-32.835938-24.742187c-.691406-9.386719-6.351562-17.644531-14.769531-22.894531-.148437-.699219-.398437-1.394532-.761719-2.054688l-6.984375-12.734375v-26.828125c0-4.144531-3.359375-7.5-7.5-7.5-4.144531 0-7.5 3.355469-7.5 7.5v28.75c0 1.261719.316407 2.5.921875 3.605469l.289063.523437-8.164063-7.441406v-25.4375c0-4.144531-3.359375-7.5-7.5-7.5-4.144531 0-7.5 3.355469-7.5 7.5v28.75c0 2.109375.886719 4.121094 2.445313 5.542969l4.953125 4.511719c-8.09375 3.378906-14.488282 9.246094-17.808594 16.417968h-25.964844c-15.285156-32.945312-72.964844-60.109374-99.585937-62.515624-33.007813-2.988282-62.753907 26.972656-66.355469 66.777343-1.71875 18.992188 2.695312 37.460938 12.429688 52.003907 10.066406 15.035156 24.578124 24.128906 40.863281 25.601562 1.699219.152344 3.535156.230469 5.492187.230469 4.863282 0 10.460938-.472657 16.5-1.375-1.046875 1.015625-2.089844 2.042969-3.125 3.078125-3.207031 3.207031-6.363281 6.511718-9.4375 9.875-.15625.152344-.300781.3125-.4375.480468-28.226562 31.023438-49.144531 67.167969-34.253906 82.058594 3.351562 3.351563 7.785156 5.023438 13.273438 5.023438 7.285156 0 16.429687-2.949219 27.355468-8.847656 1.984375-1.066407 4.003906-2.226563 6.050782-3.460938l-31.960938 48.429688c-.808594 1.226562-1.238281 2.664062-1.238281 4.132812v31.371094c0 4.144531 3.355469 7.5 7.5 7.5s7.5-3.355469 7.5-7.5v-29.121094l54.546875-82.65625c3.152344-2.894531 6.289062-5.894531 9.390625-8.996094 11.167969-11.167968 21.007812-22.675781 28.976562-33.832031 1.289063 1.335937 2.8125 2.472656 4.539063 3.34375 2.410156 1.214844 5.003906 1.816406 7.585937 1.816406 2.839844 0 5.660157-.742187 8.203125-2.175781v28.425781l-73.097656 73.09375c-2.929688 2.929688-2.929688 7.679688 0 10.609375l31.371094 31.371094c1.464844 1.464844 3.386718 2.195312 5.304687 2.195312s3.839844-.730468 5.304688-2.195312c2.929687-2.929688 2.929687-7.679688 0-10.609375l-26.070313-26.066406 69.992188-69.988281c1.402344-1.40625 2.195312-3.316407 2.195312-5.304688v-42.425781l12.203125-9.011719h54.414063c5.273437 0 10.324218 1.457031 14.695312 4.167969 1.054688 8.292969-1.589844 16.96875-7.945312 23.324219l-30.691406 30.691406c-2.929688 2.929687-2.929688 7.679687 0 10.609375 1.464843 1.460937 3.382812 2.195312 5.304687 2.195312 1.917969 0 3.835937-.734375 5.300781-2.195312l30.695313-30.695313c4.609375-4.609375 7.941406-10.019531 10.015625-15.78125 1.824218 8.902344-.707032 18.527344-7.601563 25.421875l-30.691406 30.691407c-2.929687 2.929687-2.929687 7.679687 0 10.605468 1.464844 1.464844 3.386719 2.199219 5.304687 2.199219 1.917969 0 3.839844-.734375 5.304688-2.199219l30.691406-30.691406c16.75-16.75 16.75-44.007812 0-60.761719-.714844-.714843-1.457031-1.390625-2.214844-2.050781-1.960937-6.664062-5.5625-12.945312-10.8125-18.195312-8.113281-8.113282-18.902343-12.582032-30.378906-12.582032h-20.277344v-4.765625c2.4375.445313 4.964844.683594 7.5625.683594zm0-46.5625c11.507813 0 21.230469 7.226563 21.230469 15.777344 0 8.554687-9.722656 15.78125-21.230469 15.78125-11.507812 0-21.230468-7.226563-21.230468-15.78125 0-8.550781 9.71875-15.777344 21.230468-15.777344zm-98.269531 106.824219c-4.636719-3.609375-9.148437-7.59375-13.46875-11.917969-4.332031-4.328125-8.316406-8.839844-11.914062-13.472656 1.539062-1.273438 3.078125-2.527344 4.617187-3.742188.011719-.007812.019532-.015625.027344-.023437 6.734375-2.234375 13.4375-4.851563 19.808594-7.828125 1.957031 2.175781 3.996094 4.332031 6.09375 6.433593 3.339844 3.335938 6.800781 6.503907 10.316406 9.460938-4.277344 6.761719-9.527344 13.90625-15.480469 21.089844zm-66.257812 40.871094c-3.488281-3.484376-6.769531-7.117188-9.800781-10.832032 4.546874-6.929687 10.027343-14.167968 16.242187-21.449218 3.730469 4.691406 7.808594 9.261718 12.191406 13.648437 4.390625 4.386719 8.960938 8.464844 13.648438 12.191406-7.285157 6.21875-14.527344 11.703125-21.457031 16.25-3.726563-3.054687-7.355469-6.335937-10.824219-9.808593zm48.734375-21.65625c-1.710938 1.707031-3.429688 3.375-5.152344 5.015624-4.933594-3.777343-9.738281-7.996093-14.339844-12.597656-4.601562-4.601562-8.820312-9.40625-12.601562-14.34375 1.640625-1.722656 3.308594-3.441406 5.015625-5.148437 2.621093-2.617188 5.265625-5.15625 7.925781-7.625 3.835938 4.878906 8.046875 9.625 12.597656 14.175781 4.546875 4.542969 9.292969 8.757812 14.175782 12.601562-2.46875 2.667969-5.011719 5.3125-7.621094 7.921876zm34.890625-58.820313c-.535157-.515625-1.070313-1.027344-1.59375-1.550781-1.03125-1.03125-2.039063-2.078125-3.03125-3.128906 1.585937-.96875 3.128906-1.964844 4.625-2.984376zm-90.089844 4.261719c-11.683594-1.054688-22.25-7.804688-29.746094-19.007813-7.832031-11.699219-11.367187-26.722656-9.957031-42.304687 2.855469-31.570313 25.335938-55.4375 50.066406-53.195313 18.066406 1.636719 55.09375 18.125 75.539063 38.128907-25.015625-11.457032-60.234375-19.996094-77.042969-21.515626-4.132812-.367187-7.769531 2.667969-8.144531 6.792969s2.667969 7.773438 6.792969 8.148438c20.765624 1.878906 63.007812 13.695312 83.058593 25.894531l-67.566406-6.113281c-4.113281-.363281-7.769531 2.667969-8.144531 6.796875-.375 4.125 2.667968 7.769531 6.792968 8.144531l67.558594 6.113281c-22.367187 8.582032-66.484375 12.367188-86.351562 10.570313-4.121094-.375-7.769532 2.667969-8.144532 6.792969s2.667969 7.773437 6.792969 8.144531c3.6875.335937 8.097657.503906 13.007813.503906 19.203125 0 45.996094-2.574219 66.710937-7.855469-23.738281 16.21875-62.683593 25.640625-81.222656 23.960938zm-16 98.683594c-1.109375-1.105469-1.234375-7.480469 4.683594-19.523438 2.292969 2.609375 4.683593 5.171875 7.175781 7.664062 2.480469 2.484376 5.042969 4.875 7.660156 7.175782-12.042968 5.917968-18.414062 5.789062-19.519531 4.683594zm216.222656-99.121094c-1.15625-.09375-2.320312-.152344-3.496093-.152344h-35.96875c1.027343-1.605469 1.78125-3.378906 2.21875-5.246094h20.726562c6.023438 0 11.757812 1.894532 16.519531 5.398438zm-51.796875-9.21875c0 .570312-.273437 1.113281-.734375 1.453125l-17.582031 12.980469v-14.019532c0-4.144531-3.355469-7.5-7.5-7.5-4.140625 0-7.5 3.355469-7.5 7.5v25.09375l-7.144531 5.273438c-.738281.546875-1.433594.386718-1.882813.160156-.453125-.230469-.992187-.695312-.992187-1.613281v-69.792969c0-.996094.808593-1.804688 1.804687-1.804688h28.148438c1.183594 8.179688 6.15625 15.378907 13.382812 20.28125zm0 0"/><path d="m384.238281 318.136719h-.105469c-.023437 0-.046874 0-.070312 0-4.109375 0-7.460938 3.3125-7.5 7.429687-.039062 4.144532 3.289062 7.53125 7.429688 7.570313h.105468.070313c4.109375 0 7.460937-3.3125 7.5-7.429688.039062-4.140625-3.289063-7.53125-7.429688-7.570312zm0 0"/><path d="m308.320312 305.457031c-4.144531 0-7.5 3.355469-7.5 7.5 0 4.140625 3.355469 7.5 7.5 7.5h.105469c4.140625 0 7.5-3.359375 7.5-7.5 0-4.144531-3.359375-7.5-7.5-7.5zm0 0"/><path d="m410.632812 337.046875h.105469c4.140625 0 7.5-3.359375 7.5-7.5 0-4.144531-3.359375-7.5-7.5-7.5h-.105469c-4.144531 0-7.5 3.355469-7.5 7.5 0 4.140625 3.355469 7.5 7.5 7.5zm0 0"/><path d="m395.859375 137.484375c4.144531 0 7.5-3.355469 7.5-7.5 0-4.140625-3.355469-7.5-7.5-7.5h-.101563c-4.144531 0-7.5 3.359375-7.5 7.5 0 4.144531 3.355469 7.5 7.5 7.5zm0 0"/><path d="m80.078125 198.6875c-4.144531 0-7.5 3.355469-7.5 7.5 0 4.140625 3.355469 7.5 7.5 7.5h.105469c4.140625 0 7.5-3.359375 7.5-7.5 0-4.144531-3.359375-7.5-7.5-7.5zm0 0"/></svg>