<svg id="Capa_1" enable-background="new 0 0 511.994 511.994" height="512" viewBox="0 0 511.994 511.994" width="512" xmlns="http://www.w3.org/2000/svg"><g><g><path d="m504.494 251.989c0-22.136-17.945-40.08-40.08-40.08h-272.547c-22.136 0-40.08 17.945-40.08 40.08l12.024 12.024h324.651z" fill="#edf4ff"/><path d="m231.948 211.909h-40.08c-22.136 0-40.08 17.945-40.08 40.08l12.024 12.024h68.137v-52.104z" fill="#dbeaff"/><path d="m151.787 251.989c0 61.98 50.245 112.225 112.225 112.225h128.257c61.98 0 112.225-50.245 112.225-112.225z" fill="#dad8db"/><path d="m109.644 197.019-80.161-32.064c-8.208-3.264-17.543.712-20.839 8.932-3.288 8.227.708 17.551 8.932 20.846l80.161 32.064c1.953.775 3.965 1.151 5.949 1.151 6.36 0 12.38-3.82 14.889-10.083 3.289-8.227-.708-17.55-8.931-20.846z" fill="#857e87"/><path d="m344.172 179.844h-32.064c-8.854 0-16.032-7.178-16.032-16.032 0-8.854 7.178-16.032 16.032-16.032h32.064c8.854 0 16.032 7.178 16.032 16.032.001 8.854-7.177 16.032-16.032 16.032z" fill="#857e87"/><path d="m312.108 147.78c-8.854 0-16.032 7.177-16.032 16.032 0 8.854 7.178 16.032 16.032 16.032h8.016v-32.064z" fill="#6f6571"/><path d="m320.124 340.166c-48.699 0-88.177-39.478-88.177-88.177h-80.161c0 61.98 50.245 112.225 112.225 112.225h128.257c26.17 0 50.187-9.032 69.275-24.048z" fill="#c8c5c9"/></g><path d="m511.994 251.989c0-26.236-21.344-47.58-47.58-47.58h-128.774v-17.064h8.532c12.976 0 23.532-10.556 23.532-23.532s-10.557-23.532-23.532-23.532h-32.064c-12.976 0-23.532 10.557-23.532 23.532s10.556 23.532 23.532 23.532h8.532v17.064h-128.773c-17.92 0-33.552 9.962-41.665 24.635-2.648-2.799-5.809-5.168-9.401-6.964l-13.81-6.905c1.462-10.47-4.317-21.012-14.557-25.116-3.845-1.539-8.211.327-9.752 4.172s.327 8.211 4.172 9.752c4.37 1.751 6.504 6.731 4.76 11.096-1.308 3.263-4.419 5.372-7.927 5.372-1.072 0-2.143-.209-3.164-.614l-80.156-32.062c-4.37-1.751-6.504-6.731-4.761-11.093 1.749-4.361 6.729-6.493 11.092-4.76l50.198 20.079c3.846 1.538 8.21-.332 9.749-4.178s-.332-8.211-4.178-9.749l-50.212-20.085c-12.038-4.786-25.753 1.094-30.575 13.119-4.812 12.043 1.067 25.766 13.111 30.593l80.18 32.072c2.809 1.115 5.741 1.68 8.715 1.68 6.389 0 12.289-2.544 16.604-6.855l13.803 6.901c6.288 3.144 10.194 9.464 10.194 16.494 0 66.017 53.708 119.725 119.725 119.725h128.257c66.016-.004 119.725-53.712 119.725-119.729zm-208.418-88.177c0-4.705 3.827-8.532 8.532-8.532h32.064c4.705 0 8.532 3.828 8.532 8.532s-3.828 8.532-8.532 8.532h-32.064c-4.705 0-8.532-3.827-8.532-8.532zm88.693 192.902h-128.257c-55.225 0-100.604-42.964-104.459-97.225h288.825c4.142 0 7.5-3.358 7.5-7.5s-3.358-7.5-7.5-7.5h-288.21c3.397-14.36 16.316-25.081 31.699-25.081h272.546c15.383 0 28.301 10.721 31.699 25.081h-15.671c-4.142 0-7.5 3.358-7.5 7.5s3.358 7.5 7.5 7.5h16.287c-3.855 54.261-49.234 97.225-104.459 97.225z"/></g></svg>