<?xml version="1.0" encoding="iso-8859-1"?>
<!-- Generator: Adobe Illustrator 21.0.0, SVG Export Plug-In . SVG Version: 6.00 Build 0)  -->
<svg version="1.1" id="Capa_1" xmlns="http://www.w3.org/2000/svg" xmlns:xlink="http://www.w3.org/1999/xlink" x="0px" y="0px"
	 viewBox="0 0 508.604 508.604" style="enable-background:new 0 0 508.604 508.604;" xml:space="preserve">
<g>
	<g>
		<path style="fill:none;" d="M353.222,303.52c-8.49,0-15.37,6.88-15.37,15.37c0,8.48,6.88,15.36,15.37,15.36
			s15.36-6.88,15.36-15.36C368.582,310.4,361.712,303.52,353.222,303.52z"/>
		<path style="fill:none;" d="M207.352,334.01h-7.34c-5.44,0-9.85-4.4-9.85-9.84v-7.34c0-5.44-4.4-9.85-9.84-9.85h-6.83
			c-5.44,0-9.85,4.41-9.85,9.85v7.34c0,5.44-4.4,9.84-9.84,9.84h-7.34c-5.44,0-9.84,4.41-9.84,9.85v6.83c0,5.43,4.4,9.84,9.84,9.84
			h7.34c5.44,0,9.84,4.41,9.84,9.85v7.34c0,5.43,4.41,9.84,9.85,9.84h6.83c5.44,0,9.84-4.41,9.84-9.84v-7.34
			c0-5.44,4.41-9.85,9.85-9.85h7.34c5.44,0,9.84-4.41,9.84-9.84v-6.83C217.192,338.42,212.792,334.01,207.352,334.01z"/>
		<path style="fill:none;" d="M306.022,336c-8.48,0-15.36,6.88-15.36,15.36c0,8.49,6.88,15.37,15.36,15.37
			c8.49,0,15.37-6.88,15.37-15.37C321.392,342.88,314.512,336,306.022,336z"/>
		<path style="fill:none;" d="M362.402,53.83h-216.84c-4.94,0-8.94,4-8.94,8.94v160.61c0,4.95,4,8.95,8.94,8.95h189.08
			c20.27,0,36.71-16.43,36.71-36.71V62.77C371.352,57.83,367.352,53.83,362.402,53.83z"/>
		<path style="fill:#F9A1C1;" d="M402.442,5.25h-296.92c-1.28,0-2.32,1.04-2.32,2.32v492.1c0,1.28,1.04,2.32,2.32,2.32h227.14
			c7.5,0,14.73-1.14,21.53-3.27c8.61-2.69,16.52-6.95,23.4-12.45c7.5-5.97,13.78-13.42,18.4-21.9c5.59-10.24,8.77-21.99,8.77-34.48
			V7.57C404.762,6.29,403.732,5.25,402.442,5.25z"/>
		<path style="fill:#F976A8;" d="M133.204,499.67V7.57c0-1.28,1.04-2.32,2.32-2.32h-30.002c-1.28,0-2.32,1.04-2.32,2.32v492.1
			c0,1.28,1.04,2.32,2.32,2.32h30.002C134.244,501.99,133.204,500.95,133.204,499.67z"/>
	</g>
	<rect x="160.322" y="75.915" style="fill:#059B8C;" width="187.33" height="134.33"/>
	<path style="fill:#FFCC75;" d="M362.402,53.83h-216.84c-4.94,0-8.94,4-8.94,8.94v160.61c0,4.95,4,8.95,8.94,8.95h189.08
		c20.27,0,36.71-16.43,36.71-36.71V62.77C371.352,57.83,367.352,53.83,362.402,53.83z M324.275,199.46H183.7
		c-4.605,0-8.337-3.733-8.337-8.337V95.037c0-4.605,3.733-8.337,8.337-8.337h140.575c4.605,0,8.337,3.733,8.337,8.337v96.085
		C332.612,195.727,328.879,199.46,324.275,199.46z"/>
	<path style="fill:#059B8C;" d="M217.192,343.86v6.83c0,5.43-4.4,9.84-9.84,9.84h-7.34c-5.44,0-9.85,4.41-9.85,9.85v7.34
		c0,5.43-4.4,9.84-9.84,9.84h-6.83c-5.44,0-9.85-4.41-9.85-9.84v-7.34c0-5.44-4.4-9.85-9.84-9.85h-7.34c-5.44,0-9.84-4.41-9.84-9.84
		v-6.83c0-5.44,4.4-9.85,9.84-9.85h7.34c5.44,0,9.84-4.4,9.84-9.84v-7.34c0-5.44,4.41-9.85,9.85-9.85h6.83
		c5.44,0,9.84,4.41,9.84,9.85v7.34c0,5.44,4.41,9.84,9.85,9.84h7.34C212.792,334.01,217.192,338.42,217.192,343.86z"/>
	<g>
		<path style="fill:#E63950;" d="M321.392,351.36c0,8.49-6.88,15.37-15.37,15.37c-8.48,0-15.36-6.88-15.36-15.37
			c0-8.48,6.88-15.36,15.36-15.36C314.512,336,321.392,342.88,321.392,351.36z"/>
		<path style="fill:#E63950;" d="M368.582,318.89c0,8.48-6.87,15.36-15.36,15.36s-15.37-6.88-15.37-15.36
			c0-8.49,6.88-15.37,15.37-15.37S368.582,310.4,368.582,318.89z"/>
	</g>
</g>
<g>
	<path d="M401.826,0H106.778c-5.405,0-9.804,4.398-9.804,9.804v155.852c0,4.142,3.357,7.5,7.5,7.5s7.5-3.358,7.5-7.5V38.899H396.63
		v390.563c0,5.704-0.758,11.232-2.162,16.499l-17.811-33.525c-1.943-3.657-6.481-5.048-10.142-3.104
		c-3.658,1.943-5.048,6.484-3.104,10.142l23.396,44.038c-2.221,3.53-4.775,6.827-7.62,9.852l-25.801-48.564
		c-1.943-3.657-6.481-5.048-10.142-3.104c-3.658,1.943-5.048,6.484-3.104,10.142l27.292,51.371c-3.159,2.061-6.5,3.865-10.01,5.351
		l-27.306-51.397c-1.942-3.657-6.482-5.048-10.142-3.104c-3.658,1.943-5.048,6.484-3.104,10.142l25.812,48.585
		c-3.322,0.533-6.726,0.819-10.196,0.819h-2.223l-23.418-44.079c-1.942-3.657-6.482-5.048-10.142-3.104
		c-3.658,1.943-5.048,6.484-3.104,10.142l19.679,37.042H111.974V195.913c0-4.142-3.357-7.5-7.5-7.5s-7.5,3.358-7.5,7.5v302.888
		c0,5.406,4.398,9.804,9.804,9.804h225.709c8.017,0,15.756-1.208,23.054-3.435c0.386-0.088,0.767-0.21,1.143-0.363
		c8.928-2.874,17.161-7.298,24.399-12.948c0.51-0.315,0.976-0.677,1.383-1.088c7.712-6.298,14.209-14.023,19.105-22.763
		c0.302-0.435,0.559-0.896,0.761-1.38c5.925-11.089,9.296-23.74,9.296-37.167V9.804C411.63,4.398,407.232,0,401.826,0z M111.974,15
		h31.878v8.899h-31.878V15z M158.852,23.899V15H396.63v8.899H158.852z"/>
	<path d="M378.429,64.661c0-9.039-7.354-16.392-16.392-16.392H146.566c-9.038,0-16.392,7.353-16.392,16.392v159.596
		c0,9.038,7.354,16.392,16.392,16.392h187.882c24.251,0,43.98-19.729,43.98-43.98V64.661z M363.429,196.668
		c0,15.98-13.001,28.98-28.98,28.98H146.566c-0.768,0-1.392-0.624-1.392-1.392V64.661c0-0.767,0.624-1.392,1.392-1.392h215.471
		c0.768,0,1.392,0.625,1.392,1.392V196.668z"/>
	<path d="M332.432,80.938H176.171c-4.143,0-7.5,3.358-7.5,7.5v112.041c0,4.142,3.357,7.5,7.5,7.5h156.262c4.143,0,7.5-3.358,7.5-7.5
		v-46.245c0-4.142-3.357-7.5-7.5-7.5s-7.5,3.358-7.5,7.5v38.745H183.671V95.938h141.262v28.046c0,4.142,3.357,7.5,7.5,7.5
		s7.5-3.358,7.5-7.5V88.438C339.932,84.296,336.575,80.938,332.432,80.938z"/>
	<path d="M130.175,350.757c0,9.53,7.753,17.283,17.283,17.283h7.293c1.259,0,2.282,1.024,2.282,2.283v7.293
		c0,9.53,7.753,17.283,17.283,17.283h6.786c9.53,0,17.283-7.753,17.283-17.283v-7.293c0-1.259,1.024-2.283,2.283-2.283h7.293
		c9.529,0,17.282-7.753,17.282-17.283v-6.786c0-9.53-7.753-17.283-17.282-17.283h-7.293c-1.259,0-2.283-1.024-2.283-2.283v-7.293
		c0-9.53-7.753-17.283-17.283-17.283h-6.786c-9.53,0-17.283,7.753-17.283,17.283v7.293c0,1.259-1.023,2.283-2.282,2.283h-7.293
		c-9.53,0-17.283,7.753-17.283,17.283V350.757z M145.175,343.971c0-1.259,1.024-2.283,2.283-2.283h7.293
		c9.529,0,17.282-7.753,17.282-17.283v-7.293c0-1.259,1.024-2.283,2.283-2.283h6.786c1.259,0,2.283,1.024,2.283,2.283v7.293
		c0,9.53,7.753,17.283,17.283,17.283h7.293c1.259,0,2.282,1.024,2.282,2.283v6.786c0,1.259-1.023,2.283-2.282,2.283h-7.293
		c-9.53,0-17.283,7.753-17.283,17.283v7.293c0,1.259-1.024,2.283-2.283,2.283h-6.786c-1.259,0-2.283-1.024-2.283-2.283v-7.293
		c0-9.53-7.753-17.283-17.282-17.283h-7.293c-1.259,0-2.283-1.024-2.283-2.283V343.971z"/>
	<path d="M228.29,402.937l-28.222,14.399c-3.69,1.883-5.155,6.4-3.272,10.089c1.325,2.598,3.957,4.093,6.687,4.093
		c1.146,0,2.312-0.264,3.402-0.821l28.222-14.399c3.69-1.883,5.155-6.4,3.272-10.089C236.497,402.52,231.977,401.055,228.29,402.937
		z"/>
	<path d="M279.766,410.137l-28.222,14.399c-3.69,1.882-5.155,6.4-3.272,10.089c1.325,2.598,3.957,4.093,6.687,4.093
		c1.146,0,2.312-0.264,3.402-0.821l28.222-14.399c3.69-1.882,5.155-6.4,3.272-10.089
		C287.973,409.719,283.453,408.254,279.766,410.137z"/>
	<path d="M328.783,351.428c0-12.554-10.214-22.768-22.769-22.768s-22.769,10.214-22.769,22.768s10.214,22.768,22.769,22.768
		S328.783,363.983,328.783,351.428z M298.246,351.428c0-4.283,3.485-7.768,7.769-7.768s7.769,3.485,7.769,7.768
		c0,4.283-3.485,7.768-7.769,7.768S298.246,355.712,298.246,351.428z"/>
	<path d="M330.143,319.158c0,12.554,10.214,22.768,22.768,22.768c12.555,0,22.769-10.214,22.769-22.768
		s-10.214-22.768-22.769-22.768C340.357,296.39,330.143,306.604,330.143,319.158z M360.68,319.158c0,4.283-3.485,7.768-7.769,7.768
		s-7.768-3.485-7.768-7.768s3.484-7.768,7.768-7.768S360.68,314.875,360.68,319.158z"/>
	<path d="M137.675,267.571H276.82c4.143,0,7.5-3.358,7.5-7.5s-3.357-7.5-7.5-7.5H137.675c-4.143,0-7.5,3.358-7.5,7.5
		S133.532,267.571,137.675,267.571z"/>
</g>
<g>
</g>
<g>
</g>
<g>
</g>
<g>
</g>
<g>
</g>
<g>
</g>
<g>
</g>
<g>
</g>
<g>
</g>
<g>
</g>
<g>
</g>
<g>
</g>
<g>
</g>
<g>
</g>
<g>
</g>
</svg>
