<?xml version="1.0" encoding="UTF-8"?>
<svg xmlns="http://www.w3.org/2000/svg" xmlns:xlink="http://www.w3.org/1999/xlink" version="1.1" id="Capa_1" x="0px" y="0px" viewBox="0 0 512 512" style="enable-background:new 0 0 512 512;" xml:space="preserve" width="512" height="512">
<g>
	<g>
		<path style="fill:#FFE077;" d="M392.274,87.661h-8.016c-13.282,0-24.048,10.767-24.048,24.048V63.613&#10;&#9;&#9;&#9;c0-13.282-10.767-24.048-24.048-24.048h-8.016c-13.282,0-24.048,10.767-24.048,24.048V31.548&#10;&#9;&#9;&#9;c0-13.282-10.767-24.048-24.048-24.048h-8.016c-13.282,0-24.048,10.767-24.048,24.048v16.032&#10;&#9;&#9;&#9;c0-13.282-10.767-24.048-24.048-24.048h-8.016c-13.282,0-24.048,10.767-24.048,24.048v211.269l-45.987-64.855&#10;&#9;&#9;&#9;c-7.682-10.834-22.693-13.389-33.527-5.707l-6.539,4.637c-10.834,7.681-13.39,22.692-5.708,33.526l95.293,134.56&#10;&#9;&#9;&#9;c8.133,11.484,12.5,25.208,12.5,39.28v88.177c0,8.854,7.178,16.032,16.032,16.032h144.29c8.854,0,16.032-7.178,16.032-16.032&#10;&#9;&#9;&#9;v-76.502c0-8.746,1.431-17.433,4.237-25.717l9.184-27.113c12.346-36.448,18.644-74.671,18.644-113.154V111.71&#10;&#9;&#9;&#9;C416.323,98.428,405.556,87.661,392.274,87.661z"/>
		<path style="fill:#FFD05B;" d="M399.874,352.194c10.85-34.352,16.449-70.158,16.449-106.212V111.71&#10;&#9;&#9;&#9;c0-13.282-10.767-24.048-24.048-24.048v158.26c0,35.955-5.848,71.452-17.379,105.501l-0.261,0.771H399.874z"/>
		<path style="fill:#FFAA5A;" d="M112.357,188.288l-6.539,4.637c-10.834,7.681-13.39,22.692-5.708,33.526l95.293,134.56&#10;&#9;&#9;&#9;c8.133,11.484,12.5,25.208,12.5,39.28v88.177c0,8.854,7.178,16.032,16.032,16.032h144.29c8.854,0,16.032-7.178,16.032-16.032&#10;&#9;&#9;&#9;v-76.502c0-8.746,1.431-17.434,4.237-25.717l9.184-27.113c10.914-32.222,17.081-65.832,18.37-99.781l-116.035,69.564&#10;&#9;&#9;&#9;c-23.147,13.877-53.076,7.592-68.686-14.423l-85.445-120.501C138.202,183.16,123.191,180.605,112.357,188.288z"/>
		<path style="fill:#FF8B57;" d="M390.841,274.467c-2.291,26.334-7.565,52.209-15.945,76.955l-9.183,27.124&#10;&#9;&#9;&#9;c-3.644,10.765-5.503,22.054-5.503,33.42V504.5h8.016c8.854,0,16.032-7.178,16.032-16.032v-76.502&#10;&#9;&#9;&#9;c0-8.748,1.432-17.436,4.238-25.721l9.184-27.109c10.914-32.222,17.081-65.832,18.37-99.781L390.841,274.467z"/>
		<path style="fill:#FF8B57;" d="M384.258,464.419H207.903c-8.854,0-16.032-7.178-16.032-16.032v-32.065&#10;&#9;&#9;&#9;c0-8.854,7.178-16.032,16.032-16.032h176.355c8.854,0,16.032,7.178,16.032,16.032v32.065&#10;&#9;&#9;&#9;C400.291,457.241,393.113,464.419,384.258,464.419z"/>
		<path style="fill:#FF744D;" d="M384.258,400.29h-16.032v23.519c0,8.854-7.178,16.032-16.032,16.032H191.871v8.546&#10;&#9;&#9;&#9;c0,8.854,7.178,16.032,16.032,16.032h176.355c8.854,0,16.032-7.178,16.032-16.032v-32.065&#10;&#9;&#9;&#9;C400.291,407.468,393.112,400.29,384.258,400.29z"/>
		<path style="fill:#FFD05B;" d="M360.21,207.903V63.613c0-13.282-10.767-24.048-24.048-24.048v144.29&#10;&#9;&#9;&#9;C336.162,197.136,346.928,207.903,360.21,207.903z"/>
		<path style="fill:#FFD05B;" d="M304.097,191.871V31.548c0-13.282-10.767-24.048-24.048-24.048v160.323&#10;&#9;&#9;&#9;C280.049,181.104,290.815,191.871,304.097,191.871z"/>
		<path style="fill:#FFD05B;" d="M223.936,23.532v136.274c0,13.282,10.767,24.048,24.048,24.048V47.581&#10;&#9;&#9;&#9;C247.984,34.299,237.217,23.532,223.936,23.532L223.936,23.532z"/>
	</g>
	<g>
		<path style="fill:none;stroke:#000000;stroke-width:15;stroke-linecap:round;stroke-linejoin:round;stroke-miterlimit:10;" d="&#10;&#9;&#9;&#9;M207.903,464.419v24.048c0,8.854,7.178,16.032,16.032,16.032h144.29c8.854,0,16.032-7.178,16.032-16.032v-24.048"/>
		<path style="fill:none;stroke:#000000;stroke-width:15;stroke-linecap:round;stroke-linejoin:round;stroke-miterlimit:10;" d="&#10;&#9;&#9;&#9;M384.258,398.758l13.42-39.618c12.346-36.449,18.645-74.674,18.645-113.158V111.71c0-13.282-10.767-24.048-24.048-24.048h-8.016&#10;&#9;&#9;&#9;c-13.282,0-24.048,10.767-24.048,24.048V63.613c0-13.282-10.767-24.048-24.048-24.048h-8.016&#10;&#9;&#9;&#9;c-13.282,0-24.048,10.767-24.048,24.048V31.548c0-13.282-10.767-24.048-24.048-24.048h-8.016&#10;&#9;&#9;&#9;c-13.282,0-24.048,10.767-24.048,24.048v16.032c0-13.282-10.767-24.048-24.048-24.048h-8.016&#10;&#9;&#9;&#9;c-13.282,0-24.048,10.767-24.048,24.048v211.269l-45.987-64.855c-7.682-10.834-22.693-13.389-33.527-5.707l-6.539,4.637&#10;&#9;&#9;&#9;c-10.834,7.681-13.39,22.692-5.708,33.526l95.293,134.56c8.133,11.484,12.5,25.208,12.5,39.28l0,0"/>
		<path style="fill:none;stroke:#000000;stroke-width:15;stroke-linecap:round;stroke-linejoin:round;stroke-miterlimit:10;" d="&#10;&#9;&#9;&#9;M231.952,464.419h-24.048c-8.854,0-16.032-7.178-16.032-16.032v-32.065c0-8.854,7.178-16.032,16.032-16.032h176.355&#10;&#9;&#9;&#9;c8.854,0,16.032,7.178,16.032,16.032v32.065c0,8.854-7.178,16.032-16.032,16.032H264.016"/>
		<path style="fill:none;stroke:#000000;stroke-width:15;stroke-linecap:round;stroke-linejoin:round;stroke-miterlimit:10;" d="&#10;&#9;&#9;&#9;M320.129,400.29c8.854,0,16.032,7.178,16.032,16.032v32.065c0,8.854-7.178,16.032-16.032,16.032"/>
		
			<line style="fill:none;stroke:#000000;stroke-width:15;stroke-linecap:round;stroke-linejoin:round;stroke-miterlimit:10;" x1="304.097" y1="63.613" x2="304.097" y2="191.871"/>
		
			<line style="fill:none;stroke:#000000;stroke-width:15;stroke-linecap:round;stroke-linejoin:round;stroke-miterlimit:10;" x1="247.984" y1="47.581" x2="247.984" y2="183.855"/>
		
			<line style="fill:none;stroke:#000000;stroke-width:15;stroke-linecap:round;stroke-linejoin:round;stroke-miterlimit:10;" x1="360.21" y1="111.71" x2="360.21" y2="207.903"/>
		
			<line style="fill:none;stroke:#000000;stroke-width:15;stroke-linecap:round;stroke-linejoin:round;stroke-miterlimit:10;" x1="394.928" y1="271.722" x2="412.803" y2="260.967"/>
		<path style="fill:none;stroke:#000000;stroke-width:15;stroke-linecap:round;stroke-linejoin:round;stroke-miterlimit:10;" d="&#10;&#9;&#9;&#9;M191.871,258.85l39.406,55.573c15.633,22.047,45.617,28.318,68.775,14.384l67.715-40.742"/>
		
			<line style="fill:none;stroke:#000000;stroke-width:15;stroke-linecap:round;stroke-linejoin:round;stroke-miterlimit:10;" x1="336.162" y1="432.355" x2="312.113" y2="432.355"/>
	</g>
</g>















</svg>
