<?xml version="1.0" encoding="UTF-8" standalone="no"?>
<!-- Created with Inkscape (http://www.inkscape.org/) -->

<svg
   version="1.1"
   id="svg3774"
   xml:space="preserve"
   width="682.66669"
   height="682.66669"
   viewBox="0 0 682.66669 682.66669"
   xmlns="http://www.w3.org/2000/svg"
   xmlns:svg="http://www.w3.org/2000/svg"><defs
     id="defs3778"><clipPath
       clipPathUnits="userSpaceOnUse"
       id="clipPath3788"><path
         d="M 0,512 H 512 V 0 H 0 Z"
         id="path3786" /></clipPath></defs><g
     id="g3780"
     transform="matrix(1.3333333,0,0,-1.3333333,0,682.66667)"><g
       id="g3782"><g
         id="g3784"
         clip-path="url(#clipPath3788)"><g
           id="g3790"
           transform="translate(355.3965,216.9683)"><path
             d="m 0,0 12.126,12.126 9.451,0.258 1.156,10.348 11.457,11.458 c 6.709,6.708 14.741,11.287 23.256,13.736 18.304,5.263 28.84,0.685 43.261,-13.736 6.315,-6.315 6.315,-16.554 0,-22.869 L -11.308,-100.694 c -5.054,-5.055 -7.894,-11.91 -7.894,-19.057 v -38.915 c 0,-14.885 -2.066,-26.951 -16.951,-26.951 h -227.203 c -14.885,0 -26.952,12.066 -26.952,26.951 v 272.404 l 10,7.5 -10,7.5 v 37.411 c 0,19.406 15.732,35.138 35.139,35.138 1.745,0 3.461,-0.127 5.139,-0.373 16.97,-2.487 17.739,-29.346 29.999,-34.765 v 43.122 c 0,19.406 15.732,35.138 35.138,35.138 1.746,0 3.462,-0.127 5.139,-0.373 16.97,-2.487 19.474,-36.036 29.999,-34.765 v 43.123 c 0,19.406 15.732,35.138 35.138,35.138 h 0.001 c 1.745,0 3.461,-0.128 5.138,-0.373 16.971,-2.487 24.458,-21.453 24.458,-39.115 l 5.542,-38.773 c 0,14.04 8.234,26.156 20.136,31.784 4.55,2.151 9.635,2.354 15.002,2.354 19.406,0 25.138,-14.732 25.138,-34.138 l 10,-205.459 C -9.202,-0.991 -3.396,-3.396 0,0"
             style="fill:#82ade3;fill-opacity:1;fill-rule:nonzero;stroke:none"
             id="path3792" /></g><g
           id="g3794"
           transform="translate(270.9185,284.7896)"><path
             d="m 0,0 v 0 c 2.761,0 5,2.238 5,5 v 98.747 L 1.596,110.641 5,118.747 v 22.703 43.122 c 0,17.66 -13.03,32.273 -30,34.761 V 25 C -25,11.193 -13.807,0 0,0"
             style="fill:#528fd8;fill-opacity:1;fill-rule:nonzero;stroke:none"
             id="path3796" /></g><g
           id="g3798"
           transform="translate(200.6416,284.7896)"><path
             d="m 0,0 v 0 c 2.762,0 5,2.238 5,5 v 73.484 l -10,7.5 10,7.5 v 47.966 c 0,17.66 -13.03,32.273 -30,34.76 V 25 C -25,11.193 -13.807,0 0,0"
             style="fill:#528fd8;fill-opacity:1;fill-rule:nonzero;stroke:none"
             id="path3800" /></g><g
           id="g3802"
           transform="translate(130.3652,284.7896)"><path
             d="m 0,0 v 0 c 2.762,0 5,2.238 5,5 v 40.917 l -1,7.5 1,7.5 v 37.411 c 0,17.66 -13.03,32.273 -30,34.76 V 25 C -25,11.193 -13.807,0 0,0"
             style="fill:#528fd8;fill-opacity:1;fill-rule:nonzero;stroke:none"
             id="path3804" /></g><g
           id="g3806"
           transform="translate(466.1035,251.1582)"><path
             d="M 0,0 V 0 C -14.421,14.42 -34.955,18.991 -53.258,13.728 -44.743,11.279 -36.709,6.708 -30,0 c 6.315,-6.315 6.315,-16.554 0,-22.869 l -112.015,-112.015 c -5.054,-5.054 -7.894,-11.909 -7.894,-19.057 v -38.915 c 0,-14.885 -12.066,-26.951 -26.951,-26.951 h 30 c 14.885,0 26.951,12.066 26.951,26.951 v 38.915 c 0,7.148 2.84,14.003 7.894,19.057 l 63.127,63.127 1.004,8.17 9.603,2.437 L 0,-22.869 C 6.315,-16.554 6.315,-6.315 0,0"
             style="fill:#528fd8;fill-opacity:1;fill-rule:nonzero;stroke:none"
             id="path3808" /></g><g
           id="g3810"
           transform="translate(336.1914,7.5)"><path
             d="M 0,0 H -140.528 V 51.074 H 0 c 14.104,0 25.537,-11.433 25.537,-25.537 C 25.537,11.433 14.104,0 0,0"
             style="fill:#ffe177;fill-opacity:1;fill-rule:nonzero;stroke:none"
             id="path3812" /></g><g
           id="g3814"
           transform="translate(346.1914,58.5742)"><path
             d="m 0,0 h -40 c 14.104,0 25.537,-11.433 25.537,-25.537 0,-14.104 -11.433,-25.537 -25.537,-25.537 H 0 c 14.104,0 25.537,11.433 25.537,25.537 C 25.537,-11.433 14.104,0 0,0"
             style="fill:#ffd15c;fill-opacity:1;fill-rule:nonzero;stroke:none"
             id="path3816" /></g><g
           id="g3818"
           transform="translate(213.2119,7.5)"><path
             d="m 0,0 h -155.881 c -8.931,0 -16.171,7.24 -16.171,16.171 v 51.88 c 0,8.931 7.24,16.171 16.171,16.171 h 112.634 c 10.116,0 19.38,-5.664 23.99,-14.668 L 8.901,14.558 C 12.308,7.903 7.476,0 0,0"
             style="fill:#ebf8fa;fill-opacity:1;fill-rule:nonzero;stroke:none"
             id="path3820" /></g><g
           id="g3822"
           transform="translate(238.2861,143.5171)"><path
             d="m 0,0 h -65.289 c -20.783,0 -37.632,16.849 -37.632,37.632 0,20.785 16.849,37.633 37.632,37.633 H 0 c 20.784,0 37.632,-16.848 37.632,-37.633 C 37.632,16.849 20.784,0 0,0"
             style="fill:#fed2a4;fill-opacity:1;fill-rule:nonzero;stroke:none"
             id="path3824" /></g><g
           id="g3826"
           transform="translate(242.1133,22.0576)"><path
             d="M 0,0 -28.159,54.996 C -32.769,64 -42.033,69.665 -52.148,69.665 h -40 c 10.115,0 19.379,-5.665 23.989,-14.669 L -40,0 c 3.407,-6.654 -1.426,-14.558 -8.901,-14.558 h 40 C -1.426,-14.558 3.407,-6.654 0,0"
             style="fill:#d3f2f6;fill-opacity:1;fill-rule:nonzero;stroke:none"
             id="path3828" /></g><g
           id="g3830"
           transform="translate(316.1948,426.2393)"><path
             d="m 0,0 v -193.046 c 0,-15.657 18.929,-23.498 30,-12.427 v 142.507 l -10,7.501 10,7.499 V 0 c 0,19.406 -15.732,35.138 -35.138,35.138 -5.367,0 -10.45,-1.207 -15,-3.359 C -8.236,26.151 0,14.04 0,0"
             style="fill:#528fd8;fill-opacity:1;fill-rule:nonzero;stroke:none"
             id="path3832" /></g><g
           id="g3834"
           transform="translate(275.9185,426.2393)"><path
             d="M 0,0 V -136.752"
             style="fill:none;stroke:#000000;stroke-width:15;stroke-linecap:round;stroke-linejoin:round;stroke-miterlimit:10;stroke-dasharray:none;stroke-opacity:1"
             id="path3836" /></g><g
           id="g3838"
           transform="translate(205.6416,426.2393)"><path
             d="M 0,0 V -136.752"
             style="fill:none;stroke:#000000;stroke-width:15;stroke-linecap:round;stroke-linejoin:round;stroke-miterlimit:10;stroke-dasharray:none;stroke-opacity:1"
             id="path3840" /></g><g
           id="g3842"
           transform="translate(135.3652,426.2393)"><path
             d="M 0,0 V -136.752"
             style="fill:none;stroke:#000000;stroke-width:15;stroke-linecap:round;stroke-linejoin:round;stroke-miterlimit:10;stroke-dasharray:none;stroke-opacity:1"
             id="path3844" /></g><g
           id="g3846"
           transform="translate(65.0889,338.2065)"><path
             d="M 0,0 H 70.276"
             style="fill:none;stroke:#000000;stroke-width:15;stroke-linecap:round;stroke-linejoin:round;stroke-miterlimit:10;stroke-dasharray:none;stroke-opacity:1"
             id="path3848" /></g><g
           id="g3850"
           transform="translate(135.4243,370.7734)"><path
             d="M 0,0 H 70.217"
             style="fill:none;stroke:#000000;stroke-width:15;stroke-linecap:round;stroke-linejoin:round;stroke-miterlimit:10;stroke-dasharray:none;stroke-opacity:1"
             id="path3852" /></g><g
           id="g3854"
           transform="translate(275.9185,370.7734)"><path
             d="M 0,0 H 70.276"
             style="fill:none;stroke:#000000;stroke-width:15;stroke-linecap:round;stroke-linejoin:round;stroke-miterlimit:10;stroke-dasharray:none;stroke-opacity:1"
             id="path3856" /></g><g
           id="g3858"
           transform="translate(205.6416,396.0366)"><path
             d="M 0,0 H 70.277"
             style="fill:none;stroke:#000000;stroke-width:15;stroke-linecap:round;stroke-linejoin:round;stroke-miterlimit:10;stroke-dasharray:none;stroke-opacity:1"
             id="path3860" /></g><g
           id="g3862"
           transform="translate(422.519,184.7046)"><path
             d="M 0,0 -49.693,49.693"
             style="fill:none;stroke:#000000;stroke-width:15;stroke-linecap:round;stroke-linejoin:round;stroke-miterlimit:10;stroke-dasharray:none;stroke-opacity:1"
             id="path3864" /></g><g
           id="g3866"
           transform="translate(95.75,49.6113)"><path
             d="M 0,0 H 49.613"
             style="fill:none;stroke:#000000;stroke-width:15;stroke-linecap:round;stroke-linejoin:round;stroke-miterlimit:10;stroke-dasharray:none;stroke-opacity:1"
             id="path3868" /></g><g
           id="g3870"
           transform="translate(226.1147,58.5742)"><path
             d="m 0,0 h 120.077 c 14.103,0 25.537,-11.433 25.537,-25.537 0,-14.104 -11.434,-25.537 -25.537,-25.537 H 7.097"
             style="fill:none;stroke:#000000;stroke-width:15;stroke-linecap:round;stroke-linejoin:round;stroke-miterlimit:10;stroke-dasharray:none;stroke-opacity:1"
             id="path3872" /></g><g
           id="g3874"
           transform="translate(215.0835,218.7822)"><path
             d="m 0,0 h 23.203 c 20.783,0 37.632,-16.849 37.632,-37.633 0,-20.784 -16.849,-37.632 -37.632,-37.632 h -65.289 c -20.784,0 -37.632,16.848 -37.632,37.632 0,20.784 16.848,37.633 37.632,37.633 h 9.399"
             style="fill:none;stroke:#000000;stroke-width:15;stroke-linecap:round;stroke-linejoin:round;stroke-miterlimit:10;stroke-dasharray:none;stroke-opacity:1"
             id="path3876" /></g><g
           id="g3878"
           transform="translate(128.7412,91.7222)"><path
             d="m 0,0 h 61.224 c 10.115,0 19.379,-5.665 23.989,-14.668 l 28.159,-54.997 c 3.407,-6.654 -1.426,-14.557 -8.901,-14.557 H -71.41 c -8.931,0 -16.171,7.24 -16.171,16.171 v 51.88 C -87.581,-7.24 -80.341,0 -71.41,0 h 38.419"
             style="fill:none;stroke:#000000;stroke-width:15;stroke-linecap:round;stroke-linejoin:round;stroke-miterlimit:10;stroke-dasharray:none;stroke-opacity:1"
             id="path3880" /></g><g
           id="g3882"
           transform="translate(346.1948,273.144)"><path
             d="m 0,0 v -52.364 c 0,-4.803 5.806,-7.208 9.202,-3.812 l 34.19,34.19 c 21.129,21.13 55.387,21.13 76.517,0 6.315,-6.315 6.315,-16.554 0,-22.869 L 7.894,-156.87 C 2.839,-161.924 0,-168.78 0,-175.927 v -36.915"
             style="fill:none;stroke:#000000;stroke-width:15;stroke-linecap:round;stroke-linejoin:round;stroke-miterlimit:10;stroke-dasharray:none;stroke-opacity:1"
             id="path3884" /></g><g
           id="g3886"
           transform="translate(65.0889,95.1616)"><path
             d="m 0,0 v 287.956 c 0,19.406 15.732,35.138 35.138,35.138 19.406,0 35.138,-15.732 35.138,-35.138 v 43.122 c 0,19.406 15.732,35.138 35.139,35.138 19.406,0 35.138,-15.732 35.138,-35.138 V 374.2 c 0,19.406 15.732,35.138 35.138,35.138 v 0 c 19.407,0 35.139,-15.732 35.139,-35.138 v -43.122 c 0,19.406 15.732,35.138 35.138,35.138 19.406,0 35.138,-15.732 35.138,-35.138 v -120.41"
             style="fill:none;stroke:#000000;stroke-width:15;stroke-linecap:round;stroke-linejoin:round;stroke-miterlimit:10;stroke-dasharray:none;stroke-opacity:1"
             id="path3888" /></g></g></g></g></svg>
