<?xml version="1.0" encoding="iso-8859-1"?>
<!-- Generator: Adobe Illustrator 19.0.0, SVG Export Plug-In . SVG Version: 6.00 Build 0)  -->
<svg xmlns="http://www.w3.org/2000/svg" xmlns:xlink="http://www.w3.org/1999/xlink" version="1.1" id="Capa_1" x="0px" y="0px" viewBox="0 0 512 512" style="enable-background:new 0 0 512 512;" xml:space="preserve" width="512" height="512">
<g>
	<path style="fill:#606572;" d="M315.072,32.811v187.538c0,5.428-4.4,9.829-9.829,9.829h-98.486c-5.428,0-9.829-4.4-9.829-9.829   V32.811c0-13.979,11.332-25.311,25.311-25.311h67.521C303.739,7.5,315.072,18.832,315.072,32.811z"/>
	<path style="fill:#3B4254;" d="M289.76,7.5h-20.869c13.979,0,25.311,11.332,25.311,25.311v187.537c0,5.428-4.4,9.829-9.829,9.829   h20.869c5.428,0,9.829-4.4,9.829-9.829V32.811C315.072,18.832,303.739,7.5,289.76,7.5z"/>
	<path style="fill:#78BAF6;" d="M280.77,303.142c1.768,8.679,4.785,16.41,8.7,22.617c4.125,6.54,6.503,14.028,6.503,21.761v117.008   c0,22.077-17.897,39.973-39.973,39.973h0c-22.077,0-39.973-17.897-39.973-39.973V347.519c0-7.732,2.378-15.221,6.503-21.761   c3.915-6.207,6.933-13.938,8.7-22.617c1.159-5.636,1.786-11.686,1.786-17.961c0-26.915-11.459-49.42-26.782-55.003h99.533   c-15.323,5.583-26.782,28.088-26.782,55.003C278.985,291.456,279.611,297.505,280.77,303.142z"/>
	<path style="fill:#1885DA;" d="M280.77,303.142c-1.159-5.636-1.786-11.686-1.786-17.961c0-26.915,11.459-49.42,26.782-55.003   h-23.25c-15.323,5.583-26.782,28.088-26.782,55.003c0,6.276,0.626,12.325,1.786,17.961c1.768,8.679,4.785,16.41,8.7,22.617   c4.125,6.54,6.503,14.028,6.503,21.761v117.008c0,18.032-11.943,33.271-28.348,38.25c3.679,1.117,7.581,1.723,11.625,1.723l0,0   c22.077,0,39.973-17.896,39.973-39.973V347.519c0-7.732-2.377-15.221-6.503-21.761C285.555,319.551,282.538,311.82,280.77,303.142z   "/>
	<g>
		<path d="M333.667,19.724c-2.616,0-4.916,1.341-6.258,3.371h-6.306C316.951,9.732,304.471,0,289.761,0h-52.485    c-4.143,0-7.5,3.358-7.5,7.5s3.357,7.5,7.5,7.5h52.485c6.236,0,11.725,3.228,14.908,8.095h-7.402c-4.143,0-7.5,3.358-7.5,7.5    s3.357,7.5,7.5,7.5h10.305v20.297h-10.305c-4.143,0-7.5,3.358-7.5,7.5s3.357,7.5,7.5,7.5h10.305V93.69h-10.305    c-4.143,0-7.5,3.358-7.5,7.5s3.357,7.5,7.5,7.5h10.305v20.297h-10.305c-4.143,0-7.5,3.358-7.5,7.5s3.357,7.5,7.5,7.5h10.305    v20.297h-10.305c-4.143,0-7.5,3.358-7.5,7.5s3.357,7.5,7.5,7.5h10.305v20.297h-10.305c-4.143,0-7.5,3.358-7.5,7.5    s3.357,7.5,7.5,7.5h10.305v5.767c0,1.284-1.044,2.329-2.328,2.329h-98.486c-1.284,0-2.328-1.044-2.328-2.329v-5.767h10.305    c4.143,0,7.5-3.358,7.5-7.5s-3.357-7.5-7.5-7.5h-10.305v-20.297h10.305c4.143,0,7.5-3.358,7.5-7.5s-3.357-7.5-7.5-7.5h-10.305    v-20.297h10.305c4.143,0,7.5-3.358,7.5-7.5s-3.357-7.5-7.5-7.5h-10.305V108.69h10.305c4.143,0,7.5-3.358,7.5-7.5    s-3.357-7.5-7.5-7.5h-10.305V73.393h10.305c4.143,0,7.5-3.358,7.5-7.5s-3.357-7.5-7.5-7.5h-10.305V38.095h10.305    c4.143,0,7.5-3.358,7.5-7.5s-3.357-7.5-7.5-7.5h-7.405c1.515-2.328,3.57-4.313,6.052-5.74c3.591-2.065,4.828-6.65,2.764-10.241    c-2.065-3.59-6.649-4.828-10.24-2.763c-7.265,4.177-12.546,10.948-14.976,18.744h-6.336c-1.342-2.03-3.642-3.371-6.258-3.371    c-4.143,0-7.5,3.358-7.5,7.5v6.742c0,4.142,3.357,7.5,7.5,7.5c2.616,0,4.916-1.341,6.258-3.371h4.837v20.297h-4.837    c-1.342-2.03-3.642-3.371-6.258-3.371c-4.143,0-7.5,3.358-7.5,7.5v6.742c0,4.142,3.357,7.5,7.5,7.5    c2.616,0,4.916-1.341,6.258-3.371h4.837V93.69h-4.837c-1.342-2.03-3.642-3.371-6.258-3.371c-4.143,0-7.5,3.358-7.5,7.5v6.742    c0,4.142,3.357,7.5,7.5,7.5c2.616,0,4.916-1.341,6.258-3.371h4.837v20.297h-4.837c-1.342-2.03-3.642-3.371-6.258-3.371    c-4.143,0-7.5,3.358-7.5,7.5v6.742c0,4.142,3.357,7.5,7.5,7.5c2.616,0,4.916-1.341,6.258-3.371h4.837v20.297h-4.837    c-1.342-2.03-3.642-3.371-6.258-3.371c-4.143,0-7.5,3.358-7.5,7.5v6.742c0,4.142,3.357,7.5,7.5,7.5    c2.616,0,4.916-1.341,6.258-3.371h4.837v20.297h-4.837c-1.342-2.03-3.642-3.371-6.258-3.371c-4.143,0-7.5,3.358-7.5,7.5v6.742    c0,4.142,3.357,7.5,7.5,7.5c2.616,0,4.916-1.341,6.258-3.371h4.837v5.767c0,8.705,6.458,15.91,14.831,17.127    c8.205,3.364,15.424,14.054,18.934,28.159c1.001,4.02,5.068,6.464,9.09,5.466c4.02-1,6.467-5.07,5.467-9.089    c-2.355-9.461-6.112-17.752-10.872-24.334h58.25c-8.48,11.758-13.644,28.796-13.644,47.503c0,6.667,0.652,13.219,1.937,19.458    c1.916,9.407,5.272,18.094,9.706,25.122c3.498,5.545,5.347,11.687,5.347,17.759v117.008C288.474,482.433,273.906,497,256,497    s-32.474-14.567-32.474-32.473V347.519c0-6.073,1.849-12.214,5.346-17.759c4.435-7.028,7.791-15.715,9.703-25.107    c0.794-3.857,1.352-7.868,1.656-11.918c0.312-4.13-2.785-7.731-6.915-8.042c-4.138-0.301-7.731,2.785-8.042,6.916    c-0.258,3.416-0.726,6.787-1.395,10.036c-1.557,7.647-4.218,14.602-7.694,20.113c-5.011,7.944-7.659,16.853-7.659,25.761v117.008    C208.526,490.704,229.823,512,256,512s47.474-21.296,47.474-47.473V347.519c0-8.909-2.648-17.817-7.66-25.762    c-3.476-5.51-6.137-12.465-7.697-20.128c-1.083-5.261-1.632-10.795-1.632-16.449c0-22.411,9.078-42.701,21.216-47.698    c8.392-1.2,14.871-8.415,14.871-17.134v-5.767h4.837c1.342,2.03,3.642,3.371,6.258,3.371c4.143,0,7.5-3.358,7.5-7.5v-6.742    c0-4.142-3.357-7.5-7.5-7.5c-2.616,0-4.916,1.341-6.258,3.371h-4.837v-20.297h4.837c1.342,2.03,3.642,3.371,6.258,3.371    c4.143,0,7.5-3.358,7.5-7.5v-6.742c0-4.142-3.357-7.5-7.5-7.5c-2.616,0-4.916,1.341-6.258,3.371h-4.837v-20.297h4.837    c1.342,2.03,3.642,3.371,6.258,3.371c4.143,0,7.5-3.358,7.5-7.5v-6.742c0-4.142-3.357-7.5-7.5-7.5    c-2.616,0-4.916,1.341-6.258,3.371h-4.837V108.69h4.837c1.342,2.03,3.642,3.371,6.258,3.371c4.143,0,7.5-3.358,7.5-7.5v-6.742    c0-4.142-3.357-7.5-7.5-7.5c-2.616,0-4.916,1.341-6.258,3.371h-4.837V73.393h4.837c1.342,2.03,3.642,3.371,6.258,3.371    c4.143,0,7.5-3.358,7.5-7.5v-6.742c0-4.142-3.357-7.5-7.5-7.5c-2.616,0-4.916,1.341-6.258,3.371h-4.837V38.095h4.837    c1.342,2.03,3.642,3.371,6.258,3.371c4.143,0,7.5-3.358,7.5-7.5v-6.742C341.167,23.082,337.81,19.724,333.667,19.724z"/>
		<path d="M237.959,38.095h3.773c4.143,0,7.5-3.358,7.5-7.5s-3.357-7.5-7.5-7.5h-3.773c-4.143,0-7.5,3.358-7.5,7.5    S233.816,38.095,237.959,38.095z"/>
		<path d="M270.268,38.095h3.773c4.143,0,7.5-3.358,7.5-7.5s-3.357-7.5-7.5-7.5h-3.773c-4.143,0-7.5,3.358-7.5,7.5    S266.125,38.095,270.268,38.095z"/>
		<path d="M237.959,73.393h3.773c4.143,0,7.5-3.358,7.5-7.5s-3.357-7.5-7.5-7.5h-3.773c-4.143,0-7.5,3.358-7.5,7.5    S233.816,73.393,237.959,73.393z"/>
		<path d="M270.268,73.393h3.773c4.143,0,7.5-3.358,7.5-7.5s-3.357-7.5-7.5-7.5h-3.773c-4.143,0-7.5,3.358-7.5,7.5    S266.125,73.393,270.268,73.393z"/>
		<path d="M237.959,108.69h3.773c4.143,0,7.5-3.358,7.5-7.5s-3.357-7.5-7.5-7.5h-3.773c-4.143,0-7.5,3.358-7.5,7.5    S233.816,108.69,237.959,108.69z"/>
		<path d="M270.268,108.69h3.773c4.143,0,7.5-3.358,7.5-7.5s-3.357-7.5-7.5-7.5h-3.773c-4.143,0-7.5,3.358-7.5,7.5    S266.125,108.69,270.268,108.69z"/>
		<path d="M237.959,143.987h3.773c4.143,0,7.5-3.358,7.5-7.5s-3.357-7.5-7.5-7.5h-3.773c-4.143,0-7.5,3.358-7.5,7.5    S233.816,143.987,237.959,143.987z"/>
		<path d="M270.268,143.987h3.773c4.143,0,7.5-3.358,7.5-7.5s-3.357-7.5-7.5-7.5h-3.773c-4.143,0-7.5,3.358-7.5,7.5    S266.125,143.987,270.268,143.987z"/>
		<path d="M237.959,179.285h3.773c4.143,0,7.5-3.358,7.5-7.5s-3.357-7.5-7.5-7.5h-3.773c-4.143,0-7.5,3.358-7.5,7.5    S233.816,179.285,237.959,179.285z"/>
		<path d="M270.268,179.285h3.773c4.143,0,7.5-3.358,7.5-7.5s-3.357-7.5-7.5-7.5h-3.773c-4.143,0-7.5,3.358-7.5,7.5    S266.125,179.285,270.268,179.285z"/>
		<path d="M237.959,214.582h3.773c4.143,0,7.5-3.358,7.5-7.5s-3.357-7.5-7.5-7.5h-3.773c-4.143,0-7.5,3.358-7.5,7.5    S233.816,214.582,237.959,214.582z"/>
		<path d="M270.268,214.582h3.773c4.143,0,7.5-3.358,7.5-7.5s-3.357-7.5-7.5-7.5h-3.773c-4.143,0-7.5,3.358-7.5,7.5    S266.125,214.582,270.268,214.582z"/>
	</g>
</g>















</svg>
