<?xml version="1.0" encoding="UTF-8"?>
<svg xmlns="http://www.w3.org/2000/svg" xmlns:xlink="http://www.w3.org/1999/xlink" version="1.1" id="Capa_1" x="0px" y="0px" viewBox="0 0 512 512" style="enable-background:new 0 0 512 512;" xml:space="preserve" width="512" height="512">
<g>
	<g>
		<g>
			<path style="fill:#D77F4A;" d="M52.957,364.308c-11.083,0.264-18.846-12.631-13.207-22.307l58.46-106.829&#10;&#9;&#9;&#9;&#9;c3.995-7.3,13.154-9.981,20.453-5.986c7.301,3.996,9.982,13.153,5.986,20.454L66.191,356.47&#10;&#9;&#9;&#9;&#9;C63.452,361.475,58.286,364.308,52.957,364.308z"/>
		</g>
		<g>
			<path style="fill:#D77F4A;" d="M459.043,364.308c11.083,0.264,18.846-12.631,13.207-22.307l-58.46-106.829&#10;&#9;&#9;&#9;&#9;c-3.995-7.3-13.154-9.981-20.453-5.986c-7.301,3.996-9.982,13.153-5.986,20.454l58.458,106.829&#10;&#9;&#9;&#9;&#9;C448.548,361.475,453.714,364.308,459.043,364.308z"/>
		</g>
		<g>
			<path style="fill:#D77F4A;" d="M52.957,364.308c-11.083,0.264-18.846-12.631-13.207-22.307l58.46-106.829&#10;&#9;&#9;&#9;&#9;c3.995-7.3,13.154-9.981,20.453-5.986c7.301,3.996,9.982,13.153,5.986,20.454L66.191,356.47&#10;&#9;&#9;&#9;&#9;C63.452,361.475,58.286,364.308,52.957,364.308z"/>
		</g>
		<g>
			<path style="fill:#D77F4A;" d="M459.043,364.308c11.083,0.264,18.846-12.631,13.207-22.307l-58.46-106.829&#10;&#9;&#9;&#9;&#9;c-3.995-7.3-13.154-9.981-20.453-5.986c-7.301,3.996-9.982,13.153-5.986,20.454l58.458,106.829&#10;&#9;&#9;&#9;&#9;C448.548,361.475,453.714,364.308,459.043,364.308z"/>
		</g>
		<g>
			<path style="fill:#D77F4A;" d="M52.957,364.308c-11.083,0.264-18.846-12.631-13.207-22.307l58.46-106.829&#10;&#9;&#9;&#9;&#9;c3.995-7.3,13.154-9.981,20.453-5.986c7.301,3.996,9.982,13.153,5.986,20.454L66.191,356.47&#10;&#9;&#9;&#9;&#9;C63.452,361.475,58.286,364.308,52.957,364.308z"/>
		</g>
		<g>
			<path style="fill:#C86D36;" d="M459.043,364.308c11.083,0.264,18.846-12.631,13.207-22.307l-58.46-106.829&#10;&#9;&#9;&#9;&#9;c-3.995-7.3-13.154-9.981-20.453-5.986c-7.301,3.996-9.982,13.153-5.986,20.454l58.458,106.829&#10;&#9;&#9;&#9;&#9;C448.548,361.475,453.714,364.308,459.043,364.308z"/>
		</g>
		<path style="fill:#70D162;" d="M124.649,249.641c0,0,125.682,35.311,262.703,0l58.458,106.829l-76.497,40.311&#10;&#9;&#9;&#9;c-70.919,37.371-155.704,37.371-226.623,0L66.191,356.47L124.649,249.641z"/>
		<path style="fill:#58C945;" d="M387.351,249.641c-8.959,2.309-17.868,4.309-26.698,6.043l50.723,92.694&#10;&#9;&#9;&#9;c2.434,4.448,0.753,10.028-3.732,12.392l-68.337,36.01c-30.902,16.284-64.436,25.466-98.309,27.559&#10;&#9;&#9;&#9;c43.865,2.71,88.297-6.472,128.314-27.559l76.497-40.311L387.351,249.641z"/>
	</g>
	<g>
		<g>
			<path style="fill:none;stroke:#000000;stroke-width:15;stroke-linecap:round;stroke-linejoin:round;stroke-miterlimit:10;" d="&#10;&#9;&#9;&#9;&#9;M52.957,364.308c-11.083,0.264-18.846-12.631-13.207-22.307l58.46-106.829c3.995-7.3,13.154-9.981,20.453-5.986&#10;&#9;&#9;&#9;&#9;c7.301,3.996,9.982,13.153,5.986,20.454L66.191,356.47C63.452,361.475,58.286,364.308,52.957,364.308z"/>
		</g>
		
			<polyline style="fill:none;stroke:#000000;stroke-width:15;stroke-linecap:round;stroke-linejoin:round;stroke-miterlimit:10;" points="&#10;&#9;&#9;&#9;98.21,235.173 7.5,178.792 39.751,342.002 &#9;&#9;"/>
		
			<polyline style="fill:none;stroke:#000000;stroke-width:15;stroke-linecap:round;stroke-linejoin:round;stroke-miterlimit:10;" points="&#10;&#9;&#9;&#9;7.5,87.191 7.5,178.792 70.97,284.952 &#9;&#9;"/>
		<g>
			<path style="fill:none;stroke:#000000;stroke-width:15;stroke-linecap:round;stroke-linejoin:round;stroke-miterlimit:10;" d="&#10;&#9;&#9;&#9;&#9;M414.661,299.549l31.148,56.921c2.739,5.005,7.905,7.838,13.234,7.838c11.083,0.264,18.846-12.631,13.207-22.307l-58.46-106.829&#10;&#9;&#9;&#9;&#9;c-3.995-7.3-13.154-9.981-20.453-5.986c-7.301,3.996-9.982,13.153-5.986,20.454l10.429,19.058"/>
		</g>
		
			<polyline style="fill:none;stroke:#000000;stroke-width:15;stroke-linecap:round;stroke-linejoin:round;stroke-miterlimit:10;" points="&#10;&#9;&#9;&#9;413.79,235.173 504.5,178.792 472.249,342.002 &#9;&#9;"/>
		
			<polyline style="fill:none;stroke:#000000;stroke-width:15;stroke-linecap:round;stroke-linejoin:round;stroke-miterlimit:10;" points="&#10;&#9;&#9;&#9;504.5,87.191 504.5,178.792 441.03,284.952 &#9;&#9;"/>
		<path style="fill:none;stroke:#000000;stroke-width:15;stroke-linecap:round;stroke-linejoin:round;stroke-miterlimit:10;" d="&#10;&#9;&#9;&#9;M66.191,356.47l58.458-106.829c0,0,125.682,35.311,262.703,0"/>
		<path style="fill:none;stroke:#000000;stroke-width:15;stroke-linecap:round;stroke-linejoin:round;stroke-miterlimit:10;" d="&#10;&#9;&#9;&#9;M445.809,356.47l-76.497,40.311c-70.919,37.371-155.704,37.371-226.623,0l-45.269-23.855"/>
		<g>
			<path style="fill:none;stroke:#000000;stroke-width:15;stroke-linecap:round;stroke-linejoin:round;stroke-miterlimit:10;" d="&#10;&#9;&#9;&#9;&#9;M308.53,381.172c17.67-2.58,35.47-6.46,53.38-11.67c0.62-0.18,3.2-1.36,7.03-3.19"/>
			<path style="fill:none;stroke:#000000;stroke-width:15;stroke-linecap:round;stroke-linejoin:round;stroke-miterlimit:10;" d="&#10;&#9;&#9;&#9;&#9;M143,366.462c3.52,1.59,6.05,2.67,7.09,2.98c17.63,5.27,35.43,9.23,53.37,11.84"/>
			<path style="fill:none;stroke:#000000;stroke-width:15;stroke-linecap:round;stroke-linejoin:round;stroke-miterlimit:10;" d="&#10;&#9;&#9;&#9;&#9;M305.42,351.752c17.572-2.569,35.447-5.263,53.03-10.92"/>
			<path style="fill:none;stroke:#000000;stroke-width:15;stroke-linecap:round;stroke-linejoin:round;stroke-miterlimit:10;" d="&#10;&#9;&#9;&#9;&#9;M153.54,340.842c17.258,5.326,34.79,8.595,53.02,11.08"/>
			<path style="fill:none;stroke:#000000;stroke-width:15;stroke-linecap:round;stroke-linejoin:round;stroke-miterlimit:10;" d="&#10;&#9;&#9;&#9;&#9;M302.32,322.402c14.74-1.65,29.7-4.11,44.78-7.45c0.2-0.04,0.41-0.09,0.64-0.15"/>
			<path style="fill:none;stroke:#000000;stroke-width:15;stroke-linecap:round;stroke-linejoin:round;stroke-miterlimit:10;" d="&#10;&#9;&#9;&#9;&#9;M164.34,314.622c0.19,0.05,0.38,0.1,0.56,0.14c14.19,3.41,29.16,6.05,44.76,7.8"/>
			<path style="fill:none;stroke:#000000;stroke-width:15;stroke-linecap:round;stroke-linejoin:round;stroke-miterlimit:10;" d="&#10;&#9;&#9;&#9;&#9;M336.78,288.192c-12.69,2.22-25.23,3.86-37.54,4.98"/>
			<path style="fill:none;stroke:#000000;stroke-width:15;stroke-linecap:round;stroke-linejoin:round;stroke-miterlimit:10;" d="&#10;&#9;&#9;&#9;&#9;M175.29,288.002c11.65,2.18,24.2,3.95,37.47,5.19"/>
		</g>
	</g>
</g>















</svg>
