<?xml version="1.0" encoding="UTF-8" standalone="no"?>
<!-- Created with Inkscape (http://www.inkscape.org/) -->

<svg
   version="1.1"
   id="svg4782"
   xml:space="preserve"
   width="682.66669"
   height="682.66669"
   viewBox="0 0 682.66669 682.66669"
   xmlns="http://www.w3.org/2000/svg"
   xmlns:svg="http://www.w3.org/2000/svg"><defs
     id="defs4786"><clipPath
       clipPathUnits="userSpaceOnUse"
       id="clipPath4796"><path
         d="M 0,512 H 512 V 0 H 0 Z"
         id="path4794" /></clipPath></defs><g
     id="g4788"
     transform="matrix(1.3333333,0,0,-1.3333333,0,682.66667)"><g
       id="g4790"><g
         id="g4792"
         clip-path="url(#clipPath4796)"><g
           id="g4798"
           transform="translate(492.9238,143.7734)"><path
             d="m 0,0 -149.991,76.633 c -0.006,0.003 -23.338,13.093 -35.267,45.509 -8.2,22.279 -28.333,33.703 -51.666,33.703 -23.333,0 -43.466,-11.424 -51.665,-33.703 -11.93,-32.418 -35.265,-45.508 -35.267,-45.509 L -473.848,0 c -9.99,-5.104 -13.952,-17.342 -8.847,-27.333 5.104,-9.991 17.341,-13.952 27.333,-8.848 l 161.24,82.381 c 35.924,18.354 78.473,18.354 114.396,0 l 161.241,-82.381 c 9.991,-5.104 22.228,-1.143 27.333,8.848 C 13.952,-17.342 9.991,-5.104 0,0"
             style="fill:#eb966d;fill-opacity:1;fill-rule:nonzero;stroke:none"
             id="path4800" /></g><g
           id="g4802"
           transform="translate(501.7715,134.4404)"><path
             d="m 0,0 c -5.104,-9.991 -17.342,-13.952 -27.333,-8.848 l -161.24,82.38 c -35.924,18.355 -78.473,18.355 -114.397,0 l -161.24,-82.38 c -9.991,-5.104 -22.228,-1.143 -27.333,8.848 -0.039,0.076 -0.065,0.154 -0.103,0.23 -2.741,-5.558 -2.933,-12.287 0.103,-18.23 5.105,-9.991 17.342,-13.952 27.333,-8.848 l 161.24,82.38 c 35.924,18.355 78.473,18.355 114.397,0 l 161.24,-82.38 C -17.342,-31.952 -5.104,-27.991 0,-18 3.037,-12.057 2.844,-5.328 0.103,0.23 0.065,0.154 0.039,0.076 0,0"
             style="fill:#e8834d;fill-opacity:1;fill-rule:nonzero;stroke:none"
             id="path4804" /></g><g
           id="g4806"
           transform="translate(366.7925,162.5908)"><path
             d="m 0,0 107.646,-54.998 c 9.991,-5.105 22.229,-1.144 27.333,8.848 5.104,9.991 1.143,22.228 -8.848,27.333 L -23.86,57.815 c -0.005,0.003 -23.338,13.093 -35.267,45.509 -8.199,22.28 -28.333,33.703 -51.665,33.703 -23.333,0 -43.467,-11.423 -51.666,-33.703 -11.93,-32.418 -35.265,-45.508 -35.267,-45.509 l -80.463,-41.11"
             style="fill:none;stroke:#000000;stroke-width:15;stroke-linecap:round;stroke-linejoin:round;stroke-miterlimit:10;stroke-dasharray:none;stroke-opacity:1"
             id="path4808" /></g><g
           id="g4810"
           transform="translate(61.8037,165.6035)"><path
             d="m 0,0 -42.728,-21.83 c -9.99,-5.105 -13.952,-17.342 -8.847,-27.333 5.104,-9.991 17.342,-13.952 27.333,-8.848 l 161.24,82.381 c 35.924,18.354 78.473,18.354 114.397,0 l 26.862,-13.724"
             style="fill:none;stroke:#000000;stroke-width:15;stroke-linecap:round;stroke-linejoin:round;stroke-miterlimit:10;stroke-dasharray:none;stroke-opacity:1"
             id="path4812" /></g><g
           id="g4814"
           transform="translate(57.3989,117.7285)"><path
             d="M 0,0 H 397.202"
             style="fill:none;stroke:#000000;stroke-width:15;stroke-linecap:round;stroke-linejoin:round;stroke-miterlimit:10;stroke-dasharray:none;stroke-opacity:1"
             id="path4816" /></g><g
           id="g4818"
           transform="translate(220.3682,371.0039)"><path
             d="M 0,0 C 0,20.14 16.708,36.377 37.02,35.605 55.488,34.904 70.536,19.856 71.237,1.389 71.705,-10.919 65.927,-21.904 56.821,-28.65 43.343,-38.635 35.632,-54.613 35.632,-71.386"
             style="fill:none;stroke:#000000;stroke-width:15;stroke-linecap:round;stroke-linejoin:round;stroke-miterlimit:10;stroke-dasharray:none;stroke-opacity:1"
             id="path4820" /></g></g></g></g></svg>
