<?xml version="1.0" encoding="UTF-8"?>
<svg xmlns="http://www.w3.org/2000/svg" xmlns:xlink="http://www.w3.org/1999/xlink" version="1.1" id="Capa_1" x="0px" y="0px" viewBox="0 0 512 512" style="enable-background:new 0 0 512 512;" xml:space="preserve" width="512" height="512">
<g>
	<g>
		<path style="fill:#E19974;" d="M422.376,204.787H89.624v-30.912C89.624,81.989,164.113,7.5,256,7.5h0&#10;&#9;&#9;&#9;c91.887,0,166.376,74.489,166.376,166.376V204.787z"/>
		<path style="fill:#FFD15B;" d="M280.569,79.536l-18.913,18.913c-3.124,3.124-8.189,3.124-11.314,0L231.43,79.536&#10;&#9;&#9;&#9;c-3.124-3.124-3.124-8.19,0-11.314l18.913-18.913c3.124-3.124,8.19-3.124,11.314,0l18.913,18.913&#10;&#9;&#9;&#9;C283.694,71.347,283.694,76.412,280.569,79.536z"/>
		<path style="fill:#DC8758;" d="M256,7.5L256,7.5c-4.206,0-8.373,0.159-12.5,0.466c86.048,6.392,153.876,78.228,153.876,165.91&#10;&#9;&#9;&#9;v30.911h25v-30.911C422.376,81.989,347.887,7.5,256,7.5z"/>
		<path style="fill:#FFD15B;" d="M422.38,173.88v30.91H89.62v-30.91c0-11.52,1.17-22.76,3.4-33.62h325.96&#10;&#9;&#9;&#9;C421.21,151.12,422.38,162.36,422.38,173.88z"/>
		<path style="fill:#FFC344;" d="M418.98,140.26h-25c2.23,10.86,3.4,22.1,3.4,33.62v30.91h25v-30.91&#10;&#9;&#9;&#9;C422.38,162.36,421.21,151.12,418.98,140.26z"/>
		<path style="fill:#7A6D79;" d="M268.831,439.681h-25.662c-8.314,0-15.055-6.74-15.055-15.055v0c0-8.314,6.74-15.055,15.055-15.055&#10;&#9;&#9;&#9;h25.662c8.314,0,15.055,6.74,15.055,15.055v0C283.885,432.941,277.145,439.681,268.831,439.681z"/>
		<path style="fill:#E19974;" d="M422.376,173.876H89.624l-56.16,60.225c-4.069,4.363-2.106,11.492,3.627,13.141&#10;&#9;&#9;&#9;c19.998,5.75,61.47,15.995,103.117,15.995c57.893,0,57.893-19.797,115.787-19.797c57.896,0,57.896,19.797,115.792,19.797&#10;&#9;&#9;&#9;c51.515,0,57.193-15.674,98.603-19.129c6.685-0.558,9.8-8.552,5.213-13.446L422.376,173.876z"/>
		<path style="fill:#DC8758;" d="M470.39,244.11c-7.95,0.66-14.59,1.78-20.48,3.15c3.28-2.76,4.05-8.01,0.69-11.6l-53.22-61.78h25&#10;&#9;&#9;&#9;l53.22,56.78C480.19,235.56,477.08,243.55,470.39,244.11z"/>
	</g>
	<g>
		
			<polyline style="fill:none;stroke:#000000;stroke-width:15;stroke-linecap:round;stroke-linejoin:round;stroke-miterlimit:10;" points="&#10;&#9;&#9;&#9;78.426,256.74 257.456,409.572 445.466,248.77 &#9;&#9;"/>
		<path style="fill:none;stroke:#000000;stroke-width:15;stroke-linecap:round;stroke-linejoin:round;stroke-miterlimit:10;" d="&#10;&#9;&#9;&#9;M166.096,34.8c26.23-17.26,57.62-27.3,91.36-27.3c45.94,0,87.54,18.62,117.65,48.73c30.11,30.11,48.73,71.71,48.73,117.65"/>
		<path style="fill:none;stroke:#000000;stroke-width:15;stroke-linecap:round;stroke-linejoin:round;stroke-miterlimit:10;" d="&#10;&#9;&#9;&#9;M138.926,57.13c-29.6,30.03-47.85,71.26-47.85,116.75"/>
		<path style="fill:none;stroke:#000000;stroke-width:15;stroke-linecap:round;stroke-linejoin:round;stroke-miterlimit:10;" d="&#10;&#9;&#9;&#9;M282.026,79.536l-18.913,18.913c-3.124,3.124-8.19,3.124-11.314,0l-18.913-18.913c-3.124-3.124-3.124-8.19,0-11.314l18.913-18.913&#10;&#9;&#9;&#9;c3.124-3.124,8.189-3.124,11.314,0l18.913,18.913C285.15,71.347,285.15,76.412,282.026,79.536z"/>
		
			<line style="fill:none;stroke:#000000;stroke-width:15;stroke-linecap:round;stroke-linejoin:round;stroke-miterlimit:10;" x1="420.436" y1="140.26" x2="94.476" y2="140.26"/>
		<path style="fill:none;stroke:#000000;stroke-width:15;stroke-linecap:round;stroke-linejoin:round;stroke-miterlimit:10;" d="&#10;&#9;&#9;&#9;M270.287,439.681h-25.662c-8.314,0-15.055-6.74-15.055-15.055v0c0-8.314,6.74-15.055,15.055-15.055h25.662&#10;&#9;&#9;&#9;c8.314,0,15.055,6.74,15.055,15.055v0C285.342,432.941,278.602,439.681,270.287,439.681z"/>
		<path style="fill:none;stroke:#000000;stroke-width:15;stroke-linecap:round;stroke-linejoin:round;stroke-miterlimit:10;" d="&#10;&#9;&#9;&#9;M282.466,504.5c-16.01-16.01-25.01-37.73-25.01-60.38v-4.44"/>
		<path style="fill:none;stroke:#000000;stroke-width:15;stroke-linecap:round;stroke-linejoin:round;stroke-miterlimit:10;" d="&#10;&#9;&#9;&#9;M232.446,504.5c16.01-16.01,25.01-37.73,25.01-60.38v-4.44"/>
		<path style="fill:none;stroke:#000000;stroke-width:15;stroke-linecap:round;stroke-linejoin:round;stroke-miterlimit:10;" d="&#10;&#9;&#9;&#9;M462.176,214.79l14.88,15.87c4.59,4.9,1.48,12.89-5.21,13.45c-41.41,3.45-47.09,19.13-98.6,19.13c-57.9,0-57.9-19.8-115.79-19.8&#10;&#9;&#9;&#9;c-57.9,0-57.9,19.8-115.79,19.8c-41.65,0-83.12-10.25-103.12-16c-5.73-1.65-7.69-8.78-3.63-13.14l56.16-60.22h332.76l14.4,15.36"/>
	</g>
</g>















</svg>
