<svg id="Capa_1" enable-background="new 0 0 506.177 506.177" height="512" viewBox="0 0 506.177 506.177" width="512" xmlns="http://www.w3.org/2000/svg"><g><path d="m32.956 237.497-25.046 150.278c-3.149 18.896 11.422 36.096 30.578 36.096h134.248v-31.062h31.062l31.062 31.062h139.78 34.249c49.706 0 90-40.294 90-90 0-26.395-21.397-47.792-47.792-47.792h-76.457l-139.78-96.553-15.531-107.34-93.187 31.062h-62.186c-17.121 0-31 13.879-31 31z" fill="#ffe177"/><path d="m38.488 423.871h134.248v-31.062h31.062l31.062 31.062h174.03c49.706 0 90-40.294 90-90 0-1.023-.032-2.038-.096-3.045-19.464 29.096-51.949 46.816-86.957 47.423l-37.197.646-155.311-17.148h-62.125c-51.63 22.69-99.371 18.729-144.957 0l-4.337 26.028c-3.149 18.895 11.422 36.096 30.578 36.096z" fill="#8f5a46"/><path d="m62.956 237.497v-93.249c0-17.121 13.879-31 31-31h-30c-17.121 0-31 13.879-31 31v93.249l-20.708 124.249c9.372 3.851 18.835 7.077 28.404 9.575z" fill="#ffd15b"/><path d="m37.91 387.775 2.742-16.453c-9.569-2.499-19.032-5.725-28.404-9.575l-4.338 26.028c-3.149 18.896 11.422 36.096 30.578 36.096h30c-19.156 0-33.727-17.201-30.578-36.096z" fill="#7d4f3d"/><path d="m506.171 328.884c-1.395-15.707-11.127-32.125-24.281-40.944-3.441-2.307-8.1-1.39-10.406 2.051-2.308 3.44-1.39 8.1 2.051 10.406 9.208 6.176 16.181 17.458 17.545 28.418-28.145 39.753-72.055 41.806-116.09 42.577l-54.53-6.022c2.915-21.768 20.618-37.571 41.022-43.102 1.82-.607 3.339-1.889 4.243-3.581l13.413-25.108h66.354c4.143 0 7.5-3.357 7.5-7.5s-3.357-7.5-7.5-7.5h-68.512l-23.994-16.574 2.143-3.008c2.403-3.373 1.616-8.057-1.757-10.459-3.376-2.405-8.059-1.615-10.46 1.757l-2.269 3.185-20.669-14.277 4.642-4.844c2.866-2.991 2.765-7.739-.226-10.604-2.991-2.867-7.738-2.764-10.604.226l-6.313 6.588-23.971-16.558 3.348-3.467c2.878-2.979 2.795-7.728-.185-10.604-2.98-2.879-7.729-2.793-10.604.185l-5.067 5.247-29.177-20.153-2.601-17.953c-.594-4.101-4.404-6.941-8.498-6.348-4.1.594-6.941 4.398-6.348 8.498l2.397 16.552-89.316 60.866c-1.461.995-2.523 2.475-2.999 4.178l-9.535 34.1c-12.998-15.13-32-24.05-52.623-24.05h-35.665l2.676-16.062h27.404c10.284 0 19.952-4.005 27.224-11.275l28.829-28.829c6.955-6.956 10.953-16.2 11.257-26.032.003-.092.004-.184.004-.276l-.168-28.856 83.812-26.652 2.022 13.985c.593 4.1 4.409 6.941 8.496 6.35 4.1-.593 6.942-4.396 6.35-8.496l-7.779-53.8c-1.382-5.065-4.647-7.079-9.794-6.042l-92.036 30.675h-60.975c-21.229 0-38.5 17.271-38.5 38.5v92.63l-24.937 149.663c-3.858 23.14 14.521 44.823 37.978 44.823h134.24c4.143 0 7.5-3.357 7.5-7.5v-23.56h20.464l28.862 28.863c1.407 1.406 3.314 2.196 5.304 2.196h174.03c58.166.001 97.851-44.672 97.279-102.483zm-433.878-52.824c20.776 0 39.455 11.544 48.747 30.127l25.861 51.722c-41.053 16.086-82.489 15.785-126.259-.904l13.488-80.945zm39.861-81.775-28.829 28.829c-4.438 4.438-10.339 6.883-16.616 6.883h-26.258v-78.187h78.415l.155 26.714c-.215 5.954-2.651 11.547-6.867 15.761zm103.337-86.257-81.727 25.989-.089-15.374 79.519-26.503zm-151.54 12.72h54.735l.093 16.063h-77.121c3.118-9.324 11.933-16.063 22.293-16.063zm349.252 295.509v-7.917c0-4.143-3.357-7.5-7.5-7.5s-7.5 3.357-7.5 7.5v8.028h-47.125v-8.028c0-4.143-3.357-7.5-7.5-7.5s-7.5 3.357-7.5 7.5v8.028h-47.124v-8.028c0-4.143-3.357-7.5-7.5-7.5s-7.5 3.357-7.5 7.5v8.028h-35.986l-28.862-28.863c-1.407-1.406-3.314-2.196-5.304-2.196h-31.07c-4.143 0-7.5 3.357-7.5 7.5v23.56h-31.589v-8.028c0-4.143-3.357-7.5-7.5-7.5s-7.5 3.357-7.5 7.5v8.028h-47.124v-8.028c0-4.143-3.357-7.5-7.5-7.5s-7.5 3.357-7.5 7.5v8.028h-18.028c-16.182-1.957-23.909-11.076-23.182-27.357l2.821-16.928c45.955 16.886 95.411 16.644 140.632-2.835h48.72c4.143 0 7.5-3.357 7.5-7.5s-3.357-7.5-7.5-7.5h-45.64l-26.092-52.183 12.409-44.381 86.671-59.063 25.601 17.683-15.434 15.982c-2.878 2.979-2.795 7.728.185 10.604 3.56 2.868 7.095 2.806 10.604-.185l17.153-17.762 24.021 16.592-11.898 12.416c-2.866 2.991-2.765 7.739.226 10.604 3.566 2.853 7.101 2.778 10.604-.226l13.569-14.16 22.478 15.526-10.001 14.042c-2.403 3.373-1.616 8.057 1.757 10.459 3.728 2.325 7.215 1.739 10.46-1.757l10.127-14.219 20.591 14.222-10.971 20.536-4.529 1.51c-23.867 7.957-40.689 28.771-43.827 53.23l-64.551-7.129c-4.127-.446-7.823 2.517-8.278 6.632-.454 4.117 2.515 7.823 6.632 8.278l134.47 14.851c39.756 4.402 85.6-4.11 115.034-32.137-8.744 34.344-39.088 60.151-75.65 62.043z"/></g></svg>