<?xml version="1.0" encoding="UTF-8" standalone="no"?>
<!-- Created with Inkscape (http://www.inkscape.org/) -->

<svg
   version="1.1"
   id="svg4341"
   xml:space="preserve"
   width="682.66669"
   height="682.66669"
   viewBox="0 0 682.66669 682.66669"
   xmlns="http://www.w3.org/2000/svg"
   xmlns:svg="http://www.w3.org/2000/svg"><defs
     id="defs4345"><clipPath
       clipPathUnits="userSpaceOnUse"
       id="clipPath4355"><path
         d="M 0,512 H 512 V 0 H 0 Z"
         id="path4353" /></clipPath></defs><g
     id="g4347"
     transform="matrix(1.3333333,0,0,-1.3333333,0,682.66667)"><g
       id="g4349"><g
         id="g4351"
         clip-path="url(#clipPath4355)"><g
           id="g4357"
           transform="translate(428.5898,431.7187)"><path
             d="m 0,0 c -2.73,4.61 -1.083,10.559 3.643,13.084 l 19.422,10.38 c 4.778,2.553 6.182,8.748 2.974,13.112 L 2.086,69.155 c -2.703,3.677 -7.751,4.711 -11.682,2.394 L -61.719,40.824 C -75.156,32.903 -79.356,15.387 -70.899,2.28 -51,-28.56 -20.56,-87.99 -20.56,-162.961 c 0,-111.372 -72.48,-157.268 -152.031,-157.268 -79.552,0 -152.031,45.896 -152.031,157.268 0,74.971 30.44,134.401 50.339,165.241 8.457,13.107 4.258,30.623 -9.181,38.544 l -7.538,4.444 -6.903,-3.558 -46.468,-98.5 -18.233,-80.5 -8.213,-99 16.425,-76.5 32.056,-50 28.033,-33.545 c 36.057,-18.84 78.185,-27.884 121.714,-27.884 120.437,0 230.168,69.183 230.168,223.741 C 57.577,-116.367 27.458,-46.352 0,0"
             style="fill:#ffb640;fill-opacity:1;fill-rule:nonzero;stroke:none"
             id="path4359" /></g><g
           id="g4361"
           transform="translate(66.2656,229.5698)"><path
             d="m 0,0 c 0,102.02 36.533,186.943 69.837,243.164 0.799,1.35 1.282,2.795 1.485,4.253 l -44.584,26.281 c -3.931,2.317 -8.978,1.283 -11.681,-2.394 L -8.896,238.725 c -3.209,-4.364 -1.805,-10.559 2.972,-13.112 L 13.5,215.233 c 4.726,-2.525 6.372,-8.474 3.642,-13.084 C -10.315,155.797 -40.436,85.782 -40.436,1.671 -40.436,-101.266 8.246,-166.32 76.338,-198.302 29.663,-153.892 0,-88.487 0,0"
             style="fill:#ff9b00;fill-opacity:1;fill-rule:nonzero;stroke:none"
             id="path4363" /></g><g
           id="g4365"
           transform="translate(142.5,114.8491)"><path
             d="m 0,0 c -20.562,14.993 -37.577,34.918 -49.615,59.793 -2.444,5.047 -8.893,6.599 -13.377,3.231 l -9.593,-7.207 c -3.016,-2.264 -4.305,-6.19 -3.167,-9.784 10.767,-34.023 29.503,-59.938 52.92,-78.974 4.179,-3.397 10.37,-2.437 13.241,2.12 L 2.293,-11.955 C 4.793,-7.986 3.79,-2.764 0,0"
             style="fill:#fc8900;fill-opacity:1;fill-rule:nonzero;stroke:none"
             id="path4367" /></g><g
           id="g4369"
           transform="translate(442.083,170.666)"><path
             d="m 0,0 -9.593,7.207 c -4.483,3.367 -10.933,1.816 -13.376,-3.231 -12.04,-24.878 -29.053,-44.804 -49.615,-59.796 -3.79,-2.763 -4.793,-7.986 -2.293,-11.955 l 11.883,-18.864 c 2.87,-4.556 9.062,-5.516 13.241,-2.119 23.417,19.035 42.153,44.951 52.92,78.973 C 4.304,-6.19 3.015,-2.265 0,0"
             style="fill:#ff9b00;fill-opacity:1;fill-rule:nonzero;stroke:none"
             id="path4371" /></g><g
           id="g4373"
           transform="translate(249.999,78.5537)"><path
             d="m 0,0 h -3.349 l -2.126,2.378 c -19.737,0.969 -38.67,4.443 -56.284,10.426 -3.936,1.337 -8.275,-0.149 -10.49,-3.667 l -13.155,-20.883 c -3.009,-4.777 -0.867,-11.076 4.402,-13.108 24.626,-9.497 51.253,-14.274 77.653,-15.181 l 1.66,1.785 H 0 Z"
             style="fill:#fc8900;fill-opacity:1;fill-rule:nonzero;stroke:none"
             id="path4375" /></g><g
           id="g4377"
           transform="translate(347.4023,66.8076)"><path
             d="m 0,0 -13.152,20.881 c -2.217,3.518 -6.555,5.004 -10.492,3.667 -17.614,-5.983 -36.547,-9.455 -56.285,-10.423 l -1.414,-2.379 h -2.541 v -38.25 h 0.291 l 1.537,-1.785 c 26.402,0.907 53.029,5.684 77.655,15.182 C 0.867,-11.076 3.01,-4.778 0,0"
             style="fill:#ff9b00;fill-opacity:1;fill-rule:nonzero;stroke:none"
             id="path4379" /></g><g
           id="g4381"
           transform="translate(279.6513,60.249)"><path
             d="m 0,0 c 0,-13.063 -10.59,-23.653 -23.652,-23.653 -13.064,0 -23.654,10.59 -23.654,23.653 0,13.063 10.59,23.653 23.654,23.653 C -10.59,23.653 0,13.063 0,0"
             style="fill:#ffd086;fill-opacity:1;fill-rule:nonzero;stroke:none"
             id="path4383" /></g><g
           id="g4385"
           transform="translate(142.5009,114.8491)"><path
             d="m 0,0 c -20.562,14.993 -37.577,34.918 -49.615,59.793 -2.443,5.047 -8.893,6.599 -13.376,3.231 l -9.594,-7.207 c -3.015,-2.264 -4.305,-6.19 -3.167,-9.784 10.767,-34.023 29.503,-59.938 52.92,-78.974 4.179,-3.397 10.371,-2.437 13.241,2.12 L 2.293,-11.955 C 4.793,-7.986 3.79,-2.764 0,0 Z"
             style="fill:none;stroke:#000000;stroke-width:15;stroke-linecap:round;stroke-linejoin:round;stroke-miterlimit:10;stroke-dasharray:none;stroke-opacity:1"
             id="path4387" /></g><g
           id="g4389"
           transform="translate(279.6533,60.249)"><path
             d="m 0,0 c 0,-13.063 -10.59,-23.653 -23.653,-23.653 -13.064,0 -23.653,10.59 -23.653,23.653 0,13.063 10.589,23.653 23.653,23.653 C -10.59,23.653 0,13.063 0,0 Z"
             style="fill:none;stroke:#000000;stroke-width:15;stroke-linecap:round;stroke-linejoin:round;stroke-miterlimit:10;stroke-dasharray:none;stroke-opacity:1"
             id="path4391" /></g><g
           id="g4393"
           transform="translate(65.5029,267.2583)"><path
             d="M 0,0 C -0.413,-10.429 -0.429,-25.013 1.194,-41.377"
             style="fill:none;stroke:#000000;stroke-width:15;stroke-linecap:round;stroke-linejoin:round;stroke-miterlimit:10;stroke-dasharray:none;stroke-opacity:1"
             id="path4395" /></g><g
           id="g4397"
           transform="translate(446.497,267.2583)"><path
             d="M 0,0 C 0.413,-10.429 0.429,-25.013 -1.194,-41.377"
             style="fill:none;stroke:#000000;stroke-width:15;stroke-linecap:round;stroke-linejoin:round;stroke-miterlimit:10;stroke-dasharray:none;stroke-opacity:1"
             id="path4399" /></g><g
           id="g4401"
           transform="translate(347.4043,66.8076)"><path
             d="m 0,0 -13.153,20.881 c -2.216,3.518 -6.554,5.004 -10.492,3.667 -17.614,-5.983 -36.546,-9.455 -56.285,-10.423 7.262,-4.038 12.179,-11.785 12.179,-20.683 0,-9.743 -5.893,-18.107 -14.306,-21.731 26.403,0.907 53.029,5.684 77.655,15.182 C 0.866,-11.076 3.009,-4.778 0,0 Z"
             style="fill:none;stroke:#000000;stroke-width:15;stroke-linecap:round;stroke-linejoin:round;stroke-miterlimit:10;stroke-dasharray:none;stroke-opacity:1"
             id="path4403" /></g><g
           id="g4405"
           transform="translate(232.3466,60.2495)"><path
             d="m 0,0 c 0,8.898 4.917,16.645 12.179,20.683 -19.738,0.968 -38.67,4.442 -56.284,10.424 -3.936,1.338 -8.275,-0.148 -10.491,-3.666 L -67.751,6.558 C -70.76,1.781 -68.617,-4.518 -63.349,-6.549 -38.723,-16.046 -12.096,-20.824 14.306,-21.73 5.893,-18.106 0,-9.743 0,0 Z"
             style="fill:none;stroke:#000000;stroke-width:15;stroke-linecap:round;stroke-linejoin:round;stroke-miterlimit:10;stroke-dasharray:none;stroke-opacity:1"
             id="path4407" /></g><g
           id="g4409"
           transform="translate(433.2549,131.978)"><path
             d="m 0,0 c 4.676,8.906 8.711,18.523 11.996,28.903 1.138,3.596 -0.152,7.52 -3.167,9.785 l -9.593,7.207 c -4.483,3.367 -10.933,1.816 -13.376,-3.231 -12.04,-24.878 -29.053,-44.804 -49.615,-59.796 -3.79,-2.763 -4.792,-7.986 -2.293,-11.955 l 11.883,-18.864 c 2.87,-4.556 9.062,-5.516 13.241,-2.119 7.64,6.21 14.77,13.168 21.299,20.885"
             style="fill:none;stroke:#000000;stroke-width:15;stroke-linecap:round;stroke-linejoin:round;stroke-miterlimit:10;stroke-dasharray:none;stroke-opacity:1"
             id="path4411" /></g><g
           id="g4413"
           transform="translate(407.2812,249.7583)"><path
             d="m 0,0 c -7.824,-97.613 -76.417,-138.269 -151.281,-138.269 -79.552,0 -152.031,45.896 -152.031,157.268 0,74.972 30.44,134.402 50.338,165.242 8.457,13.106 4.258,30.622 -9.179,38.543 l -52.123,30.725 c -3.931,2.317 -8.979,1.283 -11.682,-2.393 l -23.953,-32.579 c -3.209,-4.365 -1.804,-10.559 2.973,-13.112 l 19.423,-10.38 c 4.726,-2.525 6.372,-8.475 3.642,-13.085 -27.457,-46.352 -57.576,-116.367 -57.576,-200.477 0,-154.558 109.731,-223.741 230.168,-223.741 120.436,0 230.168,69.183 230.168,223.741 0,84.11 -30.119,154.125 -57.576,200.477 -2.731,4.61 -1.084,10.56 3.641,13.085 l 19.424,10.38 c 4.776,2.553 6.182,8.747 2.973,13.112 l -23.953,32.579 c -2.704,3.676 -7.751,4.71 -11.682,2.393 l -52.123,-30.725 c -13.438,-7.921 -17.637,-25.437 -9.18,-38.543 C -31.129,155.63 -3.613,102.403 0.271,35"
             style="fill:none;stroke:#000000;stroke-width:15;stroke-linecap:round;stroke-linejoin:round;stroke-miterlimit:10;stroke-dasharray:none;stroke-opacity:1"
             id="path4415" /></g></g></g></g></svg>
