<?xml version="1.0" encoding="UTF-8" standalone="no"?>
<!-- Created with Inkscape (http://www.inkscape.org/) -->

<svg
   version="1.1"
   id="svg867"
   width="682.66669"
   height="682.66669"
   viewBox="0 0 682.66669 682.66669"
   xmlns="http://www.w3.org/2000/svg"
   xmlns:svg="http://www.w3.org/2000/svg">
  <defs
     id="defs871">
    <clipPath
       clipPathUnits="userSpaceOnUse"
       id="clipPath881">
      <path
         d="M 0,512 H 512 V 0 H 0 Z"
         id="path879" />
    </clipPath>
  </defs>
  <g
     id="g873"
     transform="matrix(1.3333333,0,0,-1.3333333,0,682.66667)">
    <g
       id="g875">
      <g
         id="g877"
         clip-path="url(#clipPath881)">
        <g
           id="g883"
           transform="translate(122.734,49.2735)">
          <path
             d="m 0,0 c 17.642,137.817 17.642,275.635 0,413.452 l 133.266,25.762 133.266,-25.762 C 248.89,275.635 248.89,137.817 266.532,0 L 133.266,-31.33 Z"
             style="fill:#b7efff;fill-opacity:1;fill-rule:nonzero;stroke:none"
             id="path885" />
        </g>
        <g
           id="g887"
           transform="translate(389.2662,462.7256)">
          <path
             d="m 0,0 h -24.553 c -17.641,-137.817 -17.641,-275.635 0,-413.452 H 0 C -17.643,-275.635 -17.643,-137.817 0,0"
             style="fill:#99e6fc;fill-opacity:1;fill-rule:nonzero;stroke:none"
             id="path889" />
        </g>
        <g
           id="g891"
           transform="translate(387.5836,504.5)">
          <path
             d="m 0,0 h -263.167 c -7.105,0 -12.198,-6.853 -10.149,-13.654 l 8.466,-28.12 H 1.683 l 8.466,28.12 C 12.197,-6.853 7.104,0 0,0"
             style="fill:#ffe177;fill-opacity:1;fill-rule:nonzero;stroke:none"
             id="path893" />
        </g>
        <g
           id="g895"
           transform="translate(387.5836,504.5)">
          <path
             d="m 0,0 h -24.552 c 7.104,0 12.198,-6.853 10.149,-13.654 l -8.467,-28.12 H 1.683 l 8.466,28.12 C 12.197,-6.853 7.104,0 0,0"
             style="fill:#ffd15b;fill-opacity:1;fill-rule:nonzero;stroke:none"
             id="path897" />
        </g>
        <g
           id="g899"
           transform="translate(124.4162,7.5)">
          <path
             d="m 0,0 h 263.167 c 7.105,0 12.198,6.853 10.15,13.654 L 264.85,41.773 H -1.682 L -10.149,13.654 C -12.197,6.853 -7.104,0 0,0"
             style="fill:#ffe177;fill-opacity:1;fill-rule:nonzero;stroke:none"
             id="path901" />
        </g>
        <g
           id="g903"
           transform="translate(397.733,21.1543)">
          <path
             d="M 0,0 -8.467,28.119 H -33.02 L -24.553,0 c 2.049,-6.803 -3.045,-13.654 -10.148,-13.654 h 24.552 C -3.045,-13.654 2.048,-6.803 0,0"
             style="fill:#ffd15b;fill-opacity:1;fill-rule:nonzero;stroke:none"
             id="path905" />
        </g>
        <g
           id="g907"
           transform="translate(387.5836,504.5)">
          <path
             d="m 0,0 h -263.167 c -7.105,0 -12.198,-6.853 -10.149,-13.654 l 8.466,-28.12 H 1.683 l 8.466,28.12 C 12.197,-6.853 7.104,0 0,0 Z"
             style="fill:none;stroke:#000000;stroke-width:15;stroke-linecap:round;stroke-linejoin:round;stroke-miterlimit:10;stroke-dasharray:none;stroke-opacity:1"
             id="path909" />
        </g>
        <g
           id="g911"
           transform="translate(147.3395,504.5)">
          <path
             d="M 0,0 V -20.887"
             style="fill:none;stroke:#000000;stroke-width:15;stroke-linecap:round;stroke-linejoin:round;stroke-miterlimit:10;stroke-dasharray:none;stroke-opacity:1"
             id="path913" />
        </g>
        <g
           id="g915"
           transform="translate(178.3854,504.5)">
          <path
             d="M 0,0 V -20.887"
             style="fill:none;stroke:#000000;stroke-width:15;stroke-linecap:round;stroke-linejoin:round;stroke-miterlimit:10;stroke-dasharray:none;stroke-opacity:1"
             id="path917" />
        </g>
        <g
           id="g919"
           transform="translate(209.4313,504.5)">
          <path
             d="M 0,0 V -20.887"
             style="fill:none;stroke:#000000;stroke-width:15;stroke-linecap:round;stroke-linejoin:round;stroke-miterlimit:10;stroke-dasharray:none;stroke-opacity:1"
             id="path921" />
        </g>
        <g
           id="g923"
           transform="translate(240.4772,504.5)">
          <path
             d="M 0,0 V -20.887"
             style="fill:none;stroke:#000000;stroke-width:15;stroke-linecap:round;stroke-linejoin:round;stroke-miterlimit:10;stroke-dasharray:none;stroke-opacity:1"
             id="path925" />
        </g>
        <g
           id="g927"
           transform="translate(271.5231,504.5)">
          <path
             d="M 0,0 V -20.887"
             style="fill:none;stroke:#000000;stroke-width:15;stroke-linecap:round;stroke-linejoin:round;stroke-miterlimit:10;stroke-dasharray:none;stroke-opacity:1"
             id="path929" />
        </g>
        <g
           id="g931"
           transform="translate(302.569,504.5)">
          <path
             d="M 0,0 V -20.887"
             style="fill:none;stroke:#000000;stroke-width:15;stroke-linecap:round;stroke-linejoin:round;stroke-miterlimit:10;stroke-dasharray:none;stroke-opacity:1"
             id="path933" />
        </g>
        <g
           id="g935"
           transform="translate(333.6149,504.5)">
          <path
             d="M 0,0 V -20.887"
             style="fill:none;stroke:#000000;stroke-width:15;stroke-linecap:round;stroke-linejoin:round;stroke-miterlimit:10;stroke-dasharray:none;stroke-opacity:1"
             id="path937" />
        </g>
        <g
           id="g939"
           transform="translate(364.6608,504.5)">
          <path
             d="M 0,0 V -20.887"
             style="fill:none;stroke:#000000;stroke-width:15;stroke-linecap:round;stroke-linejoin:round;stroke-miterlimit:10;stroke-dasharray:none;stroke-opacity:1"
             id="path941" />
        </g>
        <g
           id="g943"
           transform="translate(124.4162,7.5)">
          <path
             d="m 0,0 h 263.167 c 7.105,0 12.198,6.853 10.15,13.654 L 264.85,41.773 H -1.682 L -10.149,13.654 C -12.197,6.853 -7.104,0 0,0 Z"
             style="fill:none;stroke:#000000;stroke-width:15;stroke-linecap:round;stroke-linejoin:round;stroke-miterlimit:10;stroke-dasharray:none;stroke-opacity:1"
             id="path945" />
        </g>
        <g
           id="g947"
           transform="translate(364.6608,7.5)">
          <path
             d="M 0,0 V 20.887"
             style="fill:none;stroke:#000000;stroke-width:15;stroke-linecap:round;stroke-linejoin:round;stroke-miterlimit:10;stroke-dasharray:none;stroke-opacity:1"
             id="path949" />
        </g>
        <g
           id="g951"
           transform="translate(333.6149,7.5)">
          <path
             d="M 0,0 V 20.887"
             style="fill:none;stroke:#000000;stroke-width:15;stroke-linecap:round;stroke-linejoin:round;stroke-miterlimit:10;stroke-dasharray:none;stroke-opacity:1"
             id="path953" />
        </g>
        <g
           id="g955"
           transform="translate(302.569,7.5)">
          <path
             d="M 0,0 V 20.887"
             style="fill:none;stroke:#000000;stroke-width:15;stroke-linecap:round;stroke-linejoin:round;stroke-miterlimit:10;stroke-dasharray:none;stroke-opacity:1"
             id="path957" />
        </g>
        <g
           id="g959"
           transform="translate(271.5231,7.5)">
          <path
             d="M 0,0 V 20.887"
             style="fill:none;stroke:#000000;stroke-width:15;stroke-linecap:round;stroke-linejoin:round;stroke-miterlimit:10;stroke-dasharray:none;stroke-opacity:1"
             id="path961" />
        </g>
        <g
           id="g963"
           transform="translate(240.4772,7.5)">
          <path
             d="M 0,0 V 20.887"
             style="fill:none;stroke:#000000;stroke-width:15;stroke-linecap:round;stroke-linejoin:round;stroke-miterlimit:10;stroke-dasharray:none;stroke-opacity:1"
             id="path965" />
        </g>
        <g
           id="g967"
           transform="translate(209.4313,7.5)">
          <path
             d="M 0,0 V 20.887"
             style="fill:none;stroke:#000000;stroke-width:15;stroke-linecap:round;stroke-linejoin:round;stroke-miterlimit:10;stroke-dasharray:none;stroke-opacity:1"
             id="path969" />
        </g>
        <g
           id="g971"
           transform="translate(178.3854,7.5)">
          <path
             d="M 0,0 V 20.887"
             style="fill:none;stroke:#000000;stroke-width:15;stroke-linecap:round;stroke-linejoin:round;stroke-miterlimit:10;stroke-dasharray:none;stroke-opacity:1"
             id="path973" />
        </g>
        <g
           id="g975"
           transform="translate(147.3395,7.5)">
          <path
             d="M 0,0 V 20.887"
             style="fill:none;stroke:#000000;stroke-width:15;stroke-linecap:round;stroke-linejoin:round;stroke-miterlimit:10;stroke-dasharray:none;stroke-opacity:1"
             id="path977" />
        </g>
        <g
           id="g979"
           transform="translate(280.5524,168.3399)">
          <path
             d="M 0,0 -22.715,37.763 -49.105,0 V -71.448 C -49.105,-85.008 -38.112,-96 -24.552,-96 -10.992,-96 0,-85.008 0,-71.448 Z"
             style="fill:#fdb441;fill-opacity:1;fill-rule:nonzero;stroke:none"
             id="path981" />
        </g>
        <path
           d="m 231.448,150.816 h 49.104 v 17.523 h -49.104 z"
           style="fill:#fea713;fill-opacity:1;fill-rule:nonzero;stroke:none"
           id="path983" />
        <g
           id="g985"
           transform="translate(339.8561,330.3213)">
          <path
             d="m 0,0 v 25.483 c 0,46.313 -37.544,83.856 -83.856,83.856 v 0 c -46.312,0 -83.856,-37.543 -83.856,-83.856 V 0 l 33.509,-42.641 -33.509,-35.745 v -74.823 c 0,-4.845 3.927,-8.773 8.773,-8.773 H -8.773 c 4.845,0 8.773,3.928 8.773,8.773 l 0,74.823 -40.734,36.736 z"
             style="fill:#ffe177;fill-opacity:1;fill-rule:nonzero;stroke:none"
             id="path987" />
        </g>
        <g
           id="g989"
           transform="translate(317.3033,307.2617)">
          <path
             d="m 0,0 22.553,23.06 v 25.483 c 0,46.312 -37.544,83.855 -83.856,83.855 h -0.001 c -3.826,0 -7.585,-0.279 -11.276,-0.776 C -31.604,126.111 0,91.028 0,48.543 Z"
             style="fill:#ffd15b;fill-opacity:1;fill-rule:nonzero;stroke:none"
             id="path991" />
        </g>
        <g
           id="g993"
           transform="translate(317.3033,177.1123)">
          <path
             d="m 0,0 c 0,-4.845 -3.928,-8.772 -8.772,-8.772 h 22.551 c 4.846,0 8.774,3.927 8.774,8.772 V 74.823 L 0,95.161 Z"
             style="fill:#ffd15b;fill-opacity:1;fill-rule:nonzero;stroke:none"
             id="path995" />
        </g>
        <path
           d="M 339.856,251.936 H 172.144 v 78.386 h 167.712 z"
           style="fill:#ff7383;fill-opacity:1;fill-rule:nonzero;stroke:none"
           id="path997" />
        <path
           d="m 317.304,251.936 h 22.552 v 78.386 h -22.552 z"
           style="fill:#ff546a;fill-opacity:1;fill-rule:nonzero;stroke:none"
           id="path999" />
        <path
           d="M 339.856,251.936 H 172.144 v 78.386 h 167.712 z"
           style="fill:none;stroke:#000000;stroke-width:15;stroke-linecap:round;stroke-linejoin:round;stroke-miterlimit:10;stroke-dasharray:none;stroke-opacity:1"
           id="path1001" />
        <g
           id="g1003"
           transform="translate(182.4645,396.123)">
          <path
             d="m 0,0 c -6.574,-11.965 -10.321,-25.703 -10.321,-40.318 v -178.693 c 0,-4.844 3.928,-8.773 8.774,-8.773 h 150.165 c 4.846,0 8.774,3.929 8.774,8.773 v 178.693 c 0,46.312 -37.544,83.855 -83.856,83.855 h -0.001 c -21.23,0 -40.604,-7.905 -55.377,-20.913"
             style="fill:none;stroke:#000000;stroke-width:15;stroke-linecap:round;stroke-linejoin:round;stroke-miterlimit:10;stroke-dasharray:none;stroke-opacity:1"
             id="path1005" />
        </g>
        <g
           id="g1007"
           transform="translate(231.4474,105.8389)">
          <path
             d="M 0,0 V -8.947 C 0,-22.507 10.993,-33.5 24.553,-33.5 c 13.56,0 24.552,10.993 24.552,24.553 V 62.5 H 0 V 29"
             style="fill:none;stroke:#000000;stroke-width:15;stroke-linecap:round;stroke-linejoin:round;stroke-miterlimit:10;stroke-dasharray:none;stroke-opacity:1"
             id="path1009" />
        </g>
        <g
           id="g1011"
           transform="translate(376.3746,223.5)">
          <path
             d="m 0,0 c -1.604,79.742 2.684,159.484 12.892,239.226 h -266.533 c 17.642,-137.818 17.642,-275.635 0,-413.453 H 12.892 C 6.694,-125.817 2.684,-77.409 0.841,-29"
             style="fill:none;stroke:#000000;stroke-width:15;stroke-linecap:round;stroke-linejoin:round;stroke-miterlimit:10;stroke-dasharray:none;stroke-opacity:1"
             id="path1013" />
        </g>
        <g
           id="g1015"
           transform="translate(173.8937,117.3486)">
          <path
             d="m 0,0 v 0 c 12.238,1.791 23.62,-6.653 25.455,-18.885 l 1.541,-10.269"
             style="fill:none;stroke:#000000;stroke-width:15;stroke-linecap:round;stroke-linejoin:round;stroke-miterlimit:10;stroke-dasharray:none;stroke-opacity:1"
             id="path1017" />
        </g>
        <g
           id="g1019"
           transform="translate(338.1061,117.3486)">
          <path
             d="m 0,0 v 0 c -12.238,1.791 -23.62,-6.653 -25.455,-18.885 l -1.54,-10.269"
             style="fill:none;stroke:#000000;stroke-width:15;stroke-linecap:round;stroke-linejoin:round;stroke-miterlimit:10;stroke-dasharray:none;stroke-opacity:1"
             id="path1021" />
        </g>
      </g>
    </g>
  </g>
</svg>
