<svg id="Capa_1" enable-background="new 0 0 511.269 511.269" height="512" viewBox="0 0 511.269 511.269" width="512" xmlns="http://www.w3.org/2000/svg"><g><g><path d="m346.065 244.168-18.92-.361-25.38 24.13-24.072 19.313-11.308 194.941 36.14 20.065c1.13-.59 2.17-1.34 3.1-2.25l132.7-129.21 6.73-27.638z" fill="#7bacdf"/><path d="m301.765 267.937v232.72l.76 1.6c1.13-.59 2.17-1.34 3.1-2.25l21.14-20.584v-235.255z" fill="#5f99d7"/><path d="m301.765 450.711 5.236-5.234 19.764-19.247v-20.936l-25 24.345z" fill="#5f99d7"/><path d="m290.245 7.496h-190.38c-6.37 0-11.53 5.16-11.53 11.53v47.13l18.518 20.371h176.083l18.828-20.371v-47.13c.001-6.37-5.159-11.53-11.519-11.53z" fill="#98bce5"/><path d="m178.426 46.156c-7.61 0-13.779-6.169-13.779-13.779v-13.351c0-6.37 5.16-11.53 11.53-11.53h-76.312c-6.368 0-11.53 5.162-11.53 11.53v47.13l18.518 20.371h176.083l18.828-20.371v-20z" fill="#7bacdf"/><path d="m301.765 500.656.76 1.6c-1.88.98-3.99 1.51-6.15 1.51h-178.62c-5.34 0-9.91-3.82-10.86-9.08l-56.08-312.65c-.61-3.39-.34-6.88.79-10.14l36.73-105.74h213.43z" fill="#7bacdf"/><g><g id="XMLID_669_"><g><path d="m301.765 91.516v-25.36h-213.43l-36.73 105.74c-1.13 3.26-1.4 6.75-.79 10.14l56.08 312.65c.95 5.26 5.52 9.08 10.86 9.08h71.373l-41.01-228.634c-.403-2.245 1.919-3.994 3.966-2.989l18.655 9.166c3.951 1.951 8.369 2.982 12.777 2.982 4.396 0 8.808-1.026 12.751-2.966l47.825-23.502c9.957-4.897 16.143-14.836 16.143-25.938v-105.88c0-15.961-12.939-28.9-28.9-28.9h-31.309c-3.602 0-3.763-5.418-.164-5.56.517-.02 1.036-.031 1.556-.031h100.347z" fill="#5f99d7"/><path d="m231.719 131.665h-93.666l-11.258 17.932v82.29c0 3.39 1.93 6.49 4.97 7.99l47.83 23.5c2.47 1.22 5.37 1.22 7.85 0l47.82-23.5c3.05-1.5 4.97-4.6 4.97-7.99v-82.29z" fill="#98bce5"/><g fill="#7bacdf"><path d="m181.481 239.876c-3.04-1.5-4.97-4.6-4.97-7.99v-82.29l11.258-17.932h-49.716l-11.258 17.932v82.29c0 3.39 1.93 6.49 4.97 7.99l47.83 23.5c2.47 1.22 5.37 1.22 7.85 0l20.931-10.286z"/><path d="m240.235 126.006v23.59h-113.44v-23.59c0-4.92 3.98-8.9 8.9-8.9h95.65c4.91 0 8.89 3.98 8.89 8.9z"/><path d="m185.411 117.106h-49.716c-4.92 0-8.9 3.98-8.9 8.9v23.59h49.716v-23.59c0-4.92 3.98-8.9 8.9-8.9z"/></g></g></g><g id="XMLID_667_"><g><g id="XMLID_672_"><g><path d="m458.285 338.086c3.52 4.01 3.27 10.08-.55 13.81l-19.41 18.9-.65-.67-109.89-125.65-.64-.67 18.94-18.01c4.14-3.93 10.72-3.63 14.48.67z" fill="#d5e3f4"/></g></g></g></g></g></g></g><g><path d="m126.794 199.182c-4.143 0-7.5 3.357-7.5 7.5v25.207c0 6.298 3.511 11.937 9.163 14.715l47.827 23.509c2.265 1.112 4.748 1.669 7.231 1.669 2.484-.001 4.969-.557 7.233-1.67l47.826-23.508c5.651-2.777 9.163-8.416 9.163-14.715v-105.885c0-9.04-7.355-16.396-16.396-16.396h-95.652c-9.041 0-16.396 7.355-16.396 16.396v48.715c0 4.143 3.357 7.5 7.5 7.5s7.5-3.357 7.5-7.5v-17.625h98.444v74.795c0 .537-.299 1.017-.78 1.254l-47.825 23.507c-.387.189-.848.188-1.232.001l-47.825-23.508c-.475-.233-.781-.726-.781-1.254v-25.207c0-4.143-3.357-7.5-7.5-7.5zm7.5-57.088v-16.09c0-.77.626-1.396 1.396-1.396h95.652c.77 0 1.396.626 1.396 1.396v16.09z"/><path d="m463.926 333.142-97.72-111.618c-3.177-3.629-7.58-5.748-12.397-5.969-4.813-.217-9.396 1.488-12.89 4.811l-31.651 30.095v-231.437c0-.259-.013-.516-.039-.768-.408-10.132-8.755-18.256-18.986-18.256h-141.43c-4.143 0-7.5 3.357-7.5 7.5s3.357 7.5 7.5 7.5h141.43c2.22 0 4.025 1.806 4.025 4.024v39.632h-14.692c-4.143 0-7.5 3.357-7.5 7.5s3.357 7.5 7.5 7.5h14.692v194.283 228.329h-27.883v-219.156c0-4.143-3.357-7.5-7.5-7.5s-7.5 3.357-7.5 7.5v219.156h-133.63c-1.711 0-3.172-1.223-3.475-2.906l-56.087-312.652c-.38-2.12-.207-4.316.5-6.352l34.981-100.702h153.939c4.143 0 7.5-3.357 7.5-7.5s-3.357-7.5-7.5-7.5h-151.774v-39.632c0-2.219 1.806-4.024 4.024-4.024h16.986c4.143 0 7.5-3.357 7.5-7.5s-3.357-7.5-7.5-7.5h-16.985c-10.49 0-19.024 8.534-19.024 19.024v45.866l-36.317 104.546c-1.55 4.461-1.928 9.275-1.094 13.923l56.088 312.653c1.586 8.84 9.257 15.257 18.238 15.257h178.625c5.439 0 10.582-2.09 14.48-5.886l152.107-148.118c6.683-6.509 7.105-17.105.959-24.123zm-137.243-78.542 71.211 81.431-88.626 86.301v-151.174zm-17.415 231.397v-42.729l98.514-95.93 20.181 23.077zm143.234-139.478-13.778 13.416-101.162-115.68 13.693-13.019c.683-.649 1.461-.719 1.868-.697.404.019 1.175.155 1.797.865l97.721 111.618c.891 1.018.829 2.553-.139 3.497z"/></g></svg>