<?xml version="1.0" encoding="UTF-8" standalone="no"?>
<!-- Created with Inkscape (http://www.inkscape.org/) -->

<svg
   version="1.1"
   id="svg5574"
   xml:space="preserve"
   width="682.66669"
   height="682.66669"
   viewBox="0 0 682.66669 682.66669"
   xmlns="http://www.w3.org/2000/svg"
   xmlns:svg="http://www.w3.org/2000/svg"><defs
     id="defs5578"><clipPath
       clipPathUnits="userSpaceOnUse"
       id="clipPath5596"><path
         d="M 0,512 H 512 V 0 H 0 Z"
         id="path5594" /></clipPath></defs><g
     id="g5580"
     transform="matrix(1.3333333,0,0,-1.3333333,0,682.66667)"><g
       id="g5582"
       transform="translate(396.1403,388.8921)"><path
         d="m 0,0 h -280.28 l 20.557,61.055 h 239.165 z"
         style="fill:#fa955a;fill-opacity:1;fill-rule:nonzero;stroke:none"
         id="path5584" /></g><g
       id="g5586"
       transform="translate(375.5827,449.9468)"><path
         d="m 0,0 h -30 l 20.558,-61.054 h 30 z"
         style="fill:#f67f58;fill-opacity:1;fill-rule:nonzero;stroke:none"
         id="path5588" /></g><g
       id="g5590"><g
         id="g5592"
         clip-path="url(#clipPath5596)"><g
           id="g5598"
           transform="translate(396.1403,388.8921)"><path
             d="m 0,0 h -280.28 v -369.463 c 0,-6.588 5.341,-11.929 11.928,-11.929 h 256.423 c 6.588,0 11.929,5.341 11.929,11.929 z"
             style="fill:#f2f5fb;fill-opacity:1;fill-rule:nonzero;stroke:none"
             id="path5600" /></g><g
           id="g5602"
           transform="translate(375.5827,449.9468)"><path
             d="m 0,0 h -239.165 v 40.056 c 0,8.007 6.49,14.497 14.497,14.497 H -14.497 C -6.49,54.553 0,48.063 0,40.056 Z"
             style="fill:#f2f5fb;fill-opacity:1;fill-rule:nonzero;stroke:none"
             id="path5604" /></g><g
           id="g5606"
           transform="translate(366.1403,388.8926)"><path
             d="m 0,0 v -369.463 c 0,-6.589 -5.341,-11.93 -11.93,-11.93 h 30 c 6.589,0 11.93,5.341 11.93,11.93 V 0 Z"
             style="fill:#e6e8f0;fill-opacity:1;fill-rule:nonzero;stroke:none"
             id="path5608" /></g><g
           id="g5610"
           transform="translate(361.0856,504.5)"><path
             d="m 0,0 h -30 c 8.007,0 14.497,-6.491 14.497,-14.498 v -40.055 h 30 v 40.055 C 14.497,-6.491 8.007,0 0,0"
             style="fill:#e6e8f0;fill-opacity:1;fill-rule:nonzero;stroke:none"
             id="path5612" /></g><g
           id="g5614"
           transform="translate(115.8601,203.1963)"><path
             d="m 0,0 v -81.494 l 280.28,70 V 70 Z"
             style="fill:#fa955a;fill-opacity:1;fill-rule:nonzero;stroke:none"
             id="path5616" /></g><g
           id="g5618"
           transform="translate(243.0476,283.7095)"><path
             d="m 0,0 c 4.225,0.635 8.55,0.963 12.952,0.963 47.76,0 86.477,-38.716 86.477,-86.476 0,-47.76 -38.717,-86.477 -86.477,-86.477 -47.76,0 -86.476,38.717 -86.476,86.477 0,19.275 6.306,37.077 16.968,51.456"
             style="fill:#ffac7b;fill-opacity:1;fill-rule:nonzero;stroke:none"
             id="path5620" /></g><g
           id="g5622"
           transform="translate(366.1403,265.7036)"><path
             d="m 0,0 v -81.493 l 30,7.492 V 7.493 Z"
             style="fill:#f67f58;fill-opacity:1;fill-rule:nonzero;stroke:none"
             id="path5624" /></g><g
           id="g5626"
           transform="translate(255.9997,284.6729)"><path
             d="m 0,0 c -4.401,0 -8.728,-0.329 -12.952,-0.963 l -0.93,-0.56 c 40.054,-7.554 70.36,-42.705 70.36,-84.954 0,-42.641 -30.872,-78.047 -71.478,-85.153 4.875,-0.853 9.882,-1.324 15,-1.324 47.76,0 86.478,38.718 86.478,86.477 C 86.478,-38.717 47.76,0 0,0"
             style="fill:#fa955a;fill-opacity:1;fill-rule:nonzero;stroke:none"
             id="path5628" /></g><g
           id="g5630"
           transform="translate(186.4919,249.6523)"><path
             d="M 0,0 C 13.32,17.965 33.44,30.585 56.556,34.057"
             style="fill:#ffac7b;fill-opacity:1;fill-rule:nonzero;stroke:none"
             id="path5632" /></g><g
           id="g5634"
           transform="translate(228.5954,305.8813)"><path
             d="m 0,0 c 14.425,-14.426 14.628,-39.107 13.657,-51.544 -0.357,-4.567 -3.97,-8.181 -8.538,-8.538 -12.436,-0.97 -37.118,-0.768 -51.544,13.658 -13.017,13.017 -19.93,39.865 -23.15,56.828 -1.435,7.561 5.185,14.181 12.747,12.746 C -39.865,19.931 -13.018,13.018 0,0"
             style="fill:#80d57b;fill-opacity:1;fill-rule:nonzero;stroke:none"
             id="path5636" /></g><g
           id="g5638"
           transform="translate(300.9235,205.6963)"><path
             d="m 0,0 c 0,-4.142 -3.358,-7.5 -7.5,-7.5 -4.143,0 -7.5,3.358 -7.5,7.5 0,4.142 3.357,7.5 7.5,7.5 C -3.358,7.5 0,4.142 0,0"
             style="fill:#000000;fill-opacity:1;fill-rule:nonzero;stroke:none"
             id="path5640" /></g><g
           id="g5642"
           transform="translate(308.4235,162.3721)"><path
             d="m 0,0 c 0,-4.142 -3.358,-7.5 -7.5,-7.5 -4.143,0 -7.5,3.358 -7.5,7.5 0,4.142 3.357,7.5 7.5,7.5 C -3.358,7.5 0,4.142 0,0"
             style="fill:#000000;fill-opacity:1;fill-rule:nonzero;stroke:none"
             id="path5644" /></g><g
           id="g5646"
           transform="translate(263.4997,162.3721)"><path
             d="m 0,0 c 0,-4.142 -3.357,-7.5 -7.5,-7.5 -4.142,0 -7.5,3.358 -7.5,7.5 0,4.142 3.358,7.5 7.5,7.5 C -3.357,7.5 0,4.142 0,0"
             style="fill:#000000;fill-opacity:1;fill-rule:nonzero;stroke:none"
             id="path5648" /></g><g
           id="g5650"
           transform="translate(396.1403,388.8921)"><path
             d="m 0,0 h -280.28 l 20.557,61.055 h 239.165 z"
             style="fill:none;stroke:#000000;stroke-width:15;stroke-linecap:round;stroke-linejoin:round;stroke-miterlimit:10;stroke-dasharray:none;stroke-opacity:1"
             id="path5652" /></g><g
           id="g5654"
           transform="translate(396.1403,117.4434)"><path
             d="M 0,0 V 271.449 H -280.28 V 159.703"
             style="fill:none;stroke:#000000;stroke-width:15;stroke-linecap:round;stroke-linejoin:round;stroke-miterlimit:10;stroke-dasharray:none;stroke-opacity:1"
             id="path5656" /></g><g
           id="g5658"
           transform="translate(115.8601,247.1465)"><path
             d="m 0,0 v -227.717 c 0,-6.589 5.341,-11.929 11.929,-11.929 h 256.423 c 6.587,0 11.928,5.34 11.928,11.929 v 68.014"
             style="fill:none;stroke:#000000;stroke-width:15;stroke-linecap:round;stroke-linejoin:round;stroke-miterlimit:10;stroke-dasharray:none;stroke-opacity:1"
             id="path5660" /></g><g
           id="g5662"
           transform="translate(375.5827,449.9468)"><path
             d="m 0,0 h -239.165 v 40.056 c 0,8.007 6.49,14.497 14.497,14.497 H -14.497 C -6.49,54.553 0,48.063 0,40.056 Z"
             style="fill:none;stroke:#000000;stroke-width:15;stroke-linecap:round;stroke-linejoin:round;stroke-miterlimit:10;stroke-dasharray:none;stroke-opacity:1"
             id="path5664" /></g><g
           id="g5666"
           transform="translate(327.111,77.9502)"><path
             d="M 0,0 H 30.731"
             style="fill:none;stroke:#000000;stroke-width:15;stroke-linecap:round;stroke-linejoin:round;stroke-miterlimit:10;stroke-dasharray:none;stroke-opacity:1"
             id="path5668" /></g><g
           id="g5670"
           transform="translate(327.111,49.3159)"><path
             d="M 0,0 H 30.731"
             style="fill:none;stroke:#000000;stroke-width:15;stroke-linecap:round;stroke-linejoin:round;stroke-miterlimit:10;stroke-dasharray:none;stroke-opacity:1"
             id="path5672" /></g><g
           id="g5674"
           transform="translate(243.0476,283.7095)"><path
             d="m 0,0 c 4.225,0.635 8.55,0.963 12.952,0.963 47.76,0 86.477,-38.716 86.477,-86.476 0,-47.76 -38.717,-86.477 -86.477,-86.477 -47.76,0 -86.476,38.717 -86.476,86.477 0,19.275 6.306,37.077 16.968,51.456"
             style="fill:none;stroke:#000000;stroke-width:15;stroke-linecap:round;stroke-linejoin:round;stroke-miterlimit:10;stroke-dasharray:none;stroke-opacity:1"
             id="path5676" /></g><g
           id="g5678"
           transform="translate(228.5954,305.8813)"><path
             d="m 0,0 c 14.425,-14.426 14.628,-39.107 13.657,-51.544 -0.357,-4.567 -3.97,-8.181 -8.538,-8.538 -12.436,-0.97 -37.118,-0.768 -51.544,13.658 -13.017,13.017 -19.93,39.865 -23.15,56.828 -1.435,7.561 5.185,14.181 12.747,12.746 C -39.865,19.931 -13.018,13.018 0,0 Z"
             style="fill:none;stroke:#000000;stroke-width:15;stroke-linecap:round;stroke-linejoin:round;stroke-miterlimit:10;stroke-dasharray:none;stroke-opacity:1"
             id="path5680" /></g><g
           id="g5682"
           transform="translate(200.7917,287.2607)"><path
             d="M 0,0 38.771,-38.771"
             style="fill:none;stroke:#000000;stroke-width:15;stroke-linecap:round;stroke-linejoin:round;stroke-miterlimit:10;stroke-dasharray:none;stroke-opacity:1"
             id="path5684" /></g><g
           id="g5686"
           transform="translate(311.7448,419.4194)"><path
             d="M 0,0 H 30.731"
             style="fill:none;stroke:#000000;stroke-width:15;stroke-linecap:round;stroke-linejoin:round;stroke-miterlimit:10;stroke-dasharray:none;stroke-opacity:1"
             id="path5688" /></g><g
           id="g5690"
           transform="translate(115.8601,203.1963)"><path
             d="M 0,0 55.745,13.922"
             style="fill:none;stroke:#000000;stroke-width:15;stroke-linecap:round;stroke-linejoin:round;stroke-miterlimit:10;stroke-dasharray:none;stroke-opacity:1"
             id="path5692" /></g><g
           id="g5694"
           transform="translate(115.8601,121.7026)"><path
             d="M 0,0 72.953,18.22"
             style="fill:none;stroke:#000000;stroke-width:15;stroke-linecap:round;stroke-linejoin:round;stroke-miterlimit:10;stroke-dasharray:none;stroke-opacity:1"
             id="path5696" /></g><g
           id="g5698"
           transform="translate(321.572,254.5728)"><path
             d="M 0,0 74.568,18.624"
             style="fill:none;stroke:#000000;stroke-width:15;stroke-linecap:round;stroke-linejoin:round;stroke-miterlimit:10;stroke-dasharray:none;stroke-opacity:1"
             id="path5700" /></g><g
           id="g5702"
           transform="translate(339.6374,176.1509)"><path
             d="M 0,0 55.503,15.552"
             style="fill:none;stroke:#000000;stroke-width:15;stroke-linecap:round;stroke-linejoin:round;stroke-miterlimit:10;stroke-dasharray:none;stroke-opacity:1"
             id="path5704" /></g></g></g></g></svg>
