<?xml version="1.0" encoding="UTF-8" standalone="no"?>
<!-- Created with Inkscape (http://www.inkscape.org/) -->

<svg
   version="1.1"
   id="svg6393"
   xml:space="preserve"
   width="682.66669"
   height="682.66669"
   viewBox="0 0 682.66669 682.66669"
   xmlns="http://www.w3.org/2000/svg"
   xmlns:svg="http://www.w3.org/2000/svg"><defs
     id="defs6397"><clipPath
       clipPathUnits="userSpaceOnUse"
       id="clipPath6407"><path
         d="M 0,512 H 512 V 0 H 0 Z"
         id="path6405" /></clipPath></defs><g
     id="g6399"
     transform="matrix(1.3333333,0,0,-1.3333333,0,682.66667)"><g
       id="g6401"><g
         id="g6403"
         clip-path="url(#clipPath6407)"><g
           id="g6409"
           transform="translate(278.3555,7.5)"><path
             d="m 0,0 v 0 c 6.904,0 12.5,5.597 12.5,12.5 v 120 c 0,6.903 -5.596,12.5 -12.5,12.5 -6.903,0 -12.5,-5.597 -12.5,-12.5 V 12.5 C -12.5,5.597 -6.903,0 0,0"
             style="fill:#bbec6c;fill-opacity:1;fill-rule:nonzero;stroke:none"
             id="path6411" /></g><g
           id="g6413"
           transform="translate(278.3555,7.5)"><path
             d="m 0,0 v 0 c 6.904,0 12.5,5.597 12.5,12.5 v 120 c 0,6.903 -5.596,12.5 -12.5,12.5 -6.903,0 -12.5,-5.597 -12.5,-12.5 V 12.5 C -12.5,5.597 -6.903,0 0,0 Z"
             style="fill:none;stroke:#000000;stroke-width:15;stroke-linecap:round;stroke-linejoin:round;stroke-miterlimit:10;stroke-dasharray:none;stroke-opacity:1"
             id="path6415" /></g><g
           id="g6417"
           transform="translate(233.6445,7.5)"><path
             d="m 0,0 v 0 c 6.903,0 12.5,5.597 12.5,12.5 v 120 c 0,6.903 -5.597,12.5 -12.5,12.5 -6.904,0 -12.5,-5.597 -12.5,-12.5 V 12.5 C -12.5,5.597 -6.904,0 0,0"
             style="fill:#bbec6c;fill-opacity:1;fill-rule:nonzero;stroke:none"
             id="path6419" /></g><g
           id="g6421"
           transform="translate(233.6445,7.5)"><path
             d="m 0,0 v 0 c 6.903,0 12.5,5.597 12.5,12.5 v 120 c 0,6.903 -5.597,12.5 -12.5,12.5 -6.904,0 -12.5,-5.597 -12.5,-12.5 V 12.5 C -12.5,5.597 -6.904,0 0,0 Z"
             style="fill:none;stroke:#000000;stroke-width:15;stroke-linecap:round;stroke-linejoin:round;stroke-miterlimit:10;stroke-dasharray:none;stroke-opacity:1"
             id="path6423" /></g><g
           id="g6425"
           transform="translate(256,7.5)"><path
             d="m 0,0 v 0 c 6.904,0 12.5,5.597 12.5,12.5 v 120 c 0,6.903 -5.596,12.5 -12.5,12.5 -6.904,0 -12.5,-5.597 -12.5,-12.5 V 12.5 C -12.5,5.597 -6.904,0 0,0"
             style="fill:#a2e62e;fill-opacity:1;fill-rule:nonzero;stroke:none"
             id="path6427" /></g><g
           id="g6429"
           transform="translate(256,7.5)"><path
             d="m 0,0 v 0 c 6.904,0 12.5,5.597 12.5,12.5 v 120 c 0,6.903 -5.596,12.5 -12.5,12.5 -6.904,0 -12.5,-5.597 -12.5,-12.5 V 12.5 C -12.5,5.597 -6.904,0 0,0 Z"
             style="fill:none;stroke:#000000;stroke-width:15;stroke-linecap:round;stroke-linejoin:round;stroke-miterlimit:10;stroke-dasharray:none;stroke-opacity:1"
             id="path6431" /></g><g
           id="g6433"
           transform="translate(345.4614,322.1797)"><path
             d="m 0,0 c -4.472,11.386 -17.169,17.226 -28.933,13.873 l -12.829,-3.656 c 5.1,6.217 6.974,14.92 3.956,23.142 -4.284,11.674 -17.146,17.8 -29.105,14.392 L -72.704,46.1 c 5.101,6.216 6.975,14.921 3.956,23.143 -4.284,11.674 -17.145,17.799 -29.104,14.391 l -8.818,-2.513 c 5.1,6.217 6.974,14.92 3.956,23.143 -4.285,11.674 -17.145,17.799 -29.105,14.391 l -9.583,-2.731 c 2.151,5.6 2.407,11.988 0.216,18.176 -4.301,12.141 -17.105,19.439 -29.739,16.927 -7.914,-1.573 -14.172,-6.456 -17.775,-12.834 0.055,3.778 -0.7,7.661 -2.427,11.427 -4.915,10.713 -16.684,16.859 -28.288,14.793 -15.547,-2.768 -24.923,-18.219 -20.707,-33.013 0.721,-2.528 1.793,-4.86 3.142,-6.965 -6.424,3.52 -14.315,4.37 -21.87,1.535 -12.06,-4.527 -19.094,-17.478 -16.347,-30.063 1.399,-6.412 4.984,-11.705 9.764,-15.331 l -9.583,-2.731 c -11.959,-3.408 -19.658,-15.393 -17.145,-27.572 1.77,-8.578 7.951,-14.986 15.561,-17.581 l -8.817,-2.512 c -11.959,-3.409 -19.659,-15.394 -17.146,-27.573 1.77,-8.578 7.951,-14.986 15.562,-17.58 l -5.793,-1.651 c -11.959,-3.408 -19.659,-15.393 -17.145,-27.571 1.77,-8.579 7.95,-14.988 15.561,-17.581 l -12.829,-3.657 c -11.764,-3.352 -19.475,-15.007 -17.272,-27.041 2.532,-13.84 16.466,-22.251 29.682,-18.484 l 4.276,1.219 c -5.101,-6.217 -6.974,-14.921 -3.956,-23.144 4.284,-11.674 17.145,-17.799 29.104,-14.39 l 11.625,3.312 c -3.588,-4.854 -4.997,-11.249 -3.225,-17.47 l 1.908,-6.694 c 3.032,-10.638 14.216,-16.86 24.854,-13.829 l 29.529,8.415 c 6.565,-9.336 18.537,-13.969 30.134,-10.664 0.029,0.009 0.059,0.017 0.089,0.025 5.597,1.616 11.626,0.283 15.811,-3.77 l 45.303,-43.892 15.359,61.18 c 1.419,5.651 5.84,9.961 11.448,11.54 0.03,0.008 0.059,0.016 0.089,0.025 11.596,3.305 19.328,13.553 19.985,24.948 l 29.529,8.415 c 10.638,3.032 16.861,14.215 13.83,24.853 l -1.908,6.694 c -1.773,6.221 -6.341,10.913 -11.95,13.146 l 11.625,3.312 c 11.959,3.409 19.658,15.394 17.145,27.573 -1.77,8.578 -7.951,14.986 -15.561,17.581 l 4.275,1.218 C -2.263,-27.589 5.144,-13.098 0,0"
             style="fill:#0ed290;fill-opacity:1;fill-rule:nonzero;stroke:none"
             id="path6435" /></g><g
           id="g6437"
           transform="translate(345.4614,322.1797)"><path
             d="m 0,0 c -4.472,11.386 -17.169,17.226 -28.933,13.873 l -12.829,-3.656 c 5.1,6.217 6.974,14.92 3.956,23.142 -4.284,11.674 -17.146,17.8 -29.105,14.392 L -72.704,46.1 c 5.101,6.216 6.975,14.921 3.956,23.143 -4.284,11.674 -17.145,17.799 -29.104,14.391 l -8.818,-2.513 c 5.1,6.217 6.974,14.92 3.956,23.143 -4.285,11.674 -17.145,17.799 -29.105,14.391 l -9.583,-2.731 c 2.151,5.6 2.407,11.988 0.216,18.176 -4.301,12.141 -17.105,19.439 -29.739,16.927 -7.914,-1.573 -14.172,-6.456 -17.775,-12.834 0.055,3.778 -0.7,7.661 -2.427,11.427 -4.915,10.713 -16.684,16.859 -28.288,14.793 -15.547,-2.768 -24.923,-18.219 -20.707,-33.013 0.721,-2.528 1.793,-4.86 3.142,-6.965 -6.424,3.52 -14.315,4.37 -21.87,1.535 -12.06,-4.527 -19.094,-17.478 -16.347,-30.063 1.399,-6.412 4.984,-11.705 9.764,-15.331 l -9.583,-2.731 c -11.959,-3.408 -19.658,-15.393 -17.145,-27.572 1.77,-8.578 7.951,-14.986 15.561,-17.581 l -8.817,-2.512 c -11.959,-3.409 -19.659,-15.394 -17.146,-27.573 1.77,-8.578 7.951,-14.986 15.562,-17.58 l -5.793,-1.651 c -11.959,-3.408 -19.659,-15.393 -17.145,-27.571 1.77,-8.579 7.95,-14.988 15.561,-17.581 l -12.829,-3.657 c -11.764,-3.352 -19.475,-15.007 -17.272,-27.041 2.532,-13.84 16.466,-22.251 29.682,-18.484 l 4.276,1.219 c -5.101,-6.217 -6.974,-14.921 -3.956,-23.144 4.284,-11.674 17.145,-17.799 29.104,-14.39 l 11.625,3.312 c -3.588,-4.854 -4.997,-11.249 -3.225,-17.47 l 1.908,-6.694 c 3.032,-10.638 14.216,-16.86 24.854,-13.829 l 29.529,8.415 c 6.565,-9.336 18.537,-13.969 30.134,-10.664 0.029,0.009 0.059,0.017 0.089,0.025 5.597,1.616 11.626,0.283 15.811,-3.77 l 45.303,-43.892 15.359,61.18 c 1.419,5.651 5.84,9.961 11.448,11.54 0.03,0.008 0.059,0.016 0.089,0.025 11.596,3.305 19.328,13.553 19.985,24.948 l 29.529,8.415 c 10.638,3.032 16.861,14.215 13.83,24.853 l -1.908,6.694 c -1.773,6.221 -6.341,10.913 -11.95,13.146 l 11.625,3.312 c 11.959,3.409 19.658,15.394 17.145,27.573 -1.77,8.578 -7.951,14.986 -15.561,17.581 l 4.275,1.218 C -2.263,-27.589 5.144,-13.098 0,0 Z"
             style="fill:none;stroke:#000000;stroke-width:15;stroke-linecap:round;stroke-linejoin:round;stroke-miterlimit:10;stroke-dasharray:none;stroke-opacity:1"
             id="path6439" /></g><g
           id="g6441"
           transform="translate(103.1743,361.3799)"><path
             d="m 0,0 66.196,-36.833 36.833,66.195"
             style="fill:none;stroke:#000000;stroke-width:15;stroke-linecap:round;stroke-linejoin:round;stroke-miterlimit:10;stroke-dasharray:none;stroke-opacity:1"
             id="path6443" /></g><g
           id="g6445"
           transform="translate(110.356,294.5977)"><path
             d="m 0,0 80.28,-44.671 44.67,80.28"
             style="fill:none;stroke:#000000;stroke-width:15;stroke-linecap:round;stroke-linejoin:round;stroke-miterlimit:10;stroke-dasharray:none;stroke-opacity:1"
             id="path6447" /></g><g
           id="g6449"
           transform="translate(114.6958,229.4697)"><path
             d="m 0,0 97.181,-54.074 54.074,97.18"
             style="fill:none;stroke:#000000;stroke-width:15;stroke-linecap:round;stroke-linejoin:round;stroke-miterlimit:10;stroke-dasharray:none;stroke-opacity:1"
             id="path6451" /></g><g
           id="g6453"
           transform="translate(248.9868,93)"><path
             d="m 0,0 -84.711,297.241 c -1.984,6.962 -9.235,10.997 -16.197,9.013 -6.961,-1.984 -10.996,-9.236 -9.012,-16.197 L -27.257,0 Z"
             style="fill:#bbec6c;fill-opacity:1;fill-rule:nonzero;stroke:none"
             id="path6455" /></g><g
           id="g6457"
           transform="translate(248.9868,93)"><path
             d="m 0,0 -84.711,297.241 c -1.984,6.962 -9.235,10.997 -16.197,9.013 -6.961,-1.984 -10.996,-9.236 -9.012,-16.197 L -27.257,0 Z"
             style="fill:none;stroke:#000000;stroke-width:15;stroke-linecap:round;stroke-linejoin:round;stroke-miterlimit:10;stroke-dasharray:none;stroke-opacity:1"
             id="path6459" /></g><g
           id="g6461"
           transform="translate(166.5386,322.1797)"><path
             d="m 0,0 c 4.472,11.386 17.169,17.226 28.933,13.873 l 12.829,-3.656 c -5.1,6.217 -6.974,14.92 -3.956,23.142 4.284,11.674 17.146,17.8 29.105,14.392 L 72.704,46.1 c -5.101,6.216 -6.975,14.921 -3.956,23.143 4.284,11.674 17.145,17.799 29.104,14.391 l 8.818,-2.513 c -5.1,6.217 -6.974,14.92 -3.956,23.143 4.285,11.674 17.145,17.799 29.105,14.391 l 9.583,-2.731 c -2.151,5.6 -2.407,11.988 -0.216,18.176 4.301,12.141 17.105,19.439 29.739,16.927 7.914,-1.573 14.172,-6.456 17.775,-12.834 -0.055,3.778 0.7,7.661 2.427,11.427 4.915,10.713 16.684,16.859 28.288,14.793 15.547,-2.768 24.923,-18.219 20.707,-33.013 -0.721,-2.528 -1.793,-4.86 -3.142,-6.965 6.424,3.52 14.315,4.37 21.87,1.535 12.06,-4.527 19.094,-17.478 16.347,-30.063 -1.399,-6.412 -4.984,-11.705 -9.764,-15.331 l 9.583,-2.731 C 286.975,74.437 294.674,62.452 292.161,50.273 290.391,41.695 284.21,35.287 276.6,32.692 l 8.817,-2.512 c 11.959,-3.409 19.659,-15.394 17.146,-27.573 -1.77,-8.578 -7.951,-14.986 -15.562,-17.58 l 5.793,-1.651 c 11.959,-3.408 19.659,-15.393 17.145,-27.571 -1.77,-8.579 -7.95,-14.988 -15.561,-17.581 l 12.829,-3.657 c 11.764,-3.352 19.475,-15.007 17.272,-27.041 -2.532,-13.84 -16.466,-22.251 -29.682,-18.484 l -4.276,1.219 c 5.101,-6.217 6.974,-14.921 3.956,-23.144 -4.284,-11.674 -17.145,-17.799 -29.104,-14.39 l -11.625,3.312 c 3.588,-4.854 4.997,-11.249 3.225,-17.47 l -1.908,-6.694 c -3.032,-10.638 -14.216,-16.86 -24.854,-13.829 l -29.529,8.415 c -6.565,-9.336 -18.537,-13.969 -30.134,-10.664 -0.029,0.009 -0.059,0.017 -0.089,0.025 -5.597,1.616 -11.626,0.283 -15.811,-3.77 l -45.303,-43.892 -15.359,61.18 c -1.419,5.651 -5.84,9.961 -11.448,11.54 -0.03,0.008 -0.059,0.016 -0.089,0.025 -11.596,3.305 -19.328,13.553 -19.985,24.948 l -29.529,8.415 c -10.638,3.032 -16.861,14.215 -13.83,24.853 l 1.908,6.694 c 1.773,6.221 6.341,10.913 11.95,13.146 l -11.625,3.312 C 9.379,-74.318 1.68,-62.333 4.193,-50.154 c 1.77,8.578 7.951,14.986 15.561,17.581 l -4.275,1.218 C 2.263,-27.589 -5.144,-13.098 0,0"
             style="fill:#07b17b;fill-opacity:1;fill-rule:nonzero;stroke:none"
             id="path6463" /></g><g
           id="g6465"
           transform="translate(412,142)"><path
             d="m 0,0 c 4.518,2.504 8.084,6.725 9.604,12.055 l 1.907,6.694 c 1.773,6.221 0.364,12.615 -3.224,17.47 l 11.624,-3.313 c 11.959,-3.408 24.82,2.717 29.105,14.391 3.018,8.223 1.144,16.927 -3.956,23.143 l 4.276,-1.218 c 13.215,-3.767 27.149,4.643 29.682,18.485 2.202,12.032 -5.509,23.688 -17.273,27.04 l -12.828,3.656 c 7.61,2.594 13.791,9.002 15.561,17.581 2.513,12.179 -5.186,24.163 -17.145,27.572 l -5.793,1.651 c 7.611,2.594 13.791,9.002 15.562,17.58 2.513,12.179 -5.187,24.164 -17.146,27.572 l -8.818,2.513 c 7.611,2.595 13.792,9.003 15.562,17.581 2.513,12.179 -5.187,24.164 -17.146,27.572 l -9.583,2.731 c 4.78,3.626 8.365,8.919 9.765,15.331 2.746,12.585 -4.288,25.536 -16.347,30.062 -7.555,2.835 -15.447,1.986 -21.87,-1.535 1.349,2.105 2.42,4.438 3.141,6.966 4.216,14.794 -5.16,30.244 -20.706,33.013 -11.604,2.066 -23.373,-4.08 -28.288,-14.793 -1.727,-3.765 -2.482,-7.65 -2.427,-11.427 -3.603,6.378 -9.861,11.261 -17.775,12.834 -12.634,2.512 -25.439,-4.786 -29.739,-16.928 -2.192,-6.187 -1.935,-12.574 0.215,-18.175 l -9.583,2.73 c -11.959,3.409 -24.82,-2.717 -29.104,-14.391 -3.018,-8.222 -1.145,-16.925 3.955,-23.142 l -8.817,2.512 c -11.959,3.409 -24.82,-2.716 -29.105,-14.39 -3.018,-8.224 -1.144,-16.927 3.956,-23.144 l -5.793,1.652 c -11.959,3.408 -24.82,-2.718 -29.104,-14.392 -3.018,-8.223 -1.145,-16.926 3.955,-23.143 l -12.828,3.657 c -11.764,3.352 -24.461,-2.488 -28.933,-13.873 -5.144,-13.098 2.263,-27.589 15.478,-31.356 l 4.276,-1.219 c -7.611,-2.593 -13.792,-9.001 -15.562,-17.58 -2.513,-12.178 5.187,-24.164 17.146,-27.572 l 11.625,-3.312 c -5.609,-2.234 -10.177,-6.925 -11.95,-13.146 l -1.908,-6.694 c -3.032,-10.638 3.191,-21.822 13.829,-24.854 l 29.529,-8.415 c 0.658,-11.394 8.39,-21.643 19.985,-24.948 0.03,-0.008 0.06,-0.017 0.089,-0.024 5.609,-1.58 10.029,-5.889 11.448,-11.54 l 15.359,-61.18 45.304,43.891 c 4.185,4.054 10.213,5.386 15.811,3.771 0.03,-0.008 0.06,-0.017 0.089,-0.025 11.596,-3.305 23.569,1.328 30.134,10.664 L -35,3.854"
             style="fill:none;stroke:#000000;stroke-width:15;stroke-linecap:round;stroke-linejoin:round;stroke-miterlimit:10;stroke-dasharray:none;stroke-opacity:1"
             id="path6467" /></g><g
           id="g6469"
           transform="translate(408.8257,361.3799)"><path
             d="m 0,0 -66.196,-36.833 -36.833,66.195"
             style="fill:none;stroke:#000000;stroke-width:15;stroke-linecap:round;stroke-linejoin:round;stroke-miterlimit:10;stroke-dasharray:none;stroke-opacity:1"
             id="path6471" /></g><g
           id="g6473"
           transform="translate(401.644,294.5977)"><path
             d="m 0,0 -80.28,-44.671 -44.67,80.28"
             style="fill:none;stroke:#000000;stroke-width:15;stroke-linecap:round;stroke-linejoin:round;stroke-miterlimit:10;stroke-dasharray:none;stroke-opacity:1"
             id="path6475" /></g><g
           id="g6477"
           transform="translate(397.3042,229.4697)"><path
             d="m 0,0 -97.181,-54.074 -54.074,97.18"
             style="fill:none;stroke:#000000;stroke-width:15;stroke-linecap:round;stroke-linejoin:round;stroke-miterlimit:10;stroke-dasharray:none;stroke-opacity:1"
             id="path6479" /></g><g
           id="g6481"
           transform="translate(363.9209,399.2539)"><path
             d="m 0,0 c -6.961,1.984 -14.213,-2.051 -16.197,-9.013 l -84.711,-297.241 h 27.257 L 9.012,-16.197 C 10.996,-9.236 6.961,-1.984 0,0"
             style="fill:#bbec6c;fill-opacity:1;fill-rule:nonzero;stroke:none"
             id="path6483" /></g><g
           id="g6485"
           transform="translate(363.9209,399.2539)"><path
             d="m 0,0 c -6.961,1.984 -14.213,-2.051 -16.197,-9.013 l -84.711,-297.241 h 27.257 L 9.012,-16.197 C 10.996,-9.236 6.961,-1.984 0,0 Z"
             style="fill:none;stroke:#000000;stroke-width:15;stroke-linecap:round;stroke-linejoin:round;stroke-miterlimit:10;stroke-dasharray:none;stroke-opacity:1"
             id="path6487" /></g><g
           id="g6489"
           transform="translate(425.2236,286.1064)"><path
             d="m 0,0 c -1.18,12.175 -11.791,21.271 -24.022,21.271 h -13.34 c 6.609,4.581 10.796,12.438 10.147,21.172 -0.921,12.402 -11.61,21.818 -24.046,21.818 h -6.023 c 6.609,4.581 10.796,12.437 10.147,21.173 -0.921,12.401 -11.61,21.816 -24.046,21.816 h -9.169 c 6.609,4.581 10.796,12.438 10.148,21.173 -0.921,12.401 -11.611,21.816 -24.046,21.816 h -9.965 c 3.604,4.798 5.601,10.87 5.189,17.421 -0.808,12.856 -11.122,23.383 -23.96,24.431 -8.043,0.656 -15.399,-2.324 -20.612,-7.471 1.088,3.617 1.426,7.56 0.797,11.654 -1.79,11.65 -11.424,20.787 -23.15,21.98 -15.711,1.598 -28.962,-10.691 -28.962,-26.073 0,-2.629 0.392,-5.166 1.112,-7.561 -5.213,5.147 -12.569,8.127 -20.611,7.471 -12.839,-1.048 -23.153,-11.575 -23.961,-24.431 -0.412,-6.551 1.585,-12.623 5.189,-17.421 h -9.964 c -12.436,0 -23.125,-9.415 -24.046,-21.816 -0.649,-8.735 3.538,-16.592 10.147,-21.173 h -9.169 c -12.435,0 -23.125,-9.415 -24.046,-21.816 -0.649,-8.736 3.539,-16.592 10.147,-21.173 h -6.023 c -12.435,0 -23.125,-9.416 -24.046,-21.818 -0.649,-8.734 3.538,-16.591 10.147,-21.172 h -13.339 c -12.232,0 -22.843,-9.096 -24.023,-21.271 -1.358,-14.006 9.738,-25.912 23.479,-25.912 h 4.447 c -6.609,-4.581 -10.797,-12.438 -10.148,-21.173 0.921,-12.401 11.611,-21.816 24.046,-21.816 h 12.088 c -4.782,-3.686 -7.889,-9.45 -7.889,-15.918 v -6.961 c 0,-11.061 9.049,-20.112 20.111,-20.112 h 30.705 c 3.755,-10.777 13.999,-18.514 26.057,-18.514 h 0.092 c 5.827,0.019 11.26,-2.914 14.173,-7.96 l 31.539,-54.627 31.539,54.627 c 2.913,5.046 8.346,7.979 14.172,7.96 h 0.092 c 12.058,0 22.303,7.737 26.058,18.514 h 30.705 c 11.061,0 20.111,9.051 20.111,20.112 v 6.961 c 0,6.468 -3.108,12.232 -7.89,15.918 h 12.088 c 12.435,0 23.125,9.415 24.046,21.816 0.649,8.735 -3.539,16.592 -10.147,21.173 h 4.446 C -9.738,-25.912 1.358,-14.006 0,0"
             style="fill:#0ed290;fill-opacity:1;fill-rule:nonzero;stroke:none"
             id="path6491" /></g><g
           id="g6493"
           transform="translate(166,292)"><path
             d="m 0,0 c 0,88.188 49.395,162.48 116.696,184.997 0.086,1.755 0.008,3.553 -0.274,5.384 -1.789,11.649 -11.423,20.786 -23.15,21.978 -15.709,1.599 -28.961,-10.689 -28.961,-26.072 0,-2.629 0.392,-5.166 1.112,-7.56 -5.213,5.146 -12.569,8.127 -20.611,7.47 -12.839,-1.048 -23.153,-11.575 -23.961,-24.43 -0.412,-6.551 1.585,-12.624 5.189,-17.421 h -9.965 c -12.435,0 -23.125,-9.415 -24.046,-21.817 -0.649,-8.735 3.539,-16.591 10.148,-21.173 h -9.169 c -12.436,0 -23.126,-9.415 -24.047,-21.816 -0.648,-8.735 3.539,-16.593 10.148,-21.173 h -6.024 c -12.435,0 -23.125,-9.416 -24.045,-21.816 -0.649,-8.736 3.538,-16.593 10.147,-21.173 h -13.339 c -12.233,0 -22.843,-9.097 -24.023,-21.272 -1.358,-14.005 9.737,-25.912 23.479,-25.912 h 4.446 c -6.608,-4.581 -10.796,-12.437 -10.147,-21.173 0.921,-12.401 11.61,-21.816 24.046,-21.816 h 12.087 c -4.781,-3.685 -7.889,-9.449 -7.889,-15.918 v -6.961 c 0,-11.06 9.05,-20.111 20.111,-20.111 H 18.664 C 22.418,-128.562 32.663,-136.3 44.72,-136.3 h 0.093 c 0.85,0.003 1.689,-0.064 2.516,-0.184 C 18.108,-101.684 0,-53.39 0,0"
             style="fill:#00c285;fill-opacity:1;fill-rule:nonzero;stroke:none"
             id="path6495" /></g><g
           id="g6497"
           transform="translate(425.2236,286.1064)"><path
             d="m 0,0 c -1.18,12.175 -11.791,21.271 -24.022,21.271 h -13.34 c 6.609,4.581 10.796,12.438 10.147,21.172 -0.921,12.402 -11.61,21.818 -24.046,21.818 h -6.023 c 6.609,4.581 10.796,12.437 10.147,21.173 -0.921,12.401 -11.61,21.816 -24.046,21.816 h -9.169 c 6.609,4.581 10.796,12.438 10.148,21.173 -0.921,12.401 -11.611,21.816 -24.046,21.816 h -9.965 c 3.604,4.798 5.601,10.87 5.189,17.421 -0.808,12.856 -11.122,23.383 -23.96,24.431 -8.043,0.656 -15.399,-2.324 -20.612,-7.471 1.088,3.617 1.426,7.56 0.797,11.654 -1.79,11.65 -11.424,20.787 -23.15,21.98 -15.711,1.598 -28.962,-10.691 -28.962,-26.073 0,-2.629 0.392,-5.166 1.112,-7.561 -5.213,5.147 -12.569,8.127 -20.611,7.471 -12.839,-1.048 -23.153,-11.575 -23.961,-24.431 -0.412,-6.551 1.585,-12.623 5.189,-17.421 h -9.964 c -12.436,0 -20.653,-9.853 -24.046,-21.816 -2.08,-7.331 1.591,-14.681 10.147,-21.173 h -9.169 c -12.435,0 -23.125,-9.415 -24.046,-21.816 -0.649,-8.736 3.539,-16.592 10.147,-21.173 h -6.023 c -12.435,0 -23.125,-9.416 -24.046,-21.818 -0.649,-8.734 3.538,-16.591 10.147,-21.172 h -13.339 c -12.232,0 -22.843,-9.096 -24.023,-21.271 -1.358,-14.006 9.738,-25.912 23.479,-25.912 h 4.447 c -6.609,-4.581 -10.797,-12.438 -10.148,-21.173 0.921,-12.401 11.611,-21.816 24.046,-21.816 h 12.088 c -4.782,-3.686 -7.889,-9.45 -7.889,-15.918 v -6.961 c 0,-11.061 9.049,-20.112 20.111,-20.112 h 30.705 c 3.755,-10.777 13.999,-18.514 26.057,-18.514 h 0.092 c 5.827,0.019 11.26,-2.914 14.173,-7.96 l 31.539,-54.627 31.539,54.627 c 2.913,5.046 8.346,7.979 14.172,7.96 h 0.092 c 12.058,0 22.303,7.737 26.058,18.514 h 30.705 c 11.061,0 20.111,9.051 20.111,20.112 v 6.961 c 0,6.468 -3.108,12.232 -7.89,15.918 h 12.088 c 12.435,0 23.125,9.415 24.046,21.816 0.649,8.735 -3.539,16.592 -10.147,21.173 h 4.446 C -9.738,-25.912 1.358,-14.006 0,0 Z"
             style="fill:none;stroke:#000000;stroke-width:15;stroke-linecap:round;stroke-linejoin:round;stroke-miterlimit:10;stroke-dasharray:none;stroke-opacity:1"
             id="path6499" /></g><g
           id="g6501"
           transform="translate(202.9585,390.2109)"><path
             d="M 0,0 53.566,-53.565 107.132,0"
             style="fill:none;stroke:#000000;stroke-width:15;stroke-linecap:round;stroke-linejoin:round;stroke-miterlimit:10;stroke-dasharray:none;stroke-opacity:1"
             id="path6503" /></g><g
           id="g6505"
           transform="translate(191.5615,324.0176)"><path
             d="M 0,0 64.963,-64.963 129.926,0"
             style="fill:none;stroke:#000000;stroke-width:15;stroke-linecap:round;stroke-linejoin:round;stroke-miterlimit:10;stroke-dasharray:none;stroke-opacity:1"
             id="path6507" /></g><g
           id="g6509"
           transform="translate(177.8853,260.1943)"><path
             d="M 0,0 78.639,-78.64 157.278,0"
             style="fill:none;stroke:#000000;stroke-width:15;stroke-linecap:round;stroke-linejoin:round;stroke-miterlimit:10;stroke-dasharray:none;stroke-opacity:1"
             id="path6511" /></g><g
           id="g6513"
           transform="translate(269.0244,93)"><path
             d="m 0,0 v 299.414 c 0,6.902 -5.597,12.5 -12.5,12.5 -6.903,0 -12.5,-5.598 -12.5,-12.5 V 0 Z"
             style="fill:#a2e62e;fill-opacity:1;fill-rule:nonzero;stroke:none"
             id="path6515" /></g><g
           id="g6517"
           transform="translate(269.0244,336)"><path
             d="m 0,0 v 56.414 c 0,6.902 -5.597,12.5 -12.5,12.5 -6.903,0 -12.5,-5.598 -12.5,-12.5 V -79"
             style="fill:none;stroke:#000000;stroke-width:15;stroke-linecap:round;stroke-linejoin:round;stroke-miterlimit:10;stroke-dasharray:none;stroke-opacity:1"
             id="path6519" /></g><g
           id="g6521"
           transform="translate(244.0244,222)"><path
             d="M 0,0 V -129 H 25 V 79"
             style="fill:none;stroke:#000000;stroke-width:15;stroke-linecap:round;stroke-linejoin:round;stroke-miterlimit:10;stroke-dasharray:none;stroke-opacity:1"
             id="path6523" /></g><g
           id="g6525"
           transform="translate(296,61)"><path
             d="m 0,0 h -80 c -2.761,0 -5,2.238 -5,5 v 23 c 0,2.762 2.239,5 5,5 H 0 c 2.761,0 5,-2.238 5,-5 V 5 C 5,2.238 2.761,0 0,0"
             style="fill:#fd9a01;fill-opacity:1;fill-rule:nonzero;stroke:none"
             id="path6527" /></g><g
           id="g6529"
           transform="translate(243,66)"><path
             d="m 0,0 v 23 c 0,2.762 2.239,5 5,5 h -32 c -2.761,0 -5,-2.238 -5,-5 V 0 c 0,-2.762 2.239,-5 5,-5 H 5 C 2.239,-5 0,-2.762 0,0"
             style="fill:#fb8801;fill-opacity:1;fill-rule:nonzero;stroke:none"
             id="path6531" /></g><g
           id="g6533"
           transform="translate(296,61)"><path
             d="m 0,0 h -80 c -2.761,0 -5,2.238 -5,5 v 23 c 0,2.762 2.239,5 5,5 H 0 c 2.761,0 5,-2.238 5,-5 V 5 C 5,2.238 2.761,0 0,0 Z"
             style="fill:none;stroke:#000000;stroke-width:15;stroke-linecap:round;stroke-linejoin:round;stroke-miterlimit:10;stroke-dasharray:none;stroke-opacity:1"
             id="path6535" /></g></g></g></g></svg>
