<?xml version="1.0" encoding="UTF-8" standalone="no"?>
<!-- Created with Inkscape (http://www.inkscape.org/) -->

<svg
   version="1.1"
   id="svg3903"
   xml:space="preserve"
   width="682.66669"
   height="682.66669"
   viewBox="0 0 682.66669 682.66669"
   xmlns="http://www.w3.org/2000/svg"
   xmlns:svg="http://www.w3.org/2000/svg"><defs
     id="defs3907"><clipPath
       clipPathUnits="userSpaceOnUse"
       id="clipPath3917"><path
         d="M 0,512 H 512 V 0 H 0 Z"
         id="path3915" /></clipPath></defs><g
     id="g3909"
     transform="matrix(1.3333333,0,0,-1.3333333,0,682.66667)"><g
       id="g3911"><g
         id="g3913"
         clip-path="url(#clipPath3917)"><g
           id="g3919"
           transform="translate(481.1533,471.6924)"><path
             d="m 0,0 v 24.727 c 0,4.463 -3.618,8.081 -8.081,8.081 h -76.865 c -5.358,0 -10.496,-2.129 -14.284,-5.917 l -345.159,-345.158 c -7.89,-7.889 -7.89,-20.68 0,-28.569 l 103.154,-103.155 c 17.654,-17.654 45.828,-19.016 65.102,-3.146 l 199.54,164.294 c 9.208,7.581 9.878,21.447 1.445,29.88 L -184.031,-150.079 -63.71,-29.757 -5.214,-7.555 C -2.075,-6.363 0,-3.356 0,0"
             style="fill:#88f2a9;fill-opacity:1;fill-rule:nonzero;stroke:none"
             id="path3921" /></g><g
           id="g3923"
           transform="translate(383.71,235.0249)"><path
             d="m 0,0 c 8.433,-8.434 7.763,-22.299 -1.444,-29.88 l -199.541,-164.294 c -19.274,-15.869 -47.447,-14.508 -65.1,3.144 l 22.293,-22.294 c 17.654,-17.654 45.828,-19.015 65.102,-3.146 L 20.851,-52.176 c 9.208,7.581 9.878,21.447 1.444,29.881 z"
             style="fill:#80e29e;fill-opacity:1;fill-rule:nonzero;stroke:none"
             id="path3925" /></g><g
           id="g3927"
           transform="translate(473.0723,504.5)"><path
             d="m 0,0 h -14.215 v -10.512 c 0,-3.357 -2.075,-6.363 -5.213,-7.555 l -58.496,-22.203 -113.18,-113.179 c -3.944,-3.945 -3.944,-10.34 0,-14.285 l 15.154,-15.153 120.321,120.322 58.496,22.203 c 3.139,1.191 5.214,4.198 5.214,7.555 V -8.081 C 8.081,-3.618 4.463,0 0,0"
             style="fill:#80e29e;fill-opacity:1;fill-rule:nonzero;stroke:none"
             id="path3929" /></g><g
           id="g3931"
           transform="translate(273.1787,184.1377)"><path
             d="M 0,0 57.854,57.854 80.709,34.998 22.855,-22.856 Z"
             style="fill:#ad7fdd;fill-opacity:1;fill-rule:nonzero;stroke:none"
             id="path3933" /></g><g
           id="g3935"
           transform="translate(228.1812,344.8423)"><path
             d="m 0,0 79.996,-79.995 -182.848,-182.846 -79.994,79.995 z"
             style="fill:#e6f7fe;fill-opacity:1;fill-rule:nonzero;stroke:none"
             id="path3937" /></g><g
           id="g3939"
           transform="translate(211.0391,270.561)"><path
             d="M 0,0 22.856,22.855 74.281,-28.57 51.426,-51.426 Z"
             style="fill:#2c4d66;fill-opacity:1;fill-rule:nonzero;stroke:none"
             id="path3941" /></g><g
           id="g3943"
           transform="translate(368.9229,427.6963)"><path
             d="m 0,0 17.141,-17.141 22.856,22.855 -17.14,17.14 c -3.155,3.155 -8.27,3.156 -11.426,0 L 0.001,11.428 C -3.155,8.273 -3.155,3.156 0,0"
             style="fill:#4980ac;fill-opacity:1;fill-rule:nonzero;stroke:none"
             id="path3945" /></g><g
           id="g3947"
           transform="translate(323.2119,381.9849)"><path
             d="M 0,0 17.141,-17.141 39.996,5.714 22.857,22.854 c -3.156,3.155 -8.271,3.156 -11.427,0 L 0,11.428 C -3.156,8.273 -3.156,3.156 0,0"
             style="fill:#4980ac;fill-opacity:1;fill-rule:nonzero;stroke:none"
             id="path3949" /></g><g
           id="g3951"
           transform="translate(346.0693,404.8379)"><path
             d="M 0,0 17.139,-17.139 39.993,5.716 22.852,22.853 C 19.695,26.007 14.58,26.007 11.424,22.852 L 0,11.428 C -3.155,8.272 -3.155,3.156 0,0"
             style="fill:#407194;fill-opacity:1;fill-rule:nonzero;stroke:none"
             id="path3953" /></g><g
           id="g3955"
           transform="translate(142.4717,201.9937)"><path
             d="M 0,0 22.856,22.856 74.281,-28.57 51.425,-51.425 Z"
             style="fill:#2c4d66;fill-opacity:1;fill-rule:nonzero;stroke:none"
             id="path3957" /></g><g
           id="g3959"
           transform="translate(96.7603,156.2822)"><path
             d="M 0,0 22.856,22.856 74.281,-28.57 51.425,-51.425 Z"
             style="fill:#2c4d66;fill-opacity:1;fill-rule:nonzero;stroke:none"
             id="path3961" /></g><g
           id="g3963"
           transform="translate(238.8945,126.9985)"><path
             d="m 0,0 c -6.312,6.312 -6.312,16.544 0,22.855 6.312,6.312 16.544,6.312 22.855,0 C 29.167,16.544 29.167,6.312 22.855,0 16.544,-6.312 6.312,-6.312 0,0"
             style="fill:#df646e;fill-opacity:1;fill-rule:nonzero;stroke:none"
             id="path3965" /></g><g
           id="g3967"
           transform="translate(193.1831,81.2871)"><path
             d="m 0,0 c -6.312,6.312 -6.312,16.544 0,22.855 6.312,6.312 16.544,6.312 22.856,0 C 29.167,16.544 29.167,6.312 22.855,0 16.544,-6.312 6.312,-6.312 0,0"
             style="fill:#f7e365;fill-opacity:1;fill-rule:nonzero;stroke:none"
             id="path3969" /></g><g
           id="g3971"
           transform="translate(368.9229,427.6963)"><path
             d="m 0,0 17.141,-17.141 22.856,22.855 -17.14,17.14 c -3.155,3.155 -8.27,3.156 -11.426,0 L 0.001,11.428 C -3.155,8.273 -3.155,3.156 0,0 Z"
             style="fill:none;stroke:#000000;stroke-width:15;stroke-linecap:round;stroke-linejoin:round;stroke-miterlimit:10;stroke-dasharray:none;stroke-opacity:1"
             id="path3973" /></g><g
           id="g3975"
           transform="translate(323.2119,381.9849)"><path
             d="M 0,0 17.141,-17.141 39.996,5.714 22.857,22.854 c -3.156,3.155 -8.271,3.156 -11.427,0 L 0,11.428 C -3.156,8.273 -3.156,3.156 0,0 Z"
             style="fill:none;stroke:#000000;stroke-width:15;stroke-linecap:round;stroke-linejoin:round;stroke-miterlimit:10;stroke-dasharray:none;stroke-opacity:1"
             id="path3977" /></g><g
           id="g3979"
           transform="translate(346.0693,404.8379)"><path
             d="M 0,0 17.139,-17.139 39.993,5.716 22.852,22.853 C 19.695,26.007 14.58,26.007 11.424,22.852 L 0,11.428 C -3.155,8.272 -3.155,3.156 0,0 Z"
             style="fill:none;stroke:#000000;stroke-width:15;stroke-linecap:round;stroke-linejoin:round;stroke-miterlimit:10;stroke-dasharray:none;stroke-opacity:1"
             id="path3981" /></g><g
           id="g3983"
           transform="translate(159.6138,276.2749)"><path
             d="M 0,0 79.995,-79.995"
             style="fill:none;stroke:#000000;stroke-width:15;stroke-linecap:butt;stroke-linejoin:round;stroke-miterlimit:10;stroke-dasharray:none;stroke-opacity:1"
             id="path3985" /></g><g
           id="g3987"
           transform="translate(193.8975,310.5586)"><path
             d="M 0,0 28.569,-28.57"
             style="fill:none;stroke:#000000;stroke-width:15;stroke-linecap:butt;stroke-linejoin:round;stroke-miterlimit:10;stroke-dasharray:none;stroke-opacity:1"
             id="path3989" /></g><g
           id="g3991"
           transform="translate(79.6187,196.2798)"><path
             d="M 0,0 28.569,-28.569"
             style="fill:none;stroke:#000000;stroke-width:15;stroke-linecap:butt;stroke-linejoin:round;stroke-miterlimit:10;stroke-dasharray:none;stroke-opacity:1"
             id="path3993" /></g><g
           id="g3995"
           transform="translate(125.3301,241.9912)"><path
             d="M 0,0 28.57,-28.569"
             style="fill:none;stroke:#000000;stroke-width:15;stroke-linecap:butt;stroke-linejoin:round;stroke-miterlimit:10;stroke-dasharray:none;stroke-opacity:1"
             id="path3997" /></g><g
           id="g3999"
           transform="translate(262.4648,219.1353)"><path
             d="M 0,0 -51.426,51.426 -28.57,74.281 22.855,22.856"
             style="fill:none;stroke:#000000;stroke-width:15;stroke-linecap:butt;stroke-linejoin:round;stroke-miterlimit:10;stroke-dasharray:none;stroke-opacity:1"
             id="path4001" /></g><g
           id="g4003"
           transform="translate(193.897,150.5684)"><path
             d="M 0,0 -51.425,51.425 -28.569,74.281 22.856,22.855"
             style="fill:none;stroke:#000000;stroke-width:15;stroke-linecap:butt;stroke-linejoin:round;stroke-miterlimit:10;stroke-dasharray:none;stroke-opacity:1"
             id="path4005" /></g><g
           id="g4007"
           transform="translate(148.1855,104.8569)"><path
             d="M 0,0 -51.425,51.425 -28.569,74.281 22.856,22.855"
             style="fill:none;stroke:#000000;stroke-width:15;stroke-linecap:butt;stroke-linejoin:round;stroke-miterlimit:10;stroke-dasharray:none;stroke-opacity:1"
             id="path4009" /></g><g
           id="g4011"
           transform="translate(228.1812,344.8423)"><path
             d="m 0,0 79.996,-79.995 -182.848,-182.846 -79.994,79.995 z"
             style="fill:none;stroke:#000000;stroke-width:15;stroke-linecap:round;stroke-linejoin:round;stroke-miterlimit:10;stroke-dasharray:none;stroke-opacity:1"
             id="path4013" /></g><g
           id="g4015"
           transform="translate(304.9102,215.8701)"><path
             d="M 0,0 26.12,26.12 48.979,3.27 -8.88,-54.59 l -22.85,22.86 6.98,6.98"
             style="fill:none;stroke:#000000;stroke-width:15;stroke-linecap:round;stroke-linejoin:round;stroke-miterlimit:10;stroke-dasharray:none;stroke-opacity:1"
             id="path4017" /></g><g
           id="g4019"
           transform="translate(238.8945,126.9985)"><path
             d="m 0,0 c -6.312,6.312 -6.312,16.544 0,22.855 6.312,6.312 16.544,6.312 22.855,0 C 29.167,16.544 29.167,6.312 22.855,0 16.544,-6.312 6.312,-6.312 0,0 Z"
             style="fill:none;stroke:#000000;stroke-width:15;stroke-linecap:round;stroke-linejoin:round;stroke-miterlimit:10;stroke-dasharray:none;stroke-opacity:1"
             id="path4021" /></g><g
           id="g4023"
           transform="translate(193.1831,81.2871)"><path
             d="m 0,0 c -6.312,6.312 -6.312,16.544 0,22.855 6.312,6.312 16.544,6.312 22.856,0 C 29.167,16.544 29.167,6.312 22.855,0 16.544,-6.312 6.312,-6.312 0,0 Z"
             style="fill:none;stroke:#000000;stroke-width:15;stroke-linecap:round;stroke-linejoin:round;stroke-miterlimit:10;stroke-dasharray:none;stroke-opacity:1"
             id="path4025" /></g><g
           id="g4027"
           transform="translate(229.3799,38.6099)"><path
             d="m 0,0 -24.36,-20.06 c -19.27,-15.86 -47.45,-14.5 -65.1,3.15 L -192.62,86.25 c -7.89,7.89 -7.89,20.68 0,28.57 L 31.73,339.17"
             style="fill:none;stroke:#000000;stroke-width:15;stroke-linecap:round;stroke-linejoin:round;stroke-miterlimit:10;stroke-dasharray:none;stroke-opacity:1"
             id="path4029" /></g><g
           id="g4031"
           transform="translate(285.8604,402.5298)"><path
             d="m 0,0 96.06,96.05 c 3.79,3.79 8.929,5.92 14.29,5.92 h 76.86 c 4.47,0 8.08,-3.62 8.08,-8.08 V 69.16 c 0,-3.35 -2.07,-6.36 -5.21,-7.55 L 131.58,39.4 11.26,-80.92 120.149,-189.8 c 8.431,-8.43 7.76,-22.3 -1.45,-29.88 L -29.45,-341.67"
             style="fill:none;stroke:#000000;stroke-width:15;stroke-linecap:round;stroke-linejoin:round;stroke-miterlimit:10;stroke-dasharray:none;stroke-opacity:1"
             id="path4033" /></g></g></g></g></svg>
