<?xml version="1.0" encoding="UTF-8"?>
<svg xmlns="http://www.w3.org/2000/svg" xmlns:xlink="http://www.w3.org/1999/xlink" version="1.1" id="Capa_1" x="0px" y="0px" viewBox="0 0 512.437 512.437" style="enable-background:new 0 0 512.437 512.437;" xml:space="preserve" width="512" height="512">
<g>
	<g>
		<path style="fill:#FEF1DA;" d="M316.557,337.203H195.879c-12.372,0-22.402-10.03-22.402-22.402V150.646H338.96v164.155&#10;&#9;&#9;&#9;C338.96,327.173,328.93,337.203,316.557,337.203z"/>
		<path style="fill:#FAE2C0;" d="M338.958,150.651v164.15c0,12.37-10.03,22.4-22.4,22.4h-19.72c12.37,0,22.4-10.03,22.4-22.4&#10;&#9;&#9;&#9;v-164.15H338.958z"/>
		<rect x="198.281" y="337.203" style="fill:#CECECE;" width="115.874" height="33.619"/>
		<rect x="293.858" y="337.203" style="fill:#BFBFBF;" width="20.297" height="33.619"/>
		<path style="fill:#ADE194;" d="M358.681,471.318H153.756v-67.633c0-18.15,14.714-32.864,32.864-32.864h139.198&#10;&#9;&#9;&#9;c18.15,0,32.864,14.714,32.864,32.864V471.318z"/>
		<path style="fill:#97DA7B;" d="M358.678,403.681v67.64h-19.06v-67.64c0-18.15-14.71-32.86-32.86-32.86h19.06&#10;&#9;&#9;&#9;C343.968,370.821,358.678,385.531,358.678,403.681z"/>
		<path style="fill:#ADE194;" d="M389.424,148.26c-17.723-28.778-49.103-46.306-82.901-46.306H205.912&#10;&#9;&#9;&#9;c-33.797,0-65.176,17.527-82.898,46.305l-0.001,0.001c-0.642,1.043,0.108,2.386,1.333,2.386h263.747&#10;&#9;&#9;&#9;C389.316,150.646,390.067,149.303,389.424,148.26L389.424,148.26z"/>
		<path style="fill:#97DA7B;" d="M388.088,150.651h-24.27c1.22,0,1.97-1.35,1.33-2.39c-17.72-28.78-49.1-46.31-82.9-46.31h24.28&#10;&#9;&#9;&#9;c33.79,0,65.17,17.53,82.9,46.31C390.068,149.301,389.318,150.651,388.088,150.651z"/>
		<path style="fill:#ACACAC;" d="M286.313,68.335h-60.189v-5.072c0-16.621,13.474-30.094,30.094-30.094h0&#10;&#9;&#9;&#9;c16.621,0,30.094,13.474,30.094,30.094V68.335z"/>
		<path style="fill:#9C9C9C;" d="M286.309,63.261v5.07h-19.52v-2.65c0-8.31-3.37-15.84-8.81-21.28c-4.04-4.04-9.22-6.94-15.01-8.16&#10;&#9;&#9;&#9;c4-1.97,8.5-3.07,13.25-3.07c8.31,0,15.83,3.37,21.28,8.81C282.938,47.431,286.309,54.951,286.309,63.261z"/>
		<path style="fill:#CECECE;" d="M312.852,101.954H199.585V74.464c0-3.385,2.744-6.129,6.129-6.129h101.009&#10;&#9;&#9;&#9;c3.385,0,6.129,2.744,6.129,6.129V101.954z"/>
		<path style="fill:#CECECE;" d="M375.952,504.937H136.485c-2.675,0-4.844-2.169-4.844-4.844v-23.931&#10;&#9;&#9;&#9;c0-2.675,2.169-4.844,4.844-4.844h239.466c2.675,0,4.844,2.169,4.844,4.844v23.931&#10;&#9;&#9;&#9;C380.795,502.768,378.627,504.937,375.952,504.937z"/>
		<path style="fill:#BFBFBF;" d="M312.848,74.461v27.49h-19.39v-27.49c0-3.38-2.74-6.13-6.13-6.13h19.39&#10;&#9;&#9;&#9;C310.108,68.331,312.848,71.081,312.848,74.461z"/>
		<path style="fill:#BFBFBF;" d="M380.798,476.161v23.93c0,2.68-2.17,4.85-4.85,4.85h-19.39c2.68,0,4.85-2.17,4.85-4.85v-23.93&#10;&#9;&#9;&#9;c0-2.67-2.17-4.84-4.85-4.84h19.39C378.628,471.321,380.798,473.491,380.798,476.161z"/>
		<path style="fill:#FEF1DA;" d="M287.288,437.64h-62.139c-9.152,0-16.57-7.419-16.57-16.57v0c0-9.152,7.419-16.57,16.57-16.57&#10;&#9;&#9;&#9;h62.139c9.152,0,16.57,7.419,16.57,16.57v0C303.858,430.221,296.439,437.64,287.288,437.64z"/>
		<path style="fill:#FAE2C0;" d="M303.858,421.071c0,4.57-1.86,8.72-4.85,11.72c-3,2.99-7.15,4.85-11.72,4.85h-22.53&#10;&#9;&#9;&#9;c4.58,0,8.72-1.86,11.72-4.85c3-3,4.85-7.15,4.85-11.72c0-9.15-7.42-16.57-16.57-16.57h22.53&#10;&#9;&#9;&#9;C296.438,404.501,303.858,411.921,303.858,421.071z"/>
		<circle style="fill:#CECECE;" cx="225.149" cy="421.07" r="16.57"/>
		<path style="fill:#BFBFBF;" d="M241.718,421.071c0,9.15-7.42,16.57-16.57,16.57c-5.25,0-9.93-2.44-12.97-6.25&#10;&#9;&#9;&#9;c8.4-0.8,14.97-7.88,14.97-16.49c0-3.91-1.35-7.49-3.6-10.32c0.52-0.05,1.06-0.08,1.6-0.08&#10;&#9;&#9;&#9;C234.298,404.501,241.718,411.921,241.718,421.071z"/>
		<path style="fill:#FFC344;" d="M278.713,293.558c0.974-1.471,1.823-3.058,2.523-4.75c4.207-10.167,9.054-34.886-19.743-59.593&#10;&#9;&#9;&#9;c-3.031-2.601-7.518-2.601-10.549,0c-28.797,24.707-23.95,49.425-19.742,59.596c4.429,10.661,14.412,17.044,25.017,17.044&#10;&#9;&#9;&#9;C264.974,305.854,273.583,301.307,278.713,293.558z"/>
		<path style="fill:#FEB237;" d="M281.237,288.811c-0.699,1.688-1.551,3.277-2.524,4.744c-5.132,7.755-13.739,12.302-22.498,12.302&#10;&#9;&#9;&#9;c-2.737,0-5.436-0.426-8.005-1.247c1.701,0.543,3.957-1.302,5.192-2.235c4.283-3.236,7.247-9.323,9.11-14.188&#10;&#9;&#9;&#9;c1.393-3.64,11.549-32.687-14.249-56.576c0.859-0.798,1.756-1.597,2.684-2.395c3.026-2.6,7.512-2.6,10.546,0&#10;&#9;&#9;&#9;C290.293,253.919,285.442,278.637,281.237,288.811z"/>
	</g>
	<g>
		<path style="fill:none;stroke:#000000;stroke-width:15;stroke-linecap:round;stroke-linejoin:round;stroke-miterlimit:10;" d="&#10;&#9;&#9;&#9;M375.952,504.937H136.485c-2.675,0-4.844-2.169-4.844-4.844v-23.931c0-2.675,2.169-4.844,4.844-4.844h239.466&#10;&#9;&#9;&#9;c2.675,0,4.844,2.169,4.844,4.844v23.931C380.795,502.768,378.627,504.937,375.952,504.937z"/>
		<path style="fill:none;stroke:#000000;stroke-width:15;stroke-linecap:round;stroke-linejoin:round;stroke-miterlimit:10;" d="&#10;&#9;&#9;&#9;M312.852,101.954H199.585V74.464c0-3.385,2.744-6.129,6.129-6.129h101.009c3.385,0,6.129,2.744,6.129,6.129V101.954z"/>
		
			<rect x="198.281" y="337.203" style="fill:none;stroke:#000000;stroke-width:15;stroke-linecap:round;stroke-linejoin:round;stroke-miterlimit:10;" width="115.874" height="33.619"/>
		<path style="fill:none;stroke:#000000;stroke-width:15;stroke-linecap:round;stroke-linejoin:round;stroke-miterlimit:10;" d="&#10;&#9;&#9;&#9;M358.681,449.96v21.358H153.756v-67.633c0-18.15,14.714-32.864,32.864-32.864h139.198c18.15,0,32.864,14.714,32.864,32.864v11.139&#10;&#9;&#9;&#9;"/>
		<path style="fill:none;stroke:#000000;stroke-width:15;stroke-linecap:round;stroke-linejoin:round;stroke-miterlimit:10;" d="&#10;&#9;&#9;&#9;M338.96,150.646v164.155c0,12.372-10.03,22.402-22.402,22.402H195.879c-12.372,0-22.402-10.03-22.402-22.402V150.646"/>
		<path style="fill:none;stroke:#000000;stroke-width:15;stroke-linecap:round;stroke-linejoin:round;stroke-miterlimit:10;" d="&#10;&#9;&#9;&#9;M237.719,150.646h150.373c1.225,0,1.975-1.343,1.333-2.386l0,0c-17.723-28.778-49.103-46.306-82.901-46.306H205.912&#10;&#9;&#9;&#9;c-33.797,0-65.176,17.527-82.898,46.305l-0.001,0.001c-0.642,1.043,0.108,2.386,1.333,2.386h79.141"/>
		<path style="fill:none;stroke:#000000;stroke-width:15;stroke-linecap:round;stroke-linejoin:round;stroke-miterlimit:10;" d="&#10;&#9;&#9;&#9;M286.313,68.335h-60.189v-5.072c0-16.621,13.474-30.094,30.094-30.094h0c16.621,0,30.094,13.474,30.094,30.094V68.335z"/>
		
			<line style="fill:none;stroke:#000000;stroke-width:15;stroke-linecap:round;stroke-linejoin:round;stroke-miterlimit:10;" x1="256.218" y1="33.169" x2="256.218" y2="7.5"/>
		<path style="fill:none;stroke:#000000;stroke-width:15;stroke-linecap:round;stroke-linejoin:round;stroke-miterlimit:10;" d="&#10;&#9;&#9;&#9;M287.288,437.64h-62.139c-9.152,0-16.57-7.419-16.57-16.57v0c0-9.152,7.419-16.57,16.57-16.57h62.139&#10;&#9;&#9;&#9;c9.152,0,16.57,7.419,16.57,16.57v0C303.858,430.221,296.439,437.64,287.288,437.64z"/>
		
			<circle style="fill:none;stroke:#000000;stroke-width:15;stroke-linecap:round;stroke-linejoin:round;stroke-miterlimit:10;" cx="225.149" cy="421.07" r="16.57"/>
		
			<line style="fill:none;stroke:#000000;stroke-width:15;stroke-linecap:round;stroke-linejoin:round;stroke-miterlimit:10;" x1="256.218" y1="337.203" x2="256.218" y2="308.037"/>
		<g>
			<g>
				<g>
					
						<line style="fill:none;stroke:#000000;stroke-width:15;stroke-linecap:round;stroke-linejoin:round;stroke-miterlimit:10;" x1="405.395" y1="260.734" x2="419.412" y2="260.734"/>
				</g>
				<g>
					
						<line style="fill:none;stroke:#000000;stroke-width:15;stroke-linecap:round;stroke-linejoin:round;stroke-miterlimit:10;" x1="396.108" y1="226.075" x2="408.247" y2="219.066"/>
				</g>
				<g>
					
						<line style="fill:none;stroke:#000000;stroke-width:15;stroke-linecap:round;stroke-linejoin:round;stroke-miterlimit:10;" x1="370.736" y1="200.702" x2="377.745" y2="188.564"/>
				</g>
				<g>
					
						<line style="fill:none;stroke:#000000;stroke-width:15;stroke-linecap:round;stroke-linejoin:round;stroke-miterlimit:10;" x1="377.745" y1="332.904" x2="370.736" y2="320.765"/>
				</g>
				<g>
					
						<line style="fill:none;stroke:#000000;stroke-width:15;stroke-linecap:round;stroke-linejoin:round;stroke-miterlimit:10;" x1="408.247" y1="302.401" x2="396.108" y2="295.393"/>
				</g>
			</g>
			<g>
				<g>
					
						<line style="fill:none;stroke:#000000;stroke-width:15;stroke-linecap:round;stroke-linejoin:round;stroke-miterlimit:10;" x1="107.041" y1="260.734" x2="93.025" y2="260.734"/>
				</g>
				<g>
					
						<line style="fill:none;stroke:#000000;stroke-width:15;stroke-linecap:round;stroke-linejoin:round;stroke-miterlimit:10;" x1="116.328" y1="226.075" x2="104.189" y2="219.066"/>
				</g>
				<g>
					
						<line style="fill:none;stroke:#000000;stroke-width:15;stroke-linecap:round;stroke-linejoin:round;stroke-miterlimit:10;" x1="141.701" y1="200.702" x2="134.692" y2="188.564"/>
				</g>
				<g>
					
						<line style="fill:none;stroke:#000000;stroke-width:15;stroke-linecap:round;stroke-linejoin:round;stroke-miterlimit:10;" x1="134.692" y1="332.904" x2="141.701" y2="320.765"/>
				</g>
				<g>
					
						<line style="fill:none;stroke:#000000;stroke-width:15;stroke-linecap:round;stroke-linejoin:round;stroke-miterlimit:10;" x1="104.189" y1="302.401" x2="116.328" y2="295.393"/>
				</g>
			</g>
		</g>
		<path style="fill:none;stroke:#000000;stroke-width:15;stroke-linecap:round;stroke-linejoin:round;stroke-miterlimit:10;" d="&#10;&#9;&#9;&#9;M278.713,293.558c0.974-1.471,1.823-3.058,2.523-4.75c4.207-10.167,9.054-34.886-19.743-59.593c-3.031-2.601-7.518-2.601-10.549,0&#10;&#9;&#9;&#9;c-28.797,24.707-23.95,49.425-19.742,59.596c4.429,10.661,14.412,17.044,25.017,17.044&#10;&#9;&#9;&#9;C264.974,305.854,273.583,301.307,278.713,293.558z"/>
	</g>
</g>















</svg>
