<?xml version="1.0" encoding="UTF-8"?>
<svg xmlns="http://www.w3.org/2000/svg" xmlns:xlink="http://www.w3.org/1999/xlink" version="1.1" id="Capa_1" x="0px" y="0px" viewBox="0 0 512 512" style="enable-background:new 0 0 512 512;" xml:space="preserve" width="512" height="512">
<g>
	<g>
		<path style="fill:#FFEAC6;" d="M256,39.564C136.466,39.564,39.564,136.466,39.564,256l12.083,71.483&#10;&#9;&#9;&#9;C81.171,411.892,161.515,472.436,256,472.436c119.534,0,216.436-96.902,216.436-216.436S375.534,39.564,256,39.564z M256,360.21&#10;&#9;&#9;&#9;c-57.553,0-104.21-46.656-104.21-104.21S198.447,151.79,256,151.79c57.553,0,104.21,46.656,104.21,104.21&#10;&#9;&#9;&#9;S313.553,360.21,256,360.21z"/>
		<path style="fill:#FCDBB2;" d="M272.032,456.403c-119.534,0-216.436-96.902-216.436-216.436c0-55.688,21.047-106.45,55.6-144.804&#10;&#9;&#9;&#9;C67.223,134.78,39.564,192.154,39.564,256l12.74,73.333C82.349,412.775,162.207,472.436,256,472.436&#10;&#9;&#9;&#9;c63.846,0,121.22-27.659,160.836-71.632C378.482,435.356,327.72,456.403,272.032,456.403z"/>
		<path style="fill:#FF5F7A;" d="M182.675,52.328l38.059,105.713c11.03-3.973,22.868-6.251,35.266-6.251&#10;&#9;&#9;&#9;c12.398,0,24.236,2.278,35.265,6.25l38.053-105.715C306.419,44.081,281.74,39.565,256,39.565&#10;&#9;&#9;&#9;C230.258,39.565,205.576,44.082,182.675,52.328z"/>
		<path style="fill:#FF5F7A;" d="M329.325,459.672l-38.059-105.713c-11.03,3.973-22.868,6.251-35.266,6.251&#10;&#9;&#9;&#9;c-12.398,0-24.236-2.278-35.265-6.25l-38.053,105.715c22.899,8.245,47.579,12.762,73.318,12.762&#10;&#9;&#9;&#9;C281.742,472.435,306.424,467.918,329.325,459.672z"/>
		<path style="fill:#FF5F7A;" d="M459.672,182.675l-105.713,38.059c3.973,11.03,6.251,22.868,6.251,35.266&#10;&#9;&#9;&#9;c0,12.398-2.278,24.236-6.25,35.265l105.715,38.053c8.245-22.899,12.762-47.579,12.762-73.318&#10;&#9;&#9;&#9;C472.435,230.258,467.918,205.576,459.672,182.675z"/>
		<path style="fill:#FF5F7A;" d="M52.328,329.325l105.713-38.059c-3.973-11.03-6.251-22.868-6.251-35.266&#10;&#9;&#9;&#9;c0-12.398,2.278-24.236,6.25-35.265L52.326,182.682C38.348,246.911,52.328,329.325,52.328,329.325z"/>
		<path style="fill:#FB4455;" d="M52.377,182.7c-8.25,22.899-12.813,47.557-12.813,73.3c0,25.742,4.517,50.424,12.763,73.325&#10;&#9;&#9;&#9;l19.521-7.028c-10.452-25.384-16.252-53.174-16.252-82.329c0-18.535,2.379-36.506,6.765-53.674L52.377,182.7z"/>
		<path style="fill:#FB4455;" d="M189.708,440.153l-7.027,19.521c22.899,8.245,47.579,12.762,73.318,12.762&#10;&#9;&#9;&#9;c25.742,0,50.424-4.517,73.325-12.763l-3.613-10.035c-17.17,4.386-35.142,6.766-53.68,6.766&#10;&#9;&#9;&#9;C242.879,456.403,215.092,450.603,189.708,440.153z"/>
	</g>
	<g>
		<path style="fill:none;stroke:#000000;stroke-width:15;stroke-linecap:round;stroke-linejoin:round;stroke-miterlimit:10;" d="&#10;&#9;&#9;&#9;M463.56,157.162L354.838,48.44c-54.587-54.587-143.09-54.587-197.676,0L48.44,157.162c-54.587,54.587-54.587,143.09,0,197.676&#10;&#9;&#9;&#9;L157.162,463.56c54.587,54.587,143.09,54.587,197.676,0L463.56,354.838C518.147,300.251,518.147,211.749,463.56,157.162z"/>
		<path style="fill:none;stroke:#000000;stroke-width:15;stroke-linecap:round;stroke-linejoin:round;stroke-miterlimit:10;" d="&#10;&#9;&#9;&#9;M43.813,298.888C63.712,397.878,151.149,472.435,256,472.435c119.534,0,216.435-96.901,216.435-216.435S375.534,39.565,256,39.565&#10;&#9;&#9;&#9;S39.565,136.466,39.565,256c0,2.684,0.049,5.356,0.146,8.016"/>
		
			<circle style="fill:none;stroke:#000000;stroke-width:15;stroke-linecap:round;stroke-linejoin:round;stroke-miterlimit:10;" cx="256" cy="256" r="104.21"/>
		
			<line style="fill:none;stroke:#000000;stroke-width:15;stroke-linecap:round;stroke-linejoin:round;stroke-miterlimit:10;" x1="219.92" y1="155.777" x2="183.855" y2="55.597"/>
		
			<line style="fill:none;stroke:#000000;stroke-width:15;stroke-linecap:round;stroke-linejoin:round;stroke-miterlimit:10;" x1="291.982" y1="156.05" x2="328.145" y2="55.597"/>
		
			<line style="fill:none;stroke:#000000;stroke-width:15;stroke-linecap:round;stroke-linejoin:round;stroke-miterlimit:10;" x1="292.08" y1="356.223" x2="328.145" y2="456.403"/>
		
			<line style="fill:none;stroke:#000000;stroke-width:15;stroke-linecap:round;stroke-linejoin:round;stroke-miterlimit:10;" x1="220.018" y1="355.95" x2="183.855" y2="456.403"/>
		
			<circle style="fill:none;stroke:#000000;stroke-width:15;stroke-linecap:round;stroke-linejoin:round;stroke-miterlimit:10;" cx="256" cy="256" r="104.21"/>
		
			<line style="fill:none;stroke:#000000;stroke-width:15;stroke-linecap:round;stroke-linejoin:round;stroke-miterlimit:10;" x1="440.371" y1="189.626" x2="456.403" y2="183.855"/>
		
			<line style="fill:none;stroke:#000000;stroke-width:15;stroke-linecap:round;stroke-linejoin:round;stroke-miterlimit:10;" x1="356.223" y1="219.92" x2="410.852" y2="200.253"/>
		
			<line style="fill:none;stroke:#000000;stroke-width:15;stroke-linecap:round;stroke-linejoin:round;stroke-miterlimit:10;" x1="355.95" y1="291.982" x2="456.403" y2="328.145"/>
		
			<line style="fill:none;stroke:#000000;stroke-width:15;stroke-linecap:round;stroke-linejoin:round;stroke-miterlimit:10;" x1="155.777" y1="292.08" x2="55.597" y2="328.145"/>
		
			<line style="fill:none;stroke:#000000;stroke-width:15;stroke-linecap:round;stroke-linejoin:round;stroke-miterlimit:10;" x1="156.05" y1="220.018" x2="55.597" y2="183.855"/>
	</g>
</g>















</svg>
