<?xml version="1.0" encoding="UTF-8" standalone="no"?>
<!-- Created with Inkscape (http://www.inkscape.org/) -->

<svg
   version="1.1"
   id="svg6357"
   xml:space="preserve"
   width="682.66669"
   height="682.66669"
   viewBox="0 0 682.66669 682.66669"
   xmlns="http://www.w3.org/2000/svg"
   xmlns:svg="http://www.w3.org/2000/svg"><defs
     id="defs6361"><clipPath
       clipPathUnits="userSpaceOnUse"
       id="clipPath6371"><path
         d="M 0,512 H 512 V 0 H 0 Z"
         id="path6369" /></clipPath></defs><g
     id="g6363"
     transform="matrix(1.3333333,0,0,-1.3333333,0,682.66667)"><g
       id="g6365"><g
         id="g6367"
         clip-path="url(#clipPath6371)"><g
           id="g6373"
           transform="translate(24,264.9814)"><path
             d="m 0,0 v -244.437 c 0,-7.193 5.854,-13.044 13.05,-13.044 h 234.325 c 7.196,0 13.05,5.851 13.05,13.044 v 212.212 c -0.714,3.226 -16.762,22.663 -31.839,31.454 L 201.344,13.044 118.962,40.673 51.542,13.044 H 13.05 C 5.883,13.044 0,7.164 0,0"
             style="fill:#a9aac9;fill-opacity:1;fill-rule:evenodd;stroke:none"
             id="path6375" /></g><g
           id="g6377"
           transform="translate(112.3789,444.8564)"><path
             d="m 0,0 c -14.192,-15.813 -20.531,-41.329 -8.139,-64.877 l 54.056,-11.674 43.062,11.674 C 104.113,-27.486 67.819,35.906 40.806,53.917 24.387,64.849 14.563,58.798 16.448,46.952 18.933,31.625 16.591,18.524 0,0"
             style="fill:#ff9a9f;fill-opacity:1;fill-rule:evenodd;stroke:none"
             id="path6379" /></g><g
           id="g6381"
           transform="translate(136.8799,422.6787)"><path
             d="m 0,0 c -11.337,-13.729 -6.226,-36.163 2.17,-42.699 l 16.819,-7.164 16.105,7.164 C 42.376,-20.864 34.323,11.303 17.275,25.317 11.879,29.771 11.65,27.572 11.308,21.692 10.822,14.071 9.309,11.246 0,0"
             style="fill:#ffe07d;fill-opacity:1;fill-rule:evenodd;stroke:none"
             id="path6383" /></g><g
           id="g6385"
           transform="translate(75.542,278.0254)"><path
             d="m 0,0 h 149.802 v 92.393 c 0,5.28 -4.283,9.561 -9.566,9.561 H 136.067 9.624 C 50.201,92.991 46.803,1.884 0,0"
             style="fill:#efecff;fill-opacity:1;fill-rule:evenodd;stroke:none"
             id="path6387" /></g><g
           id="g6389"
           transform="translate(333.6543,497.1182)"><path
             d="m 0,0 -55.626,-215.125 c -6.682,-21.664 13.793,-35.336 20.218,-38.39 l 98.03,-25.317 c 18.847,-4.881 38.265,6.536 43.119,25.403 l 47.488,183.499 c 4.854,18.838 -6.568,38.247 -25.415,43.128 L 7.367,4.31 C 4.141,5.166 0.828,3.196 0,0"
             style="fill:#a9aac9;fill-opacity:1;fill-rule:evenodd;stroke:none"
             id="path6391" /></g><g
           id="g6393"
           transform="translate(252.5859,264.2109)"><path
             d="m 0,0 c -2.655,-8.648 -0.543,-18.41 6.282,-25.26 6.91,-6.907 16.848,-8.963 25.557,-6.194 3.713,1.199 7.196,3.254 10.138,6.194 1.456,1.427 2.683,2.997 3.683,4.653 5.968,9.732 4.74,22.605 -3.683,31.025 -4.598,4.596 -10.509,7.05 -16.535,7.364 C 18.561,18.125 11.536,15.67 6.282,10.418 3.284,7.421 1.171,3.825 0,0"
             style="fill:#ffe07d;fill-opacity:1;fill-rule:evenodd;stroke:none"
             id="path6395" /></g><g
           id="g6397"
           transform="translate(200.8437,294.752)"><path
             d="m 0,0 h -87.322 c -0.515,-0.543 -1.029,-1.113 -1.6,-1.656 -10.022,-10.047 -23.216,-15.071 -36.38,-15.071 h 9.624 H 0.399 24.5 V 0 75.666 c 0,5.28 -4.283,9.562 -9.565,9.562 H 10.766 5.653 -4.026 c -1.771,0 3.397,-0.486 4.826,-1.314 2.826,-1.655 4.739,-4.737 4.739,-8.248 V 10.274 C 5.539,3.91 6.481,0 0,0"
             style="fill:#d5cef7;fill-opacity:1;fill-rule:evenodd;stroke:none"
             id="path6399" /></g><g
           id="g6401"
           transform="translate(39.1631,365.8223)"><path
             d="m 0,0 c -20.104,-20.094 -20.104,-52.661 0,-72.727 10.052,-10.046 23.216,-15.07 36.379,-15.07 13.164,0 26.357,5.024 36.38,15.07 20.103,20.066 20.103,52.633 0,72.727 C 65.191,7.593 55.825,12.302 46.003,14.157 29.84,17.239 12.507,12.502 0,0"
             style="fill:#a9aac9;fill-opacity:1;fill-rule:evenodd;stroke:none"
             id="path6403" /></g><g
           id="g6405"
           transform="translate(62.5498,342.4463)"><path
             d="m 0,0 c -7.167,-7.164 -7.167,-18.81 0,-25.974 7.167,-7.193 18.818,-7.193 25.985,0 7.197,7.164 7.197,18.81 0,25.974 C 18.818,7.192 7.167,7.192 0,0"
             style="fill:#efecff;fill-opacity:1;fill-rule:evenodd;stroke:none"
             id="path6407" /></g><g
           id="g6409"
           transform="translate(95.1318,365.8223)"><path
             d="m 0,0 c 20.074,-20.094 20.074,-52.661 0,-72.727 -7.91,-7.906 -17.733,-12.701 -27.984,-14.384 2.769,-0.457 5.596,-0.686 8.394,-0.686 13.164,0 26.358,5.024 36.38,15.07 20.104,20.066 20.104,52.633 0,72.727 -7.567,7.593 -16.934,12.302 -26.756,14.157 -5.939,1.142 -12.051,1.198 -18.018,0.229 0.399,-0.058 0.798,-0.143 1.199,-0.229 C -16.962,12.302 -7.596,7.593 0,0"
             style="fill:#8080a4;fill-opacity:1;fill-rule:evenodd;stroke:none"
             id="path6411" /></g><g
           id="g6413"
           transform="translate(89.8486,212.1777)"><path
             d="m 0,0 c -7.938,0 -14.449,-6.507 -14.449,-14.442 v -23.12 c 0,-7.934 6.511,-14.442 14.449,-14.442 h 124.444 c 7.939,0 14.45,6.508 14.45,14.442 v 23.12 C 138.894,-6.507 132.383,0 124.444,0 Z"
             style="fill:#ffe07d;fill-opacity:1;fill-rule:evenodd;stroke:none"
             id="path6415" /></g><g
           id="g6417"
           transform="translate(201.5,197.7354)"><path
             d="m 0,0 v -23.119 c 0,-7.935 -6.511,-14.443 -14.449,-14.443 h 27.242 c 7.938,0 14.449,6.508 14.449,14.443 V 0 c 0,7.936 -6.511,14.442 -14.449,14.442 H -14.449 C -6.511,14.442 0,7.936 0,0"
             style="fill:#ffc77d;fill-opacity:1;fill-rule:evenodd;stroke:none"
             id="path6419" /></g><g
           id="g6421"
           transform="translate(258.8965,238.9229)"><path
             d="m 0,0 0.371,-218.379 c 0,-7.192 -5.882,-13.044 -13.078,-13.044 h 25.186 c 7.196,0 13.049,5.852 13.049,13.044 V -6.166 C 16.848,-8.935 6.91,-6.879 0,0"
             style="fill:#8080a4;fill-opacity:1;fill-rule:evenodd;stroke:none"
             id="path6423" /></g><g
           id="g6425"
           transform="translate(457.4424,434.8096)"><path
             d="m 0,0 -47.459,-183.528 c -4.883,-18.838 -24.301,-30.284 -43.147,-25.403 l 29.44,-7.592 c 18.847,-4.881 38.265,6.536 43.119,25.403 L 29.44,-7.621 C 34.295,11.217 22.873,30.626 4.026,35.507 L -25.329,43.099 -25.3,43.07 C -6.511,38.161 4.854,18.781 0,0"
             style="fill:#8080a4;fill-opacity:1;fill-rule:evenodd;stroke:none"
             id="path6427" /></g><g
           id="g6429"
           transform="translate(267.7207,280.3662)"><path
             d="m 0,0 c 3.227,-0.885 6.339,-2.455 9.08,-4.681 0.686,-0.543 1.342,-1.141 1.971,-1.769 5.797,-5.795 8.195,-13.701 7.167,-21.208 -0.457,-3.453 -1.628,-6.793 -3.484,-9.847 -0.713,-1.17 -1.571,-2.311 -2.512,-3.368 -0.372,-0.457 -0.743,-0.856 -1.171,-1.284 -2.599,-2.57 -5.598,-4.482 -8.824,-5.709 4.74,-1.341 9.794,-1.227 14.477,0.257 3.713,1.199 7.196,3.254 10.138,6.194 1.456,1.427 2.683,2.997 3.683,4.652 5.968,9.733 4.741,22.606 -3.683,31.026 C 22.244,-1.142 16.333,1.312 10.308,1.627 6.824,1.798 3.312,1.256 0,0"
             style="fill:#ffc77d;fill-opacity:1;fill-rule:evenodd;stroke:none"
             id="path6431" /></g><g
           id="g6433"
           transform="translate(71.0596,342.1318)"><path
             d="m 0,0 c 7.195,-7.164 7.195,-18.81 0,-25.974 -1.199,-1.198 -2.542,-2.226 -3.97,-3.025 6.91,-3.567 15.649,-2.483 21.446,3.34 7.196,7.164 7.196,18.809 0,25.973 C 11.508,6.279 2.484,7.278 -4.541,3.34 -2.913,2.483 -1.371,1.37 0,0"
             style="fill:#d5cef7;fill-opacity:1;fill-rule:evenodd;stroke:none"
             id="path6435" /></g><g
           id="g6437"
           transform="translate(142.9619,430.3564)"><path
             d="m 0,0 c 9.994,-13.243 15.049,-33.337 12.992,-50.377 h 16.02 C 36.294,-28.542 28.241,3.625 11.193,17.64 5.797,22.093 5.568,19.895 5.226,14.015 4.883,8.506 3.998,5.509 0,0"
             style="fill:#ffc77d;fill-opacity:1;fill-rule:evenodd;stroke:none"
             id="path6439" /></g><g
           id="g6441"
           transform="translate(129.6553,482.0186)"><path
             d="m 0,0 c 8.252,-8.705 16.505,-20.294 23.301,-33.08 0.371,-0.286 0.771,-0.571 1.199,-0.942 17.048,-14.015 25.101,-46.182 17.818,-68.017 h 24.844 4.54 C 86.837,-64.648 50.543,-1.256 23.529,16.755 7.11,27.687 -2.713,21.636 -0.828,9.79 -0.286,6.451 0.028,3.197 0,0"
             style="fill:#ff8086;fill-opacity:1;fill-rule:evenodd;stroke:none"
             id="path6443" /></g><g
           id="g6445"
           transform="translate(39.1631,365.8223)"><path
             d="m 0,0 c 20.103,20.094 52.685,20.094 72.759,0 20.103,-20.094 20.103,-52.661 0,-72.727 C 52.685,-92.82 20.103,-92.82 0,-72.727 -20.104,-52.661 -20.104,-20.094 0,0 Z"
             style="fill:none;stroke:#000000;stroke-width:15;stroke-linecap:round;stroke-linejoin:round;stroke-miterlimit:10;stroke-dasharray:none;stroke-opacity:1"
             id="path6447" /></g><g
           id="g6449"
           transform="translate(156.4111,316.3584)"><path
             d="M 0,0 H -0.143"
             style="fill:none;stroke:#000000;stroke-width:15;stroke-linecap:round;stroke-linejoin:round;stroke-miterlimit:10;stroke-dasharray:none;stroke-opacity:1"
             id="path6451" /></g><g
           id="g6453"
           transform="translate(156.2686,347.0127)"><path
             d="M 0,0 H -0.143"
             style="fill:none;stroke:#000000;stroke-width:15;stroke-linecap:round;stroke-linejoin:round;stroke-miterlimit:10;stroke-dasharray:none;stroke-opacity:1"
             id="path6455" /></g><g
           id="g6457"
           transform="translate(186.7939,316.3584)"><path
             d="M 0,0 H -0.143"
             style="fill:none;stroke:#000000;stroke-width:15;stroke-linecap:round;stroke-linejoin:round;stroke-miterlimit:10;stroke-dasharray:none;stroke-opacity:1"
             id="path6459" /></g><g
           id="g6461"
           transform="translate(186.6514,347.1553)"><path
             d="M 0,0 H -0.143"
             style="fill:none;stroke:#000000;stroke-width:15;stroke-linecap:round;stroke-linejoin:round;stroke-miterlimit:10;stroke-dasharray:none;stroke-opacity:1"
             id="path6463" /></g><g
           id="g6465"
           transform="translate(89.8486,212.1777)"><path
             d="m 0,0 h 124.444 c 7.939,0 14.45,-6.507 14.45,-14.442 v -23.12 c 0,-7.934 -6.511,-14.442 -14.45,-14.442 H 0 c -7.938,0 -14.449,6.508 -14.449,14.442 v 23.12 C -14.449,-6.507 -7.938,0 0,0 Z"
             style="fill:none;stroke:#000000;stroke-width:15;stroke-linecap:round;stroke-linejoin:round;stroke-miterlimit:10;stroke-dasharray:none;stroke-opacity:1"
             id="path6467" /></g><g
           id="g6469"
           transform="translate(284.4248,142.877)"><path
             d="m 0,0 v 89.88 m -31.839,31.454 -27.242,13.814 h -188.294 c -7.167,0 -13.05,-5.879 -13.05,-13.044 v -244.437 c 0,-7.192 5.854,-13.044 13.05,-13.044 H -13.05 c 7.196,0 13.05,5.852 13.05,13.044 v 87.454"
             style="fill:none;stroke:#000000;stroke-width:15;stroke-linecap:round;stroke-linejoin:round;stroke-miterlimit:10;stroke-dasharray:none;stroke-opacity:1"
             id="path6471" /></g><g
           id="g6473"
           transform="translate(258.8682,274.6289)"><path
             d="m 0,0 c 9.88,9.848 25.843,9.848 35.694,0 9.88,-9.847 9.88,-25.831 0,-35.678 C 25.843,-45.525 9.88,-45.525 0,-35.678 -9.852,-25.831 -9.852,-9.847 0,0 Z"
             style="fill:none;stroke:#000000;stroke-width:15;stroke-linecap:round;stroke-linejoin:round;stroke-miterlimit:10;stroke-dasharray:none;stroke-opacity:1"
             id="path6475" /></g><g
           id="g6477"
           transform="translate(464.1523,339.3633)"><path
             d="m 0,0 22.73,87.825 c 4.855,18.838 -6.567,38.247 -25.414,43.128 l -120.447,31.111 c -3.226,0.857 -6.539,-1.113 -7.367,-4.309 L -186.124,-57.37 m 20.218,-38.39 98.03,-25.317 c 18.847,-4.881 38.265,6.536 43.119,25.403 l 16.134,62.336"
             style="fill:none;stroke:#000000;stroke-width:15;stroke-linecap:round;stroke-linejoin:round;stroke-miterlimit:10;stroke-dasharray:none;stroke-opacity:1"
             id="path6479" /></g><g
           id="g6481"
           transform="translate(75.3994,72.8906)"><path
             d="M 0,0 H 153.343"
             style="fill:none;stroke:#000000;stroke-width:15;stroke-linecap:round;stroke-linejoin:round;stroke-miterlimit:10;stroke-dasharray:none;stroke-opacity:1"
             id="path6483" /></g><g
           id="g6485"
           transform="translate(75.3994,116.0186)"><path
             d="M 0,0 H 153.343"
             style="fill:none;stroke:#000000;stroke-width:15;stroke-linecap:round;stroke-linejoin:round;stroke-miterlimit:10;stroke-dasharray:none;stroke-opacity:1"
             id="path6487" /></g><g
           id="g6489"
           transform="translate(62.5498,342.4463)"><path
             d="m 0,0 c 7.167,7.192 18.818,7.192 25.985,0 7.197,-7.164 7.197,-18.81 0,-25.974 C 18.818,-33.167 7.167,-33.167 0,-25.974 -7.167,-18.81 -7.167,-7.164 0,0 Z"
             style="fill:none;stroke:#000000;stroke-width:15;stroke-linecap:round;stroke-linejoin:round;stroke-miterlimit:10;stroke-dasharray:none;stroke-opacity:1"
             id="path6491" /></g><g
           id="g6493"
           transform="translate(104.2402,379.9795)"><path
             d="m 0,0 c -12.393,23.548 -6.054,49.064 8.139,64.877 16.59,18.524 18.932,31.625 16.448,46.952 -1.885,11.846 7.938,17.897 24.357,6.965 C 75.958,100.783 112.252,37.391 97.117,0"
             style="fill:none;stroke:#000000;stroke-width:15;stroke-linecap:round;stroke-linejoin:round;stroke-miterlimit:10;stroke-dasharray:none;stroke-opacity:1"
             id="path6495" /></g><g
           id="g6497"
           transform="translate(139.0498,379.9795)"><path
             d="M 0,0 C -8.396,6.536 -13.507,28.971 -2.17,42.699 7.139,53.945 8.652,56.771 9.138,64.392 9.48,70.271 9.709,72.47 15.105,68.017 32.153,54.002 40.206,21.835 32.924,0"
             style="fill:none;stroke:#000000;stroke-width:15;stroke-linecap:round;stroke-linejoin:round;stroke-miterlimit:10;stroke-dasharray:none;stroke-opacity:1"
             id="path6499" /></g><g
           id="g6501"
           transform="translate(225.3437,278.0254)"><path
             d="m 0,0 v 92.393 c 0,5.28 -4.283,9.561 -9.565,9.561 h -130.613"
             style="fill:none;stroke:#000000;stroke-width:15;stroke-linecap:round;stroke-linejoin:round;stroke-miterlimit:10;stroke-dasharray:none;stroke-opacity:1"
             id="path6503" /></g></g></g></g></svg>
