<?xml version="1.0" encoding="UTF-8" standalone="no"?>
<!-- Created with Inkscape (http://www.inkscape.org/) -->

<svg
   version="1.1"
   id="svg1503"
   xml:space="preserve"
   width="682.66669"
   height="682.66669"
   viewBox="0 0 682.66669 682.66669"
   xmlns="http://www.w3.org/2000/svg"
   xmlns:svg="http://www.w3.org/2000/svg"><defs
     id="defs1507"><clipPath
       clipPathUnits="userSpaceOnUse"
       id="clipPath1517"><path
         d="M 0,512 H 512 V 0 H 0 Z"
         id="path1515" /></clipPath></defs><g
     id="g1509"
     transform="matrix(1.3333333,0,0,-1.3333333,0,682.66667)"><g
       id="g1511"><g
         id="g1513"
         clip-path="url(#clipPath1517)"><g
           id="g1519"
           transform="translate(504.5,203.3345)"><path
             d="m 0,0 c 0,-61.206 -41.523,-110.822 -92.744,-110.822 -51.222,0 -92.744,49.616 -92.744,110.822 0,61.205 41.522,110.822 92.744,110.822 C -41.523,110.822 0,61.205 0,0"
             style="fill:#ffe0b2;fill-opacity:1;fill-rule:nonzero;stroke:none"
             id="path1521" /></g><g
           id="g1523"
           transform="translate(467.4023,203.3345)"><path
             d="m 0,0 c 0,-36.723 -24.914,-66.493 -55.646,-66.493 -30.734,0 -55.647,29.77 -55.647,66.493 0,36.723 24.913,66.493 55.647,66.493 C -24.914,66.493 0,36.723 0,0"
             style="fill:#ffe0b2;fill-opacity:1;fill-rule:nonzero;stroke:none"
             id="path1525" /></g><g
           id="g1527"
           transform="translate(441.1113,308.4849)"><path
             d="m 0,0 c 20.402,-20.329 33.389,-50.926 33.389,-85.15 0,-61.205 -41.524,-110.822 -92.744,-110.822 -10.26,0 -20.129,1.995 -29.356,5.671 16.084,-16.026 36.775,-25.671 59.356,-25.671 51.22,0 92.744,49.617 92.744,110.822 C 63.389,-56.205 36.833,-14.675 0,0"
             style="fill:#ffb74d;fill-opacity:1;fill-rule:nonzero;stroke:none"
             id="path1529" /></g><g
           id="g1531"
           transform="translate(430.3047,203.3345)"><path
             d="m 0,0 c 0,-12.241 -8.305,-22.165 -18.549,-22.165 -10.244,0 -18.549,9.924 -18.549,22.165 0,12.241 8.305,22.164 18.549,22.164 C -8.305,22.164 0,12.241 0,0"
             style="fill:#ffe0b2;fill-opacity:1;fill-rule:nonzero;stroke:none"
             id="path1533" /></g><g
           id="g1535"
           transform="translate(319.0117,203.3345)"><path
             d="m 0,0 c 0,61.205 41.522,110.822 92.744,110.822 h -153.09 c -3.658,0 -5.609,4.312 -3.193,7.059 l 64.941,73.843 c 3.202,3.64 3.026,9.14 -0.402,12.568 l -9.17,9.169 c -3.428,3.428 -8.928,3.604 -12.567,0.403 L -129.626,118.1 c -5.334,-4.691 -12.194,-7.278 -19.298,-7.278 h -69.844 c -51.22,0 -92.744,-49.617 -92.744,-110.822 0,-61.206 41.524,-110.822 92.744,-110.822 H 92.744 C 41.522,-110.822 0,-61.206 0,0"
             style="fill:#ffa726;fill-opacity:1;fill-rule:nonzero;stroke:none"
             id="path1537" /></g><g
           id="g1539"
           transform="translate(319.0117,203.3345)"><path
             d="M 0,0 C 0,61.205 41.522,110.822 92.744,110.822 H -0.406 C -24.345,90.782 -40,57.578 -40,20 c 0,-9.98 2.466,-19.652 6.594,-28.852 17.257,-38.459 -10.231,-81.97 -52.385,-81.97 h -172.977 c -5.035,0 -9.975,0.487 -14.794,1.409 15.353,-13.456 34.295,-21.409 54.794,-21.409 H 92.744 C 41.522,-110.822 0,-61.206 0,0"
             style="fill:#f57c00;fill-opacity:1;fill-rule:nonzero;stroke:none"
             id="path1541" /></g><g
           id="g1543"
           transform="translate(504.5,203.3345)"><path
             d="m 0,0 c 0,-61.206 -41.523,-110.822 -92.744,-110.822 -51.222,0 -92.744,49.616 -92.744,110.822 0,61.205 41.522,110.822 92.744,110.822 C -41.523,110.822 0,61.205 0,0 Z"
             style="fill:none;stroke:#000000;stroke-width:15;stroke-linecap:round;stroke-linejoin:round;stroke-miterlimit:10;stroke-dasharray:none;stroke-opacity:1"
             id="path1545" /></g><g
           id="g1547"
           transform="translate(380.6436,258.4717)"><path
             d="m 0,0 c 8.881,7.169 19.587,11.356 31.112,11.356 30.733,0 55.647,-29.77 55.647,-66.493 0,-36.723 -24.914,-66.493 -55.647,-66.493 -30.733,0 -55.646,29.77 -55.646,66.493 0,9.262 1.585,18.083 4.448,26.095"
             style="fill:none;stroke:#000000;stroke-width:15;stroke-linecap:round;stroke-linejoin:round;stroke-miterlimit:10;stroke-dasharray:none;stroke-opacity:1"
             id="path1549" /></g><g
           id="g1551"
           transform="translate(430.3047,203.3345)"><path
             d="m 0,0 c 0,-12.241 -8.305,-22.165 -18.549,-22.165 -10.244,0 -18.549,9.924 -18.549,22.165 0,12.241 8.305,22.164 18.549,22.164 C -8.305,22.164 0,12.241 0,0 Z"
             style="fill:none;stroke:#000000;stroke-width:15;stroke-linecap:round;stroke-linejoin:round;stroke-miterlimit:10;stroke-dasharray:none;stroke-opacity:1"
             id="path1553" /></g><g
           id="g1555"
           transform="translate(140,242.6143)"><path
             d="M 0,0 H 33.571"
             style="fill:none;stroke:#000000;stroke-width:15;stroke-linecap:round;stroke-linejoin:round;stroke-miterlimit:10;stroke-dasharray:none;stroke-opacity:1"
             id="path1557" /></g><g
           id="g1559"
           transform="translate(73.2861,242.6143)"><path
             d="M 0,0 H 31.714"
             style="fill:none;stroke:#000000;stroke-width:15;stroke-linecap:round;stroke-linejoin:round;stroke-miterlimit:10;stroke-dasharray:none;stroke-opacity:1"
             id="path1561" /></g><g
           id="g1563"
           transform="translate(190.4287,281.894)"><path
             d="M 0,0 H 100.285"
             style="fill:none;stroke:#000000;stroke-width:15;stroke-linecap:round;stroke-linejoin:round;stroke-miterlimit:10;stroke-dasharray:none;stroke-opacity:1"
             id="path1565" /></g><g
           id="g1567"
           transform="translate(159.4854,203.3345)"><path
             d="M 0,0 H 100.285"
             style="fill:none;stroke:#000000;stroke-width:15;stroke-linecap:round;stroke-linejoin:round;stroke-miterlimit:10;stroke-dasharray:none;stroke-opacity:1"
             id="path1569" /></g><g
           id="g1571"
           transform="translate(202.8574,124.7744)"><path
             d="M 0,0 H 100.285"
             style="fill:none;stroke:#000000;stroke-width:15;stroke-linecap:round;stroke-linejoin:round;stroke-miterlimit:10;stroke-dasharray:none;stroke-opacity:1"
             id="path1573" /></g><g
           id="g1575"
           transform="translate(52.4287,164.0542)"><path
             d="M 0,0 H 100.285"
             style="fill:none;stroke:#000000;stroke-width:15;stroke-linecap:round;stroke-linejoin:round;stroke-miterlimit:10;stroke-dasharray:none;stroke-opacity:1"
             id="path1577" /></g><g
           id="g1579"
           transform="translate(411.7559,314.1562)"><path
             d="m 0,0 h -153.09 c -3.658,0 -5.609,4.312 -3.193,7.06 l 64.941,73.842 c 3.201,3.64 3.026,9.14 -0.402,12.568 l -9.17,9.17 c -3.428,3.427 -8.928,3.603 -12.567,0.402 L -222.37,7.278 C -227.704,2.587 -234.564,0 -241.668,0 h -69.844 c -51.22,0 -92.744,-49.617 -92.744,-110.822 0,-61.205 41.524,-110.822 92.744,-110.822 h 21.327"
             style="fill:none;stroke:#000000;stroke-width:15;stroke-linecap:round;stroke-linejoin:round;stroke-miterlimit:10;stroke-dasharray:none;stroke-opacity:1"
             id="path1581" /></g><g
           id="g1583"
           transform="translate(156.5713,92.5127)"><path
             d="M 0,0 H 255.185"
             style="fill:none;stroke:#000000;stroke-width:15;stroke-linecap:round;stroke-linejoin:round;stroke-miterlimit:10;stroke-dasharray:none;stroke-opacity:1"
             id="path1585" /></g></g></g></g></svg>
