<svg height="512pt" viewBox="0 -82 512.00002 512" width="512pt" xmlns="http://www.w3.org/2000/svg"><path d="m7.605469 7.605469h496.789062v332.546875h-496.789062zm0 0" fill="#e9ddf0"/><path d="m256 137.308594s30.089844-75.226563 83.585938-45.136719c53.492187 30.089844 10.027343 123.707031-83.585938 170.515625-93.613281-46.808594-137.078125-140.425781-83.585938-170.515625 53.496094-30.089844 83.585938 45.136719 83.585938 45.136719zm0 0" fill="#ff7266"/><path d="m504.394531 0h-100.367187c-4.199219 0-7.605469 3.40625-7.605469 7.605469s3.40625 7.601562 7.605469 7.601562h80.386718l-115.765624 103.007813c-3.507813-13.957032-12.183594-25.269532-25.335938-32.667969-15.28125-8.597656-30.390625-10.359375-44.90625-5.242187-20.390625 7.191406-34.601562 26.519531-42.40625 40.042968-7.804688-13.523437-22.015625-32.851562-42.40625-40.042968-14.515625-5.117188-29.625-3.351563-44.90625 5.242187-13.210938 7.433594-21.855469 18.632813-25.347656 32.65625l-115.75-102.996094h351.089844c4.199218 0 7.605468-3.402343 7.605468-7.601562s-3.40625-7.605469-7.605468-7.605469h-371.074219c-4.203125 0-7.605469 3.40625-7.605469 7.605469v332.546875c0 4.199218 3.402344 7.601562 7.605469 7.601562h496.789062c4.203125 0 7.605469-3.402344 7.605469-7.601562v-332.546875c0-4.199219-3.402344-7.605469-7.605469-7.605469zm-134.101562 137.113281 126.5-112.5625v298.652344l-147.140625-130.929687c12.4375-18.882813 19.625-37.984376 20.640625-55.160157zm-213.199219-9.738281c1.433594-12.65625 7.84375-22.269531 19.046875-28.574219 11.441406-6.433593 22.023437-7.796875 32.355469-4.167969 25.472656 8.949219 40.300781 45.144532 40.445312 45.5 1.152344 2.882813 3.945313 4.773438 7.050782 4.777344h.011718c3.101563 0 5.894532-1.890625 7.050782-4.769531.148437-.363281 14.976562-36.558594 40.449218-45.507813 10.332032-3.628906 20.914063-2.265624 32.355469 4.167969 13.222656 7.4375 19.730469 19.367188 19.335937 35.460938-.457031 18.746093-10.300781 40.980469-27.71875 62.609375-18.308593 22.730468-42.960937 42.480468-71.476562 57.28125-8.828125-4.585938-17.386719-9.710938-25.484375-15.265625-3.464844-2.375-8.199219-1.492188-10.574219 1.972656s-1.492187 8.195313 1.972656 10.570313c9.707032 6.65625 20.03125 12.730468 30.683594 18.058593 1.070313.535157 2.238282.800781 3.402344.800781s2.328125-.265624 3.398438-.800781c31.894531-15.945312 59.527343-37.757812 79.917968-63.078125.46875-.578125.925782-1.160156 1.382813-1.742187l143.714843 127.878906h-456.820312l143.722656-127.882813c7.003906 8.917969 15.128906 17.648438 24.253906 25.953126 3.105469 2.824218 7.914063 2.597656 10.742188-.507813s2.601562-7.914063-.503906-10.742187c-32.570313-29.632813-51.691406-65.742188-48.714844-91.992188zm5.289062 64.882812-147.175781 130.953126v-298.664063l126.519531 112.574219c1.039063 17.242187 8.296876 36.347656 20.65625 55.136718zm0 0"/></svg>