<?xml version="1.0" encoding="iso-8859-1"?>
<!-- Generator: Adobe Illustrator 19.0.0, SVG Export Plug-In . SVG Version: 6.00 Build 0)  -->
<svg version="1.1" id="Capa_1" xmlns="http://www.w3.org/2000/svg" xmlns:xlink="http://www.w3.org/1999/xlink" x="0px" y="0px"
	 viewBox="0 0 512 512" style="enable-background:new 0 0 512 512;" xml:space="preserve">
<path style="fill:#EFEFEF;" d="M460.216,197.471c-1.759-0.362-406.232-0.453-408.432,0c-5.572,1.148-9.795,6.109-9.795,12.008
	v273.44c0,6.754,5.527,12.258,12.258,12.258c431.348,0,404.08,0.139,405.969-0.25c5.572-1.148,9.796-6.109,9.796-12.008V209.478
	C470.012,203.579,465.789,198.619,460.216,197.471z"/>
<path style="fill:#DDDDDD;" d="M68.354,482.918v-273.44c0-6.752,5.526-12.258,12.258-12.258c-27.648,0.085-26.681-0.192-28.827,0.25
	c-5.572,1.148-9.795,6.109-9.795,12.008v273.44c0,6.754,5.527,12.258,12.258,12.258h26.364c-0.843,0-1.666-0.086-2.462-0.25
	C72.577,493.778,68.354,488.818,68.354,482.918z"/>
<path style="fill:#EFEFEF;" d="M75.854,240.191L75.854,240.191c0,39.647,0,89.931,0,127.851c81.068,0,279.689,0,361.678,0
	c0-23.019,0-54.2,0-77.105l0,0c0-15.817,0-34.832,0-50.746C380.25,240.191,117.488,240.191,75.854,240.191z"/>
<path style="fill:#DDDDDD;" d="M75.854,240.191c0,43.752,0,90.929,0,127.851c0.411,0,26.441,0,25.376,0c0-12.89,0-114.629,0-127.851
	C99.179,240.191,74.442,240.191,75.854,240.191z"/>
<path style="fill:#535454;" d="M393.437,191.091c-13.68,0-264.115,0-274.874,0c-6.592,0-11.935,5.343-11.935,11.935
	c0,6.592,5.343,11.935,11.935,11.935c10.703,0,261.171,0,274.874,0c6.592,0,11.935-5.344,11.935-11.935
	C405.373,196.435,400.029,191.091,393.437,191.091z"/>
<path style="fill:#444443;" d="M136.629,203.027c0-6.592,5.343-11.935,11.935-11.935c-7.539,0-22.234,0-30.001,0
	c-6.592,0-11.935,5.343-11.935,11.935c0,6.592,5.343,11.935,11.935,11.935c7.767,0,22.462,0,30.001,0
	C141.973,214.963,136.629,209.619,136.629,203.027z"/>
<path style="fill:#666666;" d="M490.702,16.82H21.299c-8.834,0-15.398,8.207-13.452,16.829l34.507,152.819
	c1.42,6.288,7.006,10.753,13.452,10.753h52.334c2.04-3.654,5.941-6.129,10.424-6.129c10.703,0,261.171,0,274.874,0
	c4.483,0,8.383,2.475,10.423,6.129h52.334c6.446,0,12.032-4.465,13.452-10.753l34.507-152.819
	C506.1,25.033,499.54,16.82,490.702,16.82z"/>
<path style="fill:#535454;" d="M70.605,186.468L36.098,33.649C34.153,25.032,40.712,16.82,49.55,16.82H21.299
	c-8.834,0-15.398,8.207-13.452,16.829l34.507,152.819c1.42,6.288,7.006,10.753,13.452,10.753h28.251
	C77.611,197.22,72.025,192.755,70.605,186.468z"/>
<path style="fill:#CCCCCC;" d="M192.317,392.401c-4.811,0-8.712,3.9-8.712,8.712v59.325c0,4.811,3.9,8.712,8.712,8.712
	c8.707,0,129.739,0,125.324,0c4.811,0,8.712-3.901,8.712-8.712v-59.325c0-4.811-3.901-8.712-8.712-8.712
	C308.933,392.401,187.903,392.401,192.317,392.401z"/>
<path style="fill:#BABABA;" d="M213.605,460.437v-59.325c0-4.811,3.901-8.712,8.712-8.712c-7.948,0-22.595,0-30.001,0
	c-4.812,0-8.712,3.9-8.712,8.712v59.325c0,4.811,3.901,8.712,8.712,8.712c7.462,0,22.105,0,30.001,0
	C217.507,469.15,213.605,465.249,213.605,460.437z"/>
<path style="fill:#A4D9F4;" d="M440.894,169.639H71.107c-2.501,0-4.668-1.732-5.219-4.172L40.025,50.93
	c-0.756-3.346,1.788-6.528,5.219-6.528h421.513c3.43,0,5.974,3.183,5.219,6.528l-25.863,114.537
	C445.562,167.906,443.395,169.639,440.894,169.639z"/>
<path style="fill:#7CC9E8;" d="M95.89,165.467L70.026,50.93c-0.755-3.346,1.789-6.528,5.219-6.528H45.244
	c-3.43,0-5.974,3.183-5.219,6.528l25.863,114.537c0.551,2.439,2.718,4.172,5.219,4.172h30.001
	C98.607,169.639,96.44,167.906,95.89,165.467z"/>
<path style="fill:#70B5E8;" d="M471.975,50.93c0.755-3.346-1.788-6.528-5.218-6.528H45.243c-3.43,0.001-5.973,3.183-5.218,6.528
	l4.932,21.843c7.961,0,180.397,0,194.609,0h227.477L471.975,50.93z"/>
<path style="fill:#52A5D8;" d="M75.244,44.402H45.243c-3.43,0.001-5.973,3.183-5.218,6.528l4.932,21.843h30.001L70.026,50.93
	C69.271,47.585,71.814,44.402,75.244,44.402z"/>
<path d="M511.47,35.3c1.434-6.346-0.074-12.9-4.137-17.983c0,0,0-0.001-0.001-0.001c-4.063-5.082-10.124-7.996-16.63-7.996H21.299
	c-13.64,0-23.776,12.654-20.768,25.982c36.389,157.697,33.089,154.462,38.64,161.434c-2.915,3.443-4.683,7.888-4.683,12.743v38.845
	c0,4.143,3.357,7.5,7.5,7.5s7.5-3.357,7.5-7.5v-38.845c0-2.579,2.179-4.758,4.758-4.758c14.227,0,28.8,0,44.953,0
	c0.723,8.424,7.052,15.663,15.548,17.362c2.941,0.588-10.423,0.381,220.754,0.381c4.143,0,7.5-3.357,7.5-7.5
	c0-4.143-3.357-7.5-7.5-7.5c-8.547,0-201.537,0-216.94,0c-3.44,0-5.621-3.794-3.75-6.777c0.86-1.372,2.334-2.093,3.75-2.093
	c294.35,0.036,276.012-0.573,277.909,1.218c2.921,2.758,0.965,7.652-3.035,7.652h-22.934c-4.143,0-7.5,3.357-7.5,7.5
	c0,4.143,3.357,7.5,7.5,7.5h22.934c10.145,0,18.488-7.817,19.351-17.742c15.005,0,29.905,0,44.966,0
	c2.579,0,4.758,2.179,4.758,4.758v273.44c0,2.579-2.179,4.759-4.758,4.759h-18.602c-4.143,0-7.5,3.357-7.5,7.5
	c0,4.143,3.357,7.5,7.5,7.5h18.602c10.895,0,19.759-8.863,19.759-19.76V209.478c0-4.855-1.767-9.299-4.683-12.743
	C478.583,189.509,474.833,194.07,511.47,35.3z M462.331,184.815c-0.652,2.889-3.176,4.905-6.137,4.905h-48.599
	c-3.459-3.679-8.609-6.129-14.158-6.129c-297.319,0.039-280.882-2.541-289.032,6.129h-48.6c-2.96,0-5.483-2.017-6.136-4.905
	C14.679,25.879,12.797,31.178,16.384,26.684c3.606-4.509-24.801-1.455,474.318-2.363c1.922,0,3.713,0.861,4.913,2.362
	C499.089,31.031,497.602,24.614,462.331,184.815z"/>
<path d="M445.032,360.331c0-26.146,0-87.971,0-113.016c0-8.063-6.561-14.624-14.624-14.624c-190.338,0-148.013,0-346.906,0
	c-8.353,0-15.148,6.795-15.148,15.147v17.985v25.113v25.114v25.114v15.792c0,10.248,8.337,18.586,18.586,18.586
	c16.532,0,324.381,0,342.881,0C438.207,375.544,445.032,368.719,445.032,360.331z M379.272,247.692h17.88v10.632h-17.88V247.692z
	 M346.393,247.692h17.88v10.632h-17.88V247.692z M346.393,273.324h17.88v10.112c-6.253,0-11.626,0-17.88,0V273.324z
	 M313.513,247.692h17.88v10.632h-17.88V247.692z M313.513,273.324h17.88v10.112c-6.253,0-11.626,0-17.88,0V273.324z
	 M314.952,298.437v10.113c-6.253,0-11.626,0-17.88,0v-10.113C303.325,298.437,308.698,298.437,314.952,298.437z M298.512,323.552
	v10.113h-17.879v-10.113C286.886,323.552,292.259,323.552,298.512,323.552z M280.634,247.692h17.879v10.632h-17.879V247.692z
	 M280.634,273.324h17.879v10.112c-6.253,0-11.625,0-17.879,0V273.324z M282.072,298.437v10.113c-6.253,0-11.625,0-17.879,0v-10.113
	C270.446,298.437,275.819,298.437,282.072,298.437z M265.633,323.552v10.113h-17.88v-10.113
	C254.007,323.552,259.38,323.552,265.633,323.552z M247.753,247.692h17.88v10.632h-17.88V247.692z M247.753,273.324h17.88v10.112
	c-6.253,0-11.626,0-17.88,0V273.324z M249.193,298.437v10.113c-6.253,0-11.626,0-17.88,0v-10.113
	C237.566,298.437,242.939,298.437,249.193,298.437z M232.753,323.552v10.113h-17.88v-10.113
	C221.127,323.552,226.5,323.552,232.753,323.552z M214.873,247.692h17.88v10.632h-17.88V247.692z M214.873,273.324h17.88v10.112
	h-8.939h-8.94V273.324z M216.313,298.437v10.113h-8.94h-8.939v-10.113h8.939H216.313z M199.873,323.552v10.113h-17.88v-10.113h8.939
	H199.873z M181.993,247.692h17.88v10.632h-17.88V247.692z M181.993,273.324h17.88v10.112h-8.939h-8.939v-10.112H181.993z
	 M149.113,247.692h17.88v10.632h-17.88V247.692z M149.113,273.324h17.88v10.112h-8.939h-8.939v-10.112H149.113z M116.233,247.692
	h17.88v10.632h-17.88V247.692z M116.233,273.324h17.88v10.112h-8.939h-8.939L116.233,273.324L116.233,273.324z M83.502,247.692
	h17.731v10.632h-17.88C83.421,247.504,83.214,247.692,83.502,247.692z M83.353,273.324h17.88v10.112h-17.88V273.324z
	 M83.353,298.437h25.38h8.939v10.113H83.353V298.437z M101.233,360.543H86.938c-1.977,0-3.585-1.608-3.585-3.585v-8.292h17.88
	C101.233,348.666,101.233,360.543,101.233,360.543z M134.113,360.543h-17.88v-11.877h17.88L134.113,360.543L134.113,360.543z
	 M134.113,333.665c-16.15,0-34.61,0-50.76,0v-10.113c18.955,0,32.201,0,50.76,0V333.665z M132.674,308.551v-10.113h8.939h8.939
	v10.113h-8.939H132.674z M166.993,360.543h-17.88v-11.877h17.88V360.543z M166.993,333.665h-17.88v-10.113h8.939h8.939v10.113
	H166.993z M165.554,308.551v-10.113h8.939h8.939v10.113h-8.939H165.554z M331.392,360.543H181.993v-11.877
	c4.364,0,145.776,0,149.399,0L331.392,360.543L331.392,360.543z M331.392,333.665h-17.88v-10.113c6.253,0,11.626,0,17.88,0V333.665z
	 M329.952,308.551v-10.113c6.253,0,11.626,0,17.88,0v10.113C341.578,308.551,336.205,308.551,329.952,308.551z M364.271,360.543
	h-17.88v-11.877h17.88V360.543z M364.271,333.665h-17.88v-10.113c6.253,0,11.626,0,17.88,0V333.665z M362.832,308.551v-10.113
	c6.253,0,11.626,0,17.88,0v10.113h-8.939H362.832z M397.151,360.543h-17.88v-11.877h17.88V360.543z M429.819,360.543h-17.668
	v-11.877h17.88C429.936,360.557,430.23,360.543,429.819,360.543z M430.031,333.665c-16.149,0-34.61,0-50.76,0v-10.113
	c18.341,0,31.676,0,50.76,0V333.665z M430.031,308.551h-34.319v-10.113h34.319V308.551z M430.031,283.437
	c-18.955,0-32.201,0-50.76,0v-10.112c16.15,0,34.61,0,50.76,0V283.437z M430.031,258.324h-17.88v-10.632h17.88V258.324z"/>
<path d="M317.643,478.65c8.938,0,16.212-7.273,16.212-16.212v-62.327c0-8.938-7.272-16.211-16.212-16.211H192.316
	c-8.939,0-16.212,7.272-16.212,16.211v62.327c0,8.938,7.272,16.212,16.212,16.212L317.643,478.65L317.643,478.65z M191.105,400.111
	c0-0.668,0.543-1.211,1.211-1.211h125.326c0.668,0,1.211,0.543,1.211,1.211v62.327c0,0.668-0.543,1.211-1.211,1.211H192.316
	C189.97,463.649,191.646,463.351,191.105,400.111z"/>
<path d="M466.758,36.902c-16.309,0-402.471,0-421.514,0h-0.001c-8.232,0-14.35,7.637-12.533,15.681L58.573,167.12
	c1.332,5.898,6.486,10.018,12.534,10.018h369.787c6.048,0,11.202-4.12,12.534-10.018c27.197-120.957,26.19-114.669,26.184-117.42
	C479.596,42.772,473.969,36.902,466.758,36.902z M439.175,162.138H72.826L54.34,80.273h403.322L439.175,162.138z M461.048,65.273
	H50.953l-3.02-13.37h416.134L461.048,65.273z"/>
<path d="M404.151,487.677H54.247c-2.579,0-4.758-2.18-4.758-4.759V283.325c0-4.143-3.357-7.5-7.5-7.5s-7.5,3.357-7.5,7.5v199.593
	c0,10.896,8.863,19.76,19.759,19.76h349.905c4.143,0,7.5-3.357,7.5-7.5C411.652,491.034,408.295,487.677,404.151,487.677z"/>
<g>
</g>
<g>
</g>
<g>
</g>
<g>
</g>
<g>
</g>
<g>
</g>
<g>
</g>
<g>
</g>
<g>
</g>
<g>
</g>
<g>
</g>
<g>
</g>
<g>
</g>
<g>
</g>
<g>
</g>
</svg>
