<?xml version="1.0" encoding="UTF-8" standalone="no"?>
<!-- Created with Inkscape (http://www.inkscape.org/) -->

<svg
   version="1.1"
   id="svg4158"
   xml:space="preserve"
   width="682.66669"
   height="682.66669"
   viewBox="0 0 682.66669 682.66669"
   xmlns="http://www.w3.org/2000/svg"
   xmlns:svg="http://www.w3.org/2000/svg"><defs
     id="defs4162"><clipPath
       clipPathUnits="userSpaceOnUse"
       id="clipPath4176"><path
         d="M 0,512 H 512 V 0 H 0 Z"
         id="path4174" /></clipPath></defs><g
     id="g4164"
     transform="matrix(1.3333333,0,0,-1.3333333,0,682.66667)"><g
       id="g4166"
       transform="translate(198.9209,227.2061)"><path
         d="m 0,0 -54.582,-54.582 28.285,-28.284 54.581,54.582 z"
         style="fill:#97c5d0;fill-opacity:1;fill-rule:nonzero;stroke:none"
         id="path4168" /></g><g
       id="g4170"><g
         id="g4172"
         clip-path="url(#clipPath4176)"><g
           id="g4178"
           transform="translate(169.0884,126.6621)"><path
             d="m 0,0 -110.375,-110.375 c -11.717,-11.717 -30.71,-11.717 -42.427,0 L -21.213,49.498 Z"
             style="fill:#2d4853;fill-opacity:1;fill-rule:nonzero;stroke:none"
             id="path4180" /></g><g
           id="g4182"
           transform="translate(162.0171,162.0176)"><path
             d="m 0,0 -145.73,-145.73 c -11.71,11.709 -11.717,30.709 0,42.426 L -35.355,7.071 Z"
             style="fill:#446875;fill-opacity:1;fill-rule:nonzero;stroke:none"
             id="path4184" /></g><g
           id="g4186"
           transform="translate(190.3013,147.875)"><path
             d="M 0,0 -21.213,21.214 -38.891,17.678 -42.426,0 -21.213,-21.213 Z"
             style="fill:#bbe1e7;fill-opacity:1;fill-rule:nonzero;stroke:none"
             id="path4188" /></g><g
           id="g4190"
           transform="translate(169.0884,169.0889)"><path
             d="M 0,0 -21.213,21.213 -42.427,0 -21.213,-21.214 Z"
             style="fill:#dffdff;fill-opacity:1;fill-rule:nonzero;stroke:none"
             id="path4192" /></g><g
           id="g4194"
           transform="translate(324.5,504.5)"><path
             d="m 0,0 c -99.252,0 -180,-80.747 -180,-180 0,-99.252 80.748,-180 180,-180 99.252,0 180,80.748 180,180 C 180,-80.747 99.252,0 0,0"
             style="fill:#2d4853;fill-opacity:1;fill-rule:nonzero;stroke:none"
             id="path4196" /></g><g
           id="g4198"
           transform="translate(430.5664,430.5664)"><path
             d="m 0,0 -212.132,-212.132 c 58.485,-58.485 153.647,-58.485 212.132,0 C 58.484,-153.647 58.484,-58.485 0,0"
             style="fill:#aaf4f9;fill-opacity:1;fill-rule:nonzero;stroke:none"
             id="path4200" /></g><g
           id="g4202"
           transform="translate(409.3525,239.6475)"><path
             d="m 0,0 c 58.485,58.485 68.002,144.131 21.214,190.919 -58.485,58.485 -153.648,58.485 -212.132,0 -58.485,-58.485 -58.485,-153.648 0,-212.132 C -144.131,-68.001 -58.484,-58.484 0,0"
             style="fill:#dffdff;fill-opacity:1;fill-rule:nonzero;stroke:none"
             id="path4204" /></g><g
           id="g4206"
           transform="translate(147.875,190.3018)"><path
             d="m 0,0 -131.588,-131.588 c -11.716,-11.716 -11.716,-30.711 0,-42.427 11.715,-11.715 30.711,-11.715 42.426,0 L 42.426,-42.427 Z"
             style="fill:none;stroke:#000000;stroke-width:15;stroke-linecap:round;stroke-linejoin:round;stroke-miterlimit:10;stroke-dasharray:none;stroke-opacity:1"
             id="path4208" /></g><g
           id="g4210"
           transform="translate(126.6616,169.0889)"><path
             d="M 0,0 42.426,-42.427"
             style="fill:none;stroke:#000000;stroke-width:15;stroke-linecap:round;stroke-linejoin:round;stroke-miterlimit:10;stroke-dasharray:none;stroke-opacity:1"
             id="path4212" /></g><g
           id="g4214"
           transform="translate(154.9463,183.2305)"><path
             d="M 0,0 28.976,28.977"
             style="fill:none;stroke:#000000;stroke-width:15;stroke-linecap:round;stroke-linejoin:round;stroke-miterlimit:10;stroke-dasharray:none;stroke-opacity:1"
             id="path4216" /></g><g
           id="g4218"
           transform="translate(183.231,154.9453)"><path
             d="M 0,0 28.977,28.977"
             style="fill:none;stroke:#000000;stroke-width:15;stroke-linecap:round;stroke-linejoin:round;stroke-miterlimit:10;stroke-dasharray:none;stroke-opacity:1"
             id="path4220" /></g><g
           id="g4222"
           transform="translate(324.5,504.5)"><path
             d="m 0,0 c -99.252,0 -180,-80.747 -180,-180 0,-99.252 80.748,-180 180,-180 99.252,0 180,80.748 180,180 C 180,-80.747 99.252,0 0,0 Z"
             style="fill:none;stroke:#000000;stroke-width:15;stroke-linecap:round;stroke-linejoin:round;stroke-miterlimit:10;stroke-dasharray:none;stroke-opacity:1"
             id="path4224" /></g><g
           id="g4226"
           transform="translate(208.4082,419.3789)"><path
             d="m 0,0 c -21.181,-25.869 -33.908,-58.914 -33.908,-94.879 0,-82.71 67.289,-150 150,-150 82.71,0 150,67.29 150,150 0,82.711 -67.29,150 -150,150 -35.965,0 -69.009,-12.726 -94.879,-33.908"
             style="fill:none;stroke:#000000;stroke-width:15;stroke-linecap:round;stroke-linejoin:round;stroke-miterlimit:10;stroke-dasharray:none;stroke-opacity:1"
             id="path4228" /></g></g></g></g></svg>
