<svg id="Capa_1" enable-background="new 0 0 512 512" height="512" viewBox="0 0 512 512" width="512" xmlns="http://www.w3.org/2000/svg"><g><g><g><path d="m256 66.555v436.588l-233.225-56.698c-8.964-2.18-15.275-10.208-15.275-19.434v-408.146c0-6.479 6.067-11.247 12.362-9.717z" fill="#f2eff2"/><path d="m226.62 59.412v436.588l29.38 7.143v-436.588z" fill="#e1dde1"/><path d="m504.5 18.865v408.146c0 9.226-6.311 17.255-15.275 19.434l-233.225 56.698v-436.588l236.138-57.407c6.295-1.53 12.362 3.238 12.362 9.717z" fill="#e1dde1"/><path d="m504.5 18.863v408.15c0 9.22-6.31 17.25-15.28 19.43l-30.93 7.52c6.13-3.48 10.11-10.06 10.11-17.39v-409.32c0-5.51-4.38-9.79-9.58-10l33.32-8.1c6.29-1.54 12.36 3.23 12.36 9.71z" fill="#cbc5cb"/></g><g><path d="m256 461.883-200.568-48.759c-4.482-1.09-7.638-5.104-7.638-9.717v-342.384c0-3.239 3.033-5.624 6.181-4.858l202.025 49.112z" fill="#bcea73"/><path d="m226.62 98.135v356.606l29.38 7.142v-356.606z" fill="#99d53b"/><path d="m256 384.763v77.12l-150.07-36.48-5.56-21.634c-1.186-4.615 1.049-9.426 5.34-11.496l4.045-1.951c1.988-.959 3.602-2.548 4.592-4.52l16.011-31.894c.907-1.807 2.34-3.296 4.111-4.272l40.03-22.06c3.212-1.77 7.135-1.64 10.222.339l18.689 11.977c3.13 2.006 4.889 5.583 4.567 9.286l-2.595 29.829c-.31 3.562 1.306 7.019 4.238 9.066l18.528 12.935c3.981 2.779 9.383 2.298 12.809-1.142z" fill="#1ca56f"/><path d="m240.955 399.865c-3.427 3.439-8.828 3.921-12.809 1.142l-1.526-1.065v54.8l29.38 7.142v-77.12z" fill="#158f5e"/><path d="m256 461.883 200.568-48.759c4.482-1.09 7.638-5.104 7.638-9.717v-342.384c0-3.239-3.033-5.624-6.181-4.858l-202.025 49.112z" fill="#8dc637"/><path d="m464.21 61.023v342.38c0 4.62-3.16 8.63-7.64 9.72l-23.37 5.68v-356.61l24.82-6.03c3.15-.76 6.19 1.62 6.19 4.86z" fill="#82b732"/><path d="m464.21 113.573v289.83c0 4.613-3.155 8.627-7.638 9.717l-200.572 48.763v-77.12l64.523 3.651c4.479.253 8.579-2.507 10.029-6.753l14.301-41.885c.874-2.559.674-5.363-.554-7.772l-16.873-33.103c-1.404-2.755-1.455-6.005-.137-8.803l15.994-33.951c1.768-3.754 5.671-6.025 9.808-5.709l19.54 1.493c4.498.344 8.669-2.367 10.182-6.616l9.911-27.831c.858-2.409 2.606-4.397 4.884-5.557l23.329-11.874c2.707-1.378 4.641-3.911 5.256-6.885l14.309-69.143c.836-4.04 4.067-7.152 8.136-7.835z" fill="#0f7a4f"/><path d="m448.639 116.189c-4.068.684-7.299 3.795-8.135 7.835l-7.306 35.304v259.475l23.376-5.683c4.482-1.09 7.638-5.104 7.638-9.717v-289.83z" fill="#0c6842"/></g></g><g><g><path d="m154.132 256.82-18.745-7.319c-2.339-.913-4.935-.913-7.274 0l-18.745 7.319c-2.635 1.029-4.712 3.126-5.714 5.772l-12.881 33.994h81.955l-12.881-33.994c-1.003-2.646-3.08-4.743-5.715-5.772z" fill="#fb8627"/></g><g><path d="m172.729 296.585h-20.05l-15.74-42.19c-.95-2.48-2.84-4.49-5.25-5.58 1.25-.01 2.51.22 3.7.69l18.74 7.31c2.64 1.03 4.71 3.13 5.72 5.78z" fill="#fb7722"/></g></g><g><g><path d="m203.854 174.302-16.983-6.631c-2.119-.827-4.471-.827-6.59 0l-16.983 6.631c-2.388.932-4.269 2.832-5.177 5.229l-11.671 30.799h74.252l-11.671-30.799c-.908-2.396-2.789-4.296-5.177-5.229z" fill="#fb8627"/></g><g><path d="m220.703 210.33h-18.165l-14.261-38.225c-.861-2.247-2.573-4.068-4.757-5.055 1.133-.009 2.274.199 3.352.625l16.979 6.623c2.392.933 4.267 2.836 5.182 5.237z" fill="#fb7722"/></g></g><g><g><path d="m371.047 126.012-18.745-7.319c-2.339-.913-4.935-.913-7.274 0l-18.745 7.319c-2.635 1.029-4.712 3.126-5.714 5.772l-12.881 33.994h81.955l-12.881-33.994c-1.003-2.646-3.08-4.743-5.715-5.772z" fill="#fb8627"/></g><g><path d="m389.644 165.777h-20.05l-15.74-42.19c-.95-2.48-2.84-4.49-5.25-5.58 1.25-.01 2.51.22 3.7.69l18.74 7.31c2.64 1.03 4.71 3.13 5.72 5.78z" fill="#fb7722"/></g></g><g><path d="m97.267 96.966-17.492 43.044c-.49 1.207-.49 2.558 0 3.765l17.492 43.045c1.014 2.494 4.545 2.494 5.559 0l17.492-43.045c.49-1.207.49-2.558 0-3.765l-17.492-43.044c-1.014-2.494-4.546-2.494-5.559 0z" fill="#f2eff2"/><path d="m120.692 141.893h-41.29c0-.64.13-1.28.37-1.88l17.49-43.05c1.02-2.49 4.55-2.49 5.56 0l17.49 43.05c.251.6.38 1.24.38 1.88z" fill="#fb8627"/></g><g><path d="m254.272 510.416c.567.135 1.143.227 1.728.227.591 0 1.186-.07 1.771-.212l85.362-20.752c4.025-.979 6.495-5.035 5.517-9.06s-5.035-6.497-9.06-5.517l-76.09 18.499v-25.822l194.84-47.366c7.87-1.914 13.366-8.906 13.366-17.006v-62.282c0-4.143-3.357-7.5-7.5-7.5s-7.5 3.357-7.5 7.5v62.282c0 1.157-.785 2.156-1.909 2.43l-191.297 46.504v-59.641l56.601 3.203c.328.019.655.027.981.027 7.424 0 14.147-4.758 16.567-11.845l14.303-41.888c1.519-4.453 1.165-9.41-.972-13.6l-16.873-33.104c-.348-.683-.36-1.506-.033-2.2l15.993-33.95c.438-.933 1.416-1.52 2.453-1.428l19.539 1.493c7.851.605 15.178-4.161 17.819-11.579l9.911-27.831c.216-.604.649-1.099 1.22-1.389l23.33-11.874c4.763-2.424 8.115-6.816 9.198-12.05l14.31-69.144c.207-1.001 1.024-1.788 2.034-1.958l6.824-1.146v185.695c0 4.143 3.357 7.5 7.5 7.5s7.5-3.357 7.5-7.5v-194.28c0-.016 0-.032 0-.048v-52.781c0-3.86-1.741-7.442-4.776-9.828-3.036-2.386-6.929-3.229-10.676-2.318l-192.753 46.859v-23.285l230.41-56.015c1.029-.245 1.779.184 2.135.464s.955.908.955 1.966v408.144c0 5.786-3.926 10.78-9.547 12.146l-115.804 28.152c-4.025.979-6.495 5.035-5.517 9.06.834 3.43 3.902 5.73 7.282 5.73.586 0 1.183-.069 1.777-.214l115.804-28.152c12.367-3.005 21.005-13.993 21.005-26.722v-408.144c0-5.405-2.437-10.42-6.687-13.76-4.249-3.34-9.701-4.523-14.947-3.245l-234.366 56.975-234.366-56.976c-5.252-1.278-10.699-.094-14.948 3.247-4.249 3.34-6.686 8.354-6.686 13.759v408.146c0 12.727 8.637 23.715 21.004 26.722zm-5.772-58.075-136.427-33.166-4.439-17.273c-.295-1.149.266-2.358 1.335-2.874l4.046-1.951c3.458-1.669 6.313-4.479 8.035-7.91l16.01-31.895c.229-.453.583-.822 1.029-1.068l40.029-22.06c.805-.444 1.784-.41 2.556.084l18.688 11.978c.785.503 1.223 1.393 1.142 2.321l-2.595 29.829c-.54 6.216 2.302 12.296 7.416 15.865l18.527 12.936c6.979 4.874 16.408 4.032 22.416-1.999l2.231-2.24v49.423zm-233.5-25.33v-408.145c0-1.058.599-1.686.955-1.966.357-.28 1.109-.713 2.136-.464l230.409 56.015v23.285l-34.571-8.404c-4.024-.98-8.081 1.492-9.06 5.517s1.491 8.081 5.517 9.06l38.114 9.266v270.492l-12.858 12.907c-.859.862-2.204.981-3.201.286l-18.528-12.937c-.73-.51-1.137-1.378-1.06-2.266l2.595-29.828c.565-6.503-2.496-12.729-7.991-16.251l-18.689-11.978c-5.409-3.468-12.262-3.694-17.889-.592l-40.027 22.059c-3.112 1.714-5.601 4.299-7.196 7.476l-16.011 31.896c-.246.49-.654.892-1.147 1.13l-4.045 1.951c-7.483 3.609-11.414 12.071-9.345 20.118l2.447 9.523-38.351-9.323c-1.124-.273-1.909-1.272-1.909-2.43v-339.205l123.075 29.921c4.021.975 8.081-1.492 9.06-5.517s-1.491-8.081-5.517-9.06l-126.166-30.67c-3.75-.914-7.643-.068-10.677 2.317-3.035 2.386-4.776 5.968-4.776 9.828v342.384c0 8.1 5.496 15.092 13.366 17.006l194.84 47.366v25.822l-223.953-54.443c-5.621-1.367-9.547-6.362-9.547-12.146zm441.706-362.808v43.024l-9.311 1.564c-7.174 1.206-12.763 6.588-14.237 13.712l-14.31 69.144c-.154.748-.633 1.375-1.313 1.721l-23.331 11.874c-4.004 2.039-7.039 5.493-8.546 9.726l-9.911 27.83c-.377 1.061-1.432 1.746-2.546 1.654l-19.538-1.493c-7.188-.548-14.091 3.465-17.166 9.991l-15.994 33.952c-2.289 4.861-2.199 10.619.24 15.404l16.873 33.104c.305.598.355 1.306.139 1.94l-14.302 41.887c-.36 1.057-1.371 1.771-2.507 1.688l-57.447-3.251v-266.501z"/><path d="m179.26 289.085h-1.354l-11.047-29.151c-1.752-4.622-5.396-8.303-10-10.101l-18.745-7.318c-4.104-1.602-8.625-1.602-12.729 0l-18.746 7.318c-4.603 1.798-8.247 5.479-10 10.102l-11.046 29.15h-1.353c-4.143 0-7.5 3.357-7.5 7.5s3.357 7.5 7.5 7.5h88.463c.009 0 .017.002.026.002.015 0 .029-.002.044-.002h6.488c4.143 0 7.5-3.357 7.5-7.5s-3.359-7.5-7.501-7.5zm-68.594-23.835c.251-.661.772-1.188 1.43-1.444l18.745-7.318c.586-.229 1.232-.229 1.818 0l18.744 7.318c.658.257 1.18.783 1.43 1.443l9.032 23.836h-22.615v-6.305c0-4.143-3.357-7.5-7.5-7.5s-7.5 3.357-7.5 7.5v6.305h-22.615z"/><path d="m177.553 160.685-16.984 6.631c-4.355 1.701-7.805 5.186-9.462 9.559l-9.836 25.956h-.74c-4.143 0-7.5 3.357-7.5 7.5s3.357 7.5 7.5 7.5h80.146c.009 0 .017.002.026.002.015 0 .029-.002.044-.002h5.873c4.143 0 7.5-3.357 7.5-7.5s-3.357-7.5-7.5-7.5h-.739l-9.836-25.957c-1.657-4.372-5.106-7.855-9.464-9.558l-16.983-6.631c-3.884-1.516-8.161-1.516-12.045 0zm6.591 13.973 16.981 6.631c.411.16.736.489.893.9l7.822 20.642h-18.764v-5.008c0-4.143-3.357-7.5-7.5-7.5s-7.5 3.357-7.5 7.5v5.008h-18.763l7.822-20.641c.156-.413.481-.741.891-.901l16.982-6.631c.366-.143.77-.143 1.136 0z"/><path d="m301.155 173.277h88.463c.009 0 .017.002.026.002.015 0 .029-.002.044-.002h6.488c4.143 0 7.5-3.357 7.5-7.5s-3.357-7.5-7.5-7.5h-1.354l-11.047-29.151c-1.752-4.622-5.396-8.303-10-10.101l-18.745-7.318c-4.104-1.602-8.625-1.602-12.729 0l-18.746 7.318c-4.603 1.798-8.247 5.479-10 10.102l-11.046 29.15h-1.354c-4.143 0-7.5 3.357-7.5 7.5s3.358 7.5 7.5 7.5zm26.426-38.835c.251-.661.772-1.188 1.43-1.444l18.745-7.318c.586-.229 1.232-.229 1.818 0l18.744 7.318c.658.257 1.18.783 1.43 1.443l9.032 23.836h-22.615v-6.305c0-4.143-3.357-7.5-7.5-7.5s-7.5 3.357-7.5 7.5v6.305h-22.615z"/><path d="m424.729 338.754c-2.93-2.928-7.678-2.928-10.607 0l-7.582 7.582-7.582-7.582c-2.93-2.928-7.678-2.928-10.607 0-2.929 2.93-2.929 7.678 0 10.607l7.582 7.582-7.582 7.582c-2.929 2.93-2.929 7.678 0 10.607 1.465 1.464 3.385 2.196 5.304 2.196s3.839-.732 5.304-2.196l7.582-7.582 7.582 7.582c1.465 1.464 3.385 2.196 5.304 2.196s3.839-.732 5.304-2.196c2.929-2.93 2.929-7.678 0-10.607l-7.582-7.582 7.582-7.582c2.926-2.929 2.926-7.677-.002-10.607z"/><path d="m100.046 196.191c4.293 0 8.111-2.57 9.728-6.548l17.493-43.046c1.231-3.034 1.231-6.375-.001-9.41l-17.492-43.044c-1.616-3.978-5.435-6.548-9.728-6.548s-8.111 2.57-9.728 6.548l-17.492 43.045c-1.231 3.034-1.231 6.375.001 9.41l17.491 43.046c1.617 3.976 5.435 6.547 9.728 6.547zm0-22.454-9.892-24.344h19.784zm0-63.689 9.893 24.345h-19.785z"/><path d="m301.155 230.896c4.143 0 7.5-3.357 7.5-7.5v-6.643c0-4.143-3.357-7.5-7.5-7.5s-7.5 3.357-7.5 7.5v6.643c0 4.142 3.358 7.5 7.5 7.5z"/><path d="m160.902 129.316c4.143 0 7.5-3.357 7.5-7.5v-6.643c0-4.143-3.357-7.5-7.5-7.5s-7.5 3.357-7.5 7.5v6.643c0 4.142 3.358 7.5 7.5 7.5z"/><path d="m215.022 248.13c-4.143 0-7.5 3.357-7.5 7.5v6.643c0 4.143 3.357 7.5 7.5 7.5s7.5-3.357 7.5-7.5v-6.643c0-4.142-3.357-7.5-7.5-7.5z"/><path d="m429.824 299.423v-6.643c0-4.143-3.357-7.5-7.5-7.5s-7.5 3.357-7.5 7.5v6.643c0 4.143 3.357 7.5 7.5 7.5s7.5-3.357 7.5-7.5z"/><path d="m403.675 286.022v-6.643c0-4.143-3.357-7.5-7.5-7.5s-7.5 3.357-7.5 7.5v6.643c0 4.143 3.357 7.5 7.5 7.5s7.5-3.358 7.5-7.5z"/><path d="m158.003 373.479c-4.143 0-7.5 3.357-7.5 7.5v6.643c0 4.143 3.357 7.5 7.5 7.5s7.5-3.357 7.5-7.5v-6.643c0-4.143-3.357-7.5-7.5-7.5z"/></g></g></svg>