<?xml version="1.0" encoding="UTF-8"?>
<svg xmlns="http://www.w3.org/2000/svg" xmlns:xlink="http://www.w3.org/1999/xlink" version="1.1" id="Capa_1" x="0px" y="0px" viewBox="0 0 512 512" style="enable-background:new 0 0 512 512;" xml:space="preserve" width="512" height="512">
<g>
	<g>
		<g>
			<g>
				<path style="fill:#685E68;" d="M422.805,160.788H89.195V17.451c0-5.496,4.455-9.951,9.951-9.951h313.708&#10;&#9;&#9;&#9;&#9;&#9;c5.496,0,9.951,4.455,9.951,9.951V160.788z"/>
				<path style="fill:#554E56;" d="M412.854,7.5h-40c5.496,0,9.951,4.455,9.951,9.951v143.337h40V17.451&#10;&#9;&#9;&#9;&#9;&#9;C422.805,11.955,418.35,7.5,412.854,7.5z"/>
				<g>
					<g>
						<path style="fill:#FFBD86;" d="M130.823,373.558V84.144h25.081v289.414c0,4.233-3.432,7.665-7.665,7.665h-9.751&#10;&#9;&#9;&#9;&#9;&#9;&#9;&#9;C134.255,381.223,130.823,377.791,130.823,373.558z"/>
						<path style="fill:#FE9738;" d="M166.417,58.999c0,18.312-10.321,44.457-23.053,44.457S120.31,77.311,120.31,58.999&#10;&#9;&#9;&#9;&#9;&#9;&#9;&#9;s10.321-21.855,23.053-21.855S166.417,40.687,166.417,58.999z"/>
					</g>
					<g>
						<path style="fill:#FFBD86;" d="M205.914,373.558V84.144h25.081v289.414c0,4.233-3.432,7.665-7.665,7.665h-9.751&#10;&#9;&#9;&#9;&#9;&#9;&#9;&#9;C209.346,381.223,205.914,377.791,205.914,373.558z"/>
						<path style="fill:#FE9738;" d="M241.508,58.999c0,18.312-10.321,44.457-23.053,44.457c-12.732,0-23.053-26.145-23.053-44.457&#10;&#9;&#9;&#9;&#9;&#9;&#9;&#9;s10.321-21.855,23.053-21.855C231.186,37.144,241.508,40.687,241.508,58.999z"/>
					</g>
					<g>
						<path style="fill:#FFBD86;" d="M281.005,373.558V84.144h25.081v289.414c0,4.233-3.432,7.665-7.665,7.665h-9.751&#10;&#9;&#9;&#9;&#9;&#9;&#9;&#9;C284.437,381.223,281.005,377.791,281.005,373.558z"/>
						<path style="fill:#FE9738;" d="M316.599,58.999c0,18.312-10.321,44.457-23.053,44.457c-12.732,0-23.053-26.145-23.053-44.457&#10;&#9;&#9;&#9;&#9;&#9;&#9;&#9;s10.321-21.855,23.053-21.855C306.277,37.144,316.599,40.687,316.599,58.999z"/>
					</g>
					<g>
						<path style="fill:#FFBD86;" d="M356.096,373.558V84.144h25.081v289.414c0,4.233-3.432,7.665-7.665,7.665h-9.751&#10;&#9;&#9;&#9;&#9;&#9;&#9;&#9;C359.528,381.223,356.096,377.791,356.096,373.558z"/>
						<path style="fill:#FE9738;" d="M391.69,58.999c0,18.312-10.321,44.457-23.053,44.457c-12.732,0-23.053-26.145-23.053-44.457&#10;&#9;&#9;&#9;&#9;&#9;&#9;&#9;s10.321-21.855,23.053-21.855C381.368,37.144,391.69,40.687,391.69,58.999z"/>
					</g>
				</g>
			</g>
			<path style="fill:#9BE69D;" d="M425.534,504.5H86.466c-5.496,0-9.951-4.455-9.951-9.951V155.41c0-5.496,4.455-9.951,9.951-9.951&#10;&#9;&#9;&#9;&#9;h339.067c5.496,0,9.951,4.455,9.951,9.951v339.139C435.485,500.045,431.03,504.5,425.534,504.5z"/>
		</g>
		<g>
			<g>
				<path style="fill:#FAF7F7;" d="M383.417,264.885l-67.335-67.349c-3.307-3.307-7.792-5.166-12.468-5.166h-95.227&#10;&#9;&#9;&#9;&#9;&#9;c-4.677,0-9.162,1.858-12.468,5.166l-67.336,67.349c-3.307,3.307-5.165,7.793-5.165,12.471v95.246&#10;&#9;&#9;&#9;&#9;&#9;c0,4.677,1.858,9.163,5.165,12.471l67.335,67.349c3.307,3.307,7.792,5.166,12.468,5.166h95.227&#10;&#9;&#9;&#9;&#9;&#9;c4.677,0,9.162-1.858,12.468-5.166l67.336-67.349c3.307-3.307,5.165-7.793,5.165-12.471v-95.246&#10;&#9;&#9;&#9;&#9;&#9;C388.582,272.679,386.724,268.193,383.417,264.885z"/>
			</g>
			<g>
				<g>
					<g>
						<g>
							<path style="fill:#FEE45A;" d="M200.362,310.361c1.258-3.586,2.757-7.312,4.52-11.182c1.824-4.004,7.485-3.987,9.287,0.027&#10;&#9;&#9;&#9;&#9;&#9;&#9;&#9;&#9;c2.714,6.046,7.566,11.842,16.073,10.412c17.396-2.925,21.882-44.371,12.428-74.078c-1.386-4.354,3.172-8.202,7.211-6.066&#10;&#9;&#9;&#9;&#9;&#9;&#9;&#9;&#9;c38.393,20.301,67.205,58.605,64.996,103.651c-1.53,31.204-27.609,55.562-58.845,55.562h0&#10;&#9;&#9;&#9;&#9;&#9;&#9;&#9;&#9;C215.476,388.687,186.929,348.636,200.362,310.361z"/>
						</g>
						<path style="fill:#FFD15B;" d="M249.881,229.473c-4.039-2.136-8.597,1.712-7.211,6.066c2.284,7.176,3.746,15.036,4.417,22.874&#10;&#9;&#9;&#9;&#9;&#9;&#9;&#9;c18.096,20.276,29.192,46.132,27.79,74.711c-1.188,24.227-17.178,44.32-38.887,52.097c6.206,2.233,12.939,3.465,20.042,3.465&#10;&#9;&#9;&#9;&#9;&#9;&#9;&#9;h0c31.235,0,57.315-24.358,58.845-55.562C317.086,288.078,288.274,249.775,249.881,229.473z"/>
						<path style="fill:#FE9738;" d="M256.71,388.687h-0.208c-26.801,0-43.376-29.668-28.882-52.216&#10;&#9;&#9;&#9;&#9;&#9;&#9;&#9;c0.23-0.358,0.466-0.716,0.707-1.076c1.013-1.506,3.252-1.45,4.144,0.131c5.122,9.076,17.847,11.369,25.87,3.688&#10;&#9;&#9;&#9;&#9;&#9;&#9;&#9;c8.544-8.18,9.797-22.325,8.165-34.318c-0.337-2.476,2.815-3.81,4.335-1.826c7.877,10.278,20.365,30.158,19.949,52.457&#10;&#9;&#9;&#9;&#9;&#9;&#9;&#9;C290.447,373.99,275.173,388.687,256.71,388.687z"/>
					</g>
				</g>
			</g>
		</g>
	</g>
	<g>
		<g>
			<g>
				<path style="fill:none;stroke:#000000;stroke-width:15;stroke-linecap:round;stroke-linejoin:round;stroke-miterlimit:10;" d="&#10;&#9;&#9;&#9;&#9;&#9;M159.904,7.5h252.95c5.496,0,9.951,4.455,9.951,9.951v128.007"/>
				<path style="fill:none;stroke:#000000;stroke-width:15;stroke-linecap:round;stroke-linejoin:round;stroke-miterlimit:10;" d="&#10;&#9;&#9;&#9;&#9;&#9;M89.195,145.458V17.451c0-5.496,4.455-9.951,9.951-9.951h28.677"/>
				<g>
					<g>
						
							<line style="fill:none;stroke:#000000;stroke-width:15;stroke-linecap:round;stroke-linejoin:round;stroke-miterlimit:10;" x1="155.904" y1="96.144" x2="155.904" y2="145.458"/>
						
							<line style="fill:none;stroke:#000000;stroke-width:15;stroke-linecap:round;stroke-linejoin:round;stroke-miterlimit:10;" x1="130.823" y1="145.458" x2="130.823" y2="96.144"/>
						
							<path style="fill:none;stroke:#000000;stroke-width:15;stroke-linecap:round;stroke-linejoin:round;stroke-miterlimit:10;" d="&#10;&#9;&#9;&#9;&#9;&#9;&#9;&#9;M166.417,58.999c0,18.312-10.321,44.457-23.053,44.457S120.31,77.311,120.31,58.999s10.321-21.855,23.053-21.855&#10;&#9;&#9;&#9;&#9;&#9;&#9;&#9;S166.417,40.687,166.417,58.999z"/>
					</g>
					<g>
						
							<line style="fill:none;stroke:#000000;stroke-width:15;stroke-linecap:round;stroke-linejoin:round;stroke-miterlimit:10;" x1="205.914" y1="145.458" x2="205.914" y2="96.144"/>
						
							<line style="fill:none;stroke:#000000;stroke-width:15;stroke-linecap:round;stroke-linejoin:round;stroke-miterlimit:10;" x1="230.995" y1="96.144" x2="230.995" y2="145.458"/>
						
							<path style="fill:none;stroke:#000000;stroke-width:15;stroke-linecap:round;stroke-linejoin:round;stroke-miterlimit:10;" d="&#10;&#9;&#9;&#9;&#9;&#9;&#9;&#9;M241.508,58.999c0,18.312-10.321,44.457-23.053,44.457c-12.732,0-23.053-26.145-23.053-44.457s10.321-21.855,23.053-21.855&#10;&#9;&#9;&#9;&#9;&#9;&#9;&#9;C231.186,37.144,241.508,40.687,241.508,58.999z"/>
					</g>
					<g>
						
							<line style="fill:none;stroke:#000000;stroke-width:15;stroke-linecap:round;stroke-linejoin:round;stroke-miterlimit:10;" x1="306.086" y1="96.144" x2="306.086" y2="145.458"/>
						
							<line style="fill:none;stroke:#000000;stroke-width:15;stroke-linecap:round;stroke-linejoin:round;stroke-miterlimit:10;" x1="281.005" y1="145.458" x2="281.005" y2="96.144"/>
						
							<path style="fill:none;stroke:#000000;stroke-width:15;stroke-linecap:round;stroke-linejoin:round;stroke-miterlimit:10;" d="&#10;&#9;&#9;&#9;&#9;&#9;&#9;&#9;M316.599,58.999c0,18.312-10.321,44.457-23.053,44.457c-12.732,0-23.053-26.145-23.053-44.457s10.321-21.855,23.053-21.855&#10;&#9;&#9;&#9;&#9;&#9;&#9;&#9;C306.277,37.144,316.599,40.687,316.599,58.999z"/>
					</g>
					<g>
						
							<line style="fill:none;stroke:#000000;stroke-width:15;stroke-linecap:round;stroke-linejoin:round;stroke-miterlimit:10;" x1="356.096" y1="145.458" x2="356.096" y2="96.144"/>
						
							<line style="fill:none;stroke:#000000;stroke-width:15;stroke-linecap:round;stroke-linejoin:round;stroke-miterlimit:10;" x1="381.177" y1="96.144" x2="381.177" y2="145.458"/>
						
							<path style="fill:none;stroke:#000000;stroke-width:15;stroke-linecap:round;stroke-linejoin:round;stroke-miterlimit:10;" d="&#10;&#9;&#9;&#9;&#9;&#9;&#9;&#9;M391.69,58.999c0,18.312-10.321,44.457-23.053,44.457c-12.732,0-23.053-26.145-23.053-44.457s10.321-21.855,23.053-21.855&#10;&#9;&#9;&#9;&#9;&#9;&#9;&#9;C381.368,37.144,391.69,40.687,391.69,58.999z"/>
					</g>
				</g>
			</g>
			<path style="fill:none;stroke:#000000;stroke-width:15;stroke-linecap:round;stroke-linejoin:round;stroke-miterlimit:10;" d="&#10;&#9;&#9;&#9;&#9;M425.534,145.458H86.466c-5.496,0-9.951,4.455-9.951,9.951v339.139c0,5.496,4.455,9.951,9.951,9.951h339.067&#10;&#9;&#9;&#9;&#9;c5.496,0,9.951-4.455,9.951-9.951V155.41C435.485,149.914,431.03,145.458,425.534,145.458z"/>
		</g>
		<g>
			
				<polyline style="fill:none;stroke:#000000;stroke-width:15;stroke-linecap:round;stroke-linejoin:round;stroke-miterlimit:10;" points="&#10;&#9;&#9;&#9;&#9;143.363,175.315 106.366,175.315 106.366,210.219 &#9;&#9;&#9;"/>
			
				<polyline style="fill:none;stroke:#000000;stroke-width:15;stroke-linecap:round;stroke-linejoin:round;stroke-miterlimit:10;" points="&#10;&#9;&#9;&#9;&#9;368.637,175.315 405.634,175.315 405.634,210.219 &#9;&#9;&#9;"/>
		</g>
		<g>
			
				<polyline style="fill:none;stroke:#000000;stroke-width:15;stroke-linecap:round;stroke-linejoin:round;stroke-miterlimit:10;" points="&#10;&#9;&#9;&#9;&#9;368.637,474.643 405.634,474.643 405.634,439.739 &#9;&#9;&#9;"/>
			
				<polyline style="fill:none;stroke:#000000;stroke-width:15;stroke-linecap:round;stroke-linejoin:round;stroke-miterlimit:10;" points="&#10;&#9;&#9;&#9;&#9;143.363,474.643 106.366,474.643 106.366,439.739 &#9;&#9;&#9;"/>
		</g>
		<g>
			<g>
				<path style="fill:none;stroke:#000000;stroke-width:15;stroke-linecap:round;stroke-linejoin:round;stroke-miterlimit:10;" d="&#10;&#9;&#9;&#9;&#9;&#9;M360.654,407.841l22.764-22.768c3.307-3.307,5.165-7.793,5.165-12.471v-95.246c0-4.677-1.858-9.163-5.165-12.471l-67.335-67.349&#10;&#9;&#9;&#9;&#9;&#9;c-3.307-3.307-7.792-5.166-12.468-5.166h-95.227c-4.677,0-9.161,1.858-12.468,5.166l-67.336,67.349&#10;&#9;&#9;&#9;&#9;&#9;c-3.307,3.307-5.165,7.793-5.165,12.471v95.246c0,4.677,1.858,9.163,5.165,12.471l67.335,67.349&#10;&#9;&#9;&#9;&#9;&#9;c3.307,3.307,7.792,5.166,12.468,5.166h95.227c4.677,0,9.161-1.858,12.468-5.166l23.815-23.82"/>
			</g>
			<g>
				<g>
					<g>
						<g>
							
								<path style="fill:none;stroke:#000000;stroke-width:15;stroke-linecap:round;stroke-linejoin:round;stroke-miterlimit:10;" d="&#10;&#9;&#9;&#9;&#9;&#9;&#9;&#9;&#9;M200.362,310.361c1.258-3.586,2.757-7.312,4.52-11.182c1.824-4.004,7.485-3.987,9.287,0.027&#10;&#9;&#9;&#9;&#9;&#9;&#9;&#9;&#9;c2.714,6.046,7.566,11.842,16.073,10.412c17.396-2.925,21.882-44.371,12.428-74.078c-1.386-4.354,3.172-8.202,7.211-6.066&#10;&#9;&#9;&#9;&#9;&#9;&#9;&#9;&#9;c38.393,20.301,67.205,58.605,64.996,103.651c-1.53,31.204-27.609,55.562-58.845,55.562h0&#10;&#9;&#9;&#9;&#9;&#9;&#9;&#9;&#9;C215.476,388.687,186.929,348.636,200.362,310.361z"/>
						</g>
						
							<path style="fill:none;stroke:#000000;stroke-width:15;stroke-linecap:round;stroke-linejoin:round;stroke-miterlimit:10;" d="&#10;&#9;&#9;&#9;&#9;&#9;&#9;&#9;M256.71,388.687h-0.208c-26.801,0-43.376-29.668-28.882-52.216c0.23-0.358,0.466-0.716,0.707-1.076&#10;&#9;&#9;&#9;&#9;&#9;&#9;&#9;c1.013-1.506,3.252-1.45,4.144,0.131c5.122,9.076,17.847,11.369,25.87,3.688c8.544-8.18,9.797-22.325,8.165-34.318&#10;&#9;&#9;&#9;&#9;&#9;&#9;&#9;c-0.337-2.476,2.815-3.81,4.335-1.826c7.877,10.278,20.365,30.158,19.949,52.457&#10;&#9;&#9;&#9;&#9;&#9;&#9;&#9;C290.447,373.99,275.173,388.687,256.71,388.687z"/>
					</g>
				</g>
				
					<line style="fill:none;stroke:#000000;stroke-width:15;stroke-linecap:round;stroke-linejoin:round;stroke-miterlimit:10;" x1="217.177" y1="421.093" x2="294.823" y2="421.093"/>
			</g>
		</g>
	</g>
</g>















</svg>
