<svg id="Capa_1" enable-background="new 0 0 512 512" height="512" viewBox="0 0 512 512" width="512" xmlns="http://www.w3.org/2000/svg"><g><g><path d="m332.052 177.484-15.831-11.307c-12.64-9.028-20.141-23.605-20.141-39.138v-63.426h-80.161v63.426c0 15.533-7.501 30.109-20.141 39.138l-15.831 11.307c-12.64 9.028-20.141 23.605-20.141 39.138v255.813c0 17.708 14.356 32.065 32.065 32.065h128.258c17.709 0 32.065-14.356 32.065-32.065v-255.813c0-15.533-7.502-30.109-20.142-39.138z" fill="#d5eaff"/><path d="m256 480.452c-8.838 0-16.032-7.194-16.032-16.032v-351.381c2.941 4.074 7.68 6.687 12.961 6.687h6.143c7.559 0 14.092-5.281 15.676-12.673l5.873-27.408h15.46c8.854 0 16.032-7.178 16.032-16.032 0-8.855-7.179-16.032-16.032-16.032h-80.161c-8.854 0-16.032 7.178-16.032 16.032s7.178 16.032 16.032 16.032v47.394c0 15.533-7.501 30.109-20.141 39.138l-15.831 11.307c-12.64 9.028-20.141 23.605-20.141 39.138v255.813c0 17.708 14.355 32.065 32.065 32.065h128.258c14.924 0 27.355-10.243 30.931-24.048z" fill="#b8ddff"/><path d="m224.508 47.581 31.492 8.016 31.492-8.016 4.433-20.689c2.139-9.981-5.47-19.392-15.677-19.392h-40.497c-10.207 0-17.815 9.411-15.677 19.392z" fill="#ffd18d"/><path d="m247.984 7.5h-12.233c-10.207 0-17.815 9.411-15.677 19.392l4.434 20.689 23.476 5.976z" fill="#fbbd80"/><path d="m274.466 351.627-8.005-31.049-12.491-112.675-62.099 16.009 43.541 104.671 8.005 31.049 12.492 112.675 62.098-16.009z" fill="#ffe09c"/><path d="m239.968 211.513-48.097 12.399 43.541 104.671 4.556 17.671z" fill="#ffd18d"/><path d="m238.907 324.073h32.064v32.064h-32.064z" fill="#ff8086" transform="matrix(.968 -.25 .25 .968 -76.831 74.409)"/></g><g><path d="m336.412 171.381-15.831-11.308c-4.046-2.89-7.491-6.456-10.236-10.597-2.29-3.453-6.944-4.395-10.396-2.106s-4.395 6.943-2.106 10.396c3.761 5.673 8.478 10.556 14.02 14.514l15.831 11.308c10.645 7.604 17 19.953 17 33.035v255.813c0 13.545-11.02 24.564-24.564 24.564h-128.259c-13.545 0-24.564-11.02-24.564-24.564v-255.813c0-13.082 6.355-25.432 17-33.035l15.831-11.308c14.578-10.413 23.282-27.326 23.282-45.241v-39.894h1.896l4.603 21.479c2.31 10.778 11.987 18.602 23.01 18.602h6.143c11.023 0 20.701-7.823 23.01-18.602l4.603-21.479h1.896v34.696c0 4.142 3.358 7.5 7.5 7.5s7.5-3.358 7.5-7.5v-35.929c9.308-3.139 16.032-11.946 16.032-22.3 0-12.746-10.188-23.15-22.847-23.515l2.493-11.635c1.496-6.982-.22-14.172-4.709-19.725-4.49-5.552-11.16-8.737-18.301-8.737h-40.498c-7.141 0-13.811 3.185-18.3 8.738s-6.206 12.743-4.709 19.725l2.493 11.635c-12.659.365-22.847 10.769-22.847 23.515 0 10.354 6.724 19.16 16.032 22.3v41.127c0 13.082-6.355 25.431-17 33.035l-15.831 11.308c-14.578 10.413-23.282 27.326-23.282 45.241v255.813c0 21.816 17.749 39.564 39.564 39.564h128.258c21.816 0 39.564-17.749 39.564-39.564v-255.814c0-17.916-8.703-34.829-23.281-45.242zm-68.997-65.9c-.837 3.908-4.346 6.744-8.343 6.744h-6.143c-3.997 0-7.506-2.836-8.343-6.744l-3.929-18.336h30.688zm-38.299-87.313c1.628-2.014 4.046-3.168 6.635-3.168h40.498c2.589 0 5.007 1.155 6.635 3.168 1.627 2.013 2.25 4.62 1.708 7.152l-3.163 14.76h-50.857l-3.163-14.76c-.543-2.531.079-5.138 1.707-7.152zm-13.197 36.913h80.161c4.705 0 8.532 3.828 8.532 8.532s-3.828 8.532-8.532 8.532h-80.161c-4.705 0-8.532-3.828-8.532-8.532s3.828-8.532 8.532-8.532z"/><path d="m294.753 308.988c-3.084-2.763-7.826-2.503-10.591.582l-9.934 11.09-.504-1.954c-1.035-4.011-5.126-6.422-9.135-5.391l-24.75 6.381-37.721-90.68 45.351-11.691 7.935 71.566c.457 4.117 4.16 7.084 8.281 6.628 4.117-.456 7.084-4.164 6.627-8.281l-8.887-80.161c-.239-2.161-1.405-4.111-3.194-5.346s-4.027-1.633-6.132-1.09l-62.098 16.009c-2.105.543-3.872 1.973-4.841 3.919s-1.046 4.217-.211 6.224l43.336 104.179 7.739 30.017 12.433 112.146c.239 2.161 1.405 4.111 3.194 5.346 1.265.873 2.753 1.327 4.26 1.327.625 0 1.254-.078 1.872-.237l62.099-16.01c2.105-.543 3.871-1.973 4.841-3.919.969-1.946 1.046-4.217.211-6.224l-43.337-104.178-.371-1.438 14.058 4.905c.818.285 1.651.42 2.471.42 3.101 0 6.002-1.938 7.082-5.031 1.364-3.911-.7-8.188-4.611-9.552l-16.667-5.815 11.778-13.148c2.762-3.087 2.501-7.829-.584-10.593zm-45.946 41.509-4.26-16.523 16.524-4.26 4.26 16.524zm13.603 112.389-10.822-97.615 18.451-4.757 37.722 90.68z"/></g></g></svg>