<svg id="Layer_1" enable-background="new 0 0 512 512" height="512" viewBox="0 0 512 512" width="512" xmlns="http://www.w3.org/2000/svg"><g><path d="m409.957 137.69v306.72h-242.05c-9.91 0-17.95-8.04-17.95-17.97v-59.94l-94-95.5c-18.58-18.6-18.58-48.77 0-67.37 9.29-9.3 21.46-13.95 33.63-13.95 12.18 0 24.35 4.65 33.64 13.95l26.73 26.64v-92.58c0-70.33 55.69-127.64 125.32-130.1 1.56-.06 3.11-.09 4.68-.09 35.9 0 68.4 14.57 91.93 38.13 23.52 23.56 38.07 56.11 38.07 92.06z" fill="#ff485e"/><path d="m371.887 45.63c23.52 23.56 38.07 56.11 38.07 92.06v306.72h-242.05c-9.91 0-17.95-8.04-17.95-17.97v-9.03h214.45c9.69 0 17.55-7.85 17.55-17.55v-264.17c0-35.95-14.55-68.5-38.07-92.06-18.31-18.33-42.06-31.23-68.61-36.04 1.56-.06 3.11-.09 4.68-.09 35.9 0 68.4 14.57 91.93 38.13z" fill="#d82356"/><path d="m409.957 459.42c0 8.2-3.31 15.62-8.66 21-5.35 5.37-12.75 8.69-20.91 8.69h-200.49c-16.33 0-29.57-13.29-29.57-29.69 0-4.14 1.67-7.9 4.38-10.61 2.7-2.72 6.44-4.4 10.57-4.4h229.73c8.25 0 14.95 6.72 14.95 15.01z" fill="#ffe780"/><path d="m409.957 459.42c0 8.2-3.31 15.62-8.66 21-5.35 5.37-12.75 8.69-20.91 8.69h-30c8.16 0 15.56-3.32 20.91-8.69 5.35-5.38 8.66-12.8 8.66-21 0-8.29-6.7-15.01-14.95-15.01h30c8.25 0 14.95 6.72 14.95 15.01z" fill="#ffcc83"/></g><g><path d="m439.975 436.914h-22.518v-249.139c0-4.143-3.357-7.5-7.5-7.5s-7.5 3.357-7.5 7.5v249.139h-176.78c-4.142 0-7.5 3.357-7.5 7.5s3.358 7.5 7.5 7.5h169.327c4.11 0 7.454 3.368 7.454 7.509 0 12.231-9.903 22.183-22.075 22.183h-200.486c-12.172 0-22.074-9.951-22.074-22.183 0-4.141 3.344-7.509 7.454-7.509h25.854c4.142 0 7.5-3.357 7.5-7.5s-3.358-7.5-7.5-7.5h-23.224c-5.762 0-10.45-4.699-10.45-10.476v-59.938c0-1.969-.774-3.858-2.155-5.262l-94.042-95.538c-15.629-15.651-15.629-41.118 0-56.769 7.567-7.579 17.628-11.753 28.329-11.753 10.7 0 20.761 4.174 28.341 11.766l26.732 26.642c2.146 2.139 5.37 2.774 8.17 1.614 2.799-1.162 4.624-3.896 4.624-6.927v-92.588c.001-67.649 54.955-122.685 122.502-122.685s122.5 55.036 122.5 122.686v14.934c0 4.143 3.357 7.5 7.5 7.5s7.5-3.357 7.5-7.5v-14.934c0-75.92-61.683-137.686-137.501-137.686-75.817 0-137.5 61.766-137.5 137.686v74.524l-13.925-13.878c-10.401-10.416-24.232-16.153-38.943-16.153s-28.542 5.737-38.943 16.153c-21.465 21.495-21.465 56.472-.038 77.93l91.849 93.312v56.865c0 6.66 2.569 12.728 6.764 17.272-3.954 4.06-6.398 9.604-6.398 15.713 0 20.503 16.631 37.183 37.074 37.183h200.485c9.32 0 17.842-3.475 24.363-9.19 5.269 14.331 19.057 24.583 35.195 24.583h.035c20.668 0 37.482-16.814 37.482-37.482v-.121c.001-20.668-16.814-37.483-37.482-37.483zm22.483 37.604c0 12.396-10.086 22.482-22.482 22.482h-.035c-12.396 0-22.482-10.086-22.482-22.482v-22.604h22.518c12.396 0 22.482 10.086 22.482 22.482v.122z"/><path d="m212.608 127.144c4.063 0 7.358-3.297 7.358-7.364s-3.294-7.364-7.358-7.364-7.358 3.297-7.358 7.364 3.294 7.364 7.358 7.364z"/><path d="m257.608 127.144c4.063 0 7.358-3.297 7.358-7.364s-3.294-7.364-7.358-7.364-7.358 3.297-7.358 7.364 3.294 7.364 7.358 7.364z"/><path d="m302.618 127.144c4.063 0 7.358-3.297 7.358-7.364s-3.294-7.364-7.358-7.364-7.358 3.297-7.358 7.364 3.294 7.364 7.358 7.364z"/><path d="m347.598 127.144c4.063 0 7.358-3.297 7.358-7.364s-3.294-7.364-7.358-7.364-7.358 3.297-7.358 7.364c.001 4.067 3.295 7.364 7.358 7.364z"/><path d="m212.603 172.28c4.063 0 7.358-3.297 7.358-7.364s-3.294-7.364-7.358-7.364-7.358 3.297-7.358 7.364 3.294 7.364 7.358 7.364z"/><path d="m257.603 172.28c4.063 0 7.358-3.297 7.358-7.364s-3.294-7.364-7.358-7.364-7.358 3.297-7.358 7.364 3.294 7.364 7.358 7.364z"/><path d="m302.613 172.28c4.063 0 7.358-3.297 7.358-7.364s-3.294-7.364-7.358-7.364-7.358 3.297-7.358 7.364 3.294 7.364 7.358 7.364z"/><path d="m347.593 172.28c4.063 0 7.358-3.297 7.358-7.364s-3.294-7.364-7.358-7.364-7.358 3.297-7.358 7.364 3.295 7.364 7.358 7.364z"/><path d="m212.608 202.541c-4.064 0-7.358 3.297-7.358 7.364s3.294 7.364 7.358 7.364c4.063 0 7.358-3.297 7.358-7.364-.001-4.067-3.295-7.364-7.358-7.364z"/><path d="m257.608 202.541c-4.064 0-7.358 3.297-7.358 7.364s3.294 7.364 7.358 7.364c4.063 0 7.358-3.297 7.358-7.364-.001-4.067-3.295-7.364-7.358-7.364z"/><path d="m302.618 202.541c-4.064 0-7.358 3.297-7.358 7.364s3.294 7.364 7.358 7.364c4.063 0 7.358-3.297 7.358-7.364s-3.295-7.364-7.358-7.364z"/><path d="m347.598 202.541c-4.064 0-7.358 3.297-7.358 7.364s3.294 7.364 7.358 7.364c4.063 0 7.358-3.297 7.358-7.364s-3.294-7.364-7.358-7.364z"/><path d="m212.628 247.586c-4.064 0-7.358 3.297-7.358 7.364s3.294 7.364 7.358 7.364c4.063 0 7.358-3.297 7.358-7.364-.001-4.067-3.295-7.364-7.358-7.364z"/><path d="m257.628 247.586c-4.064 0-7.358 3.297-7.358 7.364s3.294 7.364 7.358 7.364c4.063 0 7.358-3.297 7.358-7.364-.001-4.067-3.295-7.364-7.358-7.364z"/><path d="m302.638 247.586c-4.064 0-7.358 3.297-7.358 7.364s3.294 7.364 7.358 7.364c4.063 0 7.358-3.297 7.358-7.364s-3.295-7.364-7.358-7.364z"/><path d="m347.618 247.586c-4.064 0-7.358 3.297-7.358 7.364s3.294 7.364 7.358 7.364c4.063 0 7.358-3.297 7.358-7.364s-3.294-7.364-7.358-7.364z"/><path d="m212.623 307.449c4.063 0 7.358-3.297 7.358-7.364s-3.294-7.364-7.358-7.364-7.358 3.297-7.358 7.364 3.294 7.364 7.358 7.364z"/><path d="m257.623 307.449c4.063 0 7.358-3.297 7.358-7.364s-3.294-7.364-7.358-7.364-7.358 3.297-7.358 7.364 3.294 7.364 7.358 7.364z"/><path d="m302.633 307.449c4.063 0 7.358-3.297 7.358-7.364s-3.294-7.364-7.358-7.364-7.358 3.297-7.358 7.364 3.294 7.364 7.358 7.364z"/><path d="m347.613 307.449c4.063 0 7.358-3.297 7.358-7.364s-3.294-7.364-7.358-7.364-7.358 3.297-7.358 7.364 3.295 7.364 7.358 7.364z"/><path d="m212.628 337.71c-4.064 0-7.358 3.297-7.358 7.364s3.294 7.364 7.358 7.364c4.063 0 7.358-3.297 7.358-7.364-.001-4.067-3.295-7.364-7.358-7.364z"/><path d="m257.628 337.71c-4.064 0-7.358 3.297-7.358 7.364s3.294 7.364 7.358 7.364c4.063 0 7.358-3.297 7.358-7.364-.001-4.067-3.295-7.364-7.358-7.364z"/><path d="m302.638 337.71c-4.064 0-7.358 3.297-7.358 7.364s3.294 7.364 7.358 7.364c4.063 0 7.358-3.297 7.358-7.364s-3.295-7.364-7.358-7.364z"/><path d="m347.618 337.71c-4.064 0-7.358 3.297-7.358 7.364s3.294 7.364 7.358 7.364c4.063 0 7.358-3.297 7.358-7.364s-3.294-7.364-7.358-7.364z"/><path d="m212.605 397.433c4.063 0 7.358-3.297 7.358-7.364s-3.294-7.364-7.358-7.364-7.358 3.297-7.358 7.364 3.294 7.364 7.358 7.364z"/><path d="m257.605 397.433c4.063 0 7.358-3.297 7.358-7.364s-3.294-7.364-7.358-7.364-7.358 3.297-7.358 7.364 3.294 7.364 7.358 7.364z"/><path d="m302.615 397.433c4.063 0 7.358-3.297 7.358-7.364s-3.294-7.364-7.358-7.364-7.358 3.297-7.358 7.364c.001 4.067 3.295 7.364 7.358 7.364z"/><path d="m347.596 397.433c4.063 0 7.358-3.297 7.358-7.364s-3.294-7.364-7.358-7.364-7.358 3.297-7.358 7.364 3.294 7.364 7.358 7.364z"/><path d="m226.725 77.064c0 4.067 3.294 7.364 7.358 7.364 4.063 0 7.358-3.297 7.358-7.364s-3.294-7.364-7.358-7.364c-4.063 0-7.358 3.297-7.358 7.364z"/><path d="m271.736 77.064c0 4.067 3.294 7.364 7.358 7.364 4.063 0 7.358-3.297 7.358-7.364s-3.294-7.364-7.358-7.364-7.358 3.297-7.358 7.364z"/><path d="m316.716 77.064c0 4.067 3.294 7.364 7.358 7.364 4.063 0 7.358-3.297 7.358-7.364s-3.294-7.364-7.358-7.364-7.358 3.297-7.358 7.364z"/></g></svg>