<?xml version="1.0" encoding="iso-8859-1"?>
<!-- Generator: Adobe Illustrator 19.0.0, SVG Export Plug-In . SVG Version: 6.00 Build 0)  -->
<svg xmlns="http://www.w3.org/2000/svg" xmlns:xlink="http://www.w3.org/1999/xlink" version="1.1" id="Capa_1" x="0px" y="0px" viewBox="0 0 512.053 512.053" style="enable-background:new 0 0 512.053 512.053;" xml:space="preserve" width="512" height="512">
<g>
	<g>
		<g>
			<path style="fill:#5D5360;" d="M31.575,35.548c0,43.421,66.36,56.215,116.874,0.362c44.506-49.21,91.545-26.414,91.545,8.322v0     c0,28.585-20.12,56.164-56.99,60.789C120.839,112.819,31.575,90.534,31.575,35.548"/>
			<path style="fill:#CD916E;" d="M464.446,504.553L464.446,504.553c-8.854,0-16.032-7.178-16.032-16.032V31.602     c0-8.854,7.178-16.032,16.032-16.032h0c8.854,0,16.032,7.178,16.032,16.032v456.919     C480.478,497.376,473.3,504.553,464.446,504.553z"/>
			<path style="fill:#4B3F4E;" d="M211.938,30.6c-25.05,8.016-34.613,36.071-65.466,52.105     c-28.955,15.048-62.604,6.188-83.789-7.797c-2.313-1.527-4.195-3.151-5.706-4.485c-0.227-0.201-0.418-0.414-0.641-0.616     c-14.923-5.487-24.762-17.579-24.762-34.257c0,54.985,89.264,77.271,151.43,69.473c35.795-4.49,55.743-30.619,56.88-58.295     C239.292,31.46,224.849,26.468,211.938,30.6z"/>
			<path style="fill:#5D5360;" d="M448.414,35.548c0,43.421-66.36,56.215-116.874,0.362c-44.506-49.21-91.545-26.414-91.545,8.322v0     c0,28.585,20.12,56.164,56.99,60.789C359.15,112.819,448.414,90.534,448.414,35.548"/>
			<path style="fill:#4B3F4E;" d="M268.051,30.6c25.05,8.016,34.613,36.071,65.466,52.105c28.955,15.048,62.604,6.188,83.789-7.797     c2.313-1.527,4.195-3.151,5.706-4.485c0.227-0.201,0.418-0.414,0.641-0.616c14.923-5.487,24.762-17.579,24.762-34.257     c0,54.985-89.264,77.271-151.43,69.473c-35.795-4.49-55.743-30.619-56.88-58.295C240.697,31.46,255.14,26.468,268.051,30.6z"/>
		</g>
	</g>
	<path d="M464.446,8.07c-12.976,0-23.532,10.557-23.532,23.532v3.947c0,12.68-6.832,22.295-19.237,27.072   c-20.623,7.942-54.773,1.209-84.574-31.741C313.165,4.413,284.624-5.899,260.748,3.296c-8.696,3.349-15.828,9.128-20.753,16.388   c-4.925-7.259-12.058-13.039-20.753-16.388c-23.875-9.194-52.417,1.117-76.354,27.584c-29.802,32.95-63.952,39.684-84.574,31.741   c-12.405-4.777-19.237-14.392-19.237-27.072c0-10.23,8.322-18.553,18.552-18.553S76.18,25.318,76.18,35.549   c0,4.142,3.358,7.5,7.5,7.5s7.5-3.358,7.5-7.5c0-18.501-15.052-33.553-33.553-33.553S24.075,17.048,24.075,35.549   c0,0.013,0,0.024,0,0.036c0.011,17.021,7.277,32.058,21.597,44.694c26.377,23.275,72.439,33.718,112.57,33.718   c8.955,0,17.616-0.52,25.696-1.534c25.489-3.197,45.732-17.24,56.056-37.079c10.324,19.839,30.567,33.882,56.056,37.079   c8.083,1.014,16.737,1.534,25.696,1.534c40.129,0,86.195-10.445,112.57-33.718c2.404-2.122,4.592-4.316,6.597-6.571v414.814   c0,12.976,10.557,23.532,23.532,23.532s23.532-10.557,23.532-23.532V31.602C487.978,18.626,477.422,8.07,464.446,8.07z    M232.303,48.594c-0.913,11.149-5.31,21.7-12.628,30.087c-9.091,10.418-22.094,16.954-37.604,18.899   c-19.663,2.466-41.52,1.792-62.286-1.853c5.188-0.747,10.38-1.909,15.547-3.521c3.657-1.14,6.079-4.813,5.373-8.579   c-0.845-4.51-5.387-7.141-9.63-5.806c-14.321,4.505-28.888,5.03-42.891,1.748c4.405-0.706,8.865-1.757,13.33-3.192   c18.859-6.062,37.013-18.316,52.498-35.437c19.612-21.685,41.98-30.525,59.838-23.647c3.165,1.219,5.985,2.897,8.431,4.924   c-17.434-0.695-33.969,13.951-42.778,23.42c-5.918,6.362-12.192,11.998-18.651,16.756c-3.343,2.462-4.262,7.374-1.773,10.697   c1.471,1.964,3.724,3.003,6.008,3.003c1.54,0,3.093-0.473,4.429-1.452c7.292-5.348,14.347-11.669,20.97-18.788   c12.643-13.591,25.36-20.416,34.025-18.257c0.276,0.069,0.542,0.145,0.8,0.229C229.838,39.295,232.691,43.851,232.303,48.594z    M367.182,94.392c-22.786,4.8-47.385,5.932-69.265,3.188c-15.51-1.945-28.513-8.48-37.604-18.899   c-7.318-8.387-11.715-18.938-12.628-30.087c-0.388-4.743,2.465-9.298,6.991-10.767c0.258-0.084,0.525-0.16,0.8-0.229   c8.663-2.16,21.382,4.665,34.026,18.257c6.623,7.119,13.678,13.44,20.97,18.788c1.336,0.979,2.89,1.452,4.429,1.452   c2.284,0,4.537-1.04,6.008-3.003c2.489-3.323,1.569-8.235-1.773-10.697c-6.459-4.758-12.732-10.395-18.651-16.756   c-8.809-9.469-25.344-24.114-42.778-23.419c2.447-2.027,5.267-3.706,8.432-4.924c3.989-1.537,8.2-2.288,12.559-2.288   c15.152,0,32.049,9.095,47.28,25.936c15.485,17.121,33.638,29.375,52.498,35.437c9.842,3.163,19.672,4.554,28.9,4.171   C396.202,86.445,382.624,91.139,367.182,94.392z M472.978,488.521c0,4.705-3.828,8.532-8.532,8.532s-8.532-3.828-8.532-8.532   V31.602c0-4.705,3.828-8.532,8.532-8.532s8.532,3.828,8.532,8.532V488.521z"/>
</g>















</svg>
