<svg version="1.1" id="Capa_1" xmlns="http://www.w3.org/2000/svg" xmlns:xlink="http://www.w3.org/1999/xlink" x="0px" y="0px" viewBox="0 0 512 512" style="enable-background:new 0 0 512 512;" xml:space="preserve">
<g>
	<g>
		<path style="fill:#916E7D;" d="M112.372,504.5H69.248c-13.096,0-23.712-10.616-23.712-23.712V31.212&#10;&#9;&#9;&#9;C45.536,18.116,56.152,7.5,69.248,7.5h43.124V504.5z"/>
		<path style="fill:#7A5D6A;" d="M45.536,450.788v30c0,13.096,10.616,23.712,23.712,23.712h43.124v-30H69.248&#10;&#9;&#9;&#9;C56.152,474.5,45.536,463.884,45.536,450.788z"/>
		<path style="fill:#C6B2BC;" d="M112.372,504.5h204.511l25.035-10l31.661,10h34.821c10.455,0,18.93-8.475,18.93-18.93V26.43&#10;&#9;&#9;&#9;c0-10.455-8.475-18.93-18.93-18.93H112.372V504.5z"/>
		<path style="fill:#BE9FAD;" d="M408.399,7.5h-11.07v448.07c0,10.455-8.475,18.93-18.93,18.93H112.372v30h296.028&#10;&#9;&#9;&#9;c10.455,0,18.93-8.475,18.93-18.93V26.43C427.329,15.975,418.854,7.5,408.399,7.5z"/>
		<path style="fill:#00E894;" d="M447.17,151.284h-19.841V39.454h19.841c10.656,0,19.294,8.638,19.294,19.294v73.243&#10;&#9;&#9;&#9;C466.464,142.646,457.826,151.284,447.17,151.284z"/>
		<path style="fill:#00ABFF;" d="M447.17,219.182h-19.841v-111.83h19.841c10.656,0,19.294,8.638,19.294,19.294v73.243&#10;&#9;&#9;&#9;C466.464,210.544,457.826,219.182,447.17,219.182z"/>
		<path style="fill:#FF6472;" d="M447.17,299.574h-19.841v-111.83h19.841c10.656,0,19.294,8.638,19.294,19.294v73.243&#10;&#9;&#9;&#9;C466.464,290.936,457.826,299.574,447.17,299.574z"/>
		<path style="fill:#FFD42B;" d="M447.17,387.091h-19.841v-111.83h19.841c10.656,0,19.294,8.638,19.294,19.294v73.243&#10;&#9;&#9;&#9;C466.464,378.453,457.826,387.091,447.17,387.091z"/>
		<path style="fill:#FFD5A1;" d="M447.17,472.546h-19.841v-111.83h19.841c10.656,0,19.294,8.638,19.294,19.294v73.243&#10;&#9;&#9;&#9;C466.464,463.908,457.826,472.546,447.17,472.546z"/>
		<path style="fill:#7A5D6A;" d="M423.546,285.133h-73.387c-14.715,0-26.644-11.929-26.644-26.644v-4.977&#10;&#9;&#9;&#9;c0-14.715,11.929-26.644,26.644-26.644h73.387c6.067,0,10.986,4.919,10.986,10.986v36.293&#10;&#9;&#9;&#9;C434.532,280.214,429.613,285.133,423.546,285.133z"/>
		<path style="fill:#F9F1F4;" d="M320.448,143.267H179.253c-6.572,0-11.9-5.328-11.9-11.9V87.269c0-6.572,5.328-11.9,11.9-11.9&#10;&#9;&#9;&#9;h141.195c6.572,0,11.9,5.328,11.9,11.9v44.099C332.348,137.939,327.02,143.267,320.448,143.267z"/>
	</g>
	<g>
		<path style="fill:none;stroke:#000000;stroke-width:15;stroke-linecap:round;stroke-linejoin:round;stroke-miterlimit:10;" d="&#10;&#9;&#9;&#9;M45.536,101.823V31.212C45.536,18.116,56.152,7.5,69.248,7.5h43.124v497H69.248c-13.096,0-23.712-10.616-23.712-23.712V137.823"/>
		<path style="fill:none;stroke:#000000;stroke-width:15;stroke-linecap:round;stroke-linejoin:round;stroke-miterlimit:10;" d="&#10;&#9;&#9;&#9;M432.096,39.454h15.074c10.656,0,19.294,8.638,19.294,19.294v73.243"/>
		<path style="fill:none;stroke:#000000;stroke-width:15;stroke-linecap:round;stroke-linejoin:round;stroke-miterlimit:10;" d="&#10;&#9;&#9;&#9;M427.329,187.744v-80.392h19.841c10.656,0,19.294,8.638,19.294,19.294v80.392"/>
		<path style="fill:none;stroke:#000000;stroke-width:15;stroke-linecap:round;stroke-linejoin:round;stroke-miterlimit:10;" d="&#10;&#9;&#9;&#9;M427.329,187.744h19.841c10.656,0,19.294,8.638,19.294,19.294v88.383"/>
		<path style="fill:none;stroke:#000000;stroke-width:15;stroke-linecap:round;stroke-linejoin:round;stroke-miterlimit:10;" d="&#10;&#9;&#9;&#9;M447.17,472.546h-19.841v-111.83h19.841c10.656,0,19.294,8.638,19.294,19.294v73.243&#10;&#9;&#9;&#9;C466.464,463.908,457.826,472.546,447.17,472.546z"/>
		<path style="fill:none;stroke:#000000;stroke-width:15;stroke-linecap:round;stroke-linejoin:round;stroke-miterlimit:10;" d="&#10;&#9;&#9;&#9;M361.515,504.5h46.884c10.455,0,18.93-8.475,18.93-18.93V287.533"/>
		<path style="fill:none;stroke:#000000;stroke-width:15;stroke-linecap:round;stroke-linejoin:round;stroke-miterlimit:10;" d="&#10;&#9;&#9;&#9;M427.329,224.701V26.43c0-10.455-8.475-18.93-18.93-18.93H112.372v497h211.143"/>
		<path style="fill:none;stroke:#000000;stroke-width:15;stroke-linecap:round;stroke-linejoin:round;stroke-miterlimit:10;" d="&#10;&#9;&#9;&#9;M423.546,285.133h-73.387c-14.715,0-26.644-11.929-26.644-26.644v-4.977c0-14.715,11.929-26.644,26.644-26.644h73.387&#10;&#9;&#9;&#9;c6.067,0,10.986,4.919,10.986,10.986v36.293C434.532,280.214,429.613,285.133,423.546,285.133z"/>
		<path style="fill:none;stroke:#000000;stroke-width:15;stroke-linecap:round;stroke-linejoin:round;stroke-miterlimit:10;" d="&#10;&#9;&#9;&#9;M320.448,143.267H179.253c-6.572,0-11.9-5.328-11.9-11.9V87.269c0-6.572,5.328-11.9,11.9-11.9h141.195&#10;&#9;&#9;&#9;c6.572,0,11.9,5.328,11.9,11.9v44.099C332.348,137.939,327.02,143.267,320.448,143.267z"/>
		
			<line style="fill:none;stroke:#000000;stroke-width:15;stroke-linecap:round;stroke-linejoin:round;stroke-miterlimit:10;" x1="167.353" y1="181.064" x2="323.515" y2="181.064"/>
		
			<line style="fill:none;stroke:#000000;stroke-width:15;stroke-linecap:round;stroke-linejoin:round;stroke-miterlimit:10;" x1="167.353" y1="442.546" x2="323.515" y2="442.546"/>
		
			<line style="fill:none;stroke:#000000;stroke-width:15;stroke-linecap:round;stroke-linejoin:round;stroke-miterlimit:10;" x1="167.353" y1="405.022" x2="263.677" y2="405.022"/>
		
			<line style="fill:none;stroke:#000000;stroke-width:15;stroke-linecap:round;stroke-linejoin:round;stroke-miterlimit:10;" x1="167.353" y1="218.861" x2="281.474" y2="218.861"/>
		<path style="fill:none;stroke:#000000;stroke-width:15;stroke-linecap:round;stroke-linejoin:round;stroke-miterlimit:10;" d="&#10;&#9;&#9;&#9;M436.726,275.261h10.444c10.656,0,19.294,8.638,19.294,19.294v89.072"/>
	</g>
</g>
<g>
</g>
<g>
</g>
<g>
</g>
<g>
</g>
<g>
</g>
<g>
</g>
<g>
</g>
<g>
</g>
<g>
</g>
<g>
</g>
<g>
</g>
<g>
</g>
<g>
</g>
<g>
</g>
<g>
</g>
</svg>