<?xml version="1.0" encoding="UTF-8"?>
<svg xmlns="http://www.w3.org/2000/svg" xmlns:xlink="http://www.w3.org/1999/xlink" version="1.1" id="Capa_1" x="0px" y="0px" viewBox="0 0 512 512" style="enable-background:new 0 0 512 512;" xml:space="preserve" width="512" height="512">
<g>
	<g>
		<path style="fill:#FD8087;" d="M12.821,17.5v477c0,5.523,4.477,10,10,10h340c5.523,0,10-4.477,10-10v-477c0-5.523-4.477-10-10-10&#10;&#9;&#9;&#9;h-340C17.298,7.5,12.821,11.977,12.821,17.5z"/>
		<path style="fill:#FE646F;" d="M362.821,7.5h-27c5.523,0,10,4.477,10,10v477c0,5.523-4.477,10-10,10h27c5.523,0,10-4.477,10-10&#10;&#9;&#9;&#9;v-477C372.821,11.977,368.344,7.5,362.821,7.5z"/>
		<path style="fill:#FEF1DA;" d="M362.821,7.5h-340c-5.523,0-10,4.477-10,10v195.507c29.575-37.108,75.154-60.896,126.295-60.896&#10;&#9;&#9;&#9;h233.705V17.5C372.821,11.977,368.344,7.5,362.821,7.5z"/>
		<path style="fill:#FAE2C0;" d="M345.821,17.5v134.611h27V17.5c0-5.523-4.477-10-10-10h-27&#10;&#9;&#9;&#9;C341.344,7.5,345.821,11.977,345.821,17.5z"/>
		<path style="fill:#FEE97D;" d="M283.276,367.393c1.626,1.626,1.599,4.289-0.088,5.851c-42.23,39.1-108.402,38.13-149.444-2.912&#10;&#9;&#9;&#9;s-42.012-107.213-2.912-149.444c1.562-1.687,4.225-1.714,5.851-0.088l35.704,35.704c1.51,1.51,1.588,3.923,0.197,5.543&#10;&#9;&#9;&#9;c-16.588,19.327-15.731,48.57,2.572,66.873c18.303,18.303,47.546,19.16,66.873,2.572c1.621-1.391,4.033-1.313,5.543,0.197&#10;&#9;&#9;&#9;L283.276,367.393z"/>
		<path style="fill:#97DA7B;" d="M420.508,180.333v151.333c0,3.314,2.686,6,6,6h50.363c3.314,0,6-2.686,6-6V180.333&#10;&#9;&#9;&#9;c0-3.314-2.686-6-6-6h-50.363C423.194,174.333,420.508,177.02,420.508,180.333z"/>
		<path style="fill:#68CA44;" d="M476.871,174.333h-24.269c3.314,0,6,2.686,6,6v151.333c0,3.314-2.686,6-6,6h24.269&#10;&#9;&#9;&#9;c3.313,0,6-2.686,6-6V180.333C482.871,177.02,480.184,174.333,476.871,174.333z"/>
	</g>
	<g>
		<g>
			
				<line style="fill:none;stroke:#000000;stroke-width:15;stroke-linecap:round;stroke-linejoin:round;stroke-miterlimit:10;" x1="432.739" y1="174.33" x2="404.199" y2="25.75"/>
			
				<line style="fill:none;stroke:#000000;stroke-width:15;stroke-linecap:round;stroke-linejoin:round;stroke-miterlimit:10;" x1="445.059" y1="174.33" x2="435.729" y2="18.44"/>
			
				<line style="fill:none;stroke:#000000;stroke-width:15;stroke-linecap:round;stroke-linejoin:round;stroke-miterlimit:10;" x1="467.709" y1="18.7" x2="457.029" y2="174.33"/>
			
				<line style="fill:none;stroke:#000000;stroke-width:15;stroke-linecap:round;stroke-linejoin:round;stroke-miterlimit:10;" x1="499.179" y1="26.52" x2="469.409" y2="174.33"/>
		</g>
		<g>
			
				<line style="fill:none;stroke:#000000;stroke-width:15;stroke-linecap:round;stroke-linejoin:round;stroke-miterlimit:10;" x1="432.739" y1="337.67" x2="404.199" y2="486.25"/>
			
				<line style="fill:none;stroke:#000000;stroke-width:15;stroke-linecap:round;stroke-linejoin:round;stroke-miterlimit:10;" x1="445.059" y1="337.67" x2="435.729" y2="493.56"/>
			
				<line style="fill:none;stroke:#000000;stroke-width:15;stroke-linecap:round;stroke-linejoin:round;stroke-miterlimit:10;" x1="467.709" y1="493.3" x2="457.029" y2="337.67"/>
			
				<line style="fill:none;stroke:#000000;stroke-width:15;stroke-linecap:round;stroke-linejoin:round;stroke-miterlimit:10;" x1="499.179" y1="485.48" x2="469.409" y2="337.67"/>
		</g>
		<path style="fill:none;stroke:#000000;stroke-width:15;stroke-linecap:round;stroke-linejoin:round;stroke-miterlimit:10;" d="&#10;&#9;&#9;&#9;M12.821,102.775V494.5c0,5.523,4.477,10,10,10h340c5.523,0,10-4.477,10-10v-63.063"/>
		<path style="fill:none;stroke:#000000;stroke-width:15;stroke-linecap:round;stroke-linejoin:round;stroke-miterlimit:10;" d="&#10;&#9;&#9;&#9;M372.821,396.437V17.5c0-5.523-4.477-10-10-10h-340c-5.523,0-10,4.477-10,10v50.275"/>
		<path style="fill:none;stroke:#000000;stroke-width:15;stroke-linecap:round;stroke-linejoin:round;stroke-miterlimit:10;" d="&#10;&#9;&#9;&#9;M12.821,213.007c29.575-37.108,75.154-60.896,126.295-60.896h233.705"/>
		<g>
			<g>
				<path style="fill:none;stroke:#000000;stroke-width:15;stroke-linecap:round;stroke-linejoin:round;stroke-miterlimit:10;" d="&#10;&#9;&#9;&#9;&#9;&#9;M105.52,112.972l22.196-58.279c0.454-1.109,2.023-1.11,2.479-0.003l21.994,58.281"/>
				
					<line style="fill:none;stroke:#000000;stroke-width:15;stroke-linecap:round;stroke-linejoin:round;stroke-miterlimit:10;" x1="112.443" y1="98.457" x2="145.379" y2="98.457"/>
			</g>
			<g>
				<path style="fill:none;stroke:#000000;stroke-width:15;stroke-linecap:round;stroke-linejoin:round;stroke-miterlimit:10;" d="&#10;&#9;&#9;&#9;&#9;&#9;M280.978,112.972l22.196-58.279c0.454-1.109,2.023-1.11,2.479-0.003l21.994,58.281"/>
				
					<line style="fill:none;stroke:#000000;stroke-width:15;stroke-linecap:round;stroke-linejoin:round;stroke-miterlimit:10;" x1="287.9" y1="98.457" x2="320.837" y2="98.457"/>
			</g>
			<path style="fill:none;stroke:#000000;stroke-width:15;stroke-linecap:round;stroke-linejoin:round;stroke-miterlimit:10;" d="&#10;&#9;&#9;&#9;&#9;M211.58,59.937c0,0-10.607-8.916-23.115-5.148c-11.485,3.46-13.091,16.703-4.782,22.12c0,0,8.153,3.637,17.197,6.973&#10;&#9;&#9;&#9;&#9;c21.769,8.03,12.392,29.09-5.133,29.09c-8.776,0-16.141-3.843-20.599-8.762"/>
			<g>
				
					<line style="fill:none;stroke:#000000;stroke-width:15;stroke-linecap:round;stroke-linejoin:round;stroke-miterlimit:10;" x1="236.075" y1="53.86" x2="268.719" y2="53.86"/>
				
					<line style="fill:none;stroke:#000000;stroke-width:15;stroke-linecap:round;stroke-linejoin:round;stroke-miterlimit:10;" x1="252.331" y1="55.748" x2="252.331" y2="112.972"/>
			</g>
			<g>
				
					<line style="fill:none;stroke:#000000;stroke-width:15;stroke-linecap:round;stroke-linejoin:round;stroke-miterlimit:10;" x1="58.051" y1="53.86" x2="58.051" y2="112.972"/>
				<path style="fill:none;stroke:#000000;stroke-width:15;stroke-linecap:round;stroke-linejoin:round;stroke-miterlimit:10;" d="&#10;&#9;&#9;&#9;&#9;&#9;M91.461,70.542c0,9.213-7.795,16.681-17.008,16.681c-4.569,0-16.402,0.074-16.402,0.074V53.86c0,0,11.003,0,16.402,0&#10;&#9;&#9;&#9;&#9;&#9;C83.666,53.86,91.461,61.329,91.461,70.542z"/>
			</g>
		</g>
		<path style="fill:none;stroke:#000000;stroke-width:15;stroke-linecap:round;stroke-linejoin:round;stroke-miterlimit:10;" d="&#10;&#9;&#9;&#9;M283.276,367.393c1.626,1.626,1.599,4.289-0.088,5.851c-42.23,39.1-108.402,38.13-149.444-2.912s-42.012-107.213-2.912-149.444&#10;&#9;&#9;&#9;c1.562-1.687,4.225-1.714,5.851-0.088l35.704,35.704c1.51,1.51,1.588,3.923,0.197,5.543c-16.588,19.327-15.731,48.57,2.572,66.873&#10;&#9;&#9;&#9;c18.303,18.303,47.546,19.16,66.873,2.572c1.621-1.391,4.033-1.313,5.543,0.197L283.276,367.393z"/>
		<path style="fill:none;stroke:#000000;stroke-width:15;stroke-linecap:round;stroke-linejoin:round;stroke-miterlimit:10;" d="&#10;&#9;&#9;&#9;M265.509,349.626c-30.668,30.668-80.391,30.668-111.059,0s-30.668-80.391,0-111.059"/>
		<path style="fill:none;stroke:#000000;stroke-width:15;stroke-linecap:round;stroke-linejoin:round;stroke-miterlimit:10;" d="&#10;&#9;&#9;&#9;M420.508,180.333v151.333c0,3.314,2.686,6,6,6h50.363c3.314,0,6-2.686,6-6V180.333c0-3.314-2.686-6-6-6h-50.363&#10;&#9;&#9;&#9;C423.194,174.333,420.508,177.02,420.508,180.333z"/>
	</g>
</g>















</svg>
