<?xml version="1.0" encoding="UTF-8" standalone="no"?>
<!-- Created with Inkscape (http://www.inkscape.org/) -->

<svg
   version="1.1"
   id="svg5328"
   xml:space="preserve"
   width="682.66669"
   height="682.66669"
   viewBox="0 0 682.66669 682.66669"
   xmlns="http://www.w3.org/2000/svg"
   xmlns:svg="http://www.w3.org/2000/svg"><defs
     id="defs5332"><clipPath
       clipPathUnits="userSpaceOnUse"
       id="clipPath5342"><path
         d="M 0,512 H 512 V 0 H 0 Z"
         id="path5340" /></clipPath></defs><g
     id="g5334"
     transform="matrix(1.3333333,0,0,-1.3333333,0,682.66667)"><g
       id="g5336"><g
         id="g5338"
         clip-path="url(#clipPath5342)"><g
           id="g5344"
           transform="translate(11.8906,11.8906)"><path
             d="M 0,0 C 4.413,-4.413 10.891,-5.498 16.323,-3.262 L 52.149,11.49 53.033,53.033 Z"
             style="fill:#16202d;fill-opacity:1;fill-rule:nonzero;stroke:none"
             id="path5346" /></g><g
           id="g5348"
           transform="translate(23.3813,64.04)"><path
             d="m 0,0 -14.752,-35.826 c -2.237,-5.433 -1.151,-11.91 3.261,-16.323 l 66.292,39.775 z"
             style="fill:#2d3e53;fill-opacity:1;fill-rule:nonzero;stroke:none"
             id="path5350" /></g><g
           id="g5352"
           transform="translate(139.1694,54.3174)"><path
             d="m 0,0 0.884,69.827 -88.388,-88.389 12.375,-12.375 z"
             style="fill:#ffd19c;fill-opacity:1;fill-rule:nonzero;stroke:none"
             id="path5354" /></g><g
           id="g5356"
           transform="translate(54.3169,139.1699)"><path
             d="m 0,0 -30.936,-75.13 28.285,-28.284 92.807,55.685 z"
             style="fill:#fff0be;fill-opacity:1;fill-rule:nonzero;stroke:none"
             id="path5358" /></g><g
           id="g5360"
           transform="translate(495.7129,453.2871)"><path
             d="M 0,0 -21.213,21.213 -157.331,-125.512 -42.426,-84.853 0,-42.427 C 11.716,-30.711 11.716,-11.716 0,0"
             style="fill:#ff3187;fill-opacity:1;fill-rule:nonzero;stroke:none"
             id="path5362" /></g><g
           id="g5364"
           transform="translate(474.5,474.5)"><path
             d="M 0,0 -21.213,21.213 C -32.929,32.929 -51.924,32.929 -63.64,21.214 L -106.066,-21.213 -120.208,-162.635 0,-42.426 C 11.716,-30.711 11.716,-11.716 0,0"
             style="fill:#ff5178;fill-opacity:1;fill-rule:nonzero;stroke:none"
             id="path5366" /></g><g
           id="g5368"
           transform="translate(304.7944,368.4346)"><path
             d="M 0,0 116.672,-31.82 148.492,0 127.279,21.213 Z"
             style="fill:#dff5ff;fill-opacity:1;fill-rule:nonzero;stroke:none"
             id="path5370" /></g><g
           id="g5372"
           transform="translate(432.0732,389.6475)"><path
             d="M 0,0 -63.639,63.64 -95.459,31.819 -74.246,-74.246 Z"
             style="fill:#ffffff;fill-opacity:1;fill-rule:nonzero;stroke:none"
             id="path5374" /></g><g
           id="g5376"
           transform="translate(117.9565,75.5303)"><path
             d="M 0,0 21.213,-21.213 303.51,261.084 282.297,282.297 89.486,192.813 Z"
             style="fill:#ffb24a;fill-opacity:1;fill-rule:nonzero;stroke:none"
             id="path5378" /></g><g
           id="g5380"
           transform="translate(117.9565,75.5303)"><path
             d="M 0,0 282.297,282.297 218.658,345.937 -63.64,63.64 Z"
             style="fill:#ffd23b;fill-opacity:1;fill-rule:nonzero;stroke:none"
             id="path5382" /></g><g
           id="g5384"
           transform="translate(453.2866,368.4336)"><path
             d="M 0,0 -84.853,84.854"
             style="fill:none;stroke:#000000;stroke-width:15;stroke-linecap:round;stroke-linejoin:round;stroke-miterlimit:10;stroke-dasharray:none;stroke-opacity:1"
             id="path5386" /></g><g
           id="g5388"
           transform="translate(248.5,248.5)"><path
             d="M 0,0 130.541,130.541"
             style="fill:none;stroke:#000000;stroke-width:15;stroke-linecap:round;stroke-linejoin:round;stroke-miterlimit:10;stroke-dasharray:none;stroke-opacity:1"
             id="path5390" /></g><g
           id="g5392"
           transform="translate(96.7432,96.7432)"><path
             d="M 0,0 130.543,130.544"
             style="fill:none;stroke:#000000;stroke-width:15;stroke-linecap:round;stroke-linejoin:round;stroke-miterlimit:10;stroke-dasharray:none;stroke-opacity:1"
             id="path5394" /></g><g
           id="g5396"
           transform="translate(421.4668,336.6143)"><path
             d="M 0,0 -84.853,84.853"
             style="fill:none;stroke:#000000;stroke-width:15;stroke-linecap:round;stroke-linejoin:round;stroke-miterlimit:10;stroke-dasharray:none;stroke-opacity:1"
             id="path5398" /></g><g
           id="g5400"
           transform="translate(139.1699,54.3174)"><path
             d="M 0,0 -84.853,84.853"
             style="fill:none;stroke:#000000;stroke-width:15;stroke-linecap:round;stroke-linejoin:round;stroke-miterlimit:10;stroke-dasharray:none;stroke-opacity:1"
             id="path5402" /></g><g
           id="g5404"
           transform="translate(495.7134,453.2871)"><path
             d="m 0,0 -42.427,42.426 c -11.715,11.716 -30.71,11.716 -42.426,0 l -356.543,-356.543 -45.688,-110.957 c -2.237,-5.432 -1.151,-11.909 3.261,-16.322 4.413,-4.414 10.891,-5.499 16.323,-3.262 L -356.544,-398.97 0,-42.427 C 11.715,-30.711 11.715,-11.716 0,0 Z"
             style="fill:none;stroke:#000000;stroke-width:15;stroke-linecap:round;stroke-linejoin:round;stroke-miterlimit:10;stroke-dasharray:none;stroke-opacity:1"
             id="path5406" /></g><g
           id="g5408"
           transform="translate(23.3813,64.04)"><path
             d="M 0,0 40.659,-40.659"
             style="fill:none;stroke:#000000;stroke-width:15;stroke-linecap:round;stroke-linejoin:round;stroke-miterlimit:10;stroke-dasharray:none;stroke-opacity:1"
             id="path5410" /></g></g></g></g></svg>
