<?xml version="1.0" encoding="UTF-8" standalone="no"?>
<!-- Created with Inkscape (http://www.inkscape.org/) -->

<svg
   version="1.1"
   id="svg2580"
   xml:space="preserve"
   width="682.66669"
   height="682.66669"
   viewBox="0 0 682.66669 682.66669"
   xmlns="http://www.w3.org/2000/svg"
   xmlns:svg="http://www.w3.org/2000/svg"><defs
     id="defs2584"><clipPath
       clipPathUnits="userSpaceOnUse"
       id="clipPath2594"><path
         d="M 0,512 H 512 V 0 H 0 Z"
         id="path2592" /></clipPath></defs><g
     id="g2586"
     transform="matrix(1.3333333,0,0,-1.3333333,0,682.66667)"><g
       id="g2588"><g
         id="g2590"
         clip-path="url(#clipPath2594)"><g
           id="g2596"
           transform="translate(273.1098,347.9053)"><path
             d="m 0,0 h -19.998 v -332.333 l 10.54,-8.03 c 7.309,0.448 13.103,6.5 13.103,13.921 V -3.333 Z"
             style="fill:#e39b74;fill-opacity:1;fill-rule:nonzero;stroke:none"
             id="path2598" /></g><g
           id="g2600"
           transform="translate(257.7202,21.4634)"><path
             d="m 0,0 v 323.108 l 3.14,3.334 h -28.25 l -3.14,-3.334 V 0 c 0,-7.712 6.252,-13.964 13.965,-13.964 H 5.069 c 1.557,0 3.05,0.265 4.448,0.735 C 3.988,-11.37 0,-6.155 0,0"
             style="fill:#dd8858;fill-opacity:1;fill-rule:nonzero;stroke:none"
             id="path2602" /></g><g
           id="g2604"
           transform="translate(267.2373,503.7652)"><path
             d="m 0,0 v 0 h -9.183 l -4.942,-11.443 V -41.068 H 3.331 l 6.186,5.541 v 22.298 C 9.517,-7.073 5.529,-1.859 0,0"
             style="fill:#7b6c79;fill-opacity:1;fill-rule:nonzero;stroke:none"
             id="path2606" /></g><g
           id="g2608"
           transform="translate(257.7202,490.5367)"><path
             d="m 0,0 c 0,6.155 3.988,11.37 9.517,13.229 -1.398,0.47 -2.891,0.735 -4.448,0.735 H -14.285 C -21.998,13.964 -28.25,7.712 -28.25,0 v -22.298 l 7.098,-5.542 H 7.098 L 0,-22.298 Z"
             style="fill:#665e68;fill-opacity:1;fill-rule:nonzero;stroke:none"
             id="path2610" /></g><g
           id="g2612"
           transform="translate(271.9433,390.9053)"><path
             d="M 0,0 H -18.831 V -46.333 H 4.811 V -4 Z"
             style="fill:#7b6c79;fill-opacity:1;fill-rule:nonzero;stroke:none"
             id="path2614" /></g><g
           id="g2616"
           transform="translate(263.5268,390.9053)"><path
             d="m 0,0 h -28.25 l -5.807,-4 v -42.333 h 28.25 V -4 Z"
             style="fill:#665e68;fill-opacity:1;fill-rule:nonzero;stroke:none"
             id="path2618" /></g><g
           id="g2620"
           transform="translate(392.9433,398.7754)"><path
             d="m 0,0 c 1,-0.87 65,-24.537 65,-24.537 l 8.999,2.244 C 29.901,18.957 -30.796,47.216 -99.165,54.903 l -3.585,-1.482 V 18.612 C -74.755,13.709 -0.811,0.706 0,0"
             style="fill:#b5dcff;fill-opacity:1;fill-rule:nonzero;stroke:none"
             id="path2622" /></g><g
           id="g2624"
           transform="translate(50.9433,374.2383)"><path
             d="m 0,0 80.333,29.333 84.917,13.549 v 31.951 l -3.748,3.908 C 95.506,70.147 36.996,42.331 -5.853,2.257 Z"
             style="fill:#b5dcff;fill-opacity:1;fill-rule:nonzero;stroke:none"
             id="path2626" /></g><g
           id="g2628"
           transform="translate(466.9419,376.4825)"><path
             d="m 0,0 c -51.797,25.316 -110.517,41.595 -173.163,46.296 l -3.586,3.585 V 26.714 l 3.586,-3.585 c 69,-5.178 133.238,-24.398 188.707,-54.273 5.068,-2.729 10.923,2.388 7.5,6.568 C 15.99,-15.958 8.286,-7.751 0,0"
             style="fill:#8bcaff;fill-opacity:1;fill-rule:nonzero;stroke:none"
             id="path2630" /></g><g
           id="g2632"
           transform="translate(45.0903,376.4951)"><path
             d="m 0,0 c -8.293,-7.756 -16.009,-15.964 -23.069,-24.588 -3.422,-4.181 2.433,-9.298 7.5,-6.569 53.916,29.038 116.119,48.003 182.924,53.798 l 3.748,2.811 v 23.166 l -3.748,-2.81 C 106.889,40.563 50.194,24.527 0,0"
             style="fill:#8bcaff;fill-opacity:1;fill-rule:nonzero;stroke:none"
             id="path2634" /></g><g
           id="g2636"
           transform="translate(281.7788,468.2383)"><path
             d="m 0,0 h -30.39 c -0.579,-0.408 -0.945,-0.667 -0.945,-0.667 l -6,-6.5 v -66 l 2.055,-4.166 5.617,-4 H 0 c 6.6,0 12,5.4 12,12 V -12 C 12,-5.4 6.6,0 0,0"
             style="fill:#dbedff;fill-opacity:1;fill-rule:nonzero;stroke:none"
             id="path2638" /></g><g
           id="g2640"
           transform="translate(246.0542,398.9053)"><path
             d="m 0,0 v 57.333 c 0,6.6 5.4,12 12,12 h -33.608 c -6.6,0 -12,-5.4 -12,-12 V 0 c 0,-6.6 5.4,-12 12,-12 H 12 C 5.4,-12 0,-6.6 0,0"
             style="fill:#b5dcff;fill-opacity:1;fill-rule:nonzero;stroke:none"
             id="path2642" /></g><g
           id="g2644"
           transform="translate(281.7749,386.9053)"><path
             d="m 0,0 h -57.333 c -6.6,0 -12,5.4 -12,12 v 57.333 c 0,6.6 5.4,12 12,12 H 0 c 6.6,0 12,-5.4 12,-12 V 12 C 12,5.4 6.6,0 0,0 Z"
             style="fill:none;stroke:#000000;stroke-width:15;stroke-linecap:round;stroke-linejoin:round;stroke-miterlimit:10;stroke-dasharray:none;stroke-opacity:1"
             id="path2646" /></g><g
           id="g2648"
           transform="translate(276.7505,468.2383)"><path
             d="m 0,0 v 22.298 c 0,7.713 -6.252,13.965 -13.965,13.965 h -19.354 c -7.713,0 -13.965,-6.252 -13.965,-13.965 l 0,-22.298 z"
             style="fill:none;stroke:#000000;stroke-width:15;stroke-linecap:round;stroke-linejoin:round;stroke-miterlimit:10;stroke-dasharray:none;stroke-opacity:1"
             id="path2650" /></g><path
           d="m 229.466,344.572 h 47.284 v 42.333 h -47.284 z"
           style="fill:none;stroke:#000000;stroke-width:15;stroke-linecap:round;stroke-linejoin:round;stroke-miterlimit:10;stroke-dasharray:none;stroke-opacity:1"
           id="path2652" /><g
           id="g2654"
           transform="translate(212.4419,452.979)"><path
             d="m 0,0 c -78.77,-10.256 -146.89,-47.887 -190.424,-101.072 -3.422,-4.181 2.432,-9.298 7.5,-6.569 53.916,29.038 116.119,48.003 182.924,53.798 z"
             style="fill:none;stroke:#000000;stroke-width:15;stroke-linecap:round;stroke-linejoin:round;stroke-miterlimit:10;stroke-dasharray:none;stroke-opacity:1"
             id="path2656" /></g><g
           id="g2658"
           transform="translate(381.6743,431.0303)"><path
             d="m 0,0 c -27.143,11.344 -56.719,19.143 -87.899,22.648 v -54.066 c 69,-5.179 133.237,-24.399 188.707,-54.274 5.067,-2.729 10.922,2.388 7.5,6.568 -20.6,25.167 -46.714,46.839 -76.847,63.787"
             style="fill:none;stroke:#000000;stroke-width:15;stroke-linecap:round;stroke-linejoin:round;stroke-miterlimit:10;stroke-dasharray:none;stroke-opacity:1"
             id="path2660" /></g><g
           id="g2662"
           transform="translate(276.7505,206.1524)"><path
             d="m 0,0 v 180.753 h -47.284 v -365.442 c 0,-7.712 6.252,-13.964 13.965,-13.964 h 19.354 c 7.713,0 13.965,6.252 13.965,13.964 L 0,-35"
             style="fill:none;stroke:#000000;stroke-width:15;stroke-linecap:round;stroke-linejoin:round;stroke-miterlimit:10;stroke-dasharray:none;stroke-opacity:1"
             id="path2664" /></g></g></g></g></svg>
