<?xml version="1.0" encoding="UTF-8" standalone="no"?>
<!-- Created with Inkscape (http://www.inkscape.org/) -->

<svg
   version="1.1"
   id="svg351"
   width="682.66669"
   height="682.66669"
   viewBox="0 0 682.66669 682.66669"
   xmlns="http://www.w3.org/2000/svg"
   xmlns:svg="http://www.w3.org/2000/svg">
  <defs
     id="defs355">
    <clipPath
       clipPathUnits="userSpaceOnUse"
       id="clipPath365">
      <path
         d="M 0,512 H 512 V 0 H 0 Z"
         id="path363" />
    </clipPath>
  </defs>
  <g
     id="g357"
     transform="matrix(1.3333333,0,0,-1.3333333,0,682.66667)">
    <g
       id="g359">
      <g
         id="g361"
         clip-path="url(#clipPath365)">
        <g
           id="g367"
           transform="translate(494.5205,99.3452)">
          <path
             d="m 0,0 c 10.73,-10.73 10.73,-28.14 0,-38.87 -10.73,-10.73 -28.13,-10.73 -38.87,0 -0.28,0.28 -0.56,0.58 -0.85,0.89 -13.57,14.72 -33.04,22.57 -52.94,20.31 -56.06,-6.37 -112.12,-9.04 -168.18,-8.01 h -0.01 c -46.8,0.85 -93.6,4.29 -140.4,10.29 -11.22,1.44 -22.24,-4.01 -27.84,-13.84 -2.19,-3.84 -4.639,-7.19 -7.09,-9.64 -10.73,-10.73 -28.13,-10.73 -38.86,0 -10.74,10.73 -10.74,28.14 0,38.87 2.21,2.21 5.16,4.42 8.54,6.44 9.92,5.93 15.07,17.5 13.01,28.88 -14.81,81.73 -14.81,163.47 0,245.21 2.06,11.37 -3.09,22.94 -13.01,28.87 -3.38,2.03 -6.33,4.23 -8.54,6.44 -10.74,10.74 -10.74,28.14 0,38.87 10.73,10.74 28.13,10.74 38.86,0 2.451,-2.44 4.9,-5.79 7.09,-9.64 5.6,-9.83 16.62,-15.28 27.84,-13.84 24.13,3.1 48.25,5.51 72.37,7.24 85.03,6.1 170.05,3.68 255.08,-7.24 11.23,-1.44 22.24,4.01 27.85,13.84 2.19,3.84 4.64,7.2 7.08,9.64 10.74,10.74 28.14,10.74 38.87,0 10.73,-10.73 10.73,-28.13 0,-38.87 -2.21,-2.21 -5.16,-4.41 -8.54,-6.44 -9.92,-5.93 -15.08,-17.5 -13.02,-28.87 14.82,-81.74 14.82,-163.48 0,-245.21 C -23.62,23.94 -18.46,12.37 -8.54,6.44 -5.16,4.42 -2.21,2.21 0,0"
             style="fill:#87cdd8;fill-opacity:1;fill-rule:nonzero;stroke:none"
             id="path369" />
        </g>
        <g
           id="g371"
           transform="translate(233.6709,73.6653)">
          <path
             d="m 0,0 c -46.801,0.85 -93.601,4.29 -140.4,10.29 -11.22,1.44 -22.241,-4.01 -27.84,-13.84 -2.191,-3.84 -4.64,-7.19 -7.09,-9.64 -10.731,-10.73 -28.13,-10.73 -38.86,0 -10.741,10.73 -10.741,28.14 0,38.87 2.21,2.21 5.16,4.42 8.54,6.44 9.92,5.93 15.07,17.5 13.009,28.88 -14.809,81.73 -14.809,163.47 0,245.21 2.061,11.37 -3.089,22.94 -13.009,28.87 -3.38,2.03 -6.33,4.23 -8.54,6.44 -10.741,10.74 -10.741,28.14 0,38.87 10.73,10.74 28.129,10.74 38.86,0 2.45,-2.44 4.899,-5.79 7.09,-9.64 5.599,-9.83 16.62,-15.28 27.84,-13.84 24.129,3.1 48.25,5.51 72.37,7.24 C -140.4,356.91 -168.101,43.55 0,0"
             style="fill:#5bb0b7;fill-opacity:1;fill-rule:nonzero;stroke:none"
             id="path373" />
        </g>
        <g
           id="g375"
           transform="translate(93.6406,83.9053)">
          <path
             d="m 0,0 c -0.12,0.02 -0.25,0.03 -0.37,0.05 -11.22,1.44 -22.24,-4.01 -27.84,-13.84 -2.19,-3.84 -4.64,-7.19 -7.09,-9.64 -10.73,-10.73 -28.13,-10.73 -38.86,0 -10.74,10.73 -10.74,28.14 0,38.87 2.21,2.21 5.16,4.42 8.54,6.44 9.92,5.93 15.07,17.5 13.01,28.88 -14.81,81.73 -14.81,163.47 0,245.21 2.06,11.37 -3.09,22.94 -13.01,28.87 -3.38,2.03 -6.33,4.23 -8.54,6.44 -10.74,10.74 -10.74,28.14 0,38.87 10.73,10.74 28.13,10.74 38.86,0 2.45,-2.44 4.9,-5.79 7.09,-9.64 5.6,-9.83 16.62,-15.28 27.84,-13.84 109.15,14.02 218.3,14.02 327.45,0 11.23,-1.44 22.24,4.01 27.85,13.84 2.19,3.84 4.64,7.2 7.08,9.64 10.74,10.74 28.14,10.74 38.87,0 10.73,-10.73 10.73,-28.13 0,-38.87 -2.21,-2.21 -5.16,-4.41 -8.54,-6.44 -9.92,-5.93 -15.08,-17.5 -13.02,-28.87 1.67,-9.19 3.14,-18.38 4.43,-27.57"
             style="fill:none;stroke:#000000;stroke-width:15;stroke-linecap:round;stroke-linejoin:round;stroke-miterlimit:10;stroke-dasharray:none;stroke-opacity:1"
             id="path377" />
        </g>
        <g
           id="g379"
           transform="translate(480.9209,322.5652)">
          <path
             d="m 0,0 c 6.05,-62.64 3.399,-125.27 -7.96,-187.9 -2.061,-11.38 3.1,-22.95 13.02,-28.88 3.379,-2.02 6.33,-4.23 8.54,-6.44 10.73,-10.73 10.73,-28.14 0,-38.87 -10.73,-10.73 -28.13,-10.73 -38.871,0 -0.28,0.28 -0.559,0.58 -0.849,0.89 -13.57,14.72 -33.04,22.57 -52.941,20.31 -92.809,-10.55 -185.62,-10.95 -278.429,-1.23"
             style="fill:none;stroke:#000000;stroke-width:15;stroke-linecap:round;stroke-linejoin:round;stroke-miterlimit:10;stroke-dasharray:none;stroke-opacity:1"
             id="path381" />
        </g>
        <g
           id="g383"
           transform="translate(94.6445,259.9214)">
          <path
             d="m 0,0 c 0,-37.05 -3.97,-72.69 -11.3,-106.01 h -0.01 C -28.489,-72.68 -37.79,-37.04 -37.79,0 c 0,37.05 9.301,72.69 26.48,106.01 h 0.01 C -3.97,72.68 0,37.04 0,0"
             style="fill:#e5e5e5;fill-opacity:1;fill-rule:nonzero;stroke:none"
             id="path385" />
        </g>
        <g
           id="g387"
           transform="translate(74.7012,120.6931)">
          <path
             d="m 0,0 c 12.801,42.424 19.939,89.567 19.939,139.23 0,49.664 -7.138,96.806 -19.939,139.23"
             style="fill:none;stroke:#000000;stroke-width:15;stroke-linecap:round;stroke-linejoin:round;stroke-miterlimit:10;stroke-dasharray:none;stroke-opacity:1"
             id="path389" />
        </g>
        <g
           id="g391"
           transform="translate(83.335,153.9114)">
          <path
             d="m 0,0 c -17.181,33.33 -26.48,68.97 -26.48,106.01 0,37.05 9.299,72.69 26.48,106.01"
             style="fill:none;stroke:#000000;stroke-width:15;stroke-linecap:round;stroke-linejoin:round;stroke-miterlimit:10;stroke-dasharray:none;stroke-opacity:1"
             id="path393" />
        </g>
        <g
           id="g395"
           transform="translate(244.5117,321.0728)">
          <path
             d="m 0,0 c -11.299,8.754 -5.099,26.978 9.195,27.022 0.171,0 0.343,0 0.514,0 64.77,0 117.28,-37.339 117.28,-83.409 0,-46.061 -52.51,-83.401 -117.28,-83.401 -0.171,0 -0.342,0.001 -0.514,0.001 -14.293,0.044 -20.494,18.268 -9.194,27.022 19.16,14.843 30.858,34.641 30.858,56.378 C 30.859,-34.644 19.161,-14.844 0,0"
             style="fill:#5bb0b7;fill-opacity:1;fill-rule:nonzero;stroke:none"
             id="path397" />
        </g>
      </g>
    </g>
  </g>
</svg>
