<?xml version="1.0" encoding="iso-8859-1"?>
<!-- Generator: Adobe Illustrator 19.0.0, SVG Export Plug-In . SVG Version: 6.00 Build 0)  -->
<svg version="1.1" id="Capa_1" xmlns="http://www.w3.org/2000/svg" xmlns:xlink="http://www.w3.org/1999/xlink" x="0px" y="0px"
	 viewBox="0 0 512 512" style="enable-background:new 0 0 512 512;" xml:space="preserve">
<path style="fill:#C9925B;" d="M303.501,40.004c-12.715,6.327-28.534,23.371-29.997,68.788c-5.512-0.487-11.332-0.746-17.48-0.746
	c-2.348,0-4.636,0.04-6.884,0.119c-4.039-32.892-3.969-86.259,35.727-99.003c9.641-3.094,21.798-2.457,26.574,8.457
	C315.111,26.006,311.699,35.915,303.501,40.004z"/>
<path style="fill:#BF834C;" d="M310.356,15.52c-3.233,0.02-6.526,0.627-9.571,1.602c-36.642,11.77-39.518,58.153-36.563,91.084
	c-2.666-0.109-5.392-0.159-8.199-0.159c-2.348,0-4.636,0.04-6.884,0.119c-4.039-32.892-3.969-86.259,35.727-99.003
	C293.85,6.277,305.013,6.635,310.356,15.52z"/>
<path style="fill:#965B33;" d="M256.021,417.648h-65.162c0,0,5.453,54.35,42.824,79.914c13.474,9.217,31.203,9.217,44.677,0
	c37.37-25.564,42.824-79.914,42.824-79.914H256.021z"/>
<path style="fill:#7F4620;" d="M275.33,499.425c-13.025,7.305-29.169,6.679-41.651-1.868c-37.372-25.559-42.82-79.91-42.82-79.91
	h38.613c0,0,5.447,54.352,42.82,79.91C273.285,498.236,274.297,498.862,275.33,499.425z"/>
<path style="fill:#C9925B;" d="M194.437,429.802l8.903-6.683c5.249-3.941,12.452-4.008,17.773-0.167l26.135,18.866
	c5.238,3.781,12.309,3.781,17.547,0l26.135-18.866c5.322-3.842,12.524-3.774,17.773,0.167l8.903,6.683
	c8.65,6.494,21.114,1.971,23.595-8.558c4.78-20.295,5.565-51.912-23.198-78.148c0,0-17.848-21.2-61.981-21.2
	s-61.981,21.2-61.981,21.2c-28.763,26.236-27.978,57.854-23.197,78.148C173.323,431.773,185.787,436.296,194.437,429.802z"/>
<path style="fill:#BF834C;" d="M229.429,342.304c-28.767,26.236-27.978,57.858-23.201,78.151c0.066,0.292,0.146,0.576,0.232,0.861
	c-1.093,0.464-2.14,1.067-3.12,1.802l-8.905,6.684c-8.646,6.492-21.114,1.968-23.593-8.56c-4.776-20.293-5.565-51.908,23.194-78.144
	c0,0,17.855-21.2,61.985-21.2c5.353,0,10.322,0.311,14.92,0.868C241.672,327.761,229.429,342.304,229.429,342.304z"/>
<path style="fill:#965B33;" d="M175.255,362.434l11.676-8.766c6.884-5.168,16.33-5.257,23.31-0.218l34.275,24.743
	c6.869,4.959,16.143,4.959,23.012,0l34.275-24.743c6.979-5.038,16.425-4.95,23.31,0.218l11.676,8.766
	c11.344,8.517,27.692,2.585,30.943-11.223c6.268-26.617,7.299-68.082-30.423-102.491c0,0-23.409-27.805-81.286-27.805
	s-81.286,27.805-81.286,27.805c-37.722,34.408-36.692,75.874-30.423,102.491C147.563,365.019,163.91,370.951,175.255,362.434z"/>
<path style="fill:#7F4620;" d="M221.146,247.682c-37.727,34.408-36.693,75.88-30.428,102.494c0.087,0.382,0.191,0.756,0.304,1.13
	c-1.434,0.608-2.806,1.399-4.092,2.363l-11.678,8.768c-11.339,8.515-27.692,2.58-30.941-11.226
	c-6.264-26.614-7.298-68.077,30.42-102.485c0,0,23.417-27.805,81.293-27.805c7.02,0,13.537,0.408,19.567,1.138
	C237.203,228.61,221.146,247.682,221.146,247.682z"/>
<path style="fill:#C9925B;" d="M159.012,278.02l14.024-10.529c8.269-6.207,19.614-6.314,27.997-0.262l41.168,29.718
	c8.251,5.956,19.39,5.956,27.641,0l41.168-29.718c8.384-6.051,19.728-5.945,27.997,0.262l14.024,10.529
	c13.626,10.23,33.26,3.104,37.166-13.48c7.529-31.969,8.767-81.774-36.541-123.102c0,0-28.116-33.396-97.633-33.396
	s-97.633,33.396-97.633,33.396c-45.309,41.328-44.071,91.133-36.541,123.102C125.752,281.124,145.387,288.249,159.012,278.02z"/>
<path style="fill:#BF834C;" d="M214.132,140.19c-45.314,41.328-44.072,91.14-36.547,123.106c0.104,0.459,0.23,0.908,0.365,1.357
	c-1.722,0.73-3.371,1.68-4.915,2.838l-14.026,10.53c-13.619,10.228-33.26,3.099-37.163-13.484
	c-7.524-31.966-8.767-81.767,36.537-123.095c0,0,28.126-33.396,97.641-33.396c8.433,0,16.26,0.49,23.503,1.367
	C233.419,117.282,214.132,140.19,214.132,140.19z"/>
<path d="M389.73,176.998c-1.782-3.739-6.258-5.326-9.998-3.543c-3.739,1.782-5.326,6.258-3.543,9.998
	c14.051,29.477,11.403,59.43,6.707,79.367c-1.271,5.397-4.988,9.577-10.2,11.466c-5.207,1.886-10.733,1.062-15.163-2.265
	l-14.024-10.528c-10.957-8.227-25.781-8.365-36.89-0.346l-41.169,29.718c-5.64,4.071-13.219,4.071-18.86,0l-41.169-29.718
	c-11.11-8.02-25.935-7.88-36.89,0.345l-14.024,10.529c-4.43,3.325-9.957,4.15-15.163,2.264c-5.21-1.889-8.929-6.067-10.2-11.466
	c-7.478-31.754-7.599-77.627,34.295-115.84c0.243-0.222,0.471-0.459,0.683-0.711c0.25-0.296,24.784-28.592,85.073-30.608
	c0.069-0.001,0.136,0.004,0.206,0.001c2.145-0.076,4.372-0.114,6.619-0.114c28.41,0,58.747,5.679,82.303,22.521
	c2.349,1.68,4.622,3.472,6.763,5.412c3.07,2.781,7.815,2.544,10.595-0.525c2.78-3.071,2.545-7.814-0.525-10.595
	c-8.9-8.059-32.166-25.115-73.802-30.294c2.539-36.305,15.076-50.167,25.491-55.351c11.744-5.857,16.778-19.96,11.463-32.105
	C312.702,1.795,298.673-3.147,282.572,2.02c-31.958,10.261-46.628,45.318-41.722,99.071c-58.082,4.139-84.315,31.163-87.83,35.088
	c-21.242,19.48-34.721,42.631-40.068,68.817c-3.955,19.371-3.42,39.983,1.591,61.261c2.417,10.265,9.778,18.537,19.689,22.129
	c1.504,0.545,3.033,0.955,4.572,1.261c-7.944,24.098-5.567,47.268-1.796,63.28c2.11,8.96,8.535,16.181,17.186,19.317
	c3.497,1.268,7.142,1.777,10.732,1.583c-6.072,18.447-4.428,36.22-1.387,49.133c1.747,7.419,7.067,13.399,14.231,15.996
	c3.294,1.194,6.746,1.579,10.109,1.212c2.351,8.329,5.305,16.258,8.836,23.634c1.288,2.692,3.973,4.265,6.771,4.265
	c1.085,0,2.188-0.237,3.232-0.737c3.736-1.788,5.316-6.266,3.528-10.003c-3.489-7.29-6.369-15.207-8.582-23.578l6.176-4.637
	c2.639-1.98,6.207-2.013,8.881-0.083l26.134,18.866c3.937,2.842,8.55,4.263,13.164,4.263c4.613,0,9.228-1.421,13.164-4.263
	l26.135-18.866c2.675-1.929,6.243-1.896,8.881,0.083l6.192,4.65c-0.038,0.118-0.081,0.232-0.114,0.352
	c-4.863,18.162-15.083,42.839-36.153,57.254c-9.915,6.781-22.644,7.477-33.223,1.812c-3.651-1.955-8.199-0.58-10.153,3.071
	c-1.955,3.652-0.58,8.198,3.071,10.153c6.987,3.741,14.611,5.593,22.211,5.593c9.296,0,18.556-2.771,26.563-8.249
	c23.998-16.416,35.819-43.202,41.575-63.58c3.359,0.365,6.808-0.021,10.1-1.213c7.164-2.597,12.484-8.577,14.231-15.996
	c3.048-12.943,4.683-30.705-1.384-49.133c3.588,0.193,7.232-0.316,10.729-1.583c8.652-3.136,15.076-10.358,17.186-19.317
	c3.761-15.969,6.149-39.161-1.802-63.279c1.541-0.306,3.072-0.716,4.578-1.262c9.912-3.592,17.272-11.865,19.689-22.129
	C402.744,243.981,405.657,210.409,389.73,176.998z M287.158,16.304c3.192-1.025,13.882-3.74,17.411,4.322
	c2.108,4.815,0.168,10.38-4.416,12.667c-13.905,6.922-30.626,24.279-33.744,67.496c-3.361-0.161-6.822-0.248-10.388-0.248
	c-0.056,0-0.109,0.002-0.165,0.002C253.079,70.921,254.767,26.704,287.158,16.304z M333.899,419.525
	c-0.591,2.51-2.319,4.453-4.742,5.331c-2.419,0.877-4.989,0.494-7.048-1.052l-8.903-6.684c-7.921-5.945-18.636-6.046-26.667-0.25
	l-26.135,18.866c-2.621,1.893-6.144,1.893-8.767,0l-26.135-18.866c-8.031-5.797-18.747-5.696-26.667,0.25l-8.903,6.683
	c-2.06,1.546-4.628,1.93-7.048,1.053c-2.422-0.878-4.15-2.821-4.742-5.331c-3.327-14.126-4.724-35.115,7.513-54.894
	c0.204-0.329,0.37-0.67,0.517-1.016l5.259-3.948c4.282-3.213,10.075-3.269,14.417-0.135l34.274,24.743
	c4.754,3.432,10.326,5.147,15.897,5.147s11.143-1.716,15.897-5.147l34.274-24.743c4.342-3.133,10.136-3.078,14.417,0.135
	l5.112,3.838c0.108,0.215,0.226,0.427,0.357,0.635C338.634,384.049,337.261,405.247,333.899,419.525z M360.43,349.491
	c-0.959,4.073-3.765,7.227-7.697,8.653c-3.929,1.423-8.1,0.801-11.443-1.708l-11.676-8.767c-9.564-7.179-22.505-7.301-32.203-0.301
	l-34.274,24.743c-4.256,3.072-9.977,3.073-14.233,0l-34.274-24.743c-9.698-6.999-22.638-6.878-32.203,0.302l-11.676,8.766
	c-3.343,2.509-7.513,3.132-11.443,1.708c-3.932-1.425-6.737-4.579-7.696-8.653c-3.618-15.361-5.801-38.168,3.627-61.03
	c2.924-1.041,5.717-2.523,8.276-4.444l14.024-10.529c5.673-4.259,13.352-4.33,19.103-0.179l41.168,29.718
	c5.447,3.932,11.828,5.897,18.21,5.897c6.381,0,12.765-1.966,18.21-5.897l41.169-29.718c5.752-4.152,13.43-4.081,19.104,0.179
	l14.024,10.528c2.561,1.922,5.356,3.405,8.283,4.446C366.247,311.341,364.039,334.171,360.43,349.491z"/>
<g>
</g>
<g>
</g>
<g>
</g>
<g>
</g>
<g>
</g>
<g>
</g>
<g>
</g>
<g>
</g>
<g>
</g>
<g>
</g>
<g>
</g>
<g>
</g>
<g>
</g>
<g>
</g>
<g>
</g>
</svg>
