<?xml version="1.0" encoding="UTF-8"?>
<svg xmlns="http://www.w3.org/2000/svg" xmlns:xlink="http://www.w3.org/1999/xlink" version="1.1" id="Capa_1" x="0px" y="0px" viewBox="0 0 512 512" style="enable-background:new 0 0 512 512;" xml:space="preserve" width="512" height="512">
<g>
	<g>
		<path style="fill:#ECEAEC;" d="M195.575,376.115l7.084,113.337c0.528,8.458,7.542,15.047,16.017,15.047h82.184&#10;&#9;&#9;&#9;c8.475,0,15.488-6.589,16.017-15.047l7.084-113.337H195.575z"/>
		<path style="fill:#DBD8DB;" d="M299.84,376.115l-5.109,81.742c-0.792,12.686-11.313,22.571-24.025,22.571h-68.612l0.564,9.025&#10;&#9;&#9;&#9;c0.529,8.458,7.542,15.047,16.017,15.047h82.184c8.475,0,15.488-6.589,16.017-15.047l7.084-113.337H299.84z"/>
		<polygon style="fill:#C9C5C9;" points="197.581,408.212 321.953,408.212 323.959,376.115 195.575,376.115 &#9;&#9;"/>
		<path style="fill:#77CC7D;" d="M194.532,147.167c5.837-5.837,15.831-2.63,17.182,5.514l7.295,43.983l5.908-5.908&#10;&#9;&#9;&#9;c25.069-25.069,25.069-65.713,0-90.782c-5.948-5.948-14.235-8.133-21.901-6.554c-3.341,0.688-6.276-2.247-5.588-5.588&#10;&#9;&#9;&#9;c1.579-7.666-0.605-15.953-6.554-21.901c-25.069-25.069-65.713-25.069-90.782,0l-5.908,5.908l43.984,7.295&#10;&#9;&#9;&#9;c8.144,1.351,11.351,11.344,5.513,17.181l0,0c-7.674,7.674-22.713,12.5-33.42,10.724l-36.125-5.992&#10;&#9;&#9;&#9;c-3.793-0.629-7.724,0.966-9.722,4.252c-8.059,13.256-12.309,28.154-12.745,43.163c-0.112,3.847,3.919,6.444,7.339,4.679&#10;&#9;&#9;&#9;l25.604-13.211c7.104-3.666,16.194-2.209,20.953,4.215c6.064,8.185,3.189,19.445-5.472,23.914l-35.585,18.361&#10;&#9;&#9;&#9;c-2.45,1.264-3.493,4.31-2.183,6.735c3.933,7.282,8.919,14.142,15.072,20.295c6.153,6.153,13.013,11.139,20.295,15.072&#10;&#9;&#9;&#9;c2.426,1.31,5.471,0.267,6.735-2.183l17.941-34.771c3.849-7.46,12.725-11.488,20.531-8.401c8.978,3.55,12.726,13.943,8.412,22.305&#10;&#9;&#9;&#9;l-13.605,26.367c-1.765,3.42,0.832,7.451,4.679,7.339c15.009-0.437,29.907-4.687,43.163-12.745&#10;&#9;&#9;&#9;c3.285-1.997,4.881-5.929,4.252-9.722l-5.992-36.125C182.032,169.88,186.858,154.842,194.532,147.167L194.532,147.167z"/>
		<path style="fill:#77CC7D;" d="M213.565,301.702c-5.019-15.058-22.983-21.221-36.189-12.417l-45.993,30.662h88.264&#10;&#9;&#9;&#9;L213.565,301.702z"/>
		<path style="fill:#52BD7E;" d="M414.169,306.69H306.981l7.517-22.552c6.204-18.612,28.408-26.23,44.731-15.348l55.26,36.84&#10;&#9;&#9;&#9;C414.966,305.948,414.741,306.69,414.169,306.69z"/>
		<path style="fill:#52BD7E;" d="M224.918,99.974c-0.336-0.336-0.747-0.537-1.098-0.849l-83.36,83.36&#10;&#9;&#9;&#9;c0.818,0.171,1.637,0.366,2.439,0.684c8.978,3.55,12.726,13.943,8.412,22.305l-13.605,26.368c-1.765,3.42,0.832,7.451,4.679,7.339&#10;&#9;&#9;&#9;c15.009-0.437,29.907-4.686,43.163-12.746c3.286-1.997,4.881-5.928,4.252-9.721l-5.993-36.125&#10;&#9;&#9;&#9;c-1.776-10.707,3.05-25.746,10.725-33.42c5.837-5.837,15.831-2.63,17.182,5.514l7.295,43.983l5.908-5.908&#10;&#9;&#9;&#9;C249.986,165.687,249.986,125.043,224.918,99.974z"/>
		<path style="fill:#77CC7D;" d="M368.318,56.687c-5.837-5.837-2.63-15.831,5.514-17.182l43.983-7.295l-5.908-5.908&#10;&#9;&#9;&#9;c-25.069-25.069-65.713-25.069-90.782,0c-5.948,5.948-8.133,14.235-6.553,21.901c0.688,3.341-2.247,6.276-5.588,5.588&#10;&#9;&#9;&#9;c-7.666-1.579-15.953,0.605-21.901,6.554c-25.069,25.069-25.069,65.713,0,90.782l5.908,5.908l7.295-43.984&#10;&#9;&#9;&#9;c1.351-8.144,11.344-11.351,17.181-5.513l0,0c7.674,7.674,12.5,22.713,10.724,33.42l-5.992,36.125&#10;&#9;&#9;&#9;c-0.629,3.793,0.966,7.724,4.252,9.722c13.256,8.059,28.154,12.309,43.163,12.745c3.847,0.112,6.444-3.919,4.679-7.339&#10;&#9;&#9;&#9;l-13.211-25.604c-3.666-7.104-2.209-16.194,4.215-20.953c8.185-6.064,19.445-3.189,23.914,5.472l18.361,35.585&#10;&#9;&#9;&#9;c1.264,2.45,4.31,3.493,6.735,2.183c7.282-3.933,14.142-8.919,20.295-15.072c6.153-6.153,11.139-13.013,15.072-20.295&#10;&#9;&#9;&#9;c1.31-2.426,0.267-5.471-2.183-6.735l-34.771-17.941c-7.46-3.849-11.488-12.725-8.401-20.531&#10;&#9;&#9;&#9;c3.55-8.978,13.943-12.726,22.305-8.412l26.367,13.605c3.42,1.765,7.451-0.832,7.339-4.679&#10;&#9;&#9;&#9;c-0.437-15.009-4.687-29.907-12.745-43.163c-1.997-3.285-5.929-4.881-9.722-4.252l-36.125,5.992&#10;&#9;&#9;&#9;C391.032,69.187,375.993,64.361,368.318,56.687L368.318,56.687z"/>
		<path style="fill:#52BD7E;" d="M321.126,26.302c-0.336,0.336-0.537,0.747-0.849,1.098l83.36,83.36&#10;&#9;&#9;&#9;c0.171-0.818,0.366-1.637,0.684-2.439c3.55-8.978,13.943-12.726,22.305-8.412l26.368,13.605c3.42,1.765,7.451-0.832,7.339-4.679&#10;&#9;&#9;&#9;c-0.437-15.009-4.686-29.907-12.746-43.163c-1.997-3.286-5.928-4.881-9.721-4.252l-36.125,5.993&#10;&#9;&#9;&#9;c-10.707,1.776-25.746-3.05-33.42-10.725c-5.837-5.837-2.63-15.831,5.514-17.182l43.983-7.295l-5.908-5.908&#10;&#9;&#9;&#9;C386.839,1.233,346.194,1.233,321.126,26.302z"/>
		<polygon style="fill:#B8B2B8;" points="321.953,408.212 323.959,376.115 299.84,376.115 297.834,408.212 &#9;&#9;"/>
	</g>
	<g>
		<path style="fill:none;stroke:#000000;stroke-width:15;stroke-linecap:round;stroke-linejoin:round;stroke-miterlimit:10;" d="&#10;&#9;&#9;&#9;M323.959,376.115l-7.084,113.337c-0.529,8.458-7.542,15.047-16.017,15.047h-82.184c-8.474,0-15.488-6.589-16.017-15.047&#10;&#9;&#9;&#9;l-7.084-113.337"/>
		<path style="fill:none;stroke:#000000;stroke-width:15;stroke-linecap:round;stroke-linejoin:round;stroke-miterlimit:10;" d="&#10;&#9;&#9;&#9;M90.421,103.75l-22.525-3.736c-12.012,16.894-17.373,37.018-16.073,56.836l33.553-17.312c7.877-4.064,17.556-0.973,21.62,6.903&#10;&#9;&#9;&#9;c4.064,7.876,0.973,17.556-6.903,21.62l-40.017,20.647c4.221,8.939,9.929,17.351,17.321,24.743&#10;&#9;&#9;&#9;c7.392,7.392,15.804,13.1,24.743,17.321l20.647-40.017c4.064-7.876,13.744-10.967,21.62-6.903&#10;&#9;&#9;&#9;c7.877,4.064,10.967,13.743,6.903,21.62l-17.312,33.553c19.819,1.3,39.943-4.061,56.836-16.073l-9.509-57.329&#10;&#9;&#9;&#9;c-1.45-8.743,4.462-17.007,13.206-18.457l0,0c8.743-1.45,17.007,4.462,18.457,13.206l6.019,36.291l5.908-5.908&#10;&#9;&#9;&#9;c25.069-25.069,25.069-65.713,0-90.782c-9.401-9.401-24.642-9.401-34.043,0c9.401-9.401,9.401-24.642,0-34.043&#10;&#9;&#9;&#9;c-25.069-25.069-65.713-25.069-90.782,0l-5.908,5.908l36.291,6.019c8.744,1.45,14.656,9.714,13.206,18.457l0,0&#10;&#9;&#9;&#9;c-1.45,8.744-9.714,14.656-18.457,13.206l-5.02-0.833"/>
		
			<line style="fill:none;stroke:#000000;stroke-width:15;stroke-linecap:round;stroke-linejoin:round;stroke-miterlimit:10;" x1="190.874" y1="99.975" x2="139.81" y2="151.039"/>
		<path style="fill:none;stroke:#000000;stroke-width:15;stroke-linecap:round;stroke-linejoin:round;stroke-miterlimit:10;" d="&#10;&#9;&#9;&#9;M317.467,107.537c-8.743-1.45-17.007,4.462-18.457,13.206l-6.019,36.291l-5.908-5.908c-25.069-25.069-25.069-65.713,0-90.782&#10;&#9;&#9;&#9;c9.401-9.401,24.642-9.401,34.043,0c-9.401-9.401-9.401-24.642,0-34.043c25.069-25.069,65.713-25.069,90.782,0l5.908,5.908&#10;&#9;&#9;&#9;l-36.291,6.019c-8.744,1.45-14.656,9.714-13.206,18.457l0,0c1.45,8.744,9.714,14.656,18.457,13.206l57.329-9.509&#10;&#9;&#9;&#9;c12.012,16.894,17.373,37.018,16.073,56.836l-33.553-17.312c-7.877-4.064-17.556-0.973-21.62,6.903&#10;&#9;&#9;&#9;c-4.064,7.876-0.973,17.556,6.903,21.62l40.017,20.647c-4.221,8.939-9.929,17.351-17.321,24.743&#10;&#9;&#9;&#9;c-7.392,7.392-15.804,13.1-24.743,17.321l-20.647-40.017c-4.064-7.876-13.744-10.967-21.62-6.903&#10;&#9;&#9;&#9;c-7.877,4.064-10.967,13.743-6.903,21.62l17.312,33.553c-19.819,1.3-39.943-4.061-56.836-16.073l9.509-57.329&#10;&#9;&#9;&#9;C332.124,117.251,326.211,108.987,317.467,107.537L317.467,107.537z"/>
		
			<line style="fill:none;stroke:#000000;stroke-width:15;stroke-linecap:round;stroke-linejoin:round;stroke-miterlimit:10;" x1="321.126" y1="60.345" x2="372.19" y2="111.409"/>
		
			<line style="fill:none;stroke:#000000;stroke-width:15;stroke-linecap:round;stroke-linejoin:round;stroke-miterlimit:10;" x1="259.767" y1="376.115" x2="292.99" y2="157.034"/>
		
			<line style="fill:none;stroke:#000000;stroke-width:15;stroke-linecap:round;stroke-linejoin:round;stroke-miterlimit:10;" x1="232.664" y1="184.199" x2="259.767" y2="376.115"/>
		<path style="fill:none;stroke:#000000;stroke-width:15;stroke-linecap:round;stroke-linejoin:round;stroke-miterlimit:10;" d="&#10;&#9;&#9;&#9;M131.383,319.947h88.264l-6.082-18.245c-5.019-15.058-22.983-21.221-36.19-12.417L131.383,319.947z"/>
		
			<line style="fill:none;stroke:#000000;stroke-width:15;stroke-linecap:round;stroke-linejoin:round;stroke-miterlimit:10;" x1="238.37" y1="376.115" x2="213.565" y2="301.702"/>
		<path style="fill:none;stroke:#000000;stroke-width:15;stroke-linecap:round;stroke-linejoin:round;stroke-miterlimit:10;" d="&#10;&#9;&#9;&#9;M416.078,306.69H306.981l7.517-22.552c6.204-18.612,28.408-26.23,44.731-15.348L416.078,306.69z"/>
		
			<line style="fill:none;stroke:#000000;stroke-width:15;stroke-linecap:round;stroke-linejoin:round;stroke-miterlimit:10;" x1="283.839" y1="376.115" x2="314.498" y2="284.138"/>
		
			<line style="fill:none;stroke:#000000;stroke-width:15;stroke-linecap:round;stroke-linejoin:round;stroke-miterlimit:10;" x1="187.551" y1="376.115" x2="331.983" y2="376.115"/>
		
			<line style="fill:none;stroke:#000000;stroke-width:15;stroke-linecap:round;stroke-linejoin:round;stroke-miterlimit:10;" x1="299.887" y1="408.212" x2="319.947" y2="408.212"/>
		
			<line style="fill:none;stroke:#000000;stroke-width:15;stroke-linecap:round;stroke-linejoin:round;stroke-miterlimit:10;" x1="199.587" y1="408.212" x2="267.791" y2="408.212"/>
	</g>
</g>















</svg>
