<?xml version="1.0" encoding="UTF-8"?>
<svg xmlns="http://www.w3.org/2000/svg" xmlns:xlink="http://www.w3.org/1999/xlink" version="1.1" id="Capa_1" x="0px" y="0px" viewBox="0 0 512 512" style="enable-background:new 0 0 512 512;" xml:space="preserve" width="512" height="512">
<g>
	<g>
		<path style="fill:#FFF6CE;" d="M404.787,152.575c2.403-4.455,3.769-9.553,3.769-14.97c0.354-20.834-20.944-36.522-40.712-30.235&#10;&#9;&#9;&#9;c3.172-18.931-11.961-36.734-31.187-36.554c-7.953,0-15.213,2.946-20.765,7.798c-7.246-6.561-18.636-9.472-28.481-6.844&#10;&#9;&#9;&#9;c-1.645-15.896-15.079-28.292-31.41-28.292c-16.331,0-29.765,12.396-31.41,28.292c-9.847-2.627-21.233,0.282-28.481,6.844&#10;&#9;&#9;&#9;c-5.552-4.852-12.813-7.798-20.765-7.798c-19.226-0.181-34.359,17.624-31.188,36.554c-19.771-6.288-41.065,9.401-40.712,30.235&#10;&#9;&#9;&#9;c0,5.417,1.366,10.515,3.769,14.97c-16.484,1.059-29.528,14.756-29.528,31.507c0,17.441,14.139,31.581,31.581,31.581&#10;&#9;&#9;&#9;l149.359,40.798l144.11-40.798c17.442,0,31.581-14.139,31.581-31.581C434.315,167.331,421.271,153.633,404.787,152.575z"/>
		<g>
			<path style="fill:#FFF1B6;" d="M434.32,184.08c0,17.44-14.14,31.58-31.59,31.58l-15.54,4.4c7.44-10.56,12.12-25.64,12.12-35.98&#10;&#9;&#9;&#9;&#9;c0-13.493-8.462-25.007-20.373-29.528c-4.303-1.633-6.967-6.028-6.038-10.536c0.427-2.071,0.651-4.217,0.651-6.415&#10;&#9;&#9;&#9;&#9;c0.304-17.616-14.884-31.556-31.536-31.634c-4.512-0.021-8.423-3.37-9.044-7.839c-1.249-8.995-6.441-17.02-13.821-22.008&#10;&#9;&#9;&#9;&#9;c5.01-3.35,11.03-5.3,17.51-5.3c19.22-0.18,34.36,17.62,31.18,36.55c19.77-6.29,41.07,9.4,40.72,30.23&#10;&#9;&#9;&#9;&#9;c0,5.42-1.37,10.52-3.77,14.97C421.27,153.63,434.32,167.33,434.32,184.08z"/>
		</g>
		<g>
			<path style="fill:#FE646F;" d="M195.171,504.5h-28.965c-9.327,0-17.366-6.563-19.233-15.701L94.621,232.515&#10;&#9;&#9;&#9;&#9;c-4.104-20.091,11.247-38.895,31.753-38.895h0c16.287,0,30.044,12.088,32.139,28.24L195.171,504.5z"/>
			<path style="fill:#EAF6FF;" d="M236.129,504.5h-40.958l-35.577-274.303c-2.515-19.391,12.586-36.577,32.139-36.577h0.22&#10;&#9;&#9;&#9;&#9;c17.368,0,31.648,13.691,32.38,31.044L236.129,504.5z"/>
			<path style="fill:#FE646F;" d="M322.078,504.5h28.965c9.327,0,17.366-6.563,19.233-15.701l52.353-256.284&#10;&#9;&#9;&#9;&#9;c4.104-20.091-11.247-38.895-31.753-38.895h0c-16.287,0-30.044,12.088-32.139,28.24L322.078,504.5z"/>
			<path style="fill:#FD4755;" d="M390.876,193.62L390.876,193.62c-6.409,0-12.422,1.878-17.491,5.133&#10;&#9;&#9;&#9;&#9;c10.776,6.945,17.041,20.051,14.24,33.763l-52.484,257.293c-1.437,7.035-6.538,12.529-13.063,14.692h0h28.965&#10;&#9;&#9;&#9;&#9;c9.327,0,17.366-6.563,19.233-15.701l52.353-256.284C426.733,212.424,411.381,193.62,390.876,193.62z"/>
			<path style="fill:#EAF6FF;" d="M281.12,504.5h40.958l35.577-274.303c2.515-19.391-12.586-36.577-32.139-36.577h-0.22&#10;&#9;&#9;&#9;&#9;c-17.368,0-31.648,13.691-32.38,31.044L281.12,504.5z"/>
			<path style="fill:#FE646F;" d="M281.12,504.5h-44.99l-11.681-277.106c-0.776-18.418,13.946-33.773,32.38-33.773h3.592&#10;&#9;&#9;&#9;&#9;c18.434,0,33.156,15.356,32.38,33.773L281.12,504.5z"/>
		</g>
		<ellipse style="fill:#FFE177;" cx="258.625" cy="349.06" rx="83.281" ry="35.062"/>
		<path style="fill:#FFD15B;" d="M258.625,313.998c-5.863,0-11.581,0.258-17.102,0.743c37.79,3.321,66.179,17.423,66.179,34.319&#10;&#9;&#9;&#9;s-28.389,30.997-66.179,34.319c5.521,0.485,11.239,0.743,17.102,0.743c45.995,0,83.281-15.698,83.281-35.062&#10;&#9;&#9;&#9;S304.62,313.998,258.625,313.998z"/>
		<circle style="fill:#FFE177;" cx="265.66" cy="128.464" r="21.223"/>
		<circle style="fill:#FFF1B6;" cx="357.929" cy="28.723" r="21.223"/>
	</g>
	<g>
		<g>
			<path style="fill:none;stroke:#000000;stroke-width:15;stroke-linecap:round;stroke-linejoin:round;stroke-miterlimit:10;" d="&#10;&#9;&#9;&#9;&#9;M195.171,504.5h-28.965c-9.327,0-17.366-6.563-19.233-15.701L94.621,232.515c-4.104-20.091,11.247-38.895,31.753-38.895h0&#10;&#9;&#9;&#9;&#9;c16.287,0,30.044,12.088,32.139,28.24L195.171,504.5z"/>
			<path style="fill:none;stroke:#000000;stroke-width:15;stroke-linecap:round;stroke-linejoin:round;stroke-miterlimit:10;" d="&#10;&#9;&#9;&#9;&#9;M230.97,382.14l5.16,122.36h-40.96l-35.58-274.3c-2.51-19.39,12.59-36.58,32.14-36.58h0.22c17.37,0,31.65,13.69,32.38,31.04&#10;&#9;&#9;&#9;&#9;l3.87,91.75"/>
			<path style="fill:none;stroke:#000000;stroke-width:15;stroke-linecap:round;stroke-linejoin:round;stroke-miterlimit:10;" d="&#10;&#9;&#9;&#9;&#9;M383.279,425.144l39.35-192.629c4.104-20.091-11.247-38.895-31.753-38.895h0c-16.287,0-30.044,12.088-32.139,28.24L322.078,504.5&#10;&#9;&#9;&#9;&#9;h28.965c9.327,0,17.366-6.563,19.233-15.701l5.951-29.13"/>
			<path style="fill:none;stroke:#000000;stroke-width:15;stroke-linecap:round;stroke-linejoin:round;stroke-miterlimit:10;" d="&#10;&#9;&#9;&#9;&#9;M289.05,316.41l3.87-91.75c0.73-17.35,15.01-31.04,32.38-31.04h0.22c19.55,0,34.65,17.19,32.14,36.58l-35.58,274.3h-40.96&#10;&#9;&#9;&#9;&#9;l5.16-122.36"/>
			
				<polyline style="fill:none;stroke:#000000;stroke-width:15;stroke-linecap:round;stroke-linejoin:round;stroke-miterlimit:10;" points="&#10;&#9;&#9;&#9;&#9;230.97,382.14 236.13,504.5 281.12,504.5 286.28,382.14 &#9;&#9;&#9;"/>
			<path style="fill:none;stroke:#000000;stroke-width:15;stroke-linecap:round;stroke-linejoin:round;stroke-miterlimit:10;" d="&#10;&#9;&#9;&#9;&#9;M228.2,316.41l-3.75-89.02c-0.78-18.41,13.94-33.77,32.38-33.77h3.59c18.43,0,33.16,15.36,32.38,33.77l-3.75,89.02"/>
		</g>
		
			<ellipse style="fill:none;stroke:#000000;stroke-width:15;stroke-linecap:round;stroke-linejoin:round;stroke-miterlimit:10;" cx="258.625" cy="349.06" rx="83.281" ry="35.062"/>
		<path style="fill:none;stroke:#000000;stroke-width:15;stroke-linecap:round;stroke-linejoin:round;stroke-miterlimit:10;" d="&#10;&#9;&#9;&#9;M96.67,213.05c-11.18-4.87-18.99-16.01-18.99-28.97c0-16.75,13.05-30.45,29.53-31.51c-2.4-4.45-3.77-9.55-3.77-14.97&#10;&#9;&#9;&#9;c-0.35-20.83,20.95-36.52,40.72-30.23c-3.18-18.93,11.96-36.73,31.18-36.55c7.96,0,15.22,2.94,20.77,7.79&#10;&#9;&#9;&#9;c7.25-6.56,18.63-9.47,28.48-6.84c1.64-15.9,15.08-28.29,31.41-28.29s29.77,12.39,31.41,28.29c9.85-2.63,21.24,0.28,28.48,6.84&#10;&#9;&#9;&#9;c5.55-4.85,12.81-7.79,20.77-7.79c19.22-0.18,34.36,17.62,31.18,36.55c19.77-6.29,41.07,9.4,40.72,30.23&#10;&#9;&#9;&#9;c0,5.42-1.37,10.52-3.77,14.97c16.48,1.06,29.53,14.76,29.53,31.51c0,11.28-5.91,21.17-14.81,26.76"/>
		<path style="fill:none;stroke:#000000;stroke-width:15;stroke-linecap:round;stroke-linejoin:round;stroke-miterlimit:10;" d="&#10;&#9;&#9;&#9;M281.677,114.541c3.242,3.727,5.205,8.596,5.205,13.923c0,11.721-9.502,21.223-21.223,21.223&#10;&#9;&#9;&#9;c-11.721,0-21.223-9.502-21.223-21.223c0-4.865,1.637-9.347,4.39-12.927"/>
		<path style="fill:none;stroke:#000000;stroke-width:15;stroke-linecap:round;stroke-linejoin:round;stroke-miterlimit:10;" d="&#10;&#9;&#9;&#9;M157.151,143.655c0-11.721,9.502-21.223,21.223-21.223c11.721,0,21.223,9.502,21.223,21.223"/>
		
			<circle style="fill:none;stroke:#000000;stroke-width:15;stroke-linecap:round;stroke-linejoin:round;stroke-miterlimit:10;" cx="357.929" cy="28.723" r="21.223"/>
		
			<line style="fill:none;stroke:#000000;stroke-width:15;stroke-linecap:round;stroke-linejoin:round;stroke-miterlimit:10;" x1="357.929" y1="160.11" x2="357.929" y2="160.11"/>
		
			<line style="fill:none;stroke:#000000;stroke-width:15;stroke-linecap:round;stroke-linejoin:round;stroke-miterlimit:10;" x1="292.83" y1="20.45" x2="292.83" y2="20.45"/>
	</g>
</g>















</svg>
