<?xml version="1.0" encoding="UTF-8" standalone="no"?>
<!-- Created with Inkscape (http://www.inkscape.org/) -->

<svg
   version="1.1"
   id="svg2847"
   xml:space="preserve"
   width="682.66669"
   height="682.66669"
   viewBox="0 0 682.66669 682.66669"
   xmlns="http://www.w3.org/2000/svg"
   xmlns:svg="http://www.w3.org/2000/svg"><defs
     id="defs2851"><clipPath
       clipPathUnits="userSpaceOnUse"
       id="clipPath2861"><path
         d="M 0,512 H 512 V 0 H 0 Z"
         id="path2859" /></clipPath></defs><g
     id="g2853"
     transform="matrix(1.3333333,0,0,-1.3333333,0,682.66667)"><g
       id="g2855"><g
         id="g2857"
         clip-path="url(#clipPath2861)"><g
           id="g2863"
           transform="translate(256,503.5)"><path
             d="M 0,0 V 0 C -5.052,0 -10.055,0.768 -15,0.312 -87.915,-6.41 -148.125,-61.657 -160.06,-135.169 l -28.037,-172.689 C -204.11,-406.493 -127.963,-496 -28.037,-496 H 0 l 28.036,1 c 99.927,0 175.074,88.507 159.061,187.142 L 159.06,-135.169 C 146.315,-56.672 79.525,0 0,0"
             style="fill:#b67f5f;fill-opacity:1;fill-rule:nonzero;stroke:none"
             id="path2865" /></g><g
           id="g2867"
           transform="translate(444.0967,195.6416)"><path
             d="m 0,0 -28.037,172.689 c -12.744,78.498 -80.534,136.169 -160.06,136.169 -5.051,0 -10.054,-0.235 -15,-0.691 72.914,-6.722 133.125,-61.966 145.06,-135.478 L -30,0 c 16.013,-98.635 -60.134,-188.142 -160.061,-188.142 h 30 C -60.134,-188.142 16.013,-98.635 0,0"
             style="fill:#a06e50;fill-opacity:1;fill-rule:nonzero;stroke:none"
             id="path2869" /></g><g
           id="g2871"
           transform="translate(103.3438,367.1289)"><path
             d="m 0,0 c 4.339,26.728 15.646,51.918 32.7,72.848 16.701,20.496 38.497,36.467 63.03,46.188 3.851,1.526 5.736,5.885 4.21,9.735 -1.526,3.851 -5.884,5.739 -9.735,4.21 C 63.294,122.319 39.389,104.802 21.072,82.322 2.359,59.358 -10.047,31.723 -14.807,2.404 l -28.037,-172.689 c -9.226,-56.834 10.727,-113.944 53.374,-152.769 1.438,-1.308 3.245,-1.954 5.047,-1.954 2.037,0 4.069,0.825 5.548,2.451 2.788,3.063 2.566,7.807 -0.497,10.595 -38.884,35.399 -57.076,87.464 -48.665,139.273 z"
             style="fill:#000000;fill-opacity:1;fill-rule:nonzero;stroke:none"
             id="path2873" /></g><g
           id="g2875"
           transform="translate(229.0723,494.6543)"><path
             d="m 0,0 c 8.842,1.557 17.901,2.346 26.928,2.346 36.682,0 72.272,-13.091 100.213,-36.861 27.94,-23.769 46.565,-56.801 52.443,-93.01 l 22.775,-140.282 c 0.598,-3.681 3.782,-6.298 7.395,-6.298 0.398,0 0.804,0.032 1.211,0.097 4.089,0.664 6.864,4.517 6.201,8.606 l -22.775,140.281 C 187.941,-85.4 167.511,-49.165 136.86,-23.09 106.21,2.985 67.169,17.346 26.928,17.346 17.032,17.346 7.098,16.48 -2.6,14.773 -6.68,14.055 -9.404,10.166 -8.687,6.087 -7.968,2.008 -4.078,-0.717 0,0"
             style="fill:#000000;fill-opacity:1;fill-rule:nonzero;stroke:none"
             id="path2877" /></g><g
           id="g2879"
           transform="translate(451.5,196.8437)"><path
             d="m 0,0 c -0.663,4.088 -4.505,6.863 -8.605,6.201 -4.088,-0.664 -6.865,-4.516 -6.202,-8.605 7.281,-44.838 -5.426,-90.398 -34.861,-124.997 -29.435,-34.599 -72.369,-54.443 -117.795,-54.443 h -56.074 c -27.907,0 -55.203,7.467 -78.938,21.594 -3.558,2.119 -8.163,0.951 -10.28,-2.608 -2.119,-3.56 -0.951,-8.163 2.609,-10.281 26.053,-15.507 56.002,-23.705 86.609,-23.705 h 56.074 c 49.831,0 96.93,21.769 129.22,59.723 C -5.953,-99.166 7.985,-49.188 0,0"
             style="fill:#000000;fill-opacity:1;fill-rule:nonzero;stroke:none"
             id="path2881" /></g><g
           id="g2883"
           transform="translate(228.1221,224.3906)"><path
             d="M 0,0 V 0 C 0,-4.143 3.357,-7.5 7.5,-7.5 11.643,-7.5 15,-4.143 15,0 15,4.142 11.643,7.5 7.5,7.5 3.357,7.5 0,4.142 0,0"
             style="fill:#000000;fill-opacity:1;fill-rule:nonzero;stroke:none"
             id="path2885" /></g><g
           id="g2887"
           transform="translate(353.5488,146.8086)"><path
             d="M 0,0 V 0 C 0,-4.143 3.357,-7.5 7.5,-7.5 11.642,-7.5 15,-4.143 15,0 15,4.142 11.642,7.5 7.5,7.5 3.357,7.5 0,4.142 0,0"
             style="fill:#000000;fill-opacity:1;fill-rule:nonzero;stroke:none"
             id="path2889" /></g><g
           id="g2891"
           transform="translate(318.6221,298.4561)"><path
             d="m 0,0 v -0.001 c 0,-4.142 3.358,-7.5 7.5,-7.5 4.143,0 7.5,3.358 7.5,7.5 V 0 C 15,4.142 11.643,7.499 7.5,7.499 3.358,7.499 0,4.142 0,0"
             style="fill:#000000;fill-opacity:1;fill-rule:nonzero;stroke:none"
             id="path2893" /></g><g
           id="g2895"
           transform="translate(158.4512,121.7041)"><path
             d="M 0,0 V 0 C 0,-4.142 3.358,-7.5 7.5,-7.5 11.643,-7.5 15,-4.142 15,0 15,4.143 11.643,7.5 7.5,7.5 3.358,7.5 0,4.143 0,0"
             style="fill:#000000;fill-opacity:1;fill-rule:nonzero;stroke:none"
             id="path2897" /></g><g
           id="g2899"
           transform="translate(212.6221,343.6445)"><path
             d="M 0,0 C 4.143,0 7.5,3.357 7.5,7.5 7.5,11.642 4.143,15 0,15 -4.143,15 -7.5,11.642 -7.5,7.5 -7.5,3.357 -4.143,0 0,0"
             style="fill:#000000;fill-opacity:1;fill-rule:nonzero;stroke:none"
             id="path2901" /></g></g></g></g></svg>
