<?xml version="1.0" encoding="UTF-8" standalone="no"?>
<!-- Created with Inkscape (http://www.inkscape.org/) -->

<svg
   version="1.1"
   id="svg5916"
   xml:space="preserve"
   width="682.66669"
   height="682.66669"
   viewBox="0 0 682.66669 682.66669"
   xmlns="http://www.w3.org/2000/svg"
   xmlns:svg="http://www.w3.org/2000/svg"><defs
     id="defs5920"><clipPath
       clipPathUnits="userSpaceOnUse"
       id="clipPath5930"><path
         d="M 0,512 H 512 V 0 H 0 Z"
         id="path5928" /></clipPath></defs><g
     id="g5922"
     transform="matrix(1.3333333,0,0,-1.3333333,0,682.66667)"><g
       id="g5924"><g
         id="g5926"
         clip-path="url(#clipPath5930)"><g
           id="g5932"
           transform="translate(463.1797,256)"><path
             d="M 0,0 C 0,-5.689 -1.99,-11.38 -5.979,-16.03 L -37.05,-52.17 -81.439,-103.8 c -4.681,-5.43 -11.471,-8.55 -18.641,-8.55 h -289.66 c -13.56,0 -24.58,11.02 -24.58,24.58 V 87.77 c 0,13.56 11.02,24.58 24.58,24.58 h 289.66 c 7.17,0 13.971,-3.12 18.641,-8.56 L -37.06,52.17 -5.979,16.02 C -1.99,11.38 0,5.689 0,0"
             style="fill:#fd636f;fill-opacity:1;fill-rule:nonzero;stroke:none"
             id="path5934" /></g><g
           id="g5936"
           transform="translate(359.2402,176.6504)"><path
             d="M 0,0 H -277.38 V 158.699 H -0.01 L 68.22,79.35 Z M 97.96,95.369 66.88,131.52 22.5,183.14 c -4.67,5.44 -11.47,8.559 -18.64,8.559 H -285.8 c -13.56,0 -24.58,-11.019 -24.58,-24.58 V -8.42 c 0,-13.56 11.02,-24.58 24.58,-24.58 H 3.86 c 7.17,0 13.96,3.119 18.64,8.55 l 44.39,51.63 31.07,36.139 c 3.99,4.651 5.979,10.341 5.979,16.031 0,5.689 -1.989,11.379 -5.979,16.019"
             style="fill:#fe4855;fill-opacity:1;fill-rule:nonzero;stroke:none"
             id="path5938" /></g><g
           id="g5940"
           transform="translate(463.1797,256)"><path
             d="M 0,0 C 0,-5.689 -1.99,-11.38 -5.979,-16.03 L -37.05,-52.17 H -414.32 V 0 Z"
             style="fill:#fe4855;fill-opacity:1;fill-rule:nonzero;stroke:none"
             id="path5942" /></g><g
           id="g5944"
           transform="translate(426.1201,308.1699)"><path
             d="m 0,0 h -377.26 v 35.6 c 0,13.56 11.02,24.58 24.58,24.58 h 289.66 c 7.17,0 13.97,-3.119 18.64,-8.56 z"
             style="fill:#fe4855;fill-opacity:1;fill-rule:nonzero;stroke:none"
             id="path5946" /></g><g
           id="g5948"
           transform="translate(381.7402,359.79)"><path
             d="M 0,0 C -4.67,5.44 -11.47,8.56 -18.64,8.56 H -308.3 c -13.56,0 -24.58,-11.02 -24.58,-24.581 V -51.62 h 33 v 27.18 H -22.51 L 0.86,-51.62 H 44.38 Z M 45.72,-103.79 0.87,-155.96 h 43.52 l 31.07,36.14 c 3.99,4.65 5.979,10.341 5.979,16.03 z m -378.6,-52.17 h 33 v 52.17 h -33 z"
             style="fill:#fb2b3b;fill-opacity:1;fill-rule:nonzero;stroke:none"
             id="path5950" /></g><g
           id="g5952"
           transform="translate(442.04,253.0098)"><path
             d="m 0,0 -75.47,-87.77 c -0.87,-1.009 -2.13,-1.589 -3.47,-1.589 H -368.6 c -2.53,0 -4.58,2.049 -4.58,4.58 V 90.76 c 0,2.53 2.05,4.58 4.58,4.58 h 289.66 c 1.34,0 2.6,-0.58 3.47,-1.59 L 0,5.98 C 1.48,4.25 1.48,1.73 0,0 m 46.52,45.98 -75.46,87.77 c -12.54,14.58 -30.76,22.95 -50,22.95 H -368.6 c -36.36,0 -65.94,-29.58 -65.94,-65.94 V -84.779 c 0,-36.361 29.58,-65.941 65.94,-65.941 h 289.66 c 19.24,0 37.46,8.37 50,22.95 L 46.52,-40 c 10.28,11.96 15.94,27.221 15.94,42.99 0,15.77 -5.66,31.031 -15.94,42.99"
             style="fill:#feb541;fill-opacity:1;fill-rule:nonzero;stroke:none"
             id="path5954" /></g><g
           id="g5956"
           transform="translate(310.3901,110.96)"><path
             d="M 0,0 V -8.67 H -108.78 V 0 c 0,12.69 10.32,23 23,23 H -23 C -10.32,23 0,12.69 0,0"
             style="fill:#fea714;fill-opacity:1;fill-rule:nonzero;stroke:none"
             id="path5958" /></g><g
           id="g5960"
           transform="translate(310.3901,409.71)"><path
             d="m 0,0 v -8.67 c 0,-12.69 -10.32,-23 -23,-23 h -62.78 c -12.68,0 -23,10.31 -23,23 V 0 Z"
             style="fill:#fea714;fill-opacity:1;fill-rule:nonzero;stroke:none"
             id="path5962" /></g><g
           id="g5964"
           transform="translate(504.5,256)"><path
             d="m 0,0 c 0,-15.77 -5.66,-31.03 -15.94,-42.99 l -75.46,-87.77 c -12.54,-14.58 -30.76,-22.95 -50,-22.95 h -27.5 c 19.24,0 37.46,8.37 50,22.95 l 75.46,87.77 c 10.28,11.96 15.94,27.22 15.94,42.99 0,15.77 -5.66,31.03 -15.94,42.99 l -75.46,87.77 c -12.54,14.58 -30.76,22.95 -50,22.95 h 27.5 c 19.24,0 37.46,-8.37 50,-22.95 L -15.94,42.99 C -5.66,31.03 0,15.77 0,0"
             style="fill:#fea714;fill-opacity:1;fill-rule:nonzero;stroke:none"
             id="path5966" /></g><g
           id="g5968"
           transform="translate(279.333,163.6484)"><path
             d="m 0,0 h -205.896 c -2.525,0 -4.579,2.055 -4.579,4.579 v 175.545 c 0,2.524 2.054,4.579 4.579,4.579 H 83.768 c 1.336,0 2.601,-0.581 3.472,-1.594 l 75.462,-87.772 c 1.488,-1.73 1.488,-4.241 0,-5.971 L 87.24,1.594 C 86.369,0.581 85.104,0 83.768,0 H 34 m 121.779,197.506 -22.012,25.603 c -12.539,14.586 -30.764,22.952 -49.999,22.952 h -289.664 c -36.358,0 -65.937,-29.58 -65.937,-65.937 v -31.105 m 0,-34.001 V 4.579 c 0,-36.357 29.579,-65.936 65.937,-65.936 H 83.768 c 19.235,0 37.46,8.365 49.999,22.951 l 75.462,87.771 c 10.278,11.955 15.938,27.221 15.938,42.987 0,15.765 -5.66,31.031 -15.938,42.986 l -31.221,36.313"
             style="fill:none;stroke:#000000;stroke-width:15;stroke-linecap:round;stroke-linejoin:round;stroke-miterlimit:10;stroke-dasharray:none;stroke-opacity:1"
             id="path5970" /></g><g
           id="g5972"
           transform="translate(68.8579,308.1748)"><path
             d="M 0,0 H 325.949"
             style="fill:none;stroke:#000000;stroke-width:15;stroke-linecap:round;stroke-linejoin:round;stroke-miterlimit:10;stroke-dasharray:none;stroke-opacity:1"
             id="path5974" /></g><g
           id="g5976"
           transform="translate(68.8579,256)"><path
             d="M 0,0 H 373.177"
             style="fill:none;stroke:#000000;stroke-width:15;stroke-linecap:round;stroke-linejoin:round;stroke-miterlimit:10;stroke-dasharray:none;stroke-opacity:1"
             id="path5978" /></g><g
           id="g5980"
           transform="translate(68.8579,203.8252)"><path
             d="M 0,0 H 325.949"
             style="fill:none;stroke:#000000;stroke-width:15;stroke-linecap:round;stroke-linejoin:round;stroke-miterlimit:10;stroke-dasharray:none;stroke-opacity:1"
             id="path5982" /></g><g
           id="g5984"
           transform="translate(116.3335,376.667)"><path
             d="M 0,0 V 0 C -8.837,0 -16,7.163 -16,16 V 33.042 H 16 V 16 C 16,7.163 8.836,0 0,0"
             style="fill:#c8f0fe;fill-opacity:1;fill-rule:nonzero;stroke:none"
             id="path5986" /></g><g
           id="g5988"
           transform="translate(116.3335,376.667)"><path
             d="M 0,0 V 0 C -8.837,0 -16,7.163 -16,16 V 33.042 H 16 V 16 C 16,7.163 8.836,0 0,0 Z"
             style="fill:none;stroke:#000000;stroke-width:15;stroke-linecap:round;stroke-linejoin:round;stroke-miterlimit:10;stroke-dasharray:none;stroke-opacity:1"
             id="path5990" /></g><g
           id="g5992"
           transform="translate(116.3335,135.333)"><path
             d="M 0,0 V 0 C 8.836,0 16,-7.163 16,-16 V -33.042 H -16 V -16 c 0,8.837 7.163,16 16,16"
             style="fill:#c8f0fe;fill-opacity:1;fill-rule:nonzero;stroke:none"
             id="path5994" /></g><g
           id="g5996"
           transform="translate(116.3335,135.333)"><path
             d="M 0,0 V 0 C 8.836,0 16,-7.163 16,-16 V -33.042 H -16 V -16 c 0,8.837 7.163,16 16,16 z"
             style="fill:none;stroke:#000000;stroke-width:15;stroke-linecap:round;stroke-linejoin:round;stroke-miterlimit:10;stroke-dasharray:none;stroke-opacity:1"
             id="path5998" /></g><g
           id="g6000"
           transform="translate(287.3862,83.6172)"><path
             d="m 0,0 h -62.772 c -5.523,0 -10,4.478 -10,10 v 17.347 c 0,5.523 4.477,10 10,10 H 0 c 5.523,0 10,-4.477 10,-10 L 10,10 C 10,4.478 5.523,0 0,0"
             style="fill:#bb7c63;fill-opacity:1;fill-rule:nonzero;stroke:none"
             id="path6002" /></g><g
           id="g6004"
           transform="translate(297.3901,110.96)"><path
             d="m 0,0 v -17.34 c 0,-5.53 -4.48,-10 -10,-10 h -19.03 c 5.52,0 10,4.47 10,10 V 0 c 0,5.53 -4.48,10 -10,10 H -10 C -4.48,10 0,5.53 0,0"
             style="fill:#aa6a50;fill-opacity:1;fill-rule:nonzero;stroke:none"
             id="path6006" /></g><g
           id="g6008"
           transform="translate(287.3862,391.0361)"><path
             d="m 0,0 h -62.772 c -5.523,0 -10,4.477 -10,10 v 17.347 c 0,5.522 4.477,10 10,10 H 0 c 5.523,0 10,-4.478 10,-10 L 10,10 C 10,4.477 5.523,0 0,0"
             style="fill:#bb7c63;fill-opacity:1;fill-rule:nonzero;stroke:none"
             id="path6010" /></g><g
           id="g6012"
           transform="translate(297.3901,418.3799)"><path
             d="m 0,0 v -17.34 c 0,-5.53 -4.48,-10 -10,-10 h -19.03 c 5.52,0 10,4.47 10,10 V 0 c 0,5.53 -4.48,10 -10,10 H -10 C -4.48,10 0,5.53 0,0"
             style="fill:#aa6a50;fill-opacity:1;fill-rule:nonzero;stroke:none"
             id="path6014" /></g><g
           id="g6016"
           transform="translate(287.3862,83.6172)"><path
             d="m 0,0 h -62.772 c -5.523,0 -10,4.478 -10,10 v 17.347 c 0,5.523 4.477,10 10,10 H 0 c 5.523,0 10,-4.477 10,-10 L 10,10 C 10,4.478 5.523,0 0,0 Z"
             style="fill:none;stroke:#000000;stroke-width:15;stroke-linecap:round;stroke-linejoin:round;stroke-miterlimit:10;stroke-dasharray:none;stroke-opacity:1"
             id="path6018" /></g><g
           id="g6020"
           transform="translate(287.3862,391.0361)"><path
             d="m 0,0 h -62.772 c -5.523,0 -10,4.477 -10,10 v 17.347 c 0,5.522 4.477,10 10,10 H 0 c 5.523,0 10,-4.478 10,-10 L 10,10 C 10,4.477 5.523,0 0,0 Z"
             style="fill:none;stroke:#000000;stroke-width:15;stroke-linecap:round;stroke-linejoin:round;stroke-miterlimit:10;stroke-dasharray:none;stroke-opacity:1"
             id="path6022" /></g><g
           id="g6024"
           transform="translate(271.4731,82.2041)"><path
             d="m 0,0 v -9.474 c 0,-8.545 -6.928,-15.472 -15.473,-15.472 -8.546,0 -15.473,6.927 -15.473,15.472 V 0"
             style="fill:none;stroke:#000000;stroke-width:15;stroke-linecap:round;stroke-linejoin:round;stroke-miterlimit:10;stroke-dasharray:none;stroke-opacity:1"
             id="path6026" /></g><g
           id="g6028"
           transform="translate(240.5269,429.7959)"><path
             d="m 0,0 v 9.474 c 0,8.545 6.928,15.472 15.473,15.472 8.546,0 15.473,-6.927 15.473,-15.472 V 0"
             style="fill:none;stroke:#000000;stroke-width:15;stroke-linecap:round;stroke-linejoin:round;stroke-miterlimit:10;stroke-dasharray:none;stroke-opacity:1"
             id="path6030" /></g></g></g></g></svg>
