<?xml version="1.0" encoding="UTF-8" standalone="no"?>
<!-- Created with Inkscape (http://www.inkscape.org/) -->

<svg
   version="1.1"
   id="svg7935"
   xml:space="preserve"
   width="682.66669"
   height="682.66669"
   viewBox="0 0 682.66669 682.66669"
   xmlns="http://www.w3.org/2000/svg"
   xmlns:svg="http://www.w3.org/2000/svg"><defs
     id="defs7939"><clipPath
       clipPathUnits="userSpaceOnUse"
       id="clipPath7949"><path
         d="M 0,512 H 512 V 0 H 0 Z"
         id="path7947" /></clipPath></defs><g
     id="g7941"
     transform="matrix(1.3333333,0,0,-1.3333333,0,682.66667)"><g
       id="g7943"><g
         id="g7945"
         clip-path="url(#clipPath7949)"><g
           id="g7951"
           transform="translate(137.2324,335.707)"><path
             d="m 0,0 c -4.52,-1.299 -8.898,-2.457 -10.903,-6.017 l -111.858,-250.385 c -2.739,-6.129 -2.966,-12.881 3.023,-16.75 l 32.766,-21.159 c 6.017,-3.869 16.158,-3.473 18.813,2.684 L 8.954,-113.131 V 2.515 Z"
             style="fill:#ffd772;fill-opacity:1;fill-rule:evenodd;stroke:none"
             id="path7953" /></g><path
           d="m 176.185,124.981 h 40.11 V 91.479 h -40.11 z m 49.912,193.806 c -8.588,9.321 -18.05,21.044 -27.739,34.264 L 146.187,338.222 V 222.576 L 136.215,18.403 C 135.933,12.415 141.724,7.5 148.446,7.5 h 107.564 1.553 v 287.955 c -6.864,0 -18.134,8.813 -31.466,23.332"
           style="fill:#ffd772;fill-opacity:1;fill-rule:evenodd;stroke:none"
           id="path7955" /><path
           d="m 295.696,124.981 h 40.139 V 91.479 h -40.139 z m 70.137,213.241 -49.573,14.094 c -9.52,-12.936 -18.784,-24.377 -27.23,-33.529 -4.491,-4.915 -8.757,-9.152 -12.683,-12.627 -7.74,-6.836 -14.208,-10.705 -18.784,-10.705 V 7.5 h 105.982 c 6.723,0 12.541,4.915 12.23,10.903 l -9.942,204.173 z"
           style="fill:#ffd772;fill-opacity:1;fill-rule:evenodd;stroke:none"
           id="path7957" /><g
           id="g7959"
           transform="translate(497.5186,79.3047)"><path
             d="m 0,0 -111.856,250.386 c -2.006,3.559 -6.384,4.718 -10.904,6.016 l -8.926,2.515 -0.028,-56.41 v -59.236 l 77.113,-178.496 c 2.656,-6.157 12.825,-6.552 18.813,-2.683 l 32.766,21.158 c 2.965,1.893 4.406,4.491 4.773,7.372 0.142,1.073 0.142,2.203 0,3.333 C 1.525,-4.039 0.876,-1.977 0,0"
             style="fill:#ffd772;fill-opacity:1;fill-rule:evenodd;stroke:none"
             id="path7961" /></g><path
           d="M 335.835,124.981 H 295.696 V 91.479 h 40.139 z"
           style="fill:#b1e4f9;fill-opacity:1;fill-rule:evenodd;stroke:none"
           id="path7963" /><path
           d="m 216.295,124.981 h -40.11 V 91.479 h 40.11 z"
           style="fill:#b1e4f9;fill-opacity:1;fill-rule:evenodd;stroke:none"
           id="path7965" /><g
           id="g7967"
           transform="translate(213.4414,496.6611)"><path
             d="m 0,0 c -4.717,-2.062 -8.728,-4.576 -11.778,-7.457 -23.361,-22.118 -50.845,-63.755 -29.66,-97.341 8.672,-13.757 17.598,-26.92 26.355,-38.812 9.688,-13.22 19.15,-24.943 27.738,-34.264 4.491,-4.915 8.756,-9.152 12.683,-12.627 -4.067,5.339 -13.672,28.248 -22.428,52.004 -9.152,24.857 -17.4,50.676 -17.4,58.161 0,70.591 117.223,71.636 117.223,0 0,-7.824 -8.389,-33.981 -17.654,-58.98 -8.643,-23.332 -18.05,-45.648 -22.174,-51.185 3.927,3.475 8.193,7.712 12.684,12.627 8.445,9.152 17.71,20.593 27.229,33.529 8.898,12.09 18.022,25.48 26.891,39.547 21.186,33.586 -6.327,75.223 -29.659,97.341 C 96.972,-4.576 92.96,-2.062 88.271,0 64.601,10.452 23.643,10.452 0,0"
             style="fill:#fed1a3;fill-opacity:1;fill-rule:evenodd;stroke:none"
             id="path7969" /></g><g
           id="g7971"
           transform="translate(316.1748,416.3252)"><path
             d="m 0,0 c 0,71.636 -117.224,70.591 -117.224,0 0,-7.485 8.248,-33.304 17.401,-58.161 8.756,-23.756 18.36,-46.665 22.427,-52.004 7.74,-6.836 14.237,-10.705 18.785,-10.705 4.575,0 11.044,3.869 18.783,10.705 4.124,5.537 13.53,27.852 22.174,51.185 C -8.39,-33.981 0,-7.824 0,0"
             style="fill:#ffbc85;fill-opacity:1;fill-rule:evenodd;stroke:none"
             id="path7973" /></g><g
           id="g7975"
           transform="translate(146.1865,280.3984)"><path
             d="m 0,0 -101.66,-235.301 5.734,-3.701 c 6.017,-3.869 16.157,-3.474 18.813,2.684 L 0,-57.822 Z"
             style="fill:#fdb440;fill-opacity:1;fill-rule:evenodd;stroke:none"
             id="path7977" /></g><g
           id="g7979"
           transform="translate(468.6221,45.832)"><path
             d="M 0,0 -102.817,234.566 V 176.744 L -25.704,-1.752 c 2.655,-6.157 12.824,-6.553 18.812,-2.684 z"
             style="fill:#fdb440;fill-opacity:1;fill-rule:evenodd;stroke:none"
             id="path7981" /></g><g
           id="g7983"
           transform="translate(316.1748,416.3252)"><path
             d="m 0,0 c 0,57.88 -76.492,68.303 -105.896,32.965 34.178,10.367 78.751,-6.157 78.751,-50.337 0,-5.423 -4.011,-19.66 -9.576,-36.185 -2.457,-7.344 -5.197,-15.112 -8.05,-22.796 -6.383,-17.23 -13.191,-33.897 -17.964,-43.67 1.497,-0.565 2.881,-0.847 4.124,-0.847 4.575,0 11.044,3.869 18.783,10.705 4.124,5.537 13.53,27.852 22.174,51.185 C -8.39,-33.981 0,-7.824 0,0"
             style="fill:#f5a96c;fill-opacity:1;fill-rule:evenodd;stroke:none"
             id="path7985" /></g><g
           id="g7987"
           transform="translate(343.1504,391.8633)"><path
             d="m 0,0 c 21.186,33.586 -6.327,75.223 -29.659,97.341 -0.988,0.931 -2.062,1.807 -3.248,2.655 -2.458,1.779 -5.339,3.39 -8.531,4.802 -16.383,7.231 -41.071,9.463 -62.538,6.667 3.616,-3.531 7.062,-7.373 10.338,-11.469 5.424,-6.808 10.311,-14.321 14.575,-22.457 26.976,-2.316 52.087,-19.914 52.087,-53.077 0,-7.824 -8.389,-33.982 -17.654,-58.981 -8.643,-23.332 -18.05,-45.647 -22.174,-51.184 3.927,3.474 8.193,7.712 12.684,12.627 8.445,9.152 17.71,20.593 27.229,33.529 C -17.993,-27.457 -8.869,-14.067 0,0"
             style="fill:#ffbc85;fill-opacity:1;fill-rule:evenodd;stroke:none"
             id="path7989" /></g><g
           id="g7991"
           transform="translate(365.833,222.5762)"><path
             d="m 0,0 v 115.646 m -219.646,0 V 0"
             style="fill:none;stroke:#000000;stroke-width:15;stroke-linecap:round;stroke-linejoin:round;stroke-miterlimit:10;stroke-dasharray:none;stroke-opacity:1"
             id="path7993" /></g><g
           id="g7995"
           transform="translate(172.0039,391.8633)"><path
             d="m 0,0 c -21.186,33.586 6.299,75.223 29.659,97.341 21.524,20.394 90.277,20.394 111.828,0 C 164.819,75.223 192.332,33.586 171.146,0 137.815,-52.795 100.869,-96.408 85.56,-96.408 70.277,-96.408 33.303,-52.795 0,0 Z"
             style="fill:none;stroke:#000000;stroke-width:15;stroke-linecap:round;stroke-linejoin:round;stroke-miterlimit:10;stroke-dasharray:none;stroke-opacity:1"
             id="path7997" /></g><g
           id="g7999"
           transform="translate(86.6709,240.9092)"><path
             d="m 0,0 39.658,88.781 c 2.005,3.56 6.384,4.718 10.904,6.017 l 61.126,17.344 m 240.689,-142.875 58.471,-130.871 c 2.74,-6.129 2.994,-12.881 -3.023,-16.75 l -32.765,-21.159 c -5.989,-3.869 -16.158,-3.473 -18.813,2.684 l -77.113,178.496 9.97,-204.173 c 0.311,-5.988 -5.507,-10.903 -12.23,-10.903 H 169.339 61.775 c -6.722,0 -12.513,4.915 -12.231,10.903 l 9.972,204.173 -77.114,-178.496 c -2.655,-6.157 -12.796,-6.553 -18.812,-2.684 l -32.767,21.159 c -5.988,3.869 -5.761,10.621 -3.022,16.75 l 58.527,131.04 m 243.261,141.971 58.499,-16.609 c 4.519,-1.299 8.897,-2.457 10.903,-6.017 h 0.029 L 338.649,0"
             style="fill:none;stroke:#000000;stroke-width:15;stroke-linecap:round;stroke-linejoin:round;stroke-miterlimit:10;stroke-dasharray:none;stroke-opacity:1"
             id="path8001" /></g><g
           id="g8003"
           transform="translate(276.3467,306.1602)"><path
             d="m 0,0 c 8.531,11.44 39.828,95.024 39.828,110.165 0,71.636 -117.224,70.591 -117.224,0 0,-14.66 31.467,-99.262 39.829,-110.165"
             style="fill:none;stroke:#000000;stroke-width:15;stroke-linecap:round;stroke-linejoin:round;stroke-miterlimit:10;stroke-dasharray:none;stroke-opacity:1"
             id="path8005" /></g><path
           d="m 176.185,91.479 h 40.11 v 33.502 h -40.11 z"
           style="fill:none;stroke:#000000;stroke-width:15;stroke-linecap:round;stroke-linejoin:round;stroke-miterlimit:10;stroke-dasharray:none;stroke-opacity:1"
           id="path8007" /><path
           d="m 295.696,91.479 h 40.139 v 33.502 h -40.139 z"
           style="fill:none;stroke:#000000;stroke-width:15;stroke-linecap:round;stroke-linejoin:round;stroke-miterlimit:10;stroke-dasharray:none;stroke-opacity:1"
           id="path8009" /><g
           id="g8011"
           transform="translate(257.5635,7.5)"><path
             d="M 0,0 V 287.955"
             style="fill:none;stroke:#000000;stroke-width:15;stroke-linecap:round;stroke-linejoin:round;stroke-miterlimit:10;stroke-dasharray:none;stroke-opacity:1"
             id="path8013" /></g><g
           id="g8015"
           transform="translate(176.1846,151.4775)"><path
             d="M 0,0 H 40.11"
             style="fill:none;stroke:#000000;stroke-width:15;stroke-linecap:round;stroke-linejoin:round;stroke-miterlimit:10;stroke-dasharray:none;stroke-opacity:1"
             id="path8017" /></g><g
           id="g8019"
           transform="translate(295.6963,151.4775)"><path
             d="M 0,0 H 40.139"
             style="fill:none;stroke:#000000;stroke-width:15;stroke-linecap:round;stroke-linejoin:round;stroke-miterlimit:10;stroke-dasharray:none;stroke-opacity:1"
             id="path8021" /></g><g
           id="g8023"
           transform="translate(289.0303,243.7617)"><path
             d="M 0,0 V 75.025"
             style="fill:none;stroke:#000000;stroke-width:15;stroke-linecap:round;stroke-linejoin:round;stroke-miterlimit:10;stroke-dasharray:none;stroke-opacity:1"
             id="path8025" /></g><g
           id="g8027"
           transform="translate(226.0967,243.7617)"><path
             d="M 0,0 V 75.025"
             style="fill:none;stroke:#000000;stroke-width:15;stroke-linecap:round;stroke-linejoin:round;stroke-miterlimit:10;stroke-dasharray:none;stroke-opacity:1"
             id="path8029" /></g></g></g></g></svg>
