<?xml version="1.0" encoding="UTF-8"?>
<svg xmlns="http://www.w3.org/2000/svg" xmlns:xlink="http://www.w3.org/1999/xlink" version="1.1" id="Capa_1" x="0px" y="0px" viewBox="0 0 512 512" style="enable-background:new 0 0 512 512;" xml:space="preserve" width="512" height="512">
<g id="_x31_7_Recorder_00000131335538924433753480000009010011885718218677_">
	<path style="fill:#FFE177;" d="M91.266,442.698l0-21.965l-21.964,0l-17.873,17.873c-6.065,6.065-15.899,6.065-21.964,0l0,0&#10;&#9;&#9;l17.873,26.056l26.056,17.873h0c-6.065-6.065-6.065-15.899,0-21.965L91.266,442.698z"/>
	<polygon style="fill:#FFE177;" points="102.248,365.823 113.231,398.769 146.177,409.752 343.858,212.071 332.876,179.124 &#10;&#9;&#9;299.929,168.142 &#9;"/>
	<path style="fill:#FFD15B;" d="M332.876,179.124l-32.947-10.982l-12,12l5.123,5.123c11.491,11.491,11.491,30.121,0,41.612&#10;&#9;&#9;L119.177,400.752l27,9l197.681-197.681L332.876,179.124z"/>
	<polygon style="fill:#FFE177;" points="442.698,113.231 431.716,80.284 398.769,69.302 343.858,124.213 354.84,157.16 &#10;&#9;&#9;387.787,168.142 &#9;"/>
	<path style="fill:#FFD15B;" d="M431.716,80.284l-32.947-10.982l-12,12l1.18,1.18c13.668,13.668,13.668,35.829,0,49.497&#10;&#9;&#9;l-27.162,27.163l27,9l54.911-54.911L431.716,80.284z"/>
	<path style="fill:#FFF3BE;" d="M496.377,46.686l8.123-8.123L473.438,7.5l-8.123,8.123c-5.603,5.603-13.01,8.905-20.885,9.776&#10;&#9;&#9;c-10.736,1.188-20.982,6.885-27.577,16.777l-18.083,27.125l43.929,43.929l27.125-18.083c9.892-6.595,15.589-16.841,16.777-27.577&#10;&#9;&#9;C487.472,59.695,490.774,52.288,496.377,46.686z"/>
	<path style="fill:#FFF3BE;" d="M68.926,420.358l22.716,22.716c5.858,5.858,15.355,5.858,21.213,0l33.322-33.322l-43.929-43.929&#10;&#9;&#9;l-33.322,33.322C63.068,405.003,63.068,414.5,68.926,420.358z"/>
	<path style="fill:#FFF3BE;" d="M365.279,212.589c3.835-3.49,5.504-8.404,5.007-13.133c-0.811-7.723,1.618-15.431,7.109-20.922&#10;&#9;&#9;l10.392-10.392l-43.929-43.929l-10.392,10.392c-5.491,5.491-13.199,7.92-20.922,7.109c-4.729-0.497-9.643,1.172-13.133,5.007&#10;&#9;&#9;c-5.629,6.185-5.085,15.818,0.828,21.731l43.309,43.309C349.461,217.674,359.094,218.218,365.279,212.589z"/>
	
		<rect x="9.384" y="456.022" transform="matrix(0.7071 0.7071 -0.7071 0.7071 345.2851 109.5146)" style="fill:#FFF3BE;" width="62.125" height="31.062"/>
	<path style="fill:#FFF0AD;" d="M473.438,7.5l-8.123,8.123c-1.309,1.309-2.716,2.492-4.205,3.548l5.268,5.268&#10;&#9;&#9;c4.486,4.486,4.486,11.76,0,16.246c-5.603,5.603-8.905,13.01-9.776,20.885c-1.188,10.736-6.885,20.982-16.777,27.577l-12.725,8.483&#10;&#9;&#9;l15.6,15.6l27.125-18.083c9.892-6.595,15.589-16.841,16.777-27.577c0.871-7.876,4.174-15.282,9.776-20.885l8.123-8.123L473.438,7.5&#10;&#9;&#9;z"/>
	<path style="fill:#FFF0AD;" d="M102.248,365.823l-12,12l1.18,1.18c13.668,13.668,13.668,35.829,0,49.497l-7.18,7.18l7.393,7.393&#10;&#9;&#9;c5.858,5.858,15.355,5.858,21.213,0l33.322-33.322L102.248,365.823z"/>
	<path style="fill:#FFF0AD;" d="M387.787,168.142l-43.929-43.929l-10.392,10.392c-0.54,0.54-1.103,1.051-1.684,1.532l15.613,15.613&#10;&#9;&#9;c5.739,5.739,5.739,15.045,0,20.784c-5.472,5.472-7.964,13.153-7.117,20.845c0.449,4.076-0.713,8.295-3.484,11.628l6.754,6.754&#10;&#9;&#9;c5.913,5.913,15.546,6.457,21.731,0.828c3.835-3.49,5.504-8.404,5.007-13.133c-0.811-7.723,1.618-15.431,7.109-20.922&#10;&#9;&#9;L387.787,168.142z"/>
	
		<line style="fill:none;stroke:#000000;stroke-width:15;stroke-linecap:round;stroke-linejoin:round;stroke-miterlimit:10;" x1="387.787" y1="58.319" x2="453.681" y2="124.213"/>
	<path style="fill:none;stroke:#000000;stroke-width:15;stroke-linecap:round;stroke-linejoin:round;stroke-miterlimit:10;" d="&#10;&#9;&#9;M496.377,46.686l8.123-8.123L473.438,7.5l-8.123,8.123c-5.603,5.603-13.01,8.905-20.885,9.776&#10;&#9;&#9;c-10.736,1.188-20.982,6.885-27.577,16.777l-18.083,27.125l43.929,43.929l27.125-18.083c9.892-6.595,15.589-16.841,16.777-27.577&#10;&#9;&#9;C487.472,59.695,490.774,52.288,496.377,46.686z"/>
	
		<line style="fill:none;stroke:#000000;stroke-width:15;stroke-linecap:round;stroke-linejoin:round;stroke-miterlimit:10;" x1="398.769" y1="113.231" x2="387.787" y2="124.213"/>
	<path style="fill:none;stroke:#000000;stroke-width:15;stroke-linecap:round;stroke-linejoin:round;stroke-miterlimit:10;" d="&#10;&#9;&#9;M102.248,365.823l-33.322,33.322c-5.858,5.858-5.858,15.355,0,21.213l22.716,22.716c5.858,5.858,15.355,5.858,21.213,0&#10;&#9;&#9;l33.322-33.322"/>
	
		<line style="fill:none;stroke:#000000;stroke-width:15;stroke-linecap:round;stroke-linejoin:round;stroke-miterlimit:10;" x1="110.679" y1="374.253" x2="91.266" y2="354.84"/>
	
		<line style="fill:none;stroke:#000000;stroke-width:15;stroke-linecap:round;stroke-linejoin:round;stroke-miterlimit:10;" x1="157.16" y1="420.734" x2="135.773" y2="399.347"/>
	<path style="fill:none;stroke:#000000;stroke-width:15;stroke-linecap:round;stroke-linejoin:round;stroke-miterlimit:10;" d="&#10;&#9;&#9;M365.279,212.589c3.835-3.49,5.504-8.404,5.007-13.133c-0.811-7.723,1.618-15.431,7.109-20.922l10.392-10.392l-43.929-43.929&#10;&#9;&#9;l-10.392,10.392c-5.491,5.491-13.199,7.92-20.922,7.109c-4.729-0.497-9.643,1.172-13.133,5.007&#10;&#9;&#9;c-5.629,6.185-5.085,15.818,0.828,21.731l43.309,43.309C349.461,217.674,359.094,218.218,365.279,212.589z"/>
	
		<line style="fill:none;stroke:#000000;stroke-width:15;stroke-linecap:round;stroke-linejoin:round;stroke-miterlimit:10;" x1="332.876" y1="113.231" x2="398.769" y2="179.124"/>
	
		<line style="fill:none;stroke:#000000;stroke-width:15;stroke-linecap:round;stroke-linejoin:round;stroke-miterlimit:10;" x1="288.947" y1="157.16" x2="354.84" y2="223.053"/>
	
		<line style="fill:none;stroke:#000000;stroke-width:15;stroke-linecap:round;stroke-linejoin:round;stroke-miterlimit:10;" x1="338.367" y1="162.651" x2="349.349" y2="173.633"/>
	
		<rect x="9.384" y="456.022" transform="matrix(0.7071 0.7071 -0.7071 0.7071 345.2851 109.5146)" style="fill:none;stroke:#000000;stroke-width:15;stroke-linecap:round;stroke-linejoin:round;stroke-miterlimit:10;" width="62.125" height="31.062"/>
	<g>
		<g>
			
				<line style="fill:none;stroke:#000000;stroke-width:15;stroke-linecap:round;stroke-linejoin:round;stroke-miterlimit:10;" x1="101.906" y1="409.71" x2="101.906" y2="409.71"/>
		</g>
	</g>
	<g>
		<g>
			
				<line style="fill:none;stroke:#000000;stroke-width:15;stroke-linecap:round;stroke-linejoin:round;stroke-miterlimit:10;" x1="146.222" y1="365.778" x2="146.222" y2="365.778"/>
		</g>
	</g>
	<g>
		<g>
			
				<line style="fill:none;stroke:#000000;stroke-width:15;stroke-linecap:round;stroke-linejoin:round;stroke-miterlimit:10;" x1="179.124" y1="332.876" x2="179.124" y2="332.876"/>
		</g>
	</g>
	<g>
		<g>
			
				<line style="fill:none;stroke:#000000;stroke-width:15;stroke-linecap:round;stroke-linejoin:round;stroke-miterlimit:10;" x1="212.083" y1="299.917" x2="212.083" y2="299.917"/>
		</g>
	</g>
	<g>
		<g>
			
				<line style="fill:none;stroke:#000000;stroke-width:15;stroke-linecap:round;stroke-linejoin:round;stroke-miterlimit:10;" x1="244.963" y1="267.037" x2="244.963" y2="267.037"/>
		</g>
	</g>
	<g>
		<g>
			
				<line style="fill:none;stroke:#000000;stroke-width:15;stroke-linecap:round;stroke-linejoin:round;stroke-miterlimit:10;" x1="277.993" y1="234.007" x2="277.993" y2="234.007"/>
		</g>
	</g>
	
		<line style="fill:none;stroke:#000000;stroke-width:15;stroke-linecap:round;stroke-linejoin:round;stroke-miterlimit:10;" x1="299.929" y1="168.142" x2="102.248" y2="365.823"/>
	
		<line style="fill:none;stroke:#000000;stroke-width:15;stroke-linecap:round;stroke-linejoin:round;stroke-miterlimit:10;" x1="334.115" y1="221.814" x2="343.858" y2="212.071"/>
	
		<line style="fill:none;stroke:#000000;stroke-width:15;stroke-linecap:round;stroke-linejoin:round;stroke-miterlimit:10;" x1="146.177" y1="409.752" x2="309.333" y2="246.596"/>
	
		<line style="fill:none;stroke:#000000;stroke-width:15;stroke-linecap:round;stroke-linejoin:round;stroke-miterlimit:10;" x1="387.787" y1="168.142" x2="442.698" y2="113.231"/>
	
		<line style="fill:none;stroke:#000000;stroke-width:15;stroke-linecap:round;stroke-linejoin:round;stroke-miterlimit:10;" x1="352.969" y1="115.102" x2="343.858" y2="124.213"/>
	
		<line style="fill:none;stroke:#000000;stroke-width:15;stroke-linecap:round;stroke-linejoin:round;stroke-miterlimit:10;" x1="398.769" y1="69.302" x2="377.851" y2="90.22"/>
	<path style="fill:none;stroke:#000000;stroke-width:15;stroke-linecap:round;stroke-linejoin:round;stroke-miterlimit:10;" d="&#10;&#9;&#9;M73.394,482.535c-6.065-6.065-6.065-15.899,0-21.965l17.873-17.873"/>
	<path style="fill:none;stroke:#000000;stroke-width:15;stroke-linecap:round;stroke-linejoin:round;stroke-miterlimit:10;" d="&#10;&#9;&#9;M69.302,420.734l-17.873,17.873c-6.065,6.065-15.899,6.065-21.964,0"/>
</g>















</svg>
