<?xml version="1.0" encoding="UTF-8"?>
<svg xmlns="http://www.w3.org/2000/svg" xmlns:xlink="http://www.w3.org/1999/xlink" version="1.1" id="Capa_1" x="0px" y="0px" viewBox="0 0 512 512" style="enable-background:new 0 0 512 512;" xml:space="preserve" width="512" height="512">
<g>
	<g>
		<path style="fill:#FDB441;" d="M442.191,290.3c-1.442-5.216-2.229-10.704-2.229-16.379c0-18.803,8.465-35.622,21.79-46.869&#10;&#9;&#9;&#9;c5.836-4.926,4.539-14.283-2.322-17.639l-78.286-38.303c-16.708-8.175-36.894-2.001-46.171,14.121l-8.369,14.544&#10;&#9;&#9;&#9;c-5.549,9.643-2.833,22.059,6.433,28.217c18.448,12.259,30.098,33.151,30.098,56.144v7.615L442.191,290.3z"/>
		<path style="fill:#FE9738;" d="M459.43,209.412l-78.286-38.303c-16.103-7.879-35.432-2.426-45.116,12.412h5.414&#10;&#9;&#9;&#9;c39.076,0,70.753,31.677,70.753,70.753v31.366l29.138,1.134c-0.889-4.146-1.371-8.443-1.371-12.854&#10;&#9;&#9;&#9;c0-18.803,8.465-35.622,21.79-46.869C467.588,222.125,466.291,212.769,459.43,209.412z"/>
		<path style="fill:#FDB441;" d="M32.001,178.966v106.675h103.524v-11.262c0-50.024-30.545-94.977-77.053-113.399&#10;&#9;&#9;&#9;C45.773,155.949,32.001,165.307,32.001,178.966z"/>
		<rect x="184.847" y="264.587" style="fill:#EEECEE;" width="161.496" height="35.702"/>
		<path style="fill:#B3DAFE;" d="M184.847,264.587H31.377c-13.187,0-23.877,10.69-23.877,23.877&#10;&#9;&#9;&#9;c0,13.187,10.69,23.877,23.877,23.877h10.826c10.198,0,18.465,8.267,18.465,18.465v52.611h85.956v-47.647&#10;&#9;&#9;&#9;c0-12.94,10.49-23.429,23.429-23.429h6.051c4.829,0,8.743-3.914,8.743-8.743V264.587z"/>
		<path style="fill:#B3DAFE;" d="M327.153,264.587h153.47c13.187,0,23.877,10.69,23.877,23.877s-10.69,23.877-23.877,23.877h-10.826&#10;&#9;&#9;&#9;c-10.198,0-18.465,8.267-18.465,18.465v52.611h-85.956v-47.646c0-12.94-10.49-23.429-23.429-23.429h-6.051&#10;&#9;&#9;&#9;c-4.829,0-8.743-3.914-8.743-8.743V264.587z"/>
		<path style="fill:#8AC9FE;" d="M480.623,264.587h-74.054c15.292,4.101,26.561,18.023,26.561,34.61v84.22h18.203v-52.611&#10;&#9;&#9;&#9;c0-10.198,8.267-18.465,18.465-18.465h10.826c13.187,0,23.877-10.69,23.877-23.877C504.5,275.277,493.81,264.587,480.623,264.587z&#10;&#9;&#9;&#9;"/>
		
			<ellipse transform="matrix(0.9739 -0.2271 0.2271 0.9739 -88.1383 33.1022)" style="fill:#EEECEE;" cx="99.806" cy="399.635" rx="61.363" ry="61.363"/>
		<path style="fill:#E5E1E5;" d="M99.806,338.272c-4.657,0-9.186,0.536-13.545,1.519c27.369,6.17,47.817,30.611,47.817,59.844&#10;&#9;&#9;&#9;c0,29.233-20.448,53.674-47.817,59.844c4.36,0.983,8.889,1.519,13.545,1.519c33.889,0,61.362-27.473,61.362-61.362&#10;&#9;&#9;&#9;C161.169,365.745,133.696,338.272,99.806,338.272z"/>
		
			<ellipse transform="matrix(0.9732 -0.2298 0.2298 0.9732 -89.147 33.6211)" style="fill:#766E6E;" cx="99.806" cy="399.635" rx="20.936" ry="20.935"/>
		
			<ellipse transform="matrix(0.9737 -0.2278 0.2278 0.9737 -80.2087 104.4204)" style="fill:#EEECEE;" cx="412.194" cy="399.635" rx="61.363" ry="61.363"/>
		<path style="fill:#E5E1E5;" d="M412.195,338.272c-4.657,0-9.186,0.536-13.545,1.519c27.369,6.17,47.818,30.611,47.818,59.844&#10;&#9;&#9;&#9;c0,29.233-20.448,53.674-47.818,59.844c4.36,0.983,8.889,1.519,13.545,1.519c33.889,0,61.362-27.473,61.362-61.362&#10;&#9;&#9;&#9;C473.557,365.745,446.084,338.272,412.195,338.272z"/>
		
			<ellipse transform="matrix(0.9732 -0.2298 0.2298 0.9732 -80.7904 105.3928)" style="fill:#766E6E;" cx="412.194" cy="399.635" rx="20.936" ry="20.935"/>
		<path style="fill:#B3DAFE;" d="M67.794,207.937l23.857,28.432c3.253,3.876,9.032,4.382,12.908,1.129l169.09-141.883&#10;&#9;&#9;&#9;c3.876-3.253,4.382-9.032,1.129-12.908l-23.857-28.432c-3.253-3.876-9.032-4.382-12.908-1.129L68.924,195.029&#10;&#9;&#9;&#9;C65.047,198.282,64.542,204.061,67.794,207.937z"/>
	</g>
	<g>
		<path style="fill:none;stroke:#000000;stroke-width:15;stroke-linecap:round;stroke-linejoin:round;stroke-miterlimit:10;" d="&#10;&#9;&#9;&#9;M360.24,264.59c-4.53-14.98-14.18-27.94-27.2-36.6c-9.27-6.16-11.99-18.57-6.44-28.22l8.37-14.54&#10;&#9;&#9;&#9;c9.28-16.12,29.47-22.3,46.17-14.12l78.29,38.3c6.86,3.36,8.16,12.72,2.32,17.64c-11.07,9.35-18.79,22.55-21.08,37.54"/>
		<path style="fill:none;stroke:#000000;stroke-width:15;stroke-linecap:round;stroke-linejoin:round;stroke-miterlimit:10;" d="&#10;&#9;&#9;&#9;M32,264.59v-85.62c0-13.66,13.77-23.02,26.47-17.99c11.07,4.39,21.25,10.28,30.31,17.39"/>
		<path style="fill:none;stroke:#000000;stroke-width:15;stroke-linecap:round;stroke-linejoin:round;stroke-miterlimit:10;" d="&#10;&#9;&#9;&#9;M123.52,221.59c6.39,13.3,10.4,27.84,11.61,43"/>
		
			<line style="fill:none;stroke:#000000;stroke-width:15;stroke-linecap:round;stroke-linejoin:round;stroke-miterlimit:10;" x1="346.343" y1="264.588" x2="184.848" y2="264.588"/>
		
			<line style="fill:none;stroke:#000000;stroke-width:15;stroke-linecap:round;stroke-linejoin:round;stroke-miterlimit:10;" x1="327.15" y1="300.29" x2="184.85" y2="300.29"/>
		<path style="fill:none;stroke:#000000;stroke-width:15;stroke-linecap:round;stroke-linejoin:round;stroke-miterlimit:10;" d="&#10;&#9;&#9;&#9;M146.62,359.97v-24.2c0-12.94,10.49-23.43,23.43-23.43h6.05c4.83,0,8.748-3.91,8.748-8.74v-39.012H31.38&#10;&#9;&#9;&#9;c-13.19,0-23.88,10.692-23.88,23.872c0,13.19,10.69,23.88,23.88,23.88H42.2c10.2,0,18.47,8.27,18.47,18.47v21.57"/>
		<path style="fill:none;stroke:#000000;stroke-width:15;stroke-linecap:round;stroke-linejoin:round;stroke-miterlimit:10;" d="&#10;&#9;&#9;&#9;M451.33,352.38v-21.57c0-10.2,8.27-18.47,18.47-18.47h10.82c13.19,0,23.88-10.69,23.88-23.88c0-13.18-10.69-23.87-23.88-23.87&#10;&#9;&#9;&#9;H327.15v39.01c0,4.83,3.92,8.74,8.75,8.74h6.05c12.94,0,23.43,10.49,23.43,23.43v24.2"/>
		
			<ellipse transform="matrix(0.9739 -0.2271 0.2271 0.9739 -88.1383 33.1022)" style="fill:none;stroke:#000000;stroke-width:15;stroke-linecap:round;stroke-linejoin:round;stroke-miterlimit:10;" cx="99.806" cy="399.635" rx="61.363" ry="61.363"/>
		
			<ellipse transform="matrix(0.9732 -0.2298 0.2298 0.9732 -89.147 33.6211)" style="fill:none;stroke:#000000;stroke-width:15;stroke-linecap:round;stroke-linejoin:round;stroke-miterlimit:10;" cx="99.806" cy="399.635" rx="20.936" ry="20.935"/>
		<path style="fill:none;stroke:#000000;stroke-width:15;stroke-linecap:round;stroke-linejoin:round;stroke-miterlimit:10;" d="&#10;&#9;&#9;&#9;M467.574,426.097c3.835-8.012,5.983-16.986,5.983-26.462c0-33.89-27.473-61.363-61.362-61.363&#10;&#9;&#9;&#9;c-33.89,0-61.363,27.473-61.363,61.363c0,33.889,27.473,61.362,61.363,61.362c11.966,0,23.132-3.425,32.571-9.348"/>
		
			<ellipse transform="matrix(0.9732 -0.2298 0.2298 0.9732 -80.7904 105.3928)" style="fill:none;stroke:#000000;stroke-width:15;stroke-linecap:round;stroke-linejoin:round;stroke-miterlimit:10;" cx="412.194" cy="399.635" rx="20.936" ry="20.935"/>
		<path style="fill:none;stroke:#000000;stroke-width:15;stroke-linecap:round;stroke-linejoin:round;stroke-miterlimit:10;" d="&#10;&#9;&#9;&#9;M193.146,90.794L68.924,195.029c-3.876,3.253-4.382,9.032-1.129,12.908l23.857,28.432c3.253,3.876,9.032,4.382,12.908,1.129&#10;&#9;&#9;&#9;l169.09-141.883c3.876-3.253,4.382-9.032,1.129-12.908l-23.857-28.432c-3.253-3.876-9.032-4.382-12.908-1.129l-17.943,15.056"/>
		<g>
			
				<line style="fill:none;stroke:#000000;stroke-width:15;stroke-linecap:round;stroke-linejoin:round;stroke-miterlimit:10;" x1="111.947" y1="195.114" x2="115.187" y2="192.395"/>
			
				<line style="fill:none;stroke:#000000;stroke-width:15;stroke-linecap:round;stroke-linejoin:round;stroke-miterlimit:10;" x1="150.426" y1="162.826" x2="153.667" y2="160.107"/>
			
				<line style="fill:none;stroke:#000000;stroke-width:15;stroke-linecap:round;stroke-linejoin:round;stroke-miterlimit:10;" x1="188.906" y1="130.537" x2="192.146" y2="127.818"/>
			
				<line style="fill:none;stroke:#000000;stroke-width:15;stroke-linecap:round;stroke-linejoin:round;stroke-miterlimit:10;" x1="227.385" y1="98.249" x2="230.626" y2="95.53"/>
		</g>
	</g>
</g>















</svg>
