<?xml version="1.0" encoding="UTF-8"?>
<svg xmlns="http://www.w3.org/2000/svg" xmlns:xlink="http://www.w3.org/1999/xlink" version="1.1" id="Capa_1" x="0px" y="0px" viewBox="0 0 512 512" style="enable-background:new 0 0 512 512;" xml:space="preserve" width="512" height="512">
<g>
	<g>
		<path style="fill:#C57A44;" d="M229.797,469.853l-6.461-17.536c-2.93-7.954-3.128-16.657-0.563-24.736l17.312-54.516&#10;&#9;&#9;&#9;l33.799,22.905l-13.183,29.001c-4.156,9.142-4.539,19.553-1.068,28.976l1.594,4.326c3.198,8.679-1.246,18.307-9.925,21.505h0&#10;&#9;&#9;&#9;C242.623,482.976,232.994,478.532,229.797,469.853z"/>
		<path style="fill:#FFBD86;" d="M142.222,504.5L142.222,504.5c-22.704,0-44.479-9.019-60.533-25.073l-49.115-49.115&#10;&#9;&#9;&#9;C16.519,414.257,7.5,392.483,7.5,369.779l0,0c0-35.966,22.481-68.097,56.269-80.422l67.855-24.753l28.067,28.067l-83.213,31.525&#10;&#9;&#9;&#9;c-19.076,6.959-31.893,25.277-31.893,45.583c0,12.961,5.047,25.146,14.212,34.31l49.115,49.115&#10;&#9;&#9;&#9;c9.164,9.164,21.35,14.211,34.311,14.211c20.305,0,38.623-12.817,45.582-31.893l32.006-82.733l27.587,27.587l-24.753,67.855&#10;&#9;&#9;&#9;C210.318,482.019,178.188,504.5,142.222,504.5z"/>
		<path style="fill:#D88A55;" d="M364.09,284.302L229.039,149.252c-7.344-7.344-7.344-19.252,0-26.596l0,0&#10;&#9;&#9;&#9;c7.344-7.344,19.252-7.344,26.596,0l135.051,135.051c7.344,7.344,7.344,19.252,0,26.596l0,0&#10;&#9;&#9;&#9;C383.341,291.647,371.434,291.647,364.09,284.302z"/>
		<path style="fill:#FFBD86;" d="M337.494,310.898L202.443,175.848c-7.344-7.344-7.344-19.252,0-26.596l0,0&#10;&#9;&#9;&#9;c7.344-7.344,19.252-7.344,26.596,0L364.09,284.302c7.344,7.344,7.344,19.252,0,26.596l0,0&#10;&#9;&#9;&#9;C356.746,318.242,344.838,318.242,337.494,310.898z"/>
		<path style="fill:#D88A55;" d="M310.898,337.494L175.848,202.443c-7.344-7.344-7.344-19.252,0-26.596l0,0&#10;&#9;&#9;&#9;c7.344-7.344,19.252-7.344,26.596,0l135.051,135.051c7.344,7.344,7.344,19.252,0,26.596l0,0&#10;&#9;&#9;&#9;C330.15,344.838,318.242,344.838,310.898,337.494z"/>
		<path style="fill:#FFBD86;" d="M284.302,364.09L149.252,229.039c-7.344-7.344-7.344-19.252,0-26.596l0,0&#10;&#9;&#9;&#9;c7.344-7.344,19.252-7.344,26.596,0l135.051,135.051c7.344,7.344,7.344,19.252,0,26.596l0,0&#10;&#9;&#9;&#9;C303.554,371.434,291.647,371.434,284.302,364.09z"/>
		<path style="fill:#D88A55;" d="M257.707,390.686L122.656,255.635c-7.344-7.344-7.344-19.252,0-26.596l0,0&#10;&#9;&#9;&#9;c7.344-7.344,19.252-7.344,26.596,0L284.302,364.09c7.344,7.344,7.344,19.252,0,26.596l0,0&#10;&#9;&#9;&#9;C276.958,398.03,265.051,398.03,257.707,390.686z"/>
		<path style="fill:#C57A44;" d="M390.686,257.707l-18-18c7.344,7.344,7.344,19.252,0,26.596h0c-7.344,7.344-19.251,7.344-26.596,0&#10;&#9;&#9;&#9;l18,18c7.344,7.344,19.252,7.344,26.596,0h0C398.03,276.958,398.03,265.051,390.686,257.707z"/>
		<path style="fill:#F6A96C;" d="M364.09,284.302l-18-18c7.344,7.344,7.344,19.252,0,26.596s-19.252,7.344-26.596,0l18,18&#10;&#9;&#9;&#9;c7.344,7.344,19.252,7.344,26.596,0S371.434,291.647,364.09,284.302z"/>
		<path style="fill:#C57A44;" d="M337.494,310.898l-18-18c7.344,7.344,7.344,19.252,0,26.596s-19.252,7.344-26.596,0l18,18&#10;&#9;&#9;&#9;c7.344,7.344,19.252,7.344,26.596,0S344.838,318.242,337.494,310.898z"/>
		<path style="fill:#F6A96C;" d="M310.898,337.494l-18-18c7.344,7.344,7.344,19.251,0,26.596l0,0&#10;&#9;&#9;&#9;c-7.344,7.344-19.252,7.344-26.596,0l18,18c7.344,7.344,19.252,7.344,26.596,0l0,0&#10;&#9;&#9;&#9;C318.242,356.746,318.242,344.838,310.898,337.494z"/>
		<path style="fill:#C57A44;" d="M284.302,364.09l-18-18c7.344,7.344,7.344,19.252,0,26.596v0c-7.344,7.344-19.252,7.344-26.596,0&#10;&#9;&#9;&#9;l18,18c7.344,7.344,19.252,7.344,26.596,0v0C291.647,383.341,291.647,371.434,284.302,364.09z"/>
		<path style="fill:#FFBD86;" d="M504.5,142.222L504.5,142.222c0-22.704-9.019-44.479-25.073-60.533l-49.115-49.115&#10;&#9;&#9;&#9;C414.257,16.519,392.483,7.5,369.779,7.5l0,0c-35.966,0-68.097,22.481-80.422,56.269l-24.753,67.855l28.067,28.067l31.525-83.213&#10;&#9;&#9;&#9;c6.959-19.076,25.277-31.893,45.583-31.893c12.961,0,25.146,5.047,34.31,14.212l49.115,49.115&#10;&#9;&#9;&#9;c9.164,9.164,14.211,21.35,14.211,34.311c0,20.305-12.817,38.623-31.893,45.582l-82.733,32.006l27.587,27.587l67.855-24.753&#10;&#9;&#9;&#9;C482.019,210.318,504.5,178.188,504.5,142.222z"/>
	</g>
	<g>
		<path style="fill:none;stroke:#000000;stroke-width:15;stroke-linecap:round;stroke-linejoin:round;stroke-miterlimit:10;" d="&#10;&#9;&#9;&#9;M272.449,399.127l-11.748,25.844c-4.156,9.142-4.539,19.553-1.068,28.976l1.594,4.326c3.198,8.679-1.246,18.307-9.925,21.505h0&#10;&#9;&#9;&#9;c-8.679,3.198-18.308-1.246-21.505-9.925l-6.461-17.536"/>
		<path style="fill:none;stroke:#000000;stroke-width:15;stroke-linecap:round;stroke-linejoin:round;stroke-miterlimit:10;" d="&#10;&#9;&#9;&#9;M452.709,176.982c-4.812,4.696-10.63,8.43-17.187,10.822l-82.733,32.006l27.587,27.587l67.855-24.753&#10;&#9;&#9;&#9;c33.788-12.326,56.269-44.456,56.269-80.423l0,0c0-22.704-9.019-44.479-25.073-60.533l-49.115-49.115&#10;&#9;&#9;&#9;C414.257,16.519,392.483,7.5,369.779,7.5l0,0c-35.966,0-68.097,22.481-80.422,56.269l-24.753,67.855l28.067,28.067l31.525-83.213&#10;&#9;&#9;&#9;c6.959-19.076,25.277-31.893,45.583-31.893c12.961,0,25.146,5.047,34.31,14.212l49.115,49.115&#10;&#9;&#9;&#9;c9.164,9.164,14.211,21.35,14.211,34.311"/>
		<path style="fill:none;stroke:#000000;stroke-width:15;stroke-linecap:round;stroke-linejoin:round;stroke-miterlimit:10;" d="&#10;&#9;&#9;&#9;M74.513,285.437l57.111-20.833l28.067,28.067l-83.213,31.525c-19.076,6.959-31.893,25.277-31.893,45.583&#10;&#9;&#9;&#9;c0,12.961,5.047,25.146,14.212,34.31l49.115,49.115c9.164,9.164,21.35,14.211,34.311,14.211c20.305,0,38.623-12.817,45.582-31.893&#10;&#9;&#9;&#9;l32.006-82.733l27.587,27.587l-24.753,67.855c-12.326,33.788-44.456,56.269-80.423,56.269l0,0&#10;&#9;&#9;&#9;c-22.704,0-44.479-9.019-60.533-25.073l-49.115-49.115C16.519,414.257,7.5,392.483,7.5,369.779l0,0&#10;&#9;&#9;&#9;c0-26.371,12.086-50.68,31.854-66.633"/>
		<path style="fill:none;stroke:#000000;stroke-width:15;stroke-linecap:round;stroke-linejoin:round;stroke-miterlimit:10;" d="&#10;&#9;&#9;&#9;M364.09,284.302L229.039,149.252c-7.344-7.344-7.344-19.252,0-26.596l0,0c7.344-7.344,19.252-7.344,26.596,0l135.051,135.051&#10;&#9;&#9;&#9;c7.344,7.344,7.344,19.252,0,26.596l0,0C383.341,291.647,371.434,291.647,364.09,284.302z"/>
		<path style="fill:none;stroke:#000000;stroke-width:15;stroke-linecap:round;stroke-linejoin:round;stroke-miterlimit:10;" d="&#10;&#9;&#9;&#9;M337.494,310.898L202.443,175.848c-7.344-7.344-7.344-19.252,0-26.596l0,0c7.344-7.344,19.252-7.344,26.596,0L364.09,284.302&#10;&#9;&#9;&#9;c7.344,7.344,7.344,19.252,0,26.596l0,0C356.746,318.242,344.838,318.242,337.494,310.898z"/>
		<path style="fill:none;stroke:#000000;stroke-width:15;stroke-linecap:round;stroke-linejoin:round;stroke-miterlimit:10;" d="&#10;&#9;&#9;&#9;M310.898,337.494L175.848,202.443c-7.344-7.344-7.344-19.252,0-26.596l0,0c7.344-7.344,19.252-7.344,26.596,0l135.051,135.051&#10;&#9;&#9;&#9;c7.344,7.344,7.344,19.252,0,26.596l0,0C330.15,344.838,318.242,344.838,310.898,337.494z"/>
		<path style="fill:none;stroke:#000000;stroke-width:15;stroke-linecap:round;stroke-linejoin:round;stroke-miterlimit:10;" d="&#10;&#9;&#9;&#9;M284.302,364.09L149.252,229.039c-7.344-7.344-7.344-19.252,0-26.596l0,0c7.344-7.344,19.252-7.344,26.596,0l135.051,135.051&#10;&#9;&#9;&#9;c7.344,7.344,7.344,19.252,0,26.596l0,0C303.554,371.434,291.647,371.434,284.302,364.09z"/>
		<path style="fill:none;stroke:#000000;stroke-width:15;stroke-linecap:round;stroke-linejoin:round;stroke-miterlimit:10;" d="&#10;&#9;&#9;&#9;M257.707,390.686L122.656,255.635c-7.344-7.344-7.344-19.252,0-26.596l0,0c7.344-7.344,19.252-7.344,26.596,0L284.302,364.09&#10;&#9;&#9;&#9;c7.344,7.344,7.344,19.252,0,26.596l0,0C276.958,398.03,265.051,398.03,257.707,390.686z"/>
	</g>
</g>















</svg>
