<?xml version="1.0" encoding="UTF-8"?>
<svg xmlns="http://www.w3.org/2000/svg" xmlns:xlink="http://www.w3.org/1999/xlink" version="1.1" id="Capa_1" x="0px" y="0px" viewBox="0 0 512 512" style="enable-background:new 0 0 512 512;" xml:space="preserve" width="512" height="512">
<g>
	<g>
		<path style="fill:#F5FCFF;" d="M460.972,182.891c-9.101-39.125-26.378-100.471-49.804-113.02H95.301&#10;&#9;&#9;&#9;c-11.389,0-21.802,6.439-26.862,16.642c-9.28,18.712-23.917,65.892-33.562,106.562l408.069,10&#10;&#9;&#9;&#9;C455.25,203.076,462.972,191.491,460.972,182.891z"/>
		<path style="fill:#DDEBFD;" d="M443.562,86.513c-5.06-10.203-15.474-16.642-26.862-16.642h-5.532&#10;&#9;&#9;&#9;c9.661,20.8,24.703,63.895,33.804,103.02c2,8.6-5.722,20.184-18.026,20.184H34.876c-1.639,6.911-3.135,13.636-4.434,20l225.558,10&#10;&#9;&#9;&#9;l225.558-10C472.611,169.264,454.419,108.405,443.562,86.513z"/>
		<circle style="fill:#E8A2CB;" cx="194.055" cy="164.448" r="52.106"/>
		<path style="fill:#E279B3;" d="M312.382,186.617c0-34.488-27.958-62.445-62.445-62.445s-62.445,27.958-62.445,62.445&#10;&#9;&#9;&#9;c0,2.181,0.114,4.335,0.332,6.459l62.114,10l62.114-10C312.268,190.952,312.382,188.798,312.382,186.617z"/>
		<path style="fill:#DE5CA3;" d="M187.823,193.076c3.232,31.453,29.807,55.987,62.114,55.987s58.881-24.534,62.114-55.987H187.823z"/>
		<path style="fill:#B3E59F;" d="M163.524,203.076c0,0-1.98-52.069-26.319-66.725c-6.835,2.079-11.215,9.379-11.978,20.075&#10;&#9;&#9;&#9;c-12.008-15.755-25.658-21.37-34.448-15.894c-8.79,5.476-9.768,20.203-0.92,37.927c-9.938-4.03-18.42-3.317-23.3,1.901&#10;&#9;&#9;&#9;c-2.973,3.179-4.188,7.581-3.626,12.716L163.524,203.076z"/>
		<path style="fill:#95D6A4;" d="M185.259,170.497c-5.182,0.174-9.827,3.339-13.327,8.933c-0.801-3.799-1.739-7.525-2.833-11.122&#10;&#9;&#9;&#9;c-7.139-23.467-20.686-35.367-31.894-31.957c6.712,9.756,11.665,31.292,14.262,44.843c1.182,6.168-3.542,11.882-9.822,11.882&#10;&#9;&#9;&#9;H62.933c0.95,8.686,6.989,19.471,18.249,30c2.747,2.568,5.678,5.053,8.734,7.447c-6.564,0.675-11.453,3.449-13.894,8.023&#10;&#9;&#9;&#9;c-5.514,10.336,3.539,25.93,25.18,37.476c35.322,18.844,88.37,23.102,88.37,23.102s19.565-49.492,18.223-89.504&#10;&#9;&#9;&#9;C206.973,185.105,196.968,170.104,185.259,170.497z"/>
		<path style="fill:#B3E59F;" d="M319.509,156.426c-0.763-10.696-5.143-17.996-11.978-20.075&#10;&#9;&#9;&#9;c-11.208-3.41-24.755,8.49-31.894,31.957c-1.094,3.598-2.032,7.324-2.833,11.122c-3.499-5.595-8.144-8.76-13.327-8.933&#10;&#9;&#9;&#9;c-8.775-0.294-16.592,8.057-20.305,22.579l100.346,10L319.509,156.426z"/>
		<path style="fill:#95D6A4;" d="M354.82,230.522c3.056-2.394,5.987-4.878,8.734-7.447c17.916-16.753,22.625-34.159,14.623-42.716&#10;&#9;&#9;&#9;c-4.88-5.218-13.362-5.931-23.3-1.901c8.848-17.724,7.87-32.451-0.92-37.927c-8.79-5.476-22.44,0.139-34.448,15.894&#10;&#9;&#9;&#9;c0,0-8.07,15.922-15.656,29.125c-2.674,4.655-7.636,7.524-13.004,7.524h-51.677c-1.242,4.856-2.025,10.401-2.231,16.544&#10;&#9;&#9;&#9;c-1.342,40.012,18.223,89.504,18.223,89.504s53.048-4.258,88.37-23.102c21.641-11.545,30.695-27.139,25.18-37.476&#10;&#9;&#9;&#9;C366.273,233.971,361.385,231.197,354.82,230.522z"/>
		<path style="fill:#D09180;" d="M460.896,263.076l-424.358,10c7.76,55.033,45.772,103.236,77.379,129.053l245.532,10&#10;&#9;&#9;&#9;C385.882,412.128,452.423,337.602,460.896,263.076z"/>
		<path style="fill:#B46E5A;" d="M256,232.327L35.104,253.076c0,6.747,0.506,13.421,1.434,20h404.358&#10;&#9;&#9;&#9;c-4.13,64.526-70.802,129.053-91.448,129.053H113.917c15.557,12.707,29.562,20,37.634,20h208.897&#10;&#9;&#9;&#9;c26.434,0,116.448-78.084,116.448-169.053L256,232.327z"/>
		<path style="fill:#EBAE9D;" d="M382.204,173.712c14.999-25.979,13.601-52.283-1.742-61.142c-1.849-1.068-4.214-0.434-5.282,1.415&#10;&#9;&#9;&#9;l-45.68,79.09l52.704,4.814V173.712z"/>
		<polygon style="fill:#D09180;" points="329.5,193.076 315.191,217.89 382.204,217.141 381.94,193.076 &#9;&#9;"/>
		<path style="fill:#FFCDBE;" d="M414.943,188.898c14.999-25.979,13.601-52.283-1.742-61.142c-1.849-1.068-4.214-0.434-5.282,1.415&#10;&#9;&#9;&#9;l-36.895,63.904l43.919,20V188.898z"/>
		<polygon style="fill:#EBAE9D;" points="371.024,193.076 347.93,233.076 414.943,232.327 414.943,193.076 &#9;&#9;"/>
		<path style="fill:#EBAE9D;" d="M444.977,172.919c-2.048-4.992-5.296-8.973-9.696-11.514c-1.849-1.068-4.214-0.434-5.282,1.415&#10;&#9;&#9;&#9;l-17.468,30.255h14.414C439.236,193.076,446.954,181.517,444.977,172.919z"/>
		<path style="fill:#D09180;" d="M444.977,172.919c1.977,8.597-5.741,20.156-18.032,20.156h-14.414l-34.641,60h41.507l17.625-30.528&#10;&#9;&#9;&#9;C447.72,204.02,450.071,185.332,444.977,172.919z"/>
		<path style="fill:#FFCDBE;" d="M481.558,213.076c-6.47,0-444.646,0-451.116,0c-11.673,0-21.303,8.72-22.748,20l479.202,10&#10;&#9;&#9;&#9;C491.791,233.076,489.796,218.256,481.558,213.076z"/>
		<path style="fill:#EBAE9D;" d="M481.558,213.076c0.301,1.422,0.493,2.853,0.576,4.266c0.502,8.558-6.415,15.734-14.988,15.734&#10;&#9;&#9;&#9;H7.694C7.571,234.04,7.5,235.02,7.5,236.018c0,6.773,2.937,12.858,7.604,17.058h481.792c4.667-4.2,7.604-10.285,7.604-17.058&#10;&#9;&#9;&#9;C504.5,223.347,494.228,213.076,481.558,213.076z"/>
		<polygon style="fill:#B3E59F;" points="442.766,391.692 297.423,394.625 304.792,422.128 442.766,434.208 &#9;&#9;"/>
		<path style="fill:#95D6A4;" d="M442.766,391.692L436.1,416.57c-0.879,3.279-3.85,5.559-7.244,5.559H304.792l5.359,20h144.46&#10;&#9;&#9;&#9;l12.728-47.503L442.766,391.692z"/>
		<path style="fill:#F5FCFF;" d="M454.32,364.625H301.971c-6.789,0-12.732,4.56-14.489,11.118l-1.04,3.882l181.898,7L454.32,364.625&#10;&#9;&#9;&#9;z"/>
		<path style="fill:#DDEBFD;" d="M482.339,394.625l-5.06-18.882c-1.757-6.558-7.7-11.118-14.489-11.118h-8.471l1.49,5.559&#10;&#9;&#9;&#9;c1.276,4.763-2.313,9.441-7.244,9.441H286.442l-4.019,15H482.339z"/>
	</g>
	<g>
		<path style="fill:none;stroke:#000000;stroke-width:15;stroke-linecap:round;stroke-linejoin:round;stroke-miterlimit:10;" d="&#10;&#9;&#9;&#9;M436.756,253.076h60.14c4.667-4.2,7.604-10.285,7.604-17.058c0-12.671-10.272-22.942-22.942-22.942c-6.47,0-444.646,0-451.116,0&#10;&#9;&#9;&#9;c-12.671,0-22.942,10.271-22.942,22.942c0,6.773,2.937,12.858,7.604,17.058h391.652"/>
		<path style="fill:none;stroke:#000000;stroke-width:15;stroke-linecap:round;stroke-linejoin:round;stroke-miterlimit:10;" d="&#10;&#9;&#9;&#9;M161.507,69.872H95.301c-11.389,0-21.802,6.439-26.862,16.642c-10.857,21.891-29.049,82.751-37.996,126.562"/>
		<path style="fill:none;stroke:#000000;stroke-width:15;stroke-linecap:round;stroke-linejoin:round;stroke-miterlimit:10;" d="&#10;&#9;&#9;&#9;M481.558,213.076c-8.947-43.811-27.139-104.671-37.996-126.562c-5.06-10.203-15.474-16.642-26.862-16.642H191.507"/>
		<path style="fill:none;stroke:#000000;stroke-width:15;stroke-linecap:round;stroke-linejoin:round;stroke-miterlimit:10;" d="&#10;&#9;&#9;&#9;M272.792,422.128H151.551c-26.434,0-116.447-78.084-116.447-169.053"/>
		<path style="fill:none;stroke:#000000;stroke-width:15;stroke-linecap:round;stroke-linejoin:round;stroke-miterlimit:10;" d="&#10;&#9;&#9;&#9;M476.896,253.076c0,41.802-19.007,80.883-42.118,110.917"/>
		<path style="fill:none;stroke:#000000;stroke-width:15;stroke-linecap:round;stroke-linejoin:round;stroke-miterlimit:10;" d="&#10;&#9;&#9;&#9;M482.339,394.625H282.423l5.06-18.882c1.757-6.558,7.7-11.118,14.489-11.118h160.82c6.789,0,12.732,4.56,14.489,11.118&#10;&#9;&#9;&#9;L482.339,394.625z"/>
		
			<polygon style="fill:none;stroke:#000000;stroke-width:15;stroke-linecap:round;stroke-linejoin:round;stroke-miterlimit:10;" points="&#10;&#9;&#9;&#9;297.423,394.625 467.339,394.625 454.611,442.128 310.151,442.128 &#9;&#9;"/>
		<path style="fill:none;stroke:#000000;stroke-width:15;stroke-linecap:round;stroke-linejoin:round;stroke-miterlimit:10;" d="&#10;&#9;&#9;&#9;M207.795,209.62c-0.822-24.515-10.827-39.516-22.536-39.123c-5.182,0.174-9.827,3.339-13.327,8.934&#10;&#9;&#9;&#9;c-0.801-3.799-1.739-7.525-2.833-11.122c-7.139-23.467-20.686-35.367-31.894-31.957c-6.835,2.079-11.215,9.379-11.978,20.075&#10;&#9;&#9;&#9;c-12.008-15.755-25.658-21.37-34.448-15.894c-8.79,5.476-9.768,20.203-0.92,37.927c-9.938-4.03-18.42-3.317-23.3,1.901&#10;&#9;&#9;&#9;c-6.001,6.418-4.853,17.813,3.655,30.177"/>
		<path style="fill:none;stroke:#000000;stroke-width:15;stroke-linecap:round;stroke-linejoin:round;stroke-miterlimit:10;" d="&#10;&#9;&#9;&#9;M236.941,209.62c0.822-24.515,10.827-39.516,22.536-39.123c5.182,0.174,9.827,3.339,13.327,8.934&#10;&#9;&#9;&#9;c0.801-3.799,1.739-7.525,2.833-11.122c7.139-23.467,20.686-35.367,31.894-31.957c6.835,2.079,11.215,9.379,11.978,20.075&#10;&#9;&#9;&#9;c12.008-15.755,25.658-21.37,34.448-15.894c1.099,0.684,2.075,1.513,2.926,2.475"/>
		<path style="fill:none;stroke:#000000;stroke-width:15;stroke-linecap:round;stroke-linejoin:round;stroke-miterlimit:10;" d="&#10;&#9;&#9;&#9;M401.596,212.016l28.403-49.195c1.068-1.849,3.433-2.483,5.282-1.415c13.265,7.659,16.106,28.357,6.94,50.612"/>
		<path style="fill:none;stroke:#000000;stroke-width:15;stroke-linecap:round;stroke-linejoin:round;stroke-miterlimit:10;" d="&#10;&#9;&#9;&#9;M360.089,212.016l47.831-82.845c1.068-1.849,3.433-2.483,5.282-1.415c15.343,8.858,16.741,35.163,1.742,61.142l-13.348,23.119"/>
		<path style="fill:none;stroke:#000000;stroke-width:15;stroke-linecap:round;stroke-linejoin:round;stroke-miterlimit:10;" d="&#10;&#9;&#9;&#9;M318.582,212.016l56.598-98.031c1.068-1.849,3.433-2.483,5.282-1.415c15.343,8.858,16.741,35.163,1.742,61.142l-16.915,29.298"/>
		<path style="fill:none;stroke:#000000;stroke-width:15;stroke-linecap:round;stroke-linejoin:round;stroke-miterlimit:10;" d="&#10;&#9;&#9;&#9;M189.889,169.42c7.468-26.125,31.524-45.249,60.048-45.249c15.088,0,28.927,5.351,39.721,14.259"/>
		<path style="fill:none;stroke:#000000;stroke-width:15;stroke-linecap:round;stroke-linejoin:round;stroke-miterlimit:10;" d="&#10;&#9;&#9;&#9;M150.543,135.77c9.322-14.116,25.329-23.429,43.511-23.429c13.657,0,26.087,5.254,35.379,13.852"/>
		<path style="fill:none;stroke:#000000;stroke-width:15;stroke-linecap:round;stroke-linejoin:round;stroke-miterlimit:10;" d="&#10;&#9;&#9;&#9;M344.394,363.993c8.641-22.71,16.121-50.593,19.255-80.917"/>
		<path style="fill:none;stroke:#000000;stroke-width:15;stroke-linecap:round;stroke-linejoin:round;stroke-miterlimit:10;" d="&#10;&#9;&#9;&#9;M148.351,283.076c4.02,38.89,15.187,73.764,26.784,98.862"/>
	</g>
</g>















</svg>
