<?xml version="1.0" encoding="UTF-8"?>
<svg xmlns="http://www.w3.org/2000/svg" xmlns:xlink="http://www.w3.org/1999/xlink" version="1.1" id="Capa_1" x="0px" y="0px" viewBox="0 0 511.994 511.994" style="enable-background:new 0 0 511.994 511.994;" xml:space="preserve" width="512" height="512">
<g>
	<g>
		<path style="fill:#8ABBD5;" d="M442.727,95.099L442.727,95.099c53.775,35.857,75.658,104.102,52.76,164.543l-20.28,53.532&#10;&#9;&#9;&#9;c-14.449,38.141-24.309,77.866-29.371,118.337v0c-5.413,43.274-44.882,73.967-88.156,68.554l0,0&#10;&#9;&#9;&#9;c-43.274-5.413-73.967-44.882-68.554-88.156l2.734-21.859c2.054-16.418,3.314-32.925,3.776-49.464l4.887-174.969&#10;&#9;&#9;&#9;C302.534,93.615,384.194,53.12,442.727,95.099z"/>
		<path style="fill:#6CABCA;" d="M373.74,500.44c-5.26,0.408-10.629,0.302-16.068-0.379c-21.639-2.707-40.124-13.925-52.537-29.875&#10;&#9;&#9;&#9;c-12.401-15.96-18.72-36.639-16.014-58.277l2.735-21.863c2.053-16.413,3.314-32.926,3.773-49.463l4.889-174.964&#10;&#9;&#9;&#9;c1.73-61.995,62.5-100.631,116.714-83.378c-43.803,2.535-83.608,37.345-85.001,87.345l-4.889,174.964&#10;&#9;&#9;&#9;c-0.459,16.537-1.72,33.049-3.773,49.463l-2.735,21.863c-2.707,21.638,3.613,42.318,16.024,58.279&#10;&#9;&#9;&#9;C346.151,486.104,358.854,495.392,373.74,500.44z"/>
		
			<line style="fill:none;stroke:#000000;stroke-width:15;stroke-linecap:round;stroke-linejoin:round;stroke-miterlimit:10;" x1="322.471" y1="446.096" x2="396.485" y2="455.354"/>
		<path style="fill:none;stroke:#000000;stroke-width:15;stroke-linecap:round;stroke-linejoin:round;stroke-miterlimit:10;" d="&#10;&#9;&#9;&#9;M480.611,298.933c0,0,0,0,0.001-0.011l14.874-39.277c22.894-60.446,1.015-128.69-52.753-164.547l-0.011-0.001&#10;&#9;&#9;&#9;c-58.527-41.977-140.19-1.485-142.205,70.522l-2.479,88.935"/>
		<path style="fill:none;stroke:#000000;stroke-width:15;stroke-linecap:round;stroke-linejoin:round;stroke-miterlimit:10;" d="&#10;&#9;&#9;&#9;M296.254,318.456l-0.615,22.128c-0.459,16.537-1.72,33.049-3.773,49.463l-2.735,21.863c-2.707,21.638,3.613,42.318,16.014,58.277&#10;&#9;&#9;&#9;c12.413,15.95,30.899,27.169,52.537,29.875c21.638,2.707,42.318-3.613,58.277-16.014c15.95-12.413,27.169-30.899,29.875-52.537&#10;&#9;&#9;&#9;c3.534-28.255,9.405-56.153,17.554-83.395"/>
		<path style="fill:#FFE177;" d="M475.242,350.165c-1.789,0.309-3.555,0.338-5.268,0.124c-7.655-0.958-14.112-6.8-15.483-14.79&#10;&#9;&#9;&#9;c-1.003-5.889-5.592-26.493-23.121-52.055c-10.978-16.032-27.052-34.017-50.534-51.536c-9.728,4.046-27.087,13.032-42.944,30.263&#10;&#9;&#9;&#9;c-10.181,11.058-19.734,25.533-26.254,44.28c-3.26,9.368-13.493,14.33-22.872,11.069c-9.368-3.26-14.33-13.493-11.069-22.872&#10;&#9;&#9;&#9;c13.584-39.047,37.57-63.721,58.814-78.811c11.862-8.423,22.862-13.854,30.711-17.146l4.055-32.42&#10;&#9;&#9;&#9;c1.232-9.85,10.217-16.828,20.057-15.597c9.85,1.232,16.84,10.208,15.607,20.058l-4.101,32.784&#10;&#9;&#9;&#9;c9.019,6.75,17.42,13.825,25.195,21.214c17.165,16.305,31.304,34.103,42.203,53.202c14.01,24.567,18.428,44.193,19.68,51.483&#10;&#9;&#9;&#9;C491.598,339.205,485.021,348.484,475.242,350.165z"/>
		<path style="fill:#FFD15B;" d="M337.891,262.171c-10.181,11.058-19.734,25.533-26.254,44.28&#10;&#9;&#9;&#9;c-3.26,9.368-13.493,14.33-22.872,11.069c-9.368-3.26-14.33-13.493-11.069-22.872c13.584-39.047,37.57-63.721,58.814-78.811&#10;&#9;&#9;&#9;C331.639,227.657,326.642,247.171,337.891,262.171z"/>
		<path style="fill:none;stroke:#000000;stroke-width:15;stroke-linecap:round;stroke-linejoin:round;stroke-miterlimit:10;" d="&#10;&#9;&#9;&#9;M461.897,264.498c2.96,4.4,5.74,8.88,8.34,13.44c14.01,24.56,18.43,44.19,19.69,51.48c1.67,9.78-4.9,19.07-14.68,20.75&#10;&#9;&#9;&#9;c-1.79,0.31-3.56,0.34-5.27,0.12c-7.65-0.95-14.1-6.8-15.48-14.79c-1.64-9.58-12.75-58.11-73.66-103.59&#10;&#9;&#9;&#9;c-15.97,6.65-52.52,26.6-69.19,74.54c-3.26,9.38-13.5,14.34-22.88,11.08c-9.37-3.26-14.33-13.51-11.07-22.88&#10;&#9;&#9;&#9;c21.16-60.84,67.63-86.79,89.53-95.95l4.06-32.43c1.23-9.84,10.21-16.83,20.06-15.6c9.84,1.23,16.83,10.22,15.6,20.06l-4.1,32.79&#10;&#9;&#9;&#9;c13.91,10.44,26.38,21.63,37.33,33.55"/>
		
			<line style="fill:none;stroke:#000000;stroke-width:15;stroke-linecap:round;stroke-linejoin:round;stroke-miterlimit:10;" x1="416.67" y1="424.386" x2="315.89" y2="411.78"/>
		
			<line style="fill:none;stroke:#000000;stroke-width:15;stroke-linecap:round;stroke-linejoin:round;stroke-miterlimit:10;" x1="405.091" y1="386.55" x2="331.078" y2="377.292"/>
	</g>
	<g>
		<path style="fill:#8ABBD5;" d="M56.211,34.924L56.211,34.924C7.03,76.861-6.667,147.207,23.185,204.533l26.44,50.773&#10;&#9;&#9;&#9;c18.838,36.175,33.305,74.463,43.096,114.057l0,0c10.469,42.336,53.276,68.17,95.612,57.701l0,0&#10;&#9;&#9;&#9;c42.336-10.469,68.17-53.276,57.701-95.612l-5.288-21.385c-3.972-16.062-7.166-32.306-9.572-48.676L205.727,88.213&#10;&#9;&#9;&#9;C195.255,16.949,109.396-13.652,56.211,34.924z"/>
		<path style="fill:#6CABCA;" d="M157.598,410.838c13.248,7.995,28.829,12.122,44.911,11.258c-4.47,2.061-9.203,3.732-14.168,4.96&#10;&#9;&#9;&#9;c-21.169,5.235-42.459,1.396-59.757-9.043c-17.311-10.447-30.627-27.484-35.862-48.653&#10;&#9;&#9;&#9;c-9.791-39.594-24.262-77.887-43.098-114.055l-26.438-50.772C-6.664,147.202,7.03,76.857,56.214,34.917&#10;&#9;&#9;&#9;c15.949-14.57,34.847-22.022,53.763-23.376c-8.711,3.832-17.068,9.189-24.749,16.201C36.055,69.68,22.351,140.027,52.21,197.355&#10;&#9;&#9;&#9;l26.438,50.772c18.836,36.168,33.307,74.461,43.098,114.055C126.981,383.352,140.297,400.389,157.598,410.838z"/>
		
			<line style="fill:none;stroke:#000000;stroke-width:15;stroke-linecap:round;stroke-linejoin:round;stroke-miterlimit:10;" x1="145.226" y1="390.02" x2="217.635" y2="372.115"/>
		<path style="fill:none;stroke:#000000;stroke-width:15;stroke-linecap:round;stroke-linejoin:round;stroke-miterlimit:10;" d="&#10;&#9;&#9;&#9;M42.587,241.798c0,0,0,0-0.01-0.01l-19.39-37.25c-29.85-57.33-16.15-127.68,33.02-169.61l0.01-0.01&#10;&#9;&#9;&#9;c48.74-44.51,124.92-22.53,145.38,36.3"/>
		
			<line style="fill:none;stroke:#000000;stroke-width:15;stroke-linecap:round;stroke-linejoin:round;stroke-miterlimit:10;" x1="218.667" y1="176.238" x2="208.277" y2="105.528"/>
		<path style="fill:none;stroke:#000000;stroke-width:15;stroke-linecap:round;stroke-linejoin:round;stroke-miterlimit:10;" d="&#10;&#9;&#9;&#9;M227.957,239.488l3.22,21.9c2.4,16.37,5.59,32.62,9.56,48.68l5.29,21.39c5.24,21.17,1.4,42.45-9.04,59.75&#10;&#9;&#9;&#9;c-7.59,12.56-18.64,23.02-32.23,29.81"/>
		<path style="fill:none;stroke:#000000;stroke-width:15;stroke-linecap:round;stroke-linejoin:round;stroke-miterlimit:10;" d="&#10;&#9;&#9;&#9;M65.477,288.618c11.3,26.09,20.41,53.1,27.25,80.75c5.23,21.17,18.55,38.2,35.85,48.65c12.56,7.58,27.21,11.68,42.4,11.34"/>
		<path style="fill:#FFE177;" d="M235.279,237.677c-8.93,4.342-19.676,0.62-24.016-8.3c-22.204-45.65-60.851-61.158-77.491-65.88&#10;&#9;&#9;&#9;c-21.257,20.162-35.102,39.914-44.117,57.126c-14.398,27.447-16.53,48.448-16.833,54.414c-0.421,8.096-6.145,14.658-13.635,16.51&#10;&#9;&#9;&#9;c-1.676,0.414-3.432,0.593-5.246,0.497c-9.909-0.517-17.532-8.958-17.017-18.878c0.385-7.387,2.462-27.396,13.484-53.441&#10;&#9;&#9;&#9;c8.575-20.249,20.522-39.587,35.648-57.8c6.852-8.252,14.362-16.267,22.523-24.032l-7.931-32.073&#10;&#9;&#9;&#9;c-2.383-9.637,3.501-19.373,13.138-21.756c9.626-2.38,19.37,3.491,21.753,13.128l7.843,31.717&#10;&#9;&#9;&#9;c22.832,6.525,72.022,26.818,100.198,84.752C247.921,222.591,244.198,233.338,235.279,237.677z"/>
		<path style="fill:#FFD15B;" d="M89.654,220.624c-14.398,27.447-16.53,48.448-16.833,54.414&#10;&#9;&#9;&#9;c-0.421,8.096-6.145,14.658-13.635,16.51c-1.676,0.414-3.432,0.593-5.246,0.497c-9.909-0.517-17.532-8.958-17.017-18.878&#10;&#9;&#9;&#9;c0.385-7.387,2.462-27.396,13.484-53.441c8.575-20.249,20.522-39.587,35.648-57.8l0.01-0.003&#10;&#9;&#9;&#9;C86.065,161.923,61.875,199.983,89.654,220.624z"/>
		<path style="fill:none;stroke:#000000;stroke-width:15;stroke-linecap:round;stroke-linejoin:round;stroke-miterlimit:10;" d="&#10;&#9;&#9;&#9;M243.579,213.662c-28.172-57.932-77.368-78.225-100.198-84.748l-7.844-31.723c-2.382-9.634-12.124-15.513-21.757-13.13&#10;&#9;&#9;&#9;c-9.634,2.382-15.513,12.124-13.13,21.757l7.932,32.076c-26.154,24.922-45.715,52.403-58.17,81.835&#10;&#9;&#9;&#9;c-11.02,26.041-13.102,46.049-13.486,53.443c-0.514,9.911,7.104,18.362,17.014,18.876c1.813,0.094,3.577-0.084,5.253-0.498&#10;&#9;&#9;&#9;c7.484-1.851,13.203-8.417,13.624-16.516c0.504-9.704,5.821-59.206,60.96-111.536c16.638,4.723,55.285,20.23,77.483,65.88&#10;&#9;&#9;&#9;c4.34,8.924,15.092,12.644,24.019,8.302C244.202,233.341,247.919,222.587,243.579,213.662z"/>
		
			<line style="fill:none;stroke:#000000;stroke-width:15;stroke-linecap:round;stroke-linejoin:round;stroke-miterlimit:10;" x1="120.846" y1="358.855" x2="219.442" y2="334.474"/>
		
			<line style="fill:none;stroke:#000000;stroke-width:15;stroke-linecap:round;stroke-linejoin:round;stroke-miterlimit:10;" x1="127.891" y1="319.92" x2="200.3" y2="302.014"/>
	</g>
</g>















</svg>
