<?xml version="1.0" encoding="UTF-8" standalone="no"?>
<!-- Created with Inkscape (http://www.inkscape.org/) -->

<svg
   version="1.1"
   id="svg4332"
   width="682.66669"
   height="682.66669"
   viewBox="0 0 682.66669 682.66669"
   xmlns="http://www.w3.org/2000/svg"
   xmlns:svg="http://www.w3.org/2000/svg">
  <defs
     id="defs4336">
    <clipPath
       clipPathUnits="userSpaceOnUse"
       id="clipPath4346">
      <path
         d="M 0,512 H 512 V 0 H 0 Z"
         id="path4344" />
    </clipPath>
  </defs>
  <g
     id="g4338"
     transform="matrix(1.3333333,0,0,-1.3333333,0,682.66667)">
    <g
       id="g4340">
      <g
         id="g4342"
         clip-path="url(#clipPath4346)">
        <g
           id="g4348"
           transform="translate(206.3848,189.6035)">
          <path
             d="m 0,0 -83.016,83.016 c -12.861,12.861 -12.861,33.713 0,46.574 L 81.767,294.373 c 3.518,3.518 9.222,3.518 12.74,0 l 93.562,-93.563 c 3.518,-3.518 3.518,-9.222 0,-12.74 z"
             style="fill:#ef4b5f;fill-opacity:1;fill-rule:nonzero;stroke:none"
             id="path4350" />
        </g>
        <g
           id="g4352"
           transform="translate(394.4575,377.6724)">
          <path
             d="m 0,0 -188.071,-188.071 -12.32,12.32 L -12.32,12.32 c 3.516,3.516 3.523,9.218 0,12.74 L 0,12.74 C 3.516,9.224 3.516,3.517 0,0"
             style="fill:#db383c;fill-opacity:1;fill-rule:nonzero;stroke:none"
             id="path4354" />
        </g>
        <g
           id="g4356"
           transform="translate(355.6094,338.8286)">
          <path
             d="M 0,0 -106.303,106.303 -85.408,127.198 20.895,20.895 Z"
             style="fill:#87eaf9;fill-opacity:1;fill-rule:nonzero;stroke:none"
             id="path4358" />
        </g>
        <g
           id="g4360"
           transform="translate(376.5063,359.7217)">
          <path
             d="M 0,0 -20.894,-20.894 -33.213,-8.574 -12.32,12.32 Z"
             style="fill:#2adeec;fill-opacity:1;fill-rule:nonzero;stroke:none"
             id="path4362" />
        </g>
        <g
           id="g4364"
           transform="translate(271.4756,464.7524)">
          <path
             d="M 0,0 103.755,-103.755"
             style="fill:none;stroke:#000000;stroke-width:15;stroke-linecap:round;stroke-linejoin:round;stroke-miterlimit:10;stroke-dasharray:none;stroke-opacity:1"
             id="path4366" />
        </g>
        <g
           id="g4368"
           transform="translate(183.5405,379.3652)">
          <path
             d="m 0,0 -60.172,-60.172 c -12.861,-12.861 -12.861,-33.713 0,-46.574 l 83.016,-83.016 188.07,188.07 c 3.518,3.518 3.518,9.222 0,12.74 l -93.563,93.563 c -3.518,3.518 -9.222,3.518 -12.74,0 L 23.094,23.095"
             style="fill:none;stroke:#000000;stroke-width:15;stroke-linecap:round;stroke-linejoin:round;stroke-miterlimit:10;stroke-dasharray:none;stroke-opacity:1"
             id="path4370" />
        </g>
        <g
           id="g4372"
           transform="translate(123.3687,272.6196)">
          <path
             d="m 0,0 v 0 c 7.414,-7.414 19.198,-8.117 27.441,-1.639 l 97.621,76.727 c 10.182,8.003 24.74,7.134 33.898,-2.024 V 73.063 L 199.028,32.996 83.016,-83.016 Z"
             style="fill:#ad2024;fill-opacity:1;fill-rule:nonzero;stroke:none"
             id="path4374" />
        </g>
        <g
           id="g4376"
           transform="translate(123.3687,272.6196)">
          <path
             d="m 0,0 v 0 c 7.414,-7.414 19.198,-8.117 27.441,-1.639 l 97.621,76.727 c 10.182,8.003 24.74,7.134 33.898,-2.024 V 73.063 L 199.028,32.996 83.016,-83.016 Z"
             style="fill:none;stroke:#000000;stroke-width:15;stroke-linecap:round;stroke-linejoin:round;stroke-miterlimit:10;stroke-dasharray:none;stroke-opacity:1"
             id="path4378" />
        </g>
        <g
           id="g4380"
           transform="translate(388.6294,192.8047)">
          <path
             d="m 0,0 -164.782,-164.782 c -3.518,-3.518 -9.222,-3.518 -12.74,0 l -93.564,93.564 c -3.518,3.518 -3.518,9.222 0,12.74 l 164.782,164.783 c 12.861,12.861 12.867,33.71 0.006,46.571 L 0,46.579 C 12.862,33.716 12.862,12.862 0,0"
             style="fill:#ef4b5f;fill-opacity:1;fill-rule:nonzero;stroke:none"
             id="path4382" />
        </g>
        <g
           id="g4384"
           transform="translate(388.6274,192.8066)">
          <path
             d="m 0,0 -164.782,-164.782 c -3.516,-3.516 -9.218,-3.523 -12.74,0 l -13.084,13.084 c 3.516,-3.516 9.224,-3.516 12.74,0 L -13.084,13.084 c 12.861,12.861 12.861,33.717 0,46.579 L 0,46.578 C 12.861,33.717 12.861,12.861 0,0"
             style="fill:#db383c;fill-opacity:1;fill-rule:nonzero;stroke:none"
             id="path4386" />
        </g>
        <g
           id="g4388"
           transform="translate(380.8755,185.0542)">
          <path
             d="m 0,0 -97.852,-97.852 c -4.726,3.147 -9.676,6.313 -14.836,9.473 -0.388,0.236 -0.77,0.465 -1.159,0.701 -34.787,21.142 -79.168,41.673 -132.562,53.878 l 100.374,100.374 c 49.706,-12.53 91.233,-32.182 124.09,-52.261 2.108,-1.292 4.178,-2.585 6.217,-3.873 C -10.23,6.943 -4.981,3.453 0,0"
             style="fill:#3078bf;fill-opacity:1;fill-rule:nonzero;stroke:none"
             id="path4390" />
        </g>
        <g
           id="g4392"
           transform="translate(380.8755,185.0542)">
          <path
             d="m 0,0 -97.852,-97.852 c -4.726,3.147 -9.676,6.313 -14.836,9.473 -0.388,0.236 -0.77,0.465 -1.159,0.701 L -15.728,10.44 C -10.23,6.943 -4.981,3.453 0,0"
             style="fill:#2766b0;fill-opacity:1;fill-rule:nonzero;stroke:none"
             id="path4394" />
        </g>
        <g
           id="g4396"
           transform="translate(340.6353,144.814)">
          <path
             d="m 0,0 -57.611,-57.611 c -4.727,3.147 -9.677,6.313 -14.836,9.472 -0.389,0.236 -0.771,0.465 -1.16,0.701 -34.787,21.142 -79.167,41.673 -132.562,53.878 l 59.108,59.109 c 51.452,-12.479 94.31,-32.634 128.027,-53.242 1.076,-0.656 2.14,-1.312 3.198,-1.974 C -10.307,6.88 -5.02,3.427 0,0"
             style="fill:#2adeec;fill-opacity:1;fill-rule:nonzero;stroke:none"
             id="path4398" />
        </g>
        <g
           id="g4400"
           transform="translate(340.6353,144.814)">
          <path
             d="m 0,0 -57.611,-57.611 c -4.727,3.147 -9.677,6.313 -14.836,9.472 -0.389,0.236 -0.771,0.465 -1.16,0.701 l 57.771,57.771 C -10.307,6.88 -5.02,3.427 0,0"
             style="fill:#25c5db;fill-opacity:1;fill-rule:nonzero;stroke:none"
             id="path4402" />
        </g>
        <g
           id="g4404"
           transform="translate(195.0303,210.0034)">
          <path
             d="M 0,0 C 60.065,-14.777 108.341,-40.001 143.956,-64.068"
             style="fill:none;stroke:#000000;stroke-width:15;stroke-linecap:round;stroke-linejoin:round;stroke-miterlimit:10;stroke-dasharray:none;stroke-opacity:1"
             id="path4406" />
        </g>
        <g
           id="g4408"
           transform="translate(313.25,117.4292)">
          <path
             d="m 0,0 -30.226,-30.227 c -4.727,3.147 -9.676,6.313 -14.836,9.473 -0.389,0.236 -0.771,0.465 -1.16,0.701 -34.787,21.142 -79.167,41.673 -132.562,53.878 l 31.01,31.01 C -95.112,52.419 -51.356,31.927 -17.04,10.95 c 0.382,-0.229 0.758,-0.465 1.127,-0.694 C -10.352,6.835 -5.051,3.408 0,0"
             style="fill:#b4f2f5;fill-opacity:1;fill-rule:nonzero;stroke:none"
             id="path4410" />
        </g>
        <g
           id="g4412"
           transform="translate(313.25,117.4292)">
          <path
             d="m 0,0 -30.226,-30.227 c -4.727,3.147 -9.676,6.313 -14.836,9.473 -0.389,0.236 -0.771,0.465 -1.16,0.701 l 30.309,30.309 C -10.352,6.835 -5.051,3.408 0,0"
             style="fill:#87eaf9;fill-opacity:1;fill-rule:nonzero;stroke:none"
             id="path4414" />
        </g>
        <g
           id="g4416"
           transform="translate(166.5786,182.0103)">
          <path
             d="M 0,0 C 60.061,-14.323 108.504,-39.149 144.474,-63.104"
             style="fill:none;stroke:#000000;stroke-width:15;stroke-linecap:round;stroke-linejoin:round;stroke-miterlimit:10;stroke-dasharray:none;stroke-opacity:1"
             id="path4418" />
        </g>
        <g
           id="g4420"
           transform="translate(280.8135,88.6689)">
          <path
             d="M 0,0 C -36.112,23.745 -84.417,48.106 -144.103,62.069"
             style="fill:none;stroke:#000000;stroke-width:15;stroke-linecap:round;stroke-linejoin:round;stroke-miterlimit:10;stroke-dasharray:none;stroke-opacity:1"
             id="path4422" />
        </g>
        <g
           id="g4424"
           transform="translate(237.9683,250.832)">
          <path
             d="M 0,0 C 59.109,-15.363 106.487,-40.737 141.272,-64.643"
             style="fill:none;stroke:#000000;stroke-width:15;stroke-linecap:round;stroke-linejoin:round;stroke-miterlimit:10;stroke-dasharray:none;stroke-opacity:1"
             id="path4426" />
        </g>
        <g
           id="g4428"
           transform="translate(343.9585,284.0532)">
          <path
             d="m 0,0 -61.63,61.63 c 12.861,-12.861 12.861,-33.713 0,-46.574 l -164.783,-164.783 c -3.518,-3.518 -3.518,-9.222 0,-12.74 l 93.563,-93.562 c 3.518,-3.518 9.222,-3.518 12.74,0 l 10.017,10.016"
             style="fill:none;stroke:#000000;stroke-width:15;stroke-linecap:round;stroke-linejoin:round;stroke-miterlimit:10;stroke-dasharray:none;stroke-opacity:1"
             id="path4430" />
        </g>
        <g
           id="g4432"
           transform="translate(256.96,61.1348)">
          <path
             d="m 0,0 131.671,131.672 c 12.861,12.861 12.861,33.713 0,46.574 l -21.578,21.578"
             style="fill:none;stroke:#000000;stroke-width:15;stroke-linecap:round;stroke-linejoin:round;stroke-miterlimit:10;stroke-dasharray:none;stroke-opacity:1"
             id="path4434" />
        </g>
        <g
           id="g4436"
           transform="translate(250.5806,443.8574)">
          <path
             d="M 0,0 103.755,-103.755"
             style="fill:none;stroke:#000000;stroke-width:15;stroke-linecap:round;stroke-linejoin:round;stroke-miterlimit:10;stroke-dasharray:none;stroke-opacity:1"
             id="path4438" />
        </g>
        <g
           id="g4440"
           transform="translate(118.3433,120.7886)">
          <path
             d="M 0,0 -21.863,-21.863"
             style="fill:none;stroke:#000000;stroke-width:15;stroke-linecap:round;stroke-linejoin:round;stroke-miterlimit:10;stroke-dasharray:none;stroke-opacity:1"
             id="path4442" />
        </g>
        <g
           id="g4444"
           transform="translate(136.6284,102.5034)">
          <path
             d="M 0,0 -21.863,-21.863"
             style="fill:none;stroke:#000000;stroke-width:15;stroke-linecap:round;stroke-linejoin:round;stroke-miterlimit:10;stroke-dasharray:none;stroke-opacity:1"
             id="path4446" />
        </g>
        <g
           id="g4448"
           transform="translate(154.9136,84.2188)">
          <path
             d="M 0,0 -21.864,-21.864"
             style="fill:none;stroke:#000000;stroke-width:15;stroke-linecap:round;stroke-linejoin:round;stroke-miterlimit:10;stroke-dasharray:none;stroke-opacity:1"
             id="path4450" />
        </g>
        <g
           id="g4452"
           transform="translate(173.1987,65.9336)">
          <path
             d="M 0,0 -21.864,-21.863"
             style="fill:none;stroke:#000000;stroke-width:15;stroke-linecap:round;stroke-linejoin:round;stroke-miterlimit:10;stroke-dasharray:none;stroke-opacity:1"
             id="path4454" />
        </g>
        <g
           id="g4456"
           transform="translate(191.4834,47.6484)">
          <path
             d="M 0,0 -21.863,-21.863"
             style="fill:none;stroke:#000000;stroke-width:15;stroke-linecap:round;stroke-linejoin:round;stroke-miterlimit:10;stroke-dasharray:none;stroke-opacity:1"
             id="path4458" />
        </g>
        <g
           id="g4460"
           transform="translate(209.7686,29.3633)">
          <path
             d="M 0,0 -21.863,-21.863"
             style="fill:none;stroke:#000000;stroke-width:15;stroke-linecap:round;stroke-linejoin:round;stroke-miterlimit:10;stroke-dasharray:none;stroke-opacity:1"
             id="path4462" />
        </g>
        <g
           id="g4464"
           transform="translate(324.0947,504.5)">
          <path
             d="M 0,0 -21.863,-21.863"
             style="fill:none;stroke:#000000;stroke-width:15;stroke-linecap:round;stroke-linejoin:round;stroke-miterlimit:10;stroke-dasharray:none;stroke-opacity:1"
             id="path4466" />
        </g>
        <g
           id="g4468"
           transform="translate(342.3799,486.2148)">
          <path
             d="M 0,0 -21.863,-21.863"
             style="fill:none;stroke:#000000;stroke-width:15;stroke-linecap:round;stroke-linejoin:round;stroke-miterlimit:10;stroke-dasharray:none;stroke-opacity:1"
             id="path4470" />
        </g>
        <g
           id="g4472"
           transform="translate(360.665,467.9297)">
          <path
             d="M 0,0 -21.864,-21.863"
             style="fill:none;stroke:#000000;stroke-width:15;stroke-linecap:round;stroke-linejoin:round;stroke-miterlimit:10;stroke-dasharray:none;stroke-opacity:1"
             id="path4474" />
        </g>
        <g
           id="g4476"
           transform="translate(378.9502,449.645)">
          <path
             d="M 0,0 -21.864,-21.864"
             style="fill:none;stroke:#000000;stroke-width:15;stroke-linecap:round;stroke-linejoin:round;stroke-miterlimit:10;stroke-dasharray:none;stroke-opacity:1"
             id="path4478" />
        </g>
        <g
           id="g4480"
           transform="translate(397.2349,431.3599)">
          <path
             d="M 0,0 -21.863,-21.863"
             style="fill:none;stroke:#000000;stroke-width:15;stroke-linecap:round;stroke-linejoin:round;stroke-miterlimit:10;stroke-dasharray:none;stroke-opacity:1"
             id="path4482" />
        </g>
        <g
           id="g4484"
           transform="translate(415.52,413.0747)">
          <path
             d="M 0,0 -21.863,-21.863"
             style="fill:none;stroke:#000000;stroke-width:15;stroke-linecap:round;stroke-linejoin:round;stroke-miterlimit:10;stroke-dasharray:none;stroke-opacity:1"
             id="path4486" />
        </g>
      </g>
    </g>
  </g>
</svg>
