<svg id="Capa_1" enable-background="new 0 0 511.996 511.996" height="512" viewBox="0 0 511.996 511.996" width="512" xmlns="http://www.w3.org/2000/svg"><g><g><g><g><path d="m255.996 7.5c-60.043 0-108.718 48.675-108.718 108.718v79.717c0 16.016 12.984 29 29 29h159.436c16.016 0 29-12.984 29-29v-79.717c-.001-60.043-48.675-108.718-108.718-108.718z" fill="#5680a6"/><path d="m290.996 13.257c-10.983-3.732-22.755-5.757-35-5.757-60.043 0-108.718 48.675-108.718 108.718v79.717c0 16.016 12.984 29 29 29h70c-16.016 0-29-12.984-29-29v-79.717c0-47.798 30.846-88.392 73.718-102.961z" fill="#497090"/><path d="m256.001 38.562c-42.891 0-77.661 34.77-77.661 77.661v108.711h155.322v-108.711c-.001-42.891-34.77-77.661-77.661-77.661z" fill="#eaf6ff"/><path d="m256.001 38.562c-42.891 0-77.661 34.77-77.661 77.661v108.711h38.934v-108.711c0-36.168 24.724-66.561 58.194-75.201-6.221-1.605-12.744-2.46-19.467-2.46z" fill="#d8ecfe"/><path d="m178.34 131.75-2.062-.001c-16.016 0-29 12.984-29 29v35.187c0 16.016 12.984 29 29 29l79.718-.001.005-31.061z" fill="#ffb124"/><path d="m217.278 195.936v-33.038l-38.938-31.148-2.062-.001c-16.016 0-29 12.984-29 29v35.187c0 16.016 12.984 29 29 29l69.815-.001c-15.932-.1-28.815-13.045-28.815-28.999z" fill="#ff901d"/><path d="m178.34 131.75v40.673c0 11.846 9.604 21.45 21.45 21.45h56.211z" fill="#5680a6"/><path d="m178.34 131.75v40.673c0 11.846 9.604 21.45 21.45 21.45h17.488v-30.976z" fill="#497090"/><path d="m335.719 131.749-2.057.001-77.666 62.123.004 31.061 79.718.001c16.016 0 29-12.984 29-29v-35.187c.001-16.015-12.983-28.999-28.999-28.999z" fill="#ffb124"/><path d="m255.995 193.874h56.211c11.846 0 21.45-9.604 21.45-21.45v-40.674z" fill="#5680a6"/></g><path d="m344.713 287.06h-177.433c-11.046 0-20-8.954-20-20v-22.126c0-11.046 8.954-20 20-20h177.433c11.046 0 20 8.954 20 20v22.126c0 11.046-8.954 20-20 20z" fill="#ffb124"/><path d="m217.28 267.06v-22.126c0-11.046 8.954-20 20-20h-70c-11.046 0-20 8.954-20 20v22.126c0 11.046 8.954 20 20 20h70c-11.046 0-20-8.954-20-20z" fill="#ff901d"/><path d="m344.713 349.185h-177.433c-11.046 0-20-8.954-20-20v-22.125c0-11.046 8.954-20 20-20h177.433c11.046 0 20 8.954 20 20v22.126c0 11.045-8.954 19.999-20 19.999z" fill="#ffb124"/><path d="m217.28 329.186v-22.126c0-11.046 8.954-20 20-20h-70c-11.046 0-20 8.954-20 20v22.126c0 11.046 8.954 20 20 20h70c-11.046 0-20-8.955-20-20z" fill="#ff901d"/><path d="m344.713 411.311h-177.433c-11.046 0-20-8.954-20-20v-22.126c0-11.046 8.954-20 20-20h177.433c11.046 0 20 8.954 20 20v22.126c0 11.045-8.954 20-20 20z" fill="#ffb124"/><path d="m217.28 391.311v-22.126c0-11.046 8.954-20 20-20h-70c-11.046 0-20 8.954-20 20v22.126c0 11.046 8.954 20 20 20h70c-11.046 0-20-8.955-20-20z" fill="#ff901d"/><path d="m344.713 473.436h-177.433c-11.046 0-20-8.954-20-20v-22.126c0-11.046 8.954-20 20-20h177.433c11.046 0 20 8.954 20 20v22.126c0 11.046-8.954 20-20 20z" fill="#ffb124"/><path d="m217.28 453.436v-22.126c0-11.046 8.954-20 20-20h-70c-11.046 0-20 8.954-20 20v22.126c0 11.046 8.954 20 20 20h70c-11.046 0-20-8.954-20-20z" fill="#ff901d"/><path d="m349.182 504.496h-186.37c-8.578 0-15.531-6.954-15.531-15.531 0-8.578 6.954-15.531 15.531-15.531h186.37c8.578 0 15.531 6.954 15.531 15.531 0 8.578-6.954 15.531-15.531 15.531z" fill="#ffb124"/><path d="m217.281 488.965c0-8.578 6.953-15.531 15.531-15.531h-70c-8.578 0-15.531 6.953-15.531 15.531s6.953 15.531 15.531 15.531h70c-8.578 0-15.531-6.954-15.531-15.531z" fill="#ff901d"/></g></g></g><g><path d="m372.219 195.936c-.001-9.132.002 26.072-.005-79.718 0-25.003-7.82-48.828-22.616-68.897-2.458-3.334-7.154-4.045-10.487-1.586-3.334 2.458-4.045 7.153-1.587 10.487 24.981 33.886 18.768 67.243 19.69 75.046-4.644-3.395-10.117-5.72-16.053-6.612v-8.432c0-46.958-38.203-85.161-85.16-85.161-25.509 0-49.46 11.294-65.711 30.987-2.637 3.195-2.185 7.922 1.011 10.559 3.193 2.636 7.922 2.185 10.558-1.011 13.393-16.228 33.127-25.535 54.143-25.535 38.687 0 70.16 31.474 70.16 70.161v11.919l-70.163 56.125-70.158-56.121c.32-8.724-1.132-17.976 2.734-31.388 1.146-3.98-1.149-8.137-5.13-9.284-3.98-1.149-8.137 1.148-9.284 5.129-4.432 15.378-3.073 26.648-3.32 32.051-5.94.891-11.416 3.218-16.062 6.616v-15.052c-.002-55.813 45.405-101.219 101.217-101.219 21.78 0 42.528 6.81 60.001 19.693 3.334 2.458 8.03 1.749 10.487-1.586 2.459-3.333 1.749-8.029-1.585-10.487-20.07-14.798-43.897-22.62-68.904-22.62-64.083 0-116.218 52.135-116.218 116.218v79.718c0 10.484 4.444 19.95 11.546 26.614-6.983 4.992-11.543 13.166-11.543 22.385v22.125c0 7.872 3.325 14.982 8.645 20-5.319 5.018-8.645 12.128-8.645 20v22.126c0 7.872 3.325 14.982 8.644 20-5.319 5.018-8.644 12.127-8.644 20v22.126c0 7.872 3.325 14.982 8.645 20-5.319 5.018-8.645 12.128-8.645 20v22.126c0 7.208 2.787 13.776 7.341 18.685-15.206 14.175-5.236 39.875 15.692 39.875h186.369c20.942 0 30.89-25.707 15.692-39.875 4.553-4.909 7.341-11.478 7.341-18.685v-22.128c0-7.872-3.325-14.982-8.645-20 5.319-5.018 8.645-12.128 8.645-20v-22.126c0-7.872-3.325-14.982-8.644-20 5.319-5.018 8.644-12.127 8.644-20v-22.124c0-7.872-3.325-14.982-8.645-20 5.319-5.018 8.645-12.128 8.645-20v-22.125c0-9.219-4.56-17.392-11.542-22.384 7.102-6.664 11.546-16.13 11.546-26.615zm-186.379-48.581 48.778 39.019h-34.828c-7.692 0-13.95-6.258-13.95-13.95zm140.316.002v25.066c0 7.692-6.258 13.95-13.95 13.95h-34.827zm31.058 12.95v35.627c0 11.855-9.645 21.5-21.5 21.5h-72.214c0-1.643 0 5.95 0-16.061h48.707c15.963 0 28.95-12.987 28.95-28.95v-32.478c9.094 2.379 15.859 10.579 16.057 20.362zm-186.374-20.362v32.478c0 15.963 12.987 28.95 28.95 28.95h48.707c-.001 22.01 0 14.419 0 16.061h-72.219c-11.855 0-21.5-9.645-21.5-21.5v-35.186c-.001-9.977 6.832-18.389 16.062-20.803zm-16.06 127.115v-22.125c0-6.893 5.607-12.5 12.5-12.5h81.215v47.125c-3.205 0-81.343 0-81.24 0-6.881-.014-12.475-5.616-12.475-12.5zm0 62.126v-22.126c0-6.884 5.594-12.486 12.474-12.5h.026 81.215v47.125h-81.215c-.017 0-.034 0-.051 0-6.869-.028-12.449-5.624-12.449-12.499zm0 62.125v-22.126c0-6.874 5.588-12.499 12.5-12.499h81.215v47.125c-3.205 0-81.343 0-81.24 0-6.881-.015-12.475-5.616-12.475-12.5zm93.715 27.5v47.123h-81.407c-6.804-.103-12.308-5.669-12.308-12.498v-22.126c0-6.884 5.594-12.486 12.474-12.5 15.089 0 66.241.001 81.241.001zm100.687 78.185h-186.37c-4.429 0-8.031-3.603-8.031-8.031s3.603-8.031 8.031-8.031c-7.662.003 181.694 0 186.369 0 4.429 0 8.031 3.603 8.031 8.031s-3.602 8.031-8.03 8.031zm8.032-65.686v22.126c0 6.828-5.504 12.394-12.308 12.498h-81.411v-47.123c.141 0 81.432 0 81.244 0 6.881.013 12.475 5.615 12.475 12.499zm0-124.25v22.126c0 6.558-5.171 12.43-12.577 12.5h-17.937c-4.143 0-7.5 3.358-7.5 7.5s3.357 7.5 7.5 7.5h18.065c6.869.028 12.449 5.624 12.449 12.499v22.126c0 6.884-5.594 12.486-12.474 12.5-.009 0-.017 0-.026 0h-81.219v-47.125h30.519c4.143 0 7.5-3.358 7.5-7.5s-3.357-7.5-7.5-7.5h-30.519v-47.126c.141 0 81.432 0 81.244 0 6.881.014 12.475 5.616 12.475 12.5zm-12.5-74.625c6.893 0 12.5 5.607 12.5 12.5v22.125c0 6.884-5.594 12.486-12.474 12.5-.009 0-.017 0-.026 0h-81.219v-47.125z"/></g></svg>