<svg id="Capa_1" enable-background="new 0 0 512 512" height="512" viewBox="0 0 512 512" width="512" xmlns="http://www.w3.org/2000/svg"><g><g><g><path d="m42.813 275.309h-23.964c-6.282 0-11.374-5.092-11.374-11.374v-33.296c0-6.282 5.092-11.374 11.374-11.374h23.964z" fill="#fe7ab6"/></g><g><path d="m469.187 275.309h23.964c6.282 0 11.374-5.092 11.374-11.374v-33.296c0-6.282-5.092-11.374-11.374-11.374h-23.964z" fill="#fe7ab6"/></g></g><g><g><path d="m504.524 230.638v33.298c0 6.279-5.093 11.372-11.372 11.372h-17.671c6.279 0 11.372-5.093 11.372-11.372v-33.298c0-6.279-5.093-11.372-11.372-11.372h17.671c6.279.001 11.372 5.094 11.372 11.372z" fill="#fe5ca7"/></g><g><path d="m42.817 219.267v56.041h-21.707c-1.116-6.189-1.714-12.707-1.714-19.534 0-12.867 2.671-25.225 7.545-36.507z" fill="#fe5ca7"/></g></g><g><path d="m406.344 165.026c-62.291-17.06-238.397-17.06-300.688 0-41.046 11.241-70.325 48.194-70.312 90.751.023 76.386 74.022 113.173 141.471 101.931 0 0 41.803-7.235 60.293-40.999 8.682-14.039 29.101-14.039 37.784 0 18.49 33.764 60.293 40.999 60.293 40.999 67.449 11.242 141.448-25.545 141.471-101.931.013-42.557-29.266-79.51-70.312-90.751z" fill="#fec0dd"/></g><g><path d="m476.658 255.774c-.02 76.393-74.021 113.179-141.474 101.937 0 0-10.455-1.804-23.212-7.844-8.093-3.817-17.112-9.338-24.996-17.182 1.714.937 3.409 1.784 5.063 2.571 12.757 6.02 23.212 7.833 23.212 7.833 67.453 11.242 141.454-25.544 141.474-101.927.01-26.202-11.093-50.281-29.202-67.533 29.57 16.306 49.144 47.352 49.135 82.145z" fill="#fea3ce"/></g><g><path d="m42.819 255.775c-.012-38.733 26.64-73.086 64.812-83.539 44.963-12.314 157.7-16.376 241.255-8.693 4.103.37 7.748-2.647 8.128-6.759.378-4.111-2.648-7.749-6.76-8.128-75.464-6.94-195.289-4.883-246.572 9.162-29.348 8.037-52.871 28.194-65.547 53.972h-19.286c-10.393-.001-18.849 8.455-18.849 18.848v33.296c0 10.394 8.456 18.85 18.849 18.85h12.197c4.226 17.33 12.619 32.9 24.879 45.892 1.471 1.558 3.452 2.345 5.438 2.345 1.841 0 3.685-.675 5.129-2.038 3.002-2.833 3.14-7.564.307-10.567-15.681-16.617-23.972-38.278-23.98-62.641zm-23.97 12.059c-2.15 0-3.899-1.75-3.899-3.9v-33.296c0-2.15 1.749-3.899 3.899-3.899h13.367c-2.835 9.266-4.349 19.027-4.346 29.04.001 4.086.212 8.105.615 12.055z"/><path d="m493.151 211.789h-19.287c-12.675-25.777-36.199-45.935-65.546-53.972-6.462-1.77-14.255-3.406-23.164-4.861-4.082-.661-7.916 2.099-8.582 6.174-.665 4.074 2.099 7.916 6.174 8.582 8.391 1.369 15.666 2.892 21.624 4.524 38.171 10.453 64.823 44.806 64.811 83.539-.009 28.195-10.911 52.327-31.528 69.787-25.345 21.464-64.139 30.955-101.18 24.783-.384-.068-38.548-7.137-55.026-37.226-.063-.115-.129-.229-.198-.341-5.449-8.812-14.888-14.074-25.249-14.074s-19.8 5.261-25.249 14.074c-.069.112-.135.226-.198.341-16.478 30.089-54.642 37.158-54.967 37.217-28.619 4.769-58.736.293-82.626-12.285-3.656-1.923-8.174-.52-10.097 3.132-1.923 3.654-.521 8.174 3.132 10.097 26.723 14.067 60.274 19.095 92.095 13.794 1.848-.32 45.428-8.24 65.467-44.58 2.755-4.349 7.28-6.839 12.442-6.839s9.688 2.491 12.442 6.84c20.04 36.34 63.619 44.259 65.513 44.587 8.548 1.424 17.113 2.122 25.58 2.122 33.081 0 64.658-10.653 87.78-30.233 17.152-14.526 28.54-32.955 33.678-54.186h12.158c10.393 0 18.849-8.456 18.849-18.85v-33.296c.001-10.394-8.455-18.85-18.848-18.85zm3.899 52.145c0 2.15-1.749 3.9-3.899 3.9h-9.618c.396-3.942.597-7.962.598-12.055.003-10.013-1.511-19.773-4.346-29.04h13.367c2.15 0 3.899 1.749 3.899 3.899v33.296z"/><path d="m207.176 242.568.262-.341c2.531-3.259 1.946-7.956-1.311-10.489-3.259-2.534-7.949-1.953-10.483 1.303l-.198.258c-7.62 9.624-21.603 15.32-37.367 15.188-10.598-.076-20.315-2.787-27.75-7.528-.051-.032-.103-.062-.155-.093-3.396-2.188-6.31-4.802-8.605-7.788-2.517-3.271-7.207-3.885-10.482-1.37-3.272 2.516-3.886 7.209-1.37 10.482 2.589 3.369 5.705 6.389 9.234 9.031-.275 3.227-1.603 8.379-6.999 11.443-3.59 2.038-4.848 6.601-2.809 10.19 1.376 2.424 3.904 3.785 6.506 3.785 1.251 0 2.519-.314 3.684-.976 7.977-4.529 11.664-11.126 13.322-16.927 5.588 2.172 11.673 3.641 18.062 4.299.912 3.995 1.614 10.818-2.259 16.167-2.421 3.344-1.674 8.017 1.669 10.439 1.326.96 2.859 1.422 4.379 1.422 2.314 0 4.598-1.073 6.06-3.091 6.133-8.469 6.353-18.054 5.346-24.889 6.398-.618 12.499-2.049 18.116-4.183 2.663 1.4 7.853 5.008 8.209 12.011.203 3.994 3.505 7.095 7.459 7.095.127 0 .257-.003.385-.01 4.123-.209 7.296-3.722 7.085-7.845-.452-8.879-4.449-15.023-8.736-19.113 3.307-2.497 6.256-5.326 8.746-8.47z"/><path d="m402.284 242.19c2.516-3.273 1.902-7.966-1.37-10.482-3.276-2.515-7.965-1.901-10.482 1.37-2.298 2.989-5.217 5.607-8.619 7.796-.044.026-.088.052-.131.079-7.437 4.745-17.158 7.458-27.76 7.534-15.742.132-29.747-5.564-37.408-15.243l-.128-.168c-2.517-3.27-7.182-3.85-10.456-1.332-3.271 2.517-3.857 7.245-1.34 10.517l.245.319c2.487 3.14 5.432 5.965 8.735 8.459-4.287 4.09-8.283 10.234-8.735 19.111-.21 4.123 2.962 7.635 7.085 7.846.129.007.259.01.386.01 3.955 0 7.256-3.101 7.459-7.094.357-7.006 5.546-10.611 8.208-12.01 5.617 2.133 11.718 3.563 18.117 4.182-1.007 6.835-.787 16.419 5.346 24.889 1.462 2.019 3.744 3.091 6.06 3.091 1.52 0 3.053-.462 4.379-1.422 3.343-2.422 4.091-7.094 1.669-10.439-3.873-5.348-3.172-12.172-2.259-16.167 6.389-.658 12.474-2.127 18.062-4.299 1.658 5.801 5.345 12.398 13.322 16.927 1.165.662 2.433.976 3.684.976 2.602 0 5.13-1.361 6.506-3.785 2.039-3.589.781-8.152-2.809-10.19-5.338-3.032-6.684-8.199-6.975-11.46 3.519-2.639 6.625-5.654 9.209-9.015z"/></g></g></svg>