<svg id="Capa_1" enable-background="new 0 0 512 512" height="512" viewBox="0 0 512 512" width="512" xmlns="http://www.w3.org/2000/svg"><g><g><path d="m441.791 157.758-31.291-69.258-145.16-10.181-159.787 10.936-30.685 68.503c-4.092 9.057-6.209 18.882-6.209 28.821l-2.383 299.144c0 8.284 6.716 15 15 15l351.724 1.724c8.284 0 14.521-4.663 14.521-12.947l.479-1v-301.921c0-9.939-2.117-19.764-6.209-28.821z" fill="#d19a6e"/><path d="m448 488.5v1c0 8.284-6.716 15-15 15h-354c-8.284 0-15-6.716-15-15v-302.92c0-9.94 2.12-19.76 6.21-28.82l31.29-69.26 7.245-6.436 10.755 6.436-34.71 75.85c-3.18 7.03-4.79 14.51-4.79 22.23v292.92c0 4.971 4.029 9 9 9z" fill="#c38c66"/><path d="m410.5 88.5h-291l-15.351-3.966-.681-65.278c0-5.523 4.477-10 10-10l6.032-1.756h281c5.523 0 10 4.477 10 10v33.5l-4.691 5.702 4.691 9.298z" fill="#f9f8f9"/><path d="m119.5 7.5v81h-18v-22.5l3.883-7.5-3.883-7.5v-33.5c0-5.52 4.48-10 10-10z" fill="#e8e8e8"/><circle cx="256" cy="330.5" fill="#f9f8f9" r="133"/><path d="m417.5 259c0-42.802-34.698-77.5-77.5-77.5-18.38 0-35.266 6.398-48.551 17.089 0 0-2.478 2.882-3.949 4.267-15.008 14.134-22.245 33.901-22.245 56.144 0 42.802 31.943 75.489 74.745 75.489 22.459 0 42.473-7.81 56.628-23.074 1.228-1.325 3.759-3.834 3.759-3.834 10.705-13.29 17.113-30.187 17.113-48.581z" fill="#ffdc64"/><path d="m400.474 307.473c-14.2 17.7-36.014 29.027-60.474 29.027-42.8 0-77.5-34.7-77.5-77.5 0-24.46 11.323-46.27 29.023-60.47-10.651 13.27-17.023 30.13-17.023 48.47 0 42.8 34.7 77.5 77.5 77.5 18.34 0 35.204-6.377 48.474-17.027z" fill="#ffc850"/><path d="m380.651 259.924c-.844-.336-.844-1.513 0-1.849 7.089-2.821 10.683-11.565 6.498-18.813l-6.482-11.227c-4.185-7.248-13.555-8.507-19.542-3.779-.713.563-1.732-.025-1.601-.924 1.102-7.549-4.674-15.034-13.043-15.034h-12.963c-8.369 0-14.145 7.485-13.043 15.034.131.899-.888 1.488-1.601.924-5.987-4.729-15.357-3.469-19.542 3.779l-6.482 11.227c-4.185 7.248-.59 15.992 6.498 18.813.844.336.844 1.513 0 1.849-7.089 2.821-10.683 11.565-6.498 18.813l6.482 11.227c4.185 7.248 13.555 8.507 19.542 3.779.713-.563 1.732.025 1.601.924-1.102 7.549 4.674 15.034 13.043 15.034h12.963c8.369 0 14.145-7.485 13.043-15.034-.131-.899.888-1.488 1.601-.924 5.987 4.729 15.357 3.469 19.542-3.779l6.482-11.227c4.185-7.247.591-15.992-6.498-18.813zm-32.505 15.035c-4.728-3.734-11.565-3.734-16.293 0-.713.563-1.732-.025-1.601-.924.87-5.961-2.549-11.883-8.146-14.11-.844-.336-.844-1.513 0-1.849 5.598-2.227 9.016-8.149 8.146-14.11-.131-.899.888-1.488 1.601-.924 4.728 3.734 11.565 3.734 16.293 0 .713-.563 1.732.025 1.601.924-.87 5.961 2.549 11.883 8.146 14.11.844.336.844 1.513 0 1.849-5.598 2.227-9.016 8.149-8.146 14.11.132.898-.888 1.487-1.601.924z" fill="#ffc850"/><circle cx="148" cy="252" fill="#c38c66" r="53.5"/><path d="m307 150h-102c-8.56 0-15.5-6.94-15.5-15.5 0-8.56 6.94-15.5 15.5-15.5h102c8.56 0 15.5 6.94 15.5 15.5 0 8.56-6.94 15.5-15.5 15.5z" fill="#c38c66"/><g><path d="m256.248 399.91c0-22.052-12.104-35.62-32.318-36.644-.543-.028-1.089-.042-1.639-.042-9.865 0-18.677 4.49-24.517 11.533-.806.972-2.273.972-3.079 0-4.477-5.399-10.699-9.297-17.804-10.823 0 0-4.41.103-6.714.103-.55 0-1.096.014-1.639.042-20.214 1.025-32.101 15.025-30.387 39.683 1.144 16.462 6.727 30.085 11.907 39.664 8.544 15.801 16.933 20.465 28.717 20.465 4.515 0 8.698-1.406 12.143-3.802 3.21-2.233 7.42-3.317 10.631-1.085 2.244 1.56 7.558 4.391 7.558 4.391 1.476.324 3.01.495 4.585.495 11.785 0 18.888-4.294 25.692-15.375 12.784-20.819 16.864-34.717 16.864-48.605z" fill="#e27f86"/><path d="m206.157 429.475c-1.933-2.88-4.823-5.082-8.162-6.189l-44.031-14.691c-2.102-.701-3.626-2.581-3.78-4.792-.001-.013-.002-.026-.003-.039-1.555-22.312 9.608-36.561 26.709-39.83-2.162-.468-4.416-.71-6.718-.71-.548 0-1.096.01-1.634.04-19.906 1.011-33.605 15.393-32.375 39.393 0 .003.007.012.008.016.01.363.029.727.059 1.09 1.136 16.463 8.65 30.086 13.832 39.663 8.54 15.805 16.931 20.469 28.71 20.469 4.514 0 8.7-1.405 12.148-3.807 3.209-2.232 7.414-2.232 10.633 0 2.242 1.565 4.794 2.71 7.554 3.308.448-1.056.857-2.152 1.236-3.278 3.458-10.383 1.933-21.555-4.186-30.643z" fill="#df646e"/><path d="m125.928 412.298c-2.316-.773-4.844-.683-7.08.297-1.696.743-3.328 1.627-4.878 2.643 0 0-3.002 2.702-4.541 4.209-3.617 3.542-5.263 7.821-6.975 12.954-.16.48-.309.961-.446 1.443-5.752 20.234 10.765 37.804 31.8 37.886l39.619.937c11.193.766 17.853-1.085 22.765-6.552 1.194-1.329 4.003-3.814 4.003-3.814.919-1.655 1.692-3.455 2.335-5.383 2.256-6.763 1.049-13.838-2.643-19.329-.358-.533-.898-.918-1.507-1.121l-33.174-11.067-8.324-.505-5.866-4.229z" fill="#fff082"/><path d="m200.195 462.301c-4.594 8.291-12.962 12.008-26.767 12.008l-42.034-.169c-21.037-.08-36.802-20.1-31.052-40.33.14-.478.289-.967.449-1.445 2.441-7.315 7.191-13.201 13.18-17.127-.877 1.624-1.61 3.355-2.218 5.168-.159.478-.309.967-.449 1.445-5.75 20.23 10.015 40.25 31.052 40.33z" fill="#ffdc64"/></g></g><g><path d="m448.626 154.67-30.626-67.786v-69.384c0-9.649-7.851-17.5-17.5-17.5h-177.734c-4.143 0-7.5 3.357-7.5 7.5s3.357 7.5 7.5 7.5h177.734c1.379 0 2.5 1.121 2.5 2.5v33.5h-294v-33.5c0-1.379 1.121-2.5 2.5-2.5h76.266c4.143 0 7.5-3.357 7.5-7.5s-3.357-7.5-7.5-7.5h-76.266c-9.649 0-17.5 7.851-17.5 17.5v69.384l-30.626 67.786c-4.562 10.095-6.874 20.83-6.874 31.909v146.634c0 4.143 3.357 7.5 7.5 7.5s7.5-3.357 7.5-7.5v-146.634c0-8.935 1.865-17.592 5.544-25.733l29.298-64.846h203.786c4.143 0 7.5-3.357 7.5-7.5s-3.357-7.5-7.5-7.5h-201.128v-15h294v15h-57.872c-4.143 0-7.5 3.357-7.5 7.5s3.357 7.5 7.5 7.5h60.53l29.298 64.846c3.679 8.142 5.544 16.799 5.544 25.733v302.921c0 4.136-3.364 7.5-7.5 7.5h-354c-4.136 0-7.5-3.364-7.5-7.5v-121.287c0-4.143-3.357-7.5-7.5-7.5s-7.5 3.357-7.5 7.5v121.287c0 12.406 10.094 22.5 22.5 22.5h354c12.406 0 22.5-10.094 22.5-22.5v-302.921c0-11.079-2.312-21.814-6.874-31.909z"/><path d="m286.354 256.17c.584 1.011 1.248 1.951 1.968 2.83-.72.879-1.384 1.819-1.968 2.83-3.734 6.468-3.733 14.189.001 20.657l6.481 11.227c3.734 6.468 10.422 10.329 17.891 10.329 1.167 0 2.312-.105 3.434-.289.401 1.063.883 2.107 1.467 3.118 3.734 6.468 10.422 10.329 17.891 10.329h12.963c7.469 0 14.156-3.861 17.891-10.329.584-1.011 1.065-2.055 1.467-3.118 1.121.184 2.266.289 3.434.289 7.469 0 14.157-3.861 17.891-10.329l6.481-11.227c3.734-6.468 3.734-14.189.001-20.657-.584-1.011-1.248-1.951-1.968-2.83.72-.879 1.384-1.819 1.968-2.83 3.733-6.468 3.733-14.189-.001-20.657l-6.481-11.227c-3.733-6.468-10.422-10.329-17.891-10.329-1.167 0-2.312.105-3.434.289-.401-1.063-.883-2.107-1.467-3.118-3.734-6.468-10.422-10.329-17.891-10.329h-12.963c-7.469 0-14.156 3.861-17.891 10.329-.584 1.011-1.065 2.055-1.467 3.118-1.121-.184-2.266-.289-3.434-.289-7.469 0-14.157 3.861-17.891 10.329l-6.481 11.227c-3.734 6.467-3.734 14.189-.001 20.657zm19.473 30.044-6.481-11.227c-1.475-2.554-.491-4.808-.001-5.658.491-.851 1.952-2.829 4.901-2.829h12.963c2.948 0 4.409 1.979 4.9 2.829s1.475 3.104 0 5.658l-6.481 11.227c-1.475 2.554-3.918 2.829-4.9 2.829s-3.426-.275-4.901-2.829zm34.173-32.872c1.167 0 2.312-.105 3.434-.289.603 1.379 1.129 3.02 3.434 5.947-.893 1.212-2.051 2.488-3.434 5.947-1.496-.167-3.18-.532-6.867 0-.603-1.379-1.129-3.02-3.434-5.947.893-1.212 2.051-2.488 3.434-5.947 1.121.184 2.266.289 3.433.289zm11.382 46.03c-.491.851-1.952 2.829-4.9 2.829h-12.963c-2.948 0-4.409-1.979-4.9-2.829s-1.475-3.104 0-5.658l6.481-11.227c1.475-2.554 3.918-2.829 4.9-2.829s3.426.275 4.9 2.829l6.481 11.227c1.475 2.554.492 4.807.001 5.658zm29.272-24.385-6.481 11.227c-1.475 2.554-3.918 2.829-4.9 2.829s-3.426-.275-4.9-2.829l-6.481-11.227c-1.475-2.554-.491-4.808 0-5.658s1.952-2.829 4.9-2.829h12.963c2.949 0 4.41 1.979 4.901 2.829.49.851 1.473 3.105-.002 5.658zm-6.481-43.201 6.481 11.227c1.475 2.554.491 4.808.001 5.658-.491.851-1.952 2.829-4.901 2.829h-12.963c-2.948 0-4.409-1.979-4.9-2.829s-1.475-3.104 0-5.658l6.481-11.227c1.475-2.554 3.918-2.829 4.9-2.829s3.426.275 4.901 2.829zm-45.555-13.158c.491-.851 1.952-2.829 4.9-2.829h12.963c2.948 0 4.409 1.979 4.9 2.829s1.475 3.104 0 5.658l-6.481 11.227c-1.475 2.554-3.918 2.829-4.9 2.829s-3.426-.275-4.9-2.829l-6.481-11.227c-1.475-2.554-.492-4.807-.001-5.658zm-29.272 24.385 6.481-11.227c1.475-2.554 3.918-2.829 4.9-2.829s3.426.275 4.9 2.829l6.481 11.227c1.475 2.554.491 4.808 0 5.658s-1.952 2.829-4.9 2.829h-12.963c-2.949 0-4.41-1.979-4.901-2.829-.49-.851-1.473-3.105.002-5.658z"/><path d="m123.622 405.04c-4.127-1.377-8.574-1.183-12.52.546-10.473 4.57-19.613 14.512-22.861 26.205-3.35 11.781-.999 24.216 6.448 34.115 7.657 10.178 19.336 16.094 32.044 16.094 7.789 0 39.323.286 45.835.286 14.237 0 23.118-5.908 28.185-13.066 4.143 2.189 8.739 3.351 13.49 3.351 6.568 0 12.139-1.198 17.044-3.749 8.11 1.44 16.415 2.178 24.713 2.178 35.426 0 69.263-13.226 95.277-37.24 3.044-2.81 3.233-7.555.424-10.598s-7.555-3.232-10.598-.424c-23.235 21.45-53.458 33.262-85.103 33.262-3.599 0-7.198-.161-10.778-.465 12.653-19.431 19.788-38.794 19.421-54.963.139-26.34-16.383-44.407-41.731-44.482-7.737 0-15.197 2.283-21.532 6.39-.437-6.622 1.8-13.289 6.444-18.32 2.81-3.043 2.62-7.788-.424-10.598-3.045-2.81-7.788-2.621-10.598.424-6.539 7.083-10.128 16.182-10.457 25.483-4.969-2.194-10.397-3.379-15.969-3.379-12.532.184-25.449 5.229-32.999 15.498-4.562-13.129-6.877-26.889-6.877-41.087 0-6.588.52-13.164 1.534-19.634 5.093 1.382 10.442 2.133 15.966 2.133 33.636 0 61-27.364 61-61 0-12.302-3.672-23.756-9.961-33.348 17.555-8.946 37.089-13.652 56.961-13.652 5.853 0 11.685.417 17.448 1.218-11.533 14.511-18.448 32.849-18.448 52.782 0 46.869 38.131 85 85 85 15.046 0 29.181-3.946 41.453-10.833-.481 22.85-7.11 45.022-19.282 64.283-2.213 3.502-1.168 8.134 2.333 10.347 1.244.786 2.63 1.161 4 1.161 2.487 0 4.92-1.236 6.347-3.494 14.163-22.411 21.649-48.333 21.649-74.964 0-2.615-.098-5.242-.243-7.858 17.611-15.585 28.743-38.332 28.743-63.642 0-46.869-38.131-85-85-85-20.405 0-39.149 7.232-53.816 19.26-9.867-2.159-20.001-3.26-30.184-3.26-23.438 0-46.465 5.847-66.925 16.943-10.848-9.898-25.268-15.943-41.075-15.943-33.636 0-61 27.364-61 61 0 22.662 12.431 42.462 30.823 52.98-1.537 8.381-2.323 16.943-2.323 25.52 0 21.254 4.63 41.64 13.738 60.632-.541 3.485-1.052 9.842-.399 15.649zm286.378-146.04c0 38.598-31.402 70-70 70s-70-31.402-70-70 31.402-70 70-70 70 31.402 70 70zm-308-7c0-25.364 20.636-46 46-46s46 20.636 46 46-20.636 46-46 46-46-20.636-46-46zm67.646 215.183c-.779-.05-42.477-.165-42.854-.183-7.974-.031-15.305-3.717-20.115-10.111-4.066-5.314-6.345-14.543-3.658-22.129 2.299-6.889 7.438-12.515 14.102-15.435.331-.143 1.014-.308 1.758-.055l-.001-.001 25.132 8.384-2.306 6.339c-1.416 3.893.592 8.196 4.484 9.611.846.309 1.712.454 2.562.454 3.064 0 5.941-1.892 7.049-4.938l2.443-6.718 32.111 10.713c1.907 3.562 2.295 7.78 1.005 11.648-2.242 6.723-6.662 12.421-21.712 12.421zm-26.014-63.248c-.716-10.29 1.612-18.78 6.73-24.553 3.919-4.54 11.863-8.346 20.014-8.293 7.993 0 15.52 3.915 20.134 10.473 1.405 1.996 3.693 3.184 6.134 3.184s4.729-1.188 6.134-3.184c4.614-6.558 12.142-10.473 20.135-10.473 16.362.095 26.905 10.887 26.731 29.482 0 13.634-4.604 26.692-15.892 45.076-5.542 9.026-10.282 11.924-19.509 11.924-2.722 0-5.339-.786-7.603-2.261 1.416-7.981-.474-16.297-5.374-22.929-.917-1.242-2.194-2.17-3.659-2.658l-52.803-17.615c-.587-2.764-.987-5.503-1.172-8.173z"/><path d="m169.5 266c0-4.143-3.357-7.5-7.5-7.5h-28c-4.143 0-7.5 3.357-7.5 7.5s3.357 7.5 7.5 7.5h28c4.143 0 7.5-3.357 7.5-7.5z"/><path d="m167 245.5c4.143 0 7.5-3.357 7.5-7.5s-3.357-7.5-7.5-7.5h-38c-4.143 0-7.5 3.357-7.5 7.5s3.357 7.5 7.5 7.5z"/><path d="m307 157.5c12.683 0 23-10.317 23-23s-10.317-23-23-23h-102c-12.683 0-23 10.317-23 23s10.317 23 23 23zm-110-23c0-4.411 3.589-8 8-8h102c4.411 0 8 3.589 8 8s-3.589 8-8 8h-102c-4.411 0-8-3.589-8-8z"/></g></g></svg>