<?xml version="1.0" encoding="UTF-8" standalone="no"?>
<!-- Created with Inkscape (http://www.inkscape.org/) -->

<svg
   version="1.1"
   id="svg4767"
   xml:space="preserve"
   width="682.66669"
   height="682.66669"
   viewBox="0 0 682.66669 682.66669"
   xmlns="http://www.w3.org/2000/svg"
   xmlns:svg="http://www.w3.org/2000/svg"><defs
     id="defs4771"><clipPath
       clipPathUnits="userSpaceOnUse"
       id="clipPath4781"><path
         d="M 0,512 H 512 V 0 H 0 Z"
         id="path4779" /></clipPath></defs><g
     id="g4773"
     transform="matrix(1.3333333,0,0,-1.3333333,0,682.66667)"><g
       id="g4775"><g
         id="g4777"
         clip-path="url(#clipPath4781)"><g
           id="g4783"
           transform="translate(445.3076,469.8281)"><path
             d="m 0,0 v -360.609 c 0,-30.502 -24.727,-55.229 -55.228,-55.229 -30.501,0 -55.228,24.727 -55.228,55.229 v 21.781 h -49.117 v -19.389 c 0,-57.629 46.717,-104.345 104.345,-104.345 57.629,0 104.346,46.716 104.346,104.345 L 49.118,0 Z"
             style="fill:#fdb541;fill-opacity:1;fill-rule:nonzero;stroke:none"
             id="path4785" /></g><g
           id="g4787"
           transform="translate(494.4297,469.8301)"><path
             d="M 0,0 V -358.221 C 0,-387.03 -11.68,-413.12 -30.56,-432 c -18.889,-18.88 -44.969,-30.561 -73.79,-30.561 -2.58,0 -5.129,0.09 -7.66,0.281 25,2.26 47.45,13.35 64.231,30.12 18.88,18.89 30.559,44.971 30.559,73.79 V -0.16 Z"
             style="fill:#fea713;fill-opacity:1;fill-rule:nonzero;stroke:none"
             id="path4789" /></g><g
           id="g4791"
           transform="translate(494.4258,443.292)"><path
             d="m 0,0 v 26.536 h -49.118 v -360.609 c 0,-30.502 -24.727,-55.229 -55.228,-55.229 -6.012,0 -11.801,0.961 -17.219,2.738"
             style="fill:none;stroke:#000000;stroke-width:15;stroke-linecap:round;stroke-linejoin:round;stroke-miterlimit:10;stroke-dasharray:none;stroke-opacity:1"
             id="path4793" /></g><g
           id="g4795"
           transform="translate(345.1436,77.1045)"><path
             d="M 0,0 C -6.479,9.049 -10.292,20.136 -10.292,32.114 V 53.896 H -59.409 V 34.507 c 0,-57.629 46.717,-104.346 104.346,-104.346 57.628,0 104.345,46.717 104.345,104.346 v 296.722"
             style="fill:none;stroke:#000000;stroke-width:15;stroke-linecap:round;stroke-linejoin:round;stroke-miterlimit:10;stroke-dasharray:none;stroke-opacity:1"
             id="path4797" /></g><g
           id="g4799"
           transform="translate(497.6758,469.8281)"><path
             d="m 0,0 h -55.266 c -2.001,0 -3.624,1.622 -3.624,3.624 v 27.658 c 0,2.001 1.623,3.624 3.624,3.624 H 0 c 2.002,0 3.625,-1.623 3.625,-3.624 V 3.624 C 3.625,1.622 2.002,0 0,0"
             style="fill:#444444;fill-opacity:1;fill-rule:nonzero;stroke:none"
             id="path4801" /></g><g
           id="g4803"
           transform="translate(497.6758,469.8281)"><path
             d="m 0,0 h -55.266 c -2.001,0 -3.624,1.622 -3.624,3.624 v 27.658 c 0,2.001 1.623,3.624 3.624,3.624 H 0 c 2.002,0 3.625,-1.623 3.625,-3.624 V 3.624 C 3.625,1.622 2.002,0 0,0 Z"
             style="fill:none;stroke:#000000;stroke-width:15;stroke-linecap:round;stroke-linejoin:round;stroke-miterlimit:10;stroke-dasharray:none;stroke-opacity:1"
             id="path4805" /></g><path
           d="m 494.426,318.75 h -76.073 v 60.255 h 76.073 z"
           style="fill:#9d9d9d;fill-opacity:1;fill-rule:nonzero;stroke:none"
           id="path4807" /><path
           d="M 494.426,318.75 H 477.21 v 60.255 h 17.216 z"
           style="fill:#838383;fill-opacity:1;fill-rule:nonzero;stroke:none"
           id="path4809" /><path
           d="m 494.426,318.75 h -76.073 v 60.255 h 76.073 z"
           style="fill:none;stroke:#000000;stroke-width:15;stroke-linecap:round;stroke-linejoin:round;stroke-miterlimit:10;stroke-dasharray:none;stroke-opacity:1"
           id="path4811" /><g
           id="g4813"
           transform="translate(315.502,459.0137)"><path
             d="m 0,0 h -194.491 c -60.671,0 -110.312,-49.641 -110.312,-110.312 0,-60.671 49.641,-110.311 110.312,-110.311 34.216,0 66.691,12.757 91.53,35.011 3.264,2.924 8.167,2.924 11.432,0 24.839,-22.254 57.313,-35.011 91.529,-35.011 60.672,0 110.312,49.64 110.312,110.311 C 110.312,-49.641 60.672,0 0,0"
             style="fill:#444444;fill-opacity:1;fill-rule:nonzero;stroke:none"
             id="path4815" /></g><g
           id="g4817"
           transform="translate(309.1035,426.9062)"><path
             d="m 0,0 h -90.847 -90.846 c -42.637,0 -77.523,-34.885 -77.523,-77.521 0,-42.638 34.886,-77.523 77.523,-77.523 33.082,0 63.852,16.965 81.51,44.939 4.332,6.862 14.34,6.862 18.672,0 17.658,-27.974 48.429,-44.939 81.51,-44.939 H 0 c 42.637,0 77.521,34.885 77.521,77.523 C 77.521,-34.885 42.637,0 0,0"
             style="fill:#99e6fc;fill-opacity:1;fill-rule:nonzero;stroke:none"
             id="path4819" /></g><g
           id="g4821"
           transform="translate(386.6299,349.3799)"><path
             d="m 0,0 c 0,-21.319 -8.72,-40.7 -22.77,-54.75 -14.06,-14.05 -33.44,-22.771 -54.76,-22.771 -4.46,0 -8.88,0.311 -13.24,0.911 16.6,2.57 31.5,10.461 42.9,21.86 14.05,14.05 22.77,33.431 22.77,54.75 0,21.32 -8.72,40.7 -22.77,54.76 -14.05,14.05 -33.43,22.77 -54.75,22.77 h 25.09 c 21.32,0 40.7,-8.72 54.76,-22.77 C -8.72,40.7 0,21.32 0,0"
             style="fill:#62dbfb;fill-opacity:1;fill-rule:nonzero;stroke:none"
             id="path4823" /></g><g
           id="g4825"
           transform="translate(57.5498,382.8896)"><path
             d="m 0,0 c -4.907,-10.155 -7.662,-21.523 -7.662,-33.505 0,-42.638 34.886,-77.522 77.522,-77.522 33.082,0 63.853,16.964 81.511,44.938 4.332,6.862 14.34,6.862 18.672,0 17.658,-27.974 48.429,-44.938 81.51,-44.938 h 0.001 c 42.636,0 77.521,34.884 77.521,77.522 0,42.637 -34.885,77.522 -77.521,77.522 H 160.707 69.86 c -18.152,0 -34.899,-6.323 -48.148,-16.875"
             style="fill:none;stroke:#000000;stroke-width:15;stroke-linecap:round;stroke-linejoin:round;stroke-miterlimit:10;stroke-dasharray:none;stroke-opacity:1"
             id="path4827" /></g><g
           id="g4829"
           transform="translate(315.502,459.0137)"><path
             d="m 0,0 h -194.491 c -60.671,0 -110.312,-49.641 -110.312,-110.312 0,-60.671 49.641,-110.311 110.312,-110.311 34.216,0 66.691,12.757 91.53,35.011 3.264,2.924 8.167,2.924 11.432,0 24.839,-22.254 57.313,-35.011 91.529,-35.011 60.672,0 110.312,49.64 110.312,110.311 C 110.312,-49.641 60.672,0 0,0 Z"
             style="fill:none;stroke:#000000;stroke-width:15;stroke-linecap:round;stroke-linejoin:round;stroke-miterlimit:10;stroke-dasharray:none;stroke-opacity:1"
             id="path4831" /></g><g
           id="g4833"
           transform="translate(281.3389,262.2646)"><path
             d="m 0,0 c 0,-34.839 -28.243,-63.082 -63.082,-63.082 -34.839,0 -63.082,28.243 -63.082,63.082 0,34.839 28.243,63.082 63.082,63.082 C -28.243,63.082 0,34.839 0,0"
             style="fill:#9d9d9d;fill-opacity:1;fill-rule:nonzero;stroke:none"
             id="path4835" /></g><g
           id="g4837"
           transform="translate(281.3398,262.2598)"><path
             d="m 0,0 c 0,-34.83 -28.24,-63.08 -63.08,-63.08 -14.68,0 -28.19,5.01 -38.91,13.43 7.46,-3.11 15.64,-4.829 24.23,-4.829 34.84,0 63.08,28.239 63.08,63.079 0,20.18 -9.469,38.14 -24.219,49.68 C -16.06,48.801 0,26.271 0,0"
             style="fill:#838383;fill-opacity:1;fill-rule:nonzero;stroke:none"
             id="path4839" /></g><g
           id="g4841"
           transform="translate(281.3389,262.2646)"><path
             d="m 0,0 c 0,-34.839 -28.243,-63.082 -63.082,-63.082 -34.839,0 -63.082,28.243 -63.082,63.082 0,34.839 28.243,63.082 63.082,63.082 C -28.243,63.082 0,34.839 0,0 Z"
             style="fill:none;stroke:#000000;stroke-width:15;stroke-linecap:round;stroke-linejoin:round;stroke-miterlimit:10;stroke-dasharray:none;stroke-opacity:1"
             id="path4843" /></g><g
           id="g4845"
           transform="translate(249.7979,262.2646)"><path
             d="m 0,0 c 0,-17.42 -14.122,-31.541 -31.541,-31.541 -17.42,0 -31.541,14.121 -31.541,31.541 0,17.419 14.121,31.541 31.541,31.541 C -14.122,31.541 0,17.419 0,0"
             style="fill:#444444;fill-opacity:1;fill-rule:nonzero;stroke:none"
             id="path4847" /></g><g
           id="g4849"
           transform="translate(249.7979,262.2646)"><path
             d="m 0,0 c 0,-17.42 -14.122,-31.541 -31.541,-31.541 -17.42,0 -31.541,14.121 -31.541,31.541 0,17.419 14.121,31.541 31.541,31.541 C -14.122,31.541 0,17.419 0,0 Z"
             style="fill:none;stroke:#000000;stroke-width:15;stroke-linecap:round;stroke-linejoin:round;stroke-miterlimit:10;stroke-dasharray:none;stroke-opacity:1"
             id="path4851" /></g><g
           id="g4853"
           transform="translate(366.5049,178.2168)"><path
             d="M 0,0 V 0 C -7.123,0 -13.527,-4.572 -15.604,-11.386 -18.804,-21.883 -27.95,-35.779 -53.975,-35.305 -80,-35.779 -89.146,-21.883 -92.346,-11.386 -94.423,-4.572 -100.826,0 -107.95,0 c -9.145,0 -16.508,-7.49 -16.388,-16.635 0.657,-49.998 58.666,-51.426 68.847,-51.291 1.013,0.013 2.018,0.013 3.033,0 10.18,-0.135 68.188,1.293 68.847,51.291 C 16.509,-7.49 9.146,0 0,0"
             style="fill:#444444;fill-opacity:1;fill-rule:nonzero;stroke:none"
             id="path4855" /></g><g
           id="g4857"
           transform="translate(366.5049,178.2168)"><path
             d="M 0,0 V 0 C -7.123,0 -13.527,-4.572 -15.604,-11.386 -18.804,-21.883 -27.95,-35.779 -53.975,-35.305 -80,-35.779 -89.146,-21.883 -92.346,-11.386 -94.423,-4.572 -100.826,0 -107.95,0 c -9.145,0 -16.508,-7.49 -16.388,-16.635 0.657,-49.998 58.666,-51.426 68.847,-51.291 1.013,0.013 2.018,0.013 3.033,0 10.18,-0.135 68.188,1.293 68.847,51.291 C 16.509,-7.49 9.146,0 0,0 Z"
             style="fill:none;stroke:#000000;stroke-width:15;stroke-linecap:round;stroke-linejoin:round;stroke-miterlimit:10;stroke-dasharray:none;stroke-opacity:1"
             id="path4859" /></g><g
           id="g4861"
           transform="translate(136.5088,382.0771)"><path
             d="M 0,0 -19.334,-17.333"
             style="fill:none;stroke:#000000;stroke-width:15;stroke-linecap:round;stroke-linejoin:round;stroke-miterlimit:10;stroke-dasharray:none;stroke-opacity:1"
             id="path4863" /></g><g
           id="g4865"
           transform="translate(161.8457,373.4102)"><path
             d="M 0,0 -35.004,-31.383"
             style="fill:none;stroke:#000000;stroke-width:15;stroke-linecap:round;stroke-linejoin:round;stroke-miterlimit:10;stroke-dasharray:none;stroke-opacity:1"
             id="path4867" /></g></g></g></g></svg>
