<svg id="Capa_1" enable-background="new 0 0 512 512" height="512" viewBox="0 0 512 512" width="512" xmlns="http://www.w3.org/2000/svg"><g><g><g><g fill="#f9f6f6"><path d="m338.829 90.332v-66.266c0-9.149-7.417-16.567-16.567-16.567h-115.966c-9.149 0-16.567 7.417-16.567 16.567v66.267l74.55 8.428z"/><path d="m338.829 156.599v-33.134l-74.55-9.955-74.55 9.955v33.135l74.55 8.41z"/><path d="m189.729 189.732v58.684c0 8.073-2.947 15.868-8.289 21.922l-97.311 110.287c-27.241 30.873-24.296 77.984 6.576 105.224 14.176 12.508 31.768 18.651 49.295 18.651 20.645 0 41.196-8.53 55.929-25.227l124.25-140.816c12.018-13.62 18.65-31.159 18.65-49.324v-99.399l-74.55-10.222z"/></g><path d="m189.729 90.333h149.1v33.133h-149.1z" fill="#dd636e"/><path d="m189.729 156.599h149.1v33.133h-149.1z" fill="#60b7ff"/><path d="m423.524 90.332v-66.266c0-9.149-7.417-16.567-16.567-16.567h-115.966c-9.15 0-16.567 7.417-16.567 16.567v66.267l74.55 8.428z" fill="#dddaec"/><path d="m423.524 156.599v-33.134l-74.549-9.955-74.55 9.955v33.135l74.55 8.41z" fill="#dddaec"/><path d="m274.425 90.333h64.404v33.133h-64.404z" fill="#da4a54"/><path d="m338.829 289.132v-99.399l-32.203-4.416-32.202 4.415v58.684c0 8.073-2.947 15.868-8.289 21.922l-97.311 110.287c-27.241 30.873-24.296 77.984 6.577 105.224 2.242 1.979 4.579 3.78 6.979 5.441 4.881-3.375 9.447-7.368 13.55-12.017l124.25-140.816c12.018-13.621 18.649-31.161 18.649-49.325z" fill="#dddaec"/><path d="m274.425 156.599h64.404v33.133h-64.404z" fill="#26a6fe"/></g><g><g><g fill="#f9f6f6"><path d="m446.524 90.332v-66.266c0-9.149-7.417-16.567-16.567-16.567h-115.966c-9.15 0-16.567 7.417-16.567 16.567v66.267l74.55 8.428z"/><path d="m446.524 156.599v-33.134l-74.549-9.955-74.55 9.955v33.135l74.55 8.41z"/><path d="m297.425 189.732v58.684c0 8.073-2.947 15.868-8.289 21.922l-97.311 110.287c-27.241 30.873-24.296 77.984 6.576 105.224 14.176 12.508 31.768 18.651 49.295 18.651 20.645 0 41.196-8.53 55.929-25.227l124.25-140.816c12.018-13.62 18.65-31.159 18.65-49.324v-99.399l-74.55-10.222z"/></g><path d="m429.958 7.499h-23c9.149 0 16.567 7.417 16.567 16.567v265.066c0 18.164-6.632 35.704-18.65 49.324l-124.25 140.816c-11.971 13.567-27.784 21.742-44.367 24.33 3.792.587 7.616.897 11.438.897 20.645 0 41.196-8.53 55.929-25.227l124.25-140.816c12.018-13.62 18.65-31.16 18.65-49.324v-99.4l-11.5-16.567 11.5-16.566v-33.134l-11.5-16.566 11.5-16.567v-66.266c0-9.149-7.418-16.567-16.567-16.567z" fill="#dddaec"/><path d="m297.425 90.333h149.1v33.133h-149.1z" fill="#dd636e"/><path d="m297.425 156.599h149.1v33.133h-149.1z" fill="#60b7ff"/><path d="m423.524 90.333h23v33.133h-23z" fill="#da4a54"/><path d="m423.524 156.599h23v33.133h-23z" fill="#26a6fe"/></g></g></g><path d="m454.018 239.842v-215.776c0-13.27-10.796-24.066-24.066-24.066h-223.649c-13.27 0-24.066 10.796-24.066 24.066v224.351c0 6.249-2.277 12.273-6.413 16.96l-97.312 110.287c-14.5 16.434-21.733 37.53-20.366 59.404 1.367 21.873 11.171 41.906 27.604 56.406 15.002 13.236 34.27 20.526 54.258 20.526 19.794 0 39.034-7.279 53.865-20.157 14.938 12.997 34.022 20.157 53.817 20.157 23.549 0 45.984-10.12 61.553-27.765l124.25-140.816c13.236-15.001 20.525-34.28 20.525-54.286v-49.288s0-.002 0-.003zm-139.683 215.95-99.68-89.712 80.097-90.779c6.556-7.428 10.166-16.976 10.166-26.884v-51.184h134.1v36.246c-38.217 7.412-66.268 40.895-66.268 80.504 0 19.781 6.956 38.442 19.692 53.287zm17.001-440.792v18.133h-26.417v-9.067c0-4.999 4.067-9.066 9.066-9.066zm-26.417 115.966h134.1v18.134h-134.1zm0-15v-18.133h134.1v18.133zm-15 0h-92.683v-18.133h92.683zm0 15v18.134h-92.683v-18.133h92.683zm15 33.134h134.1v18.133h-134.1zm134.099-81.267h-134.1v-34.7h134.1zm-59.549-49.7v-18.133h18.134v18.133zm-15 0h-18.133v-18.133h18.133zm-74.55-9.067v9.067h-18.133v-18.133h19.912c-1.144 2.8-1.779 5.86-1.779 9.066zm-33.133 9.067h-18.134v-18.133h18.134zm33.133 15v34.7h-92.683v-34.7zm-92.683 115.967h92.683v18.133h-92.683zm241.782-140.034v9.067h-26.416v-18.133h17.35c4.999 0 9.066 4.067 9.066 9.066zm-232.715-9.066h17.35v18.133h-26.416v-9.067c-.001-4.999 4.067-9.066 9.066-9.066zm-19.232 260.301c6.555-7.429 10.165-16.977 10.165-26.884v-51.184h92.683v51.184c0 6.25-2.277 12.273-6.413 16.96l-84.96 96.289c-.001.001-.002.002-.003.003-.002.002-.003.004-.005.006l-12.343 13.989c-11.018 12.487-17.827 27.668-19.869 43.835l-59.354-53.419zm-91.397 204.925c-13.43-11.85-21.44-28.22-22.558-46.094-1.117-17.875 4.794-35.115 16.643-48.544l7.288-8.259 69.199 62.279c1.794 15.297 7.768 29.53 17.257 41.411-12.09 10.35-27.298 15.981-43.495 15.981-16.329 0-32.075-5.957-44.334-16.774zm152.016 16.774c-16.329 0-32.073-5.957-44.333-16.774-13.429-11.85-21.441-28.22-22.558-46.094-1.117-17.875 4.794-35.115 16.644-48.544l7.287-8.259 99.68 89.712-6.415 7.271c-12.723 14.418-31.058 22.688-50.305 22.688zm174.555-163.505-19.759 22.393c-9.542-11.855-14.735-26.462-14.735-41.905 0-31.367 21.523-58.029 51.268-65.16v40.31c-.001 16.348-5.958 32.103-16.774 44.362z"/></g></svg>