<?xml version="1.0" encoding="UTF-8" standalone="no"?>
<!-- Created with Inkscape (http://www.inkscape.org/) -->

<svg
   version="1.1"
   id="svg1215"
   xml:space="preserve"
   width="682.66669"
   height="682.66669"
   viewBox="0 0 682.66669 682.66669"
   xmlns="http://www.w3.org/2000/svg"
   xmlns:svg="http://www.w3.org/2000/svg"><defs
     id="defs1219"><clipPath
       clipPathUnits="userSpaceOnUse"
       id="clipPath1229"><path
         d="M 0,512 H 512 V 0 H 0 Z"
         id="path1227" /></clipPath></defs><g
     id="g1221"
     transform="matrix(1.3333333,0,0,-1.3333333,0,682.66667)"><g
       id="g1223"><g
         id="g1225"
         clip-path="url(#clipPath1229)"><g
           id="g1231"
           transform="translate(283.9854,292.7725)"><path
             d="m 0,0 -255.271,-255.271 v -21.214 c 11.715,-11.715 30.71,-11.716 42.426,0 L 31.82,-31.82 Z"
             style="fill:#f5b5b2;fill-opacity:1;fill-rule:nonzero;stroke:none"
             id="path1233" /></g><g
           id="g1235"
           transform="translate(273.3789,303.3794)"><path
             d="m 0,0 -244.665,-244.665 c -11.716,-11.716 -11.716,-30.711 0,-42.427 L 21.214,-21.213 Z"
             style="fill:#fad0bb;fill-opacity:1;fill-rule:nonzero;stroke:none"
             id="path1237" /></g><g
           id="g1239"
           transform="translate(465.7119,453.2856)"><path
             d="m 0,0 -21.213,21.213 -149.906,-234.759 21.213,-21.213 c 11.716,-11.716 30.711,-11.716 42.427,0 L 0,-127.279 C 35.147,-92.132 35.147,-35.147 0,0"
             style="fill:#a757b5;fill-opacity:1;fill-rule:nonzero;stroke:none"
             id="path1241" /></g><g
           id="g1243"
           transform="translate(337.0186,239.7397)"><path
             d="m 0,0 107.48,107.48 c 35.148,35.147 35.148,92.132 0,127.279 l -21.212,21.214 c -11.716,11.715 -30.711,11.715 -42.427,0 L -106.065,106.066 c -11.716,-11.716 -11.716,-30.711 0,-42.426 l 21.212,-21.214 h 42.427 V 0 C -30.71,-11.716 -11.716,-11.716 0,0"
             style="fill:#ba6fb4;fill-opacity:1;fill-rule:nonzero;stroke:none"
             id="path1245" /></g><g
           id="g1247"
           transform="translate(273.3789,260.9526)"><path
             d="M 0,0 V 21.213 L 74.246,95.459 H 95.46 c 11.716,-11.715 11.716,-30.71 0,-42.426 L 21.214,-21.213 Z"
             style="fill:#9340b6;fill-opacity:1;fill-rule:nonzero;stroke:none"
             id="path1249" /></g><g
           id="g1251"
           transform="translate(252.166,282.166)"><path
             d="m 0,0 74.246,74.246 c 11.716,11.716 30.711,11.716 42.427,0 l -95.46,-95.459 z"
             style="fill:#a757b5;fill-opacity:1;fill-rule:nonzero;stroke:none"
             id="path1253" /></g><g
           id="g1255"
           transform="translate(315.8057,260.9526)"><path
             d="m 0,0 53.033,53.033 c 11.716,11.716 11.716,30.711 0,42.426 -11.716,11.716 -30.711,11.716 -42.427,0 L -42.427,42.427"
             style="fill:none;stroke:#000000;stroke-width:15;stroke-linecap:round;stroke-linejoin:round;stroke-miterlimit:10;stroke-dasharray:none;stroke-opacity:1"
             id="path1257" /></g><g
           id="g1259"
           transform="translate(252.166,282.166)"><path
             d="m 0,0 -223.452,-223.452 c -11.716,-11.715 -11.716,-30.711 0,-42.426 11.716,-11.716 30.711,-11.716 42.427,0 L 42.427,-42.426"
             style="fill:none;stroke:#000000;stroke-width:15;stroke-linecap:round;stroke-linejoin:round;stroke-miterlimit:10;stroke-dasharray:none;stroke-opacity:1"
             id="path1261" /></g><g
           id="g1263"
           transform="translate(315.8057,218.5264)"><path
             d="m 0,0 -84.853,84.853 c -11.715,11.715 -11.715,30.71 0,42.426 L 65.054,277.186 c 11.716,11.715 30.711,11.715 42.426,0 l 42.426,-42.427 c 35.148,-35.147 35.148,-92.132 0,-127.279 L 42.427,0 C 30.711,-11.716 11.716,-11.716 0,0 Z"
             style="fill:none;stroke:#000000;stroke-width:15;stroke-linecap:round;stroke-linejoin:round;stroke-miterlimit:10;stroke-dasharray:none;stroke-opacity:1"
             id="path1265" /></g></g></g></g></svg>
