<?xml version="1.0" encoding="iso-8859-1"?>
<!-- Generator: Adobe Illustrator 19.0.0, SVG Export Plug-In . SVG Version: 6.00 Build 0)  -->
<svg version="1.1" id="Capa_1" xmlns="http://www.w3.org/2000/svg" xmlns:xlink="http://www.w3.org/1999/xlink" x="0px" y="0px"
	 viewBox="0 0 512.001 512.001" style="enable-background:new 0 0 512.001 512.001;" xml:space="preserve">
<path style="fill:#F8CF32;" d="M400.537,172.389h-39.094V130.23H150.557v42.158h-39.094v-61.705
	c0-10.796,8.751-19.547,19.547-19.547h249.98c10.796,0,19.547,8.751,19.547,19.547V172.389z"/>
<rect x="201.57" y="91.14" style="fill:#704B00;" width="108.87" height="39.09"/>
<rect x="111.46" y="154.08" style="opacity:0.15;enable-background:new    ;" width="39.09" height="18.313"/>
<rect x="361.44" y="154.08" style="opacity:0.15;enable-background:new    ;" width="39.09" height="18.313"/>
<path style="opacity:0.15;enable-background:new    ;" d="M380.99,91.137h-11.204c10.796,0,19.547,8.751,19.547,19.547v61.705
	h11.204v-61.705C400.537,99.888,391.786,91.137,380.99,91.137z"/>
<path style="fill:#0079D0;" d="M493.403,420.863H18.597c-6.129,0-11.097-4.968-11.097-11.097v-226.28
	c0-6.129,4.968-11.097,11.097-11.097h474.806c6.129,0,11.097,4.968,11.097,11.097v226.281
	C504.5,415.895,499.532,420.863,493.403,420.863z"/>
<circle style="opacity:0.15;enable-background:new    ;" cx="119.28" cy="307.02" r="87.9"/>
<circle style="opacity:0.15;enable-background:new    ;" cx="392.72" cy="307.02" r="87.9"/>
<g>
	<rect x="7.5" y="270.31" style="fill:#F89021;" width="111.78" height="52.628"/>
	<rect x="392.72" y="270.31" style="fill:#F89021;" width="111.78" height="52.628"/>
</g>
<path style="opacity:0.15;enable-background:new    ;" d="M493.403,172.389h-15.731c6.129,0,11.097,4.968,11.097,11.097v226.281
	c0,6.129-4.968,11.097-11.097,11.097h15.731c6.129,0,11.097-4.968,11.097-11.097V183.486
	C504.5,177.357,499.532,172.389,493.403,172.389z"/>
<circle style="fill:#FFFFFF;" cx="119.28" cy="296.63" r="87.9"/>
<circle style="fill:#394049;" cx="119.28" cy="296.63" r="66.65"/>
<circle style="fill:#FFFFFF;" cx="392.72" cy="296.63" r="87.9"/>
<circle style="fill:#394049;" cx="392.72" cy="296.63" r="66.65"/>
<path style="fill:#F8CF32;" d="M297.163,200.308h-82.327c-3.33,0-6.03,2.7-6.03,6.03v21.673c0,3.33,2.7,6.03,6.03,6.03h82.327
	c3.33,0,6.03-2.7,6.03-6.03v-21.673C303.193,203.007,300.494,200.308,297.163,200.308z"/>
<rect x="261.83" y="200.31" style="fill:#FFFFFF;" width="15" height="33.733"/>
<path style="opacity:0.15;enable-background:new    ;" d="M297.163,370.853h-82.327c-3.33,0-6.03,2.7-6.03,6.03v19.402
	c0,3.33,2.7,6.03,6.03,6.03h82.327c3.33,0,6.03-2.7,6.03-6.03v-19.402C303.193,373.553,300.494,370.853,297.163,370.853z"/>
<path style="fill:#F89021;" d="M240.269,393.191h-25.432c-3.33,0-6.03-2.7-6.03-6.03v-19.402c0-3.33,2.7-6.03,6.03-6.03h25.432
	L240.269,393.191L240.269,393.191z"/>
<rect x="240.27" y="361.73" style="fill:#FFFFFF;" width="31.462" height="31.462"/>
<path style="fill:#F89021;" d="M297.163,393.191h-25.432v-31.462h25.432c3.33,0,6.03,2.7,6.03,6.03v19.402
	C303.193,390.492,300.494,393.191,297.163,393.191z"/>
<path d="M504.5,238.232c-4.143,0-7.5,3.358-7.5,7.5v164.034c0,1.983-1.613,3.597-3.597,3.597H18.597
	c-1.983,0-3.597-1.613-3.597-3.597v-226.28c0-1.983,1.613-3.597,3.597-3.597H50.05c4.142,0,7.5-3.358,7.5-7.5s-3.358-7.5-7.5-7.5
	H18.597C8.342,164.889,0,173.231,0,183.486v226.281c0,10.254,8.342,18.597,18.597,18.597h474.807
	c10.254,0,18.597-8.342,18.597-18.597V245.732C512,241.59,508.643,238.232,504.5,238.232z M360.103,386.306
	c10.44,3.797,21.413,5.723,32.616,5.723c52.605,0,95.403-42.797,95.403-95.403c0-52.605-42.798-95.402-95.403-95.402
	s-95.402,42.797-95.402,95.402c0,30.833,15.022,59.92,40.184,77.807c3.376,2.401,8.059,1.608,10.459-1.768
	c2.399-3.376,1.608-8.058-1.768-10.458c-21.212-15.079-33.875-39.595-33.875-65.581c0-44.334,36.068-80.402,80.402-80.402
	c44.335,0,80.403,36.068,80.403,80.402s-36.068,80.403-80.403,80.403c-9.449,0-18.697-1.622-27.489-4.82
	c-3.892-1.414-8.196,0.594-9.611,4.484C354.203,380.586,356.211,384.89,360.103,386.306z M466.874,296.626
	c0-40.889-33.266-74.154-74.154-74.154c-40.889,0-74.154,33.266-74.154,74.154c0,40.889,33.266,74.154,74.154,74.154
	S466.874,337.515,466.874,296.626z M333.565,296.626c0-32.618,26.536-59.154,59.154-59.154s59.154,26.537,59.154,59.154
	s-26.536,59.154-59.154,59.154C360.102,355.78,333.565,329.244,333.565,296.626z M234.033,330.678h43.934c4.143,0,7.5-3.358,7.5-7.5
	s-3.357-7.5-7.5-7.5h-43.934c-4.142,0-7.5,3.358-7.5,7.5C226.533,327.32,229.891,330.678,234.033,330.678z M493.403,164.889h-85.366
	v-54.205c0-14.914-12.133-27.047-27.047-27.047H131.01c-14.914,0-27.047,12.133-27.047,27.047v54.205h-29.93
	c-4.142,0-7.5,3.358-7.5,7.5s3.358,7.5,7.5,7.5h419.37c1.983,0,3.597,1.614,3.597,3.597v38.247c0,4.142,3.357,7.5,7.5,7.5
	s7.5-3.358,7.5-7.5v-38.247C512,173.231,503.657,164.889,493.403,164.889z M353.943,164.889H158.057V137.73h195.887v27.159H353.943z
	 M393.037,164.889h-24.094V130.23c0-4.142-3.357-7.5-7.5-7.5H150.557c-4.142,0-7.5,3.358-7.5,7.5v34.658h-24.094v-54.205
	c0-6.643,5.404-12.047,12.047-12.047h249.98c6.643,0,12.047,5.404,12.047,12.047V164.889z M119.28,201.224
	c-52.605,0-95.402,42.797-95.402,95.402s42.797,95.403,95.402,95.403c52.606,0,95.403-42.797,95.403-95.403
	C214.683,244.021,171.885,201.224,119.28,201.224z M119.28,377.029c-44.334,0-80.402-36.068-80.402-80.403
	c0-44.334,36.068-80.402,80.402-80.402s80.403,36.068,80.403,80.402S163.614,377.029,119.28,377.029z M119.28,222.472
	c-40.889,0-74.154,33.266-74.154,74.154c0,40.889,33.266,74.154,74.154,74.154s74.154-33.266,74.154-74.154
	C193.434,255.737,160.168,222.472,119.28,222.472z M119.28,355.78c-32.618,0-59.154-26.537-59.154-59.154
	s26.537-59.154,59.154-59.154s59.154,26.537,59.154,59.154S151.897,355.78,119.28,355.78z M201.307,367.759v19.402
	c0,7.461,6.069,13.53,13.53,13.53h82.327c7.461,0,13.53-6.069,13.53-13.53v-19.402c0-7.461-6.069-13.53-13.53-13.53h-82.327
	C207.376,354.229,201.307,360.299,201.307,367.759z M279.231,369.229h16.462v16.462h-16.462V369.229z M247.769,369.229h16.462
	v16.462h-16.462L247.769,369.229L247.769,369.229z M216.307,369.229h16.462v16.462h-16.462V369.229z M234.033,304.126h43.934
	c4.143,0,7.5-3.358,7.5-7.5s-3.357-7.5-7.5-7.5h-43.934c-4.142,0-7.5,3.358-7.5,7.5
	C226.533,300.768,229.891,304.126,234.033,304.126z M297.163,192.808h-82.326c-7.46,0-13.53,6.069-13.53,13.53v21.673
	c0,7.461,6.07,13.53,13.53,13.53h82.326c7.461,0,13.53-6.07,13.53-13.53v-21.673C310.693,198.877,304.624,192.808,297.163,192.808z
	 M295.693,226.541h-79.387v-18.733h79.387V226.541z"/>
<g>
</g>
<g>
</g>
<g>
</g>
<g>
</g>
<g>
</g>
<g>
</g>
<g>
</g>
<g>
</g>
<g>
</g>
<g>
</g>
<g>
</g>
<g>
</g>
<g>
</g>
<g>
</g>
<g>
</g>
</svg>
