<?xml version="1.0" encoding="UTF-8" standalone="no"?>
<!-- Created with Inkscape (http://www.inkscape.org/) -->

<svg
   version="1.1"
   id="svg633"
   xml:space="preserve"
   width="682.66669"
   height="682.66669"
   viewBox="0 0 682.66669 682.66669"
   xmlns="http://www.w3.org/2000/svg"
   xmlns:svg="http://www.w3.org/2000/svg"><defs
     id="defs637"><clipPath
       clipPathUnits="userSpaceOnUse"
       id="clipPath647"><path
         d="M 0,512 H 512 V 0 H 0 Z"
         id="path645" /></clipPath></defs><g
     id="g639"
     transform="matrix(1.3333333,0,0,-1.3333333,0,682.66667)"><g
       id="g641"><g
         id="g643"
         clip-path="url(#clipPath647)"><g
           id="g649"
           transform="translate(369.6533,461.4102)"><path
             d="m 0,0 c -28.706,-27.604 -59.619,-56.783 -79.981,-91.272 -4.127,-6.99 -8.521,-13.817 -12.536,-20.873 -7.025,-12.348 -12.77,-26.916 -15.241,-41.533 -2.049,-12.118 -7.726,-23.327 -16.422,-32.013 l -9.13,-9.119 c -8.695,-8.685 -19.912,-14.349 -32.033,-16.383 -14.619,-2.453 -29.195,-8.18 -41.551,-15.191 -7.061,-4.006 -13.893,-8.392 -20.888,-12.51 -34.514,-20.321 -63.73,-51.199 -91.368,-79.872 -3.246,-3.367 -27.156,-31.901 -40.002,-47.27 -4.598,-5.5 -4.235,-13.595 0.832,-18.668 l 12.366,-12.381 c 2.768,-2.772 6.826,-3.861 10.583,-2.755 8.109,2.387 24.437,3.644 44.251,-13.827 22.66,-19.977 50.62,-36.05 81.016,-39.721 51.533,-6.224 106.932,37.939 125.23,84.807 15.105,38.685 -0.201,72.82 -17.993,106.864 -2.539,4.859 -5.092,9.717 -7.701,14.544 -2.694,4.985 -4.2,10.57 -4.01,16.234 0.739,22.031 23.865,32.693 42.141,22.765 5.02,-2.727 10.073,-5.391 15.128,-8.04 34.022,-17.833 68.139,-33.18 106.842,-18.123 46.89,18.243 91.12,73.587 84.958,125.128 -3.635,30.401 -19.674,58.381 -39.624,81.064 -17.446,19.835 -16.17,36.162 -13.773,44.268 1.11,3.756 0.026,7.814 -2.741,10.586 L 65.986,39.09 C 60.919,44.163 52.825,44.536 47.318,39.945 31.934,27.117 3.372,3.242 0,0"
             style="fill:#9d9d9d;fill-opacity:1;fill-rule:nonzero;stroke:none"
             id="path651" /></g><g
           id="g653"
           transform="translate(419.1899,227.0698)"><path
             d="m 0,0 c -1.09,-0.42 -2.18,-0.82 -3.26,-1.19 40.07,23.37 78.228,76.248 72.798,121.578 -3.63,30.4 -19.67,58.38 -39.62,81.06 -17.45,19.84 -20.758,31.572 -18.358,39.682 1.11,3.76 0.02,7.81 -2.74,10.59 L -3.55,264.1 c -1.85,1.85 -4.11,3.07 -6.49,3.66 2.82,2.35 5.48,4.57 7.82,6.52 5.51,4.6 13.6,4.22 18.67,-0.85 l 12.37,-12.38 c 2.76,-2.77 3.85,-6.83 2.74,-10.59 -2.4,-8.1 -3.68,-24.43 13.77,-44.26 C 65.28,183.51 81.32,155.53 84.95,125.13 91.12,73.59 46.89,18.25 0,0"
             style="fill:#838383;fill-opacity:1;fill-rule:nonzero;stroke:none"
             id="path655" /></g><g
           id="g657"
           transform="translate(135.7598,181.4512)"><path
             d="m 0,0 c -7.393,-5.171 -14.527,-10.726 -21.373,-16.702 -9.472,-8.269 -18.184,-17.592 -24.61,-28.437 -10.878,-18.357 -10.64,-40.815 2.973,-57.252 27.572,-33.292 76.185,-52.743 117.085,-28.31 15.315,9.15 28.135,21.471 37.25,36.916 5.759,9.761 9.614,20.59 10.793,31.785 2.296,21.812 -6.346,43.195 -17.671,61.015 C 97.244,10.35 85.974,25.073 72.187,28.645 58.616,32.16 45.664,26.345 33.676,20.683 21.751,15.051 10.8,7.556 0,0"
             style="fill:#444444;fill-opacity:1;fill-rule:nonzero;stroke:none"
             id="path659" /></g><g
           id="g661"
           transform="translate(331.4102,375.728)"><path
             d="m 0,0 c 5.181,7.386 10.744,14.514 16.728,21.353 8.28,9.462 17.614,18.163 28.467,24.576 18.369,10.856 40.827,10.591 57.248,-3.043 33.258,-27.611 52.651,-76.248 28.169,-117.118 -9.168,-15.305 -21.505,-28.11 -36.962,-37.206 -9.767,-5.748 -20.601,-9.589 -31.797,-10.754 -21.815,-2.27 -43.187,6.398 -60.994,17.744 -11.326,7.217 -26.036,18.504 -29.59,32.296 -3.499,13.575 2.331,26.52 8.008,38.501 C -15.077,-21.733 -7.569,-10.791 0,0"
             style="fill:#444444;fill-opacity:1;fill-rule:nonzero;stroke:none"
             id="path663" /></g><g
           id="g665"
           transform="translate(257.8799,119.4497)"><path
             d="m 0,0 c -1.18,-11.19 -5.04,-22.02 -10.8,-31.78 -9.11,-15.45 -21.93,-27.77 -37.25,-36.92 -5.76,-3.44 -11.67,-6.01 -17.66,-7.79 14.6,9.03 26.83,21.02 35.63,35.92 5.76,9.76 9.61,20.59 10.79,31.78 2.3,21.81 -6.35,43.19 -17.67,61.02 -7.2,11.33 -18.47,26.05 -32.26,29.62 -8.77,2.28 -17.28,0.65 -25.44,-2.31 2.05,1.1 4.12,2.15 6.22,3.14 11.98,5.67 24.94,11.48 38.51,7.97 13.78,-3.58 25.05,-18.3 32.26,-29.63 C -6.35,43.2 2.29,21.81 0,0"
             style="fill:#353535;fill-opacity:1;fill-rule:nonzero;stroke:none"
             id="path667" /></g><g
           id="g669"
           transform="translate(462.02,301.5)"><path
             d="m 0,0 c -9.17,-15.31 -21.5,-28.11 -36.96,-37.21 -5.62,-3.31 -11.58,-5.98 -17.77,-7.88 14.75,9.03 26.58,21.5 35.44,36.29 24.49,40.87 5.09,89.51 -28.17,117.12 -12.09,10.05 -27.46,12.83 -42.05,9.27 1.34,0.89 2.7,1.75 4.09,2.57 18.37,10.85 40.83,10.59 57.25,-3.05 C 5.09,89.5 24.48,40.87 0,0"
             style="fill:#353535;fill-opacity:1;fill-rule:nonzero;stroke:none"
             id="path671" /></g><g
           id="g673"
           transform="translate(135.7598,181.4512)"><path
             d="m 0,0 c -7.393,-5.171 -14.527,-10.726 -21.373,-16.702 -9.472,-8.269 -18.184,-17.592 -24.61,-28.437 -10.878,-18.357 -10.64,-40.815 2.973,-57.252 27.572,-33.292 76.185,-52.743 117.085,-28.31 15.315,9.15 28.135,21.471 37.25,36.916 5.759,9.761 9.614,20.59 10.793,31.785 2.296,21.812 -6.346,43.195 -17.671,61.015 C 97.244,10.35 85.974,25.073 72.187,28.645 58.616,32.16 45.664,26.345 33.676,20.683 21.751,15.051 10.8,7.556 0,0 Z"
             style="fill:none;stroke:#000000;stroke-width:15;stroke-linecap:round;stroke-linejoin:round;stroke-miterlimit:10;stroke-dasharray:none;stroke-opacity:1"
             id="path675" /></g><g
           id="g677"
           transform="translate(331.4102,375.728)"><path
             d="m 0,0 c 5.181,7.386 10.744,14.514 16.728,21.353 8.28,9.462 17.614,18.163 28.467,24.576 18.369,10.856 40.827,10.591 57.248,-3.043 33.258,-27.611 52.651,-76.248 28.169,-117.118 -9.168,-15.305 -21.505,-28.11 -36.962,-37.206 -9.767,-5.748 -20.601,-9.589 -31.797,-10.754 -21.815,-2.27 -43.187,6.398 -60.994,17.744 -11.326,7.217 -26.036,18.504 -29.59,32.296 -3.499,13.575 2.331,26.52 8.008,38.501 C -15.077,-21.733 -7.569,-10.791 0,0 Z"
             style="fill:none;stroke:#000000;stroke-width:15;stroke-linecap:round;stroke-linejoin:round;stroke-miterlimit:10;stroke-dasharray:none;stroke-opacity:1"
             id="path679" /></g><g
           id="g681"
           transform="translate(330.3281,236.1694)"><path
             d="m 0,0 c 28.18,-13.264 56.961,-21.505 88.858,-9.096 46.89,18.242 91.12,73.587 84.958,125.127 -3.635,30.402 -19.673,58.382 -39.624,81.065 -17.446,19.835 -16.17,36.162 -13.773,44.268 1.11,3.756 0.026,7.814 -2.741,10.586 l -12.367,12.381 c -5.067,5.073 -13.161,5.446 -18.667,0.855 C 71.259,252.358 42.697,228.482 39.325,225.241 10.619,197.637 -20.294,168.458 -40.656,133.968 -44.783,126.979 -49.177,120.152 -53.192,113.096 -60.217,100.748 -65.961,86.18 -68.433,71.563 -70.482,59.444 -76.159,48.235 -84.855,39.55 l -9.129,-9.119 c -8.696,-8.685 -19.912,-14.349 -32.034,-16.383 -14.619,-2.454 -29.194,-8.18 -41.551,-15.191 -7.061,-4.006 -13.892,-8.392 -20.888,-12.51 -29.528,-17.386 -55.179,-42.498 -79.281,-67.347"
             style="fill:none;stroke:#000000;stroke-width:15;stroke-linecap:round;stroke-linejoin:round;stroke-miterlimit:10;stroke-dasharray:none;stroke-opacity:1"
             id="path683" /></g><g
           id="g685"
           transform="translate(38.752,129.0146)"><path
             d="m 0,0 c -8.824,-10.424 -20.534,-24.408 -28.25,-33.64 -4.599,-5.501 -4.235,-13.596 0.831,-18.668 l 12.367,-12.382 c 2.768,-2.771 6.825,-3.86 10.582,-2.754 8.109,2.386 24.437,3.643 44.252,-13.827 22.659,-19.978 50.619,-36.05 81.016,-39.722 51.533,-6.224 106.931,37.939 125.23,84.807 15.104,38.686 -0.202,72.821 -17.994,106.864 -2.539,4.859 -5.092,9.717 -7.701,14.545 -2.694,4.985 -4.199,10.57 -4.009,16.234 0.738,22.03 23.864,32.693 42.141,22.764 0.512,-0.278 1.025,-0.556 1.537,-0.833"
             style="fill:none;stroke:#000000;stroke-width:15;stroke-linecap:round;stroke-linejoin:round;stroke-miterlimit:10;stroke-dasharray:none;stroke-opacity:1"
             id="path687" /></g></g></g></g></svg>
