<?xml version="1.0" encoding="UTF-8"?>
<svg xmlns="http://www.w3.org/2000/svg" xmlns:xlink="http://www.w3.org/1999/xlink" version="1.1" id="Capa_1" x="0px" y="0px" viewBox="0 0 512 512" style="enable-background:new 0 0 512 512;" xml:space="preserve" width="512" height="512">
<g>
	<path style="fill:#FFEAD8;" d="M357.016,7.5H154.984c-5.579,0-10.102,4.523-10.102,10.102v295.765&#10;&#9;&#9;c0,15.957,4.724,31.558,13.577,44.834l32.89,49.324H320.65l32.89-49.324c8.853-13.276,13.577-28.877,13.577-44.834V17.602&#10;&#9;&#9;C367.118,12.023,362.595,7.5,357.016,7.5z"/>
	<path style="fill:#FFE3CB;" d="M357.016,7.5h-32.325c5.579,0,10.102,4.523,10.102,10.102v295.765&#10;&#9;&#9;c0,15.957-4.724,31.558-13.577,44.834l-32.89,49.324h32.325l32.89-49.324c8.853-13.276,13.577-28.877,13.577-44.834V17.602&#10;&#9;&#9;C367.118,12.023,362.595,7.5,357.016,7.5z"/>
	<path style="fill:#FEA95C;" d="M300.447,504.5h-88.894c-11.158,0-20.203-9.045-20.203-20.203v-76.772H320.65v76.772&#10;&#9;&#9;C320.65,495.455,311.605,504.5,300.447,504.5z"/>
	<path style="fill:#FE9738;" d="M290.346,407.524v76.772c0,11.158-9.045,20.203-20.203,20.203h30.305&#10;&#9;&#9;c11.158,0,20.203-9.045,20.203-20.203v-76.772H290.346z"/>
	<path style="fill:#FE7701;" d="M288.325,472.175h-64.65l7.799-23.398c1.375-4.125,5.235-6.907,9.583-6.907h29.885&#10;&#9;&#9;c4.348,0,8.208,2.782,9.583,6.907L288.325,472.175z"/>
	<g>
		<circle style="fill:#FFE177;" cx="256" cy="167.106" r="37.376"/>
		<path style="fill:#FFD15B;" d="M273.254,133.953c2.692,5.163,4.223,11.028,4.223,17.254c0,20.642-16.734,37.376-37.376,37.376&#10;&#9;&#9;&#9;c-6.226,0-12.091-1.531-17.254-4.223c6.235,11.955,18.736,20.122,33.153,20.122c20.642,0,37.376-16.734,37.376-37.376&#10;&#9;&#9;&#9;C293.376,152.689,285.209,140.188,273.254,133.953z"/>
	</g>
	<path style="fill:#528FD8;" d="M312.569,309.539H199.431c-4.463,0-8.081-3.618-8.081-8.081v-16.163&#10;&#9;&#9;c0-4.463,3.618-8.081,8.081-8.081h113.138c4.463,0,8.081,3.618,8.081,8.081v16.163C320.65,305.921,317.032,309.539,312.569,309.539&#10;&#9;&#9;z"/>
	<path style="fill:#0573CE;" d="M312.569,277.213h-32.325c4.463,0,8.081,3.618,8.081,8.081v16.163c0,4.463-3.618,8.081-8.081,8.081&#10;&#9;&#9;h32.325c4.463,0,8.081-3.618,8.081-8.081v-16.163C320.65,280.832,317.032,277.213,312.569,277.213z"/>
	<path style="fill:none;stroke:#000000;stroke-width:15;stroke-linecap:round;stroke-linejoin:round;stroke-miterlimit:10;" d="&#10;&#9;&#9;M144.88,227.39V17.6c0-5.58,4.52-10.1,10.1-10.1h202.04c5.58,0,10.1,4.52,10.1,10.1v59.27"/>
	<path style="fill:none;stroke:#000000;stroke-width:15;stroke-linecap:round;stroke-linejoin:round;stroke-miterlimit:10;" d="&#10;&#9;&#9;M367.12,111.87v201.5c0,15.95-4.73,31.55-13.58,44.83l-32.89,49.32h-129.3l-32.89-49.32c-8.85-13.28-13.58-28.88-13.58-44.83&#10;&#9;&#9;v-50.98"/>
	<path style="fill:none;stroke:#000000;stroke-width:15;stroke-linecap:round;stroke-linejoin:round;stroke-miterlimit:10;" d="&#10;&#9;&#9;M273.5,504.5h26.95c11.16,0,20.2-9.05,20.2-20.2v-76.78h-129.3v76.78c0,11.15,9.04,20.2,20.2,20.2h26.95"/>
	
		<line style="fill:none;stroke:#000000;stroke-width:15;stroke-linecap:round;stroke-linejoin:round;stroke-miterlimit:10;" x1="191.35" y1="472.175" x2="320.65" y2="472.175"/>
	<path style="fill:none;stroke:#000000;stroke-width:15;stroke-linecap:round;stroke-linejoin:round;stroke-miterlimit:10;" d="&#10;&#9;&#9;M288.325,472.175h-64.65l7.799-23.398c1.375-4.125,5.235-6.907,9.583-6.907h29.885c4.348,0,8.208,2.782,9.583,6.907&#10;&#9;&#9;L288.325,472.175z"/>
	
		<line style="fill:none;stroke:#000000;stroke-width:15;stroke-linecap:round;stroke-linejoin:round;stroke-miterlimit:10;" x1="144.882" y1="47.907" x2="367.118" y2="47.907"/>
	
		<line style="fill:none;stroke:#000000;stroke-width:15;stroke-linecap:round;stroke-linejoin:round;stroke-miterlimit:10;" x1="334.793" y1="7.5" x2="334.793" y2="47.907"/>
	
		<line style="fill:none;stroke:#000000;stroke-width:15;stroke-linecap:round;stroke-linejoin:round;stroke-miterlimit:10;" x1="295.396" y1="7.5" x2="295.396" y2="47.907"/>
	
		<line style="fill:none;stroke:#000000;stroke-width:15;stroke-linecap:round;stroke-linejoin:round;stroke-miterlimit:10;" x1="177.207" y1="7.5" x2="177.207" y2="47.907"/>
	
		<line style="fill:none;stroke:#000000;stroke-width:15;stroke-linecap:round;stroke-linejoin:round;stroke-miterlimit:10;" x1="216.604" y1="7.5" x2="216.604" y2="47.907"/>
	
		<line style="fill:none;stroke:#000000;stroke-width:15;stroke-linecap:round;stroke-linejoin:round;stroke-miterlimit:10;" x1="256" y1="7.5" x2="256" y2="47.907"/>
	
		<circle style="fill:none;stroke:#000000;stroke-width:15;stroke-linecap:round;stroke-linejoin:round;stroke-miterlimit:10;" cx="256" cy="167.106" r="37.376"/>
	
		<line style="fill:none;stroke:#000000;stroke-width:15;stroke-linecap:round;stroke-linejoin:round;stroke-miterlimit:10;" x1="256" y1="89.323" x2="256" y2="99.425"/>
	
		<line style="fill:none;stroke:#000000;stroke-width:15;stroke-linecap:round;stroke-linejoin:round;stroke-miterlimit:10;" x1="217.109" y1="99.744" x2="222.16" y2="108.492"/>
	
		<line style="fill:none;stroke:#000000;stroke-width:15;stroke-linecap:round;stroke-linejoin:round;stroke-miterlimit:10;" x1="188.638" y1="128.214" x2="197.387" y2="133.265"/>
	
		<line style="fill:none;stroke:#000000;stroke-width:15;stroke-linecap:round;stroke-linejoin:round;stroke-miterlimit:10;" x1="178.217" y1="167.106" x2="188.319" y2="167.106"/>
	
		<line style="fill:none;stroke:#000000;stroke-width:15;stroke-linecap:round;stroke-linejoin:round;stroke-miterlimit:10;" x1="188.638" y1="205.997" x2="197.387" y2="200.946"/>
	
		<line style="fill:none;stroke:#000000;stroke-width:15;stroke-linecap:round;stroke-linejoin:round;stroke-miterlimit:10;" x1="217.109" y1="234.467" x2="222.16" y2="225.719"/>
	
		<line style="fill:none;stroke:#000000;stroke-width:15;stroke-linecap:round;stroke-linejoin:round;stroke-miterlimit:10;" x1="256" y1="244.888" x2="256" y2="234.787"/>
	
		<line style="fill:none;stroke:#000000;stroke-width:15;stroke-linecap:round;stroke-linejoin:round;stroke-miterlimit:10;" x1="294.891" y1="234.467" x2="289.84" y2="225.719"/>
	
		<line style="fill:none;stroke:#000000;stroke-width:15;stroke-linecap:round;stroke-linejoin:round;stroke-miterlimit:10;" x1="323.362" y1="205.997" x2="314.613" y2="200.946"/>
	
		<line style="fill:none;stroke:#000000;stroke-width:15;stroke-linecap:round;stroke-linejoin:round;stroke-miterlimit:10;" x1="333.783" y1="167.106" x2="323.681" y2="167.106"/>
	
		<line style="fill:none;stroke:#000000;stroke-width:15;stroke-linecap:round;stroke-linejoin:round;stroke-miterlimit:10;" x1="323.362" y1="128.214" x2="314.613" y2="133.265"/>
	
		<line style="fill:none;stroke:#000000;stroke-width:15;stroke-linecap:round;stroke-linejoin:round;stroke-miterlimit:10;" x1="294.891" y1="99.744" x2="289.84" y2="108.492"/>
	<path style="fill:none;stroke:#000000;stroke-width:15;stroke-linecap:round;stroke-linejoin:round;stroke-miterlimit:10;" d="&#10;&#9;&#9;M312.569,309.539H199.431c-4.463,0-8.081-3.618-8.081-8.081v-16.163c0-4.463,3.618-8.081,8.081-8.081h113.138&#10;&#9;&#9;c4.463,0,8.081,3.618,8.081,8.081v16.163C320.65,305.921,317.032,309.539,312.569,309.539z"/>
	
		<line style="fill:none;stroke:#000000;stroke-width:15;stroke-linecap:round;stroke-linejoin:round;stroke-miterlimit:10;" x1="304.488" y1="341.864" x2="207.512" y2="341.864"/>
</g>















</svg>
