<?xml version="1.0" encoding="UTF-8" standalone="no"?>
<!-- Created with Inkscape (http://www.inkscape.org/) -->

<svg
   version="1.1"
   id="svg6249"
   width="682.66669"
   height="682.66669"
   viewBox="0 0 682.66669 682.66669"
   xmlns="http://www.w3.org/2000/svg"
   xmlns:svg="http://www.w3.org/2000/svg">
  <defs
     id="defs6253">
    <clipPath
       clipPathUnits="userSpaceOnUse"
       id="clipPath6263">
      <path
         d="M 0,512 H 512 V 0 H 0 Z"
         id="path6261" />
    </clipPath>
  </defs>
  <g
     id="g6255"
     transform="matrix(1.3333333,0,0,-1.3333333,0,682.66667)">
    <g
       id="g6257">
      <g
         id="g6259"
         clip-path="url(#clipPath6263)">
        <g
           id="g6265"
           transform="translate(363.9609,27.29)">
          <path
             d="m 0,0 h -214.467 c -13.276,0 -24.039,10.763 -24.039,24.039 V 55.063 H 24.038 V 24.039 C 24.038,10.763 13.275,0 0,0"
             style="fill:#368df6;fill-opacity:1;fill-rule:nonzero;stroke:none"
             id="path6267" />
        </g>
        <g
           id="g6269"
           transform="translate(363.9609,27.29)">
          <path
             d="m 0,0 h -214.467 c -13.276,0 -24.039,10.763 -24.039,24.039 V 55.063 H 24.038 V 24.039 C 24.038,10.763 13.275,0 0,0 Z"
             style="fill:none;stroke:#000000;stroke-width:15;stroke-linecap:round;stroke-linejoin:round;stroke-miterlimit:10;stroke-dasharray:none;stroke-opacity:1"
             id="path6271" />
        </g>
        <g
           id="g6273"
           transform="translate(497.9404,50.0078)">
          <path
             d="m 0,0 -59.667,-22.421 c -5.229,-1.965 -11.061,0.682 -13.025,5.91 L -81.772,7.653 -3.17,37.189 5.91,13.025 C 7.875,7.797 5.229,1.965 0,0"
             style="fill:#368df6;fill-opacity:1;fill-rule:nonzero;stroke:none"
             id="path6275" />
        </g>
        <g
           id="g6277"
           transform="translate(497.9404,50.0078)">
          <path
             d="m 0,0 -59.667,-22.421 c -5.229,-1.965 -11.061,0.682 -13.025,5.91 L -81.772,7.653 -3.17,37.189 5.91,13.025 C 7.875,7.797 5.229,1.965 0,0 Z"
             style="fill:none;stroke:#000000;stroke-width:15;stroke-linecap:round;stroke-linejoin:round;stroke-miterlimit:10;stroke-dasharray:none;stroke-opacity:1"
             id="path6279" />
        </g>
        <g
           id="g6281"
           transform="translate(14.0596,50.8115)">
          <path
             d="m 0,0 59.667,-22.421 c 5.229,-1.965 11.061,0.682 13.025,5.91 L 81.772,7.653 3.17,37.189 -5.91,13.025 C -7.875,7.797 -5.229,1.965 0,0"
             style="fill:#368df6;fill-opacity:1;fill-rule:nonzero;stroke:none"
             id="path6283" />
        </g>
        <g
           id="g6285"
           transform="translate(14.0596,50.8115)">
          <path
             d="m 0,0 59.667,-22.421 c 5.229,-1.965 11.061,0.682 13.025,5.91 L 81.772,7.653 3.17,37.189 -5.91,13.025 C -7.875,7.797 -5.229,1.965 0,0 Z"
             style="fill:none;stroke:#000000;stroke-width:15;stroke-linecap:round;stroke-linejoin:round;stroke-miterlimit:10;stroke-dasharray:none;stroke-opacity:1"
             id="path6287" />
        </g>
        <g
           id="g6289"
           transform="translate(479.9443,73.1074)">
          <path
             d="m 0,0 -45.855,-16.722 c -17.39,-6.34 -36.205,2.712 -42.556,19.394 -12.434,-12.244 -29.514,-19.862 -48.498,-19.862 h -172.614 c -18.985,0 -36.075,7.618 -48.508,19.862 -6.352,-16.682 -25.156,-25.734 -42.545,-19.394 L -446.442,0 c -16.312,5.942 -25.326,23.421 -20.709,40.162 l 34.01,123.498 26.851,97.515 23.631,85.818 c 7.837,28.456 33.712,48.169 63.224,48.169 h 192.437 c 29.514,0 55.388,-19.713 63.215,-48.169 L -40.152,261.175 -13.291,163.66 20.719,40.162 C 25.326,23.421 16.312,5.942 0,0"
             style="fill:#4fb4ff;fill-opacity:1;fill-rule:nonzero;stroke:none"
             id="path6291" />
        </g>
        <g
           id="g6293"
           transform="translate(410.4502,152.7002)">
          <path
             d="m 0,0 c -17.931,-7.16 -37.48,-11.09 -57.95,-11.09 -36.41,0 -69.92,12.44 -96.5,33.3 -26.58,20.859 -60.09,33.3 -96.5,33.3 -18.731,0 -36.7,-3.29 -53.35,-9.34 l 1.93,28.309 6.17,90.481 1.92,28.22 c 13.759,3.96 28.3,6.08 43.33,6.08 36.41,0 69.92,-12.441 96.5,-33.3 26.58,-20.86 60.09,-33.3 96.5,-33.3 16.88,0 33.139,2.67 48.38,7.63 l 1.84,-26.94 5.84,-85.58 z"
             style="fill:#ffa438;fill-opacity:1;fill-rule:nonzero;stroke:none"
             id="path6295" />
        </g>
        <g
           id="g6297"
           transform="translate(408.5605,180.4697)">
          <path
             d="m 0,0 c -17.36,-8.29 -36.511,-12.62 -56.061,-12.62 -29.439,0 -57.2,9.58 -80.299,27.7 -32.431,25.45 -71.401,38.9 -112.701,38.9 -17.62,0 -34.86,-2.44 -51.419,-7.27 l 6.169,90.48 c 14.361,5.31 29.67,8.06 45.25,8.06 29.44,0 57.21,-9.58 80.3,-27.71 32.431,-25.439 71.401,-38.89 112.7,-38.89 17.201,0 34.031,2.321 50.22,6.93 z"
             style="fill:#b7f1ff;fill-opacity:1;fill-rule:nonzero;stroke:none"
             id="path6299" />
        </g>
        <g
           id="g6301"
           transform="translate(479.9453,73.0986)">
          <path
             d="m 0,0 -3.793,-1.386 c 6.2,8.334 8.598,19.308 5.644,30.009 l -88.114,319.959 c -6.13,22.281 -22.879,39.425 -43.885,46.586 h 3.145 c 29.514,0 55.385,-19.712 63.224,-48.163 L 20.724,40.163 C 25.326,23.424 16.314,5.946 0,0"
             style="fill:#368df6;fill-opacity:1;fill-rule:nonzero;stroke:none"
             id="path6303" />
        </g>
        <g
           id="g6305"
           transform="translate(472.3193,216.1963)">
          <path
             d="m 0,0 -56.154,203.907 c -7.835,28.451 -33.71,48.163 -63.22,48.163 h -192.437 c -29.509,0 -55.384,-19.712 -63.219,-48.163 l -84.5,-306.838 c -4.611,-16.74 4.404,-34.215 20.718,-40.163 l 45.863,-16.72 c 17.384,-6.338 36.196,2.713 42.546,19.398"
             style="fill:none;stroke:#000000;stroke-width:15;stroke-linecap:round;stroke-linejoin:round;stroke-miterlimit:10;stroke-dasharray:none;stroke-opacity:1"
             id="path6307" />
        </g>
        <g
           id="g6309"
           transform="translate(391.5381,75.7803)">
          <path
             d="m 0,0 c 6.35,-16.685 25.162,-25.736 42.547,-19.398 l 45.862,16.72 c 16.314,5.948 25.328,23.423 20.718,40.163 l -19.422,70.527"
             style="fill:none;stroke:#000000;stroke-width:15;stroke-linecap:round;stroke-linejoin:round;stroke-miterlimit:10;stroke-dasharray:none;stroke-opacity:1"
             id="path6311" />
        </g>
        <g
           id="g6313"
           transform="translate(243.2979,55.9199)">
          <path
             d="m 0,0 h 99.742 c 40.46,0 72.28,34.59 68.901,74.91 l -1.491,21.87 -1.89,27.77 -5.84,85.58 -1.84,26.94 -4.36,64.02"
             style="fill:none;stroke:#000000;stroke-width:15;stroke-linecap:round;stroke-linejoin:round;stroke-miterlimit:10;stroke-dasharray:none;stroke-opacity:1"
             id="path6315" />
        </g>
        <g
           id="g6317"
           transform="translate(116.9297,357.0098)">
          <path
             d="m 0,0 -0.76,-11.13 -1.92,-28.22 -6.17,-90.48 -1.929,-28.31 -4.631,-68.04 c -3.38,-40.32 28.431,-74.91 68.9,-74.91 h 33.466"
             style="fill:none;stroke:#000000;stroke-width:15;stroke-linecap:round;stroke-linejoin:round;stroke-miterlimit:10;stroke-dasharray:none;stroke-opacity:1"
             id="path6319" />
        </g>
        <g
           id="g6321"
           transform="translate(332.1221,485.0615)">
          <path
             d="M 0,0 C 10.224,0 17.767,-9.441 15.642,-19.442 6.7,-61.51 -30.661,-93.068 -75.394,-93.068 c -44.732,0 -82.094,31.558 -91.035,73.626 C -168.554,-9.441 -161.011,0 -150.787,0 Z"
             style="fill:#77dfff;fill-opacity:1;fill-rule:nonzero;stroke:none"
             id="path6323" />
        </g>
        <g
           id="g6325"
           transform="translate(320.4004,485.0615)">
          <path
             d="m 0,0 c 0,-35.165 -28.507,-63.672 -63.672,-63.672 -35.165,0 -63.673,28.507 -63.673,63.672 z"
             style="fill:#3f6b86;fill-opacity:1;fill-rule:nonzero;stroke:none"
             id="path6327" />
        </g>
        <g
           id="g6329"
           transform="translate(260.3184,454.3848)">
          <path
             d="m 0,0 h -8.637 c -4.205,0 -7.614,3.408 -7.614,7.613 V 30.677 H 7.614 V 7.613 C 7.614,3.408 4.205,0 0,0"
             style="fill:#fff7e6;fill-opacity:1;fill-rule:nonzero;stroke:none"
             id="path6331" />
        </g>
        <g
           id="g6333"
           transform="translate(205.9775,407.0586)">
          <path
             d="m 0,0 c 14.599,-9.519 32.023,-15.065 50.751,-15.065 44.732,0 82.094,31.558 91.035,73.626 2.125,10.001 -5.418,19.442 -15.642,19.442 H -24.643 c -10.223,0 -17.766,-9.441 -15.641,-19.442 2.702,-12.716 8.015,-24.46 15.33,-34.675"
             style="fill:none;stroke:#000000;stroke-width:15;stroke-linecap:round;stroke-linejoin:round;stroke-miterlimit:10;stroke-dasharray:none;stroke-opacity:1"
             id="path6335" />
        </g>
        <g
           id="g6337"
           transform="translate(320.4004,485.0615)">
          <path
             d="m 0,0 c 0,-35.165 -28.507,-63.672 -63.672,-63.672 -35.165,0 -63.673,28.507 -63.673,63.672"
             style="fill:none;stroke:#000000;stroke-width:15;stroke-linecap:round;stroke-linejoin:round;stroke-miterlimit:10;stroke-dasharray:none;stroke-opacity:1"
             id="path6339" />
        </g>
        <g
           id="g6341"
           transform="translate(267.9326,485.0615)">
          <path
             d="m 0,0 v -23.063 c 0,-4.206 -3.409,-7.614 -7.614,-7.614 h -8.637 c -4.205,0 -7.614,3.408 -7.614,7.614 V 0"
             style="fill:none;stroke:#000000;stroke-width:15;stroke-linecap:round;stroke-linejoin:round;stroke-miterlimit:10;stroke-dasharray:none;stroke-opacity:1"
             id="path6343" />
        </g>
        <g
           id="g6345"
           transform="translate(107.5645,199.3799)">
          <path
             d="m 0,0 c 16.251,5.717 33.729,8.827 51.936,8.827 36.411,0 69.916,-12.439 96.5,-33.3 26.584,-20.859 60.088,-33.298 96.5,-33.298 19.514,0 38.194,3.573 55.42,10.1"
             style="fill:none;stroke:#000000;stroke-width:15;stroke-linecap:round;stroke-linejoin:round;stroke-miterlimit:10;stroke-dasharray:none;stroke-opacity:1"
             id="path6347" />
        </g>
        <g
           id="g6349"
           transform="translate(397.8877,292.0459)">
          <path
             d="m 0,0 c -14.365,-4.348 -29.604,-6.686 -45.388,-6.686 -36.411,0 -69.916,12.44 -96.5,33.299 -26.584,20.861 -60.089,33.3 -96.5,33.3 -13.654,0 -26.899,-1.749 -39.525,-5.036"
             style="fill:none;stroke:#000000;stroke-width:15;stroke-linecap:round;stroke-linejoin:round;stroke-miterlimit:10;stroke-dasharray:none;stroke-opacity:1"
             id="path6351" />
        </g>
        <g
           id="g6353"
           transform="translate(117.8584,318.9326)">
          <path
             d="m 0,0 c 13.306,4.473 27.364,6.784 41.642,6.784 29.437,0 57.205,-9.58 80.299,-27.704 32.429,-25.445 71.401,-38.895 112.701,-38.895 16.116,0 31.92,2.044 47.165,6.088"
             style="fill:none;stroke:#000000;stroke-width:15;stroke-linecap:round;stroke-linejoin:round;stroke-miterlimit:10;stroke-dasharray:none;stroke-opacity:1"
             id="path6355" />
        </g>
        <g
           id="g6357"
           transform="translate(408.5586,180.4736)">
          <path
             d="m 0,0 c -17.358,-8.288 -36.504,-12.623 -56.059,-12.623 -29.436,0 -57.204,9.58 -80.299,27.704 -32.43,25.444 -71.401,38.894 -112.701,38.894 -16.118,0 -31.922,-2.043 -47.167,-6.088"
             style="fill:none;stroke:#000000;stroke-width:15;stroke-linecap:round;stroke-linejoin:round;stroke-miterlimit:10;stroke-dasharray:none;stroke-opacity:1"
             id="path6359" />
        </g>
        <g
           id="g6361"
           transform="translate(184.9551,148.9189)">
          <path
             d="M 0,0 -27.963,-27.962"
             style="fill:none;stroke:#000000;stroke-width:15;stroke-linecap:round;stroke-linejoin:round;stroke-miterlimit:10;stroke-dasharray:none;stroke-opacity:1"
             id="path6363" />
        </g>
        <g
           id="g6365"
           transform="translate(184.9551,120.957)">
          <path
             d="M 0,0 -27.963,27.962"
             style="fill:none;stroke:#000000;stroke-width:15;stroke-linecap:round;stroke-linejoin:round;stroke-miterlimit:10;stroke-dasharray:none;stroke-opacity:1"
             id="path6367" />
        </g>
        <g
           id="g6369"
           transform="translate(170.9736,160.5176)">
          <path
             d="M 0,0 V 7.332"
             style="fill:none;stroke:#000000;stroke-width:15;stroke-linecap:round;stroke-linejoin:round;stroke-miterlimit:10;stroke-dasharray:none;stroke-opacity:1"
             id="path6371" />
        </g>
        <g
           id="g6373"
           transform="translate(170.9736,102.0254)">
          <path
             d="M 0,0 V 7.333"
             style="fill:none;stroke:#000000;stroke-width:15;stroke-linecap:round;stroke-linejoin:round;stroke-miterlimit:10;stroke-dasharray:none;stroke-opacity:1"
             id="path6375" />
        </g>
        <g
           id="g6377"
           transform="translate(196.5527,134.9375)">
          <path
             d="M 0,0 H 7.333"
             style="fill:none;stroke:#000000;stroke-width:15;stroke-linecap:round;stroke-linejoin:round;stroke-miterlimit:10;stroke-dasharray:none;stroke-opacity:1"
             id="path6379" />
        </g>
        <g
           id="g6381"
           transform="translate(138.0615,134.9375)">
          <path
             d="M 0,0 H 7.332"
             style="fill:none;stroke:#000000;stroke-width:15;stroke-linecap:round;stroke-linejoin:round;stroke-miterlimit:10;stroke-dasharray:none;stroke-opacity:1"
             id="path6383" />
        </g>
        <g
           id="g6385"
           transform="translate(259.0459,259.6152)">
          <path
             d="M 0,0 -0.013,-2.337"
             style="fill:none;stroke:#000000;stroke-width:15;stroke-linecap:round;stroke-linejoin:round;stroke-miterlimit:10;stroke-dasharray:none;stroke-opacity:1"
             id="path6387" />
        </g>
        <g
           id="g6389"
           transform="translate(258.9668,234.125)">
          <path
             d="M 0,0 -0.013,-2.337"
             style="fill:none;stroke:#000000;stroke-width:15;stroke-linecap:round;stroke-linejoin:round;stroke-miterlimit:10;stroke-dasharray:none;stroke-opacity:1"
             id="path6391" />
        </g>
        <g
           id="g6393"
           transform="translate(272.9131,245.6562)">
          <path
             d="M 0,0 -2.337,0.012"
             style="fill:none;stroke:#000000;stroke-width:15;stroke-linecap:round;stroke-linejoin:round;stroke-miterlimit:10;stroke-dasharray:none;stroke-opacity:1"
             id="path6395" />
        </g>
        <g
           id="g6397"
           transform="translate(247.4238,245.7354)">
          <path
             d="M 0,0 -2.337,0.012"
             style="fill:none;stroke:#000000;stroke-width:15;stroke-linecap:round;stroke-linejoin:round;stroke-miterlimit:10;stroke-dasharray:none;stroke-opacity:1"
             id="path6399" />
        </g>
        <g
           id="g6401"
           transform="translate(206.959,289.2734)">
          <path
             d="M 0,0 -0.012,-2.337"
             style="fill:none;stroke:#000000;stroke-width:15;stroke-linecap:round;stroke-linejoin:round;stroke-miterlimit:10;stroke-dasharray:none;stroke-opacity:1"
             id="path6403" />
        </g>
        <g
           id="g6405"
           transform="translate(206.8799,263.7832)">
          <path
             d="M 0,0 -0.013,-2.337"
             style="fill:none;stroke:#000000;stroke-width:15;stroke-linecap:round;stroke-linejoin:round;stroke-miterlimit:10;stroke-dasharray:none;stroke-opacity:1"
             id="path6407" />
        </g>
        <g
           id="g6409"
           transform="translate(220.8262,275.3145)">
          <path
             d="M 0,0 -2.337,0.012"
             style="fill:none;stroke:#000000;stroke-width:15;stroke-linecap:round;stroke-linejoin:round;stroke-miterlimit:10;stroke-dasharray:none;stroke-opacity:1"
             id="path6411" />
        </g>
        <g
           id="g6413"
           transform="translate(195.3369,275.3936)">
          <path
             d="M 0,0 -2.337,0.012"
             style="fill:none;stroke:#000000;stroke-width:15;stroke-linecap:round;stroke-linejoin:round;stroke-miterlimit:10;stroke-dasharray:none;stroke-opacity:1"
             id="path6415" />
        </g>
        <g
           id="g6417"
           transform="translate(311.1328,236.0664)">
          <path
             d="M 0,0 -0.013,-2.337"
             style="fill:none;stroke:#000000;stroke-width:15;stroke-linecap:round;stroke-linejoin:round;stroke-miterlimit:10;stroke-dasharray:none;stroke-opacity:1"
             id="path6419" />
        </g>
        <g
           id="g6421"
           transform="translate(311.0527,210.5762)">
          <path
             d="M 0,0 -0.012,-2.337"
             style="fill:none;stroke:#000000;stroke-width:15;stroke-linecap:round;stroke-linejoin:round;stroke-miterlimit:10;stroke-dasharray:none;stroke-opacity:1"
             id="path6423" />
        </g>
        <g
           id="g6425"
           transform="translate(325,222.1074)">
          <path
             d="M 0,0 -2.337,0.012"
             style="fill:none;stroke:#000000;stroke-width:15;stroke-linecap:round;stroke-linejoin:round;stroke-miterlimit:10;stroke-dasharray:none;stroke-opacity:1"
             id="path6427" />
        </g>
        <g
           id="g6429"
           transform="translate(299.5107,222.1865)">
          <path
             d="M 0,0 -2.337,0.012"
             style="fill:none;stroke:#000000;stroke-width:15;stroke-linecap:round;stroke-linejoin:round;stroke-miterlimit:10;stroke-dasharray:none;stroke-opacity:1"
             id="path6431" />
        </g>
        <g
           id="g6433"
           transform="translate(151.1729,294.1865)">
          <path
             d="M 0,0 -0.013,-2.337"
             style="fill:none;stroke:#000000;stroke-width:15;stroke-linecap:round;stroke-linejoin:round;stroke-miterlimit:10;stroke-dasharray:none;stroke-opacity:1"
             id="path6435" />
        </g>
        <g
           id="g6437"
           transform="translate(151.0928,268.6963)">
          <path
             d="M 0,0 -0.012,-2.337"
             style="fill:none;stroke:#000000;stroke-width:15;stroke-linecap:round;stroke-linejoin:round;stroke-miterlimit:10;stroke-dasharray:none;stroke-opacity:1"
             id="path6439" />
        </g>
        <g
           id="g6441"
           transform="translate(165.04,280.2275)">
          <path
             d="M 0,0 -2.337,0.012"
             style="fill:none;stroke:#000000;stroke-width:15;stroke-linecap:round;stroke-linejoin:round;stroke-miterlimit:10;stroke-dasharray:none;stroke-opacity:1"
             id="path6443" />
        </g>
        <g
           id="g6445"
           transform="translate(139.5508,280.3066)">
          <path
             d="M 0,0 -2.337,0.012"
             style="fill:none;stroke:#000000;stroke-width:15;stroke-linecap:round;stroke-linejoin:round;stroke-miterlimit:10;stroke-dasharray:none;stroke-opacity:1"
             id="path6447" />
        </g>
        <g
           id="g6449"
           transform="translate(366.9189,230.0635)">
          <path
             d="M 0,0 -0.012,-2.336"
             style="fill:none;stroke:#000000;stroke-width:15;stroke-linecap:round;stroke-linejoin:round;stroke-miterlimit:10;stroke-dasharray:none;stroke-opacity:1"
             id="path6451" />
        </g>
        <g
           id="g6453"
           transform="translate(366.8398,204.5742)">
          <path
             d="M 0,0 -0.013,-2.337"
             style="fill:none;stroke:#000000;stroke-width:15;stroke-linecap:round;stroke-linejoin:round;stroke-miterlimit:10;stroke-dasharray:none;stroke-opacity:1"
             id="path6455" />
        </g>
        <g
           id="g6457"
           transform="translate(380.7861,216.1055)">
          <path
             d="M 0,0 -2.337,0.012"
             style="fill:none;stroke:#000000;stroke-width:15;stroke-linecap:round;stroke-linejoin:round;stroke-miterlimit:10;stroke-dasharray:none;stroke-opacity:1"
             id="path6459" />
        </g>
        <g
           id="g6461"
           transform="translate(355.2969,216.1846)">
          <path
             d="M 0,0 -2.337,0.012"
             style="fill:none;stroke:#000000;stroke-width:15;stroke-linecap:round;stroke-linejoin:round;stroke-miterlimit:10;stroke-dasharray:none;stroke-opacity:1"
             id="path6463" />
        </g>
      </g>
    </g>
  </g>
</svg>
