<?xml version="1.0" encoding="UTF-8" standalone="no"?>
<!-- Created with Inkscape (http://www.inkscape.org/) -->

<svg
   version="1.1"
   id="svg3339"
   xml:space="preserve"
   width="682.66669"
   height="682.66669"
   viewBox="0 0 682.66669 682.66669"
   xmlns="http://www.w3.org/2000/svg"
   xmlns:svg="http://www.w3.org/2000/svg"><defs
     id="defs3343"><clipPath
       clipPathUnits="userSpaceOnUse"
       id="clipPath3353"><path
         d="M 0,512 H 512 V 0 H 0 Z"
         id="path3351" /></clipPath></defs><g
     id="g3345"
     transform="matrix(1.3333333,0,0,-1.3333333,0,682.66667)"><g
       id="g3347"><g
         id="g3349"
         clip-path="url(#clipPath3353)"><g
           id="g3355"
           transform="translate(430.9639,7.5)"><path
             d="m 0,0 h -349.928 c -17.53,0 -31.741,14.211 -31.741,31.741 v 433.518 c 0,17.53 14.211,31.741 31.741,31.741 L 0,497 c 17.53,0 31.741,-14.211 31.741,-31.741 V 31.741 C 31.741,14.211 17.53,0 0,0"
             style="fill:#cdc0ba;fill-opacity:1;fill-rule:nonzero;stroke:none"
             id="path3357" /></g><g
           id="g3359"
           transform="translate(430.9639,504.5)"><path
             d="M 0,0 H -38.122 C -20.591,0 -6.38,-14.211 -6.38,-31.741 V -465.259 C -6.38,-482.789 -20.591,-497 -38.122,-497 H 0 c 17.53,0 31.741,14.211 31.741,31.741 V -31.741 C 31.741,-14.211 17.53,0 0,0"
             style="fill:#b9acac;fill-opacity:1;fill-rule:nonzero;stroke:none"
             id="path3361" /></g><g
           id="g3363"
           transform="translate(393.8896,257.5757)"><path
             d="m 0,0 c 0,-116.469 -61.735,-210.885 -137.89,-210.885 -76.154,0 -137.889,94.416 -137.889,210.885 0,116.468 61.735,210.885 137.889,210.885 C -61.735,210.885 0,116.468 0,0"
             style="fill:#fff3de;fill-opacity:1;fill-rule:nonzero;stroke:none"
             id="path3365" /></g><g
           id="g3367"
           transform="translate(256,468.4604)"><path
             d="m 0,0 c -6.468,0 -12.83,-0.697 -19.061,-2.015 67.133,-14.199 118.83,-102.294 118.83,-208.87 0,-106.576 -51.697,-194.671 -118.83,-208.87 6.231,-1.318 12.593,-2.015 19.061,-2.015 76.154,0 137.89,94.416 137.89,210.885 C 137.89,-94.417 76.154,0 0,0"
             style="fill:#ffe5c2;fill-opacity:1;fill-rule:nonzero;stroke:none"
             id="path3369" /></g><g
           id="g3371"
           transform="translate(201.1396,310.603)"><path
             d="m 0,0 c 19.509,-19.509 54.62,-16.029 54.62,-16.029 0,0 3.48,35.111 -16.029,54.62 C 19.082,58.1 -8.352,62.297 -16.029,54.62 -23.706,46.943 -19.509,19.509 0,0"
             style="fill:#bbec6c;fill-opacity:1;fill-rule:nonzero;stroke:none"
             id="path3373" /></g><g
           id="g3375"
           transform="translate(239.7305,349.1943)"><path
             d="m 0,0 c -17.644,17.644 -41.767,22.761 -51.897,17.9 9.973,-2.679 21.193,-8.512 30.581,-17.9 17.675,-17.676 16.48,-48.158 16.099,-53.731 11.805,-1.817 21.246,-0.889 21.246,-0.889 0,0 3.48,35.111 -16.029,54.62"
             style="fill:#a8e237;fill-opacity:1;fill-rule:nonzero;stroke:none"
             id="path3377" /></g><g
           id="g3379"
           transform="translate(310.8604,310.603)"><path
             d="m 0,0 c -19.509,-19.509 -54.62,-16.029 -54.62,-16.029 0,0 -3.48,35.111 16.029,54.62 C -19.082,58.1 8.352,62.297 16.029,54.62 23.706,46.943 19.509,19.509 0,0"
             style="fill:#bbec6c;fill-opacity:1;fill-rule:nonzero;stroke:none"
             id="path3381" /></g><g
           id="g3383"
           transform="translate(326.8896,365.2231)"><path
             d="m 0,0 c -3.983,3.982 -13.287,4.76 -24.039,1.872 1.071,-0.515 1.989,-1.138 2.723,-1.872 7.677,-7.677 3.48,-35.111 -16.029,-54.62 -9.397,-9.396 -22.405,-13.452 -33.374,-15.14 0.039,-0.578 0.07,-0.889 0.07,-0.889 0,0 35.111,-3.48 54.62,16.029 C 3.48,-35.111 7.677,-7.677 0,0"
             style="fill:#a8e237;fill-opacity:1;fill-rule:nonzero;stroke:none"
             id="path3385" /></g><g
           id="g3387"
           transform="translate(462.4082,162.582)"><path
             d="m 0,0 h -412.816 c -6.335,0 -11.471,5.136 -11.471,11.471 v 108.81 c 0,6.335 5.136,11.47 11.471,11.47 H 0 c 6.335,0 11.47,-5.135 11.47,-11.47 V 11.471 C 11.47,5.136 6.335,0 0,0"
             style="fill:#ffd55f;fill-opacity:1;fill-rule:nonzero;stroke:none"
             id="path3389" /></g><g
           id="g3391"
           transform="translate(462.4082,294.3335)"><path
             d="m 0,0 h -38.122 c 6.335,0 11.471,-5.135 11.471,-11.47 v -108.811 c 0,-6.335 -5.136,-11.47 -11.471,-11.47 H 0 c 6.335,0 11.47,5.135 11.47,11.47 V -11.47 C 11.47,-5.135 6.335,0 0,0"
             style="fill:#fcc742;fill-opacity:1;fill-rule:nonzero;stroke:none"
             id="path3393" /></g><g
           id="g3395"
           transform="translate(201.1396,310.603)"><path
             d="m 0,0 c 19.509,-19.509 54.62,-16.029 54.62,-16.029 0,0 3.48,35.111 -16.029,54.62 C 19.082,58.1 -8.352,62.297 -16.029,54.62 -23.706,46.943 -19.509,19.509 0,0 Z"
             style="fill:none;stroke:#000000;stroke-width:15;stroke-linecap:round;stroke-linejoin:round;stroke-miterlimit:10;stroke-dasharray:none;stroke-opacity:1"
             id="path3397" /></g><g
           id="g3399"
           transform="translate(185.1104,365.2231)"><path
             d="M 0,0 70.649,-70.649"
             style="fill:none;stroke:#000000;stroke-width:15;stroke-linecap:round;stroke-linejoin:round;stroke-miterlimit:10;stroke-dasharray:none;stroke-opacity:1"
             id="path3401" /></g><g
           id="g3403"
           transform="translate(310.8604,310.603)"><path
             d="m 0,0 c -19.509,-19.509 -54.62,-16.029 -54.62,-16.029 0,0 -3.48,35.111 16.029,54.62 C -19.082,58.1 8.352,62.297 16.029,54.62 23.706,46.943 19.509,19.509 0,0 Z"
             style="fill:none;stroke:#000000;stroke-width:15;stroke-linecap:round;stroke-linejoin:round;stroke-miterlimit:10;stroke-dasharray:none;stroke-opacity:1"
             id="path3405" /></g><g
           id="g3407"
           transform="translate(326.8896,365.2231)"><path
             d="M 0,0 -70.649,-70.649"
             style="fill:none;stroke:#000000;stroke-width:15;stroke-linecap:round;stroke-linejoin:round;stroke-miterlimit:10;stroke-dasharray:none;stroke-opacity:1"
             id="path3409" /></g><g
           id="g3411"
           transform="translate(208.999,122.5239)"><path
             d="M 0,0 H 102.739"
             style="fill:none;stroke:#000000;stroke-width:15;stroke-linecap:round;stroke-linejoin:round;stroke-miterlimit:10;stroke-dasharray:none;stroke-opacity:1"
             id="path3413" /></g><g
           id="g3415"
           transform="translate(234.6836,91.8838)"><path
             d="M 0,0 H 51.37"
             style="fill:none;stroke:#000000;stroke-width:15;stroke-linecap:round;stroke-linejoin:round;stroke-miterlimit:10;stroke-dasharray:none;stroke-opacity:1"
             id="path3417" /></g><g
           id="g3419"
           transform="translate(272.9512,410.354)"><path
             d="M 0,0 -16.951,-16.951 -33.902,0"
             style="fill:none;stroke:#000000;stroke-width:15;stroke-linecap:round;stroke-linejoin:round;stroke-miterlimit:10;stroke-dasharray:none;stroke-opacity:1"
             id="path3421" /></g><g
           id="g3423"
           transform="translate(256,393.4028)"><path
             d="M 0,0 V -98.829"
             style="fill:none;stroke:#000000;stroke-width:15;stroke-linecap:round;stroke-linejoin:round;stroke-miterlimit:10;stroke-dasharray:none;stroke-opacity:1"
             id="path3425" /></g><g
           id="g3427"
           transform="translate(462.71,162.5898)"><path
             d="m 0,0 v -123.35 c 0,-17.53 -14.22,-31.74 -31.75,-31.74 h -349.92 c -17.53,0 -31.75,14.21 -31.75,31.74 v 87.972"
             style="fill:none;stroke:#000000;stroke-width:15;stroke-linecap:round;stroke-linejoin:round;stroke-miterlimit:10;stroke-dasharray:none;stroke-opacity:1"
             id="path3429" /></g><g
           id="g3431"
           transform="translate(49.29,294.3198)"><path
             d="m 0,0 v 178.44 c 0,17.53 14.22,31.74 31.75,31.74 h 349.92 c 17.53,0 31.75,-14.21 31.75,-31.74 V 0"
             style="fill:none;stroke:#000000;stroke-width:15;stroke-linecap:round;stroke-linejoin:round;stroke-miterlimit:10;stroke-dasharray:none;stroke-opacity:1"
             id="path3433" /></g><g
           id="g3435"
           transform="translate(184.7998,76.9502)"><path
             d="M 0,0 -122.93,-63"
             style="fill:none;stroke:#000000;stroke-width:15;stroke-linecap:round;stroke-linejoin:round;stroke-miterlimit:10;stroke-dasharray:none;stroke-opacity:1"
             id="path3437" /></g><g
           id="g3439"
           transform="translate(179.7998,433.3398)"><path
             d="M 0,0 -118.25,64.47"
             style="fill:none;stroke:#000000;stroke-width:15;stroke-linecap:round;stroke-linejoin:round;stroke-miterlimit:10;stroke-dasharray:none;stroke-opacity:1"
             id="path3441" /></g><g
           id="g3443"
           transform="translate(450.1299,13.9502)"><path
             d="M 0,0 -122.93,63"
             style="fill:none;stroke:#000000;stroke-width:15;stroke-linecap:round;stroke-linejoin:round;stroke-miterlimit:10;stroke-dasharray:none;stroke-opacity:1"
             id="path3445" /></g><g
           id="g3447"
           transform="translate(450.4502,497.8101)"><path
             d="M 0,0 -118.25,-64.47"
             style="fill:none;stroke:#000000;stroke-width:15;stroke-linecap:round;stroke-linejoin:round;stroke-miterlimit:10;stroke-dasharray:none;stroke-opacity:1"
             id="path3449" /></g><g
           id="g3451"
           transform="translate(132.8599,162.5801)"><path
             d="m 0,0 c 22.72,-68.75 69.33,-115.89 123.14,-115.89 53.81,0 100.42,47.14 123.14,115.89"
             style="fill:none;stroke:#000000;stroke-width:15;stroke-linecap:round;stroke-linejoin:round;stroke-miterlimit:10;stroke-dasharray:none;stroke-opacity:1"
             id="path3453" /></g><g
           id="g3455"
           transform="translate(120.2002,294.3301)"><path
             d="m 0,0 c 11.37,98.94 67.85,174.13 135.8,174.13 59.654,0 110.468,-57.951 129.679,-139.048"
             style="fill:none;stroke:#000000;stroke-width:15;stroke-linecap:round;stroke-linejoin:round;stroke-miterlimit:10;stroke-dasharray:none;stroke-opacity:1"
             id="path3457" /></g><g
           id="g3459"
           transform="translate(462.4082,162.582)"><path
             d="m 0,0 h -412.816 c -6.335,0 -11.471,5.136 -11.471,11.471 v 108.81 c 0,6.335 5.136,11.47 11.471,11.47 H 0 c 6.335,0 11.47,-5.135 11.47,-11.47 V 11.471 C 11.47,5.136 6.335,0 0,0 Z"
             style="fill:none;stroke:#000000;stroke-width:15;stroke-linecap:round;stroke-linejoin:round;stroke-miterlimit:10;stroke-dasharray:none;stroke-opacity:1"
             id="path3461" /></g><g
           id="g3463"
           transform="translate(295.8726,191.1831)"><path
             d="m 0,0 27.307,71.698 c 0.558,1.365 2.489,1.366 3.05,0.003 L 57.416,0"
             style="fill:none;stroke:#000000;stroke-width:15;stroke-linecap:round;stroke-linejoin:round;stroke-miterlimit:10;stroke-dasharray:none;stroke-opacity:1"
             id="path3465" /></g><g
           id="g3467"
           transform="translate(304.3887,209.0396)"><path
             d="M 0,0 H 40.521"
             style="fill:none;stroke:#000000;stroke-width:15;stroke-linecap:round;stroke-linejoin:round;stroke-miterlimit:10;stroke-dasharray:none;stroke-opacity:1"
             id="path3469" /></g><g
           id="g3471"
           transform="translate(262.3901,264.1099)"><path
             d="M 0,0 H -30.362 V -72.058 H 0"
             style="fill:none;stroke:#000000;stroke-width:15;stroke-linecap:round;stroke-linejoin:round;stroke-miterlimit:10;stroke-dasharray:none;stroke-opacity:1"
             id="path3473" /></g><g
           id="g3475"
           transform="translate(260.1514,228.0806)"><path
             d="M 0,0 H -28.124"
             style="fill:none;stroke:#000000;stroke-width:15;stroke-linecap:round;stroke-linejoin:round;stroke-miterlimit:10;stroke-dasharray:none;stroke-opacity:1"
             id="path3477" /></g><g
           id="g3479"
           transform="translate(154.7114,263.9053)"><path
             d="M 0,0 H 40.162"
             style="fill:none;stroke:#000000;stroke-width:15;stroke-linecap:round;stroke-linejoin:round;stroke-miterlimit:10;stroke-dasharray:none;stroke-opacity:1"
             id="path3481" /></g><g
           id="g3483"
           transform="translate(174.7109,261.5835)"><path
             d="M 0,0 V -70.4"
             style="fill:none;stroke:#000000;stroke-width:15;stroke-linecap:round;stroke-linejoin:round;stroke-miterlimit:10;stroke-dasharray:none;stroke-opacity:1"
             id="path3485" /></g></g></g></g></svg>
