<svg id="Capa_1" enable-background="new 0 0 512 512" height="512" viewBox="0 0 512 512" width="512" xmlns="http://www.w3.org/2000/svg"><path d="m428.347 247.984-52.105 48.097 40.081 32.064 64.129-80.161z" fill="#c8c5c9"/><path d="m239.968 183.855h-16.032c-8.854 0-16.032-7.178-16.032-16.032 0-8.854 7.178-16.032 16.032-16.032h16.032c8.854 0 16.032 7.178 16.032 16.032 0 8.854-7.178 16.032-16.032 16.032z" fill="#6f6571"/><path d="m384.258 264.016h-304.613c-26.563 0-48.097 21.534-48.097 48.097v144.29c0 26.563 21.534 48.097 48.097 48.097h304.613c26.563 0 48.097-21.534 48.097-48.097v-144.29c0-26.563-21.534-48.097-48.097-48.097z" fill="#dad8db"/><g fill="#c8c5c9"><path d="m336.161 231.952c0-8.855-7.178-16.032-16.032-16.032h-176.355c-8.854 0-16.032 7.178-16.032 16.032 0 17.708-14.356 32.065-32.065 32.065h272.548c-17.708-.001-32.064-14.357-32.064-32.065z"/><path d="m34.344 472.435c6.609 18.668 24.368 32.065 45.301 32.065h304.613c20.933 0 38.692-13.396 45.301-32.065z"/><path d="m119.726 472.435v-208.419h-40.081c-26.563 0-48.097 21.534-48.097 48.097v144.29c0 5.63 1.018 11.011 2.796 16.032z"/></g><path d="m312.113 39.565h-160.323c-8.854 0-16.032-7.178-16.032-16.032 0-8.854 7.178-16.032 16.032-16.032h160.323c8.854 0 16.032 7.178 16.032 16.032 0 8.854-7.178 16.032-16.032 16.032z" fill="#6f6571"/><path d="m151.79 39.565h8.016v-32.065h-8.016c-8.854 0-16.032 7.178-16.032 16.032 0 8.855 7.178 16.033 16.032 16.033z" fill="#5d5360"/><path d="m79.645 504.5h40.081v-32.065h-85.382c6.61 18.669 24.368 32.065 45.301 32.065z" fill="#b6b1b7"/><path d="m337.294 239.968h-129.391c-13.282 0-24.048-10.767-24.048-24.048h-39.46c-8.877 0-16.711 6.943-16.654 15.819.116 17.806-14.283 32.277-32.064 32.277h272.548c-14.923 0-27.354-10.243-30.931-24.048z" fill="#b6b1b7"/><path d="m487.201 244.713c-1.253-2.587-3.875-4.229-6.75-4.229h-52.105c-2.03 0-3.974.823-5.387 2.282l-17.427 17.99c-4.342-1.805-8.962-3.067-13.774-3.719v-177.392c0-32.924-25.144-60.084-57.238-63.293-3.042-9.474-11.935-16.352-22.407-16.352h-160.323c-10.472 0-19.365 6.878-22.408 16.352-32.094 3.209-57.238 30.368-57.238 63.293v177.391c-27.12 3.675-48.097 26.965-48.097 55.077v144.291c0 30.656 24.94 55.597 55.597 55.597h304.613c30.656 0 55.597-24.94 55.597-55.597v-144.9l46.483-58.872c1.782-2.257 2.118-5.332.864-7.919zm-400.056-165.068c0-24.727 18.562-45.187 42.482-48.212 3.254 9.101 11.959 15.632 22.164 15.632h128.258c4.142 0 7.5-3.358 7.5-7.5s-3.358-7.5-7.5-7.5h-128.259c-4.705 0-8.532-3.828-8.532-8.532s3.828-8.533 8.532-8.533h160.322c4.705 0 8.532 3.828 8.532 8.532s-3.828 8.532-8.532 8.532c-4.142 0-7.5 3.358-7.5 7.5s3.358 7.5 7.5 7.5c10.205 0 18.91-6.531 22.164-15.632 23.92 3.026 42.482 23.485 42.482 48.212v176.871h-8.533c-13.545 0-24.564-11.02-24.564-24.564 0-12.976-10.557-23.532-23.532-23.532h-80.677v-17.064h.516c12.976 0 23.532-10.557 23.532-23.532s-10.557-23.532-23.532-23.532h-16.032c-12.976 0-23.532 10.557-23.532 23.532s10.557 23.532 23.532 23.532h.516v17.064h-80.678c-12.976 0-23.532 10.557-23.532 23.532 0 13.545-11.02 24.564-24.564 24.564h-8.532v-176.87zm136.79 96.71c-4.705 0-8.532-3.828-8.532-8.532s3.828-8.532 8.532-8.532h16.032c4.705 0 8.532 3.828 8.532 8.532s-3.828 8.532-8.532 8.532zm200.92 280.048c0 2.927-.318 5.78-.91 8.532h-304.22c-4.142 0-7.5 3.358-7.5 7.5s3.358 7.5 7.5 7.5h297.582c-7.368 10.319-19.431 17.065-33.049 17.065h-304.613c-13.617 0-25.681-6.746-33.049-17.064h41.067c4.142 0 7.5-3.358 7.5-7.5s-3.358-7.5-7.5-7.5h-47.705c-.591-2.753-.91-5.605-.91-8.532v-144.291c0-22.385 18.211-40.597 40.597-40.597h208.417c4.142 0 7.5-3.358 7.5-7.5s-3.358-7.5-7.5-7.5h-161.404c5.366-6.754 8.584-15.288 8.584-24.564 0-4.705 3.828-8.532 8.532-8.532h176.355c4.705 0 8.532 3.828 8.532 8.532 0 9.276 3.218 17.811 8.584 24.564h-17.116c-4.142 0-7.5 3.358-7.5 7.5s3.358 7.5 7.5 7.5h64.129c22.385 0 40.597 18.211 40.597 40.597zm11.242-164.345c-3.602-9.277-9.621-17.352-17.285-23.452l12.712-13.122h33.451z"/></svg>