<?xml version="1.0" encoding="UTF-8" standalone="no"?>
<!-- Created with Inkscape (http://www.inkscape.org/) -->

<svg
   version="1.1"
   id="svg3708"
   xml:space="preserve"
   width="682.66669"
   height="682.66669"
   viewBox="0 0 682.66669 682.66669"
   xmlns="http://www.w3.org/2000/svg"
   xmlns:svg="http://www.w3.org/2000/svg"><defs
     id="defs3712"><clipPath
       clipPathUnits="userSpaceOnUse"
       id="clipPath3722"><path
         d="M 0,512 H 512 V 0 H 0 Z"
         id="path3720" /></clipPath></defs><g
     id="g3714"
     transform="matrix(1.3333333,0,0,-1.3333333,0,682.66667)"><g
       id="g3716"><g
         id="g3718"
         clip-path="url(#clipPath3722)"><g
           id="g3724"
           transform="translate(392.4238,376.5273)"><path
             d="m 0,0 c 0,-67.664 -61.079,-122.517 -136.424,-122.517 -75.345,0 -136.424,54.853 -136.424,122.517 0,67.665 61.079,122.517 136.424,122.517 C -61.079,122.517 0,67.665 0,0"
             style="fill:#b78e8e;fill-opacity:1;fill-rule:nonzero;stroke:none"
             id="path3726" /></g><g
           id="g3728"
           transform="translate(301.3467,492.1133)"><path
             d="m 0,0 c 31.142,-22.454 51.077,-56.929 51.077,-95.586 0,-67.664 -61.079,-122.517 -136.424,-122.517 -15.897,0 -31.159,2.442 -45.346,6.931 23.368,-16.849 53.046,-26.931 85.346,-26.931 75.345,0 136.424,54.853 136.424,122.517 C 91.077,-62.198 53.054,-16.786 0,0"
             style="fill:#aa8080;fill-opacity:1;fill-rule:nonzero;stroke:none"
             id="path3730" /></g><g
           id="g3732"
           transform="translate(327.6914,307.7915)"><path
             d="m 0,0 c 0,-28.97 -32.098,-53.781 -71.691,-53.781 -39.594,0 -71.692,24.811 -71.692,53.781 0,28.971 32.098,47.123 71.692,47.123 C -32.098,47.123 0,28.971 0,0"
             style="fill:#f4ddb1;fill-opacity:1;fill-rule:nonzero;stroke:none"
             id="path3734" /></g><g
           id="g3736"
           transform="translate(290.4619,349.7251)"><path
             d="m 0,0 c 4.63,-6.323 7.229,-13.69 7.229,-21.934 0,-28.97 -32.097,-53.78 -71.691,-53.78 -10.896,0 -21.225,1.879 -30.473,5.207 12.731,-14.985 35.057,-25.207 60.473,-25.207 39.594,0 71.691,24.81 71.691,53.78 C 37.229,-22.103 22.189,-7.34 0,0"
             style="fill:#f1d59d;fill-opacity:1;fill-rule:nonzero;stroke:none"
             id="path3738" /></g><g
           id="g3740"
           transform="translate(276.0332,317.2446)"><path
             d="m 0,0 c 0,-6.997 -8.97,-18.309 -20.033,-18.309 -11.064,0 -20.033,11.312 -20.033,18.309 0,6.998 8.969,12.67 20.033,12.67 C -8.97,12.67 0,6.998 0,0"
             style="fill:#617881;fill-opacity:1;fill-rule:nonzero;stroke:none"
             id="path3742" /></g><g
           id="g3744"
           transform="translate(131.2334,426.1562)"><path
             d="M 0,0 C 8.145,16.49 20.225,31.065 35.169,42.763 33.31,62.721 16.516,78.344 -3.929,78.344 c -21.687,0 -39.268,-17.581 -39.268,-39.269 0,-21.688 17.581,-39.269 39.268,-39.269 1.326,0 2.637,0.066 3.929,0.194"
             style="fill:#b78e8e;fill-opacity:1;fill-rule:nonzero;stroke:none"
             id="path3746" /></g><g
           id="g3748"
           transform="translate(127.3047,504.5)"><path
             d="m 0,0 c -1.226,0 -2.438,-0.057 -3.636,-0.167 3.199,-2.9 5.918,-6.32 8.024,-10.127 4.142,-7.491 2.36,-16.81 -3.905,-22.643 -11.004,-10.249 -20.039,-22.214 -26.555,-35.407 -0.098,-0.009 -0.196,-0.018 -0.293,-0.027 6.969,-6.317 16.218,-10.167 26.365,-10.167 1.326,0 2.637,0.066 3.928,0.194 8.145,16.49 20.225,31.065 35.17,42.763 C 37.238,-15.623 20.444,0 0,0"
             style="fill:#aa8080;fill-opacity:1;fill-rule:nonzero;stroke:none"
             id="path3750" /></g><g
           id="g3752"
           transform="translate(384.6953,504.5)"><path
             d="m 0,0 c -20.443,0 -37.238,-15.623 -39.098,-35.581 14.945,-11.698 27.025,-26.273 35.17,-42.763 1.292,-0.128 2.602,-0.194 3.928,-0.194 21.687,0 39.269,17.581 39.269,39.269 C 39.269,-17.581 21.687,0 0,0"
             style="fill:#b78e8e;fill-opacity:1;fill-rule:nonzero;stroke:none"
             id="path3754" /></g><g
           id="g3756"
           transform="translate(384.6953,504.5)"><path
             d="m 0,0 c -1.226,0 -2.438,-0.057 -3.635,-0.167 7.926,-7.185 12.904,-17.562 12.904,-29.102 0,-15.26 -8.705,-28.486 -21.418,-34.986 3.065,-4.513 5.815,-9.217 8.221,-14.089 1.291,-0.128 2.602,-0.194 3.928,-0.194 21.687,0 39.269,17.581 39.269,39.269 C 39.269,-17.581 21.687,0 0,0"
             style="fill:#aa8080;fill-opacity:1;fill-rule:nonzero;stroke:none"
             id="path3758" /></g><g
           id="g3760"
           transform="translate(392.6191,473.1548)"><path
             d="m 0,0 c -5.46,5.459 -14.312,5.459 -19.771,0 l -15.056,-15.056 c 6.688,-6.727 12.563,-14.122 17.483,-22.058 L 0,-19.771 C 5.46,-14.311 5.46,-5.459 0,0"
             style="fill:#f4ddb1;fill-opacity:1;fill-rule:nonzero;stroke:none"
             id="path3762" /></g><g
           id="g3764"
           transform="translate(372.5459,440.2446)"><path
             d="M 0,0 C 0.036,-0.054 0.072,-0.108 0.108,-0.162 0.238,-0.353 0.367,-0.544 0.495,-0.736 0.55,-0.818 0.604,-0.9 0.659,-0.983 0.786,-1.173 0.912,-1.364 1.038,-1.555 1.092,-1.638 1.146,-1.72 1.2,-1.802 1.331,-2.003 1.462,-2.204 1.591,-2.405 1.636,-2.475 1.681,-2.543 1.726,-2.613 2.064,-3.141 2.399,-3.671 2.729,-4.204 L 20.073,13.139 C 25.1,18.166 25.498,26.067 21.27,31.55 20.073,17.758 11.749,6.006 0,0"
             style="fill:#f1d59d;fill-opacity:1;fill-rule:nonzero;stroke:none"
             id="path3766" /></g><g
           id="g3768"
           transform="translate(119.3809,473.1548)"><path
             d="M 0,0 C 5.46,5.46 14.312,5.46 19.771,0 L 34.827,-15.056 C 28.139,-21.783 22.265,-29.178 17.344,-37.114 L 0,-19.771 C -5.459,-14.311 -5.459,-5.459 0,0"
             style="fill:#f4ddb1;fill-opacity:1;fill-rule:nonzero;stroke:none"
             id="path3770" /></g><g
           id="g3772"
           transform="translate(123.6689,504.3335)"><path
             d="m 0,0 c 3.199,-2.9 5.918,-6.32 8.023,-10.127 4.143,-7.491 2.361,-16.81 -3.904,-22.644 -11.005,-10.248 -20.039,-22.214 -26.556,-35.406"
             style="fill:#b78e8e;fill-opacity:1;fill-rule:nonzero;stroke:none"
             id="path3774" /></g><g
           id="g3776"
           transform="translate(119.3809,473.1548)"><path
             d="M 0,0 C 5.46,5.46 14.312,5.46 19.771,0 L 34.827,-15.056 C 28.139,-21.783 22.265,-29.178 17.344,-37.114 L 0,-19.771 C -5.459,-14.311 -5.459,-5.459 0,0"
             style="fill:#f4ddb1;fill-opacity:1;fill-rule:nonzero;stroke:none"
             id="path3778" /></g><g
           id="g3780"
           transform="translate(131.8828,477.0034)"><path
             d="m 0,0 c -1.013,-2 -2.387,-3.85 -4.095,-5.44 -4.245,-3.954 -8.197,-8.164 -11.825,-12.601 0.658,-2.04 1.798,-3.959 3.418,-5.579 L 4.842,-40.963 c 4.887,7.884 10.756,15.29 17.483,22.058 L 7.27,-3.849 C 5.208,-1.787 2.663,-0.505 0,0"
             style="fill:#f1d59d;fill-opacity:1;fill-rule:nonzero;stroke:none"
             id="path3782" /></g><g
           id="g3784"
           transform="translate(160.7686,118.6094)"><path
             d="M 0,0 H -33.295 C -68.882,0 -97.73,-28.85 -97.73,-64.437 v -6.445 c 0,-22.217 18.009,-40.227 40.226,-40.227 h 81.713 c 22.217,0 40.227,18.01 40.227,40.227 v 6.445 C 64.436,-28.85 35.587,0 0,0"
             style="fill:#f4ddb1;fill-opacity:1;fill-rule:nonzero;stroke:none"
             id="path3786" /></g><g
           id="g3788"
           transform="translate(351.2314,118.6094)"><path
             d="M 0,0 H 33.295 C 68.882,0 97.73,-28.85 97.73,-64.437 v -6.445 c 0,-22.217 -18.009,-40.227 -40.226,-40.227 h -81.713 c -22.217,0 -40.227,18.01 -40.227,40.227 v 6.445 C -64.436,-28.85 -35.587,0 0,0"
             style="fill:#f4ddb1;fill-opacity:1;fill-rule:nonzero;stroke:none"
             id="path3790" /></g><g
           id="g3792"
           transform="translate(167.7881,118.231)"><path
             d="m 0,0 c 10.802,-11.523 17.417,-27.018 17.417,-44.058 v -6.446 c 0,-22.217 -18.011,-40.227 -40.228,-40.227 h -76.491 c 6.971,-11.961 19.936,-20 34.779,-20 h 81.712 c 22.217,0 40.228,18.01 40.228,40.227 v 6.446 C 57.417,-30.843 32.285,-3.498 0,0"
             style="fill:#f1d59d;fill-opacity:1;fill-rule:nonzero;stroke:none"
             id="path3794" /></g><g
           id="g3796"
           transform="translate(391.5459,118.231)"><path
             d="m 0,0 c 10.802,-11.523 17.417,-27.018 17.417,-44.058 v -6.446 c 0,-22.217 -18.011,-40.227 -40.228,-40.227 h -76.491 c 6.971,-11.961 19.936,-20 34.779,-20 h 81.712 c 22.217,0 40.228,18.01 40.228,40.227 v 6.446 C 57.417,-30.843 32.285,-3.498 0,0"
             style="fill:#f1d59d;fill-opacity:1;fill-rule:nonzero;stroke:none"
             id="path3798" /></g><g
           id="g3800"
           transform="translate(443.166,133.1025)"><path
             d="m 0,0 -5.897,22.011 c -15.069,56.235 -57.633,99.346 -110.889,116.439 -20.548,-11.135 -44.631,-17.542 -70.38,-17.542 -25.749,0 -49.831,6.407 -70.38,17.542 -53.256,-17.093 -95.82,-60.204 -110.888,-116.439 L -374.332,0 c -4.049,-15.11 -1.498,-30.104 5.607,-42.319 11.629,16.812 31.044,27.826 53.034,27.826 h 33.294 c 35.586,0 64.436,-28.85 64.436,-64.437 v -6.445 c 0,-6.513 -1.549,-12.663 -4.295,-18.104 h 70.181 c -2.747,5.441 -4.295,11.591 -4.295,18.104 v 6.445 c 0,35.587 28.849,64.437 64.436,64.437 h 33.294 c 21.989,0 41.405,-11.014 53.033,-27.826 C 1.498,-30.104 4.049,-15.11 0,0"
             style="fill:#b78e8e;fill-opacity:1;fill-rule:nonzero;stroke:none"
             id="path3802" /></g><g
           id="g3804"
           transform="translate(443.166,133.1025)"><path
             d="m 0,0 -5.898,22.011 c -14.776,55.147 -55.995,97.672 -107.808,115.417 32.477,-22.079 57.094,-55.43 67.808,-95.417 L -40,20 c 0.04,-0.151 0.08,-0.302 0.119,-0.453 4.266,-16.45 -13.316,-29.738 -28.283,-21.689 -9.074,4.88 -19.451,7.649 -30.477,7.649 h -33.293 c -35.587,0 -64.437,-28.85 -64.437,-64.437 v -6.445 c 0,-0.066 0.001,-0.131 0.001,-0.196 0.047,-9.835 -7.72,-17.908 -17.555,-17.908 h -4.036 v -1.896 c 0,-6.513 -1.549,-12.663 -4.295,-18.104 h 70.18 c -2.746,5.441 -4.295,11.591 -4.295,18.104 v 6.445 c 0,35.587 28.85,64.437 64.437,64.437 h 33.293 c 21.989,0 41.405,-11.014 53.034,-27.826 C 1.498,-30.104 4.049,-15.11 0,0"
             style="fill:#aa8080;fill-opacity:1;fill-rule:nonzero;stroke:none"
             id="path3806" /></g><g
           id="g3808"
           transform="translate(121.7217,398.2881)"><path
             d="m 0,0 c 11.434,57.283 67.203,100.756 134.278,100.756 75.345,0 136.424,-54.852 136.424,-122.517 0,-67.664 -61.079,-122.516 -136.424,-122.516 -70.247,0 -128.093,47.681 -135.599,108.972"
             style="fill:none;stroke:#000000;stroke-width:15;stroke-linecap:round;stroke-linejoin:round;stroke-miterlimit:10;stroke-dasharray:none;stroke-opacity:1"
             id="path3810" /></g><g
           id="g3812"
           transform="translate(327.6914,307.7915)"><path
             d="m 0,0 c 0,-28.97 -32.098,-53.781 -71.691,-53.781 -39.594,0 -71.692,24.811 -71.692,53.781 0,28.971 32.098,47.123 71.692,47.123 C -32.098,47.123 0,28.971 0,0 Z"
             style="fill:none;stroke:#000000;stroke-width:15;stroke-linecap:round;stroke-linejoin:round;stroke-miterlimit:10;stroke-dasharray:none;stroke-opacity:1"
             id="path3814" /></g><g
           id="g3816"
           transform="translate(276.0332,317.2446)"><path
             d="m 0,0 c 0,-6.997 -8.97,-18.309 -20.033,-18.309 -11.064,0 -20.033,11.312 -20.033,18.309 0,6.998 8.969,12.67 20.033,12.67 C -8.97,12.67 0,6.998 0,0 Z"
             style="fill:none;stroke:#000000;stroke-width:15;stroke-linecap:round;stroke-linejoin:round;stroke-miterlimit:10;stroke-dasharray:none;stroke-opacity:1"
             id="path3818" /></g><g
           id="g3820"
           transform="translate(256,298.936)"><path
             d="M 0,0 V -44.925"
             style="fill:none;stroke:#000000;stroke-width:15;stroke-linecap:round;stroke-linejoin:round;stroke-miterlimit:10;stroke-dasharray:none;stroke-opacity:1"
             id="path3822" /></g><g
           id="g3824"
           transform="translate(175.5889,7.5)"><path
             d="m 0,0 h 9.389 c 22.216,0 40.226,18.01 40.226,40.227 v 6.446 c 0,35.587 -28.848,64.436 -64.435,64.436 h -33.295 c -35.587,0 -64.436,-28.849 -64.436,-64.436 V 40.227 C -112.551,18.01 -94.541,0 -72.324,0 H -35"
             style="fill:none;stroke:#000000;stroke-width:15;stroke-linecap:round;stroke-linejoin:round;stroke-miterlimit:10;stroke-dasharray:none;stroke-opacity:1"
             id="path3826" /></g><g
           id="g3828"
           transform="translate(351.2314,118.6094)"><path
             d="M 0,0 H 33.295 C 68.882,0 97.73,-28.85 97.73,-64.437 v -6.445 c 0,-22.217 -18.009,-40.227 -40.226,-40.227 h -81.713 c -22.217,0 -40.227,18.01 -40.227,40.227 v 6.445 C -64.436,-28.85 -35.587,0 0,0 Z"
             style="fill:none;stroke:#000000;stroke-width:15;stroke-linecap:round;stroke-linejoin:round;stroke-miterlimit:10;stroke-dasharray:none;stroke-opacity:1"
             id="path3830" /></g><g
           id="g3832"
           transform="translate(379.5264,118.6094)"><path
             d="m 0,0 -13.217,20.547 c -4.857,7.552 -8.233,15.96 -9.947,24.774 l -4.951,25.463"
             style="fill:none;stroke:#000000;stroke-width:15;stroke-linecap:round;stroke-linejoin:round;stroke-miterlimit:10;stroke-dasharray:none;stroke-opacity:1"
             id="path3834" /></g><g
           id="g3836"
           transform="translate(160.5889,189.3931)"><path
             d="m 0,0 -4.951,-25.462 c -1.714,-8.815 -5.09,-17.223 -9.947,-24.775 l -13.217,-20.547"
             style="fill:none;stroke:#000000;stroke-width:15;stroke-linecap:round;stroke-linejoin:round;stroke-miterlimit:10;stroke-dasharray:none;stroke-opacity:1"
             id="path3838" /></g><g
           id="g3840"
           transform="translate(210.0039,376.7197)"><path
             d="M 0,0 V 21.568"
             style="fill:none;stroke:#000000;stroke-width:15;stroke-linecap:round;stroke-linejoin:round;stroke-miterlimit:10;stroke-dasharray:none;stroke-opacity:1"
             id="path3842" /></g><g
           id="g3844"
           transform="translate(301.9961,376.7197)"><path
             d="M 0,0 V 21.568"
             style="fill:none;stroke:#000000;stroke-width:15;stroke-linecap:round;stroke-linejoin:round;stroke-miterlimit:10;stroke-dasharray:none;stroke-opacity:1"
             id="path3846" /></g><g
           id="g3848"
           transform="translate(318.0098,142.5801)"><path
             d="m 0,0 h -0.01 c -17.66,8.86 -37.309,13.59 -57.44,13.59 h -9.119 C -86.7,13.59 -106.35,8.86 -124.01,0"
             style="fill:none;stroke:#000000;stroke-width:15;stroke-linecap:round;stroke-linejoin:round;stroke-miterlimit:10;stroke-dasharray:none;stroke-opacity:1"
             id="path3850" /></g><g
           id="g3852"
           transform="translate(359.6035,256.7437)"><path
             d="M 0,0 C -10.446,6.09 -21.579,11.071 -33.224,14.809"
             style="fill:none;stroke:#000000;stroke-width:15;stroke-linecap:round;stroke-linejoin:round;stroke-miterlimit:10;stroke-dasharray:none;stroke-opacity:1"
             id="path3854" /></g><g
           id="g3856"
           transform="translate(437.5586,90.7837)"><path
             d="M 0,0 C 7.105,12.215 9.656,27.209 5.607,42.319 L -0.29,64.33 c -8.569,31.979 -26.029,59.713 -49.291,80.833"
             style="fill:none;stroke:#000000;stroke-width:15;stroke-linecap:round;stroke-linejoin:round;stroke-miterlimit:10;stroke-dasharray:none;stroke-opacity:1"
             id="path3858" /></g><g
           id="g3860"
           transform="translate(220.9102,29.6235)"><path
             d="M 0,0 H 70.181"
             style="fill:none;stroke:#000000;stroke-width:15;stroke-linecap:round;stroke-linejoin:round;stroke-miterlimit:10;stroke-dasharray:none;stroke-opacity:1"
             id="path3862" /></g><g
           id="g3864"
           transform="translate(185.6201,271.5522)"><path
             d="m 0,0 c -53.256,-17.093 -95.82,-60.204 -110.888,-116.438 l -5.898,-22.012 c -4.049,-15.11 -1.498,-30.103 5.607,-42.319"
             style="fill:none;stroke:#000000;stroke-width:15;stroke-linecap:round;stroke-linejoin:round;stroke-miterlimit:10;stroke-dasharray:none;stroke-opacity:1"
             id="path3866" /></g><g
           id="g3868"
           transform="translate(166.4023,468.9194)"><path
             d="m 0,0 c -1.859,19.958 -18.653,35.581 -39.098,35.581 -21.687,0 -39.268,-17.581 -39.268,-39.269 0,-21.688 17.581,-39.27 39.268,-39.27 1.327,0 2.637,0.067 3.929,0.195"
             style="fill:none;stroke:#000000;stroke-width:15;stroke-linecap:round;stroke-linejoin:round;stroke-miterlimit:10;stroke-dasharray:none;stroke-opacity:1"
             id="path3870" /></g><g
           id="g3872"
           transform="translate(380.7676,426.1562)"><path
             d="m 0,0 c 1.292,-0.128 2.602,-0.194 3.928,-0.194 21.687,0 39.268,17.581 39.268,39.269 0,21.688 -17.581,39.269 -39.268,39.269 -20.444,0 -37.239,-15.623 -39.098,-35.581"
             style="fill:none;stroke:#000000;stroke-width:15;stroke-linecap:round;stroke-linejoin:round;stroke-miterlimit:10;stroke-dasharray:none;stroke-opacity:1"
             id="path3874" /></g><g
           id="g3876"
           transform="translate(375.2754,436.0405)"><path
             d="m 0,0 17.344,17.343 c 5.46,5.46 5.46,14.312 0,19.771 -5.46,5.46 -14.312,5.46 -19.771,0 L -17.483,22.058"
             style="fill:none;stroke:#000000;stroke-width:15;stroke-linecap:round;stroke-linejoin:round;stroke-miterlimit:10;stroke-dasharray:none;stroke-opacity:1"
             id="path3878" /></g><g
           id="g3880"
           transform="translate(136.7246,436.0405)"><path
             d="m 0,0 -17.344,17.343 c -5.459,5.46 -5.459,14.312 0,19.771 5.46,5.46 14.312,5.46 19.772,0 L 17.483,22.058"
             style="fill:none;stroke:#000000;stroke-width:15;stroke-linecap:round;stroke-linejoin:round;stroke-miterlimit:10;stroke-dasharray:none;stroke-opacity:1"
             id="path3882" /></g></g></g></g></svg>
