<?xml version="1.0" encoding="UTF-8"?>
<svg xmlns="http://www.w3.org/2000/svg" xmlns:xlink="http://www.w3.org/1999/xlink" version="1.1" id="Capa_1" x="0px" y="0px" viewBox="0 0 512 512" style="enable-background:new 0 0 512 512;" xml:space="preserve" width="512" height="512">
<g>
	<g>
		<polygon style="fill:#D8ECFE;" points="320.225,442.5 298.725,439.596 289.57,442.5 243.88,442.5 231.514,439.979 213.225,442.5 &#10;&#9;&#9;&#9;213.225,412.5 241.343,416.489 256.23,412.5 277.22,412.5 293.811,416.617 320.225,412.5 &#9;&#9;"/>
		<polygon style="fill:#C5E1FF;" points="213.23,412.5 256.23,412.5 243.88,442.5 213.23,442.5 &#9;&#9;"/>
		<polygon style="fill:#C5E1FF;" points="320.23,412.5 320.23,442.5 289.57,442.5 277.22,412.5 &#9;&#9;"/>
		<path style="fill:#E8F6FF;" d="M192.037,504.5H179.73l-8.506-1.528c-2.135,0-3.587-2.168-2.774-4.142l69.319-164.33l15.447-5.883&#10;&#9;&#9;&#9;l13.509,5.883L198.51,500.165C197.43,502.788,194.874,504.5,192.037,504.5z"/>
		<path style="fill:#E8F6FF;" d="M343.178,502.654l9.552,1.846h12.516c2.135,0,3.587-2.168,2.774-4.142L299.725,334.5l-14.509-4.777&#10;&#9;&#9;&#9;l-14.632,4.777l66.121,163.819C337.785,500.942,340.341,502.654,343.178,502.654z"/>
		<path style="fill:#D8ECFE;" d="M250.23,334.5l-70.5,170H168.2c-2.13,0-3.58-2.17-2.77-4.14l68.3-165.86l8.422-3.84L250.23,334.5z"/>
		<path style="fill:#D8ECFE;" d="M352.73,504.5h-11.32c-2.83,0-5.39-1.71-6.47-4.33l-60.21-146.24l-8-19.43l8.273-4.777l7.727,4.777&#10;&#9;&#9;&#9;L352.73,504.5z"/>
		<path style="fill:#D8ECFE;" d="M138.129,154.243l-27.058,15.622c-1.435,0.828-3.27,0.337-4.098-1.098l-12.765-22.109&#10;&#9;&#9;&#9;c-0.828-1.435-0.337-3.27,1.098-4.098l27.058-15.622c1.435-0.828,3.27-0.337,4.098,1.098l12.765,22.109&#10;&#9;&#9;&#9;C140.056,151.579,139.564,153.414,138.129,154.243z"/>
		
			<rect x="164.532" y="131.875" transform="matrix(0.866 -0.5 0.5 0.866 -53.2643 113.3217)" style="fill:#D8ECFE;" width="40.594" height="48.358"/>
		
			<rect x="157.621" y="140.56" transform="matrix(0.866 -0.5 0.5 0.866 -59.6259 106.9694)" style="fill:#C5E1FF;" width="24.319" height="48.359"/>
		<path style="fill:#D8ECFE;" d="M72.398,206.52l-26.424,15.256l-24.791-42.94c-0.828-1.435-0.337-3.27,1.098-4.098l21.228-12.256&#10;&#9;&#9;&#9;c1.435-0.828,3.27-0.337,4.098,1.098L72.398,206.52z"/>
		<path style="fill:#E8F6FF;" d="M110.631,248.332l-45.15,26.067l-30.47-51.386c-0.828-1.435-0.337-3.27,1.098-4.098l18.098-12.109&#10;&#9;&#9;&#9;l21.738-12.551c1.435-0.828,3.27-0.337,4.098,1.098l16.977,29.407l1.897,10.063L110.631,248.332z"/>
		<rect x="250.225" y="253.5" style="fill:#C5E1FF;" width="33" height="59"/>
		<path style="fill:#8D9BA8;" d="M330.677,190.091l-145.632,85.334c-4.865,2.809-11.085,1.142-13.893-3.723l-34.49-56.66&#10;&#9;&#9;&#9;c-2.809-4.865-1.142-11.085,3.723-13.893l5.493-4.991l141.227-81.538l37.174,42.507L330.677,190.091z"/>
		<path style="fill:#E8F6FF;" d="M176.839,84.33l-58.133,33.563c-2.432,1.404-3.266,4.514-1.861,6.947l20.341,35.232&#10;&#9;&#9;&#9;c1.404,2.432,4.514,3.266,6.947,1.861l58.133-33.563c2.432-1.404,3.266-4.514,1.861-6.947l-20.341-35.232&#10;&#9;&#9;&#9;C182.382,83.759,179.271,82.925,176.839,84.33z"/>
		<path style="fill:#D8ECFE;" d="M97.021,224.76l-20.873,12.051c-1.913,1.105-4.36,0.449-5.464-1.464L54.21,206.81l-20.63,11.91&#10;&#9;&#9;&#9;c-1.44,0.82-1.93,2.66-1.1,4.09l16.981,29.41l-0.001,0l13.61,23.57l47.56-27.46L97.021,224.76z"/>
		<path style="fill:#8D9BA8;" d="M89.321,306.59l72.528-42.774l-2.251-21.497l-19.385-19.402l-88.094,50.862l-0.265,2.497&#10;&#9;&#9;&#9;c0,0-3.292,5.221-0.483,10.085l5.844,10.122c1.155,2,2.956,3.548,5.107,4.388l18.213,6.383&#10;&#9;&#9;&#9;C83.413,308.38,86.646,308.135,89.321,306.59z"/>
		<path style="fill:#7A8C98;" d="M164.16,267.81l-75.04,43.33c-2.68,1.54-5.91,1.79-8.79,0.66l-22.45-8.77&#10;&#9;&#9;&#9;c-2.15-0.84-3.95-2.39-5.11-4.39l-5.84-10.12c-2.81-4.86-1.14-11.09,3.72-13.89l1.469-0.851L82.65,285.71&#10;&#9;&#9;&#9;c1.41,0.55,3,0.43,4.32-0.33l65.5-37.82l17.597,5.568L164.16,267.81z"/>
		<path style="fill:#D8ECFE;" d="M301.725,334.5H250.23l-16.865-1.372c-5.523,0-10-4.477-10-10v-7.511c0-5.523,4.477-10,10-10&#10;&#9;&#9;&#9;l16.865-1.117h51.495c5.523,0,10,4.477,10,10v10C311.725,330.023,307.248,334.5,301.725,334.5z"/>
		<path style="fill:#C5E1FF;" d="M250.23,304.5v30h-18.5c-5.53,0-10-4.48-10-10v-10c0-5.52,4.47-10,10-10H250.23z"/>
		<path style="fill:#7A8C98;" d="M277.363,225.938l55.507-32.048l1.282-11.262l-11.282-6.058l-19.263,11.122&#10;&#9;&#9;&#9;c-1.698,0.98-3.798,0.859-5.403-0.265c-8.924-6.252-19.779-9.927-31.474-9.927c-30.33,0-55,24.67-55,55&#10;&#9;&#9;&#9;c0,1.606,0.072,3.195,0.209,4.765c0.17,1.943-0.782,3.808-2.471,4.783L185.98,255.61c-2.391,1.381-5.449,0.562-6.83-1.83&#10;&#9;&#9;&#9;l-33.27-57.62l-8.51,4.91c-4.87,2.81-6.53,9.03-3.72,13.89l35.59,61.66c2.81,4.87,9.03,6.53,13.9,3.72l35.788-20.663&#10;&#9;&#9;&#9;c0.001,0.001,0.001,0.002,0.002,0.003L277.363,225.938z"/>
		<path style="fill:#E8F6FF;" d="M301.725,232.5c0-19.33-15.67-35-35-35c-4.776,0-9.328,0.957-13.476,2.688&#10;&#9;&#9;&#9;c0,0-8.602,6.31-12.289,11.067c-4.588,5.92-4.981,12.696-4.981,20.766c0,19.33,11.415,33.021,30.745,33.021&#10;&#9;&#9;&#9;c7.684,0,14.25-1.93,20.023-6.128c4.625-3.363,11.46-11.106,11.46-11.106C300.461,243.185,301.725,237.99,301.725,232.5z"/>
		<path style="fill:#D8ECFE;" d="M298.21,247.81c-5.68,11.66-17.64,19.69-31.48,19.69c-19.33,0-35-15.67-35-35&#10;&#9;&#9;&#9;c0-14.55,8.879-27.032,21.519-32.312c-2.26,4.63-3.519,9.822-3.519,15.312c0,19.33,15.67,35,35,35&#10;&#9;&#9;&#9;C289.51,250.5,294.06,249.54,298.21,247.81z"/>
		<path style="fill:#E8F6FF;" d="M366.926,191.849l-16.094,6.83c-4.865,2.809-11.085,1.142-13.893-3.723l-14.101-18.446&#10;&#9;&#9;&#9;l-38.275-66.295c-2.809-4.865-1.142-11.085,3.723-13.893l17.616-10.171l36.675,45.988L366.926,191.849z"/>
		<path style="fill:#D8ECFE;" d="M366.93,191.85l-17.62,10.17c-4.86,2.81-11.08,1.14-13.89-3.72l-2.55-4.41l-10.03-17.38&#10;&#9;&#9;&#9;l26.779-14.639l20.405,9.768L366.93,191.85z"/>
		<path style="fill:#FEDF30;" d="M488.479,66.91C488.479,66.91,488.479,66.91,488.479,66.91c-1.374-4.492-3.263-8.862-5.664-13.021&#10;&#9;&#9;&#9;l0,0C471.6,34.436,451.052,22.849,428.1,22.37l13.542,51.609l41.238,42.781C491.05,101.95,493.685,84.166,488.479,66.91z"/>
		<path style="fill:#9FABBA;" d="M477.738,123.018l-6.717-27.519L423.15,12.587c-2.809-4.865-9.029-6.531-13.894-3.723L315.59,62.94&#10;&#9;&#9;&#9;l-8.51,4.91c-4.86,2.81-6.53,9.03-3.72,13.9l46.26,80.12l20.405,21.953c2.81,4.87,9.03,6.53,13.89,3.73l90.104-50.635&#10;&#9;&#9;&#9;C478.878,134.108,480.548,127.888,477.738,123.018z"/>
		<path style="fill:#8D9BA8;" d="M485.54,140.99l-102.18,58.99c-4.86,2.8-11.08,1.14-13.89-3.73l-2.54-4.4l-17.31-29.98l121.4-66.37&#10;&#9;&#9;&#9;l2.16,3.74l16.08,27.85C492.07,131.96,490.4,138.18,485.54,140.99z"/>
	</g>
	<g>
		<g>
			<path style="fill:none;stroke:#000000;stroke-width:15;stroke-linecap:round;stroke-linejoin:round;stroke-miterlimit:10;" d="&#10;&#9;&#9;&#9;&#9;M361.621,36.684l48.185-27.82c4.865-2.809,11.085-1.142,13.893,3.723l66.11,114.505c2.809,4.865,1.142,11.085-3.723,13.893&#10;&#9;&#9;&#9;&#9;l-37.355,21.567"/>
			<path style="fill:none;stroke:#000000;stroke-width:15;stroke-linecap:round;stroke-linejoin:round;stroke-miterlimit:10;" d="&#10;&#9;&#9;&#9;&#9;M418.454,180.034l-34.541,19.942c-4.865,2.809-11.085,1.142-13.893-3.723L303.91,81.748c-2.809-4.865-1.142-11.085,3.723-13.893&#10;&#9;&#9;&#9;&#9;l23.473-13.552"/>
			<path style="fill:none;stroke:#000000;stroke-width:15;stroke-linecap:round;stroke-linejoin:round;stroke-miterlimit:10;" d="&#10;&#9;&#9;&#9;&#9;M236.685,249.746l-52.998,30.598c-4.865,2.809-11.085,1.142-13.893-3.723l-35.597-61.657c-2.809-4.865-1.142-11.085,3.723-13.893&#10;&#9;&#9;&#9;&#9;l149.738-86.451"/>
			
				<line style="fill:none;stroke:#000000;stroke-width:15;stroke-linecap:round;stroke-linejoin:round;stroke-miterlimit:10;" x1="333.424" y1="193.893" x2="297.582" y2="214.587"/>
			<path style="fill:none;stroke:#000000;stroke-width:15;stroke-linecap:round;stroke-linejoin:round;stroke-miterlimit:10;" d="&#10;&#9;&#9;&#9;&#9;M367.477,191.849L349.86,202.02c-4.865,2.809-11.085,1.142-13.893-3.723l-23.007-39.85l-27.846-48.231&#10;&#9;&#9;&#9;&#9;c-2.809-4.865-1.142-11.085,3.723-13.893l17.616-10.171"/>
			<path style="fill:none;stroke:#000000;stroke-width:15;stroke-linecap:round;stroke-linejoin:round;stroke-miterlimit:10;" d="&#10;&#9;&#9;&#9;&#9;M177.389,84.33l-58.133,33.563c-2.432,1.404-3.266,4.514-1.861,6.947l20.341,35.232c1.404,2.432,4.514,3.266,6.947,1.861&#10;&#9;&#9;&#9;&#9;l58.133-33.563c2.432-1.404,3.266-4.514,1.861-6.947l-20.341-35.232C182.932,83.759,179.822,82.925,177.389,84.33z"/>
			
				<line style="fill:none;stroke:#000000;stroke-width:15;stroke-linecap:round;stroke-linejoin:round;stroke-miterlimit:10;" x1="139.663" y1="282.273" x2="164.708" y2="267.813"/>
			<path style="fill:none;stroke:#000000;stroke-width:15;stroke-linecap:round;stroke-linejoin:round;stroke-miterlimit:10;" d="&#10;&#9;&#9;&#9;&#9;M139.281,223.773L51.2,274.626c-4.865,2.809-6.531,9.029-3.723,13.893l5.844,10.122c1.155,2,2.956,3.548,5.107,4.388&#10;&#9;&#9;&#9;&#9;l22.453,8.772c2.878,1.124,6.111,0.88,8.787-0.665l19.634-11.336"/>
			
				<polyline style="fill:none;stroke:#000000;stroke-width:15;stroke-linecap:round;stroke-linejoin:round;stroke-miterlimit:10;" points="&#10;&#9;&#9;&#9;&#9;60.008,269.541 31.53,220.216 79.094,192.755 107.572,242.08 &#9;&#9;&#9;"/>
			
				<polyline style="fill:none;stroke:#000000;stroke-width:15;stroke-linecap:round;stroke-linejoin:round;stroke-miterlimit:10;" points="&#10;&#9;&#9;&#9;&#9;42.1,214.113 20.233,176.238 46.657,160.982 68.524,198.857 &#9;&#9;&#9;"/>
			
				<polyline style="fill:none;stroke:#000000;stroke-width:15;stroke-linecap:round;stroke-linejoin:round;stroke-miterlimit:10;" points="&#10;&#9;&#9;&#9;&#9;135.447,156.109 109.023,171.365 93.259,144.06 119.683,128.803 &#9;&#9;&#9;"/>
			
				<line style="fill:none;stroke:#000000;stroke-width:15;stroke-linecap:round;stroke-linejoin:round;stroke-miterlimit:10;" x1="167.426" y1="184.035" x2="152.169" y2="157.611"/>
			
				<line style="fill:none;stroke:#000000;stroke-width:15;stroke-linecap:round;stroke-linejoin:round;stroke-miterlimit:10;" x1="195.329" y1="132.693" x2="210.585" y2="159.117"/>
			<path style="fill:none;stroke:#000000;stroke-width:15;stroke-linecap:round;stroke-linejoin:round;stroke-miterlimit:10;" d="&#10;&#9;&#9;&#9;&#9;M429.988,22.462l3.101,0.2c20.925,1.35,39.791,13.068,50.275,31.227l0,0c10.484,18.159,11.199,40.357,1.905,59.153l-1.377,2.786"/>
		</g>
		<path style="fill:none;stroke:#000000;stroke-width:15;stroke-linecap:round;stroke-linejoin:round;stroke-miterlimit:10;" d="&#10;&#9;&#9;&#9;M302.275,334.5h-70c-5.523,0-10-4.477-10-10v-10c0-5.523,4.477-10,10-10h70c5.523,0,10,4.477,10,10v10&#10;&#9;&#9;&#9;C312.275,330.023,307.798,334.5,302.275,334.5z"/>
		
			<line style="fill:none;stroke:#000000;stroke-width:15;stroke-linecap:round;stroke-linejoin:round;stroke-miterlimit:10;" x1="311.275" y1="442.5" x2="223.275" y2="442.5"/>
		
			<line style="fill:none;stroke:#000000;stroke-width:15;stroke-linecap:round;stroke-linejoin:round;stroke-miterlimit:10;" x1="235.255" y1="412.5" x2="299.255" y2="412.5"/>
		<g>
			
				<polyline style="fill:none;stroke:#000000;stroke-width:15;stroke-linecap:round;stroke-linejoin:round;stroke-miterlimit:10;" points="&#10;&#9;&#9;&#9;&#9;267.275,334.5 197.275,504.5 164.275,504.5 234.275,334.5 &#9;&#9;&#9;"/>
			
				<line style="fill:none;stroke:#000000;stroke-width:15;stroke-linecap:round;stroke-linejoin:round;stroke-miterlimit:10;" x1="326.082" y1="397.173" x2="300.275" y2="334.5"/>
			
				<polyline style="fill:none;stroke:#000000;stroke-width:15;stroke-linecap:round;stroke-linejoin:round;stroke-miterlimit:10;" points="&#10;&#9;&#9;&#9;&#9;267.275,334.5 337.275,504.5 370.275,504.5 339.537,429.85 &#9;&#9;&#9;"/>
		</g>
		
			<line style="fill:none;stroke:#000000;stroke-width:15;stroke-linecap:round;stroke-linejoin:round;stroke-miterlimit:10;" x1="283.775" y1="263.527" x2="283.775" y2="304.5"/>
		
			<line style="fill:none;stroke:#000000;stroke-width:15;stroke-linecap:round;stroke-linejoin:round;stroke-miterlimit:10;" x1="250.775" y1="304.5" x2="250.775" y2="263.527"/>
		
			<circle style="fill:none;stroke:#000000;stroke-width:15;stroke-linecap:round;stroke-linejoin:round;stroke-miterlimit:10;" cx="267.275" cy="232.5" r="35"/>
	</g>
</g>















</svg>
