<?xml version="1.0" encoding="UTF-8" standalone="no"?>
<!-- Created with Inkscape (http://www.inkscape.org/) -->

<svg
   version="1.1"
   id="svg177"
   xml:space="preserve"
   width="682.66669"
   height="682.66669"
   viewBox="0 0 682.66669 682.66669"
   xmlns="http://www.w3.org/2000/svg"
   xmlns:svg="http://www.w3.org/2000/svg"><defs
     id="defs181"><clipPath
       clipPathUnits="userSpaceOnUse"
       id="clipPath191"><path
         d="M 0,512 H 512 V 0 H 0 Z"
         id="path189" /></clipPath></defs><g
     id="g183"
     transform="matrix(1.3333333,0,0,-1.3333333,0,682.66667)"><g
       id="g185"><g
         id="g187"
         clip-path="url(#clipPath191)"><g
           id="g193"
           transform="translate(354,462.5)"><path
             d="m 0,0 h -196 c -2.209,0 -4,1.791 -4,4 v 34 c 0,2.209 1.791,4 4,4 H 0 c 2.209,0 4,-1.791 4,-4 V 4 C 4,1.791 2.209,0 0,0"
             style="fill:#fd8087;fill-opacity:1;fill-rule:nonzero;stroke:none"
             id="path195" /></g><g
           id="g197"
           transform="translate(354,504.5)"><path
             d="m 0,0 h -30 c 2.209,0 4,-1.791 4,-4 v -34 c 0,-2.209 -1.791,-4 -4,-4 H 0 c 2.209,0 4,1.791 4,4 V -4 C 4,-1.791 2.209,0 0,0"
             style="fill:#fe646f;fill-opacity:1;fill-rule:nonzero;stroke:none"
             id="path199" /></g><g
           id="g201"
           transform="translate(336.2885,7.5)"><path
             d="m 0,0 h -160.577 c -9.229,0 -16.711,7.482 -16.711,16.712 V 455 h 194 V 16.712 C 16.712,7.482 9.23,0 0,0"
             style="fill:#d4f2f6;fill-opacity:1;fill-rule:nonzero;stroke:none"
             id="path203" /></g><g
           id="g205"
           transform="translate(323,462.5)"><path
             d="M 0,0 V -438.288 C 0,-447.518 -7.482,-455 -16.712,-455 h 30 c 9.23,0 16.712,7.482 16.712,16.712 V 0 Z"
             style="fill:#a6e7f0;fill-opacity:1;fill-rule:nonzero;stroke:none"
             id="path207" /></g><g
           id="g209"
           transform="translate(325,371.662)"><path
             d="m 0,0 c 0,-38.108 -30.892,-69 -69,-69 -38.108,0 -69,30.892 -69,69 0,38.108 30.892,69 69,69 C -30.892,69 0,38.108 0,0"
             style="fill:#ade194;fill-opacity:1;fill-rule:nonzero;stroke:none"
             id="path211" /></g><g
           id="g213"
           transform="translate(256,440.662)"><path
             d="M 0,0 C -5.154,0 -10.169,-0.583 -15,-1.654 15.892,-8.506 39,-36.046 39,-69 c 0,-32.954 -23.108,-60.494 -54,-67.346 4.831,-1.071 9.846,-1.654 15,-1.654 38.108,0 69,30.892 69,69 C 69,-30.892 38.108,0 0,0"
             style="fill:#97da7b;fill-opacity:1;fill-rule:nonzero;stroke:none"
             id="path215" /></g><g
           id="g217"
           transform="translate(304.7904,282.4523)"><path
             d="m 0,0 c 26.946,-26.946 26.946,-70.635 0,-97.581 -26.946,-26.946 -70.635,-26.946 -97.581,0 -26.946,26.946 -26.946,70.635 0,97.581 C -70.635,26.946 -26.946,26.946 0,0"
             style="fill:#ade194;fill-opacity:1;fill-rule:nonzero;stroke:none"
             id="path219" /></g><g
           id="g221"
           transform="translate(304.7903,282.4523)"><path
             d="M 0,0 C -17.313,17.313 -41.535,23.483 -63.79,18.548 -51.408,15.802 -39.633,9.633 -30,0 c 26.946,-26.946 26.946,-70.635 0,-97.581 -9.633,-9.632 -21.408,-15.802 -33.79,-18.548 22.255,-4.935 46.477,1.235 63.79,18.548 C 26.946,-70.635 26.946,-26.946 0,0"
             style="fill:#97da7b;fill-opacity:1;fill-rule:nonzero;stroke:none"
             id="path223" /></g><g
           id="g225"
           transform="translate(320.4837,120.1964)"><path
             d="m 0,0 c 13.56,-35.613 -4.317,-75.476 -39.931,-89.037 -35.613,-13.56 -75.476,4.317 -89.036,39.931 -13.561,35.613 4.317,75.476 39.93,89.037 C -53.423,53.491 -13.56,35.613 0,0"
             style="fill:#ade194;fill-opacity:1;fill-rule:nonzero;stroke:none"
             id="path227" /></g><g
           id="g229"
           transform="translate(320.4837,120.1964)"><path
             d="M 0,0 C -12.359,32.458 -46.565,50.171 -79.49,42.792 -57.633,37.904 -38.566,22.498 -30,0 c 13.56,-35.613 -4.317,-75.477 -39.931,-89.037 -3.155,-1.201 -6.345,-2.144 -9.546,-2.861 12.742,-2.85 26.431,-2.133 39.546,2.861 C -4.317,-75.477 13.56,-35.613 0,0"
             style="fill:#97da7b;fill-opacity:1;fill-rule:nonzero;stroke:none"
             id="path231" /></g><g
           id="g233"
           transform="translate(223.5429,504.5)"><path
             d="m 0,0 h 130.457 c 2.209,0 4,-1.791 4,-4 v -34 c 0,-2.209 -1.791,-4 -4,-4 h -196 c -2.209,0 -4,1.791 -4,4 v 34 c 0,2.209 1.791,4 4,4 h 29"
             style="fill:none;stroke:#000000;stroke-width:15;stroke-linecap:round;stroke-linejoin:round;stroke-miterlimit:10;stroke-dasharray:none;stroke-opacity:1"
             id="path235" /></g><g
           id="g237"
           transform="translate(353,151.0128)"><path
             d="m 0,0 v -126.801 c 0,-9.23 -7.482,-16.712 -16.712,-16.712 h -160.576 c -9.23,0 -16.712,7.482 -16.712,16.712 V 311.487 H 0 V 36.865"
             style="fill:none;stroke:#000000;stroke-width:15;stroke-linecap:round;stroke-linejoin:round;stroke-miterlimit:10;stroke-dasharray:none;stroke-opacity:1"
             id="path239" /></g><g
           id="g241"
           transform="translate(325,371.662)"><path
             d="m 0,0 c 0,-38.108 -30.892,-69 -69,-69 -38.108,0 -69,30.892 -69,69 0,38.108 30.892,69 69,69 C -30.892,69 0,38.108 0,0 Z"
             style="fill:none;stroke:#000000;stroke-width:15;stroke-linecap:round;stroke-linejoin:round;stroke-miterlimit:10;stroke-dasharray:none;stroke-opacity:1"
             id="path243" /></g><g
           id="g245"
           transform="translate(205.7312,418.037)"><path
             d="m 0,0 c 11.137,-4.81 27.843,-9.51 50.549,-9.51 22.333,0 38.842,4.55 49.979,9.28 h 0.01"
             style="fill:none;stroke:#000000;stroke-width:15;stroke-linecap:round;stroke-linejoin:round;stroke-miterlimit:10;stroke-dasharray:none;stroke-opacity:1"
             id="path247" /></g><g
           id="g249"
           transform="translate(205.7115,325.287)"><path
             d="m 0,0 c 11.137,4.82 27.843,9.53 50.568,9.53 22.353,0 38.872,-4.56 50.009,-9.3"
             style="fill:none;stroke:#000000;stroke-width:15;stroke-linecap:round;stroke-linejoin:round;stroke-miterlimit:10;stroke-dasharray:none;stroke-opacity:1"
             id="path251" /></g><g
           id="g253"
           transform="translate(304.7904,282.4523)"><path
             d="m 0,0 c 26.946,-26.946 26.946,-70.635 0,-97.581 -26.946,-26.946 -70.635,-26.946 -97.581,0 -26.946,26.946 -26.946,70.635 0,97.581 C -70.635,26.946 -26.946,26.946 0,0 Z"
             style="fill:none;stroke:#000000;stroke-width:15;stroke-linecap:round;stroke-linejoin:round;stroke-miterlimit:10;stroke-dasharray:none;stroke-opacity:1"
             id="path255" /></g><g
           id="g257"
           transform="translate(187.6625,230.9086)"><path
             d="M 0,0 C 11.276,4.474 26.412,12.963 42.468,29.019 58.26,44.811 66.716,59.702 71.247,70.921 l 0.006,0.007"
             style="fill:none;stroke:#000000;stroke-width:15;stroke-linecap:round;stroke-linejoin:round;stroke-miterlimit:10;stroke-dasharray:none;stroke-opacity:1"
             id="path259" /></g><g
           id="g261"
           transform="translate(253.2328,165.3106)"><path
             d="m 0,0 c 4.467,11.283 12.949,26.426 29.019,42.496 15.805,15.806 30.71,24.262 41.937,28.785"
             style="fill:none;stroke:#000000;stroke-width:15;stroke-linecap:round;stroke-linejoin:round;stroke-miterlimit:10;stroke-dasharray:none;stroke-opacity:1"
             id="path263" /></g><g
           id="g265"
           transform="translate(320.4837,120.1964)"><path
             d="m 0,0 c 13.56,-35.613 -4.317,-75.476 -39.931,-89.037 -35.613,-13.56 -75.476,4.317 -89.036,39.931 -13.561,35.613 4.317,75.476 39.93,89.037 C -53.423,53.491 -13.56,35.613 0,0 Z"
             style="fill:none;stroke:#000000;stroke-width:15;stroke-linecap:round;stroke-linejoin:round;stroke-miterlimit:10;stroke-dasharray:none;stroke-opacity:1"
             id="path267" /></g><g
           id="g269"
           transform="translate(192.5193,121.0951)"><path
             d="m 0,0 c 12.12,-0.532 29.404,1.02 50.624,9.1 20.871,7.947 34.681,18.074 43.406,26.457 l 0.009,0.004"
             style="fill:none;stroke:#000000;stroke-width:15;stroke-linecap:round;stroke-linejoin:round;stroke-miterlimit:10;stroke-dasharray:none;stroke-opacity:1"
             id="path271" /></g><g
           id="g273"
           transform="translate(225.5053,34.409)"><path
             d="m 0,0 c 8.693,8.468 22.629,18.814 43.867,26.901 20.89,7.954 37.95,9.57 50.045,9.103"
             style="fill:none;stroke:#000000;stroke-width:15;stroke-linecap:round;stroke-linejoin:round;stroke-miterlimit:10;stroke-dasharray:none;stroke-opacity:1"
             id="path275" /></g></g></g></g></svg>
