<?xml version="1.0" encoding="UTF-8" standalone="no"?>
<!-- Created with Inkscape (http://www.inkscape.org/) -->

<svg
   version="1.1"
   id="svg1329"
   xml:space="preserve"
   width="682.66669"
   height="682.66669"
   viewBox="0 0 682.66669 682.66669"
   xmlns="http://www.w3.org/2000/svg"
   xmlns:svg="http://www.w3.org/2000/svg"><defs
     id="defs1333"><clipPath
       clipPathUnits="userSpaceOnUse"
       id="clipPath1355"><path
         d="M 0,512 H 512 V 0 H 0 Z"
         id="path1353" /></clipPath></defs><g
     id="g1335"
     transform="matrix(1.3333333,0,0,-1.3333333,0,682.66667)"><g
       id="g1337"
       transform="translate(487.5626,114)"><path
         d="m 0,0 h -220 l -120,259 h 220 z"
         style="fill:#dd9300;fill-opacity:1;fill-rule:nonzero;stroke:none"
         id="path1339" /></g><g
       id="g1341"
       transform="translate(267.5626,114)"><path
         d="M 0,0 H -120.5 V 259.5 Z"
         style="fill:#702d22;fill-opacity:1;fill-rule:nonzero;stroke:none"
         id="path1343" /></g><g
       id="g1345"
       transform="translate(26.0627,114)"><path
         d="M 0,0 121,259.5 V 0 Z"
         style="fill:#f26944;fill-opacity:1;fill-rule:nonzero;stroke:none"
         id="path1347" /></g><g
       id="g1349"><g
         id="g1351"
         clip-path="url(#clipPath1355)"><g
           id="g1357"
           transform="translate(267.5626,114.5)"><path
             d="M 0,0 C -28.917,37.417 -54.333,39.25 -83,30.25 L -120,259 Z"
             style="fill:#d36e00;fill-opacity:1;fill-rule:nonzero;stroke:none"
             id="path1359" /></g><g
           id="g1361"
           transform="translate(192.0626,343)"><path
             d="M 0,0 65,-139 H 222 L 158,0 Z"
             style="fill:#ffb127;fill-opacity:1;fill-rule:nonzero;stroke:none"
             id="path1363" /></g><g
           id="g1365"
           transform="translate(344.0626,284)"><path
             d="m 0,0 h -90 l -14.5,30 H -15 Z"
             style="fill:#efd6a3;fill-opacity:1;fill-rule:nonzero;stroke:none"
             id="path1367" /></g><g
           id="g1369"
           transform="translate(487.5626,114)"><path
             d="m 0,0 h -20.17 c 0,2 -119.24,259 -119.24,259 H -120 Z"
             style="fill:#d68003;fill-opacity:1;fill-rule:nonzero;stroke:none"
             id="path1371" /></g><g
           id="g1373"
           transform="translate(338,372.5)"><path
             d="m 0,0 h 28.5 l 120,-259 h -220 L -191.5,0 H -35"
             style="fill:none;stroke:#000000;stroke-width:15;stroke-linecap:round;stroke-linejoin:round;stroke-miterlimit:10;stroke-dasharray:none;stroke-opacity:1"
             id="path1375" /></g><g
           id="g1377"
           transform="translate(266.5,113.5)"><path
             d="M 0,0 H -120 V 260 Z"
             style="fill:none;stroke:#000000;stroke-width:15;stroke-linecap:round;stroke-linejoin:round;stroke-miterlimit:10;stroke-dasharray:none;stroke-opacity:1"
             id="path1379" /></g><g
           id="g1381"
           transform="translate(486.9998,113.5)"><path
             d="M 0,0 17.5,17.5"
             style="fill:none;stroke:#000000;stroke-width:15;stroke-linecap:round;stroke-linejoin:round;stroke-miterlimit:10;stroke-dasharray:none;stroke-opacity:1"
             id="path1383" /></g><g
           id="g1385"
           transform="translate(25.0001,113.5)"><path
             d="M 0,0 -17.5,17.5"
             style="fill:none;stroke:#000000;stroke-width:15;stroke-linecap:round;stroke-linejoin:round;stroke-miterlimit:10;stroke-dasharray:none;stroke-opacity:1"
             id="path1387" /></g><g
           id="g1389"
           transform="translate(97.8958,113.5)"><path
             d="M 0,0 H 48.604 V 259 L -72.896,0 h 37.833"
             style="fill:none;stroke:#000000;stroke-width:15;stroke-linecap:round;stroke-linejoin:round;stroke-miterlimit:10;stroke-dasharray:none;stroke-opacity:1"
             id="path1391" /></g><g
           id="g1393"
           transform="translate(266.5,113.5)"><path
             d="M 0,0 C -28.917,37.417 -54.333,39.25 -83,30.25 L -120,259 Z"
             style="fill:none;stroke:#000000;stroke-width:15;stroke-linecap:round;stroke-linejoin:round;stroke-miterlimit:10;stroke-dasharray:none;stroke-opacity:1"
             id="path1395" /></g><g
           id="g1397"
           transform="translate(191,342.5)"><path
             d="M 0,0 65,-139 H 222 L 158,0 Z"
             style="fill:none;stroke:#000000;stroke-width:15;stroke-linecap:round;stroke-linejoin:round;stroke-miterlimit:10;stroke-dasharray:none;stroke-opacity:1"
             id="path1399" /></g><g
           id="g1401"
           transform="translate(343,282.5)"><path
             d="m 0,0 h -90 l -14.5,30 H -15 Z"
             style="fill:none;stroke:#000000;stroke-width:15;stroke-linecap:round;stroke-linejoin:round;stroke-miterlimit:10;stroke-dasharray:none;stroke-opacity:1"
             id="path1403" /></g><g
           id="g1405"
           transform="translate(146.5,371.5)"><path
             d="M 0,0 V 27"
             style="fill:none;stroke:#000000;stroke-width:15;stroke-linecap:round;stroke-linejoin:round;stroke-miterlimit:10;stroke-dasharray:none;stroke-opacity:1"
             id="path1407" /></g><g
           id="g1409"
           transform="translate(366.5,371.5)"><path
             d="M 0,0 V 27"
             style="fill:none;stroke:#000000;stroke-width:15;stroke-linecap:round;stroke-linejoin:round;stroke-miterlimit:10;stroke-dasharray:none;stroke-opacity:1"
             id="path1411" /></g><g
           id="g1413"
           transform="translate(266.9998,113.5)"><path
             d="M 0,0 17.5,17.5"
             style="fill:none;stroke:#000000;stroke-width:15;stroke-linecap:round;stroke-linejoin:round;stroke-miterlimit:10;stroke-dasharray:none;stroke-opacity:1"
             id="path1415" /></g></g></g></g></svg>
