<?xml version="1.0" encoding="UTF-8"?>
<svg xmlns="http://www.w3.org/2000/svg" xmlns:xlink="http://www.w3.org/1999/xlink" version="1.1" id="Capa_1" x="0px" y="0px" viewBox="0 0 512 512" style="enable-background:new 0 0 512 512;" xml:space="preserve" width="512" height="512">
<g>
	<g>
		<path style="fill:#60B7FF;" d="M386.909,202.639h-56.112v38h34.834c3.87,0,7.007,3.137,7.007,7.007v80.485&#10;&#9;&#9;&#9;c0,32.239-25.833,44.6-41.841,44.65v32.813h9.738c35.955,0,65.103-29.148,65.103-65.103V221.368&#10;&#9;&#9;&#9;C405.639,211.024,397.253,202.639,386.909,202.639z"/>
		<path style="fill:#FE646F;" d="M297.646,7.5H139.513c-18.309,0-33.151,14.842-33.151,33.151v83.409&#10;&#9;&#9;&#9;c0,5.444,4.413,9.857,9.857,9.857h204.723c5.444,0,9.857-4.413,9.857-9.857V40.651C330.797,22.342,315.955,7.5,297.646,7.5z"/>
		<path style="fill:#FE646F;" d="M320.941,173.698H116.218c-5.444,0-9.857,4.413-9.857,9.857v287.794&#10;&#9;&#9;&#9;c0,18.309,14.843,33.151,33.151,33.151h158.133c18.309,0,33.151-14.842,33.151-33.151V183.554&#10;&#9;&#9;&#9;C330.797,178.11,326.384,173.698,320.941,173.698z"/>
		<path style="fill:#FD4755;" d="M320.941,173.698h-20.143v267.651c0,18.309-14.842,33.151-33.151,33.151H109.513&#10;&#9;&#9;&#9;c-1.015,0-2.017-0.053-3.009-0.142c1.521,16.898,15.715,30.142,33.009,30.142h158.133c18.309,0,33.151-14.842,33.151-33.151&#10;&#9;&#9;&#9;V183.554C330.797,178.11,326.384,173.698,320.941,173.698z"/>
		<path style="fill:#FD4755;" d="M300.655,7.642c0.089,0.992,0.142,1.994,0.142,3.009V94.06c0,5.444-4.413,9.857-9.857,9.857&#10;&#9;&#9;&#9;H106.361v20.143c0,5.444,4.413,9.857,9.857,9.857h204.723c5.444,0,9.857-4.413,9.857-9.857V40.651&#10;&#9;&#9;&#9;C330.797,23.357,317.553,9.164,300.655,7.642z"/>
		
			<rect x="122.907" y="133.917" style="fill:#BAD6E5;stroke:#000000;stroke-width:15;stroke-linecap:round;stroke-linejoin:round;stroke-miterlimit:10;" width="191.344" height="39.781"/>
		<path style="fill:#FAF7F7;" d="M288.313,430.101H148.846c-3.816,0-6.91-3.094-6.91-6.91v-43.551c0-3.816,3.094-6.91,6.91-6.91&#10;&#9;&#9;&#9;h139.467c3.816,0,6.91,3.094,6.91,6.91v43.551C295.222,427.008,292.129,430.101,288.313,430.101z"/>
	</g>
	<g>
		<path style="fill:none;stroke:#000000;stroke-width:15;stroke-linecap:round;stroke-linejoin:round;stroke-miterlimit:10;" d="&#10;&#9;&#9;&#9;M218.13,7.5h79.516c18.309,0,33.151,14.842,33.151,33.151v83.409c0,5.444-4.413,9.857-9.857,9.857H116.218&#10;&#9;&#9;&#9;c-5.444,0-9.857-4.413-9.857-9.857V40.651c0-18.309,14.842-33.151,33.151-33.151h43.617"/>
		<path style="fill:none;stroke:#000000;stroke-width:15;stroke-linecap:round;stroke-linejoin:round;stroke-miterlimit:10;" d="&#10;&#9;&#9;&#9;M116.218,173.698h204.723c5.444,0,9.857,4.413,9.857,9.857v287.794c0,18.309-14.842,33.151-33.151,33.151H139.513&#10;&#9;&#9;&#9;c-18.309,0-33.151-14.842-33.151-33.151V183.554C106.361,178.11,110.774,173.698,116.218,173.698z"/>
		
			<rect x="122.907" y="133.917" style="fill:none;stroke:#000000;stroke-width:15;stroke-linecap:round;stroke-linejoin:round;stroke-miterlimit:10;" width="191.344" height="39.781"/>
		<path style="fill:none;stroke:#000000;stroke-width:15;stroke-linecap:round;stroke-linejoin:round;stroke-miterlimit:10;" d="&#10;&#9;&#9;&#9;M154.04,430.101h-5.194c-3.816,0-6.91-3.094-6.91-6.91v-43.551c0-3.816,3.094-6.91,6.91-6.91h139.467&#10;&#9;&#9;&#9;c3.816,0,6.91,3.094,6.91,6.91v43.551c0,3.816-3.094,6.91-6.91,6.91H189.04"/>
		
			<line style="fill:none;stroke:#000000;stroke-width:15;stroke-linecap:round;stroke-linejoin:round;stroke-miterlimit:10;" x1="161.657" y1="339.099" x2="275.501" y2="339.099"/>
		<path style="fill:none;stroke:#000000;stroke-width:15;stroke-linecap:round;stroke-linejoin:round;stroke-miterlimit:10;" d="&#10;&#9;&#9;&#9;M386.909,202.639h-56.112v38h34.834c3.87,0,7.007,3.137,7.007,7.007v80.485c0,32.239-25.833,44.6-41.841,44.65v32.813h9.738&#10;&#9;&#9;&#9;c35.955,0,65.103-29.148,65.103-65.103V221.368C405.639,211.024,397.253,202.639,386.909,202.639z"/>
		
			<line style="fill:none;stroke:#000000;stroke-width:15;stroke-linecap:round;stroke-linejoin:round;stroke-miterlimit:10;" x1="183.13" y1="99.155" x2="254.029" y2="99.155"/>
	</g>
</g>















</svg>
