<svg id="Capa_1" enable-background="new 0 0 512.014 512.014" height="512" viewBox="0 0 512.014 512.014" width="512" xmlns="http://www.w3.org/2000/svg"><g><ellipse cx="256.007" cy="40.963" fill="#afaab4" rx="158.952" ry="33.456"/><path d="m414.959 73.629c0 18.477-71.165 33.456-158.952 33.456s-158.952-14.979-158.952-33.456v-32.666c0 18.477 71.165 33.456 158.952 33.456s158.952-14.979 158.952-33.456z" fill="#c6c1c8"/><path d="m414.959 471.051c0 18.477-71.165 33.456-158.952 33.456s-158.952-14.979-158.952-33.456v-26.678c0-1.059 1.344-1.534 1.983-.689 12.066 15.959 77.75 28.157 156.969 28.157s144.903-12.198 156.969-28.157c.638-.844 1.983-.369 1.983.689z" fill="#c6c1c8"/><path d="m256.007 74.419c59.606 0 111.548-6.906 138.755-17.123-27.207-10.217-79.149-17.123-138.755-17.123s-111.548 6.906-138.755 17.123c27.207 10.217 79.149 17.123 138.755 17.123z" fill="#a298a5"/><path d="m256.007 107.085c-79.067 0-144.65-12.151-156.899-28.065v364.756c12.248 15.914 77.831 28.065 156.899 28.065s144.65-12.151 156.899-28.065v-364.756c-12.249 15.914-77.832 28.065-156.899 28.065z" fill="#ffc250"/><path d="m372.906 96.299v231.635c0 65.283-51.002 119.175-116.185 122.799-12.994.723-26.64 1.108-40.714 1.108-46.232 0-87.854-4.155-116.899-10.786v2.721c12.248 15.914 77.831 28.065 156.899 28.065s144.65-12.151 156.899-28.065v-364.756c-5.087 6.609-19.372 12.569-40 17.279z" fill="#ebb044"/><path d="m281.783 431.47c-14.902-14.902-9.572-40.204 10.075-47.828 16.334-6.338 29.249-19.253 35.587-35.587 7.624-19.648 32.926-24.977 47.828-10.075 12.083 12.083 15.892 30.162 9.71 46.093-10.171 26.211-30.896 46.936-57.107 57.107-15.931 6.181-34.009 2.373-46.093-9.71z" fill="#95d6a4"/><path d="m281.783 431.47c-14.902-14.902-9.572-40.204 10.075-47.828 16.334-6.338 29.249-19.253 35.587-35.587 7.624-19.648 32.926-24.977 47.828-10.075 12.083 12.083 15.892 30.162 9.71 46.093-10.171 26.211-30.896 46.936-57.107 57.107-15.931 6.181-34.009 2.373-46.093-9.71z" fill="#dd636e"/><path d="m372.666 335.656c-2.955 47.592-33.035 88.101-75.322 105.776 9.68 3.571 20.529 3.628 30.531-.254 26.211-10.171 46.936-30.896 57.108-57.107 6.182-15.931 2.374-34.009-9.71-46.093-.837-.837-1.708-1.61-2.607-2.322z" fill="#da4a54"/><path d="m212.593 413.847c12.425-12.425 7.981-33.522-8.401-39.879-13.619-5.285-24.387-16.053-29.672-29.672-6.357-16.382-27.454-20.826-39.879-8.401-10.075 10.075-13.25 25.149-8.096 38.432 8.481 21.855 25.761 39.135 47.616 47.616 13.283 5.154 28.357 1.979 38.432-8.096z" fill="#95d6a4"/><path d="m212.593 413.847c12.425-12.425 7.981-33.522-8.401-39.879-13.619-5.285-24.387-16.053-29.672-29.672-6.357-16.382-27.454-20.826-39.879-8.401-10.075 10.075-13.25 25.149-8.096 38.432 8.481 21.855 25.761 39.135 47.616 47.616 13.283 5.154 28.357 1.979 38.432-8.096z" fill="#dd636e"/><path d="m374.297 256.641c15.572-8.99 16.767-31.019 2.258-41.641-12.061-8.83-19.853-22.326-21.469-37.186-1.945-17.875-21.619-27.855-37.191-18.865-12.626 7.29-19.757 21.348-18.18 35.842 2.594 23.847 15.098 45.503 34.453 59.674 11.763 8.612 27.502 9.466 40.129 2.176z" fill="#95d6a4"/><path d="m374.297 256.641c15.572-8.99 16.767-31.019 2.258-41.641-12.061-8.83-19.853-22.326-21.469-37.186-1.945-17.875-21.619-27.855-37.191-18.865-12.626 7.29-19.757 21.348-18.18 35.842 2.594 23.847 15.098 45.503 34.453 59.674 11.763 8.612 27.502 9.466 40.129 2.176z" fill="#dd636e"/><path d="m372.906 257.404c.467-.244.931-.498 1.391-.763 15.572-8.99 16.767-31.019 2.258-41.641-1.264-.926-2.481-1.903-3.649-2.927z" fill="#da4a54"/><path d="m240.162 361.851c-13.216-7.63-14.23-26.326-1.917-35.34 10.236-7.494 16.849-18.948 18.221-31.559 1.65-15.171 18.348-23.64 31.564-16.01 10.716 6.187 16.767 18.117 15.429 30.418-2.202 20.239-12.813 38.618-29.239 50.644-9.984 7.309-23.342 8.034-34.058 1.847z" fill="#95d6a4"/><path d="m240.162 361.851c-13.216-7.63-14.23-26.326-1.917-35.34 10.236-7.494 16.849-18.948 18.221-31.559 1.65-15.171 18.348-23.64 31.564-16.01 10.716 6.187 16.767 18.117 15.429 30.418-2.202 20.239-12.813 38.618-29.239 50.644-9.984 7.309-23.342 8.034-34.058 1.847z" fill="#dd636e"/><circle cx="197.743" cy="203.455" fill="#f1f1f4" r="73.634"/><path d="m209.105 130.692c13.739 13.376 22.272 32.073 22.272 52.763 0 40.667-32.967 73.635-73.635 73.635-3.864 0-7.659-.298-11.362-.872 13.266 12.916 31.385 20.872 51.362 20.872 40.667 0 73.635-32.967 73.635-73.635.001-36.803-26.999-67.3-62.272-72.763z" fill="#dfdde2"/><path d="m330.589 448.171c28.106-10.906 50.48-33.28 61.387-61.387 7.253-18.692 2.779-39.932-11.398-54.109-8.798-8.797-21.316-12.515-33.493-9.954-12.175 2.565-22.13 11.021-26.631 22.62-5.562 14.334-16.974 25.746-31.309 31.308-11.599 4.502-20.055 14.458-22.619 26.633-2.564 12.174 1.157 24.694 9.954 33.492 14.031 14.03 35.223 18.725 54.109 11.397zm-49.386-41.799c1.538-7.303 6.411-13.039 13.368-15.739 18.253-7.083 32.783-21.613 39.866-39.866 2.699-6.957 8.437-11.829 15.738-13.368 7.234-1.521 14.467.556 19.794 5.884 9.978 9.977 13.126 24.922 8.021 38.076-9.386 24.188-28.641 43.442-52.829 52.828-13.151 5.105-28.099 1.958-38.075-8.021-5.276-5.276-7.421-12.491-5.883-19.794z"/><path d="m323.476 414.091c13.667-8.301 25.338-19.878 33.752-33.478 2.18-3.522 1.091-8.146-2.432-10.324-3.523-2.181-8.146-1.091-10.324 2.432-7.176 11.599-17.129 21.471-28.783 28.55-3.54 2.15-4.667 6.764-2.517 10.304 2.153 3.544 6.769 4.664 10.304 2.516z"/><path d="m171.448 428.935c16.194 6.284 34.391 2.271 46.448-9.784v-.001c7.634-7.635 10.863-18.5 8.637-29.065-2.226-10.564-9.563-19.203-19.628-23.108-11.626-4.512-20.882-13.768-25.394-25.394-3.905-10.065-12.545-17.403-23.109-19.629-10.561-2.229-21.43 1.003-29.065 8.638-12.17 12.171-16.011 30.402-9.784 46.448 9.221 23.76 28.136 42.675 51.895 51.895zm-31.503-87.737c4.11-4.111 9.722-5.758 15.366-4.567 5.668 1.194 10.121 4.977 12.217 10.377 6.032 15.545 18.407 27.919 33.951 33.952 5.4 2.096 9.183 6.548 10.377 12.217 1.195 5.669-.47 11.27-4.566 15.366-7.969 7.972-19.908 10.486-30.415 6.407-19.842-7.699-35.638-23.495-43.337-43.337-4.078-10.507-1.563-22.446 6.407-30.415z"/><path d="m177.183 400.422c3.533 2.146 8.149 1.03 10.304-2.517 2.15-3.54 1.023-8.153-2.517-10.304-9.55-5.801-17.706-13.891-23.586-23.395-2.18-3.522-6.802-4.61-10.324-2.432s-4.611 6.802-2.432 10.324c7.118 11.508 16.992 21.302 28.555 28.324z"/><path d="m394.195 236.839c.596-10.973-4.343-21.398-13.209-27.891-10.336-7.566-17.059-19.21-18.444-31.945-1.188-10.925-7.748-20.414-17.548-25.385-9.801-4.973-21.334-4.658-30.849.836-15.192 8.771-23.783 25.707-21.887 43.148 2.815 25.877 16.477 49.537 37.479 64.913 14.172 10.376 33.136 11.381 48.31 2.62-4.929-8.54-5.069-8.781.001 0 9.515-5.493 15.552-15.323 16.147-26.296zm-23.649 13.307c-10.046 5.801-22.588 5.122-31.948-1.733-17.612-12.893-29.066-32.733-31.428-54.432-1.254-11.534 4.428-22.735 14.475-28.536 5.182-2.991 11.218-3.161 16.562-.448 5.341 2.708 8.774 7.676 9.422 13.629 1.841 16.914 10.769 32.378 24.495 42.427 4.832 3.537 7.417 8.995 7.093 14.975-.325 5.978-3.485 11.124-8.671 14.118z"/><path d="m336.661 194.066c-1.193-3.967-5.378-6.217-9.343-5.021-3.966 1.193-6.214 5.376-5.021 9.343 3.979 13.229 11.131 25.5 20.681 35.485 2.859 2.992 7.608 3.101 10.604.236 2.993-2.862 3.1-7.61.236-10.604-7.921-8.283-13.854-18.463-17.157-29.439z"/><path d="m236.412 368.346c13.249 7.648 29.83 6.792 42.238-2.29 18.08-13.238 29.841-33.607 32.265-55.886 1.658-15.248-5.853-30.056-19.135-37.724-8.408-4.855-18.6-5.134-27.262-.739-8.661 4.393-14.459 12.779-15.509 22.433-1.142 10.492-6.68 20.085-15.195 26.319-7.835 5.737-12.199 14.951-11.673 24.647s5.861 18.384 14.271 23.24zm6.264-35.783c11.906-8.717 19.65-22.13 21.246-36.8.507-4.664 3.198-8.557 7.382-10.679 4.183-2.121 8.913-1.995 12.977.353 8.138 4.698 12.738 13.77 11.723 23.111-1.97 18.1-11.524 34.649-26.213 45.404-7.583 5.551-17.74 6.102-25.878 1.403-4.062-2.346-6.538-6.377-6.793-11.062-.255-4.683 1.771-8.959 5.556-11.73z"/><path d="m256.957 343.549c2.992 2.861 7.741 2.759 10.604-.236 8.228-8.602 14.389-19.174 17.818-30.573 1.193-3.967-1.055-8.149-5.021-9.343-3.966-1.195-8.149 1.056-9.343 5.021-2.752 9.146-7.695 17.628-14.295 24.528-2.862 2.993-2.757 7.74.237 10.603z"/><path d="m197.743 284.589c44.737 0 81.134-36.396 81.134-81.135 0-44.737-36.396-81.134-81.134-81.134s-81.135 36.396-81.135 81.134c.001 44.739 36.397 81.135 81.135 81.135zm0-147.268c36.466 0 66.134 29.668 66.134 66.134 0 36.467-29.668 66.135-66.134 66.135-36.467 0-66.135-29.668-66.135-66.135.001-36.466 29.669-66.134 66.135-66.134z"/><path d="m182.216 195.954h31.055c4.143 0 7.5-3.357 7.5-7.5s-3.357-7.5-7.5-7.5h-31.055c-4.143 0-7.5 3.357-7.5 7.5s3.357 7.5 7.5 7.5z"/><path d="m160.117 225.954h75.252c4.143 0 7.5-3.357 7.5-7.5s-3.357-7.5-7.5-7.5h-75.252c-4.143 0-7.5 3.357-7.5 7.5s3.358 7.5 7.5 7.5z"/><path d="m412.905 144.676c4.143 0 7.5-3.357 7.5-7.5v-55.913c1.371-2.417 2.054-4.961 2.054-7.634v-32.666c0-13.42-17.177-23.56-52.511-30.996-63.119-13.286-164.728-13.293-227.883 0-35.334 7.437-52.511 17.576-52.511 30.996v32.666c0 2.674.682 5.217 2.054 7.634v357.523c-1.296 1.523-2.054 3.487-2.054 5.587v26.678c0 13.42 17.177 23.56 52.511 30.996 63.119 13.286 164.728 13.293 227.883 0 35.334-7.437 52.511-17.576 52.511-30.996v-26.678c0-2.1-.758-4.064-2.054-5.587v-266.61c0-4.143-3.357-7.5-7.5-7.5s-7.5 3.357-7.5 7.5v268.619c-5.39 4.589-19.973 10.661-47.068 15.573-58.593 10.619-145.991 10.64-204.708-.009-4.077-.736-7.979 1.966-8.719 6.042-.739 4.075 1.966 7.979 6.041 8.718 29.239 5.303 66.548 8.223 105.056 8.223 58.779 0 123.23-6.907 151.453-22.091l.002 13.761c-.016.085-3.352 8.811-42.67 16.785-60.576 12.284-156.956 12.292-217.57 0-39.318-7.975-42.654-16.7-42.667-16.745v-13.776c2.984 1.593 6.435 3.115 10.369 4.58 3.88 1.439 8.2-.531 9.646-4.413 1.444-3.882-.531-8.2-4.413-9.646-7.641-2.844-11.567-5.354-13.548-7.025v-347.221c8.547 4.216 20.34 7.893 35.457 11.074 63.119 13.286 164.728 13.293 227.883 0 15.117-3.182 26.91-6.858 35.457-11.074v43.625c-.001 4.143 3.357 7.5 7.499 7.5zm-265.683-120.458c60.576-12.284 156.956-12.292 217.57 0 37.956 7.697 42.38 16.096 42.655 16.745-.173.409-1.99 3.886-12.772 8.327-29.504-10.278-82.148-16.617-138.668-16.617-23.134 0-45.467 1.014-66.377 3.014-4.123.395-7.146 4.057-6.752 8.18s4.049 7.151 8.18 6.752c20.438-1.954 42.29-2.945 64.949-2.945 42.243 0 81.999 3.55 110.819 9.615-34.159 7.175-76.075 9.631-110.819 9.631-34.871 0-76.64-2.465-110.787-9.624 3.38-.709 6.931-1.389 10.649-2.038 4.08-.713 6.811-4.599 6.099-8.679-.713-4.08-4.593-6.806-8.679-6.099-14.245 2.488-26.321 5.448-35.955 8.811-11.135-4.58-12.704-8.121-12.779-8.282v-.015c.117-.33 3.921-8.918 42.667-16.776zm217.57 66.156c-60.576 12.284-156.956 12.292-217.57 0-39.318-7.975-42.654-16.7-42.667-16.745v-13.802c8.673 4.662 21.143 8.687 37.511 12.132 63.119 13.286 164.728 13.293 227.883 0 16.368-3.445 28.84-7.47 37.512-12.133l.001 13.762c-.015.086-3.351 8.812-42.67 16.786z"/></g></svg>