<?xml version="1.0" encoding="UTF-8"?>
<svg xmlns="http://www.w3.org/2000/svg" xmlns:xlink="http://www.w3.org/1999/xlink" version="1.1" id="Capa_1" x="0px" y="0px" viewBox="0 0 512 512" style="enable-background:new 0 0 512 512;" xml:space="preserve" width="512" height="512">
<g>
	<path style="fill:#EAF6FF;" d="M359.941,151.982l-46.502-46.51c-3.482-3.482-3.482-9.127,0-12.609l82.736-82.75&#10;&#9;&#9;c3.482-3.483,9.129-3.483,12.611,0l46.5,46.508L359.941,151.982z"/>
	<path style="fill:#FFE177;" d="M489.092,82.061L69.398,501.828c-3.562,3.562-9.337,3.562-12.898,0l-33.828-33.834&#10;&#9;&#9;c-3.562-3.562-3.562-9.338,0-12.901l219.656-219.694c6.134-6.135,13.187-11.276,20.905-15.237l24.356-12.501&#10;&#9;&#9;c7.718-3.961,14.771-9.102,20.905-15.237l145.47-145.496c3.878-3.879,10.165-3.879,14.043,0l21.085,21.088&#10;&#9;&#9;C492.969,71.894,492.969,78.183,489.092,82.061z"/>
	<path style="fill:#FFD15B;" d="M489.091,68.015l-21.085-21.088c-0.026-0.026-0.055-0.048-0.081-0.073&#10;&#9;&#9;c3.8,3.885,3.778,10.112-0.074,13.965L48.159,480.585c-3.562,3.562-9.337,3.562-12.898,0L56.5,501.828&#10;&#9;&#9;c3.562,3.562,9.336,3.562,12.898,0L489.091,82.061C492.969,78.183,492.969,71.894,489.091,68.015z"/>
	<path style="fill:#EAF6FF;" d="M61.975,449.412l-16.748-16.751l95.444-95.461l16.751,16.754c4.642,4.643,4.642,12.17,0,16.812&#10;&#9;&#9;L78.79,449.412C74.147,454.056,66.618,454.056,61.975,449.412z"/>
	<g>
		<path style="fill:none;stroke:#000000;stroke-width:15;stroke-linecap:round;stroke-linejoin:round;stroke-miterlimit:10;" d="&#10;&#9;&#9;&#9;M352.314,144.353l-38.875-38.881c-3.482-3.482-3.482-9.127,0-12.609l82.736-82.75c3.482-3.483,9.129-3.483,12.611,0L448.667,50"/>
		<g>
			<g>
				
					<line style="fill:none;stroke:#000000;stroke-width:15;stroke-linecap:round;stroke-linejoin:round;stroke-miterlimit:10;" x1="385.594" y1="24.532" x2="409.265" y2="48.206"/>
			</g>
			<g>
				
					<line style="fill:none;stroke:#000000;stroke-width:15;stroke-linecap:round;stroke-linejoin:round;stroke-miterlimit:10;" x1="366.132" y1="43.997" x2="389.803" y2="67.672"/>
			</g>
			<g>
				
					<line style="fill:none;stroke:#000000;stroke-width:15;stroke-linecap:round;stroke-linejoin:round;stroke-miterlimit:10;" x1="346.67" y1="63.462" x2="370.341" y2="87.137"/>
			</g>
			<g>
				
					<line style="fill:none;stroke:#000000;stroke-width:15;stroke-linecap:round;stroke-linejoin:round;stroke-miterlimit:10;" x1="327.208" y1="82.928" x2="350.879" y2="106.603"/>
			</g>
		</g>
		<path style="fill:none;stroke:#000000;stroke-width:15;stroke-linecap:round;stroke-linejoin:round;stroke-miterlimit:10;" d="&#10;&#9;&#9;&#9;M83.21,394.544l159.117-159.145c6.134-6.135,13.187-11.276,20.905-15.237l24.356-12.501c7.718-3.961,14.771-9.102,20.905-15.237&#10;&#9;&#9;&#9;l145.47-145.496c3.878-3.879,10.165-3.879,14.043,0l21.085,21.088c3.878,3.879,3.878,10.167,0,14.046L472.356,98.8"/>
		<path style="fill:none;stroke:#000000;stroke-width:15;stroke-linecap:round;stroke-linejoin:round;stroke-miterlimit:10;" d="&#10;&#9;&#9;&#9;M448.667,122.493L69.398,501.828c-3.562,3.562-9.337,3.562-12.898,0l-33.828-33.834c-3.562-3.562-3.562-9.338,0-12.901&#10;&#9;&#9;&#9;l35.958-35.964"/>
		<path style="fill:none;stroke:#000000;stroke-width:15;stroke-linecap:round;stroke-linejoin:round;stroke-miterlimit:10;" d="&#10;&#9;&#9;&#9;M142.235,338.765l15.187,15.189c4.642,4.643,4.642,12.17,0,16.812L78.79,449.412c-4.643,4.644-12.172,4.644-16.815,0&#10;&#9;&#9;&#9;l-15.442-15.445"/>
	</g>
</g>















</svg>
