<svg id="Layer_1" enable-background="new 0 0 512.485 512.485" height="512" viewBox="0 0 512.485 512.485" width="512" xmlns="http://www.w3.org/2000/svg"><g><g><g><g><path d="m417.576 38.086c0-41.9 87.167-45.903 87.167 20.663v312.653c0-24.694-20.054-44.712-44.792-44.712-23.306.005-42.375-9.069-42.375-32.397z" fill="#e19974"/><path d="m453.576 363.636 8.625.008c-24.738 0-44.792-20.018-44.792-44.712l.032-282.128c.001.111.002.222.003.333.108 13.207 10.832 23.86 24.027 23.858l12.104-.002v302.643z" fill="#c86d36"/></g><path d="m459.951 102.521-407.416-.008c-24.738 0-44.792 20.018-44.792 44.712v312.653c0-24.694 20.054-44.712 44.792-44.712l407.416.008c24.738 0 44.792-20.018 44.792-44.712v-312.653c0 24.694-20.054 44.712-44.792 44.712z" fill="#ffe5c2"/><g><path d="m464.743 102.268v268.195c0 24.652-19.986 44.644-44.666 44.711l39.874.001c24.738 0 44.792-20.018 44.792-44.712v-312.654c0 23.078-17.516 42.071-40 44.459z" fill="#fed2a4"/></g><path d="m65.243 504.493-12.708.008c-24.738 0-44.792-20.018-44.792-44.712v-312.654c0 24.694 20.054 44.712 44.792 44.712l12.708-.008z" fill="#e19974"/></g><g><path d="m214.52 369.409-14.231-46.813-9.464-32.784-9.464 32.784-3.707 12.842-8.022-27.789-10.891-37.725-10.89 37.725-5.666 19.629-9.619-33.32-10.891 37.725-10.89 37.726z" fill="#bbec6c"/><path d="m340.12 291.354c-30.519-1.313-55.99 28.295-36.857 42.385 27.56 20.296 118.198-14.362 108.873-42.409-3.546-10.666-17.228-8.359-29.076-2.569-15.024 7.34-26.321 3.308-42.94 2.593z" fill="#8ac9fe"/><g><g><path d="m289.101 209.958c0-20.63-17.364-37.205-38.274-35.906-17.995 1.118-32.609 15.822-33.62 33.823-.778 13.858 6.296 26.129 17.179 32.785v4.458c0 7.233 5.864 13.097 13.097 13.097h11.282c7.233 0 13.097-5.864 13.097-13.097v-4.447c10.337-6.319 17.239-17.709 17.239-30.713z" fill="#fff"/></g></g></g></g><g><path d="m504.743 50.309c-4.142 0-7.5 3.358-7.5 7.5 0 20.143-16.122 36.599-36.167 37.195v-34.012c0-4.445-3.672-6.901-7.501-7.5l-12.104.002c-8.02 0-15.382-6.516-16.395-14.465.016-10.716 7.377-18.379 17.104-21.761 14.151-4.921 34.543-2.235 46.136 12.419 6.016 7.606 17.781-1.7 11.765-9.306-16.679-21.082-44.26-23.736-62.827-17.281-15.217 5.291-28.739 19.693-27.178 36.726v55.194l-357.541-.007c-28.308 0-52.292 23.752-52.292 52.122v246.199c.28 9.851 14.68 9.966 15 0v-209.633c11.464 11.654 26.565 16.056 42.5 15.643v297.653c-21.95 1.256-42.5-13.994-42.5-37.209v-31.454c0-4.142-3.358-7.5-7.5-7.5s-7.5 3.358-7.5 7.5v31.454c0 28.79 23.458 52.212 52.297 52.212 6.061.878 20.203 1.578 20.203-7.508v-81.826l387.208.008c28.834 0 52.292-23.422 52.292-52.212v-312.653c0-4.142-3.358-7.5-7.5-7.5zm-79.667 13.554c6.16 3.78 13.823 5.127 21 4.63v26.527h-21zm72.167 306.6c0 20.519-16.729 37.212-37.292 37.212l-387.208-.008v-215.827c0-4.446-3.674-6.902-7.504-7.5l-12.704.008c-20.548 0-37.267-16.669-37.292-37.167.024-20.498 16.744-37.167 37.292-37.167 135.805.003 271.611.006 407.416.008 14.588 0 27.798-5.994 37.292-15.646z"/><path d="m453.247 242.353c-4.043.901-6.59 4.909-5.69 8.952 2.462 11.051 3.008 21.661 1.622 31.534-.576 4.102 2.283 7.894 6.385 8.47 3.731.526 7.948-2.664 8.47-6.385 1.636-11.66 1.019-24.068-1.835-36.88-.901-4.044-4.907-6.593-8.952-5.691z"/><path d="m452.796 300.54c-3.732-1.793-8.214-.223-10.009 3.511-4.916 10.227-12.357 19.507-22.116 27.583-3.191 2.641-3.637 7.369-.997 10.56 3.383 3.254 6.903 3.587 10.56.997 11.439-9.467 20.211-20.449 26.072-32.642 1.796-3.733.224-8.215-3.51-10.009z"/><path d="m398.591 345.852c-10.632 5.318-22.399 9.448-34.976 12.275-4.042.908-6.581 4.921-5.673 8.962.835 3.714 5.267 6.504 8.962 5.673 13.761-3.093 26.68-7.633 38.398-13.495 3.704-1.853 5.205-6.358 3.352-10.063-1.854-3.705-6.359-5.207-10.063-3.352z"/><path d="m336.671 361.98c-12.538.792-24.627.197-35.935-1.769-4.082-.712-7.965 2.023-8.674 6.104s2.023 7.965 6.104 8.674c13.005 2.261 26.288 2.793 39.452 1.96 4.134-.261 7.273-3.824 7.012-7.958-.262-4.134-3.835-7.276-7.959-7.011z"/><path d="m276.836 352.876c-10.392-5.207-16.887-12.356-18.782-20.676-.919-4.039-4.939-6.569-8.978-5.647-4.039.919-6.567 4.939-5.647 8.978 2.924 12.838 12.152 23.474 26.688 30.756 3.816 1.741 7.171.626 10.065-3.346 1.856-3.703.358-8.209-3.346-10.065z"/><path d="m265.46 282.304c-9.029 8.603-15.512 17.581-19.269 26.684-1.58 3.829.244 8.214 4.072 9.794 3.573 1.474 8.305-.464 9.794-4.072 2.951-7.151 8.25-14.4 15.749-21.546 2.999-2.857 3.114-7.604.256-10.603-2.856-3.001-7.604-3.115-10.602-.257z"/><path d="m301.246 274.472c6.31-3.697 12.236-7.561 17.614-11.483 3.347-2.44 4.082-7.132 1.641-10.479-2.441-3.348-7.133-4.083-10.479-1.641-4.976 3.628-10.48 7.215-16.359 10.66-3.385 1.983-6.665 4.042-9.749 6.118-3.436 2.313-4.347 6.974-2.034 10.41 3.19 3.581 6.66 4.259 10.41 2.034 2.826-1.902 5.839-3.793 8.956-5.619z"/><path d="m350.769 215.163c-3.66-1.942-8.199-.55-10.141 3.109-3.417 6.438-8.398 12.924-14.806 19.277-2.941 2.916-2.962 7.665-.046 10.606 3.529 2.944 7.065 2.96 10.606.046 7.483-7.419 13.37-15.123 17.496-22.898 1.942-3.659.55-8.199-3.109-10.14z"/><path d="m346.006 200.557c-.326 9.902 14.029 10.835 14.97.95.754-11.888-2.883-23.25-10.519-32.855-2.578-3.242-7.296-3.781-10.538-1.204-3.243 2.578-3.782 7.296-1.204 10.538 5.36 6.743 7.813 14.337 7.291 22.571z"/><path d="m299.347 156.723c8.674 1.901 16.433 4.66 23.062 8.201 3.807 1.84 7.19.813 10.149-3.083 1.951-3.653.571-8.197-3.083-10.149-7.842-4.188-16.898-7.425-26.916-9.622-4.043-.885-8.045 1.674-8.932 5.72-.887 4.048 1.674 8.046 5.72 8.933z"/><path d="m246.444 154.975c.281 0 .565-.016.852-.048 9.976-1.127 19.646-1.502 28.743-1.117 4.136.177 7.635-3.037 7.812-7.175.176-4.138-3.036-7.636-7.175-7.812-9.87-.42-20.32-.017-31.064 1.198-4.116.465-7.076 4.179-6.61 8.295.432 3.831 3.677 6.659 7.442 6.659z"/><path d="m195.288 166.673c8.872-2.92 18.189-5.57 27.761-7.677 4.045-.891 6.603-4.892 5.712-8.937-.891-4.046-4.894-6.604-8.937-5.712-10.102 2.224-19.971 4.954-29.334 8.115-3.924 1.325-6.032 5.58-4.707 9.505 1.056 3.128 4.71 6.284 9.505 4.706z"/><path d="m148.728 188.466c7.659-4.684 15.747-9.105 24.158-12.947 3.768-1.721 5.427-6.17 3.707-9.938-1.72-3.767-6.17-5.425-9.938-3.707-8.997 4.108-17.698 8.772-25.862 13.863-3.515 2.191-4.588 6.817-2.396 10.332 1.42 2.281 5.096 5.598 10.331 2.397z"/><path d="m113.716 216.236c4.798-4.805 9.922-9.415 15.228-13.702 3.222-2.604 3.723-7.326 1.12-10.547s-7.325-3.722-10.547-1.12c-5.718 4.621-11.24 9.589-16.413 14.769-2.927 2.931-2.924 7.68.006 10.607 3.535 2.925 7.071 2.923 10.606-.007z"/><path d="m462.741 192.892-25.914-12.217 14.139-18.861c2.484-3.314 1.812-8.015-1.502-10.5-3.315-2.484-8.015-1.812-10.5 1.502l-15.988 21.328-25.204-11.882c-3.746-1.768-8.216-.162-9.982 3.585-1.767 3.747-.161 8.216 3.585 9.982l22.416 10.568-19.594 26.139c-2.484 3.314-1.812 8.015 1.502 10.5 3.706 2.414 7.206 1.913 10.5-1.502l21.444-28.606 28.702 13.532c3.821 1.651 7.149.456 9.982-3.585 1.766-3.748.16-8.217-3.586-9.983z"/><path d="m198.03 287.732c-2.039-7.067-12.372-7.067-14.411 0l-5.965 20.664-11.707-40.552c-2.039-7.067-12.372-7.067-14.411 0l-9.351 32.393-2.413-8.358c-2.039-7.067-12.372-7.067-14.411 0l-21.781 75.45c-.786 5.591 1.616 8.784 7.206 9.58h103.734c5.642-.818 8.034-4.045 7.176-9.681zm-77.274 74.176 11.81-40.908 2.413 8.359c2.039 7.067 12.372 7.067 14.411 0l9.351-32.393 11.707 40.553c2.039 7.067 12.372 7.067 14.411 0l5.965-20.665 13.576 45.055h-83.644z"/><path d="m419.252 288.964c-5.749-17.29-27.077-13.004-39.486-6.942-12.399 6.06-26.221 2.402-39.324 1.839-24.342-1.044-44.434 14.076-49.8 29.301-8.384 23.787 17.957 34.144 36.702 34.144 28.334.997 101.596-22.902 91.908-58.342zm-26.078 21.925c-23.293 16.93-69.81 28.338-85.464 16.811-3.452-2.542-4.353-5.488-2.921-9.551 4.112-11.667 20.681-19.33 33.648-19.33 16.859 0 31.79 4.56 47.914-3.319 2.636-1.288 16.594-8.036 18.667-1.803 1.44 4.328-2.988 10.755-11.844 17.192z"/><path d="m258.764 265.716c11.535.016 20.866-9.562 20.597-21.085 34.186-25.827 13.552-80.388-29-78.063-21.938 1.362-39.411 18.94-40.644 40.888-.819 14.592 5.681 28.461 17.168 37.158-.278 11.529 9.055 21.118 20.597 21.102zm-16.878-20.597c.481-3.551-.337-8.869-3.587-10.856-8.983-5.493-14.196-15.443-13.604-25.966.793-14.127 12.476-25.881 26.597-26.758 29.348-1.466 41.922 37.156 16.658 52.735-3.249 1.986-4.068 7.297-3.588 10.846 0 3.086-2.511 5.597-5.597 5.597h-11.282c-3.086-.002-5.597-2.512-5.597-5.598z"/><path d="m247.422 212.28c-2.344-9.636-16.241-6.848-14.71 2.93 2.336 9.641 16.26 6.854 14.71-2.93z"/><path d="m259.252 216.611c4.172 8.992 17.271 3.562 13.85-5.74-4.154-8.991-17.279-3.547-13.85 5.74z"/></g></g></svg>