<svg id="Capa_1" enable-background="new 0 0 512.004 512.004" height="512" viewBox="0 0 512.004 512.004" width="512" xmlns="http://www.w3.org/2000/svg"><g><path d="m142.423 192.565 83.529-144.676h-107.364c-2.353 0-4.261 1.908-4.261 4.261v140.415z" fill="#aad880"/><path d="m375.391 192.565 47.373-82.052c1.176-2.038.478-4.644-1.56-5.82l-167.346-96.618c-2.038-1.177-4.644-.478-5.82 1.559l-105.615 182.93h232.968z" fill="#c8ea73"/><path d="m368.121 106.487-89.276-51.543c-1.103-.637-2.536-.39-3.296.633-5.191 6.983-14.559 9.494-22.547 6.041-1.12-.484-2.56.043-3.171 1.1l-74.967 129.847h168.084l32.946-57.065c.637-1.103.39-2.536-.633-3.296-6.984-5.191-9.494-14.559-6.041-22.547.507-1.169.005-2.533-1.099-3.17z" fill="#e2f4b4"/><path d="m161.124 78.18c-1.004 8.644-7.862 15.501-16.505 16.505-1.265.147-2.196 1.264-2.196 2.538v95.341l67.307-116.579h-46.068c-1.274 0-2.391.93-2.538 2.195z" fill="#d8f1a0"/><path d="m435.483 389.02h-66.48c-22.061 0-39.945-17.884-39.945-39.945v-1.082c0-22.061 17.884-39.945 39.945-39.945h66.48c2.965 0 5.368 2.403 5.368 5.368v70.235c0 2.966-2.404 5.369-5.368 5.369z" fill="#e2bcaf"/><path d="m410.851 308.049v33.316c0 15.274-12.382 27.655-27.655 27.655h-44.193c-1.617 0-3.211-.097-4.778-.283 6.861 12.111 19.865 20.283 34.778 20.283h66.48c2.965 0 5.368-2.403 5.368-5.368v-70.235c0-2.965-2.403-5.368-5.368-5.368z" fill="#d8a595"/><circle cx="369.543" cy="348.534" fill="#756e78" r="15.19"/><path d="m369.543 389.02c-22.359 0-40.485-18.126-40.485-40.485 0-22.359 18.126-40.485 40.485-40.485h61.19v-69.511c0-25.39-20.583-45.972-45.972-45.972h-302.414c-6.182 0-11.194 5.012-11.194 11.194v289.55c0 6.182 5.012 11.194 11.194 11.194h302.413c25.39 0 45.972-20.583 45.972-45.972v-69.513z" fill="#d09080"/><path d="m384.76 192.565h-2.063c5.069 7.39 8.035 16.334 8.035 25.972v89.511h40v-69.511c.001-25.389-20.582-45.972-45.972-45.972z" fill="#c67d66"/><path d="m390.733 406.314c0 43.183-35.007 78.19-78.19 78.19h-241.39v8.806c0 6.182 5.012 11.194 11.194 11.194h302.413c25.39 0 45.972-20.583 45.972-45.972v-69.512h-40v17.294z" fill="#c67d66"/><circle cx="300.742" cy="120.88" fill="#c8ea73" r="18.164"/><path d="m307.537 192.565c-6.071-13.26-16.174-24.829-29.765-32.676-34.811-20.098-79.325-8.171-99.423 26.64-1.145 1.982-2.185 3.996-3.123 6.036z" fill="#c8ea73"/><path d="m96.11 481.652h288.652c12.743 0 23.111-10.372 23.111-23.122v-44.554c0-4.143-3.357-7.5-7.5-7.5s-7.5 3.357-7.5 7.5v44.554c0 4.479-3.639 8.122-8.111 8.122h-288.652c-4.143 0-7.5 3.357-7.5 7.5s3.358 7.5 7.5 7.5z"/><path d="m400.374 290.587c4.143 0 7.5-3.357 7.5-7.5v-44.554c0-12.744-10.368-23.112-23.111-23.112h-288.653c-4.143 0-7.5 3.357-7.5 7.5s3.357 7.5 7.5 7.5h288.652c4.473 0 8.111 3.64 8.111 8.112v44.554c.001 4.142 3.358 7.5 7.501 7.5z"/><path d="m438.233 300.845v-62.307c0-28.292-22.084-51.521-49.92-53.356l40.944-70.918c3.25-5.627 1.328-12.817-4.304-16.066l-167.344-96.617c-5.638-3.257-12.826-1.316-16.066 4.304l-19.921 34.505h-43.272c-4.143 0-7.5 3.357-7.5 7.5s3.357 7.5 7.5 7.5h34.612l-7.56 13.095h-41.739c-5.107 0-9.401 3.795-9.988 8.831-.598 5.15-4.771 9.322-9.924 9.921-5.032.587-8.827 4.88-8.827 9.987v87.842h-13.096v-129.676h21.522c4.143 0 7.5-3.357 7.5-7.5s-3.357-7.5-7.5-7.5h-24.762c-6.485 0-11.761 5.275-11.761 11.76v132.916h-24.48c-10.308 0-18.693 8.387-18.693 18.694v49.244c0 4.143 3.357 7.5 7.5 7.5s7.5-3.357 7.5-7.5v-49.244c0-2.037 1.657-3.694 3.693-3.694h302.414c21.214 0 38.473 17.259 38.473 38.473v62.011h-54.231c-26.161 0-47.444 21.283-47.444 47.444v1.082c0 26.161 21.283 47.445 47.444 47.445h54.231v62.011c0 21.214-17.259 38.473-38.473 38.473h-302.414c-2.036 0-3.693-1.657-3.693-3.694v-205.307c0-4.143-3.357-7.5-7.5-7.5s-7.5 3.357-7.5 7.5v205.306c0 10.308 8.386 18.694 18.693 18.694h302.414c29.485 0 53.473-23.987 53.473-53.473v-62.307c5.778-1.263 10.117-6.42 10.117-12.572v-70.235c0-6.152-4.339-11.309-10.118-12.572zm-185.32-284.655 161.735 93.378-43.588 75.497h-15.121l26.452-45.816c2.554-4.425 1.412-10.041-2.654-13.063-4.161-3.093-5.688-8.792-3.63-13.556 2.008-4.652.187-10.086-4.236-12.638l-89.277-51.544c-4.423-2.553-10.04-1.414-13.063 2.653-3.094 4.163-8.792 5.689-13.552 3.633-4.576-1.979-10.128-.12-12.643 4.233l-21.544 37.316c-2.071 3.587-.842 8.174 2.745 10.245 3.588 2.068 8.175.842 10.245-2.745l19.538-33.843c8.672 2.105 17.79-.339 24.248-6.497l82.329 47.533c-2.104 8.672.339 17.788 6.496 24.247l-28.775 49.841h-26.428c-19.538-36.673-64.744-52.983-104.006-35.209l8.042-13.929c2.071-3.587.842-8.174-2.745-10.245-3.589-2.071-8.176-.843-10.245 2.745-30.569 52.947 36.507-63.233-32.7 56.639h-15.122c40.446-70.056 79.253-137.271 97.499-168.875zm21.109 150.195c8.218 4.744 15.187 11.094 20.572 18.681h-106.403c19.262-27.106 56.463-35.637 85.831-18.681zm-106.348-82.901h29.067l-46.818 81.091v-63.341c8.562-2.513 15.237-9.189 17.751-17.75zm168.884 265.591v-1.082c0-17.89 14.555-32.444 32.444-32.444h64.349v65.972h-64.349c-17.89-.001-32.444-14.555-32.444-32.446z"/><path d="m369.543 325.844c-12.512 0-22.69 10.179-22.69 22.69s10.179 22.69 22.69 22.69 22.69-10.179 22.69-22.69-10.178-22.69-22.69-22.69zm0 30.38c-4.24 0-7.69-3.45-7.69-7.69s3.45-7.69 7.69-7.69 7.69 3.45 7.69 7.69-3.45 7.69-7.69 7.69z"/><path d="m287.909 143.105c12.331 7.12 28.028 2.782 35.059-9.393 0-.001 0-.001 0-.001 7.075-12.255 2.861-27.982-9.394-35.059-12.257-7.075-27.983-2.861-35.059 9.395-7.091 12.284-2.891 27.965 9.394 35.058zm3.597-27.557c1.964-3.402 5.526-5.337 9.254-5.337 8.117 0 13.332 8.873 9.218 16.001-2.94 5.092-9.474 6.844-14.568 3.903-5.106-2.946-6.851-9.463-3.904-14.567z"/></g></svg>