<svg id="Layer_1" enable-background="new 0 0 512 512" height="512" viewBox="0 0 512 512" width="512" xmlns="http://www.w3.org/2000/svg"><g><path d="m335.998 155.252h-160l25-40.004h110z" fill="#fccd7f"/><path d="m310.998 115.248h-30l25 40.004h30z" fill="#fbc56d"/><path d="m200.998 7.5h110v107.748h-110z" fill="#fedba6"/><path d="m280.998 7.5h30v107.748h-30z" fill="#fccd7f"/><path d="m175.998 356.748h160l-25 40.004h-110z" fill="#fccd7f"/><path d="m305.998 356.748-25 40.004h30l25-40.004z" fill="#fbc56d"/><path d="m200.998 396.752h110v107.748h-110z" fill="#fedba6" transform="matrix(-1 0 0 -1 511.996 901.252)"/><path d="m280.998 396.752h30v107.748h-30z" fill="#fccd7f"/><path d="m381.78 278.295h-251.56c-5.092 0-9.22-4.128-9.22-9.22v-29.564c0-5.092 4.128-9.22 9.22-9.22h251.56c5.092 0 9.22 4.128 9.22 9.22v29.564c0 5.092-4.128 9.22-9.22 9.22z" fill="#fbc56d"/><path d="m305.995 366.035h-99.994c-33.139 0-60.003-26.864-60.003-60.003v-100.015c0-33.139 26.864-60.003 60.003-60.003h99.994c33.139 0 60.003 26.864 60.003 60.003v100.016c0 33.138-26.864 60.002-60.003 60.002z" fill="#fdd79b"/><path d="m305.998 146.014h-30c33.137 0 60 26.866 60 60.006v100.01c0 33.14-26.863 60.006-60 60.006h30c33.137 0 60-26.866 60-60.006v-100.01c0-33.141-26.863-60.006-60-60.006z" fill="#fccd7f"/><path d="m175.998 306.031v-100.013c0-16.569 13.432-30.001 30.001-30.001h99.997c16.569 0 30.001 13.432 30.001 30.001v100.013c0 16.569-13.432 30.001-30.001 30.001h-99.996c-16.57 0-30.002-13.432-30.002-30.001z" fill="#b5adb6"/><circle cx="255.998" cy="256.024" fill="#fedba6" r="15"/><g><path d="m381.78 222.791h-8.282v-16.774c0-24.731-13.376-46.385-33.266-58.142l-21.734-34.777v-105.598c0-4.142-3.358-7.5-7.5-7.5h-110c-4.142 0-7.5 3.358-7.5 7.5v105.597l-21.734 34.777c-19.89 11.757-33.266 33.411-33.266 58.142v16.774h-8.278c-9.219 0-16.72 7.501-16.72 16.721v29.563c0 9.22 7.5 16.721 16.72 16.721h8.278v20.237c0 24.75 13.398 46.419 33.314 58.17l21.686 34.701v105.597c0 4.142 3.358 7.5 7.5 7.5h43.939c9.916-.307 9.909-14.696 0-15h-36.439v-13.583h95v13.583h-23.258c-9.916.307-9.909 14.696 0 15h30.758c4.142 0 7.5-3.358 7.5-7.5v-105.597l21.686-34.701c19.916-11.75 33.314-33.419 33.314-58.17v-20.237h8.282c9.219 0 16.72-7.501 16.72-16.721v-29.563c0-9.219-7.5-16.72-16.72-16.72zm-78.282-154.626h-95v-24.582h95zm-95 15h95v24.583h-95zm95-68.165v13.583h-95v-13.583zm-98.343 107.748h101.686l10.455 16.73c-3.677-.623-7.449-.965-11.301-.965h-99.994c-3.852 0-7.624.342-11.301.965zm-74.935 148.047c-.948 0-1.72-.772-1.72-1.721v-29.563c0-.949.771-1.721 1.72-1.721h8.278v33.005zm173.278 158.04h-95v-24.583h95zm-95 39.582v-24.583h95v24.583zm98.343-79.165h-101.686l-10.421-16.675c3.667.619 7.427.958 11.267.958h99.994c3.84 0 7.6-.339 11.267-.958zm51.657-83.22c0 28.95-23.553 52.503-52.503 52.503h-99.994c-28.95 0-52.503-23.553-52.503-52.503v-100.015c0-28.95 23.553-52.503 52.503-52.503h99.994c28.95 0 52.503 23.553 52.503 52.503zm25.002-36.957c0 .949-.771 1.721-1.72 1.721h-8.282v-33.005h8.282c.948 0 1.72.772 1.72 1.721z"/><path d="m305.998 168.517h-100c-20.678 0-37.5 16.824-37.5 37.503v14.96c.307 9.916 14.696 9.909 15 0v-14.96c0-12.408 10.093-22.503 22.5-22.503h100c12.407 0 22.5 10.095 22.5 22.503v100.01c0 12.408-10.093 22.503-22.5 22.503h-100c-12.407 0-22.5-10.095-22.5-22.503v-50.005c-.307-9.916-14.696-9.909-15 0v50.005c0 20.679 16.822 37.503 37.5 37.503h100c20.678 0 37.5-16.824 37.5-37.503v-100.01c0-20.68-16.822-37.503-37.5-37.503z"/><path d="m255.998 193.436c-4.142 0-7.5 3.358-7.5 7.5v33.878c-8.729 3.096-15 11.432-15 21.21-.34 17.106 19.535 28.338 33.959 19.353l28.59 28.592c2.929 2.929 7.678 2.929 10.607 0s2.929-7.678 0-10.607l-29.547-29.55c4.527-11.463-2.253-25.298-13.609-28.998v-33.878c0-4.142-3.358-7.5-7.5-7.5zm-7.5 62.588c.315-9.912 14.687-9.909 15 0-.315 9.912-14.687 9.91-15 0z"/></g></g></svg>