<svg id="Capa_1" enable-background="new 0 0 512 512" height="512" viewBox="0 0 512 512" width="512" xmlns="http://www.w3.org/2000/svg"><g><g><path d="m425.611 63.613h-26.593l-10.147 416.846c-.331 13.178 10.261 24.041 23.444 24.041s23.775-10.863 23.444-24.041z" fill="#d19a6e"/><path d="m399.018 63.613-10.147 416.846c-.331 13.178 10.261 24.041 23.444 24.041v-440.887z" fill="#c38c66"/><path d="m429.318 215.919-3.707-152.306h-26.593l-3.707 152.306z" fill="#dad8db"/><path d="m324.137 7.5h-224.452c-13.282 0-24.048 10.767-24.048 24.048v448.903c0 13.282 10.767 24.048 24.048 24.048h224.452c13.282 0 24.048-10.767 24.048-24.048v-448.903c0-13.281-10.766-24.048-24.048-24.048z" fill="#faf5dc"/><path d="m436.363 55.597c0 14.219-12.341 25.557-26.897 23.884-12.528-1.439-21.8-13.2-21.15-25.794.83-16.093 11.873-31.9 18.686-40.2 2.755-3.356 7.888-3.336 10.642.021 7.084 8.635 18.719 25.362 18.719 42.089z" fill="#c38c66"/><path d="m346.713 480.452h-190.915c-30.941 0-56.113-25.172-56.113-56.113v-415.366-1.473c-13.282 0-24.048 10.767-24.048 24.048v448.903c0 13.282 10.767 24.048 24.048 24.048h224.452c13.282 0 24.048-10.767 24.048-24.048h-1.472z" fill="#f5ebcd"/><circle cx="155.798" cy="424.339" fill="#d6bdef" r="40.081"/><path d="m167.823 452.395c-22.136 0-40.081-17.945-40.081-40.081 0-7.985 2.399-15.384 6.424-21.633-11.074 7.133-18.448 19.507-18.448 33.657 0 22.136 17.945 40.081 40.081 40.081 14.151 0 26.525-7.374 33.657-18.448-6.249 4.025-13.648 6.424-21.633 6.424z" fill="#c3aff0"/><circle cx="268.024" cy="424.339" fill="#e2a975" r="40.081"/><path d="m280.048 452.395c-22.136 0-40.081-17.945-40.081-40.081 0-7.985 2.399-15.384 6.424-21.633-11.074 7.133-18.448 19.507-18.448 33.657 0 22.136 17.945 40.081 40.081 40.081 14.151 0 26.525-7.374 33.657-18.448-6.249 4.025-13.647 6.424-21.633 6.424z" fill="#d19a6e"/><circle cx="155.798" cy="312.113" fill="#c3ddff" r="40.081"/><path d="m167.823 340.169c-22.136 0-40.081-17.945-40.081-40.081 0-7.985 2.399-15.384 6.424-21.633-11.074 7.133-18.448 19.507-18.448 33.657 0 22.136 17.945 40.081 40.081 40.081 14.151 0 26.525-7.374 33.657-18.448-6.249 4.025-13.648 6.424-21.633 6.424z" fill="#a4ccff"/><circle cx="268.024" cy="312.113" fill="#8bb3ea" r="40.081"/><path d="m280.048 340.169c-22.136 0-40.081-17.945-40.081-40.081 0-7.985 2.399-15.384 6.424-21.633-11.074 7.133-18.448 19.507-18.448 33.657 0 22.136 17.945 40.081 40.081 40.081 14.151 0 26.525-7.374 33.657-18.448-6.249 4.025-13.647 6.424-21.633 6.424z" fill="#739ad6"/><circle cx="155.798" cy="199.887" fill="#ffe07d" r="40.081"/><path d="m167.823 227.944c-22.136 0-40.081-17.945-40.081-40.081 0-7.985 2.399-15.384 6.424-21.633-11.074 7.133-18.448 19.507-18.448 33.657 0 22.136 17.945 40.081 40.081 40.081 14.151 0 26.525-7.374 33.657-18.448-6.249 4.025-13.648 6.424-21.633 6.424z" fill="#ffd064"/><circle cx="268.024" cy="199.887" fill="#b3e59f" r="40.081"/><path d="m280.048 227.944c-22.136 0-40.081-17.945-40.081-40.081 0-7.985 2.399-15.384 6.424-21.633-11.074 7.133-18.448 19.507-18.448 33.657 0 22.136 17.945 40.081 40.081 40.081 14.151 0 26.525-7.374 33.657-18.448-6.249 4.025-13.647 6.424-21.633 6.424z" fill="#95d6a4"/><circle cx="268.024" cy="87.661" fill="#ffc269" r="40.081"/><path d="m280.048 115.718c-22.136 0-40.081-17.945-40.081-40.081 0-7.985 2.399-15.384 6.424-21.633-11.074 7.133-18.448 19.507-18.448 33.657 0 22.136 17.945 40.081 40.081 40.081 14.151 0 26.525-7.374 33.657-18.448-6.249 4.025-13.647 6.424-21.633 6.424z" fill="#ffa95f"/><circle cx="155.798" cy="87.661" fill="#ff8086" r="40.081"/><path d="m167.823 115.718c-22.136 0-40.081-17.945-40.081-40.081 0-7.985 2.399-15.384 6.424-21.633-11.074 7.133-18.448 19.507-18.448 33.657 0 22.136 17.945 40.081 40.081 40.081 14.151 0 26.525-7.374 33.657-18.448-6.249 4.025-13.648 6.424-21.633 6.424z" fill="#e5646e"/><path d="m412.315 10.983c-1.969-.002-3.938.829-5.312 2.505-6.814 8.3-17.856 24.108-18.686 40.2-.65 12.594 8.622 24.355 21.15 25.794.972.112 1.899.022 2.849.02v-68.519z" fill="#b57f5f"/></g><g><path d="m324.137 0h-224.451c-17.396 0-31.549 14.152-31.549 31.548v448.903c0 17.397 14.153 31.549 31.549 31.549h224.452c17.396 0 31.548-14.152 31.548-31.549v-448.903c0-17.396-14.153-31.548-31.549-31.548zm16.549 480.451c0 9.125-7.423 16.549-16.548 16.549h-224.452c-9.125 0-16.548-7.424-16.548-16.549v-448.903c-.001-9.125 7.423-16.548 16.548-16.548h224.452c9.125 0 16.548 7.423 16.548 16.548z"/><path d="m155.798 152.307c-26.236 0-47.581 21.345-47.581 47.581s21.345 47.581 47.581 47.581 47.581-21.345 47.581-47.581-21.345-47.581-47.581-47.581zm0 80.161c-17.965 0-32.581-14.616-32.581-32.581s14.616-32.581 32.581-32.581 32.581 14.616 32.581 32.581-14.616 32.581-32.581 32.581z"/><path d="m155.798 40.081c-26.236 0-47.581 21.345-47.581 47.581s21.345 47.581 47.581 47.581 47.581-21.345 47.581-47.581-21.345-47.581-47.581-47.581zm0 80.161c-17.965 0-32.581-14.616-32.581-32.581s14.616-32.581 32.581-32.581 32.581 14.616 32.581 32.581-14.616 32.581-32.581 32.581z"/><path d="m155.798 264.532c-26.236 0-47.581 21.345-47.581 47.581s21.345 47.581 47.581 47.581 47.581-21.345 47.581-47.581-21.345-47.581-47.581-47.581zm0 80.161c-17.965 0-32.581-14.616-32.581-32.581s14.616-32.581 32.581-32.581 32.581 14.616 32.581 32.581-14.616 32.581-32.581 32.581z"/><path d="m301.761 176.974c-3.795 1.659-5.526 6.081-3.867 9.876 1.799 4.114 2.711 8.5 2.711 13.037 0 17.965-14.616 32.581-32.581 32.581s-32.581-14.616-32.581-32.581 14.616-32.581 32.581-32.581c2.199 0 4.394.219 6.523.652 4.064.826 8.019-1.798 8.843-5.857.824-4.06-1.798-8.019-5.857-8.843-3.11-.631-6.31-.952-9.509-.952-26.236 0-47.581 21.345-47.581 47.581s21.345 47.581 47.581 47.581 47.581-21.345 47.581-47.581c0-6.618-1.335-13.026-3.968-19.046-1.659-3.796-6.082-5.527-9.876-3.867z"/><path d="m189.536 401.425c-3.795 1.66-5.527 6.082-3.868 9.876 1.799 4.114 2.711 8.5 2.711 13.037 0 17.965-14.616 32.581-32.581 32.581s-32.581-14.616-32.581-32.581 14.616-32.581 32.581-32.581c2.199 0 4.394.219 6.524.652 4.064.824 8.019-1.799 8.842-5.858.824-4.059-1.799-8.018-5.858-8.842-3.11-.631-6.31-.952-9.509-.952-26.236 0-47.581 21.345-47.581 47.581s21.345 47.581 47.581 47.581 47.581-21.345 47.581-47.581c0-6.618-1.334-13.025-3.967-19.046-1.659-3.794-6.081-5.527-9.875-3.867z"/><path d="m268.024 40.081c-26.236 0-47.581 21.345-47.581 47.581s21.345 47.581 47.581 47.581 47.581-21.345 47.581-47.581-21.345-47.581-47.581-47.581zm0 80.161c-17.965 0-32.581-14.616-32.581-32.581s14.616-32.581 32.581-32.581 32.581 14.616 32.581 32.581-14.616 32.581-32.581 32.581z"/><path d="m268.024 376.758c-26.236 0-47.581 21.345-47.581 47.581s21.345 47.581 47.581 47.581 47.581-21.345 47.581-47.581-21.345-47.581-47.581-47.581zm0 80.161c-17.965 0-32.581-14.616-32.581-32.581s14.616-32.581 32.581-32.581 32.581 14.616 32.581 32.581-14.616 32.581-32.581 32.581z"/><path d="m268.024 264.532c-26.236 0-47.581 21.345-47.581 47.581s21.345 47.581 47.581 47.581 47.581-21.345 47.581-47.581-21.345-47.581-47.581-47.581zm0 80.161c-17.965 0-32.581-14.616-32.581-32.581s14.616-32.581 32.581-32.581 32.581 14.616 32.581 32.581-14.616 32.581-32.581 32.581z"/><path d="m438.011 271.844c-.104-4.14-3.528-7.394-7.686-7.309-4.141.104-7.413 3.545-7.309 7.686l5.244 208.427c.109 4.336-1.499 8.434-4.526 11.538-3.028 3.104-7.083 4.814-11.42 4.814s-8.392-1.71-11.42-4.814c-3.027-3.104-4.635-7.202-4.526-11.538l6.472-257.228h18.948l.421 16.733c.103 4.077 3.439 7.312 7.494 7.312.063 0 .128-.001.192-.002 4.141-.104 7.413-3.545 7.309-7.686l-4.039-160.533c6.553-5.785 10.697-14.239 10.697-23.647 0-26.846-25.173-52.328-26.245-53.4-2.929-2.929-7.678-2.929-10.606 0-1.072 1.072-26.245 26.554-26.245 53.4 0 9.408 4.144 17.861 10.697 23.647l-10.09 401.027c-.212 8.412 2.907 16.363 8.782 22.388 5.875 6.024 13.745 9.341 22.159 9.341s16.284-3.317 22.159-9.342c5.875-6.024 8.994-13.976 8.782-22.388zm-34.793-63.425.429-17.064h17.334l.429 17.064zm9.119-189.599c7.088 8.789 16.526 23.488 16.526 36.776 0 9.125-7.423 16.548-16.548 16.548s-16.548-7.423-16.548-16.548c-.001-14.075 10.103-28.796 16.57-36.776zm-.023 68.325c2.063 0 4.077-.205 6.031-.585l2.259 89.795h-16.58l2.259-89.795c1.954.38 3.969.585 6.031.585z"/></g></g></svg>