<svg id="Capa_1" enable-background="new 0 0 512 512" height="512" viewBox="0 0 512 512" width="512" xmlns="http://www.w3.org/2000/svg"><g><g><path d="m71.629 456.403h320.645c8.854 0 16.032-7.178 16.032-16.032v-416.839c0-8.854-7.178-16.032-16.032-16.032h-320.645c-8.854 0-16.032 7.178-16.032 16.032v416.839c0 8.854 7.178 16.032 16.032 16.032z" fill="#eceaec"/><path d="m79.645 416.323v-408.823h-8.016c-8.854 0-16.032 7.178-16.032 16.032v416.839c0 8.854 7.179 16.032 16.032 16.032h320.645c8.854 0 16.032-7.178 16.032-16.032v-8.016h-312.629c-8.84 0-16.032-7.192-16.032-16.032z" fill="#dad8db"/><path d="m292.76 408.876-45.346-45.346c-6.261-6.261-6.261-16.412 0-22.673l45.346-45.346c6.261-6.261 16.412-6.261 22.673 0l45.346 45.346c6.261 6.261 6.261 16.412 0 22.673l-45.346 45.346c-6.261 6.261-16.412 6.261-22.673 0z" fill="#f4dbb3"/><path d="m440.371 504.5h-64.129c-8.854 0-16.032-7.178-16.032-16.032v-64.129c0-8.854 7.178-16.032 16.032-16.032h64.129c8.854 0 16.032 7.178 16.032 16.032v64.129c0 8.854-7.178 16.032-16.032 16.032z" fill="#faf5dc"/><path d="m321.102 301.179-5.669-5.669c-6.261-6.261-16.412-6.261-22.673 0l-45.346 45.346c-6.261 6.261-6.261 16.412 0 22.673l45.346 45.346c6.261 6.261 16.412 6.261 22.673 0l5.669-5.669-45.346-45.346c-1.515-1.514-2.348-3.527-2.348-5.668s.835-4.154 2.348-5.668z" fill="#eac89f"/><path d="m384.258 472.435v-64.129h-8.016c-8.854 0-16.032 7.178-16.032 16.032v64.129c0 8.854 7.178 16.032 16.032 16.032h64.129c8.854 0 16.032-7.178 16.032-16.032v-8.016h-64.129c-4.42.001-8.016-3.596-8.016-8.016z" fill="#f5ebcd"/></g><g><path d="m328.145 448.903h-256.516c-4.705 0-8.532-3.828-8.532-8.532v-361.242h337.71v297.113c0 4.142 3.358 7.5 7.5 7.5s7.5-3.358 7.5-7.5v-352.71c0-12.975-10.557-23.532-23.533-23.532h-320.645c-12.976 0-23.532 10.557-23.532 23.532v416.839c0 12.976 10.557 23.532 23.532 23.532h256.516c4.142 0 7.5-3.358 7.5-7.5s-3.358-7.5-7.5-7.5zm-256.516-433.903h320.646c4.705 0 8.532 3.828 8.532 8.532v40.597h-337.71v-40.597c0-4.704 3.827-8.532 8.532-8.532z"/><path d="m440.371 400.807h-64.129c-12.976 0-23.532 10.557-23.532 23.532v64.129c0 12.976 10.557 23.532 23.532 23.532h64.129c12.976 0 23.532-10.557 23.532-23.532v-64.129c0-12.976-10.556-23.532-23.532-23.532zm8.532 87.661c0 4.705-3.828 8.532-8.532 8.532h-64.129c-4.705 0-8.532-3.828-8.532-8.532v-64.129c0-4.705 3.828-8.532 8.532-8.532h64.129c4.705 0 8.532 3.828 8.532 8.532z"/><path d="m287.457 414.179c4.445 4.445 10.354 6.893 16.64 6.893s12.195-2.448 16.64-6.893l45.346-45.346c9.175-9.175 9.175-24.104 0-33.28l-45.346-45.346c-9.175-9.175-24.104-9.174-33.279 0l-45.347 45.346c-9.174 9.175-9.174 24.104 0 33.28zm-34.74-68.019 45.346-45.346c1.664-1.664 3.848-2.495 6.033-2.495s4.37.832 6.033 2.495l45.346 45.346c3.327 3.327 3.327 8.74 0 12.067l-45.347 45.346c-1.611 1.612-3.753 2.499-6.033 2.499-2.279 0-4.421-.888-6.033-2.499l-45.346-45.346c-3.325-3.327-3.325-8.74.001-12.067z"/><path d="m304.153 337.077c1.919 0 3.839-.732 5.303-2.197 2.929-2.929 2.929-7.678 0-10.606l-.057-.057c-2.929-2.929-7.649-2.901-10.578.028s-2.901 7.706.028 10.635c1.465 1.465 3.385 2.197 5.304 2.197z"/><path d="m304.153 382.423c1.919 0 3.839-.732 5.303-2.197 2.929-2.929 2.929-7.678 0-10.606l-.057-.057c-2.929-2.929-7.649-2.9-10.578.028-2.929 2.929-2.901 7.706.028 10.635 1.465 1.465 3.385 2.197 5.304 2.197z"/><path d="m412.038 449.897-.07-.04c-3.594-2.06-8.142-.798-10.202 2.795-2.061 3.593-.783 8.197 2.81 10.257 1.177.674 2.458.995 3.724.995 2.6 0 5.127-1.354 6.513-3.771 2.061-3.592.818-8.175-2.775-10.236z"/><path d="m95.677 47.064h104.21c4.142 0 7.5-3.358 7.5-7.5s-3.358-7.5-7.5-7.5h-104.21c-4.142 0-7.5 3.358-7.5 7.5s3.358 7.5 7.5 7.5z"/><path d="m151.791 96.193h-56.114c-4.142 0-7.5 3.358-7.5 7.5s3.358 7.5 7.5 7.5h56.113c4.142 0 7.5-3.358 7.5-7.5s-3.357-7.5-7.499-7.5z"/><path d="m199.887 96.193h-16.032c-4.142 0-7.5 3.358-7.5 7.5s3.358 7.5 7.5 7.5h16.032c4.142 0 7.5-3.358 7.5-7.5s-3.358-7.5-7.5-7.5z"/><path d="m255.484 103.693c0-4.142-3.358-7.5-7.5-7.5h-16.032c-4.142 0-7.5 3.358-7.5 7.5s3.358 7.5 7.5 7.5h16.032c4.142 0 7.5-3.358 7.5-7.5z"/><path d="m296.081 111.193c4.142 0 7.5-3.358 7.5-7.5s-3.358-7.5-7.5-7.5h-16.032c-4.142 0-7.5 3.358-7.5 7.5s3.358 7.5 7.5 7.5z"/><path d="m328.145 111.193h16.032c4.142 0 7.5-3.358 7.5-7.5s-3.358-7.5-7.5-7.5h-16.032c-4.142 0-7.5 3.358-7.5 7.5s3.358 7.5 7.5 7.5z"/><path d="m151.791 128.258h-56.114c-4.142 0-7.5 3.358-7.5 7.5s3.358 7.5 7.5 7.5h56.113c4.142 0 7.5-3.358 7.5-7.5s-3.357-7.5-7.499-7.5z"/><path d="m199.887 128.258h-16.032c-4.142 0-7.5 3.358-7.5 7.5s3.358 7.5 7.5 7.5h16.032c4.142 0 7.5-3.358 7.5-7.5s-3.358-7.5-7.5-7.5z"/><path d="m151.791 160.323h-56.114c-4.142 0-7.5 3.358-7.5 7.5s3.358 7.5 7.5 7.5h56.113c4.142 0 7.5-3.358 7.5-7.5s-3.357-7.5-7.499-7.5z"/><path d="m199.887 160.323h-16.032c-4.142 0-7.5 3.358-7.5 7.5s3.358 7.5 7.5 7.5h16.032c4.142 0 7.5-3.358 7.5-7.5s-3.358-7.5-7.5-7.5z"/><path d="m151.791 192.387h-56.114c-4.142 0-7.5 3.358-7.5 7.5s3.358 7.5 7.5 7.5h56.113c4.142 0 7.5-3.358 7.5-7.5s-3.357-7.5-7.499-7.5z"/><path d="m199.887 192.387h-16.032c-4.142 0-7.5 3.358-7.5 7.5s3.358 7.5 7.5 7.5h16.032c4.142 0 7.5-3.358 7.5-7.5s-3.358-7.5-7.5-7.5z"/><path d="m151.791 224.452h-56.114c-4.142 0-7.5 3.358-7.5 7.5s3.358 7.5 7.5 7.5h56.113c4.142 0 7.5-3.358 7.5-7.5s-3.357-7.5-7.499-7.5z"/><path d="m199.887 224.452h-16.032c-4.142 0-7.5 3.358-7.5 7.5s3.358 7.5 7.5 7.5h16.032c4.142 0 7.5-3.358 7.5-7.5s-3.358-7.5-7.5-7.5z"/><path d="m151.791 256.516h-56.114c-4.142 0-7.5 3.358-7.5 7.5s3.358 7.5 7.5 7.5h56.113c4.142 0 7.5-3.358 7.5-7.5s-3.357-7.5-7.499-7.5z"/><path d="m199.887 256.516h-16.032c-4.142 0-7.5 3.358-7.5 7.5s3.358 7.5 7.5 7.5h16.032c4.142 0 7.5-3.358 7.5-7.5s-3.358-7.5-7.5-7.5z"/><path d="m151.791 288.581h-56.114c-4.142 0-7.5 3.358-7.5 7.5s3.358 7.5 7.5 7.5h56.113c4.142 0 7.5-3.358 7.5-7.5s-3.357-7.5-7.499-7.5z"/><path d="m199.887 288.581h-16.032c-4.142 0-7.5 3.358-7.5 7.5s3.358 7.5 7.5 7.5h16.032c4.142 0 7.5-3.358 7.5-7.5s-3.358-7.5-7.5-7.5z"/><path d="m151.791 320.645h-56.114c-4.142 0-7.5 3.358-7.5 7.5s3.358 7.5 7.5 7.5h56.113c4.142 0 7.5-3.358 7.5-7.5s-3.357-7.5-7.499-7.5z"/><path d="m199.887 320.645h-16.032c-4.142 0-7.5 3.358-7.5 7.5s3.358 7.5 7.5 7.5h16.032c4.142 0 7.5-3.358 7.5-7.5s-3.358-7.5-7.5-7.5z"/><path d="m151.791 352.709h-56.114c-4.142 0-7.5 3.358-7.5 7.5s3.358 7.5 7.5 7.5h56.113c4.142 0 7.5-3.358 7.5-7.5s-3.357-7.5-7.499-7.5z"/><path d="m199.887 352.709h-16.032c-4.142 0-7.5 3.358-7.5 7.5s3.358 7.5 7.5 7.5h16.032c4.142 0 7.5-3.358 7.5-7.5s-3.358-7.5-7.5-7.5z"/><path d="m151.791 384.774h-56.114c-4.142 0-7.5 3.358-7.5 7.5s3.358 7.5 7.5 7.5h56.113c4.142 0 7.5-3.358 7.5-7.5s-3.357-7.5-7.499-7.5z"/><path d="m199.887 384.774h-16.032c-4.142 0-7.5 3.358-7.5 7.5s3.358 7.5 7.5 7.5h16.032c4.142 0 7.5-3.358 7.5-7.5s-3.358-7.5-7.5-7.5z"/><path d="m151.791 416.839h-56.114c-4.142 0-7.5 3.358-7.5 7.5s3.358 7.5 7.5 7.5h56.113c4.142 0 7.5-3.358 7.5-7.5s-3.357-7.5-7.499-7.5z"/><path d="m199.887 416.839h-16.032c-4.142 0-7.5 3.358-7.5 7.5s3.358 7.5 7.5 7.5h16.032c4.142 0 7.5-3.358 7.5-7.5s-3.358-7.5-7.5-7.5z"/></g></g></svg>