<?xml version="1.0" encoding="UTF-8" standalone="no"?>
<!-- Created with Inkscape (http://www.inkscape.org/) -->

<svg
   version="1.1"
   id="svg7131"
   xml:space="preserve"
   width="682.66669"
   height="682.66669"
   viewBox="0 0 682.66669 682.66669"
   xmlns="http://www.w3.org/2000/svg"
   xmlns:svg="http://www.w3.org/2000/svg"><defs
     id="defs7135"><clipPath
       clipPathUnits="userSpaceOnUse"
       id="clipPath7145"><path
         d="M 0,512 H 512 V 0 H 0 Z"
         id="path7143" /></clipPath></defs><g
     id="g7137"
     transform="matrix(1.3333333,0,0,-1.3333333,0,682.66667)"><g
       id="g7139"><g
         id="g7141"
         clip-path="url(#clipPath7145)"><g
           id="g7147"
           transform="translate(402.1675,126.7529)"><path
             d="m 0,0 6.056,302.741 -325.731,0.009 v -422 h 209.997 c 46.572,-0.01 86.052,30.306 99.804,72.28 C -6.499,-36.669 0.005,-11.419 0,0"
             style="fill:#f795ca;fill-opacity:1;fill-rule:nonzero;stroke:none"
             id="path7149" /></g><g
           id="g7151"
           transform="translate(504.5,429.5)"><path
             d="m 0,0 c 0,21.614 -15.254,39.682 -35.588,44.007 l -82.238,-314.518 c 6.922,-14.011 10.82,-29.8 10.824,-46.49 0.005,-11.419 -1.83,-22.415 -5.202,-32.706 L -2.227,-14.023 C -0.782,-9.614 0.003,-4.904 0,0"
             style="fill:#b95289;fill-opacity:1;fill-rule:nonzero;stroke:none"
             id="path7153" /></g><g
           id="g7155"
           transform="translate(473.7642,424.8164)"><path
             d="m 0,0 -87.09,-265.827 c -17.158,34.675 -52.882,58.512 -94.175,58.508 L -53.771,26.245 c 7.638,13.967 22.474,23.439 39.509,23.435 3.22,-0.003 6.371,-0.341 9.41,-0.99 C 2.539,44.333 6.061,31.025 3.32,13.666 2.582,9.004 1.445,4.409 0,0"
             style="fill:#d762a1;fill-opacity:1;fill-rule:nonzero;stroke:none"
             id="path7157" /></g><g
           id="g7159"
           transform="translate(82.5,504.5)"><path
             d="M 0,0 V -422 H 75 V -75 C 75,-33.578 41.421,0 0,0"
             style="fill:#f472b8;fill-opacity:1;fill-rule:nonzero;stroke:none"
             id="path7161" /></g><g
           id="g7163"
           transform="translate(82.5,504.5)"><path
             d="M 0,0 C -41.421,0 -75,-33.578 -75,-75 V -422 H 45 V -75 C 45,-33.578 24.853,0 0,0"
             style="fill:#f795ca;fill-opacity:1;fill-rule:nonzero;stroke:none"
             id="path7165" /></g><g
           id="g7167"
           transform="translate(7.5,82.5)"><path
             d="M 0,0 C 0,41.421 33.579,75 75,75 116.421,75 150,41.421 150,0 150,-41.421 116.421,-75 75,-75 33.579,-75 0,-41.421 0,0"
             style="fill:#d762a1;fill-opacity:1;fill-rule:nonzero;stroke:none"
             id="path7169" /></g><g
           id="g7171"
           transform="translate(37.5,82.5)"><path
             d="M 0,0 C 0,24.853 20.147,45 45,45 69.853,45 90,24.853 90,0 90,-24.853 69.853,-45 45,-45 20.147,-45 0,-24.853 0,0"
             style="fill:#b95289;fill-opacity:1;fill-rule:nonzero;stroke:none"
             id="path7173" /></g><g
           id="g7175"
           transform="translate(67.5,82.5)"><path
             d="M 0,0 C 0,8.284 6.716,15 15,15 23.284,15 30,8.284 30,0 30,-8.284 23.284,-15 15,-15 6.716,-15 0,-8.284 0,0"
             style="fill:#d762a1;fill-opacity:1;fill-rule:nonzero;stroke:none"
             id="path7177" /></g><g
           id="g7179"
           transform="translate(187.5,429.5)"><path
             d="M 0,0 H 220.723"
             style="fill:none;stroke:#000000;stroke-width:15;stroke-linecap:round;stroke-linejoin:round;stroke-miterlimit:10;stroke-dasharray:none;stroke-opacity:1"
             id="path7181" /></g><g
           id="g7183"
           transform="translate(7.5,82.5)"><path
             d="M 0,0 C 0,41.421 33.579,75 75,75 116.421,75 150,41.421 150,0 150,-41.421 116.421,-75 75,-75 33.579,-75 0,-41.421 0,0 Z"
             style="fill:none;stroke:#000000;stroke-width:15;stroke-linecap:round;stroke-linejoin:round;stroke-miterlimit:10;stroke-dasharray:none;stroke-opacity:1"
             id="path7185" /></g><g
           id="g7187"
           transform="translate(7.5,82.5)"><path
             d="m 0,0 v 347 c 0,41.421 33.579,75 75,75 41.421,0 75,-33.579 75,-75 V 0"
             style="fill:none;stroke:#000000;stroke-width:15;stroke-linecap:round;stroke-linejoin:round;stroke-miterlimit:10;stroke-dasharray:none;stroke-opacity:1"
             id="path7189" /></g><g
           id="g7191"
           transform="translate(37.5,82.5)"><path
             d="M 0,0 C 0,24.853 20.147,45 45,45 69.853,45 90,24.853 90,0 90,-24.853 69.853,-45 45,-45 20.147,-45 0,-24.853 0,0 Z"
             style="fill:none;stroke:#000000;stroke-width:15;stroke-linecap:round;stroke-linejoin:round;stroke-miterlimit:10;stroke-dasharray:none;stroke-opacity:1"
             id="path7193" /></g><g
           id="g7195"
           transform="translate(67.5,82.5)"><path
             d="M 0,0 C 0,8.284 6.716,15 15,15 23.284,15 30,8.284 30,0 30,-8.284 23.284,-15 15,-15 6.716,-15 0,-8.284 0,0 Z"
             style="fill:none;stroke:#000000;stroke-width:15;stroke-linecap:round;stroke-linejoin:round;stroke-miterlimit:10;stroke-dasharray:none;stroke-opacity:1"
             id="path7197" /></g><g
           id="g7199"
           transform="translate(392.3032,79.7852)"><path
             d="m 0,0 109.97,335.694 c 1.445,4.412 2.227,9.125 2.227,14.021 0,24.852 -20.147,45 -45,45 -17.041,0 -31.87,-9.472 -39.508,-23.439 L -99.803,137.715 c 57.99,0 105,-47.01 105,-105 0,-57.99 -47.01,-105 -105,-105 h -210"
             style="fill:none;stroke:#000000;stroke-width:15;stroke-linecap:round;stroke-linejoin:round;stroke-miterlimit:10;stroke-dasharray:none;stroke-opacity:1"
             id="path7201" /></g></g></g></g></svg>
